<svg width="18" height="18" viewBox="0 0 18 18" fill="none" xmlns="http://www.w3.org/2000/svg">
<path fill-rule="evenodd" clip-rule="evenodd" d="M8.99977 2.0625C9.14895 2.0625 9.29202 2.12176 9.39751 2.22725L13.95 6.77975C14.1697 6.99942 14.1697 7.35558 13.95 7.57525C13.7303 7.79492 13.3742 7.79492 13.1545 7.57525L8.99977 3.4205L4.84501 7.57525C4.62534 7.79492 4.26919 7.79492 4.04952 7.57525C3.82985 7.35558 3.82985 6.99942 4.04952 6.77975L8.60202 2.22725C8.70751 2.12176 8.85058 2.0625 8.99977 2.0625Z" fill="#7E829E"/>
<path fill-rule="evenodd" clip-rule="evenodd" d="M9 2.18994C9.31066 2.18994 9.5625 2.44178 9.5625 2.75244V15.3749C9.5625 15.6856 9.31066 15.9374 9 15.9374C8.68934 15.9374 8.4375 15.6856 8.4375 15.3749V2.75244C8.4375 2.44178 8.68934 2.18994 9 2.18994Z" fill="#7E829E"/>
</svg>
