<svg xmlns="http://www.w3.org/2000/svg" width="693" height="582" fill="none" viewBox="0 0 693 582">
    <path fill="url(#prefix__paint0_linear)" d="M317.57 111.701c0 22.093-6.552 43.689-18.826 62.058-12.273 18.369-29.719 32.686-50.13 41.141-20.41 8.454-42.87 10.666-64.538 6.356-21.668-4.31-41.571-14.948-57.192-30.57-15.622-15.622-26.261-35.525-30.57-57.193-4.31-21.668-2.099-44.127 6.356-64.538 8.454-20.41 22.771-37.856 41.14-50.13C162.18 6.551 183.776 0 205.868 0c29.625 0 58.037 11.768 78.985 32.717 20.948 20.948 32.717 49.36 32.717 78.984z"/>
    <path fill="url(#prefix__paint1_linear)" d="M327.962 368.89l2.308.149c-.763-.074-1.526-.111-2.308-.149z" opacity=".4"/>
    <path fill="url(#prefix__paint2_linear)" d="M692.5 378.395c-46.703-3.813-94.115-6.183-140.311-12.014-60.785-7.701-129.167-2.906-190.914-2.906-33.735 0-66.559.241-100.066 2.24-40.523 2.425-104.271-14.546-142.362-8.215v26.041c-3.141 3.703 15.955 18.512 21.223 22.51 10.764 8.22 26.239 11.422 43.056 13.606 15.348 1.963 33.887 1.611 48.374 4.832 10.891 2.425 19.578 9.071 29.202 12.847 7.852 3.091 24.035 6.053 29.05 11.107 8.105 8.164 3.369 15.327 18.869 20.77 6.736 2.351 16.386 3.054 22.541 5.738 7.015 3.055 13.676 8.349 19.374 12.329 18.59 12.958 35.99 25.176 61.19 32.543 28.847 8.442 53.009 23.251 82.464 31.581 32.113 8.649 65.381 14.804 99.256 18.364 33.204 3.443 67.572 13.865 98.978 12.014l.076-203.387z"/>
    <path fill="#804983" d="M691.878 201.32l.622 1.995v150.67c-60.664 9.474-118.93 8.466-181.548 8.728-93.61.391-188.843 5.194-282.452 7.787H42.608c-.43.07-.8.071-1.108 0h1.108C63.764 367.054 228.46 196.046 242 189.832c20.137-9.232 53.496-35.752 73.204-45.729 9.328-4.681 22.743-8.579 30.991-14.006 9.832-6.471 15.399-13.95 26.267-18.985 10.454-4.849 15.755-8.187 23.469-17.288 9.388-11.096 11.105-12.887 24.195-12.44 5.153.094 4.101 3.824 12.778.094 4.309-1.884 4.872-6.695 10.232-8.56 9.269-3.208 22.358 2.63 30.487 7.683 16.584 10.332 32.398 27.135 47.471 40.395 15.859 13.987 36.751 24.039 53.528 35.434 18.849 12.85 36.069 21.429 57.347 26.333 9.699 2.22 21.233 4.644 31.228 7.069 9.995 2.424 18.908 9.157 28.681 11.488z"/>
    <path style="mix-blend-mode:overlay" fill="url(#prefix__paint3_radial)" d="M678.015 191.751c28.857 47.417-45.89 130.765-166.937 186.169-121.047 55.404-242.578 61.827-271.434 14.391-28.856-47.436 45.89-130.765 166.937-186.169 121.047-55.404 242.578-61.901 271.434-14.391z" opacity=".6"/>
    <path fill="#BD5983" d="M64 358c15.042-6.088 49.753-18.484 70.362-20.178 3.835-.317 7.912 1.861 12.157.502 3.816-1.247 5.324-6.032 8.899-7.447 6.423-2.476 18.077-.763 24.797-1.861 3.724-.596 5.586-2.42 9.514-2.737 4.635-.372 8.005 3.519 12.492 1.75 6.534-2.588 8.526-13.944 6.72-19.697 11.506-10.22 24.407-3.109 36.75-7.93 6.963-2.718 9.625-7.298 14.112-10.147 6.088-3.707 12.713-6.452 19.64-8.135-1.172-15.936 19.399-15.173 27.777-22.34 4.691-3.984 5.194-7.447 12.231-11.17 5.698-3.05 10.948-6.871 15.601-11.357 7.875-7.167 17.109-21.298 28.465-22.508 6.74-.726 11.934 5.25 16.346 4.897 5.939-.484 10.667-7.819 14.409-11.45 5.939 4.841 12.865 7.559 18.859 12.455 2.029 1.638 7.019 7.447 9.104 8.266 4.635 1.862 9.42-.503 10.481-.168 8.62 2.718 11.617 12.101 17.705 19.697 7.012 8.922 14.992 17.038 23.792 24.202 14.559 11.673 29.62 17.593 44.681 28.335 11.896 8.415 23.625 17.649 35.037 26.771 8.694 6.963 25.132 16.476 29.787 25.952 1.079 1.871 2.325 3.64 3.723 5.287-6.851 8.992-37.234 6.646-49.502 7.056-19.101.651-36.824 4.021-55.348 6.199-21.019 2.476-44.457 0-64.322 5.697-12.473 3.556-42.111 2.383-50.786 9.011H0c14.28-.727 51.843-24.019 64-28.952z"/>
    <path fill="url(#prefix__paint4_linear)" d="M333.283 312.856c0-1.62 3.724-4.84 1.862-6.46-16.755-12.901-11.17-27.441 0-41.962 1.862-1.62 7.447 3.22 9.308 1.619 5.586-9.681 9.309-16.141 20.479-22.601 7.242-3.723 6.609-16.289 12.939-23.96.645.192 1.32.267 1.992.224 5.939-.484 10.667-7.819 14.409-11.45 5.939 4.841 12.865 7.559 18.859 12.455 2.029 1.638 7.019 7.447 9.104 8.266 4.635 1.862 9.42-.503 10.481-.168 8.62 2.719 11.617 12.101 17.705 19.697 7.012 8.922 14.992 17.039 23.792 24.202 14.559 11.673 29.62 17.593 44.681 28.335 11.896 8.415 23.625 17.649 35.037 26.771 8.694 6.963 25.132 16.476 29.787 25.952 1.079 1.871 2.325 3.641 3.723 5.287-6.851 8.992-37.234 6.646-49.502 7.056-19.101.652-36.824 4.021-55.348 6.199-21.019 2.476-44.457 0-64.322 5.697-12.473 3.556-42.111 2.383-50.786 9.011l-161.074-5.343c25.17-10.835 46.822-27.777 67.151-41.348 18.766-14.559 37.383-19.399 59.723-27.479z"/>
    <path fill="#0ACF94" d="M692.5 190.969c-8.937-2.197-14.894 3.611-24.333.502-6.46-2.122-13.032-11.17-18.617-14.484-9.047-5.343-7.558-7.651-20.478-2.941-6.46 2.346-15.005 6.721-15.117 13.963-14.316-1.862-24.686 21.186-33.138 29.34-7.745 7.447-22.769 22.228-20.851 33.622-12.492 1.042-25.803 4.505-38.407 6.33-14.279 2.066-19.305 4.561-26.789 17.835-14.559-.782-24.202 9.308-36.824 13.273-12.12 3.724-26.064 4.022-38.779 6.051-7.447 1.191-6.721-2.755-15.303 2.308-4.506 2.644-8.173 11.301-11.543 15.452-7.614 9.421-17.221 21.335-27.497 29.415-22.34 17.63-48.311 21.763-76.329 29.024-43.527 11.263-16.476 25.375 14.893 29.098 28.373 3.409 56.976 4.499 85.526 3.258 24.798-1.173 63.8-7.894 87.183.279 4.896 13.609-13.032 15.136-20.348 23.923 10.351 11.468 61.808 7.447 78.377 8.08 28.242 1.21 55.366 5.287 83.776 2.867 25.077-2.123 49.241-5.343 74.598-5.976V190.969z"/>
    <path fill="url(#prefix__paint5_linear)" d="M426.149 377.119c22.34-4.841 44.681-11.301 65.159-24.202 5.585-3.221 16.755 3.22 18.617-3.221 7.447-16.141 24.202-27.441 42.819-19.38 5.585-22.601 29.787-33.901 24.202-58.103 0 0 3.723-6.46 5.585-6.46 14.893 4.84 22.34-4.841 29.787-11.301 1.862-3.221-1.862-11.3 0-11.3 24.202-12.92 40.957-25.822 26.063-48.404 1.862-1.62 3.724-1.62 7.447-1.62 0-5.585 1.862-11.3 6.107-14.372-.764-.636-1.573-1.214-2.421-1.732-9.047-5.343-7.558-7.651-20.478-2.941-6.46 2.346-15.005 6.721-15.117 13.963-14.317-1.862-24.686 21.186-33.138 29.34-7.745 7.447-22.769 22.228-20.851 33.622-12.492 1.043-25.803 4.505-38.407 6.33-14.279 2.066-19.305 4.561-26.789 17.835-14.559-.782-24.202 9.308-36.825 13.273-12.119 3.724-26.063 4.022-38.779 6.051-7.446 1.191-6.72-2.755-15.303 2.309-4.505 2.643-8.172 11.3-11.542 15.451-7.614 9.421-17.221 21.335-27.497 29.415-22.34 17.63-48.311 21.763-76.329 29.024-21.131 5.473-25.599 11.598-21.037 16.904 49.651 10.314 105.911-1.582 158.727-10.481z"/>
    <path fill="#FFFFEB" d="M331.203 417.462c-11.159.72-22.352.72-33.511 0 11.16-.695 22.351-.695 33.511 0zM384.577 428.222c-1.683.305-3.392.436-5.101.391-3.146.093-7.447.149-12.287.149-4.841 0-9.141 0-12.288-.149-1.703.046-3.406-.085-5.082-.391 1.676-.304 3.38-.429 5.082-.372 3.147 0 7.447-.149 12.288-.149 4.84 0 9.141 0 12.287.149 1.709-.057 3.418.068 5.101.372zM411.87 414.185c-8.258.695-16.559.695-24.817 0 8.257-.72 16.56-.72 24.817 0zM405.669 452.983c-2.47.305-4.958.429-7.446.372-4.617 0-10.966.149-18.003.149-7.037 0-13.386 0-17.984-.149-2.488.057-4.977-.067-7.447-.372 2.47-.305 4.959-.429 7.447-.372 4.598-.093 10.965-.168 17.984-.168 7.019 0 13.386 0 18.003.168 2.488-.057 4.976.067 7.446.372zM478.89 454.063c-1.739.304-3.504.429-5.269.372-3.258.093-7.744.149-12.715.149s-9.476 0-12.734-.149c-1.764.057-3.53-.068-5.268-.372 1.738-.306 3.503-.437 5.268-.391 3.258 0 7.763-.149 12.734-.149s9.457 0 12.715.149c1.765-.046 3.53.085 5.269.391zM560.804 456.204c-2.345.305-4.71.429-7.074.372-4.394.093-10.444.167-17.128.167-6.683 0-12.733 0-17.108-.167-2.371.057-4.742-.068-7.093-.372 2.351-.305 4.722-.43 7.093-.373 4.375-.093 10.425-.149 17.108-.149 6.684 0 12.734 0 17.128.149 2.364-.057 4.729.067 7.074.373zM451.597 474.504c-2.532.305-5.083.43-7.633.373-4.728 0-11.17.149-18.43.149-7.261 0-13.721 0-18.431-.149-2.55.058-5.101-.067-7.633-.373 2.532-.305 5.083-.43 7.633-.372 4.71-.093 11.17-.167 18.431-.167 7.26 0 13.702 0 18.43.167 2.55-.057 5.101.068 7.633.372zM498.753 469.124c-4.522.695-9.124.695-13.646 0 4.52-.72 9.126-.72 13.646 0zM431.734 462.589c-7.43.72-14.911.72-22.341 0 7.431-.695 14.91-.695 22.341 0zM195.914 381.401c6.169 0 11.17-.234 11.17-.522 0-.287-5.001-.521-11.17-.521s-11.17.234-11.17.521c0 .288 5.001.522 11.17.522zM244.316 377.659c-7.013.695-14.079.695-21.093 0 7.013-.72 14.081-.72 21.093 0zM221.977 390.56c-7.43.72-14.911.72-22.34 0 7.43-.695 14.909-.695 22.34 0zM248.04 390.001c4.113 0 7.447-.233 7.447-.521 0-.288-3.334-.521-7.447-.521-4.112 0-7.446.233-7.446.521 0 .288 3.334.521 7.446.521zM279.075 397.02c-7.014.695-14.079.695-21.093 0 7.014-.695 14.079-.695 21.093 0zM240.594 400.241c-4.102.72-8.297.72-12.399 0 4.104-.695 8.295-.695 12.399 0zM321.279 409.94c-6.186.695-12.431.695-18.617 0 6.185-.72 12.432-.72 18.617 0zM357.266 413.162c-4.108.72-8.31.72-12.418 0 4.11-.695 8.308-.695 12.418 0zM424.287 428.222c-5.356.72-10.785.72-16.141 0 5.358-.695 10.783-.695 16.141 0zM426.763 438.983c-2.847.72-5.829.72-8.676 0 2.85-.695 5.826-.695 8.676 0zM325.003 437.922c-11.159.695-22.351.695-33.51 0 11.159-.719 22.352-.719 33.51 0zM292.721 514.325c-7.43.695-14.909.695-22.34 0 7.43-.72 14.911-.72 22.34 0zM221.978 518.626c-3.691.695-7.48.695-11.171 0 3.689-.72 7.482-.72 11.171 0zM352.295 516.466c-4.52.72-9.126.72-13.646 0 4.522-.695 9.124-.695 13.646 0zM333.678 511.086c-10.326.719-20.69.719-31.016 0 10.327-.696 20.689-.696 31.016 0zM460.274 503.546c-.968.142-1.945.21-2.923.205l-7.968.168c-6.739.093-16.048.149-26.343.149-10.295 0-19.585 0-26.324-.149l-7.968-.168c-.984.006-1.968-.063-2.942-.205.972-.167 1.956-.242 2.942-.223l7.968-.168c6.739-.093 16.048-.148 26.324-.148 10.277 0 19.604 0 26.343.148l7.968.168c.979-.018 1.958.056 2.923.223zM514.895 445.443c-9.505.72-19.052.72-28.558 0 9.507-.695 19.052-.695 28.558 0zM468.967 418.542c-8.673.719-17.391.719-26.063 0 8.674-.696 17.389-.696 26.063 0z"/>
    <defs>
        <linearGradient id="prefix__paint0_linear" x1="206.167" x2="196.167" y1="-10.5" y2="362" gradientUnits="userSpaceOnUse">
            <stop stop-color="#F1C69F"/>
            <stop offset=".723" stop-color="#EDBE92" stop-opacity="0"/>
        </linearGradient>
        <linearGradient id="prefix__paint1_linear" x1="1635.16" x2="1638.02" y1="420.221" y2="420.221" gradientUnits="userSpaceOnUse">
            <stop stop-color="#83C1C4"/>
            <stop offset="1" stop-color="#97AFAF"/>
        </linearGradient>
        <linearGradient id="prefix__paint2_linear" x1="405.439" x2="397.475" y1="432.304" y2="558.858" gradientUnits="userSpaceOnUse">
            <stop stop-color="#C6D7FF"/>
            <stop offset="1" stop-color="#CFDDFE" stop-opacity="0"/>
        </linearGradient>
        <linearGradient id="prefix__paint4_linear" x1="396.925" x2="396.925" y1="208.266" y2="387.026" gradientUnits="userSpaceOnUse">
            <stop stop-color="#DF8467"/>
            <stop offset="1" stop-color="#D56064"/>
        </linearGradient>
        <linearGradient id="prefix__paint5_linear" x1="458.867" x2="458.867" y1="171.535" y2="391.594" gradientUnits="userSpaceOnUse">
            <stop stop-color="#5BFECC"/>
            <stop offset="1" stop-color="#1CC994"/>
        </linearGradient>
        <radialGradient id="prefix__paint3_radial" cx="0" cy="0" r="1" gradientTransform="matrix(53188.52156 -24414.40475 5938.13163 12936.64316 379729 -206807)" gradientUnits="userSpaceOnUse">
            <stop stop-color="#fff"/>
            <stop offset=".08" stop-color="#fff" stop-opacity=".91"/>
            <stop offset=".42" stop-color="#fff" stop-opacity=".53"/>
            <stop offset=".7" stop-color="#fff" stop-opacity=".24"/>
            <stop offset=".9" stop-color="#fff" stop-opacity=".07"/>
            <stop offset="1" stop-color="#fff" stop-opacity="0"/>
        </radialGradient>
    </defs>
</svg>
