<svg width="1920" height="798" fill="none" xmlns="http://www.w3.org/2000/svg"><path d="M0 0h1920v680.663L0 796.699V0Z" fill="#030931"/><mask id="a" style="mask-type:alpha" maskUnits="userSpaceOnUse" x="0" y="0" width="1920" height="798"><path d="M0 .105h1920v679.467L0 798V.105Z" fill="#030931"/></mask><g filter="url(#b)" mask="url(#a)"><path d="M1317.85 428.924c-15.16 68.393 21.21 105.121-97.35 167.92-107.39 56.883-285.483-59.552-295.163-156.088-8.897-88.718 101.303-164.338 222.773-172.471 137.62-9.213 191.78 61.153 169.74 160.639Z" fill="#38D99E" fill-opacity=".84"/><path d="M1551.3 883.278c-14.72 66.357 20.62 101.992-94.59 162.922-104.36 55.19-277.41-57.78-286.82-151.443-8.65-86.077 98.44-159.447 216.48-167.337 133.72-8.939 186.36 59.332 164.93 155.858Z" fill="#38D99E" fill-opacity=".36"/><path d="M2148.3 53.297c-15.91 71.649 22.26 110.126-102.16 175.916-112.71 59.591-299.61-62.388-309.77-163.521-9.34-92.942 106.32-172.164 233.8-180.684 144.42-9.652 201.26 64.065 178.13 168.289ZM275.624 285.785c-12.905 56.383 18.068 86.662-82.9 138.434-91.454 46.894-243.113-49.095-251.357-128.68-7.576-73.139 86.271-135.481 189.714-142.186 117.19-7.595 163.317 50.415 144.543 132.432ZM1317.98-61.687c-14.73 66.357 20.62 101.992-94.59 162.922-104.36 55.19-277.416-57.78-286.823-151.442-8.645-86.078 98.443-159.448 216.473-167.338 133.73-8.939 186.36 59.333 164.94 155.858ZM1820.94 520.55c-10.97 49.463 15.37 76.025-70.51 121.442-77.8 41.138-206.8-43.069-213.81-112.885-6.45-64.162 73.38-118.852 161.37-124.733 99.69-6.663 138.92 44.226 122.95 116.176ZM347.783 572.82c10.978 49.463-15.369 76.025 70.517 121.443 77.793 41.138 206.797-43.07 213.81-112.886 6.445-64.161-73.384-118.851-161.375-124.733-99.684-6.663-138.921 44.226-122.952 116.176Z" fill="#38D99E" fill-opacity=".4"/><path d="M2007.96 593.396c0 77.264-174.84 192.609-298.69 156.811-91.74-26.518-27.4-92.87-27.4-170.135 0-77.265 42.32-88.142 148.28-88.142 105.96 0 177.81 24.201 177.81 101.466ZM-59.063 622.093c0 77.265 174.835 192.609 298.683 156.811 91.742-26.518 27.408-92.87 27.408-170.135 0-77.264-42.326-88.142-148.287-88.142-105.96 0-177.803 24.202-177.803 101.466Z" fill="#656BFF" fill-opacity=".3"/><path d="M982.46 831.879c0 88.449-200.938 228.701-388.517 187.721-138.953-30.354-194.791-157.936-194.791-246.385 0-88.449 64.106-100.901 224.595-100.901 160.488 0 358.713 71.115 358.713 159.565ZM1539.06 24.153c0 58.285-132.66 150.707-256.51 123.703-91.74-20.004-128.61-104.075-128.61-162.36 0-58.284 42.33-66.49 148.29-66.49s236.83 46.863 236.83 105.147ZM1554.52 409.519c0 58.284-132.66 150.706-256.51 123.702-91.74-20.004-128.61-104.075-128.61-162.359 0-58.285 42.33-66.49 148.29-66.49s236.83 46.862 236.83 105.147ZM988.083 277.082c0 65.357-148.917 168.994-287.933 138.713-102.978-22.431-298.187-152.761-298.187-218.119 0-65.357 201.336-38.5 320.275-38.5 118.939 0 265.845 52.549 265.845 117.906Z" fill="#7D82FF" fill-opacity=".4"/></g><defs><filter id="b" x="-259.062" y="-418.331" width="2612.36" height="1679.08" filterUnits="userSpaceOnUse" color-interpolation-filters="sRGB"><feFlood flood-opacity="0" result="BackgroundImageFix"/><feBlend in="SourceGraphic" in2="BackgroundImageFix" result="shape"/><feGaussianBlur stdDeviation="100" result="effect1_foregroundBlur_3001_172882"/></filter></defs></svg>