<svg xmlns="http://www.w3.org/2000/svg" width="331" height="331" fill="none" viewBox="0 0 331 331">
    <path stroke="#828282" stroke-miterlimit="10" stroke-width="4.55" d="M38.224 25.11c1.472 2.47 3.7 4.417 6.405 5.594 2.704 1.177 5.762 1.531 8.787 1.018 3.025-.514 5.882-1.872 8.209-3.902 2.327-2.031 4.02-4.643 4.865-7.507.845-2.863.803-5.85-.119-8.582C65.45 9 63.688 6.645 61.31 4.966c-2.378-1.68-5.266-2.608-8.3-2.669-3.033-.061-6.075.748-8.74 2.326-3.576 2.119-6.221 5.467-7.355 9.31-1.133 3.84-.662 7.862 1.31 11.177z"/>
    <path fill="#F2C9AD" d="M67.045 25.65c1.913 2.69 3.986 5.266 6.208 7.72.376.45.763.906 1.13 1.358 2.765 3.404 5.182 7.065 7.22 10.935.5.915.964 1.85 1.41 2.79.906 1.893 1.391 4.239 2.547 5.988 1.398 2.135 2.913 3.339 3.767 5.905 2.356 7.088 6.072 13.621 10.964 19.282.424.43.755.936.976 1.494.15.893.069 1.821-.234 2.706-.39 1.939-.458 3.906-.199 5.826.133 1.185.339 2.35.562 3.546 2.534 13.256 7.179 25.938 13.776 37.616l7.401-1.285 32.904-5.729 1.265-.217 8.757-1.538c-.844-3.08-1.857-6.106-3.034-9.065-.111-.241-.21-.482-.295-.723-2.02-5.081-4.416-10.011-6.806-14.914-3.483-7.133-6.964-14.27-10.442-21.41-2.087-4.636-4.593-9.068-7.491-13.249-4.388-5.869-10.127-10.422-15.399-15.44-4.216-4.019-8.11-8.336-11.652-12.921-2.039-2.622-3.997-5.359-6.691-7.24-.332-.23-.68-.448-1.032-.636-2.588-1.29-5.343-2.28-8.21-2.95-1.258-.37-2.514-.757-3.768-1.163-1.774-.575-3.535-1.2-5.28-1.877-.782-.298-1.568-.614-2.345-.933-2.634-1.111-5.221-2.304-7.763-3.577-1.439-.73-2.863-1.497-4.272-2.299-.628-.364-1.282-.687-1.96-.967l-.065-.028c-.587-.246-1.206-.426-1.844-.537-.15-.025-.302-.041-.455-.048-2.17-.223-3.107.772-3.367 2.327-.515 3.405 2.69 9.71 3.717 11.254zM49.728 45.558l-7.1-8.39c-1.574-1.854-3.796-2.673-5.874-3.898-4.426-2.747-9.053-5.199-13.851-7.339-2.475-1.184-5.218-1.829-8.047-1.89-2.817.074-5.823 1.282-7.421 3.623-1.096 1.804-1.56 3.87-1.32 5.872.475 7.645 6.802 13.89 14.378 15.876 1.424.246 2.78.724 4.01 1.412.793.615 1.477 1.348 2.03 2.174 1.47 1.966 2.948 3.93 4.432 5.892"/>
    <path fill="#F2C9AD" d="M5.726 67.28c2.295 3.606 6.464 6.616 9.53 8.403.42.31.904.534 1.425.657.522.124 1.07.145 1.614.063 1.39-.393 2.116-1.876 2.57-3.208.63-1.805 1.14-3.64 1.526-5.495.226-1.44.812-2.827 1.707-4.04 1.586-2.341 2.992-4.981 2.907-7.686-.01-.418-.061-.831-.155-1.234-.217-1.02-.65-1.972-1.27-2.802-.62-.83-1.417-1.52-2.342-2.029-2.993-1.606-6.683-.534-9.943.113l-.236.067c-4.467 1.595-7.214 5.47-8.593 9.297-1.048 2.759-.294 5.459 1.26 7.895z"/>
    <path fill="#E7AFB0" d="M9.962 66.59c.47.464.966.913 1.454 1.373l6.96 6.457c.06.065.135.117.22.151.283.08.577-.169.745-.452 1.293-1.807 2.322-3.755 3.055-5.786.667-1.66 1.51-3.266 2.517-4.79 1.48-2.276 2.277-4.844 2.297-7.4-.022-.408-.076-.81-.164-1.204-1.185 2.914-2.918 6.709-5.222 8.682-3.72 3.19-7.422 3.07-11.862 2.968z" opacity=".5"/>
    <path fill="#F2C9AD" d="M17.247 82.068c-.045-.182 0-.399.014-.625.31-4.295 2.586-7.882-.041-11.89-.618-1.075-1.63-1.88-2.854-2.275-1.25-.235-2.572-.09-3.783.414-1.962.685-3.784 1.73-5.36 3.076-1.576 1.346-2.873 2.964-3.814 4.758C.485 77.33.002 79.29 0 81.248-.002 83.205.477 85.107 1.4 86.8c.816 1.325 1.779 2.558 2.872 3.678l2.12 2.297c3.803 4.14 9.242 7.468 14.126 10.424 1.07.626 2.442 1.279 3.606.637.957-6.225-.422-12.43-3.89-17.5-1.188-1.835-2.902-1.91-2.986-4.268z"/>
    <path fill="#F2C9AD" d="M5.287 110.545c1.346 4.023 3.214 7.839 5.562 11.361 4.57 6.888 27.195 23.985 31.849 27.76 4.653 3.774 9 9.418 15.915 13.046 5.023 2.636 8.267 7.559 12.868 10.8 17.858 12.578 43.59 13.948 58.707 29.469 1.636 1.685 3.849 3.682 6.166 2.687.895-.467 1.656-1.154 2.201-1.985 8.226-10.559 12.899-23.064 18.748-34.905 1.185-2.393 2.437-4.786 3.787-7.134 4.312-7.521 9.571-14.597 16.414-19.845 1.393-1.067 2.85-2.051 4.362-2.945l.745-.43-.414-.276c-7.754-5.209-13.31-16.783-17.815-24.75l-16.556-.595-6.692-.244c-12.284-8.865-26.012-15.8-40.719-20.566-.335-.106-.672-.221-1.04-.309-7.667-2.549-15.698-4.138-23.905-4.73-8.809-.495-17.674.526-26.505.614-7.493.074-15.013-.52-22.478.661-7.465 1.182-15.134 4.46-19.638 10.555-1.327 1.734-2.186 3.741-2.493 5.826-.119 2.045.198 4.065.93 5.935z"/>
    <g opacity=".36">
        <path fill="#E7AFB0" d="M93.884 40.381c-1.232 2.264-4.15 4.752-6.963 4.643-.097-.007-.187-.041-.257-.098s-.12-.134-.14-.221c-.02-.087-.011-.181.026-.27.037-.088.1-.166.182-.225 1.114-.622 2.33-.968 3.46-1.646 1.165-.737 2.236-1.602 3.188-2.575.312-.308.72.042.538.374l-.034.018zM33.462 117.837c.224 3.534-1.735 8.693-5.478 10.694-.414.223-.962-.18-.642-.6 1.19-1.553 2.668-2.841 3.692-4.516 1.032-1.772 1.768-3.658 2.178-5.585.031-.126.214-.063.213.018l.037-.011zM53.593 134.51c-1.53.814-2.796 2.037-3.613 3.491-.817 1.454-1.143 3.064-.93 4.594-1.516-.398-2.168-1.849-2.73-3.219-.38-.972-.677-1.978-.89-3.009-.128-.475-.159-.977-.091-1.483.093-.469.312-.922.636-1.313.323-.392.742-.709 1.213-.921.476-.204.98-.318 1.483-.334.502-.016.991.066 1.435.241.736.334 1.43.732 2.076 1.189.716.429.543.933 1.411.764zM15.539 115.017c1.956-.82 3.784-1.93 5.407-3.282 1.357-1.336 2.589-2.776 3.677-4.302.046-.065.113-.115.19-.141.077-.026.159-.026.23-.001.071.026.128.076.159.141.03.064.034.14.01.213-1.03 3.873-5.676 6.905-9.609 7.65-.04.012-.083.009-.118-.009-.035-.017-.059-.048-.067-.085-.009-.037-.001-.077.022-.111.022-.035.058-.061.099-.073zM35.814 39.323c-.631 2.364-1.747 4.64-3.282 6.694-1.079 1.41-2.924 4.012-4.86 4.126-.142.005-.274-.043-.369-.133-.094-.09-.142-.216-.133-.35.334-1.668 2.635-3.22 3.766-4.575 1.583-1.884 2.968-3.897 4.136-6.004.235-.427.865-.16.745.258l-.003-.016zM152.471 140.499c-5.187 5.634-12.487 11.285-20.004 13.595-.094.036-.195.037-.283.005-.088-.032-.156-.096-.19-.178-.034-.082-.031-.176.008-.263.038-.087.11-.161.2-.205 3.361-2.014 6.798-3.704 10.121-5.88 3.426-2.303 6.677-4.836 9.725-7.574.07-.067.164-.107.26-.112.096-.005.186.025.251.085.064.059.098.142.094.231-.005.089-.047.176-.118.243l-.064.053zM152.635 129.448c-3.509 5.808-9.032 12.002-15.326 15.273-.39.204-.801-.237-.446-.545 2.636-2.276 5.493-4.266 8.005-6.7 2.651-2.589 5.101-5.348 7.328-8.25.019-.029.044-.054.072-.075.028-.021.06-.037.094-.047.034-.01.069-.014.103-.011.033.002.066.011.094.025.029.015.054.035.073.06.02.024.033.052.041.083.007.03.007.063.001.095-.007.032-.02.063-.039.092z" opacity=".36"/>
    </g>
    <path fill="#E7AFB0" d="M15.776 96.04l-1.483-1.315c-1.404-.813-3.063-1.22-4.786-1.173 1.002-.278 2.032-.41 3.05-.392-1.816-1.565-3.295-3.438-4.373-5.535 1.173-.882 2.96-.977 4.258-1.894 3.134-2.21 4.292-6.008 5.223-9.483l.864.382c-.095-.186.313-.266.504-.145 1.114.662 1.165 2.154 1.056 3.443-.255 2.53-.67 5.057-1.246 7.569-.231 1.46-.564 2.915-.995 4.353-.264.876-.45 1.764-.557 2.655 1.973 1.236 3.629 2.846 4.873 4.736 1.385 2.008 1.966 4.699.814 7.035-.582 1.07-1.362 2.049-2.301 2.887-.698.676-1.43 1.321-2.194 1.931.169-1.509.297-3.016.495-4.533.302-2.085.366-4.174.191-6.231-.455-1.573-1.376-2.959-2.665-4.009-.272.096-.53-.089-.728-.282z" opacity=".5"/>
    <path fill="#F2C9AD" d="M59.941 164.123c4.244 3.601 8.217 7.505 12.79 10.722 17.748 12.486 43.324 13.848 58.347 29.255 1.626 1.673 3.826 3.655 6.129 2.668.89-.464 1.646-1.145 2.187-1.97 8.177-10.479 12.823-22.891 18.636-34.643 1.178-2.375 2.423-4.751 3.765-7.081-35.732 33.351-70.208 16.666-101.854 1.049z" opacity=".5"/>
    <path fill="#F2C9AD" d="M35.53 120.901c.882-2.291 3.325-3.526 5.546-4.535 6.201-2.824 12.564-5.694 19.277-6.222 6.488-.501 12.775 1.243 18.395 3.873 2.433 1.127 5.114 3.626 7.96 3.257 1.51-.261 2.9-1.046 3.906-2.202.834-2.958 2.115-5.934 2.875-8.843.764-2.426 1.152-4.924 1.151-7.412-.045-.895-.71-10.488-.052-10.584 2.965-.43 5.325 1.026 7.532 2.525 2.257 1.503 4.338 3.227 6.213 5.149 7.019 7.47 5.867 23.748 4.891 33.378-.174 1.728-.465 3.571-1.683 4.913-1.218 1.343-2.97 1.829-4.666 2.272-9.655 2.524-19.507 3.998-29.365 4.392-5.053.19-10.095.101-15.1-.267-5.09-.376-6.575-2.179-10.813-3.984-1.605-.681-3.38-1.032-4.988-1.766-3.464-1.546-6.51-3.79-8.943-6.59-1.791-1.998-3.152-4.789-2.136-7.354zm56.496-8.343l.023.094c.082-.216.15-.435.205-.657l-.228.563z" opacity=".7"/>
    <path fill="#E36F73" d="M52.213 45.063l.299.072c.788.166 1.616.16 2.425-.015l.418-.119c.8-.247 1.533-.685 2.128-1.273.077-.069.15-.142.219-.218.714-.823 1.235-1.78 1.524-2.798.289-1.018.338-2.07.144-3.08-.063-.189-.14-.373-.23-.55-.594-1.249-1.265-2.459-2.009-3.623-.636-.61-1.433-1.046-2.317-1.263-.884-.218-1.825-.212-2.736.018l-.109.03c-2.299.651-3.478.397-3.835 3.761-.123 1.409-.156 2.818-.1 4.22-.002.203.014.404.05.602.182 1.033.666 1.977 1.396 2.726.73.749 1.677 1.272 2.733 1.51z"/>
    <path fill="#E36F73" d="M24.894 121.021C8.17 99.243 13.33 66.971 36.419 48.937c23.088-18.033 55.36-14.997 72.084 6.78 16.722 21.778 11.562 54.051-11.526 72.084s-55.36 14.997-72.083-6.78z"/>
    <path fill="#D8854F" d="M30.784 108.157c-10.488-20.373-1.558-46.31 19.947-57.93 21.506-11.621 47.442-4.526 57.93 15.846 10.489 20.373 1.558 46.31-19.947 57.931-21.505 11.621-47.441 4.526-57.93-15.847z"/>
    <path fill="#222624" d="M76.883 130.294c-24.43 6.92-48.796-6.226-54.42-29.362-5.626-23.136 9.62-47.501 34.05-54.421 24.43-6.92 48.796 6.226 54.421 29.362 5.625 23.135-9.62 47.501-34.05 54.421z"/>
    <path fill="#333534" d="M50.32 129.832c-21.237-8.078-30.95-32.8-21.692-55.217s33.98-34.041 55.218-25.962c21.238 8.078 30.95 32.8 21.692 55.217s-33.98 34.041-55.217 25.962z"/>
    <path stroke="#B6B5A5" stroke-miterlimit="10" stroke-width=".228" d="M47.627 105.021c-8.105-10.13-5.962-25.416 4.787-34.139 10.75-8.723 26.034-7.582 34.14 2.55 8.105 10.13 5.962 25.415-4.787 34.139-10.75 8.723-26.034 7.582-34.14-2.55z"/>
    <path fill="#1C1E1D" d="M68.045 89.128c7.09-11.331 12.228-20.865 11.489-21.241-.74-.377-7.102 8.422-14.185 19.78-7.084 11.357-12.229 20.864-11.49 21.241.74.377 7.102-8.459 14.186-19.78z"/>
    <path fill="#B6B5A5" d="M64.094 89.09c1.968 7.68 4.79 15.108 8.427 22.172-.373-16.011-4.337-31.574-11.648-45.728.197 7.982 1.276 15.874 3.221 23.556z"/>
    <path fill="#B6B5A5" d="M67.238 90.562c7.73-2.114 15.26-4.939 22.474-8.432-15.904 1.252-31.57 5.515-46.032 12.528 7.93-.628 15.824-2 23.558-4.096z"/>
    <path fill="#B6B5A5" d="M68.8 89.528c4.305-6.893 7.901-14.144 10.734-21.642-11.266 12.019-20 25.979-25.666 41.019 5.611-5.999 10.613-12.491 14.931-19.377z"/>
    <path fill="#B6B5A5" d="M68.014 86.298c-6.894-3.71-14.206-6.714-21.822-8.967 11.78 10.1 25.742 17.631 41.027 22.128-5.881-5.03-12.316-9.44-19.205-13.16z"/>
    <path fill="#828282" d="M60.89 90.046c.352 1.447 1.297 2.664 2.627 3.381 1.33.718 2.935.877 4.464.444 1.152-.322 2.196-.972 2.99-1.863.64-.729 1.103-1.581 1.355-2.488.25-.908.282-1.846.091-2.74-.614-3.003-3.52-4.69-7.093-3.834-.953.231-1.84.701-2.57 1.36-.81.74-1.41 1.663-1.737 2.674-.329 1.01-.372 2.07-.127 3.066z"/>
    <path fill="#5B5B5B" d="M60.913 90.026c.354 1.453 1.303 2.674 2.638 3.394 1.336.72 2.95.88 4.485.446 1.157-.323 2.206-.977 3.003-1.87-.1-.03-.206-.047-.313-.05-.386.054-.766.162-1.127.32-2.363.668-4.87-.608-5.985-2.6-.844-1.63-1.13-3.504-.82-5.367-.808.738-1.409 1.659-1.74 2.666-.33 1.007-.38 2.064-.14 3.06z"/>
    <path fill="#D3D2C5" d="M64.506 89.013c.1.41.325.775.649 1.048.323.273.73.441 1.168.485.438.044.889-.04 1.294-.24.405-.2.747-.509.983-.885.236-.377.355-.806.341-1.232-.013-.426-.158-.83-.416-1.162-.258-.332-.617-.577-1.032-.703-.416-.126-.869-.127-1.302-.005-.58.165-1.084.541-1.4 1.046-.317.506-.419 1.098-.285 1.648z"/>
    <path fill="#E36F73" d="M57.68 33.27l-1.039 1.69-.523-2.145 1.562.456zM47.267 36.052l1.676.923-.524-2.145-1.152 1.222z"/>
    <path stroke="#B6B5A5" stroke-miterlimit="10" stroke-width=".228" d="M57.837 55.018l-1.844-6.96M57.988 54.988l-.604-2.326M59.151 54.695l-.5-2.338M60.325 54.458l-.407-2.36M61.508 54.255l-.312-2.371M62.695 54.1l-.211-2.386M63.893 53.979l-.12-2.39M65.094 53.904l-.04-2.398M66.288 53.87l.06-2.395M67.493 53.88l.15-2.399M68.7 53.928l.23-2.392M69.902 54.023l.318-2.385M71.095 54.159l.407-2.38M72.289 54.332l.488-2.364M73.466 54.547l.578-2.35M74.646 54.809l.659-2.333M75.816 55.102l.732-2.306M76.972 55.446l.811-2.29M78.119 55.83l.893-2.264M79.247 56.247l.977-2.23M80.357 56.706l1.05-2.202M81.46 57.206l1.124-2.166M82.535 57.74l1.198-2.129M83.602 58.315l1.272-2.092M84.64 58.926l1.34-2.045M85.66 59.57l1.405-1.997M86.65 60.25l1.482-1.952M87.623 60.961l1.538-1.901M88.569 61.72l1.605-1.854M89.491 62.492l1.664-1.795M90.387 63.31l1.722-1.745M91.242 64.148l1.783-1.678M92.078 65.02l1.832-1.617M92.885 65.928l1.88-1.564M93.65 66.856l1.933-1.495M94.386 67.81l1.983-1.433M95.09 68.792l2.026-1.36M95.763 69.792l2.068-1.29M96.395 70.82l2.11-1.225M96.996 71.868l2.143-1.151M97.553 72.935l2.177-1.076M98.08 74.021l2.203-.99M98.563 75.128l2.235-.926M99.012 76.243l2.261-.839M99.42 77.38l2.276-.76M99.785 78.536l2.301-.684M100.113 79.693l2.317-.606M100.394 80.87l2.34-.533M100.634 82.065l2.358-.474M100.833 83.252l2.374-.396M101 84.455l2.377-.32M101.11 85.654l2.397-.25M101.193 86.86l2.392-.17M101.22 88.07l2.405-.094M101.22 89.278l2.39-.01M101.161 90.482l2.394.07M101.075 91.684l2.385.144M100.941 92.888l2.369.222M100.765 94.076l2.366.314M100.544 95.266l2.349.391M100.29 96.444l2.325.473M99.987 97.609l2.307.551M99.645 98.773l2.289.622M99.268 99.91l2.257.714M98.842 101.039l2.238.785M98.385 102.158l2.202.862M97.883 103.25l2.168.947M97.351 104.333l2.129 1.015M96.783 105.387l2.083 1.094M96.175 106.433l2.044 1.162M95.522 107.453l2.006 1.231M94.842 108.441l1.95 1.305M94.13 109.41l1.901 1.377M93.38 110.351l1.855 1.448M92.598 111.273l1.796 1.513M91.787 112.154l1.737 1.58M90.942 113.017l1.678 1.646M90.071 113.849l1.617 1.703M89.17 114.642l1.558 1.769M88.236 115.415l1.494 1.817M87.28 116.145l1.434 1.876M86.308 116.844l1.352 1.93M85.3 117.514l1.286 1.97M84.27 118.143l1.224 2.019M83.223 118.738l1.149 2.062M82.155 119.291l1.077 2.115M81.07 119.811l1 2.15M79.963 120.29l.926 2.193M78.846 120.725l.84 2.231M77.71 121.127l.763 2.265M76.564 121.494l.684 2.292M75.398 121.81l.604 2.327M74.242 122.1l.5 2.339M73.07 122.338l.396 2.361M71.886 122.54l.303 2.373M70.699 122.695l.21 2.386M69.5 122.816l.12 2.389M68.3 122.891l.03 2.401M67.097 122.927l-.06 2.396M65.891 122.917l-.14 2.397M64.693 122.868l-.229 2.391M63.492 122.773l-.318 2.385M62.299 122.636l-.407 2.38M61.104 122.463l-.488 2.364M59.919 122.25l-.57 2.347M58.738 121.988l-.65 2.331M57.578 121.693l-.741 2.308M56.422 121.349l-.82 2.291M55.275 120.965l-.894 2.264M54.147 120.548l-.977 2.229M53.027 120.092l-1.05 2.202M51.933 119.59l-1.123 2.165M50.85 119.057l-1.199 2.129M49.792 118.481l-1.272 2.092M48.753 117.87l-1.347 2.047M47.734 117.226l-1.415 2M46.734 116.548l-1.472 1.95M45.762 115.836l-1.539 1.902M44.816 115.078l-1.605 1.854M43.903 114.302l-1.664 1.796M43.006 113.485l-1.721 1.745M42.143 112.649l-1.774 1.676M41.316 111.775l-1.833 1.617M40.509 110.867l-1.881 1.565M39.734 109.942l-1.933 1.495M38.999 108.988l-1.974 1.431M38.294 108.006l-2.026 1.361M37.63 107.004l-2.068 1.289M36.99 105.977l-2.101 1.223M36.398 104.928l-2.143 1.151M35.831 103.862l-2.168 1.074M35.314 102.773l-2.212.994M34.83 101.667l-2.234.926M34.381 100.552l-2.26.839M33.974 99.416l-2.285.762M33.609 98.259l-2.31.686M33.28 97.101l-2.316.606M33 95.925l-2.34.534M32.751 94.732l-2.35.473M32.552 93.546l-2.365.393M32.393 92.34l-2.385.324M32.275 91.144l-2.389.247M32.201 89.935l-2.392.17M32.164 88.728l-2.395.091M32.174 87.517l-2.399.012M32.224 86.316l-2.394-.07M32.32 85.111l-2.387-.144M32.453 83.907l-2.379-.22M32.628 82.72l-2.366-.314M32.84 81.532l-2.349-.391M33.103 80.35l-2.333-.47M33.407 79.187l-2.316-.549M33.74 78.025l-2.28-.624M34.126 76.886l-2.266-.712M34.543 75.758l-2.23-.788M35 74.64l-2.193-.865M35.501 73.546l-2.167-.947M36.033 72.465l-2.12-1.018M36.61 71.408l-2.082-1.094M37.219 70.363L35.175 69.2M37.863 69.346l-1.997-1.234M38.551 68.354l-1.958-1.302M39.264 67.385l-1.902-1.377M40.013 66.444l-1.855-1.448M40.795 65.522l-1.804-1.51M41.606 64.64l-1.745-1.576M42.451 63.778l-1.686-1.643M43.323 62.946l-1.626-1.7M44.224 62.154l-1.558-1.769M45.15 61.383l-1.495-1.818M46.104 60.652l-1.425-1.879M47.086 59.951l-1.361-1.927M48.085 59.283l-1.287-1.97M49.115 58.656L47.9 56.633M50.162 58.06l-1.14-2.066M51.23 57.506l-1.068-2.117M52.315 56.986l-.99-2.152M53.421 56.507l-.916-2.196M54.548 56.07l-.848-2.228M55.684 55.668l-.762-2.265M56.83 55.302l-.684-2.292M69.655 53.979l.93-7.18M81.247 57.086l3.355-6.529M91.113 63.966l5.328-5.084M98.068 73.8l6.617-3.03M101.217 85.474l7.177-.77M100.277 97.301l6.951 1.618M95.201 108.173l5.893 3.901M86.713 116.607l4.119 5.77M75.842 121.608l1.846 6.97M64.016 122.658l-.921 7.177M52.434 119.549l-3.357 6.519M42.556 112.662l-5.319 5.082M35.612 102.834l-6.627 3.024M32.462 91.152l-7.184.78M33.505 79.146l-6.952-1.618M38.58 68.275l-5.892-3.902M46.957 60.022l-4.12-5.77"/>
    <path fill="#333534" d="M63.317 75.249l-.09.025c-.178.05-.495.086-.619-.07-.124-.154-.001-.279.169-.327l.098-.027c.18-.05.496-.086.62.069.124.154.001.28-.178.33zM63.672 76.907c.04.054.085.104.132.152.104.115-.723.285-.926.117l-.133-.152c-.104-.114.723-.284.927-.117zM64.427 79.11l.069-.11c.158-.253 1.045-.187.882.085l-.078.112c-.157.261-1.046.187-.873-.088z"/>
    <path fill="#333534" d="M65.656 79.328l.76.255c.168.061.134.116-.012.184-.212.074-.439.08-.646.02l-.751-.258c-.175-.05-.14-.105.003-.181.212-.075.439-.082.646-.02zM63.93 80.086l.122.065c.451.243-.382.515-.667.369l-.11-.06c-.451-.242.38-.522.655-.374zM65.193 78.671c-.369.104-1.029-.281-.445-.446.368-.104 1.028.28.445.446zM64.19 76.196l-.11-.454c-.047-.197.89-.316.96-.033l.105.436c.048.197-.89.317-.958.034l.004.017zM63.01 74.28l-.067-.273c-.058-.239.88-.34.955-.033l.065.264c.058.24-.879.35-.954.042zM62.503 71.064l.023.094c.083.34-.856.424-.923.152l-.022-.094c-.083-.34.856-.423.922-.152z"/>
    <path fill="#333534" d="M61.532 70.936l-.13-.533c-.088-.361.86-.455.932-.162l.13.533c.088.361-.863.446-.932.162zM63.712 75.511l.24.987c.105.425-.849.545-.935.19l-.242-.987c-.103-.424.848-.553.937-.19zM65.702 79.915l.222.127c.176.095-.08.185-.169.21-.21.057-.43.043-.622-.041l-.229-.116c-.176-.095.089-.187.169-.21.211-.062.434-.052.629.03z"/>
    <path fill="#333534" d="M65.827 79.907l.508.046c.137.016.372.076.308.247-.063.17-.445.17-.563.159l-.508-.046c-.136-.007-.37-.067-.309-.247.062-.18.446-.17.564-.159zM64.123 80.144l.02.085c.038.151-.893.252-.944.04l-.023-.092c-.035-.143.894-.252.947-.033zM63.45 78.147l-.063-.264c-.038-.153.899-.254.953-.033l.064.264c.039.161-.9.254-.953.033z"/>
    <path fill="#333534" d="M63.453 78.19l-.175-.324c-.04-.161.785-.285.934-.11l.174.323c.085.15-.785.286-.888.097l-.045.013zM64.743 80.636c-.377.107-1.028-.28-.453-.443.377-.107 1.028.28.453.444zM58.6 83.073c-.072-.014-.139-.043-.195-.084-.057-.043-.102-.097-.134-.159-.152-.31.759-.432.92-.16l.021.085-.207-.141.084.03c.557.197-.144.55-.481.427l-.009.002zM57.483 82.262c.103.426-.827.552-.913.195l-.007-.025c-.101-.417.829-.544.916-.187l.004.017zM57.142 81.217l.2-.002c.557-.031.535.427-.015.446l-.198.011c-.55.02-.535-.427.013-.455zM59.635 81.84l.013.05c-.187.297-1.09.208-.883-.122l.035-.055c.195-.3 1.09-.208.88.114l-.045.013zM60.507 81.957c-.304.086-1-.178-.445-.335.304-.086 1 .178.445.335zM59.735 84.253c-.513.145-.815-.462-.22-.63.594-.169.805.464.22.63zM58.487 85.087l-.145-.197c-.309-.397.561-.67.813-.35l.144.198c.3.4-.57.673-.812.349zM55.38 80.972l.011.043c.177.095.138.251-.018.359-.101.054-.213.085-.327.088-.113.004-.223-.02-.32-.069l-.056-.03c-.177-.094-.149-.257.007-.364.104-.054.218-.083.333-.085.115-.003.227.022.326.071l.045-.013zM54.381 80.98c-.304.086-1.005-.195-.45-.352.314-.089 1.006.195.45.352zM55.514 79.983c-.188.053-1.058-.07-.638-.189.196-.055 1.066.069.638.19z"/>
    <path fill="#333534" d="M57.047 81.339c-.295.083-.996-.162-.45-.316.296-.083.996.162.45.316zM57.606 83.402c-.17.048-1.042-.047-.64-.16.178-.05 1.05.045.64.16zM51.987 79.336l-.088-.165c-.097-.162.772-.29.886-.096l.086.157c.097.162-.771.29-.884.104zM50.972 78.314c-.286.08-.996-.162-.45-.316.287-.08.996.162.45.316zM48.305 76.553l-.044.012c-.213.068-.439.072-.645.011-.126-.045-.18-.11.007-.163.212-.067.436-.074.643-.02.137.052.19.117.04.16zM50.982 77.293c.037.152-.893.252-.947.033l-.012-.05c-.037-.152.893-.252.946-.033l.013.05zM50.62 78.98c-.386.11-1.032-.298-.449-.463.387-.11 1.033.298.45.464z"/>
    <path fill="#333534" d="M49.344 77.75l-.012-.05c-.085-.348.851-.44.922-.152l.01.042c.086.356-.852.44-.92.16z"/>
    <path fill="#333534" d="M49.196 77.616l-.307-.195c-.437-.258.405-.505.665-.342l.305.186c.43.269-.405.505-.663.35z"/>
    <path fill="#333534" d="M48.619 77.628c-.504.143-.81-.444-.225-.61.585-.166.81.445.225.61zM52.718 78.96l-.012-.051c-.047-.194.88-.311.948-.033l.01.042c.05.203-.878.32-.946.042zM55.76 80.605c-.36.101-1.024-.264-.45-.427.369-.104 1.024.264.45.427zM53.486 80.944c-.35.099-1.017-.239-.452-.398.341-.097 1.017.238.452.398zM55.842 83.192c-.36.101-1.024-.264-.44-.429.359-.102 1.023.264.44.429zM56.428 84.075c-.024-.103-.05-.205-.03-.32-.03-.368.868-.411.96-.034l.02.323c.086.352-.869.402-.959.034l.01-.003z"/>
    <path fill="#333534" d="M55.372 80.713l-.064-.027c-.037-.023-.066-.054-.086-.092-.02-.037-.029-.08-.027-.122.002-.044.015-.086.038-.124.023-.039.056-.072.094-.096.101-.06.215-.093.33-.094.115-.003.227.026.321.083l.056.03c.039.02.07.049.093.085.022.036.033.078.031.122 0 .043-.014.086-.038.124-.025.038-.059.07-.099.091-.098.064-.212.1-.328.104-.115.003-.227-.026-.32-.084zM60.011 82.436c-.386.109-1.035-.307-.442-.475.387-.11 1.035.307.442.475zM58.276 90.092c-.197.055-1.066-.069-.638-.19.197-.055 1.066.07.638.19zM56.602 89.014l-.01-.043c-.093-.382.84-.492.918-.169l.01.043c.094.382-.84.491-.918.169z"/>
    <path fill="#333534" d="M56.866 88.688l.188-.053c.179-.05.495-.086.62.077.127.163.004.288-.175.338l-.188.053c-.178.05-.495.086-.618-.069-.124-.154-.006-.296.173-.346zM57.75 89.27c.13-.171.682-.138.835-.056.165.089-.103.164-.174.184-.211.056-.432.045-.627-.03l.837-.047c-.135.19-.936.075-.878-.04l.007-.011zM58.668 90.826l-.068.156c-.137.348-1.044.296-.886-.122l.066-.165c.145-.35 1.044-.295.888.131zM56.906 91.527l-.642-.198c-.567-.166.159-.488.47-.386l.651.196c.558.168-.16.479-.48.388zM54.313 90.735l-.045.012.771-.082c-.165.181-.94.05-.879-.049l.045-.012c.132-.163.588-.165.762-.08l.044-.012c.167.06.133.115-.01.19-.211.075-.437.082-.643.02l-.045.013zM53.244 91.073l-.1-.017c-.6-.102-.17-.503.26-.425l.1.016c.599.102.17.504-.26.426zM51.444 92.036l-.025.097c-.084.322-.994.28-.95.033l.034-.1c.082-.33.994-.28.95-.033l-.01.003zM52.984 93.025c-.002-.073.022-.146.068-.207.047-.061.112-.106.186-.128.103-.049.214-.076.326-.08.112-.003.222.018.321.06.145.086.183.239-.006.328.007.306-.874.347-.95.033l.055-.006zM54.376 92.186l.112-.13c.174-.184.942-.05.88.05l-.113.121c-.175.184-.943.05-.879-.04zM56.173 90.696c-.304.086-1-.179-.454-.333.313-.088 1 .178.454.333zM56.815 90.383c-.377.107-1.029-.28-.454-.443.377-.107 1.028.28.454.443zM59.564 91.4c.197-.056.497-.087.634.083.137.17 0 .317-.188.37-.188.054-.486.093-.623-.077-.137-.17-.012-.323.177-.377zM48.92 93.163l.045-.013c.495-.14.818.396.224.564-.495.14-.818-.396-.224-.564l-.045.013zM46.446 93.207c-.495.14-.817-.397-.224-.564.593-.168.817.396.224.564zM44.725 93.442l-.012-.05c-.047-.195.88-.312.948-.033l.013.05c.047.195-.88.312-.949.033z"/>
    <path fill="#333534" d="M49.072 93.453c-.485.137-.817-.396-.223-.564.593-.168.817.396.223.564z"/>
    <path fill="#333534" d="M49.254 93.07l.254.026c.098-.027.37.031.312.182-.059.151-.473.133-.562.158l-.253-.019c-.108-.014-.37-.03-.311-.181.058-.151.473-.133.562-.158l-.002-.009zM49.252 92.162l.01.042c.052.212-.877.33-.947.042l-.02-.085c-.052-.212.88-.32.95-.033l.008.034z"/>
    <path fill="#333534" d="M48.444 92.12l.12-.133c.182-.194 1.012-.078.885.066l-.122.124c-.182.195-1.012.078-.883-.057zM51.772 91.774l-.012-.05c-.025-.101.892-.251.945-.033l.012.05c.025.1-.891.25-.945.033zM51.433 90.463c.107-.025.217-.029.323-.012.106.016.206.054.294.11.171.114-.063.252-.177.293-.106.035-.217.048-.325.038-.108-.01-.211-.043-.302-.096l.517.08-.054.015c-.42.12-.842-.277-.23-.395l-.046-.033zM51.44 92.945l-.013-.05c-.053-.22.878-.33.95-.033l.016.067c.054.22-.877.33-.95.033l-.003-.017zM44.252 94.092l-.01-.042c-.108-.444.82-.588.915-.196l.012.052c.108.443-.82.587-.915.195l-.002-.009zM62.069 95.151l.063.027c.165.088-.096.152-.176.175-.21.053-.43.042-.626-.03l-.044.012c-.165-.088.096-.152.176-.174.208-.05.424-.04.617.032l-.01-.042zM61.956 97.298l-.01-.042c-.03-.126.892-.25.945-.032l.01.042c.031.126-.891.25-.945.032zM61.295 97.946c-.341.097-1.017-.238-.443-.4.341-.097 1.017.238.443.4zM61.345 96.666c.101.417-.83.544-.916.186l-.01-.042c-.102-.417.829-.544.915-.187l.01.043z"/>
    <path fill="#333534" d="M60.425 96.568l-.033-.374c-.056-.231.89-.307.956-.034l.033.374c.056.231-.89.307-.956.034zM63.649 96.139l.01.042c.027.109-.892.25-.945.032l-.01-.042c-.027-.109.891-.25.945-.032z"/>
    <path fill="#333534" d="M62.855 95.912l.18-.287c.186-.298 1.09-.209.881.114l-.18.286c-.186.298-1.08.215-.881-.113zM60.577 100.05c-.477.135-.813-.379-.22-.546.593-.168.813.378.22.546z"/>
    <path fill="#333534" d="M59.836 99.8l-.399-.215c-.037-.016-.069-.042-.09-.075-.021-.034-.032-.073-.03-.113 0-.04.014-.08.037-.116.024-.035.057-.063.095-.081.1-.06.213-.094.328-.097.114-.004.225.023.321.077l.408.212c.18.104.145.278-.01.394-.103.056-.218.087-.334.09-.115.002-.227-.024-.326-.076zM59.479 98.15l.01.043c.1.408-.835.518-.918.177l-.01-.042c-.1-.409.835-.518.918-.178zM58.818 101.589c-.476.135-.81-.37-.226-.535.584-.166.82.367.226.535zM58.282 101.908l.054-.015c.494-.14.812.416.219.584l-.045.013c-.495.139-.813-.416-.228-.582zM62.033 98.747c-.267.237-1.132.057-.777-.25.22-.198.508-.312.802-.315.567-.025.547.52-.018.554l-.007.01zM60.438 100.821c-.269.076-.987-.128-.45-.279.277-.078.986.128.45.279zM59.888 102.376l-.045.013c-.188.053-.487.083-.622-.078s-.01-.314.179-.367l.044-.013c.189-.053.497-.086.623.078.126.163.01.314-.179.367zM57.51 104.525c-.35.099-1.022-.256-.448-.418.35-.099 1.022.255.447.418zM56.942 106.039l-.09.026c-.151.042-.523.084-.631-.047-.108-.132.017-.203.178-.248l.09-.025c.151-.043.522-.084.63.047.11.131-.017.202-.177.247zM56.194 107.132c-.35.099-1.019-.247-.454-.406.35-.099 1.02.247.454.406zM55.34 107.461l-.09.025c-.188.053-.495.085-.628-.067-.133-.152.003-.299.182-.349l.09-.026c.188-.053.496-.085.628.067.133.152-.003.299-.182.35zM55.264 108.765c-.179.05-1.053-.055-.643-.17.179-.05 1.053.054.643.17zM56.394 104.279l.01.043c.108.443-.817.596-.913.204l-.012-.051c-.108-.444.818-.596.915-.196zM56.678 102.841l-.01-.043c-.062-.254.873-.355.949-.041l.02.085c.06.246-.874.346-.95.033l-.009-.034zM59.169 104.142c-.161.045-.506.079-.626-.058-.12-.138.011-.229.181-.276l.045-.013c.16-.045.504-.088.623.049.12.138-.009.237-.179.285l-.044.013zM71.021 96.725l-.098.028c-.17.048-.498.077-.617-.06-.12-.138.014-.257.175-.302l.09-.025c.169-.048.496-.077.627.066.13.144-.016.248-.177.293zM69.457 97.114c-.286.08-.994-.153-.457-.305.287-.08.994.153.457.305zM68.103 95.823l.045-.013c.485-.137.814.388.221.555l-.045.013c-.485.137-.814-.387-.221-.555zM70.374 99.294l.055.03c.44.236-.41.476-.663.34l-.057-.038c-.44-.237.4-.474.665-.332zM71.016 101.541c-.296.083-.999-.17-.444-.327.296-.083.998.17.444.327zM69.451 100.297c-.386.109-1.03-.29-.446-.455.377-.106 1.03.29.446.455zM70.6 103.949l.076-.122c.214-.342 1.123-.236.879.142l-.067.119c-.223.344-1.123.236-.888-.139z"/>
    <path fill="#333534" d="M70.377 99.469c-.485.137-.812-.379-.228-.544.584-.165.821.376.228.544z"/>
    <path fill="#333534" d="M71.309 99.343c-.36.102-1.022-.255-.447-.418.359-.101 1.021.256.447.418zM70.95 101.276c-.505.143-.82-.442-.226-.61.594-.168.81.444.225.61zM70.25 101.997l-.035.055c-.207.33-1.113.233-.883-.122l.033-.064c.207-.33 1.112-.233.884.131z"/>
    <path fill="#333534" d="M69.802 102.141l-.32.09c-.152.043-.525.075-.622-.049-.097-.125.009-.199.169-.244l.33-.092c.142-.04.512-.081.62.049.108.131-.017.202-.177.246zM67.63 98.077c-.322.091-1.01-.213-.445-.372.323-.091 1.01.213.445.372zM71.485 106.576c-.178.051-1.049-.036-.638-.151.17-.048 1.049.036.638.151zM72.633 109.252l.1.017c.592.105.186.564-.263.491l-.102-.025c-.6-.102-.195-.561.266-.483zM72.098 106.751l.035-.054c.123-.196.982-.115.879.049l-.045.012c-.125.188-.982.115-.879-.049l.01.042zM72.014 105.628c-.268.075-1.028-.107-.457-.268.268-.075 1.029.107.457.268zM71.694 108.566c-.024-.101.892-.25.945-.033l.01.042c.027.109-.891.251-.945.033l-.01-.042zM76.052 93.174c.09.365-.847.458-.92.16l-.01-.042c-.089-.365.848-.457.92-.16l.01.042zM73.996 92.305l.045-.013c.189-.053.488-.083.625.087.137.17.003.325-.177.376l-.045.013c-.197.055-.496.085-.633-.084-.138-.17-.003-.326.185-.379zM74.717 91.152c.107-.026.217-.03.323-.014.106.016.206.054.294.111.171.114-.065.244-.17.283-.106.034-.216.046-.324.036-.108-.01-.211-.042-.303-.094l-.01-.042.517.08-.054.015c-.411.116-.847-.258-.235-.377l-.038.002zM76.276 94.298l.035-.055c.142-.239 1.031-.164.88.077l.01.043c-.152.241-1.038.175-.88-.077l-.045.012zM79.23 95.754c-.09-.374.846-.466.918-.169l.01.043c.092.373-.845.466-.918.168l-.01-.042zM79.007 94.95c-.377.107-1.028-.28-.445-.446.377-.106 1.028.281.445.446zM77.887 93.624l-.023-.093c-.03-.126.893-.251.947-.032l.022.092c.031.127-.893.252-.946.033z"/>
    <path fill="#333534" d="M77.748 93.663l-.423-.124c-.192-.045-.127-.172.007-.246.211-.081.44-.088.646-.02l.43.114c.185.056.12.182-.015.257-.21.08-.44.088-.645.02zM75.414 92.114l-.013-.051c-.057-.237.876-.338.95-.033l.012.05c.058.238-.875.338-.95.034zM81.99 95.817c-.179.05-1.051-.044-.64-.16.17-.047 1.042.047.64.16zM82.725 97.523c.1.1.21.196.32.292.284.256-.598.424-.809.229l-.32-.291c-.284-.257.598-.424.809-.23zM81.448 97.054c-.36.101-1.024-.264-.45-.427.35-.099 1.024.264.45.427zM84.24 97.927l.01.042c.048.194-.88.311-.947.033l-.01-.042c-.048-.195.88-.312.948-.033zM86.321 99.37c-.196.055-1.068-.077-.64-.198.197-.055 1.069.077.64.198zM88.573 100.239c-.098.042-.203.064-.309.066-.105.002-.208-.017-.302-.057-.548-.199.067-.708.488-.555l.073.025-.466.014.08-.023c.106-.044.22-.059.33-.041.11.017.21.065.289.138.028.036.046.079.052.124.006.046 0 .093-.019.137-.018.044-.047.084-.084.115-.038.032-.082.054-.13.065l-.002-.008zM86.659 100.165c-.03-.119-.121-.22-.177-.332-.056-.111.773-.337.93-.127l.177.332c.118.212-.774.337-.93.127zM86.123 98.67c-.152.042-.524.084-.623-.05-.1-.135.002-.226.172-.274l.044-.013c.153-.043.525-.084.626.058.102.143-.004.218-.174.265l-.045.013zM84.972 97.797c-.187.052-1.063-.06-.644-.178.196-.055 1.064.06.644.178zM74.135 90.811l-.102-.025c-.59-.097-.24-.706.262-.62l.112.023c.59.097.23.708-.272.623zM73.281 92.645l.013.05c.028.118-.892.251-.946.033l-.012-.05c-.029-.118.892-.251.945-.033zM73.41 93.477l.09-.025c.18-.05.496-.086.628.067.133.152-.007.281-.177.33l-.099.027c-.179.05-.495.086-.62-.069-.123-.154 0-.28.179-.33zM76.59 94.752c-.368.104-1.028-.281-.444-.446.377-.107 1.028.281.444.446zM78.626 95.043l.044-.013c.211-.075.438-.082.644-.02.127.055.197.143.045.185l-.054.016c-.212.072-.44.076-.645.01-.128-.053-.186-.136.01-.19l-.044.012zM80.885 94.632c-.187.053-1.053-.054-.642-.17.178-.05 1.053.055.642.17z"/>
    <path fill="#333534" d="M81.131 94.744l.076.114c.182.275-.715.41-.92.16l-.076-.114c-.182-.275.725-.413.92-.16zM75.662 86.766c-.387.11-1.033-.299-.449-.464.386-.109 1.033.299.449.464z"/>
    <path fill="#333534" d="M75.162 86.288c.188-.053.488-.083.623.078s0 .317-.179.368c-.188.053-.497.086-.623-.078-.126-.164-.01-.315.179-.368zM74.64 84.816c-.187.052-1.064-.06-.644-.178.178-.05 1.055.062.644.177z"/>
    <path fill="#333534" d="M73.815 84.814l-.143-.15c-.317-.357.554-.613.815-.332l.133.154c.327.354-.551.62-.805.328zM74.479 87.014c-.17.048-1.051-.044-.64-.16.178-.05 1.05.045.64.16zM74.192 86.24l.168-.339c.144-.277 1.05-.224.89.103l-.17.33c-.151.287-1.05.224-.888-.095zM76.88 85.392l.01.042c.04.168-.883.294-.947.032l-.01-.042c-.042-.168.883-.293.946-.032zM78.144 84.931l-.044.013c-.17.048-.496.086-.627-.058-.13-.144.016-.248.177-.294.17-.048.498-.077.627.058.129.136-.016.249-.177.294l.044-.013zM76.577 84.245c-.36.101-1.022-.255-.447-.418.35-.099 1.021.255.447.418z"/>
    <path fill="#333534" d="M76.88 84.258c.004.108.029.213.076.308.076.317-.869.401-.931.145-.052-.131-.086-.27-.1-.41.015-.298.945-.324.956-.043zM79.853 83.965l-.02-.085c-.102-.418.831-.536.916-.187l.023.094c.1.409-.832.536-.92.178z"/>
    <path fill="#333534" d="M79.535 83.707c-.042-.058-.06-.13-.049-.203-.099.028-.524.048-.557-.087-.033-.135.224-.18.326-.192.226-.054.458-.049.672.017.214.066.4.19.54.356.103.151-.761.296-.931.109zM78.766 85.381c-.494.14-.814-.387-.221-.555.593-.168.805.39.221.555zM80.57 85.656c-.178.05-1.052-.054-.633-.172.178-.05 1.052.054.633.172zM83.146 84.13l.01.04c.027.11-.89.25-.943.033-.029-.117.89-.25.943-.032l-.01-.042zM83.944 83.197l-.18.05c-.512.145-.817-.477-.22-.627l.189-.053c.502-.143.816.476.217.619l-.007.01zM82.653 83.222l.01.042c.048.194-.88.311-.947.033l-.01-.043c-.048-.194.88-.31.947-.032zM85.597 83.552l-.11-.06c-.179-.103.08-.22.169-.246.213-.06.437-.046.63.04l.113.067c.185.092-.08.22-.17.246-.215.058-.44.041-.632-.047zM86.102 82.469l.045-.013c.187-.297 1.088-.217.881.114l.01.042c-.186.297-1.09.208-.88-.113l-.056-.03zM84.314 83.296l-.01-.042c-.06-.246.874-.347.95-.033l.014.06c.062.253-.871.354-.95.032l-.004-.017zM88.235 82.15l-.01-.042c-.108-.443.821-.579.915-.195l.01.043c.105.434-.822.578-.915.195zM90.762 81.761c-.286.08-.991-.144-.445-.298.277-.078.99.144.445.298zM72.6 81.457c-.287.081-.996-.161-.45-.315.286-.08.996.161.45.316zM70.486 80.946l-.044-.178c.01-.275.888-.296.952-.033l-.01.194c-.001.272-.898.254-.952.033l.054-.016zM70.673 79.613c-.513.145-.815-.462-.22-.63.594-.168.806.465.22.63zM71.082 78.594l.054-.016c.19-.316 1.094-.228.873.125l-.034.055c-.2.32-1.095.228-.883-.122l-.01-.042zM73.258 78.258c-.396.112-1.035-.307-.451-.472.395-.112 1.035.307.45.472zM73.114 79.503l-.045.013c-.504.142-.813-.417-.219-.585.495-.14.813.416.22.585l.044-.013zM70.215 80.138c-.378.107-1.03-.29-.456-.452.377-.107 1.03.29.456.452z"/>
    <path fill="#333534" d="M70.224 80.12l-.18.286c-.177.296-1.08.215-.88-.105l.18-.286c.187-.298 1.08-.215.88.105zM72.575 76.204l-.066-.035c-.438-.229.411-.468.664-.332l.055.03c.44.236-.4.473-.653.337zM74.415 74.159c-.268.075-.987-.128-.45-.279.268-.076.986.127.45.279zM74.892 72.403c-.268.075-1.029-.107-.457-.268.268-.076.984.119.457.267zM75.38 73.685l.044-.012c.213-.068.439-.072.645-.011.128.054.191.117.04.16l-.045.012c-.212.066-.436.073-.643.019-.128-.054-.193-.125.003-.18l-.044.012zM75.071 76.215c.211-.075.438-.082.644-.019.13.062.192.162-.004.217-.216.072-.446.077-.655.013-.119-.056-.19-.153.015-.21z"/>
    <path fill="#333534" d="M73.27 76.76c-.503.142-.807-.436-.223-.602.585-.165.818.433.224.602zM70.92 77.11l.187-.053c.258-.073 1.026.106.456.266l-.188.052c-.258.073-1.025-.106-.455-.266z"/>
    <path fill="#333534" d="M73.907 76.177c-.485.137-.808-.4-.223-.565.584-.165.817.397.224.565zM75.295 75.3c-.513.145-.813-.453-.218-.621.594-.168.803.455.218.621zM76.045 71.872l-.057-.038c-.165-.088.087-.15.167-.173.212-.053.431-.043.628.03l.01.042c.165.089-.094.161-.168.173-.21.055-.428.048-.625-.022l.045-.012zM76.354 70.92l.033-.1c.07-.3.977-.276.95-.033l-.025.097c-.077.312-.976.276-.949.033l-.009.003zM76.54 69.723l.022.093c.286.31-.592.485-.808.229l-.075-.07c-.286-.31.6-.496.807-.273l.053.02zM77.268 68.76l.088-.07c.333-.295 1.074.06.63.45l-.08.069c-.342.296-1.075-.07-.638-.448zM78.532 67.747c-.485.137-.82-.368-.227-.535.593-.168.82.367.227.535zM79.434 66.291c-.17.048-1.042-.047-.64-.16.179-.05 1.051.045.64.16z"/>
    <path fill="url(#prefix__paint0_linear)" d="M125.382 205.398c.268.265.569.547.909.864.992.965 1.912 1.998 2.752 3.09 2.075 2.544 4.157 5.088 6.246 7.634 4.269 5.932 9.002 9.854 15.881 16.178l79.996 68.338c17.031 12.884 48.379 27.138 93.835 29.498l5.403-135.977s-18.522-.76-29.749-4.174c-25.926-7.885-63.918-24.314-67.982-26.087-5.703-2.485-11.154-5.372-16.581-8.283-2.41-1.285-4.825-2.562-7.244-3.831-5.633-2.918-10.75-6.625-16.266-9.742-3.693-2.171-7.693-3.856-11.901-5.012-1.234-.322-1.953 1.95-2.927 3.457-.277.53-.739.958-1.299 1.204-2.026.573-2.513 4.479-3.677 6.04-6.777 9.068-16.836 11.346-23.612 20.414-2.878 3.857-5.911 7.638-8.819 11.448-1.859 2.419-3.675 4.854-5.428 7.344-1.873 2.681-3.379 5.552-5.406 8.157-.438.556-.891 1.088-1.344 1.621-1.05 1.182-2.027 2.422-2.922 3.713-1.3 2.04-1.068 2.875.135 4.106z"/>
    <path fill="#E7AFB0" d="M20.476 52.695c-.07.116-.152.226-.243.33-.342.444-.656.907-.938 1.384-.628.97-1.224 1.95-1.787 2.946-.812 1.428-1.386 3.25-2.32 4.57-.832 1.137-3.037.674-4.27.508-.772-.067-1.518-.24-2.217-.513-.733-.305-1.296-.866-1.582-1.576-.267-1.103-.056-2.303.586-3.346.792-1.53 1.988-2.869 3.462-3.875 1.473-1.006 3.17-1.642 4.911-1.84.886-.117 1.774-.121 2.638-.013.65.078 1.691.05 1.886.717.032.115.037.237.015.36-.021.121-.07.24-.14.348z" opacity=".48"/>
    <path fill="#1B7065" d="M89.94 23.675c1.889 1.802 3.995 3.2 5.478 5.304 2.084 2.928 4.384 5.655 6.214 8.748 1.578 2.63 2.642 5.61 4.395 8.126 1.282 1.83 2.71 3.56 4.272 5.18 3.868 4.076 8.456 7.817 12.402 11.456 2.687 2.328 5.195 4.83 7.507 7.49 5.833 7.104 8.385 16.174 11.524 24.772 3.841 10.107 8.288 19.961 13.322 29.518 1.687 3.3 3.398 6.575 5.109 9.85 1.415 2.714 2.899 5.5 5.394 7.386 3.313 2.51 11.86 2.612 14.402-1.7.159-.268.307-.541.445-.811.139-.271.24-.485.356-.721-7.297-4.689-11.562-12.825-15.582-20.015-.886-1.592-2.04-3.208-2.797-4.902-.111-.238-.209-.478-.293-.719-2.003-5.056-4.394-9.954-6.778-14.826-3.476-7.089-6.949-14.18-10.42-21.277-2.078-4.608-4.588-9.007-7.505-13.15-4.422-5.81-10.248-10.284-15.59-15.23-4.271-3.96-8.208-8.225-11.78-12.762-2.055-2.594-4.028-5.305-6.766-7.15-.338-.225-.692-.437-1.05-.62-2.64-1.255-5.453-2.206-8.386-2.835-1.294-.354-2.584-.725-3.872-1.112z" opacity=".5"/>
    <path fill="#E7AFB0" d="M11.242 68.598c-.159-.682-1.64-.292-2.26-.065-.799.298-1.552.717-2.228 1.239-1.837 1.338-3.228 3.158-3.97 5.194-.303.867-.453 1.763-.445 2.649.004.394-.045 1.983.493 2.113.128.016.263-.004.386-.06.953-.306 1.888-.67 2.8-1.091 1.157-.564 1.404-1.761 1.648-2.85.483-2.125 1.522-4.15 3.018-5.886.188-.196.347-.416.472-.65.086-.192.116-.397.086-.593z" opacity=".48"/>
    <path fill="#F2C9AD" d="M63.469 13.6c-2.557 8.424 1.46 17.694 7.594 23.675 2.9 2.733 6.16 5.103 9.707 7.059 1.83 1.043 3.7 2.046 5.606 2.947 1.205.449 2.348 1.022 3.41 1.71 1.087.859 1.28 2.042 2.012 3.159 2 2.986 4.291 5.816 6.454 8.692 2.597 3.48 5.23 6.93 7.899 10.353 1.369 1.758 2.74 3.512 4.114 5.262.511.53.842 1.196.956 1.922.114.727.004 1.482-.315 2.177-5.975 16.382.998 34.5 1.511 50.616.05 1.661 2.347 2.211 4.174 1.785 8.016-1.911 14.651-10.598 16.45-18.541 2.207-9.722.231-20.007-3.723-29.024-3.954-9.017-9.759-16.978-15.588-24.793C99.867 41.965 84.268 22.913 63.469 13.6z"/>
    <path fill="#E9967C" d="M46.745 31.861l9.442-2.65c.428-.12.855.109.954.511l.68 2.783c.099.403-.169.827-.597.947l-9.441 2.65c-.429.12-.856-.108-.955-.511l-.68-2.783c-.099-.402.169-.826.597-.947z"/>
    <path fill="#E9967C" d="M51.92 32.56c-3.027.847-5.673.75-5.91-.218-.238-.967 2.024-2.437 5.051-3.284 3.027-.846 5.673-.748 5.91.219.238.967-2.024 2.437-5.05 3.284z"/>
    <path fill="#E7AFB0" d="M65.61 14.672c.145.81.406 1.59.774 2.316.475.917 1.175 1.701 2.047 2.293 1.83 1.293 4.11 1.95 6.503 1.875.494-.025.988-.086 1.48-.183 2.33-.444 4.502-1.634 6.137-3.364-2.583-1.04-5.12-2.159-7.61-3.357-2.096-.958-4.153-1.998-6.167-3.106-.576-.23-1.183-.395-1.812-.493-.147-.022-.297-.035-.448-.039-.257.444-.588.864-.82 1.328-.325.907-.354 1.86-.085 2.73z" opacity=".48"/>
    <path fill="#6C59A5" d="M121.886 191.082l-2.312 2.367c-.509.465-.927 1.014-1.233 1.616-.732 1.702.415 3.528 1.501 4.906 5.076 6.546 10.37 12.908 15.884 19.087.532.605 1.189 1.249 2.012 1.189.522-.075 1.015-.311 1.405-.671 3.667-2.815 29.03-28.267 32.863-31.94 5.744-5.508 38.701-34.805 37.266-38.134-.66-1.527-2.178-2.464-3.615-3.306l-21.968-12.917c-1.74-1.02-3.663-2.079-5.699-1.703-2.97.531-4.014 3.287-5.889 5.312-2.008 2.154-4.451 4.14-6.582 6.219-5.042 4.918-24.35 26.732-26.204 29.399-2.035 2.749-4.304 5.337-6.782 7.734l-10.647 10.842z"/>
    <g style="mix-blend-mode:multiply" opacity=".5">
        <path fill="#533E8F" d="M177.198 137.155c3.837 2.072 7.587 4.188 11.163 6.619 3.061 2.081 6.647 4.255 8.915 7.123.155.2-.176.469-.38.357-3.494-1.91-6.467-4.88-9.709-7.145-3.242-2.265-6.73-4.53-10.286-6.494-.294-.159.003-.619.297-.46zM172.841 142.359c3.538 2.447 7.139 4.785 10.599 7.283 3.655 2.568 7.673 5.084 10.924 8.125.062.055.097.131.1.214.002.084-.028.168-.086.237-.057.069-.138.118-.226.137-.089.019-.178.007-.251-.034-3.694-2.184-6.976-5.061-10.394-7.589-3.597-2.703-7.212-5.482-10.911-8.11-.14-.096.067-.348.208-.252l.037-.011zM168.041 146.73c3.948 2.569 7.458 5.767 11.077 8.715 3.813 3.092 8.033 6.018 11.377 9.567.199.215-.099.64-.38.457-3.978-2.486-7.434-5.837-11.002-8.818-3.795-3.143-7.875-6.147-11.279-9.659-.118-.121.063-.366.216-.264l-.009.002zM160.43 153.37c3.448 2.956 7.085 5.747 10.7 8.527 3.615 2.78 7.596 5.261 10.804 8.378.043.035.069.086.072.141.003.055-.016.112-.054.159-.037.046-.091.079-.15.092-.059.014-.118.006-.167-.021-3.953-2.061-7.415-5.123-10.825-7.871-3.664-2.948-7.138-6.06-10.674-9.137-.165-.152.111-.415.294-.268zM156.527 160.352c3.305 2.687 6.689 5.416 9.975 8.191 3.013 2.545 6.55 4.991 8.945 8.081.141.178-.156.439-.35.331-3.494-1.965-6.421-5.074-9.384-7.661-3.228-2.828-6.376-5.735-9.562-8.595-.226-.199.141-.543.376-.347zM153.333 167.706c2.569 2.452 5.226 4.814 7.875 7.178 2.373 2.125 5.444 4.082 7.308 6.63.149.212-.186.484-.401.373-2.862-1.488-5.213-4.287-7.493-6.439-2.609-2.412-5.073-4.922-7.596-7.433-.194-.19.138-.516.334-.317l-.027.008zM145.893 172.984c2.715 2.526 5.541 4.929 8.328 7.38 2.787 2.451 5.909 4.676 8.296 7.417.218.247-.116.738-.445.523-3.001-1.958-5.543-4.682-8.138-7.079-2.825-2.613-5.543-5.322-8.335-7.964-.177-.158.126-.439.294-.277zM141.315 178.818c5.511 5.034 11.783 9.333 17.28 14.398.232.224-.113.663-.394.48-6.456-3.981-11.823-9.421-17.298-14.474-.04-.052-.058-.117-.05-.184.008-.067.042-.131.094-.181.053-.05.121-.082.192-.09.071-.008.14.008.195.046l-.019.005zM137.156 186.962c2.395 2.633 4.945 5.121 7.586 7.526 2.642 2.406 5.724 4.482 8.089 7.069.238.251-.107.736-.444.533-2.98-1.722-5.504-4.436-7.919-6.771-2.67-2.571-5.177-5.3-7.649-8.048-.176-.196.15-.511.337-.309zM129.344 192.888c5.408 5.448 11.752 10.046 17.224 15.43.078.089.114.205.102.326-.012.121-.072.238-.167.328-.095.089-.219.145-.347.157-.129.011-.253-.023-.347-.095-6.351-4.496-11.415-10.392-16.699-15.913-.143-.141.11-.38.253-.238l-.019.005z"/>
    </g>
    <defs>
        <linearGradient id="prefix__paint0_linear" x1="190.368" x2="399.52" y1="179.612" y2="434.24" gradientUnits="userSpaceOnUse">
            <stop stop-color="#5F4B97"/>
            <stop offset="1" stop-color="#5F4B97" stop-opacity="0"/>
        </linearGradient>
    </defs>
</svg>
