<svg width="744" height="668" viewBox="0 0 744 668" fill="none" xmlns="http://www.w3.org/2000/svg">
<path d="M0 0H744V569L0 666V0Z" fill="#030931"/>
<mask id="mask0_2861_185912" style="mask-type:alpha" maskUnits="userSpaceOnUse" x="0" y="1" width="744" height="667">
<path d="M0 1H744V569L0 668V1Z" fill="#030931"/>
</mask>
<g mask="url(#mask0_2861_185912)">
<g filter="url(#filter0_f_2861_185912)">
<path d="M510.677 358.58C504.805 415.753 518.899 446.456 472.955 498.953C431.34 546.504 362.331 449.17 358.58 368.471C355.132 294.308 397.836 231.093 444.905 224.294C498.23 216.592 519.219 275.415 510.677 358.58Z" fill="#38D99E" fill-opacity="0.84"/>
<path d="M601.142 738.397C595.435 793.868 609.131 823.657 564.486 874.592C524.048 920.727 456.99 826.291 453.344 747.993C449.994 676.037 491.491 614.704 537.23 608.108C589.047 600.635 609.443 657.707 601.142 738.397Z" fill="#38D99E" fill-opacity="0.36"/>
<path d="M832.477 44.5749C826.314 104.47 841.106 136.635 792.889 191.632C749.216 241.447 676.793 139.478 672.856 54.9366C669.238 -22.7584 714.054 -88.9836 763.452 -96.1057C819.415 -104.174 841.442 -42.5508 832.477 44.5749Z" fill="#38D99E" fill-opacity="0.4"/>
<path d="M106.816 238.923C101.815 286.057 113.817 311.368 74.6924 354.647C39.2538 393.848 -19.5139 313.606 -22.7085 247.077C-25.6443 185.936 10.7215 133.822 50.8055 128.217C96.2168 121.868 114.091 170.361 106.816 238.923Z" fill="#38D99E" fill-opacity="0.4"/>
<path d="M510.729 -51.5458C505.023 3.92534 518.718 33.7145 474.073 84.6492C433.635 130.785 366.577 36.3479 362.931 -41.9494C359.581 -113.906 401.078 -175.239 446.817 -181.835C498.634 -189.308 519.03 -132.236 510.729 -51.5458Z" fill="#38D99E" fill-opacity="0.4"/>
<path d="M705.628 435.175C701.374 476.523 711.583 498.728 678.303 536.695C648.158 571.084 598.169 500.691 595.451 442.328C592.954 388.692 623.887 342.974 657.984 338.057C696.612 332.487 711.816 375.029 705.628 435.175Z" fill="#38D99E" fill-opacity="0.4"/>
<path d="M134.778 478.87C139.032 520.218 128.822 542.423 162.103 580.39C192.248 614.779 242.237 544.386 244.954 486.023C247.452 432.387 216.518 386.669 182.422 381.753C143.794 376.183 128.59 418.724 134.778 478.87Z" fill="#38D99E" fill-opacity="0.4"/>
<path d="M778.095 496.07C778.095 560.66 710.347 657.081 662.356 627.156C626.805 604.989 651.735 549.522 651.735 484.932C651.735 420.343 668.136 411.25 709.196 411.25C750.256 411.25 778.095 431.481 778.095 496.07Z" fill="#656BFF" fill-opacity="0.3"/>
<path d="M-22.875 520.06C-22.875 584.649 44.8735 681.071 92.8644 651.146C128.415 628.978 103.485 573.511 103.485 508.922C103.485 444.333 87.0839 435.24 46.024 435.24C4.96409 435.24 -22.875 455.471 -22.875 520.06Z" fill="#656BFF" fill-opacity="0.3"/>
<path d="M380.715 695.43C380.715 769.369 302.852 886.614 230.165 852.357C176.32 826.981 154.683 720.329 154.683 646.39C154.683 572.451 179.524 562.042 241.714 562.042C303.903 562.042 380.715 621.491 380.715 695.43Z" fill="#7D82FF" fill-opacity="0.4"/>
<path d="M596.399 20.2125C596.399 68.9354 544.99 146.195 496.999 123.621C461.449 106.899 447.163 36.6202 447.163 -12.1027C447.163 -60.8256 463.564 -67.6849 504.624 -67.6849C545.684 -67.6849 596.399 -28.5103 596.399 20.2125Z" fill="#7D82FF" fill-opacity="0.4"/>
<path d="M602.39 342.358C602.39 391.081 550.981 468.341 502.99 445.767C467.44 429.045 453.154 358.766 453.154 310.043C453.154 261.32 469.556 254.461 510.616 254.461C551.676 254.461 602.39 293.635 602.39 342.358Z" fill="#7D82FF" fill-opacity="0.4"/>
<path d="M382.894 231.648C382.894 286.283 325.189 372.919 271.32 347.605C231.416 328.854 155.772 219.904 155.772 165.269C155.772 110.634 233.79 133.084 279.879 133.084C325.968 133.084 382.894 177.013 382.894 231.648Z" fill="#7D82FF" fill-opacity="0.4"/>
</g>
</g>
<defs>
<filter id="filter0_f_2861_185912" x="-222.875" y="-382.492" width="1257.29" height="1469.25" filterUnits="userSpaceOnUse" color-interpolation-filters="sRGB">
<feFlood flood-opacity="0" result="BackgroundImageFix"/>
<feBlend mode="normal" in="SourceGraphic" in2="BackgroundImageFix" result="shape"/>
<feGaussianBlur stdDeviation="100" result="effect1_foregroundBlur_2861_185912"/>
</filter>
</defs>
</svg>
