<svg xmlns="http://www.w3.org/2000/svg" width="488" height="501" fill="none" viewBox="0 0 488 501">
    <path fill="url(#prefix__paint0_linear)" d="M411.287 71.593l-1.555 4.05 1.555-4.05-13.667-1.16-61.571-5.268-60.214-45.637-80.824-3.455-68.473 178.709 80.823 3.445 4.388 3.332 55.826 42.315 75.229 6.428 1.554-4.04-1.554 4.04 66.364 42.853 68.474-178.699-66.355-42.863z"/>
    <path fill="#000" d="M245.98 135.763l-.633.708-.085-.245-.142-.047-.047.104.123.056c-.067.171-.181.318-.33.425v.123l-.17.217v.075l-.227.312-.208.123h-.122l-.237.179.161.217.094-.075.208.226.198-.056.189.075v.076h.066l1.369-2.965c-.1.082-.192.174-.273.274l.066.198zM277.873 63.968l.255.359.472-1.039-.727.68zM268.545 81.36l.944.424-1.086.595.236.944c.205.25.423.49.652.718l3.21-7.129-.736-.056c-.85.448-1.584 1.089-2.143 1.87-.559.782-.928 1.684-1.077 2.633zM243.969 140.012l-.123.076c.035.07.067.143.094.217l.076-.17-.047-.123zM277.506 65.318l-.491.047-.661 2.304-1.482.114-.529 1.388c.452.203.874.467 1.256.783l2.002-4.456-.095-.18z"/>
    <path fill="#fff" d="M224.924 182.585l-76.601-9.036L226.407 0l76.601 9.036-78.084 173.549z"/>
    <path fill="#BD5983" d="M226.69 178.657l-72.446-8.545L228.786 4.418l72.456 8.545-74.552 165.694z"/>
    <path fill="#60EABF" d="M294.493 27.957l-3.333 7.403h-.133l-.698-1.51.141-1.757-.292-1.37.528-1.547 1.502-.756c.786.02 1.567-.139 2.285-.463zm-18.705 12.558l-1.151.878 1.595.321.756 1.162 1.048.49c.285-.962.431-1.96.434-2.964-.642-.976-1.583-1.718-2.682-2.115l-.528 1.322.528.906zm-1.595 11.15l1.331-.112c1.176-1.237 1.823-2.883 1.803-4.59l-.226.369-.944-.293-1.539.812-.756-.18-.878 2.069 1.303-.057-.689 1.492.595.49zm-5.599 10.387c-.639-.675-1.217-1.405-1.728-2.181.362-1.169.656-2.357.878-3.56-.033-.303-.142-.592-.317-.842-.175-.249-.41-.45-.684-.584l-.802.246-.463 2.275-.765.812.331-2.143-.35-.793-1.34 1.01-.529-1.218-1.945.472.831-.944-.51-.51-2.587 1.114c-.828.67-1.573 1.438-2.219 2.285l1.048.69 1.152.104-2.115.528.066.765c.877.191 1.777.258 2.672.198l1.228.623-1.133.303-1.001-.208c-.639.049-1.271.16-1.889.33l.246 1.577.755-.132.784.614v.944c1.995.028 3.988-.146 5.948-.52.676.508 1.446.874 2.266 1.077l.538-.633-.151-.755h1.284l.501-.944zm.557-7.327l-.331-.567h-1.029l-.396.284.453 1.7 1.303-1.417zm-7.006-4.863l3.465.095-2.03.944-.255.803 1.143.084 2.341-.84 2.672-.094.944-1.143.454-1.303-.727-.207-.86.368c.08-.792.241-1.574.482-2.332l-.614-.416-1.133.945-.094 2.672-1.199-.35-.605-1.718-1.661-1.162c-1.331.728-2.438 1.806-3.201 3.116l.878.538zm7.808-6.77l.661-.887-.821-.614-1.228.19-1.038.943.661 1.096 1.765-.727zm1.672-2.832c-.205-.408-.537-.739-.945-.944l-1.199.897-.226.463 1.227.15 1.143-.566zm-2.682 23.085l.642.945.689-.123.756.66.746-.575c-.007-.412-.104-.816-.283-1.186-.18-.37-.438-.697-.756-.958-.504.535-1.115.957-1.794 1.237zm11.198-18.6l1.294.35.377-.048.246-.33-.265-.623-1.473-.227-.179.878zm-.444-1l1.388-.51.708-1.124-.368-1.237c-.159-.165-.35-.296-.561-.385-.21-.09-.437-.135-.666-.134-.432.803-.696 1.687-.774 2.596l.273.793zm-4.938 10.857l-1.444.132-.661-.585-1.369 1 .16 1.55-1.388-.454-.359.68c.73.713 1.179 1.665 1.266 2.681l.632.246 1.568-.642.991-1.889-.699-1.066 1.171-1.001.132-.652zm2.578-3.843l-.944 1.086.604.755.991.303.831-.944c.162-.6.109-1.239-.151-1.804l-1.331.604zM260.7 46.935l1.889-1 .746-.057 1.01-.944 1.114-2.247-1.208.32-1.115-.17c-1.632 1.06-3.156 2.278-4.55 3.636l.736.69 1.378-.227zm15.56 7.554c-.535.518-.964 1.136-1.26 1.82-.297.684-.456 1.42-.467 2.164l.812.18 1.51-1.511 1.077-.321 2.011-1.888c-.723-.668-1.679-1.027-2.663-1.001l-1.02.557zm-70.671 53.818c-.121-.095-.25-.177-.387-.245l-.066.056v.142l-.18.094-.075.076v.264l-.104.189.141.113.161-.094.633-.189c-.003-.127-.046-.249-.123-.349v-.057zm33.622-19.913l-.057-.576-.557-.5c-.094-.293-.179-.585-.245-.888-.594-.172-1.168-.409-1.709-.708l-.17.227v.585l.68.265v.34l.5.424.066.378 1.01.585.482-.132zm37.767-22.66l-.359-1.265-1.624 1.293.841-1.84-1.209-.539 1.067-.85c.253-1.116.13-2.284-.349-3.323l-.822-.444-1.539 1.379-1.029 2.152c.483.593.764 1.324.803 2.087l-1.133 1.737-.576-.123-1.077 1.303.727-1.614-.878-.727-.793.226-.368 1.18c-.764-.203-1.568-.203-2.332 0l-.944-.944h-.888c-.027-.584-.285-1.134-.718-1.53-.524.131-1.069.16-1.605.086l-.755.547.425.822-1.19.765-.33-1.114-.765.226h-2.077l-1.171-.52 1.426-.736-.595-1.02h-.774c-1.219-.45-2.291-1.227-3.097-2.246l-.841-.208-.528.51-1.039.189.538-1.426-1.529 1.17-.491-1.831-.453-.293-.567.878-.755.378-.151-.85c-1.027.135-2.014.483-2.899 1.02l-.944-.35c-.789.222-1.52.612-2.143 1.143l-.699-.255c-.182-.399-.452-.751-.788-1.032-.337-.281-.732-.484-1.157-.592-.582-.245-1.108-.605-1.549-1.057l-1.114.198c-1.068-.396-2.101-.883-3.087-1.454l-.84.104-.945-.463.246-.444-1.19-.264-.5.34-.132-.944-.945-.557-1.614.944-.623-.217c-.802.456-1.689.742-2.606.84l-1.162.812-.585.878-1.303.718-1.331-.095-.831.878c.398.258.726.612.952 1.03.226.417.343.884.341 1.359l.624.736.151 1.067-1.587-.122.463-.784-.614-.075c-1.145.267-2.261.647-3.333 1.133.209.22.368.481.466.768.098.287.132.592.101.893l.944.482 1.124-.047.434.406.368-.312.944-.236h.463l-.812.52.293.32-.161.69-.765.377-.481-.189-.944.624-.406-.284h-.642c-.746.727-1.454 1.426-2.181 2.162l.311.633-.34.755c.339.27.589.635.718 1.048l1.067-.132.274.52c-.329.322-.544.743-.614 1.199l.453.056.944-.415v.651l.406-.415.199.68.604-.397.141.236 1.02-.274c-.548.413-.978.964-1.246 1.596-1.003.481-1.979 1.014-2.927 1.596h-.944c-.971.465-1.967.875-2.984 1.227v.198c1.35-.182 2.675-.521 3.947-1.01l.472.151 1.086-.387.472-.52 1.426-.471.424-.5c1.114-.25 2.15-.765 3.022-1.502l-.265-.68c1.256-.783 2.38-1.473 3.645-2.228v.359l-.944.32c-.589.522-.99 1.222-1.143 1.993 1.052-.316 2.125-.556 3.21-.718l.255-.944.945-.189c.475.618 1.094 1.11 1.803 1.436h1.095l1.681.944c.123.415.334.799.619 1.125.285.326.638.586 1.033.763.619.055 1.233.165 1.832.33l-.113 1.18.519 1.068-.236 1.029c.175.1.328.236.448.399.12.162.206.348.251.545l-.246.576.538.944-.255.878.737.567-.397.632v.945l1.152.575c.37.601.814 1.153 1.322 1.643h.094c-.035.558-.15 1.108-.34 1.634l-.292.226v-.944l-.944-.453-.17.18c-.094 1.865-.851 3.636-2.134 4.994-.017.788-.319 1.542-.85 2.124l.189.51-.198.69c.06.389.22.756.462 1.066l-.113.18c-.05.724.114 1.446.472 2.077l-.104.444.132.141.652.161.17.245.396.085v.236l.302.133.274.5v.406c-.007.794.053 1.586.18 2.37.165.088.31.209.427.355.117.146.203.314.252.495l-.179.33-.396.236-.284-.075h-.085l.246.472.377.226.104.208.142-.075.614.642c-.005.34-.117.671-.321.944.391.287.714.658.944 1.086v.453h.132l.425-.227.075-.123c-.085-.236-.179-.472-.283-.698l-.34-.066.123-.378c-.125-.452-.151-.925-.076-1.388-.198-.294-.359-.611-.481-.944l.057-.491h-.133v-.264l-.094-.067-.472-1.095c.128-.299.202-.619.217-.944l.255-.293.33.265h.265l.396.368-.141.283c-.042.409.01.822.151 1.209l-.076.236c.124.289.272.567.444.831l.368.103v.529c.11.269.315.488.576.614l-.311.434.056.189.501.368c.583.736.94 1.625 1.029 2.559l.113.34-.113.236-.255.161v.198h-.274c-.013.29.056.578.198.831.187.07.355.181.492.324.137.144.24.317.301.507.319.201.676.333 1.049.387.973.84 2.08 1.51 3.276 1.982.519-.085 1.029-.151 1.548-.198.711.514 1.346 1.124 1.889 1.813.177-.014.356.014.52.083.164.069.31.177.424.314.418.181.855.317 1.303.406l.151-.142.198.085v.085l.793-1.766h-.085v-.066h-.217l-.217.104-.246-.151-.103.094-.189-.151.255-.207h.141l.227-.161.236-.33v-.066l.189-.237v-.113c.151-.125.27-.283.349-.462h-.142v-.095h.161l.113.189c.217-.264.435-.529.661-.784l-.075-.141c.087-.113.185-.218.292-.312l.435-.944c-.76-.085-1.529-.044-2.276.123l-.217.179c-.146.365-.38.69-.68.944-.993.266-2.013.418-3.04.453l-.179-.321-.708-.273c-.081-.464-.214-.917-.397-1.351.054-.432.077-.867.066-1.303.387-.879.938-1.677 1.624-2.351-.027-.394.087-.786.321-1.104.821-.56 1.717-.998 2.663-1.303.389-.095.79-.13 1.189-.104l.453.236h.69l.377.463.52.085.34-.114.226.142.189-.076-.094-.17.151-.292-.048-.217c.56-.034 1.121-.034 1.681 0l10.462-23.265c-.179-.405-.439-.768-.764-1.069-.324-.3-.707-.531-1.125-.678l-1.142.114c.025-.718.11-1.431.255-2.134l-.992-.34c.879-2.071 2.407-3.8 4.353-4.929l.944-.075.463-.945.868-.547h1.096c.443-.302.859-.633 1.265-.944l1.747-3.88-.189-1.134.604-1.114zm-41.27 16.202h-.746l-.283-.18c-.196.236-.297.535-.283.841.196.468.363.947.5 1.435h.293l-.255-.944.774-1.152zm53.082-47.671l.047-2.314h-1.813l-.113 1.001-.888.199c-.856.88-1.643 1.828-2.351 2.832-.378.968-.378 2.044 0 3.012l1.36.132-1.001.86-.557 1.217.198 1.417 1.341.594 1.416-.075c.64-.785 1.376-1.486 2.191-2.087l1.652-3.673.255-1.236c-.625-.583-1.206-1.21-1.737-1.88zm-35.756 23.311v.944l2.37-.736.406-.897c1.504-1.424 3.302-2.5 5.268-3.154-.148-.65-.406-1.27-.765-1.831l-1.831-.359-.831-.614-2.663.076.076 1.52c-1.143 1.237-2.229 2.493-3.248 3.777l1.218 1.274zm29.052-8.205l.633-1-.227-1.001-1.454-.16-.406-1.02-1.445-.36-.802 1.143.472.944 1.369.51.217 1.266c-.384.872-.672 1.784-.859 2.719.797.634 1.698 1.126 2.663 1.454l.538.056 1.293-2.832c-.402-.136-.812-.246-1.227-.33-.024-.273-.104-.536-.236-.776-.131-.239-.312-.447-.529-.613zm-60.21 26.21c-.462.12-.911.284-1.341.492l-.132.566.236.35c.648-.196 1.264-.482 1.832-.85l-.142-.416-.453-.141zm-18.818 30.857c-.077.009-.149.042-.207.094l.198.16.113-.056.057-.17-.161-.028zm2.059 1.199l-.236-.095h-.104v.047c.069.057.113.138.123.227h.273l.095-.076-.151-.103zm7.704-40.034l.671-.226.132-.151-.529-.227-.274.605zm.652 3.777l-.831.132c.15.29.379.533.661.7l.547-.142.151-.51-.528-.18zm-9.093 36.002l.387.066.057-.066-.349-.076-.095.076zm-.566-.416c.024.064.024.135 0 .199l.302.066h.057c-.025-.115-.077-.222-.151-.312l-.208.047z"/>
    <path fill="#000" d="M314.962 151.889l-.161.369.029.085.226-.491-.094.037zM244.101 140.152l-.01-.159-.075.159.01.019.075-.019zM313.932 153.4l-.066.482.226.113.331-.755-.491.16zM343.475 88.252c-.165.438-.304.886-.415 1.34l.623-1.387-.208.047zM246.782 134.998l.17-.321-.085-.217-.246-.104-.434.944c.173-.143.376-.246.595-.302zM280.453 59.861l.302-1.369-1.615 3.673c.508-.325 1.049-.595 1.615-.803l-.302-1.501z"/>
    <path fill="#fff" d="M278.866 232.287l-53.941-49.702 78.084-173.55 53.94 49.702-78.083 173.55z"/>
    <path fill="#BD5983" d="M280.632 228.359l-53.941-49.702 74.552-165.693 53.941 49.701-74.552 165.694z"/>
    <path fill="#60EABF" d="M315.321 146.886l.283.321h.359l.057.944-.576 1.038-.227-.283-.349.076-.113-.416.434-1.029.132-.651zm.756.17l.481-.501.236-.831h-.5l-.255.217-.132.709.17.406zm-2.002-21.141l.538-.264v.482l-.425.321v.425l.576.811c0 .35 0 .699.066 1.049l-.368.557c-.282-.264-.541-.552-.774-.86l-.416.614v.85l-.717-.208v.557l.783.944-.594-.226-1.285.321.199.472h.557l.462.585.576-.141.161.434c.698.263 1.316.702 1.794 1.275l.736-.085v-.737l.416-.047.368-.623-.576-.812c.029-.717.118-1.431.264-2.134l-.302-.519c0-.652.085-1.303.123-1.945l-.538-.605c.344-.114.66-.301.927-.547.267-.245.479-.545.621-.878-.326-.414-.751-.739-1.237-.944l1.19-.775c-.457-.224-.84-.575-1.105-1.01-.722.341-1.3.926-1.633 1.652v.85l-.387 1.161zm-3.418 2.446l1.256.283.84-.566.255-.86.642-.491-.283-1.236-.482-.378-.151.708.151-.708c-.588.14-1.184.248-1.784.321l-.208 1.36-.944.698.708.869zm12.954-5.344c-.694 1.516-1.235 3.097-1.614 4.721l.472 1.322.868.387 1.738-.444v.548l3.776-8.432c-1.747.614-3.512 1.227-5.24 1.898zm-48.625-45.746v.482l.378.397.944-.18.141-.264-.755-.708-.708.273zm2.955.151l-.17-.85-.453-.254.264-.755c-.422-.905-.739-1.856-.944-2.833h-.387l.208-.784-.34-.49c-.55.738-1.028 1.529-1.426 2.36l-.802.283.802.538-.189 1.02c.689.092 1.39-.013 2.021-.302v.944l.699 1.142.717-.019zm5.306-3.342c.266-.25.438-.583.491-.944l-.207-.878-.614-.227-.67.746-.227.944.652.482.575-.123zm4.259-23.227l1.104 2.078 2.21-.303.302-.708-.991-.755.217-.727 1.17-.18.794-.944c.407.064.824.032 1.217-.093.393-.124.752-.338 1.049-.624l.283-2.059.651-.264-.557-1.133 1.832 1.161.68-.406 1.397.444 2.342-2.238c1.423-.18 2.764-.766 3.861-1.69l-1.208-1.076.944-.538c.655.272 1.37.368 2.074.279.704-.09 1.372-.361 1.939-.789l.614-1.303-.378-2.313c-1.207-2.27-2.623-4.423-4.23-6.43l-2.002-.538v-.86c-1.312-1.359-2.738-1.888-4.135-1.463l-1.634 2.323v-1.889l-.557-.887-1.633 1.095c-.12.01-.24.01-.359 0l-3.333 7.402-.887 1.983-.34 1.454.141 1.756c-.504.083-.994.239-1.454.463l-.5 1.114-.472 1.048-.529 1.171-2.002 4.457c.214.303.409.618.586.944l1.794 1.038zm-1.502 8.224l-.33-.094-.397.802.076 1.738.104.273.727.265c.384.384.762.78 1.133 1.19l.226-.652-.396-2.115-1.143-1.407zm-26.182 48.833l.104.595.085.123.708.179.161.312c.147.505.189 1.035.123 1.557l-.331.378c-.047.679-.047 1.361 0 2.04l.142.358-.057.387.236.34.199.057c.332-.267.581-.624.717-1.029-.052-.485.04-.974.264-1.407-.041-.725.036-1.452.227-2.153l.321-.453c.537-.292 1.163-.373 1.756-.227l.199-.188h.406l.302.207.566-.122.671.283.613-.255c.158-.387.275-.789.35-1.199l-.133-.208.321-.793-.264-.614.312.472.113-.632.274-.265-.246.746.142.576-.425.397v.075c.299-.199.615-.373.944-.519l.132-.321-.066-.274.085-.547.085.368.104.16-.057.246.69-.274.396-.491-.151-.189.274-.085-.057.095c.331.365.756.632 1.228.774l-.085-.312-.878-.585c.82.35 1.601.783 2.332 1.293l.151-.207-.076-.34-.085.368-.217-.236v-.623l.217-.463c.222-.148.46-.272.708-.368.692.317 1.433.515 2.191.585.014-.163.014-.327 0-.491v.066c.565.348 1.088.76 1.558 1.228l-1.294-.123-.321.774.387.454c1.367.044 2.723.266 4.032.66l-.208-.66.274-.718-1.029.548-.944-.709-.51-1.123c.09-.696.232-1.384.425-2.058l.812-.18-.264-.944-.869-.661c-.476-.199-.991-.285-1.506-.251-.514.035-1.014.189-1.459.449l-.538-.273c.827-.2 1.63-.485 2.398-.85l.897.208.784-.303c1.171 1.105 2.332 2.172 3.503 3.22l1.076-.198c.649.425 1.438.581 2.2.434l.5-1.227v-.614l-.368-.538.208-1.133-.189-.69-.746-1.095c-.104-.837-.32-1.656-.642-2.436l.548-.528c0-1.945 0-3.881.132-5.798-.692.223-1.309.631-1.785 1.18l-1.104-.056-.095-1.095-.415-.661c.218-.99.574-1.943 1.057-2.833l-.944-1.01.066-.67c-.132-.804-.337-1.594-.613-2.36l-.624-.058c-.487-.585-.914-1.217-1.274-1.888h-.529c-.501 1.183-.857 2.423-1.057 3.692l-1.247.727c.384 1.239.33 2.572-.151 3.776-.347.369-.805.614-1.304.7-.499.084-1.012.005-1.462-.227l.122.944-.481 1.973-.774.803-.576-.047-.378-1.747c-.053-1.306.293-2.597.992-3.701-.439-.555-.919-1.076-1.436-1.558-.196-.708-.516-1.376-.944-1.974v-.113l-10.442 23.132c.188.17.377.321.566.501l.264.538zm16.939 49.097c-.823-1.101-1.417-2.357-1.747-3.692-.745-.529-1.345-1.237-1.746-2.058l-.737-.387.255-.274-.104-.623c-.398-.728-.839-1.431-1.322-2.105h-.604l.264-.661-.944-.992-.085-.359.652-.179.189-.463-.246-.377c.131-.622.204-1.254.217-1.889l-.16-.103c-.359.127-.682.337-.944.613.262-.276.585-.486.944-.613v-.35c-.274-1.143-.905-2.169-1.804-2.927l-.113.066-.604-.736c-.095-.34-.18-.68-.265-1.02l-.198-.198.132-.349c-.093-.58-.278-1.141-.547-1.662l-.293-.246.142-.604-.274-.708-.416-.453-.047-.482.557.236c-.453-.415-.944-.812-1.369-1.18l-.075.151-.406-.075-.378-.473-.189-.576c-.399-.276-.769-.593-1.105-.944l.076-.236-.189-.698-.387-.369v-.642h-.283l-.066.387-.803-.368-.189.519.066.388-.34.358-.254-.179v-.708l.406-.151.16-.34-.047-.463.359.227.085-.142.207-.123-.066-.311-.179-.217c-.421.073-.852.057-1.265-.047l-.406-.454-.104.095-.35-.302h-.453c-.195.19-.349.418-.453.67l-.255-.142-.623.076-.274-.283c-.072-.524-.322-1.007-.708-1.369l.047-.048-.283-.321h-.274c-.21-.134-.45-.212-.699-.226l-.292-.208-.085-.293h-.076l-.198-.226.066-.132c-.206-.668-.317-1.361-.33-2.059l.056-.198.18-.066.047-.208.179-.236h.114c.027-.227.105-.444.23-.636.124-.191.291-.352.487-.469l.057-.292.094-.123h.076l-.066-.312c-.141-.277-.261-.564-.359-.859-.113-.129-.208-.271-.283-.425-.244-.098-.443-.283-.557-.519h-.104c-.295-.117-.541-.33-.699-.604l-.793 1.765v.18h-.057l-.075.17c.16.642.311 1.265.472 1.888h-.189l.113.236c-.064.033-.12.08-.164.137-.044.057-.075.123-.091.194v.207l.142.227v.293l.179-.057v-.217l.095.245v.227c.18.267.311.565.387.878v.16l-.123.057.057.246.236.415v.151l.075-.123.236.218c.07.174.177.332.312.462v.359l.16.208.123-.048-.075.473.264.207c.049-.023.102-.034.156-.034.054 0 .107.011.156.034l-.104-.585.113-.095.132.095h.293l.217-.123.255.18.198.434v.311l.123.17h-.217v.463c.107.303.165.622.17.944l-.161.623-.198.066-.142.699-.264.283.132.34c-.264.095-.523.205-.774.331l-.293-.208-.236.113-.122.35-.227-.142v.264c-.296-.02-.585-.101-.85-.236l-.085.303c-.273.101-.508.286-.67.528l-.236-.075-.17.661-.198.085.207.585.34-.113v.396c-.335.217-.741.295-1.133.217l-.377.293v1.001l-.303.123c.227.456.399.938.51 1.435 0 1.945 0 3.937.057 5.92l-.208.075v.765c.442 1.419 1.007 2.797 1.69 4.117l-.075.321.368.944.368.085.302-.208-.302.208-.359-.085c-.808 2.533-2.154 4.862-3.946 6.826l-.34.945-.444.462c-.574 1.622-1.615 3.038-2.993 4.07l-.245-.189c-.289.596-.483 1.233-.576 1.888-.86.823-1.581 1.779-2.134 2.833l.283.443.67-.944.265.576-1.114 1.577-.472-.888-.869 1.341-.888.34.708 1.048-.944.198c-.723.642-1.198 1.518-1.34 2.474v.944l-.425.463-.132.821c.296 1.194.687 2.363 1.17 3.494l.236.189.548-.945c.344.075.698.094 1.048.057.268.207.503.452.699.727l-.095-.944.302-1.237.444-.264.68.066.878-.831.888.047.576-.68-.435-.679-.236-1.181.472-.557.642-.066.52.472c.368-.326.656-.733.84-1.189l.689-.142.623.189.048-.604h-.425l-.255-.605.302-.944h.321l.387.803.614.396h.462l.095-.519.396-.519.104-.605c.674.909 1.653 1.546 2.757 1.794l1.001-.557.208-.368-.189-.661.321-.472-.397-1.322c.161-.274.331-.548.491-.831l.189-.056c.273-.713.698-1.358 1.246-1.889 1.039-.405 2.162-.542 3.267-.396l.274-.567-.274.567c-1.105-.146-2.228-.009-3.267.396-.548.531-.973 1.176-1.246 1.889l-.189.056-.273.463.141.736.387.321.359.803.33.189.34.538.812.132c.288-.238.647-.371 1.02-.378l.576-.491c1.069-.124 2.106-.444 3.059-.944.311-.226.558-.528.718-.878l.085-.491.321-.453c.792-.217 1.629-.217 2.421.001.793.218 1.512.645 2.082 1.236l.312-.302.585.113.416-.623.944-.387.51-.812.293-.114c.607-.767 1.079-1.632 1.397-2.558l.378-.35.141.114c.964-.423 1.971-.74 3.003-.944l.698-.879c.085-.491.18-.944.274-1.463l-.113-.359zm.104-76.384l.538-.519v-.415l-.217-.236c-.182.045-.344.147-.463.292v.538l.142.34zm38.154 70.389l-.34-.454c-.431-.027-.838-.212-1.142-.519l-.142-.396-.595-.539-.651-.151-.227-.377c-.771-.939-1.866-1.556-3.068-1.728l-.661-.406-.718-.057c-.36-.507-.789-.961-1.275-1.35l-.179-.642-.406-.378c-.341.309-.718.576-1.124.793-.428-.019-.853-.089-1.265-.207l-.585.189c-.199.31-.455.579-.755.793l-.274 1.057c-.579.14-1.171.22-1.766.236l-.548-.387c-.204-.018-.41.012-.601.09-.19.077-.36.198-.494.354l-.481-.076-.397.255c-.038.138-.103.267-.193.379-.089.112-.2.205-.326.273l-.236-.057c-.363.04-.699.212-.944.482l-.076.273-.34.189h-.292l-.331.567c.144.319.196.672.151 1.019l-.208.293c-.014.364-.106.72-.269 1.046-.162.325-.393.613-.675.843l-.113.406c-.218.204-.48.355-.765.443l-.293-.094.161.481v.727l-.208.227c-.069.251-.122.507-.16.765l.104.292v.397l.217.255c.064.277.159.546.283.803.03.19.011.385-.057.566.21.484.328 1.003.35 1.53-.124.383-.154.79-.088 1.188.065.397.225.773.465 1.096.272 1.15.674 2.266 1.199 3.324.091.072.174.154.246.245.671.197 1.297.525 1.84.966.543.441.993.986 1.323 1.603 1.482.346 2.836 1.101 3.909 2.181l.198.783c-.065.439-.036.886.085 1.313l.434.415.274.057.189.226.68.293-.085.17.094.217v.397l.208.34v.623c-.227.352-.504.67-.821.944l.056.189c-.222.338-.523.617-.878.812l-.113.198c.057.869.17 1.728.302 2.587l11.453-25.398-.18-.18.085-.519.435-.057.406-.896v-.095l.17-.368h.085l.16-.359-.359-.075.142-.425zm8.498-18.884l.34-.236.292-.595-.595-.066-.34.151-.519-.377c-.892 1.016-1.403 2.311-1.444 3.663l-.614.189v-.331l-.482-.368-.217.132-.444-.453-.264-.113c-.129.026-.244.1-.321.208v.122l-.075.104.066.132v.17c-.123.074-.263.113-.406.114l-.066-.104h.122v-.189l.076.066h.094l-.066-.104c.019-.077.019-.158 0-.236l-.085-.123.132-.179h-.16c-.133.323-.356.602-.642.802-.34.02-.667.134-.944.331l-.539-.198-.075.425.075-.435-.576-.236-.538.68-1.624-.397-.33-.944-.331 1.284-.812-1.104-.802-.444-.265.755.671 1.143c.214.768.322 1.562.321 2.36l-.944 1.719-.529.273c-1.15-1.041-2.223-2.164-3.21-3.361l-.926-.123.057.586c-.251.851-.63 1.66-1.123 2.398l-.359.094-.293.51v.435l.217.302c-.072.413-.262.796-.547 1.104l.33.17.236.378h.312l.462.595c-.093.349-.093.717 0 1.067l.236.311c.254-.129.548-.156.822-.075.396.396.802.774 1.218 1.133l.67-.265.491.218.349-.416.491-.075v-.671c.114-.185.27-.341.455-.454.186-.114.396-.181.612-.197l.17-.236.793.462.775-.085c.091-.369.262-.714.5-1.01l.944.453.944 1.237h.718l.255.142.5-.123.312.113c.127.38.309.739.538 1.067l-.217 1.029v.218l5.183-11.491-.33-.576.189-.434.094-.69.774-.462.104.274.217-.473-.132-.264.029-.406zm-46.454-60.937l.878.463 1.586-.151.444-.756v-1.275l.831-.556.368-.945-.321-1.595c-.408-.673-.879-1.305-1.407-1.889-.231.82-.63 1.584-1.171 2.242-.541.658-1.213 1.197-1.973 1.582v-.123l-1.652 3.843c.824-.493 1.551-1.133 2.143-1.888l.274 1.048zm8.715-14.54l1.048.226.642-.34.349-1.152-.151-1.52c-.336-.56-.796-1.037-1.344-1.394-.548-.356-1.17-.584-1.819-.664-.16-.236-.33-.463-.5-.68l-1.294 2.833c.75.683 1.588 1.26 2.493 1.718l.576.973zm-3.012 10.933l.548-.283.141 1.038.435.558.066 1.68-.557.132c.675.967 1.154 2.058 1.406 3.21-.005.566-.084 1.127-.236 1.672-.788.332-1.473.87-1.982 1.558l-.067.727c-.822-.501-1.582-1.097-2.266-1.775l-.868.793.236.944 1.699 1.227.18-.443c.33.991.642 1.982.944 2.974l-.368.226c.427 1.867 1.248 3.622 2.407 5.146l.123-.566c-.16-1.115-.302-2.22-.406-3.333.308 1.203.771 2.362 1.379 3.446l.651-.85c.348-1.738.224-3.538-.359-5.212l.482-.84.802.453c-.072 1.225.118 2.452.557 3.597.535-.087 1.04-.305 1.47-.634.43-.33.771-.76.995-1.254l-.812-.944-.095-2.276c-.743-1.052-1.248-2.254-1.482-3.521l1.388.094.264-2.219-.132-1.208-.944-2.002v-1.803l-1.228-.482.331-.944c-.162-1.342-.512-2.655-1.039-3.9l-.944.378-1.359-.387.708-1.331.104-3.182-1.823-.35-1.303 1.313.18-1.766 1.067-1.104-1.048-.425-3.211 7.128c1.001 1.84 2.378 3.449 4.041 4.721l-.075.02zM263.07 115.37l.331-.425-.293-.727v.085l.123.51-.179.368.018.189zm-21.045 61.532l-1.096 2.445c.334.272.649.566.945.879l.103.651.548.425.501-.331c-.561-.658-.93-1.459-1.067-2.313.091-.587.139-1.18.141-1.775l-.075.019zm5.75 3.616l-.35-.689h-.944l.066.727h.68l.085.595.878.368.331-.217-.227-.869-.519.085zm37.002-75.779l-.227-.284-.642-.085c-.803.614-1.682 1.122-2.615 1.511l.123.482h-.501v.358c.506.555 1.066 1.058 1.672 1.502l.415.717-.585.085.311.34 1.01-.236.095.264-.463.661.283.51.265.198.604-.623c.036-.439.132-.87.283-1.284l-.453-.189.491-.566-.415-.803h-.359l-.368-.717.349-.17-.274-.557h-.51c.434-.338.885-.653 1.351-.944l.16-.17zm-43.848 74.59l1.096-2.446-.34-.481h-.699c-.106.197-.251.371-.426.51-.176.14-.377.242-.594.302-.481-1.048-.944-2.078-1.35-3.135.08 1.468.399 2.912.944 4.277l.501.699.245.708c.156.241.337.466.538.67l.633.085.387-.283c-.267-.32-.554-.623-.859-.906h-.076zm73.467-83.305l-.708-.803-1.417-1.416 1.105-.425.416-1.53c.103.945.188 1.945.245 2.918l1.152.529.51-1.794-.151-1.888-.501-1.209.539-.321.689 1.888.425-.944v-2.134c.417.551 1.021.93 1.699 1.067l.548-.642-.208-1.548 1.303.944.236-2.767.689.312.869-2.342-.302-2.445 1.312-.066.944.68c.482-4.306 2.285-7.8 5.052-9.942l-1.199-1.35 2.058.944c1.283-.826 2.748-1.328 4.268-1.464l.538-2.153-1.256-2.398c-1.752-.782-3.722-.929-5.571-.415l1.747-1.974.283-2.067-1.709.425-.944-3.116-2.181-1.275.104-1.095c1.822 1.218 3.616 2.55 5.372 3.975l1.889-.944-1.501-7.46c-1.594-2.459-3.737-4.514-6.26-6.004l-1.634 1.416-1.822-2.02-3.257 1.435-1.02 2.03.198 3.691-.481-2.53-.605-1.086-.509-3.002-2.635 1.265.057-2.002c-1.7-1.832-3.635-2.634-5.58-2.322l-.671 2.19-1.01-.283c-.839.032-1.662.243-2.412.619-.751.376-1.413.909-1.94 1.562l.887 2.7-.803 1.105c-1.837-.107-3.685-.287-5.542-.538l-.632 1.16.67 2.39 2.002 2.945c-.385-.416-.855-.745-1.378-.965-.523-.22-1.086-.325-1.653-.31-.012 1.378.128 2.752.415 4.099 1.528.956 2.888 2.159 4.022 3.56l.784 2.898-.491 1.057.274 1.615c-.402 2.047-.657 4.12-.765 6.203l-1.501 1.397.236.945.67.217c.17 1.095.35 2.18.567 3.276l-.888-1.558-.528-.444c-.608.584-1.031 1.332-1.218 2.153l.406 1.218c.626.243 1.313.283 1.963.113-.268.734-.724 1.385-1.321 1.889l-1.124-.113-1.473 1.5.104.945-.736 1.01.113 2.153c-.669 2.258-.928 4.618-.765 6.968l.198 1.218 1.096 1.02.33 1.822.812.632 1.615-1.888.264-1.284 1.407-.321c.596-.418 1.019-1.039 1.189-1.747l.945-.519c.787.232 1.547.548 2.266.944h1.69c.293-.363.663-.657 1.082-.862.419-.206.878-.318 1.344-.328.951.732 2.072 1.21 3.259 1.386 1.186.177 2.398.048 3.52-.375h-.075zm-36.389 9.442v-.642l-.34.103v.444l.52 1.039.236.122.434-.132c-.326-.232-.592-.54-.774-.897l-.076-.037zm37.361 3.474l-.141-1.633.585-.944-.859-.945h-1.284l-.482-1.085-1.227.094-.368-1.888-.945-.529-.83.689.991 1.426-.179.472-1.115-.604.869 1.841-.84.16 1.954 2.757c.865.261 1.745.47 2.635.623l1.236-.434zm-48.596 24.983l.491.349.236-.462-.104-.132-.35-.208-.113.264h-.236l.076.189zm-3.975-11.33c.152.227.355.415.594.548l.312.453-.057.217.095.236.425-.255.226.066v.246l.227.151h.16c.111.168.26.307.435.406l.189.387.33-.085-.161-.501-.236-.245.114-.189-.302-.264v-.331l-.151-.122-.246-.473-.425-.396-.123.047c-.223-.316-.472-.613-.745-.887l-.218.075.303.425-.123.264.123.52h-.265c-.293-.321-.585-.652-.859-1.001l-.142.179.199.482.321.047zm-2.55-2.578l-.132.095c.082.345.24.668.463.944h.217l.397.34v-.265l-.218-.424c-.182-.293-.427-.541-.717-.727l-.01.037zm2.125-4.673l-.321.34.113.396v.538l.142.085c.206-.353.295-.763.255-1.17l-.189-.189zm17.939-11.51c-.182-.687-.504-1.33-.944-1.888l-.236-.095c.15.687.45 1.332.878 1.889l.274.226.028-.132zm-17.58 10.122l-.284-.18-.085.302.652.444.075-.207-.358-.359zm.169 6.921l.133-.095-.293-.67-.387-.397.123-.16-.265-.444-.179-.151-.595-1.832-.557-.396-.104-.454c-.325-.61-.76-1.154-1.284-1.605-.383-.271-.817-.463-1.275-.566l-.236.141-.387-.047.208.283.311.17.152-.094.236.198h.557l.519.538h-.283l.132.312.67.774c.146.484.444.908.85 1.209v.519l.094.368.34.378.142.378-.538.047c.538.444 1.038.887 1.558 1.369l.358.227zm3.484 4.72h-.122l-.104.312c.264.202.513.423.746.661h.217v-.227c-.204-.294-.453-.555-.737-.774v.028z"/>
    <path fill="#000" d="M315.462 151.644l.029-.179-.274.028-.161.359.406-.208zM314.933 152.56l-.104-.217-.406.897.114-.038.396-.642z"/>
    <path fill="#fff" d="M349.935 243.909l-71.068-11.623L356.95 58.737l71.069 11.623-78.084 173.549z"/>
    <path fill="#BD5983" d="M351.698 239.982l-71.068-11.623 74.552-165.694 71.069 11.623-74.553 165.694z"/>
    <path fill="#60EABF" d="M319.183 151.012l-.548.595v.274l-.34.387c-.487-.424-1.015-.797-1.577-1.114l.293-.406c.508.195 1.052.279 1.596.245l.576.019zm60.927 25.568l.085.057.331-.727-.17.085-.246.585zm-55.055-22.188l-.585-.047-.274-.331-.283.321.812.293-.066.132 1.076.104.189-.217h-.434l.075-.132-.51-.123zm25.559-65.667l-.321 1.01 1.889.944 2.294-.076 1.954-1.784c-.383-1.173-1.165-2.175-2.209-2.833l-1.256 1.048-.632-1.104-2.729.717v1.889l1.01.189zm-1.671 8.205l2.172-.945-.727-.868.245-1.247-1.794.397v1.076l-.859.708.963.879zm21.631-6.61l.378 1.02 1.123-.482.388-.613c.67-.142 1.332-.322 1.982-.538l.557-.558-.679-1.067c-.737.293-1.37.795-1.823 1.445l.331-1.095-1.124-.132-1.737.49 1.558.388-.954 1.142zm-39.278 65.148l-.519-.094-.189.17h-.406v.34l.302.16.888-.198c.005-.072.005-.145 0-.217l.642-.255-.718.094zm71.833-56.546l.605 1.52 1.576 1.293 1.776-.151 1.586-3.115c.163-2.108.004-4.229-.472-6.289l-1.993.699-3.106 2.417.642.944-.614 2.682zm-38.324 14.587l-.944.331-.396 1.133 1.066.755-.198.944 2.247.633.51-.095-.651-1.888.632-1.756c3.43-4.074 8.176-6.819 13.417-7.761l.869-.775v-1.199l-1.577.142-1.709.831-2.634.123c-1.845.688-3.645 1.489-5.392 2.398l-.311 1.152-2.672 1.803.538.387-2.294 1.671-.501 1.171zm45.151-9.442l.812-1.284-.944-2.228-.444-.311-.765.292-3.257 4.07 4.598-.539zm.094 5.108l-.944.567.434-1.416-1.444-.718 1.312-.557-.812-1.171-2.256.944c-.865.565-1.555 1.359-1.993 2.295l-1.331-.265-2.266 1.171-.321-.698-2.02-.067-.567.69h-2.068l-1.983 1.038-.868-.066-1.558 1.483v1.34c-1.147.179-2.32.062-3.409-.34l-1.463.255c-.821 1.26-1.221 2.748-1.142 4.249l-.803-1.407-1.548-.094-1.577.632-.331 1.521-.613-.491 1.18-1.955.16-1.256h-.377l-.52 1.549-1.888 1.189.208 1.776-1.454 1.756-.284 1.048.727.274-.868 1.123v1.048l-.992.699-.557.793-.991.283-.548.538-.717-.368c1.317-.831 2.443-1.931 3.304-3.229l-.311-1.218c.837-1.178 1.416-2.52 1.699-3.937l-.16-.718 1.444-1.567.388-1.218-1.662-.897-.727.349c-.798 1.489-2.025 2.703-3.522 3.484-.337.686-.524 1.436-.548 2.2l-.632.841.793.321-.161.396.312 1.067-.897.84c-.387-.957-.975-1.819-1.725-2.529-.749-.711-1.642-1.252-2.618-1.587l-.652.557.284 1.18-1.351 1.039-.34-1.199-1.416.557-1.378-.17-.784.51-.821-.331 1.199-.944-.51-.179c-1.681.623-3.371 1.17-5.08 1.661l-.661 1.039-1.274.17-.321-.652.415-.944 1.01-.056v-1.039l-1.765-.888v1.162l-.812.944.16 1.086-.944 1.038-.425-.67-.632-.198-2.38 1.274v1.209l-.783.264-1.322-1.227-.718.5.142.718-.416.698c-.304-.425-.685-.79-1.123-1.076.34-.765.651-1.529.944-2.304l-.652-1.369.624-.122 2.681 1.756 1.464-.142 1.189-.717.444-1.115c-.08-.669-.303-1.314-.653-1.891-.35-.576-.82-1.071-1.377-1.451l-1.785-.755-.689-1.313-1.038.52-.265-1.303 1.171-.369-1.624-1.803-1.482.179-1.275-.302-1.832 1.435-1.142-.292c-3.833 2.36-7.752 4.834-11.613 7.326l-3.777 8.432.066.434c.477-.559 1.03-1.048 1.643-1.454l.944-1.51-.161-.765c.297-1.215.955-2.312 1.889-3.144l.708.141.51-.547v-.557c1.615-1.526 3.141-3.143 4.57-4.844l.689.113.632-.944 1.237.501.633-1.152h.491l.642-.416-.652.416h-.491l-.632 1.152-1.237-.501-.633.944-.689-.113c-1.462 1.701-3.023 3.315-4.674 4.834v.557l-.509.548-.709-.142c-.933.833-1.591 1.929-1.888 3.144l.161.765-.945 1.511c-.612.406-1.165.895-1.642 1.454-.095 1.463-.246 2.917-.482 4.39l.859.085.822-.849.831.254c.881-.867 1.592-1.892 2.096-3.021l.887-.17 1.313-1.322c-.358-.561-.52-1.225-.463-1.888l1.397-1.888c1.254-.595 2.471-1.263 3.645-2.002l.302-.944 1.19-.944 1.444-.246.671.944-.218.671c-1.831.649-3.477 1.735-4.796 3.163.025.953-.313 1.881-.944 2.596l.51.548.094.774c1.373-.223 2.765-.302 4.154-.236l.482.746-1.142.566c-.52.037-1.036-.114-1.454-.425-.698-.02-1.395.063-2.068.246l-.265.727.265.51.33-.114c-.302.548-.623 1.077-.944 1.606l-.595-.067-.17-.991-.868.302c-.762.649-1.256 1.557-1.388 2.55l-1.171.198-.387.462.321.114c-.34-.076-.68-.151-1.01-.246l.066-.274-.633-.311c-1.05.179-2.083.448-3.087.802-.134-.407-.422-.746-.803-.944l-.548.236-.83.085.188-.387-.16-.094-5.118 11.387c.232.576.55 1.115.945 1.595l.509.142.161.396.397.227.047.397.255.16c0 .33 0 .661.094.944-.315.192-.56.48-.699.822h.331l.708-.642h.321l.283-.425-.387-.397.557-.491.567.236.226.463.265-.283v-.161c-.37-.513-.827-.957-1.35-1.312l.283-.142-.095-.217-.566-.085c-.21-.21-.367-.467-.459-.749-.091-.282-.116-.582-.07-.875l-.472-.567v-.491c.21-.18.345-.433.378-.708l.736-.226.51.226-.227.066-.16.321.075.34.397-.358.406.217-.132.311.16.435h-.17l.312.764c.478.364.929.762 1.35 1.19l.236.227.076.311.122.095.067.16c-.333.342-.562.771-.661 1.237l.273.349-.075.18.104.085.519-.35.161-.273-.161.264-.519.359-.057.245.246.321-.114.142c.053.161.097.325.132.491.222.038.449.038.671 0 .107.073.23.118.359.132l-.161.123c-.106-.033-.197-.103-.255-.198h-.17l-.104.085-.141-.048c-.105.078-.219.141-.34.189v.236h.094c.037.039.064.085.078.136.015.051.018.105.007.157l-.198.113v.246l.104.151h.085l.056-.199h.17v.52l.085.094.208-.293h.142v.312h.151l.104-.944.188.198h.255v-.453h.34l.236.321.189-.463c-.213-.21-.378-.464-.481-.746l.358-.141-.188-.444.066-.529.217-.17.189.501.406.066.425-.076-.284-.557.944-.085c.242.127.504.21.775.246l.217-.066.463-.501-.463.501-.217.066-.085.17.047.434c.423-.169.836-.361 1.237-.576l.878.094.227-.188-.501-.378c-.009-.119.01-.239.057-.349v-.529c.264-.405.646-.718 1.095-.897l.689-1.048.18.113.443-.132.085-.245c.512-.275.975-.632 1.369-1.058h.727l-.113.349c.404.078.785.246 1.114.491l.161-.075v.208l-.944.236-.208.16.67.397-.349.396.321.255c.65-.308 1.369-.444 2.087-.396l.283-.303-.765-.066c-.204-.192-.367-.423-.482-.679.396-.178.807-.321 1.228-.425l.699.056.623-.226h.613l.718-.047-.075.207-1.237.217.236.435-.944.67-.595.066c.585.68 1.095 1.303 1.643 2.021l.141-.095c.839.251 1.631.64 2.342 1.152v.18-.18c-.711-.512-1.503-.901-2.342-1.152l-.141.095.151.311.349.17.274.387-.085.623-.274.359-1.057.302c-.47-.201-.988-.263-1.492-.179-.702-.327-1.341-.774-1.889-1.322-1.1-.3-2.273-.175-3.285.35l-1.332-.34-.594.594-1.134-.151-1.161.68.283.472-.642.576c.171.19.296.416.365.662.069.246.08.504.032.755l.793.113.51.547h.538l.321-.302.765.151.396.529 1.143.085.699-.378.528.284h.472l-.415.255.104.406.236-.123c-.218.088-.41.232-.557.415l-.198.614c-.44.316-.837.687-1.181 1.105-.292.358-.613.708-.944 1.057v.047l-.33.218-.435.122c-.379-.039-.741-.18-1.048-.406l-.283.217v-.406c-.346-.188-.742-.264-1.133-.217-.334.168-.695.274-1.067.312-.718-.544-1.576-.872-2.474-.944l-.066-.284-.68-.207-.169-.17h-.274l-.095-.378-.944-.321h-.548l-.679.274-.397.33-.085.605c-.282.205-.603.35-.944.424-.607-.536-1.308-.955-2.068-1.236v-.727c-.412-.313-.871-.558-1.359-.727h-.331c-.338-.147-.656-.337-.944-.567v-.396h-.123l-11.443 25.436c.151.349.302.708.491 1.048-.024.241-.024.485 0 .727.178-.054.369-.054.547 0 .821-.138 1.664-.023 2.417.33-.753-.353-1.596-.468-2.417-.33-.178-.054-.369-.054-.547 0l-.123.122c.198.507.221 1.065.066 1.587l-.33.217-.104.132c-.102.367-.112.752-.029 1.124-.079.31-.224.6-.424.849-1.483.822-2.605 2.17-3.145 3.777.17 1.01.359 2.039.539 3.059-.924 2.355-1.004 4.957-.227 7.365l-.245.585-.303.104v.557l-.207.444v.255l.085-.104.151.406.245.047.18.331h.34l.576-.227c.527.023 1.054-.047 1.557-.208l.284.095h.481l.718.273.425-.084.387.179.189-.198c2.262-.525 4.385-1.533 6.222-2.956.405-.434.777-.898 1.114-1.388l.236-.368-.161-.075.066-.312 2.606-.793.236-.283-.113-.142c.281-.273.486-.615.595-.991H315c.155-.392.155-.827 0-1.218l.283-.472c2.09-.596 4.075-1.513 5.882-2.72.206-.91.523-1.791.945-2.624v-.312l-.208-.189c.027-.382.002-.767-.076-1.142.127-.14.209-.314.236-.501l.369-.358.056-.18-.359-.311.123-.369.689-.746.388-.16.339-.406.35-.217.302-.444h.293l.302-.236c4.202-1.446 8.007-3.855 11.113-7.034l.453-.944h-.274l-.444.17c-.483.056-.971.056-1.454 0-1.113.151-2.24.186-3.361.103-.083-.079-.146-.177-.183-.285-.038-.108-.05-.224-.034-.338-.145-.121-.284-.251-.416-.387l.482-.094.151-.265c-.547-.996-1.179-1.944-1.888-2.832.104-.495.104-1.006 0-1.501-.151-.18-.312-.35-.482-.52.012-.542.117-1.079.312-1.586l.217-.094c.104-.297.106-.62.005-.918-.101-.298-.299-.553-.562-.725l.179-.463.199-.094c-.459-1.491-.645-3.052-.548-4.608l.104-.056c-.109.621.019 1.261.359 1.793l.226-.103c.35-.399.722-.777 1.114-1.133v.103c-.217.312-.434.605-.661.945l.359.056c.199.58.322 1.183.368 1.794l.142.189v.406l-.113.151.056.444c.123.048.235.122.328.217.092.094.164.207.211.33l.066.841c-.179.271-.298.577-.35.897l.189.736.274.17.293.548c-.088.406-.058.828.085 1.218l.264.302-.066.283.123.236c.001.206-.044.409-.133.595l-.141.113-.066.321h-.161c.048.345.048.694 0 1.039l-.179.359v.415l.491.114.274-.057.349.075.189-.151h.207l.237-.141c.634.13 1.294.061 1.888-.199.167.081.354.111.538.085l.859-.358c.722-.03 1.439-.125 2.144-.284.08-.202.218-.376.396-.5l.604-.094c0-.576-.056-1.143-.094-1.719 0 .576.066 1.143.094 1.719.321.05.65.004.945-.133l.377.133.435-.133.113-.273.359-.123.453.075.226-.113.218-.321.566-.179.331.056.113-.066.113-.472.274-.33.227-.142.311.094.482-.424.406-.17c.207-.189.425-.369.651-.548l.066-.161-.217-.122c-.085-.246-.16-.482-.236-.718-.265-.169-.555-.297-.859-.378l-.293-.321-.104-.538c.141-.26.184-.561.123-.85l-2.115 1.134c-.528-.164-1.082-.228-1.633-.189l.056-.199h-.122v-.292c.26-.204.443-.49.519-.812l-.113-.255-.236.047-.359.34-.189.519c-.024-.144-.024-.29 0-.434l-.123-.236v-.255l.18-.227.094-.302-.359-.387v-.274l-.283-.226v-1.266l.142-.16v-.349l.415.103.397-.245.349.321.444-.057c.002.639.091 1.274.264 1.889l.604.321.482.67.774.387c.482-.183.995-.272 1.511-.264l.283.179-.085.944c2.035.825 4.206 1.261 6.402 1.284.143.157.246.347.298.553.053.206.054.421.004.628.268.124.508.302.705.523.196.221.345.48.437.761l-.463.198.576.991.473.161 1.236-.236c-.815 2.851-1.11 5.825-.868 8.781l.415.717.368-.141.444-.397.746-.075-.123-.255.557-.444h.388l.5-1.114.585-.567c.198-.465.35-.949.454-1.444l.443-.472c.525.007 1.048-.07 1.549-.227l.141-.302c1.327-.621 2.689-1.163 4.079-1.624l.567-.34.189-.519c.482-.059.972-.03 1.444.085l.227-.236c.148.051.288.124.415.217l.17-.104.236.189.406-.35.066-.302.652.142c-.039.749.064 1.498.302 2.209l.378.151-.199.236c.131.232.207.49.222.755.014.265-.032.531-.137.775l-.623.793c.221.174.48.293.755.349.57-.161 1.128-.36 1.672-.594.005.778-.1 1.554-.312 2.303l.142.387-.378.709.066.424-.444.473-.151.491c-.282.288-.535.605-.755.944v.387l.293-.368c.16.264.302.528.434.802v.34l.17.293.179-.095.463.378-.463-.378-.179.095v.302l-.293.453.104.397-.142.547.227.501-.066.34c.405.377.775.791 1.105 1.236l.528.048.114-.218v-.613l-.18-.217c.09-.196.142-.408.151-.624.196-.198.324-.452.369-.727-.035-.342-.162-.668-.369-.944l-.141-.094-.35.226.35-.226-.217-.397-.406-.141-.236-.444c.128-.393.161-.81.094-1.218l-.463-.104.161-.472c.682-.618 1.257-1.345 1.699-2.153l.642.104-.34.501.624.085.519.405c-.036.389.032.78.198 1.133l.567.189.368.463-.406.406.075.463c1.152-.51 2.285-.945 3.456-1.379l1.105-2.577c-.518-.885-.906-1.839-1.152-2.833l.378-.444c.632-.463 1.356-.785 2.124-.944l-.651-.302-.218-.34.293-.378-.604-.236-.227-.321.227.321.613.236-.302.378.218.34.651.302.397-.057.17.076 29.335-65.195-.425-.152zm-38.654 81.955l.538-.765-.17-.472-.501-.141c-.114-.279-.114-.591 0-.869l-.245-.057-.321-.292.529-.473-.416-.387c-.051-.441-.262-.848-.595-1.142l-.727-.132c-.453-.812-.944-1.605-1.378-2.399-.498-.169-1.006-.308-1.52-.415l-.085.34c.419.572.738 1.21.944 1.888l.472.51c.052.376.052.757 0 1.133l1.133 3.22c.469.336.837.793 1.067 1.322l.803.113.472-.982zm-14.531-12.152l-.803 1.001-.283.944.113.567c.369.043.742-.019 1.077-.179l.415-.652c.022-.423-.039-.846-.179-1.246l-.34-.435zm15.815 13.833c-.287-.071-.547-.226-.746-.444l-.859-.189-.775.538.642.161v.292l1.2.491h.405l.255-.566h-.122v-.283zm-29.015-97.685l-1.133.944.765 2.02h.944l1.435-2.37.897-.462 1.454-2.266 2.408-1.01c-.744-1.386-1.266-2.88-1.549-4.428h-1.123l-.84 1.208-1.049-.122.18-1.35-2.342.944-.623 1.388c-.378 1.461-.404 2.992-.075 4.466l.651 1.038zm.746 70.247c.16-.091.283-.235.349-.406l-.056-.076-.321.208.028.274zm-20.649-30.469l.85-.849v-.614l-1.237.208-.114.49.501.765zm4.475 55.631c.052-.375-.011-.756-.179-1.095l-.368.255-.199.387-.604.397-.274-.133v.302l-.368.303c-.476.153-.933.362-1.36.623l-.321-.047c-.374.12-.77.158-1.161.113-.162.309-.408.567-.708.746-.228.441-.317.942-.255 1.435l-.264.425-.576.462-.114.227-.387.066c-.46.799-.704 1.703-.708 2.625l.793.604c.462-.163.946-.256 1.435-.274 1.483-1.661 2.89-3.389 4.174-5.117l.273-.123.189-.274.085-.519.227-.179.066.434c.185-.119.335-.285.434-.481-.053-.195-.065-.399-.036-.599.029-.2.099-.391.206-.563zm1.832 29.732l-.33-.387c-.286.327-.507.705-.652 1.114l1.142.123.406-.425.067-.189-.633-.236z"/>
    <path fill="#000" d="M323.753 132.912l-.113-.142-.217.481.33-.339z"/>
    <path fill="#fff" d="M409.926 291.25l-59.993-47.341 78.083-173.55L488 117.702 409.926 291.25z"/>
    <path fill="#D2749B" d="M408.001 284.414L351.7 239.981l74.552-165.693 56.301 44.433-74.552 165.693z"/>
    <path fill="#60EABF" d="M402.742 246.165l.246.321c-.221.369-.513.69-.859.945l-.425-.369-.265.132-.113.406c-.378.237-.755.482-1.123.737h-.595v-.302l-.18-.312.642-.444v-.613l-.462-.822.151-.283h.547c.279-.317.48-.696.586-1.105v-.727l.085-.132c-.206-.766-.292-1.559-.255-2.351l.245.113.114.68.349.557c-.182.655-.221 1.341-.113 2.011l.255-.547.16.425-.189.679c.144.388.385.733.699 1.001h.5zm-3.578 1.483v-.491h-.567c0-.312 0-.614.067-.944l-.576.075-.303.406-.321.047c-.381.335-.841.565-1.338.67-.496.104-1.011.078-1.494-.075-.65.048-1.263.318-1.737.765l-.057.415.595.557.226.605.52.434 1.048-.094c.426-.34.815-.723 1.161-1.143l.642.047.453.34v-.595c.54-.15 1.05-.389 1.511-.708l.17-.311zm47.52-81.596l-1.444-1.492-.406 1.294-.208-.709.51-.944c-.562-3.149-1.658-6.179-3.239-8.96-1.205-.641-2.191-1.627-2.832-2.832l-.633.632-.066 1.539h-.944l-.274-2.398-1.18-.661c-.28-.566-.688-1.059-1.191-1.44-.503-.382-1.087-.642-1.708-.76l-.472-1.086.699-1.331-.123-1.18-.991-1.228-2.483-1.454-.812-2.719.066-1.624-4.551-5.486-1.18.34-.463 2.257-.812-1.02-.68.236-.821-1.51-1.228-.218-.51-1.652-1.501 1.681-.538-1.52v-2.181l.736-.624.359-1.595-.387-1.889c-.821-.513-1.497-1.228-1.964-2.077l-.802 1.7-2.257-2.229.34-1.161-1.671-1.832-1.086-.368-.51.397.368-1.709h-.717c-.286-.764-.67-1.488-1.143-2.153 1.253-.385 2.54-.651 3.843-.793l.746-1.237c.123-1.298-.116-2.605-.689-3.777l-1.303-1.057-29.336 65.195.538.661-.254.161-.076.613.34.218.519-.576c.479.343 1.032.569 1.615.661l.481-.095.095.387h.491l.679.435c.845.11 1.703.039 2.518-.211.814-.249 1.565-.67 2.203-1.234l.35.189c.298-.298.555-.635.764-1.001l-.226-.491v-.51l.453.076.264-.548c-.192-.933-.208-1.894-.047-2.832l-.425-.945.548-.321.736.048.463-.227.944.425.095-.501-.359-.311-.368-.727-.944.075-.35-.594.142-.378-.406-.51-.047-.793.462-.151.586.396c.662-.334 1.423-.418 2.143-.236l.104.68-.718.208v.425l-.481.141c.191.13.409.217.637.252.229.036.462.021.685-.044l.944.387.17.435.292.358v.17l-.349.331v.189h-.179l-.321.236c.045.159.118.31.217.443l-.057.17.198.066.142-.094.208.368.085 1.011-.491-.208-.114 1.038c-.281.24-.46.577-.5.945l.548.339c.418-.045.839.059 1.189.293l.406-.255c.311-.591.483-1.245.502-1.913.02-.667-.113-1.331-.388-1.939h.113l.142-.321c.133-.038.274-.045.411-.023.137.023.267.076.382.155.172-.024.341-.071.5-.141h.378l.255-.633c.209-.132.444-.218.689-.255l.189.227c-.011-.347-.058-.692-.142-1.03.084.338.131.683.142 1.03l.226-.218h1.058l.17.709.368.273c2.199-.148 4.31-.925 6.08-2.237.649-.776 1.177-1.645 1.568-2.578l.944-.68.387-.944-.293-1.888-.594-.567-.614.255-.444-.68v-.944l-.84-.859c2.127-.585 4.242-1.215 6.345-1.888 1.465.544 2.753 1.481 3.72 2.709l.991-.056.803.897-.454.878c.752.494 1.548.914 2.38 1.256l-.132-1.152 2.436-1.077 1.69.708-.274 2.144 2.115-.321.859-.859.746.434-1.331 1.558c-1.683.227-3.313.748-4.816 1.539l-1.01-.435-.283.548-.803.321c-1.354 1.976-2.171 4.27-2.37 6.657l1.256-.312.661-.944.944.415.765-1.086 1.256.218v-.671l.67-.765.557.378.85-1.662-.529-.783.198-.51c.374-.095.725-.263 1.033-.495.309-.231.567-.522.761-.855l.69.783.802-.122v.689l1.955.16.415 1.549.482-.425c.841-.08 1.677-.213 2.502-.397.818.415 1.742.576 2.653.463l.944 1.152.321-.255.198-.633c.047-1.089.028-2.18-.056-3.267l.689.699c.297.058.605.044.895-.041.291-.086.557-.24.776-.45l.066-.944.859.161-.387.491.066.793.746.311.463.718-.17.765c.417.551.68 1.202.765 1.888l.519.463.368-.123.69-1.483 1.01.576.878-.236-.416-2.275zm-45.018 63.656c-.236-.889-.536-1.759-.897-2.606l-.236-.207c.046.998.335 1.97.84 2.832l.293-.019zm7.752 1.804l-.227-.293-.321.057-.085.34.283.339.397.189.255-.283-.113-.349h-.189zm-5.816-5.42l.226.066-.189-.67-.103.16.066.444zm6.345 5.051v.312c.306.116.622.204.944.264l.217-.264c-.173-.096-.371-.136-.567-.113-.18-.109-.384-.171-.594-.18v-.019zm-28.836-53.959l.312-.293.387-.104v-.359c-.275-.298-.639-.5-1.039-.576l-.273.057-.331.727.312.482.632.066zm-4.843 20.045c-.277-.693-.741-1.294-1.341-1.738v-.585l-.944-1.152-.246.17-.944-.85-.255.567c.944 1.142 1.983 2.256 2.993 3.314l.737.274zm2.974-18.421c.005-.032.005-.063 0-.095l-1.18 2.635h.311c.557-.733.873-1.62.907-2.54h-.038zm4.353 7.808c-.558.113-1.104.274-1.634.482.705.002 1.408-.093 2.087-.284l.141-.613-.594.415zm23.16-14.625l-.585.453-.312.944.642.491.746-.708.633 1.312.897-.472.944.425.33-1.095-.585.057c-.549-.774-.851-1.696-.869-2.644-.473.51-.879 1.078-1.208 1.69l-.633-.453zm-21.716 27.296l-.302.245c.656.393 1.192.958 1.548 1.634v-.661c-.302-.504-.727-.924-1.236-1.218h-.01zm18.808-23.283l-1.208.151-.208-.69-1.237.945-.538-.643-1.256-.67c-.436.228-.941.285-1.416.161l-.52.245-.651-.189v.708l.264.51-.443.576.141.51h.52l.944-.991-.331-1.029.68.519c.696.056 1.357.33 1.888.783l-.245.605.255.595 1.218-.236c.484.546 1.161.884 1.888.944l.557-.321.076-.472c.227-.15.422-.344.571-.571.149-.228.251-.483.297-.751l.945-.416c.381-.627.568-1.353.538-2.086l-.68-.321-.482.34-.33 1.029-.812.727-.425.038zm7.393-11.689c-.592 2.1-1.382 4.139-2.36 6.09l.708-.425.179.944.312-.642-.123-1.416.944-1.124.708.991c.244-2.211.706-4.394 1.379-6.514l-.331-.048v.69l-.755.075-.661 1.379zm-24.983 32.045l.113-.387-.292.085-.35.425c-.202.486-.255 1.022-.151 1.539l.199.047-.085-.519.264-.321.264.292c.193-.242.314-.533.35-.84l-.312-.321zm-7.638 4.353l.113-.151c-.066-.28-.174-.547-.321-.794l-.595-.292.557 1.057.246.18zm1.482-5.93l-.434.236v.586l.245.188-.198.699-.425.463.161.377.406.199c.245-.567.472-1.143.679-1.728l.472.104-.33.595.245.698-.188.189.066.293.68.198-.52.312.123.406.397.047.188-.416-.179-1.151.208-.142-.17-1.256.613.151.416-.179.208.293.179-.255-1.161-.633-.444.047-.255-.944.293-.425c.772.385 1.456.925 2.011 1.586l.491.218.746-.274v-.217h-.775c-.69-.434-1.277-1.014-1.718-1.7-.344-.009-.682.081-.977.258-.294.177-.532.435-.685.743l-.368.434zm18.95-17.713l.377.057.123.434.529-.217.047-.321-.34-.5-.387.141-.283-.349-.529.208-.17.368.274.51.359-.331zm-17.099 25.257c.316.154.669.216 1.019.18l-.179-.255-1.19-.595-.132.094-.689-.189c-.118.02-.231.064-.33.131-.1.067-.184.154-.246.257v.132l.557.245.595-.189.595.189zm15.106 8.309l-.094-.047-.227.236c-.329-.151-.607-.394-.802-.699l-.142.17c.215.48.538.904.944 1.237l.746.17.17-.113.321.188.369-.245.179-.349-.076-.189-.349-.265-.104.435c-.23-.066-.476-.043-.689.066l-.349-.208.103-.387zm48.154-55.376l.802.472h.803l.179-.236-.576-1.237-.481-.387-1.218.293-.189.708.68.387zm-41.497 69.133l-.217.519v.245l.132.057.113.208.151-.614-.179-.415zm27.834-91.359l1.105-.453c-.614-1.053-1.295-2.066-2.039-3.031l-.51.718.623 1.822.821.944zm-6.061-1.756l-.945.472.048.198c.525.742 1.181 1.382 1.935 1.889l.199-.652-.416-1.52-.821-.387zm-26.806 79.613c.042.274.026.554-.047.821h.265l.075-.396c-.157-.665-.415-1.302-.765-1.889h-.226c.249.308.43.665.529 1.048l.169.416zm-11.33-6.241l.501-.208.132-.302v-.293c-.151.077-.293.169-.425.274l-.208.529zm7.95 5.561l-.774-1.152.085-.444c-.48-1.335-1.197-2.572-2.115-3.654-.505-.532-.934-1.133-1.275-1.784l-.509-.406-.831-.132-.784.302-.425-.85c.209-.466.319-.971.321-1.482l-.802-.992h-.387l-.841-.453.095.51.462.519.057.567.84.661v.207c-.288-.328-.689-.536-1.123-.585l.292.661-.122.274v.34l.245.122.312-.179.595 1.275c.597.502 1.05 1.153 1.312 1.888.087.529.041 1.07-.132 1.577l-.444-.104-.482.34.737.548.227-.067.528.586.265.944c.345.221.638.514.859.859l.547.132.142-.538c.354.021.7.111 1.02.265l.623.878c.004.751.161 1.493.463 2.181.333.352.664.692.991 1.019l.066.284.406.255.142-.142-.482-.755h.227l-.397-.454.161-.273-.34-.236-.066-.945-.321-.83.066-.529.566.34v-.548zm-17.533-11.83l-.123-.34-.255.113-.321-.246-.368.218c.454.342.945.633 1.463.868v-.387l-.396-.226zm48.786-69.785l2.086 1.738 1.294-1.52-1.445-3.041-1.463-1.312-.945-.095-1.114 1.539.416 2.521 1.171.17zm-45.227 59.238c-.334.251-.743.384-1.161.378-.311-.07-.633-.07-.944 0-.354.162-.724.285-1.105.368-.303-.245-.664-.407-1.048-.472l-.359.453-.5-.236-.321-.548-.529.161c-.206.264-.355.569-.438.894-.083.325-.098.663-.043.994l.207.397-.302.944c.223.293.506.535.831.708l.066.482.793.302.189.434.397.359v.576l.783.226v.293c.427-.394.751-.887.945-1.435h.755l.236-.604.387-.284.718.463-.378-1.105.236-.217-.151-.944.585-.321.52.113v-.396l.406.274.151-.218c-.246-.339-.472-.689-.689-1.057l.103-.302-.151-.557-.189-.123zm10.906 38.711c.178-.347.268-.733.264-1.123-.141-.731-.324-1.453-.548-2.162l.237-.812h-.189l-.104-.482h-.293l.113-.944-.132-.689.151-.114c-.259-.719-.575-1.417-.944-2.086v-.614l.208-.302.104-.699-.104-.198c.047-.359.113-.715.198-1.067l.189-.255c-.127-.299-.201-.619-.217-.944h-.482v-.689c.127-.187.211-.4.246-.624l-.057-.5.104-.302-.104-.189.142-.444v-.443l-.321.075c-.171.276-.4.511-.671.689v.293l-.17.047c-.234.231-.375.54-.396.869l-.132.16-.066.378c-.388.415-.775.803-1.171 1.19l-.482-.076-.453-.661v-.274l-.227-.406-.16-.132c-.288-.85-.642-1.677-1.058-2.473v-.227c.236-.095.461-.215.671-.359l.056-.321.199.132c.124-.008.246-.04.358-.095.111-.055.211-.132.293-.226l-.113-.538h-.189l-.198-.227-.416-.075-.264-.482-.198-.066c-.327-.49-.626-.997-.897-1.52l-.35-.141.331.547-.142.34-.538-.255-.264-.311h-.444l-.425.179v.236h-.34l-.51.321-.047.463c-.201-.243-.433-.459-.689-.642-.053-.454-.201-.892-.434-1.284-.199-.085-.406-.17-.614-.236l-.085.16-.217-.274-.085.18-.34-.114c-.205.159-.459.239-.718.227l-.302.453-.189-.34-.321.18.057.481-.302-.057v-.774l-.661.255c-.095.209-.206.411-.331.604l-.491.076-.302.246-.453.056c-.385-.059-.739-.249-1.001-.538l-.179-.057-.161.076c-.276-.194-.606-.296-.944-.293l-.123-.208c-.59-.186-1.203-.291-1.822-.311l-.453.283.198-.557-.462.312-.123.453-.236.283-.199.085-.245.359v1.369l-.161.368-.047-.406-.189-.434-.103.821-.114-.51c-.094.395-.094.805 0 1.2l-.179.623.123.491-.085.226v.661c-.198 1.089-.515 2.153-.945 3.173l-.179.094-.33-.123-.208.444c.288.415.499.879.623 1.369.277.204.542.425.793.661.258-.024.517-.024.774 0l.151.161.529-.142c.267.203.555.377.859.519l.444.538c.319.155.617.349.888.576.134-.026.261-.081.372-.16.11-.08.203-.183.27-.302.422.21.888.317 1.359.311l.529.482c1.038.191 2.018.621 2.861 1.256l.387.802.397.34.528 1.048-.188.094c.178.435.274.899.283 1.37l-.208.396.302.67.501-.443c.214.04.434.037.646-.01.213-.047.414-.137.59-.264l-.207.614c-.151.039-.29.112-.408.213-.118.102-.211.229-.272.372l-.5.198.575.255.529-.321-.123.689-.358.236.5.529.142.548c-.013.411-.086.818-.217 1.208l.141.793c.491.652.944 1.303 1.416 1.993l.775-.199.377.095-.283.359c.275.344.48.738.604 1.161.513-.161 1.056-.199 1.587-.113l.661.481h.453c.633-1.074 1.501-1.991 2.54-2.681h.594c.843-.838 1.561-1.792 2.134-2.833v-.831l.246-.491zm-8.101 8.498l-.888-.312c-.172-.419-.433-.796-.765-1.104l-.188.377c-.076.944-.133 1.747-.17 2.682.176.117.325.272.434.453l.68-.302.085.396.377-.661.331-.141.425-1.058-.321-.33zm16.051-20.451c.033.287.133.562.292.803l.133.056c-.099-.321-.215-.636-.35-.944l-.075.085zm-.472-1.416l-.114-.283v-.246h-.113c-.141.545-.102 1.122.113 1.643l.189.066.161-.123c-.152-.308-.233-.647-.236-.991v-.066zm2.502 6.269l-.265-.425v.567l.397.321-.057-.35-.075-.113zm.113-.661c-.103-.385-.123-.787-.057-1.18l-.198-.151c-.103.463-.063.947.113 1.388l.142-.057zm-.699-.727l-.33-.396-.151.226.075.198c.151.203.34.373.557.501v-.246l-.151-.283zm0-.944v-.321c-.17-.349-.34-.689-.528-1.029h-.161c.155.522.374 1.023.652 1.492l.037-.142zm-16.287-31.29l.095.519.415-.453-.094-.387-.482-.416.066.737zm.359 1.01v.378c-.144.185-.25.397-.312.623.273.108.577.108.85 0l.132-.264-.368-.284-.302-.453zm.312 1.143l-.246.349c-.142.04-.281.091-.415.151l.151.737c.311-.142.613-.265.944-.378l.33-.576-.708.293.293-.369-.349-.207zm-5.779 12.519l.246-.292c-.376-.036-.734-.18-1.029-.416l-.265-.481-.519-.227-.104.246c.433.582 1.027 1.025 1.709 1.274l-.038-.104zm3.446-2.067v.368l.35.425h.311l-.047-.331-.614-.462zm4.183-10.141l-.047-.368-.548-.444.123.774-.104.255-.311-.321-.085.472.151.17-.18.473.34.075c-.03-.255.013-.514.123-.746l.368.519.17-.859zm-2.238-4.673c-.072.314-.049.643.067.944l.179-.18.104.293h-.255l-.151.246.217.377.566.312.189.68.255-.123.057.51.302.68.198-.255-.122-.312.217-.312-.548-.944-.293-.122-.264-.312.104-.633.33-.462.444.047.397-.444v-.632l.217-.208v-.217h-.265l-.264-.472-.349-.274c-.463.383-.807.891-.992 1.463l-.132-.396-.208.746zm2.984-4.457c.414-.367.796-.768 1.143-1.199l-.17-.425c-.506.043-.982.256-1.351.604l-.17.567v.831l.548-.378zm-2.927 10.49c-.293.026-.589-.01-.868-.104l-.463.368v.265h.585l.255.236.302-.123.227.595-.312.17-.047.595.501.944.302-.17v-.623l.415-.114-.085.822.463-.435c.16-.491.311-1 .434-1.51l-.33-.671-.189.529-.416-.302-.226.217-.51-.17-.038-.519z"/>
    <path fill="#89497F" d="M342.872 45.765c-6.317 6.495-102.557 105.832-104.804 107.541l-13.219 29.27 53.941 49.692 78.084-173.55-14.002-12.953z" opacity=".2"/>
    <path fill="#804983" d="M349.934 243.909l-54.573-8.932 119.75-166.732 12.907 2.115-78.084 173.549z" opacity=".2"/>
    <path fill="#3D8ED1" d="M221.302 210.732c.311.133.646.2.984.195 1.138 0 1.802-.736 1.802-1.88 0-1.228-.728-1.928-1.824-1.928-.325-.005-.647.061-.943.195l-.145-.493c.159-.083.526-.208 1.108-.208 1.451 0 2.442.992 2.442 2.455 0 1.532-.991 2.365-2.309 2.365-.569 0-1.013-.111-1.234-.222l.119-.479z"/>
    <path fill="url(#prefix__paint1_linear)" d="M183.959 91.88h-9.557v.326h9.557v-.325z" opacity=".18"/>
    <path fill="#F2C9AD" d="M179.936 245.321l30.105 19.543h11.729l20.898-23.572s25.101-10.137 30.335-13.85c-.139.208.425-.3 0 0 1.841-2.761-35.63-31.962-35.63-34.497s-.346-21.525-.229-23.136c.117-1.611 3.51-15.534 1.42-22.439 0 0-2.224-7.521-6.905-6.293 0 0-.589.052-.589 1.132 0 .064 0 .127.006.2.02.276.06.55.12.821.463 2.07-1.073 9.67-2.069 11.741-.996 2.071-3.603 5.985-4.223 9.361-.619 3.377-3.223 13.428-4.219 16.039-.996 2.611-3.686 7.059-4.068 9.516-.383 2.457-.921 9.054-2.225 11.509s-5.104 15.268-8.557 19.416c-3.453 4.147-25.899 24.509-25.899 24.509z"/>
    <path fill="#E9AB86" fill-opacity=".28" d="M181.46 243.932l11.347 3.973s17.67-18.97 23.962-23.573c6.292-4.604 2.456-21.026 3.377-24.714.92-3.688.766-11.509 3.068-15.026 2.302-3.517 2.609-11.519 3.07-15.205.46-3.685 2.456-6.445 4.787-14.581 2.286-7.963.101-12.231 0-12.41.019.276.06.55.123.819.46 2.072-1.075 9.669-2.072 11.742-.997 2.073-3.603 5.985-4.221 9.362-.619 3.378-3.224 13.428-4.221 16.037-.997 2.609-3.683 7.061-4.068 9.517-.385 2.456-.921 9.054-2.224 11.509-1.303 2.455-5.104 15.27-8.557 19.416-3.453 4.145-24.371 23.134-24.371 23.134z"/>
    <path fill="#E9AB86" fill-opacity=".36" d="M237.141 169.811s-2.23 9.768-2.382 14.789c-.151 5.021-3.719 10.328-4.524 16.938-.806 6.609 3.241 24.067 6.973 25.87 3.732 1.804-.067-57.597-.067-57.597z"/>
    <path fill="#EEA886" fill-opacity=".37" d="M226.067 260.017l16.599-18.724s25.103-10.139 30.335-13.85h-18.248s3.684 1.764-1.036 4.641c-4.719 2.878-21.759 5.871-22.791 8.861-1.032 2.991 8.723-2.222-4.859 19.072z"/>
    <path fill="url(#prefix__paint2_linear)" d="M180.083 246.857l39.42 28.456s-34.492 54.251-63.957 82.361c-35.08 33.468-103.53 68.521-103.53 68.521L0 339.169s53.176-19.144 92.528-37.511c34.076-15.905 82.109-50.307 82.109-50.307l5.446-4.494z"/>
    <path fill="url(#prefix__paint3_linear)" d="M104.531 394.186l25.508 106.031s88.402-42.176 107.785-51.415c34.805-16.587 102.584-161.889 102.584-161.889l-34.999-20.236c-1.743-1.536-3.984-2.388-6.307-2.397 3.753 2.397 1.505 3.23-.251 4.751L189.28 364.677l-84.749 29.509z"/>
    <path fill="#F2C9AD" d="M376.061 246.426c-2.251 2.701-7.18 5.847-8.52 7.917-1.34 2.069-6.839 6.179-9.106 7.879-1.734 1.308-23.428 20.858-24.917 22.721 0 0-25.785-18.331-25.883-19.454-.097-1.123 4.54-19.79 5.385-25.457.844-5.667 0-10.954.293-15.532.27-4.286 1.092-15.294.978-17.871-.113-2.577.458-10.935.247-13.002-.211-2.066-1.656-6.663-1.656-6.663-.268-1.048 1.343-4.325 5.209-3.005.164.052.327.12.497.187 4.228 1.784 8.581 13.337 8.017 16.722-.565 3.385-.41 11.561.046 13.293.456 1.733 1.929 5.915 6.109 4.15 1.144-.481 2.763-1.494 4.528-2.731 4.618-3.242 10.214-8.013 10.796-8.788l.023-.031c.622-.921 10.377-12.672 12.283-15.747 1.905-3.074 16.802-26.091 17.98-27.388 1.522-1.675 2.901-2.527 5.319.799 2.274 3.114-4.436 14.984-5.175 16.402-.738 1.418-6.349 13.089-7.636 16.45.151-.148.311-.287.48-.415l.003-.004c.82-.648 2.592-1.784 4.642-1.435.362.065.717.164 1.06.296 2.724 1.016 4.905 4.712 4.182 6.649-1.148 3.083-4.706 7.539-4.706 7.539s2.776-2.909 5.443-1.96c.09.033.177.051.254.084 1.542.724 5.055 3.799 2.837 7.63-2.217 3.831-3.625 5.513-3.625 5.513s3.533-1.297 5.425.571c1.891 1.869 2.529 5.407-.834 9.151-3.362 3.744-8.511 13.768-9.978 15.53z"/>
    <path fill="#CF9174" fill-opacity=".29" d="M380.592 222.318s-6.305 7.971-6.803 10.411c-.636 3.103-.112 2.481-.112 2.481s5.541-8.557 6.78-10.288c1.277-1.776 1.52-3.174.135-2.604zM376.551 209.903s.305 1.106-1.093 3.355c-1.397 2.248-6.982 9.775-6.982 9.775l-1.754-1.758s.663.689 1.593-.414c1.531-1.819 7.739-10.306 8.236-10.958zM370.871 197.284s-10.675 16.835-12.165 17.351c-1.49.517-1.512.208-1.512.208s1.622 1.108 2.342 1.465c.719.357 13.83-19.126 11.335-19.024z"/>
    <path fill="#E3A080" fill-opacity=".28" d="M337.288 215.577c-.149.197-13.492 17.284-12.267 13.616 1.233-3.688-2.828-18.168-2.595-21.4.232-3.232 1.14-9.375-.529-15.671-1.68-6.339-3.802-8.168-3.802-8.168.162.055.328.118.497.189 4.225 1.785 8.582 13.337 8.015 16.721-.567 3.383-.409 11.559.046 13.292.455 1.734 1.927 5.917 6.11 4.153 1.144-.482 2.763-1.496 4.525-2.732z"/>
    <path fill="url(#prefix__paint4_linear)" d="M376.949 172.275s3.056 1.491 3.992 2.487c0 0 4.708-8.596 3.102-10.414-2.69-3.048-3.267-.478-7.094 7.927z"/>
    <path fill="url(#prefix__paint5_linear)" d="M314.583 195.696s2.897-.522 4.349-.603c1.452-.082-1.743-12.194-5.248-10.757-3.022 1.236.899 11.36.899 11.36z"/>
    <path fill="#715DAA" d="M174.512 249.342l44.994 32.991 12.136-17.631-5.724-4.351-37.146-24.69-14.26 13.681zM290.889 270.479l46.969 30.114 8.505-19.404-3.48-2.936-37.737-21.107-14.257 13.333z"/>
    <defs>
        <linearGradient id="prefix__paint0_linear" x1="308.091" x2="262.078" y1="196.127" y2="287.154" gradientUnits="userSpaceOnUse">
            <stop offset=".057" stop-color="#FBE7D5"/>
            <stop offset="1" stop-color="#FBE7D5" stop-opacity="0"/>
        </linearGradient>
        <linearGradient id="prefix__paint1_linear" x1="183.959" x2="174.402" y1="92.044" y2="92.044" gradientUnits="userSpaceOnUse">
            <stop stop-color="#D5E4FF"/>
            <stop offset="1" stop-color="#EDFFFE"/>
        </linearGradient>
        <linearGradient id="prefix__paint2_linear" x1="197.58" x2="48.514" y1="254.92" y2="374.679" gradientUnits="userSpaceOnUse">
            <stop stop-color="#5F4B97"/>
            <stop offset="1" stop-color="#5F4B97" stop-opacity="0"/>
        </linearGradient>
        <linearGradient id="prefix__paint3_linear" x1="299.542" x2="130.039" y1="291.629" y2="427.696" gradientUnits="userSpaceOnUse">
            <stop stop-color="#5F4B97"/>
            <stop offset="1" stop-color="#5F4B97" stop-opacity="0"/>
        </linearGradient>
        <linearGradient id="prefix__paint4_linear" x1="-659.906" x2="225.101" y1="14007.8" y2="13249.5" gradientUnits="userSpaceOnUse">
            <stop stop-color="#DE9C7D"/>
            <stop offset="1" stop-color="#FFE0D1"/>
        </linearGradient>
        <linearGradient id="prefix__paint5_linear" x1="-1866.42" x2="-1920.19" y1="18081.6" y2="16511.6" gradientUnits="userSpaceOnUse">
            <stop stop-color="#DE9C7D"/>
            <stop offset="1" stop-color="#FFE0D1"/>
        </linearGradient>
    </defs>
</svg>
