<svg xmlns="http://www.w3.org/2000/svg" width="526" height="376" fill="none" viewBox="0 0 526 376">
    <path fill="url(#prefix__paint0_linear)" d="M76.207 170.76c48.972-38.871 82.986 7.726 92.233-13.157C232.131 13.928 310.927 13.768 339.123 32.343c44.942 29.61 27.181 116.946 68.828 94.995 32.906-17.347 94.248 15.893 42.847 87.23-37.777 52.415 18.255 18.148 52.589 55.07 18.134 19.496 8.006 77.248-23.886 99.653H40.819S-8.834 238.267 76.207 170.76z"/>
    <path fill="url(#prefix__paint1_linear)" d="M40.819 369.291H479.5c23.298-16.387 34.974-51.681 32.479-77.088-50.12-32.506-119.642-64.585-205.497-72.057-141.766-12.317-240.404 48.718-279.729 78.876 1.473 23.953 6.205 47.594 14.065 70.269z"/>
    <path fill="#BD5983" d="M262.729 376c145.101 0 262.729-3.005 262.729-6.712s-117.628-6.712-262.729-6.712S0 365.581 0 369.288 117.628 376 262.729 376z"/>
    <path fill="url(#prefix__paint2_linear)" d="M391.818 202.822c-.231 3.039.214 6.092 1.303 8.939 1.089 2.847 2.795 5.418 4.995 7.527 2.607 2.381 5.805 4.017 9.261 4.737 4.27 1.735 8.847 1.335 13.344.761 3.148-.198 6.211-1.11 8.954-2.669 1.222-.812 2.171-1.973 2.723-3.332.552-1.359.682-2.853.372-4.287-.32-1.975-1.054-3.857-1.334-5.831-.289-2.417.051-4.867.988-7.113 1.267-3.402 3.162-6.672 3.696-10.248.475-3.27-.129-6.605-1.722-9.501-1.521-2.775-4.003-4.87-5.751-7.432-1.342-1.72-2.019-3.866-1.908-6.045.287-1.975.867-3.895 1.721-5.698 1.055-2.669 2.082-5.698 1.081-8.54-.457-1.196-1.303-2.203-2.402-2.859-1.099-.656-2.387-.923-3.656-.757-3.389.253-5.991 2.668-8.313 4.977-2.669 2.535-5.231 5.191-6.405 8.727-1.255 3.843-1.014 8.006-2.402 11.809-1.486 3.409-3.534 6.544-6.058 9.274-2.266 2.52-4.261 5.27-5.952 8.207-1.498 2.903-2.363 6.091-2.535 9.354z"/>
    <path fill="#804983" d="M415.477 190.748s-5.445 35.922-5.338 52.362l-4.604.16s5.124-30.464 8.794-52.695l1.148.173z"/>
    <path fill="#804983" d="M412.674 205.439s4.751.214 9.341-4.804l.734 1.161s-5.257 5.191-9.794 6.499l-.281-2.856z"/>
    <path fill="url(#prefix__paint3_linear)" d="M93.047 121.415c2.324-3.284 5.746-5.627 9.647-6.606 3.902-.979 8.025-.529 11.623 1.268.997-3.74 3.249-7.025 6.378-9.303 3.13-2.278 6.948-3.411 10.813-3.209 3.866.202 7.545 1.726 10.421 4.317 2.875 2.592 4.773 6.093 5.375 9.917 1.467-.648 3.053-.979 4.657-.974 3.079 0 6.032 1.223 8.209 3.4 2.177 2.177 3.4 5.13 3.4 8.209H47.318l45.73-7.019z"/>
    <path fill="#fff" d="M403.814 256.44c-11.183 5.178-.507 20.336 9.968 22.004 10.475 1.668 18.895-35.335-9.968-22.004z"/>
    <path fill="#FBDDBC" d="M408.925 256.227c-8.794 2.602-11.569 11.048.747 6.031 12.317-5.017 9.394-9.02-.747-6.031z"/>
    <path fill="#fff" d="M414.129 257.145l.52 1.548c.174.533-.68.72-.854.2l-.52-1.548c-.173-.534.68-.734.854-.2zM411.941 258.493c.336.347.596.761.76 1.215.187.534-.667.72-.854.2-.12-.312-.306-.595-.547-.827-.387-.361.254-.988.641-.588zM408.778 259.109c.521.481 1.041.961 1.588 1.415.547.453-.213.947-.64.587-.427-.36-1.068-.921-1.575-1.415-.507-.493.227-.974.627-.587zM407.937 260.577c.161.134.321.267.494.387.427.347 0 1.094-.467.747l-.494-.387c-.44-.346.027-1.094.467-.747z"/>
    <path fill="#BD5983" d="M416.718 277.241c8.757 27.849 13.005 56.918 12.583 86.108-.72-.707-1.441-1.334-2.175-2.001.211-28.225-3.985-56.309-12.436-83.24-.414-1.347 1.614-2.215 2.028-.867z"/>
    <path fill="#BD5983" d="M418.652 289.158s-8.593 1.935-10.221-6.218c0 0 6.765-2.028 10.221 6.218zM424.19 316.1s-13.224-.881-13.01-13.424c-.027-.067 10.555-.107 13.01 13.424z"/>
    <path fill="#749237" d="M427.726 352.034s-15.559.241-14.104-14.331c0 0 12.516-1.054 14.104 14.331z"/>
    <path fill="#BD5983" d="M430.435 291.947s-10.195.534-7.593 9.768c.014 0 8.314.106 7.593-9.768z"/>
    <path fill="#749237" d="M429.955 363.993c-.574-.573-1.134-1.121-1.708-1.654 2.509-9.047 12.61-6.445 12.61-6.445-2.922 7.472-8.073 8.246-10.902 8.099z"/>
    <path fill="#BD5983" d="M443.953 319.488s-16.974-2.468-16.707 13.665c0 0 13.598 2.962 16.707-13.665z"/>
    <path fill="url(#prefix__paint4_linear)" d="M82.585 234.703c12.01 2.829 4.524 19.816-5.337 23.539-9.861 3.722-25.634-30.945 5.337-23.539z"/>
    <path fill="#FBDDBC" d="M77.501 235.437c9.141.787 13.531 8.526.468 6.044-13.064-2.482-10.996-6.952-.468-6.044z"/>
    <path fill="#fff" d="M72.578 237.371l-.2 1.615c0 .561.813.587.88 0 .067-.587.133-1.081.187-1.615.053-.533-.8-.56-.867 0zM74.993 238.253c-.257.405-.425.859-.494 1.334-.093.56.787.574.867 0 .057-.33.184-.644.374-.921.307-.427-.44-.88-.747-.413zM78.209 238.223c-.4.587-.827 1.148-1.335 1.708-.507.56.4.881.748.454.347-.427.854-1.121 1.334-1.708.48-.588-.374-.908-.747-.454zM79.33 239.505l-.4.481c-.361.413.24 1.054.6.627l.413-.481c.347-.427-.253-1.054-.614-.627z"/>
    <path fill="#BD5983" d="M74.032 257.586c-3.04 29.031-1.422 58.362 4.79 86.883.561-.841 1.135-1.628 1.735-2.402-5.82-27.625-7.293-55.989-4.363-84.067.147-1.375-2.015-1.828-2.162-.414z"/>
    <path fill="#BD5983" d="M74.579 269.637s8.807.201 8.78-8.113c-.066 0-7.099-.654-8.78 8.113zM74.46 297.071s12.783-3.483 10.087-15.746c0 0-10.395 2.069-10.088 15.746zM78.129 333.073s15.278-2.856 10.968-16.867c0 0-12.476 1.468-10.968 16.867zM63.517 274.732s10.101-1.508 9.34 8.006c.04 0-8.086 1.802-9.34-8.006zM78.316 345.228c.44-.667.88-1.334 1.334-1.962-4.257-8.366-13.638-3.803-13.638-3.803 4.35 6.739 9.555 6.512 12.303 5.765zM55.75 304.397s16.147-5.791 19.083 10.075c0 0-12.73 5.631-19.082-10.075z"/>
    <path fill="#24E3AA" d="M484.571 369.29s-10.488-46.878-28.996-51.228c-18.508-4.35-19.589 40.032-28.556 32.026-8.967-8.007-16.8-13.971-23.779-1.962-6.979 12.01-11.756 17.694-16.079 12.41-4.324-5.284-9.088-1.241-10.756 8.7l108.166.054z"/>
    <path fill="#804983" d="M427.46 339.908c1.894-5.337 3.865-10.604 5.911-15.799-17.441-12.45-12.637-24.019-12.637-24.019 12.01 6.592 14.585 14.051 14.679 19.028 2.668-6.556 5.453-13.037 8.353-19.442-14.945-10.114-11.169-20.936-11.169-20.936 11.156 5.564 12.957 12.823 12.81 17.347 3.069-6.579 6.245-13.077 9.581-19.482-13.958-9.568-10.208-20.016-10.208-20.016 10.809 5.337 12.17 12.623 11.849 16.946 3.025-5.746 6.174-11.422 9.448-17.026-11.182-8.914-7.766-17.988-7.766-17.988 8.62 5.017 9.754 11.236 9.447 15.092 2.522-4.283 5.111-8.5 7.766-12.69-1.134-3.296-2.668-11.836 9.968-14.452 0 0 4.097 12.997-7.846 15.479-2.669 4.31-5.337 8.647-8.006 13.051 3.282-1.962 9.341-3.603 17.747 2.802 0 0-6.605 7.099-19.375 0-3.238 5.587-6.379 11.244-9.421 16.973 3.189-2.495 9.514-4.897 19.215 2.669 0 0-6.271 8.927-20.856.414-3.363 6.476-6.583 13.041-9.661 19.696 3.176-2.669 9.567-5.338 20.109 2.201 0 0-5.911 9.608-21.684 1.161-2.936 6.459-5.738 12.997-8.407 19.616 3.363-3.069 9.955-5.485 21.991 1.614 0 0-4.844 11.57-23.952 3.256-2.002 5.098-3.928 10.235-5.778 15.413 2.669-2.603 8.006-4.978 17.454.92 0 0-4.35 9.194-18.682 2.736-2.362 6.792-4.617 13.637-6.672 20.563-.347 1.121-2.335-.12-2.001-1.228 2.081-6.876 4.305-13.673 6.672-20.389-13.865-8.194-11.476-18.442-11.476-18.442 10.128 4.244 12.33 10.756 12.597 14.932z"/>
    <path fill="#BD5983" d="M413.061 369.264s24.166-72.511 42.167-68.908c18.001 3.603-35.481 68.908-35.481 68.908h-6.686z"/>
    <path fill="#BD5983" d="M415.784 369.26c-.707-16.075-2.432-32.088-5.165-47.945-4.416-25.073 23.539-1.081 18.228 47.945h-13.063z"/>
    <path fill="#BD5983" d="M434.425 369.261s17.174-8.86 31.185-11.075 2.575-11.062-14.932-4.003c-7.206 3.589-4.977-1.095 7.553-8.834 12.53-7.74-12.464-34.694-41.807 24.019l18.001-.107z"/>
    <path fill="#D9E68F" d="M444.807 338.904c-6.319 8.785-11.519 18.324-15.479 28.396-.307.774.934 1.107 1.228.347 3.931-9.966 9.09-19.402 15.358-28.089.494-.668-.627-1.321-1.107-.654zM437.361 361.471c-1.85 2.025-3.553 4.179-5.098 6.445-.467.681.641 1.335 1.108.641 1.485-2.172 3.121-4.237 4.897-6.179.601-.613-.347-1.521-.907-.907zM451.826 307.786c-9.661 14.452-19.402 29.224-25.354 45.53-1.334-4.657-2.895-9.247-4.643-13.784-.294-.761-1.535-.427-1.228.347 1.779 4.59 3.34 9.242 4.684 13.957.024.088.067.169.126.238.059.069.132.125.215.163.082.038.172.058.263.058.091 0 .181-.02.263-.058-.721 2.001-1.401 4.003-2.002 6.084-1.629-2.718-3.411-5.342-5.337-7.859-.494-.641-1.601 0-1.108.654 2.186 2.828 4.183 5.796 5.978 8.887-.507 1.841-.974 3.709-1.334 5.604-.174.801 1.067 1.148 1.228.334 4.59-22.084 17.093-41.046 29.436-59.501.374-.694-.734-1.334-1.187-.654zM422.602 332.234c-1.008 1.356-2.224 2.544-3.603 3.522-.68.467 0 1.575.641 1.108 1.56-1.11 2.934-2.461 4.07-4.003.48-.641-.627-1.281-1.108-.627zM420.094 329.191c-.551.642-1.168 1.223-1.842 1.735-.654.48 0 1.588.641 1.107.773-.563 1.481-1.212 2.108-1.935.52-.653-.374-1.534-.907-.907zM419.907 324.106l-2.496 2.349c-.613.574.294 1.481.908.907l2.495-2.348c.614-.507-.293-1.415-.907-.908zM418.119 321.771c-.366.456-.819.833-1.334 1.108-.721.387-.081 1.494.653 1.107.631-.33 1.189-.784 1.642-1.334.48-.6-.427-1.521-.961-.881zM415.41 316.929l-.761.761c-.12.12-.188.284-.188.454 0 .17.068.333.188.453.121.121.284.188.454.188.17 0 .333-.067.454-.188l.76-.76c.574-.587-.333-1.495-.907-.908z" opacity=".3"/>
    <path fill="#804983" d="M410.846 369.263s-11.822-20.697-26.687-34.521c-14.866-13.824-5.658-20.496 16.973-2.495 22.631 18.001 27.769 37.016 27.769 37.016h-18.055z"/>
    <path fill="#804983" d="M410.846 369.264s-13.49-9.594-24.926-12.183c-11.436-2.589 3.376-5.564 14.411-3.696 11.036 1.868 28.516 15.879 28.516 15.879h-18.001z"/>
    <path fill="#D9E68F" d="M414.662 356.134c-4.19-8.007-11.395-14.132-18.014-20.016-3.558-3.167-7.179-6.218-10.862-9.154-2.297-1.899-4.688-3.681-7.166-5.338-.463.137-.879.4-1.2.761 2.756 1.807 5.403 3.776 7.926 5.898 3.558 2.829 7.023 5.756 10.395 8.78 6.525 5.831 13.677 11.93 17.814 19.776.387.627 1.494-.013 1.107-.707zM413.796 365.473c-3.003-2.989-6.072-5.885-10.075-7.473-.761-.307-1.094.934-.347 1.228 3.776 1.508 6.672 4.337 9.514 7.152.121.121.284.188.454.188.17 0 .333-.067.454-.188.12-.12.188-.283.188-.453 0-.17-.068-.334-.188-.454z" opacity=".3"/>
    <path fill="#BD5983" d="M93.527 368.581s14.892-62.716 28.023-65.545c13.13-2.829-14.052 57.192-14.052 57.192s17.654-28.022 25.928-29.223c8.273-1.201-19.042 32.906-19.042 32.906s15.079-11.102 21.017-11.076c5.938.027-13.851 15.746-13.851 15.746H93.527z"/>
    <path fill="#804983" d="M102.935 348.126c1.672-3.728 3.265-7.464 4.777-11.209 15.319 2.175 18.575-6.272 18.575-6.272-9.594-2.562-14.678.08-17.134 2.669 1.868-4.75 3.656-9.527 5.338-14.331 12.837 2.135 16.266-5.418 16.266-5.418-8.607-2.669-13.157.24-15.332 2.669 1.668-4.951 3.242-9.941 4.684-14.945 12.009 1.935 15.318-5.405 15.318-5.405-8.34-2.562-12.65.547-14.678 2.963 1.263-4.511 2.442-9.047 3.536-13.611 10.288.907 13.011-5.538 13.011-5.538-7.006-1.668-10.676 1.014-12.45 3.189.8-3.496 1.552-6.996 2.255-10.501 2.228-1.161 7.299-4.844 1.988-12.517 0 0-8.62 4.751-3.616 12.01-.703 3.558-1.472 7.156-2.309 10.795-.747-2.669-3.122-6.565-10.675-7.366 0 0-.08 7.006 10.128 9.648-1.085 4.546-2.259 9.074-3.523 13.584-.427-2.909-2.535-7.299-11.382-8.167 0 0-1.161 7.793 10.675 10.595-1.468 5.053-3.051 10.088-4.75 15.106-.307-3.003-2.335-7.566-11.623-8.861 0 0-1.681 8.007 10.755 11.409-1.668 4.844-3.469 9.648-5.337 14.439-.227-3.27-2.482-7.82-12.303-10.102 0 0-3.243 8.46 10.902 13.624-1.495 3.674-3.047 7.322-4.657 10.942-.107-2.668-1.722-6.605-9.595-8.206 0 0-2.295 6.965 8.434 10.755-2.135 4.724-4.36 9.421-6.672 14.091-.374.748 1.334 1.095 1.654.347 2.349-4.63 4.564-9.34 6.672-13.971 11.329 2.669 15.186-3.936 15.186-3.936-7.499-2.843-11.903-.534-14.118 1.521z"/>
    <path fill="#CCCCCB" d="M285.734 343.921l-6.565-17.56-16.747 7.779 5.858 16.48s4.243 8.327 12.93 5.164c6.565-2.322 4.524-11.863 4.524-11.863zM163.57 336.757l13.21-19.202-20.896-8.006-8.887 20.937s-2.789 7.112 3.122 10.341c5.911 3.229 10.208.627 13.451-4.07z"/>
    <path fill="#56438C" d="M197.343 168.088s27.262-7.512 34.842 6.672c0 0 25.353 59.461 30.824 79.01 0 0 20.243 63.877 23.912 85.227 0 0-7.646 3.643-22.684 7.326 0 0-18.402-47.491-20.79-61.208 0 0-41.366-76.755-48.292-81.892l2.188-35.135z"/>
    <path fill="#56438C" d="M202.521 266.729s-9.341 24.566-31.412 65.999c0 0-19.735 1.335-24.753-11.195 0 0 15.213-37.27 25.354-57.006 8.927-17.347-14.185-67.853-6.338-98.531.588-2.378 1.382-4.7 2.375-6.939.227-.507.453-.987.694-1.468l46.797 13.558s-11.569 78.235-12.717 95.582z"/>
    <path style="mix-blend-mode:multiply" fill="url(#prefix__paint5_linear)" d="M208.018 222.105c1.642 2.736 3.35 5.632 5.111 8.647l-2.202-29.583-2.909 20.936z"/>
    <path fill="#E8BD9F" d="M190.378 40.693s-6.219 20.416-8.167 35.094c0 0 13.224 15.266 25.047 8.007 0 0-.454-27.636 1.868-31.465l-18.748-11.636z"/>
    <path fill="#F2C9AD" d="M183.893 29.207s-6.312 8.874 5.658 14.679c0 0 7.072 19.869 19.308 19.629 0 0 13.998-5.578 17.134-36.43l-24.54-18.16-17.56 20.282z"/>
    <path fill="url(#prefix__paint6_linear)" d="M183.092 30.66S171.082 7.323 198.718.144c0 0 21.43-2.895 31.305 17.347 0 0 5.751 16.013-5.512 19.242l.854-4.737s-20.976-6.538-26.14-10.528c-1.282 3.032-3.306 5.694-5.885 7.74l-.961 7.459-1.334-.52-.867-6.286s-4.097-4.497-7.086.8z"/>
    <path fill="#E6CFBF" d="M227.261 170.357h-67.534c-.051 1.215-.015 2.433.107 3.643 29.476 8.767 51.601 8.607 68.347-.347.137-.582.124-1.19-.037-1.766-.161-.576-.465-1.103-.883-1.53z"/>
    <path fill="#C59B6C" d="M185.521 58.803s2.375 8.407 10.528 10.675c9.341 2.589 11.396-3.843 11.396-3.843s11.742 4.444 14.945 6.592c8.527 8.393 11.156 15.346 9.047 23.152-1.588 5.858-12.009 41.272-12.009 41.272s.68 3.897 7.819 33.707c-25.126 15.573-67.533 0-67.533 0l.36-12.757s-10.675-5.097-13.104-9.22c-10.755-18.535-5.898-76.368 19.816-86.91 4.867-2.058 10.132-3.006 15.412-2.775 1.895.147 3.323.107 3.323.107z"/>
    <path fill="#E6CFBF" d="M196.863 73.707c8.38 1.028 12.009-4.003 13.344-7.005-1.682-.668-2.762-1.068-2.762-1.068s-2.082 6.432-11.396 3.843c-8.153-2.268-10.528-10.675-10.528-10.675s-1.428 0-3.31-.107c0 0 2.976 13.584 14.652 15.012z"/>
    <path style="mix-blend-mode:multiply" fill="url(#prefix__paint7_linear)" d="M150.64 151.971c2.996 2.144 6.17 4.028 9.487 5.631l-.12 4.551c16.488 6.068 33.969 8.987 51.534 8.607 2.264 1.584 4.789 2.759 7.46 3.469 2.985-.757 5.801-2.069 8.3-3.87-.881-3.656-1.655-6.912-2.349-9.834l-77.061-20.483 2.749 11.929z"/>
    <path fill="#C59B6C" d="M228.822 80.033c-2.279.374-4.443 1.256-6.333 2.582-1.89 1.327-3.457 3.062-4.583 5.078 0 0-2.401 26.474 1.535 48.959 0 0 10.408-35.415 12.01-41.273.711-2.595.844-5.313.389-7.965-.454-2.651-1.484-5.17-3.018-7.38z"/>
    <path fill="#F2C9AD" d="M204.416 151.448s11.249 4.003 15.185 4.257c4.523.029 9.035-.419 13.464-1.335 0 0 5.671.361 10.675 9.341-.123.524-.425.989-.853 1.315-.429.326-.957.494-1.495.473l3.99 4.217s-.414 1.334-8.741 8.793c0 0-8.166-.226-12.623-2.668-5.884-4.225-12.445-7.416-19.402-9.435l-.2-14.958z"/>
    <path fill="#E6CFBF" d="M208.726 168.277l3.402.747 3.63-14.024-4.123-1.588-2.909 14.865z"/>
    <path fill="url(#prefix__paint8_linear)" d="M208.486 169.024s3.442-10.355 4.003-15.68c-20.83-8.139-25.007-8.807-45.196-16.786 1.557-11.696 2.12-23.504 1.681-35.295 0 0-10.555-3.443-25.567-.427-3.322 18.401-1.908 38.044 3.576 47.491 2.402 4.123 13.104 9.221 13.104 9.221 15.826 8.834 48.399 11.476 48.399 11.476z"/>
    <path style="mix-blend-mode:multiply" fill="url(#prefix__paint9_linear)" d="M219.441 136.65s6.832-23.378 8.593-29.236c-3.349-3.843-7.419-7.767-10.555-12.01-.467 9.501-.667 26.248 1.962 41.246z"/>
    <path style="mix-blend-mode:multiply" fill="url(#prefix__paint10_linear)" d="M167.306 136.559c20.189 8.006 24.366 8.646 45.196 16.786 0 0-26.808-13.571-40.939-19.001 1.27-11.091.391-22.322-2.589-33.08.443 11.791-.115 23.598-1.668 35.295z"/>
    <path fill="#8C404C" d="M139.217 344.817s5.791 11.516 21.617 18.388c15.826 6.872 17.454 2.535 18.121.707.668-1.828.774-7.299-11.515-20.016-2.789-2.148-3.87-7.179-3.87-7.179-14.145 3.83-16.573-6.338-16.573-6.338l-1.668-.521s-5.164 8.927-6.112 14.959z"/>
    <path fill="#383838" d="M177.234 366.205c-24.82-4.87-34.307-19.508-37.056-25.126-.416 1.218-.738 2.468-.961 3.736 0 0 5.791 11.516 21.617 18.388 10.142 4.39 14.439 4.19 16.4 3.002z"/>
    <path fill="#8C404C" d="M270.988 366.234s11.703 4.203 28.503-1.815c16.8-6.018 15.412-10.221 14.812-12.009-.601-1.788-3.883-5.738-21.457-6.285-2.479-.338-4.884-1.092-7.113-2.229-7.539 12.303-17.454 6.672-17.454 6.672l-1.654.774s1.441 9.968 4.363 14.892z"/>
    <path fill="#383838" d="M314.37 355.264c-22.685 13.638-39.272 9.755-44.93 7.646.415 1.152.933 2.265 1.548 3.323 0 0 11.703 4.203 28.503-1.815 10.755-3.843 14.051-6.952 14.879-9.154z"/>
    <path fill="url(#prefix__paint11_linear)" d="M253.868 294.815c1.041 4.844 6.258 5.698 10.915 7.379 0 0-9.34 1.802-13.344 9.261-4.23 7.886-1.401 24.993-1.721 25.247-1.334 1.054-5.338 2.562-5.017 9.167.047 1.143.186 2.281.413 3.403 1.959-.046 3.886-.501 5.658-1.335 2.024-1.066 3.748-2.621 5.018-4.523 2.228-3.003-.854-11.089.747-16.627.941-2.743 2.587-5.19 4.772-7.096 2.185-1.906 4.833-3.205 7.678-3.766 3.677-.912 7.493-1.125 11.249-.627 5.537.801 13.344.414 13.704-6.912 0 0-4.684-21.124.48-30.331-.053.027-46.25-9.448-40.552 16.76z"/>
    <path fill="url(#prefix__paint12_linear)" d="M257.684 259.216s-23.125-21.711-16.706-55.204c0 0-39.765 34.694 13.411 59.234l3.295-4.03z"/>
    <path fill="url(#prefix__paint13_linear)" d="M352.507 283.582l-26.928 14.478s6.952 13.051 18.441 20.99c0 0 22.685 13.931 27.542 20.016.88 1.174 6.872-.36 10.555 3.456.387.401-.174 3.296 1.134 3.87 1.308.574 11.663 0 10.915-1.414-.64-1.175-4.003-6.219-4.603-7.38-.601-1.161-1.415-1.641-3.136-2.148-1.094-.32-10.782-3.176-12.57-4.51-.027-.054-29.864-20.95-21.35-47.358z"/>
    <path fill="url(#prefix__paint14_linear)" d="M345.648 238.773s-8.754 13.278-24.46 14.679c-15.705 1.401-47.944-2.215-54.71-2.602-6.765-.387-29.863 1.334-35.828 53.375-5.818 21.417-14.518 33.013-14.518 33.013l1.948 31.038 14.438.961c.32-1.8.043-3.655-.788-5.283-.831-1.628-2.171-2.94-3.816-3.737-2.548-12.971-.307-19.896-.307-19.896s33.854-16.213 41.794-47.665c14.904 6.211 30.505 10.598 46.463 13.064 5.058 23.712 21.911 28.329 27.742 46.971 8.447 7.112 9.835 14.971 9.835 14.971h14.291s-1.001-8.086-8.914-8.62c-8.753-11.609-15.505-27.929-15.359-30.424.147-2.495 3.363-21.11 3.683-33.226 9.982-19.936 12.21-34.695 12.21-34.695l6.245-15.545-19.949-6.379z"/>
    <path fill="url(#prefix__paint15_linear)" d="M375.779 248.873c-1.536 4.003-3.319 7.907-5.338 11.689-9.341 1.869-9.514-12.009-9.514-12.009-8.26 1.815-14.452-5.151-14.452-5.151-7.326-9.18-14.398-9.647-14.892-11.075-.349-1.31-.568-2.651-.653-4.003l1.334-2.122-3.176-5.231c-1.027-5.444 6.445-9.848 6.445-9.848l11.73 5.645c2.668-1.855 4.603-3.456 11.582-.401 3.096 1.335 10.502 5.004 11.102 5.445 9.808 7.165 7.847 20.456 5.832 27.061z"/>
    <path fill="url(#prefix__paint16_linear)" d="M349.238 234.529c-1.495 1.214-8.567-1.335-8.567-1.335-4.417-3.91-10.675-3.349-10.675-3.349l2.148-3.563-3.176-5.231c2.415 1.788 2.669-3.429 3.897-4.257l.854.548s-2.189 2.909-.854 5.697c.883 1.569 2.343 2.732 4.069 3.243 3.35 1.841 3.03 3.496 4.978 5.111 2.122 1.674 4.65 2.755 7.326 3.136z"/>
    <path fill="#BD5983" d="M340.671 233.195s-2.282-6.165-8.487-6.913c-3.87-.48-9.528-.453-13.491 4.764-1.654 2.189-4.764 7.82 2.429 8.273 1.401.094 3.456 0 5.177-3.122 1.05-1.824 2.446-3.424 4.11-4.71 2.149-1.362 4.137-2.122 10.262 1.708z"/>
    <path fill="url(#prefix__paint17_linear)" d="M358.458 224.936l-3.923-2.976-2.509-1.935 4.177-1.681c.403.636.768 1.296 1.094 1.975.747 1.425 1.145 3.008 1.161 4.617z"/>
    <path fill="url(#prefix__paint18_linear)" d="M357.297 220.346c-.814.703-1.75 1.25-2.762 1.614l-2.509-1.935 4.177-1.681c.404.645.769 1.313 1.094 2.002z"/>
    <path fill="url(#prefix__paint19_linear)" d="M352.039 220.022l-4.857-3.202s7.286-1.481 9.021 1.521l-4.164 1.681z"/>
    <path fill="url(#prefix__paint20_linear)" d="M340.471 213.621l-5.018-2.415c-1.221.762-2.353 1.657-3.376 2.669-.187 2.308.734 4.003 1.108 4.003 3.869.441 6.191-2.428 7.286-4.257z"/>
    <path fill="url(#prefix__paint21_linear)" d="M341.191 238.118c1.945 1.578 3.709 3.369 5.258 5.338 0 0 6.191 6.965 14.451 5.15-.253-7.312 3.843-17.707 3.843-17.707s-7.112 10.769-23.552 7.219z"/>
    <path fill="#BD5983" d="M339.923 245.044s6.032 7.232 20.123 14.064c0 1.895-1.882 7.313-1.882 7.313s-14.198-6.472-24.246-17.054c1.695-1.826 3.736-3.296 6.005-4.323z"/>
    <path style="mix-blend-mode:multiply" fill="url(#prefix__paint22_linear)" fill-opacity=".6" d="M271.789 282.114c-.538 3.564-1.323 7.086-2.349 10.541 11.965 4.996 24.389 8.808 37.097 11.383-6.299-19.175-34.748-21.924-34.748-21.924z"/>
    <path fill="#804983" d="M101.801 368.583s1.121-68.254-10.982-88.363c-12.103-20.11-2.255 72.057-2.255 72.057s-10.102-43.808-18.335-43.902c-8.233-.093 11.596 52.042 11.596 52.042s-11.596-15.826-17.214-15.452c-5.617.373 5.965 23.618 5.965 23.618h31.225z"/>
    <path fill="url(#prefix__paint23_linear)" d="M266.878 195.273c5.405 3.763 11.676 4.003 17.734 3.736 0 .294.187.641.534.574 7.406-1.428 15.012-4.163 16.88-13.251 2.029-9.941-2.949-19.922-3.482-29.877-.27-4.852.179-9.717 1.334-14.438.987-4.003 2.669-7.806 2.776-12.089.16-7.78-4.19-15.092-9.221-20.337-1.855-1.961-4.123-4.003-6.672-2.828-2.549 1.174-4.003 4.683-4.911 7.606-1.334 4.336-2.148 8.78-5.124 12.103-2.669 2.962-6.071 4.87-8.86 7.646-2.311 2.117-3.875 4.926-4.457 8.006-.667 4.577 1.881 9.02 1.334 13.584-.56 4.284-3.763 7.219-5.444 10.915-2.182 4.941-2.61 10.479-1.215 15.696 1.396 5.218 4.531 9.802 8.888 12.994l-.094-.04z"/>
    <path fill="#24E3AA" d="M318.96 160.949c-1.852-2.414-4.231-4.375-6.955-5.732-2.724-1.357-5.721-2.076-8.764-2.1-5.498.12-9.421 4.363-9.555 10.568-.12 5.564 2.989 10.288 6.859 13.611-.016.1-.004.202.033.296.038.094.1.176.181.238 5.084 4.003 15.185 7.112 19.415.693 3.376-5.124 2.602-12.636-1.214-17.574z"/>
    <path fill="#804983" d="M285.56 151.837s-3.763 26.314 5.017 70.723l-2.802.907s-9.781-41.553-3.643-71.403l1.428-.227z"/>
    <path fill="#804983" d="M304.695 169.934s-2.669 10.395-20.256 12.623l-.36 3.336s14.905-.173 21.857-14.478l-1.241-1.481zM283.559 171.253l-9.288-5.405-.48 1.015 10.101 7.205-.333-2.815z"/>
    <path fill="url(#prefix__paint24_linear)" d="M325.873 76.375c1.4-2.738 3.797-4.834 6.696-5.856 2.9-1.023 6.081-.895 8.889.358.624-3.977 2.596-7.618 5.586-10.314 2.99-2.695 6.816-4.28 10.836-4.49 4.02-.21 7.99.969 11.244 3.339 3.254 2.37 5.594 5.786 6.628 9.677 2.226-1.121 4.666-1.754 7.156-1.856 2.491-.102 4.974.328 7.285 1.263 2.31.935 4.394 2.352 6.113 4.157 1.719 1.806 3.032 3.957 3.852 6.31l12.984 2.963H290.271l35.602-5.551z"/>
    <path fill="url(#prefix__paint25_linear)" d="M134.427 208.708c-1.475-2.741-3.242-5.313-5.271-7.673-2.256-2.569-4.06-5.502-5.338-8.673-1.187-3.523-.867-7.339-1.935-10.889-.987-3.282-3.322-5.778-5.671-8.166-2.068-2.122-4.403-4.457-7.512-4.777-1.163-.181-2.352.036-3.376.614-1.025.579-1.824 1.486-2.269 2.575-.987 2.575-.12 5.337.787 7.859.747 1.698 1.238 3.496 1.455 5.338.042 2.002-.635 3.953-1.908 5.498-1.708 2.308-4.004 4.176-5.458 6.672-1.526 2.623-2.159 5.672-1.802 8.687.414 3.336 2.069 6.351 3.15 9.487.811 2.087 1.069 4.349.747 6.565-.334 1.802-1.054 3.51-1.334 5.338-.323 1.31-.24 2.688.236 3.95.476 1.263 1.324 2.352 2.432 3.122 2.484 1.499 5.277 2.411 8.167 2.669 4.083.64 8.286 1.108 12.25-.4 3.19-.6 6.162-2.042 8.606-4.177 2.073-1.883 3.703-4.203 4.771-6.792 1.069-2.589 1.549-5.383 1.408-8.18-.09-3.001-.818-5.949-2.135-8.647z"/>
    <path fill="#804983" d="M115.091 205.612s4.15 33.107 3.617 48.212l4.23.24s-4.004-28.089-6.832-48.598l-1.015.146z"/>
    <path fill="#804983" d="M117.279 219.168s-4.376.08-8.446-4.63l-.694 1.04s4.697 4.898 8.834 6.205l.306-2.615z"/>
    <defs>
        <linearGradient id="prefix__paint0_linear" x1="269.376" x2="169.459" y1="23.845" y2="301.286" gradientUnits="userSpaceOnUse">
            <stop stop-color="#CFDDFE"/>
            <stop offset="1" stop-color="#CFDDFE" stop-opacity="0"/>
        </linearGradient>
        <linearGradient id="prefix__paint1_linear" x1="269.533" x2="269.533" y1="218.527" y2="369.291" gradientUnits="userSpaceOnUse">
            <stop stop-color="#5BFECC"/>
            <stop offset="1" stop-color="#1CC994"/>
        </linearGradient>
        <linearGradient id="prefix__paint2_linear" x1="420.405" x2="417.504" y1="191.455" y2="234.112" gradientUnits="userSpaceOnUse">
            <stop stop-color="#21CE99"/>
            <stop offset="1" stop-color="#fff" stop-opacity="0"/>
        </linearGradient>
        <linearGradient id="prefix__paint3_linear" x1="105.444" x2="103.023" y1="103.542" y2="125.864" gradientUnits="userSpaceOnUse">
            <stop stop-color="#CFDDFE"/>
            <stop offset="1" stop-color="#CFDDFE" stop-opacity="0"/>
        </linearGradient>
        <linearGradient id="prefix__paint4_linear" x1="80.073" x2="79.488" y1="247.289" y2="261.498" gradientUnits="userSpaceOnUse">
            <stop stop-color="#21CE99"/>
            <stop offset="1" stop-color="#fff" stop-opacity="0"/>
        </linearGradient>
        <linearGradient id="prefix__paint5_linear" x1="1311.27" x2="1193.55" y1="8155" y2="8165.99" gradientUnits="userSpaceOnUse">
            <stop stop-color="#4F4253"/>
            <stop offset="1" stop-color="#443847"/>
        </linearGradient>
        <linearGradient id="prefix__paint6_linear" x1="180.628" x2="230.504" y1="22.026" y2="16.22" gradientUnits="userSpaceOnUse">
            <stop stop-color="#A47267"/>
            <stop offset=".76" stop-color="#603F37"/>
        </linearGradient>
        <linearGradient id="prefix__paint7_linear" x1="187.549" x2="187.549" y1="174.816" y2="142.03" gradientUnits="userSpaceOnUse">
            <stop stop-color="#C59B6C"/>
            <stop offset=".36" stop-color="#B88E61"/>
            <stop offset="1" stop-color="#A67C52"/>
        </linearGradient>
        <linearGradient id="prefix__paint8_linear" x1="154.016" x2="187.869" y1="110.017" y2="163.766" gradientUnits="userSpaceOnUse">
            <stop stop-color="#C59B6C"/>
            <stop offset=".41" stop-color="#C79E71"/>
            <stop offset=".88" stop-color="#CCA67E"/>
            <stop offset="1" stop-color="#CEA983"/>
        </linearGradient>
        <linearGradient id="prefix__paint9_linear" x1="2615.59" x2="2107.97" y1="7888.45" y2="8100.69" gradientUnits="userSpaceOnUse">
            <stop stop-color="#C59B6C"/>
            <stop offset=".36" stop-color="#B88E61"/>
            <stop offset="1" stop-color="#A67C52"/>
        </linearGradient>
        <linearGradient id="prefix__paint10_linear" x1="9825.22" x2="7042.64" y1="11052.9" y2="10266.8" gradientUnits="userSpaceOnUse">
            <stop stop-color="#C59B6C"/>
            <stop offset=".36" stop-color="#B88E61"/>
            <stop offset="1" stop-color="#A67C52"/>
        </linearGradient>
        <linearGradient id="prefix__paint11_linear" x1="262.768" x2="315.01" y1="303.462" y2="380.283" gradientUnits="userSpaceOnUse">
            <stop stop-color="#784E42"/>
            <stop offset="1" stop-color="#A47267"/>
        </linearGradient>
        <linearGradient id="prefix__paint12_linear" x1="248.531" x2="233.172" y1="249.221" y2="219.517" gradientUnits="userSpaceOnUse">
            <stop stop-color="#8C5D4F"/>
            <stop offset="1" stop-color="#A47267"/>
        </linearGradient>
        <linearGradient id="prefix__paint13_linear" x1="22246.9" x2="24650.9" y1="21639.5" y2="23557.3" gradientUnits="userSpaceOnUse">
            <stop stop-color="#784E42"/>
            <stop offset="1" stop-color="#A47267"/>
        </linearGradient>
        <linearGradient id="prefix__paint14_linear" x1="48409.9" x2="44964.9" y1="38599" y2="44373" gradientUnits="userSpaceOnUse">
            <stop stop-color="#8C5D4F"/>
            <stop offset="1" stop-color="#A47267"/>
        </linearGradient>
        <linearGradient id="prefix__paint15_linear" x1="342.929" x2="368.673" y1="197.012" y2="277.83" gradientUnits="userSpaceOnUse">
            <stop offset=".17" stop-color="#A87E78"/>
            <stop offset=".64" stop-color="#A47267"/>
        </linearGradient>
        <linearGradient id="prefix__paint16_linear" x1="330.409" x2="351.466" y1="208.695" y2="262.324" gradientUnits="userSpaceOnUse">
            <stop stop-color="#3C2415"/>
            <stop offset="1" stop-color="#8B5E3C"/>
        </linearGradient>
        <linearGradient id="prefix__paint17_linear" x1="353.64" x2="357.716" y1="218.054" y2="226.526" gradientUnits="userSpaceOnUse">
            <stop offset=".49" stop-color="#fff"/>
            <stop offset=".92" stop-color="#D1D3D4"/>
        </linearGradient>
        <linearGradient id="prefix__paint18_linear" x1="352.987" x2="356.256" y1="216.262" y2="223.935" gradientUnits="userSpaceOnUse">
            <stop stop-color="#231F20"/>
            <stop offset="1" stop-color="#58595B"/>
        </linearGradient>
        <linearGradient id="prefix__paint19_linear" x1="349.039" x2="354.272" y1="208.994" y2="225.903" gradientUnits="userSpaceOnUse">
            <stop offset=".45" stop-color="#A87E78"/>
            <stop offset=".57" stop-color="#A47267"/>
        </linearGradient>
        <linearGradient id="prefix__paint20_linear" x1="2882.65" x2="2971.48" y1="1988.74" y2="2272.45" gradientUnits="userSpaceOnUse">
            <stop stop-color="#3C2415"/>
            <stop offset="1" stop-color="#8B5E3C"/>
        </linearGradient>
        <linearGradient id="prefix__paint21_linear" x1="8019.41" x2="7839.56" y1="5489.38" y2="5304.32" gradientUnits="userSpaceOnUse">
            <stop stop-color="#8C5D4F"/>
            <stop offset="1" stop-color="#A47267"/>
        </linearGradient>
        <linearGradient id="prefix__paint22_linear" x1="276.179" x2="288.869" y1="311.937" y2="293.496" gradientUnits="userSpaceOnUse">
            <stop stop-color="#8C5D4F"/>
            <stop offset=".49" stop-color="#9A695D"/>
            <stop offset="1" stop-color="#A47267"/>
        </linearGradient>
        <linearGradient id="prefix__paint23_linear" x1="286.478" x2="282.078" y1="157.491" y2="210.47" gradientUnits="userSpaceOnUse">
            <stop stop-color="#21CE99"/>
            <stop offset="1" stop-color="#fff" stop-opacity="0"/>
        </linearGradient>
        <linearGradient id="prefix__paint24_linear" x1="39486.1" x2="39755.7" y1="4417.89" y2="3347.82" gradientUnits="userSpaceOnUse">
            <stop stop-color="#fff"/>
            <stop offset="1" stop-color="#CFEDFC"/>
        </linearGradient>
        <linearGradient id="prefix__paint25_linear" x1="122.127" x2="119.417" y1="206.313" y2="245.655" gradientUnits="userSpaceOnUse">
            <stop stop-color="#21CE99"/>
            <stop offset="1" stop-color="#fff" stop-opacity="0"/>
        </linearGradient>
    </defs>
</svg>
