<svg xmlns="http://www.w3.org/2000/svg" width="555" height="303" fill="none" viewBox="0 0 555 303">
    <path stroke="url(#prefix__paint0_linear)" stroke-linecap="round" stroke-linejoin="round" stroke-width="2.209" d="M1.105 123.825h75.342l27.551 27.543h48.889c0-82.984 56.753-150.262 126.706-150.262 69.954 0 126.707 67.256 126.707 150.262"/>
    <path stroke="url(#prefix__paint1_linear)" stroke-linecap="round" stroke-linejoin="round" stroke-width="2.209" d="M161.842 206.928c18.633 55.47 64.33 94.674 117.751 94.674 60.35 0 110.838-50.024 123.597-117.014h62.737l29.571 29.57h58.397"/>
    <path stroke="url(#prefix__paint2_linear)" stroke-linecap="round" stroke-linejoin="round" stroke-width="1.473" d="M1.105 201.031h67.072l20.328-20.328h64.905l17.593 17.593c15.84 53.65 57.852 91.999 107.101 91.999 55.758 0 102.156-49.087 111.973-113.919l.14-1.054"/>
    <path stroke="url(#prefix__paint3_linear)" stroke-linecap="round" stroke-linejoin="round" stroke-width="1.473" d="M164.215 150.772c0-77.06 50.989-139.524 113.889-139.524s113.89 62.465 113.89 139.524c0 2.756-.067 5.493-.199 8.21h35.776l17.807-17.807h49.766l16.06 16.06h42.691"/>
    <path stroke="url(#prefix__paint4_linear)" stroke-linecap="round" stroke-linejoin="round" stroke-width=".736" d="M191.265 218.227c18.116 35.784 50.119 59.546 86.522 59.546 49.722 0 91.159-44.282 100.357-102.973h68.679l16.576-16.518h29.961l28.104 28.089h32.43"/>
    <path stroke="url(#prefix__paint5_linear)" stroke-linecap="round" stroke-linejoin="round" stroke-width=".736" d="M1.105 167.915H18.28l22.111-22.112h38.327l16.134 16.164h62.819l21.375 21.374c-2.337-10.901-3.511-22.019-3.501-33.167 0-70.47 45.785-127.599 102.266-127.599 56.48 0 102.258 57.13 102.258 127.599"/>
    <path stroke="url(#prefix__paint6_linear)" stroke-linecap="round" stroke-linejoin="round" stroke-width="1.473" d="M139.472 180.689L99.45 220.703H41.09"/>
    <path stroke="url(#prefix__paint7_linear)" stroke-linecap="round" stroke-linejoin="round" stroke-width="1.473" d="M76.447 123.825l-13.856-13.864H27.97"/>
    <path stroke="url(#prefix__paint8_linear)" stroke-linecap="round" stroke-linejoin="round" stroke-width="1.473" d="M153.395 180.688l-8.328-8.328h-81.32"/>
    <path fill="url(#prefix__paint9_linear)" d="M24.691 113.262c1.812 0 3.28-1.469 3.28-3.28 0-1.811-1.468-3.28-3.28-3.28-1.811 0-3.28 1.469-3.28 3.28 0 1.811 1.469 3.28 3.28 3.28z"/>
    <path fill="url(#prefix__paint10_linear)" d="M37.369 223.983c1.811 0 3.28-1.468 3.28-3.28 0-1.811-1.469-3.28-3.28-3.28-1.812 0-3.28 1.469-3.28 3.28 0 1.812 1.468 3.28 3.28 3.28z"/>
    <path stroke="url(#prefix__paint11_linear)" stroke-linecap="round" stroke-linejoin="round" stroke-width="1.473" d="M414.806 158.982l24.58-24.581h81.098"/>
    <path stroke="url(#prefix__paint12_linear)" stroke-linecap="round" stroke-linejoin="round" stroke-width=".736" d="M446.845 174.8h36.506"/>
    <path stroke="url(#prefix__paint13_linear)" stroke-linecap="round" stroke-linejoin="round" stroke-width="2.209" d="M401.066 194.243h48.167"/>
    <path fill="url(#prefix__paint14_linear)" d="M453.036 197.522c1.812 0 3.28-1.468 3.28-3.279 0-1.812-1.468-3.28-3.28-3.28-1.811 0-3.279 1.468-3.279 3.28 0 1.811 1.468 3.279 3.279 3.279z"/>
    <path fill="url(#prefix__paint15_linear)" d="M486.632 178.079c1.811 0 3.279-1.469 3.279-3.28 0-1.811-1.468-3.28-3.279-3.28-1.812 0-3.28 1.469-3.28 3.28 0 1.811 1.468 3.28 3.28 3.28z"/>
    <path fill="url(#prefix__paint16_linear)" fill-rule="evenodd" d="M524.044 147.757c-2.641 0-5.223-.783-7.42-2.251-2.196-1.467-3.908-3.553-4.919-5.993-1.01-2.441-1.275-5.126-.76-7.717.516-2.591 1.788-4.97 3.655-6.838 1.868-1.868 4.248-3.14 6.839-3.655 2.59-.515 5.276-.251 7.716.76 2.44 1.011 4.526 2.723 5.994 4.919 1.467 2.196 2.251 4.778 2.251 7.42-.004 3.541-1.413 6.935-3.916 9.439-2.504 2.504-5.899 3.912-9.44 3.916zm0-25.229c-2.35-.002-4.649.694-6.604 1.999-1.955 1.305-3.479 3.161-4.379 5.332-.9 2.171-1.136 4.561-.678 6.866.459 2.306 1.59 4.423 3.252 6.085 1.662 1.662 3.78 2.794 6.086 3.252 2.305.459 4.695.223 6.866-.678 2.171-.9 4.027-2.424 5.332-4.379 1.305-1.955 2-4.253 1.999-6.603-.004-3.148-1.256-6.166-3.482-8.392-2.226-2.226-5.244-3.478-8.392-3.482zm0 15.154c1.812 0 3.28-1.469 3.28-3.28 0-1.812-1.468-3.28-3.28-3.28-1.811 0-3.28 1.468-3.28 3.28 0 1.811 1.469 3.28 3.28 3.28zm-4.173 2.965c1.235.825 2.688 1.266 4.173 1.266 1.991-.002 3.901-.794 5.309-2.202 1.408-1.408 2.2-3.318 2.202-5.309 0-1.485-.441-2.938-1.266-4.173-.826-1.235-1.998-2.197-3.371-2.766-1.372-.568-2.882-.717-4.339-.427-1.457.29-2.795 1.005-3.846 2.055-1.05 1.051-1.765 2.389-2.055 3.846-.29 1.457-.141 2.967.427 4.339.569 1.373 1.531 2.546 2.766 3.371zm.817-11.26c.993-.663 2.161-1.016 3.356-1.014 1.598.002 3.131.638 4.261 1.768 1.13 1.13 1.766 2.663 1.768 4.261.002 1.195-.351 2.363-1.014 3.356-.663.994-1.606 1.769-2.709 2.227-1.103.458-2.318.578-3.489.345-1.172-.232-2.248-.808-3.093-1.652-.844-.845-1.42-1.921-1.652-3.093-.233-1.171-.113-2.386.345-3.489.458-1.103 1.233-2.046 2.227-2.709z" clip-rule="evenodd"/>
    <path fill="url(#prefix__paint17_linear)" fill-rule="evenodd" d="M60.468 185.707c-2.642 0-5.224-.784-7.42-2.252-2.197-1.467-3.909-3.554-4.92-5.994-1.01-2.441-1.274-5.127-.758-7.718s1.788-4.97 3.657-6.838c1.868-1.867 4.249-3.139 6.84-3.653 2.591-.515 5.277-.249 7.717.763 2.44 1.012 4.525 2.725 5.992 4.922 1.467 2.197 2.249 4.78 2.247 7.422-.004 3.54-1.412 6.934-3.916 9.437-2.504 2.502-5.899 3.909-9.44 3.911zm0-25.23c-2.35-.001-4.648.695-6.603 1.999-1.955 1.305-3.479 3.16-4.38 5.331-.9 2.171-1.136 4.56-.678 6.865.457 2.305 1.588 4.423 3.25 6.085 1.66 1.663 3.778 2.795 6.083 3.254 2.305.459 4.694.224 6.865-.675 2.172-.899 4.028-2.422 5.334-4.376 1.306-1.954 2.003-4.251 2.003-6.601-.006-3.147-1.26-6.163-3.485-8.387-2.226-2.225-5.242-3.476-8.39-3.48v-.015zm0 15.162c1.81 0 3.28-1.468 3.28-3.28 0-1.811-1.47-3.28-3.28-3.28-1.812 0-3.28 1.469-3.28 3.28 0 1.812 1.468 3.28 3.28 3.28zm-4.173 2.965c1.235.826 2.687 1.266 4.173 1.266 1.991-.002 3.9-.794 5.308-2.202s2.2-3.317 2.202-5.308c0-1.486-.44-2.938-1.265-4.173-.826-1.235-1.999-2.198-3.371-2.766-1.373-.569-2.883-.717-4.34-.428-1.457.29-2.795 1.005-3.845 2.056-1.05 1.05-1.766 2.388-2.056 3.845-.29 1.457-.14 2.967.428 4.34.568 1.372 1.53 2.545 2.766 3.37zm.819-11.264c.993-.663 2.16-1.017 3.354-1.017 1.6.002 3.134.639 4.266 1.77 1.132 1.132 1.768 2.666 1.77 4.267 0 1.193-.354 2.361-1.017 3.353-.663.993-1.606 1.767-2.71 2.224-1.102.456-2.316.576-3.487.343-1.17-.233-2.246-.808-3.09-1.652-.845-.844-1.42-1.92-1.653-3.091-.233-1.171-.113-2.384.344-3.487.457-1.104 1.23-2.046 2.223-2.71z" clip-rule="evenodd"/>
    <path fill="url(#prefix__paint18_linear)" fill-rule="evenodd" d="M338.44 109.217c2.086 2.467 3.822 5.21 5.159 8.152.45 1.113-1.157 2.019-1.614.899-.618-1.471-1.373-2.88-2.256-4.209-1.891-2.72-3.923-5.34-6.088-7.849-1.502-1.836-3.036-3.661-4.563-5.478-.705-.839-1.408-1.676-2.107-2.512-2.553-3.011-5.145-6.021-7.727-9.02-1.987-2.307-3.968-4.609-5.923-6.9-4.496-5.27-8.963-10.584-13.267-16.024-1.982-2.296-3.641-4.853-4.931-7.599-.84-1.938-2.454-6.493.737-7.23 1.415-.31 3.037.53 4.201 1.268 1.262.814 2.446 1.741 3.538 2.771 2.232 2.022 4.355 4.16 6.361 6.405 4.007 4.565 7.764 9.343 11.255 14.313 1.008 1.398 2.01 2.802 3.012 4.207 2.528 3.543 5.058 7.088 7.697 10.534 1.843 2.396 3.752 4.747 5.749 7.01.431.56.94 1.057 1.511 1.474.361.243 1.106.486 1.408 0 .15-.246-.013-.761-.122-1.107-.025-.079-.047-.149-.062-.205-.104-.349-.214-.695-.332-1.04-.256-.692-.549-1.372-.877-2.033-1.561-2.938-3.301-5.776-5.211-8.499-1.843-2.786-3.747-5.528-5.712-8.225-3.99-5.45-8.226-10.695-12.707-15.736-.789-.885.531-2.197 1.327-1.297.455.53.923 1.064 1.393 1.6.632.722 1.269 1.45 1.887 2.18 4.343 5.13 8.439 10.445 12.286 15.943 1.917 2.737 3.764 5.518 5.543 8.343 1.695 2.654 3.464 5.44 4.26 8.55.368 1.415.214 2.919-1.341 3.487-.617.178-1.272.181-1.891.008-.618-.173-1.176-.516-1.61-.989-1.051-1.038-2.035-2.141-2.949-3.302-1.007-1.194-1.99-2.403-2.948-3.626-3.189-4.07-6.18-8.268-9.187-12.49-.516-.726-1.033-1.451-1.552-2.177-3.538-4.953-7.142-9.87-11.151-14.469-1.999-2.306-4.115-4.507-6.339-6.596-1.08-1.06-2.23-2.044-3.442-2.949-.626-.445-1.292-.83-1.99-1.15-.45-.19-1.563-.648-1.924-.242-.32.36-.147 1.179-.037 1.698.014.066.027.127.037.181.152.754.366 1.493.641 2.211.549 1.367 1.246 2.67 2.079 3.884 1.511 2.285 3.268 4.418 5.015 6.538.366.445.732.89 1.095 1.334 4.384 5.37 8.913 10.64 13.428 15.893l.119.138 2.019 2.348c3.884 4.514 7.768 9.029 11.587 13.602 2.197 2.638 4.386 5.284 6.516 7.982zm5.94 16.715c-1.032-1.687-2.16-3.316-3.354-4.901-2.168-2.884-4.506-5.63-6.846-8.376l-.568-.668c-2.727-3.198-5.464-6.392-8.211-9.581-5.44-6.287-10.931-12.53-16.532-18.663-.543-.593-1.085-1.19-1.628-1.786-4.847-5.326-9.741-10.703-15.369-15.21-5.981-4.656-12.487-8.596-19.384-11.741-1.651-.781-3.317-1.533-4.997-2.27-1.076-.472-2.02 1.128-.929 1.607 6.834 2.866 13.386 6.365 19.569 10.45 6.361 4.342 11.719 9.774 16.952 15.39 11.004 11.852 21.625 24.065 32.047 36.426 2.546 2.936 4.899 6.033 7.046 9.272.492.761.956 1.528 1.393 2.299l.061.106.071.122c.332.562.78 1.324.355 1.866-.981 1.289-2.757 0-3.538-.782-.959-.979-1.849-2.038-2.737-3.094v-.001c-.408-.485-.815-.969-1.228-1.445-1.312-1.511-2.757-3.177-4.128-4.769-2.712-3.1-5.403-6.203-8.071-9.309-5.444-6.279-10.888-12.564-16.333-18.853-.84-.97-1.676-1.946-2.512-2.922-4.106-4.792-8.23-9.606-12.914-13.824-5.506-4.973-11.977-8.759-19.009-11.122-7.353-2.471-15.098-3.568-22.848-3.236-1.924.081-3.84.258-5.749.516-1.165.155-1.172 2.012 0 1.85 15.404-2.071 32.091 1.474 44.223 11.52 5.281 4.35 9.768 9.564 14.225 14.742l.001.001c.55.64 1.099 1.278 1.65 1.914l16.731 19.319c1.853 2.14 3.698 4.286 5.544 6.431l.005.006c3.693 4.294 7.386 8.589 11.145 12.844 1.076 1.223 2.41 2.513 4.142 2.587.686.05 1.37-.116 1.957-.474s1.047-.891 1.316-1.523c.507-1.47-.442-2.967-1.24-4.226-.106-.168-.211-.332-.308-.492zm-7.886 7.733c3.774 4.039 7.312 8.447 9.154 13.724.722 2.049 1.076 5.049-1.157 6.353-2.351 1.371-5.572-.191-7.511-1.628-2.359-1.867-4.522-3.969-6.456-6.273-2.055-2.312-3.974-4.741-5.749-7.274-.693-.981.929-1.887 1.607-.922.847 1.209 1.724 2.388 2.646 3.545 1.837 2.322 3.806 4.537 5.896 6.634 1.835 1.835 3.855 3.833 6.464 4.422 1.076.243 2.425.236 2.823-.995.234-1.096.118-2.238-.332-3.265-.884-2.464-2.109-4.791-3.641-6.913-2.447-3.491-5.427-6.534-8.408-9.577v-.001h-.001c-.745-.761-1.49-1.521-2.226-2.289-4.054-4.26-7.88-8.756-11.565-13.311-1.225-1.502-2.443-3.012-3.662-4.523l-.001-.001c-6.116-7.579-12.251-15.181-19.318-21.892-7.651-7.23-16.532-13.562-26.586-16.952-5.218-1.774-10.703-2.637-16.215-2.55-6.301.103-12.507 1.334-18.618 2.808-.231.047-.473.004-.674-.12-.201-.125-.347-.322-.408-.55-.061-.229-.033-.472.079-.68.112-.209.3-.367.524-.441.594-.134 1.188-.274 1.782-.413h.001c1.007-.236 2.016-.472 3.03-.686 6.361-1.326 12.906-2.174 19.414-1.599 5.503.523 10.886 1.92 15.95 4.135 10.304 4.415 19.244 11.645 26.969 19.68 5.509 5.729 10.498 11.898 15.489 18.069 2.848 3.521 5.696 7.043 8.642 10.484 2.718 3.175 5.59 6.189 8.463 9.204 1.202 1.262 2.404 2.523 3.595 3.797zm8.491 39.55l-.382-.397v-.001c-7.546-7.864-15.087-15.724-22.415-23.784-7.245-7.968-14.122-16.216-20.925-24.544-6.302-7.71-12.921-15.309-21.198-20.962-8.215-5.64-17.749-9.057-27.676-9.92-9.943-.822-19.91 1.26-28.693 5.992-1.091.599-2.155 1.235-3.192 1.908-.995.649-.081 2.263.921 1.615 8.272-5.321 17.947-8.045 27.78-7.82 9.816.275 19.379 3.17 27.698 8.387 8.381 5.16 15.088 12.53 21.323 20.026 1.502 1.809 2.985 3.637 4.468 5.464l.001.001v.001h.001v.001c1.682 2.072 3.364 4.145 5.075 6.193 3.486 4.172 7.068 8.27 10.702 12.316 7.304 8.108 14.844 16.046 22.406 23.932l2.772 2.889c.84.863 2.159-.434 1.334-1.297zm-27.507-15.67c6.429 8.543 13.451 16.624 21.013 24.183.848.877-.479 2.145-1.319 1.29-.919-.924-1.833-1.853-2.742-2.786-7.269-7.526-14.018-15.537-20.203-23.977-2.015-2.741-3.987-5.519-5.958-8.297h-.001v-.001c-4.136-5.827-8.272-11.655-12.813-17.145-5.941-7.171-12.648-13.922-20.549-18.964-7.868-5.116-16.954-8.052-26.328-8.505-9.391-.406-18.719 1.722-27.005 6.161-1.047.597-1.983-1.046-.922-1.614 1.062-.567 2.138-1.113 3.236-1.607 8.694-3.931 18.269-5.51 27.765-4.577 9.435 1.01 18.457 4.407 26.217 9.869 7.93 5.491 14.645 12.538 20.637 20.07 3.939 4.945 7.601 10.098 11.262 15.251 2.539 3.572 5.078 7.145 7.71 10.649zm11.616 22.554c2.179 2.337 4.175 4.838 5.97 7.481 1.695 2.558 3.309 5.521 3.177 8.682-.118 2.646-1.452 5.403-4.032 6.413-1.11.46-2.343.528-3.497.193-1.153-.335-2.158-1.053-2.849-2.036-.656-1.002.958-1.916 1.607-.921.292.411.68.745 1.131.971.451.226.951.338 1.456.326 2.579.037 4.127-2.351 4.319-4.71.236-3.014-1.43-5.815-3.059-8.225-2.615-3.872-5.846-7.248-9.071-10.617v-.001c-1.048-1.094-2.095-2.188-3.12-3.298-6.215-6.731-11.454-14.27-16.682-21.792l-.001-.001c-1.114-1.604-2.227-3.206-3.35-4.8-6.272-8.911-12.957-17.726-21.559-24.543-8.745-6.863-19.24-11.135-30.292-12.331-11.064-1.282-22.266.535-32.357 5.248-1.076.508-1.997-1.099-.921-1.607 1.319-.634 2.653-1.209 4.009-1.74 10.885-4.186 22.726-5.237 34.178-3.032 11.452 2.204 22.056 7.575 30.609 15.503 8.226 7.563 14.646 16.808 20.993 25.949l.647.932.275.394h.001v.001c3.254 4.659 6.509 9.32 10.043 13.778 2.761 3.487 5.785 6.715 8.815 9.949 1.191 1.272 2.383 2.544 3.56 3.834zm-43.317-43.781c-8.017-9.493-19.053-15.944-31.258-18.272-3.425-.651-6.906-.962-10.393-.929-.311.024-.601.165-.813.394-.212.229-.33.529-.33.841 0 .312.118.612.33.841.212.229.502.369.813.394 11.915-.081 23.493 3.955 32.777 11.424 2.594 2.101 4.976 4.451 7.112 7.017 1.025 1.253 2.772-.494 1.762-1.71zm40.214 83.095c-9.154-5.661-16.061-14.159-21.869-23.077-2.803-4.304-5.384-8.746-7.965-13.188v-.001h-.001v-.001c-3.111-5.355-6.222-10.709-9.723-15.821-6.198-9.044-13.709-17.217-23.335-22.657-8.845-5.012-19.222-7.488-29.32-5.528-9.132 1.777-17.836 7.061-22.694 15.125-.583.971-1.105 1.978-1.562 3.014-.154.286-.193.62-.11.933.084.314.284.584.559.755.286.159.622.2.937.115.315-.086.585-.291.751-.572 3.685-8.321 11.506-14.004 20.159-16.377 9.581-2.595 19.605-.737 28.295 3.729 9.493 4.909 17.048 12.589 23.166 21.242 3.919 5.542 7.325 11.406 10.731 17.27v.001h.001v.002h.001v.001l.001.001c2.192 3.773 4.383 7.547 6.712 11.234 5.638 8.919 12.161 17.49 20.762 23.748 1.062.776 2.15 1.513 3.265 2.211 1.349.833 2.588-1.319 1.239-2.159zm-5.58 7.799c-8.889-4.548-15.751-12.051-21.264-20.232-4.034-5.991-7.387-12.379-10.74-18.768-1.725-3.287-3.45-6.575-5.269-9.808-5.35-9.515-11.593-18.957-20.637-25.229-4.424-3.124-9.541-5.127-14.91-5.838-5.182-.579-10.421.324-15.11 2.602-9.766 4.592-16.333 13.584-21.529 22.723-.671 1.18-1.327 2.374-1.976 3.568-.737 1.4 1.379 2.638 2.138 1.238 4.923-9.095 10.613-18.426 19.716-23.851 4.202-2.617 9.053-4.006 14.004-4.01 5.253.193 10.358 1.788 14.785 4.622 9.088 5.601 15.353 14.859 20.579 23.939 2.127 3.703 4.112 7.482 6.097 11.261 3.022 5.754 6.045 11.509 9.572 16.998 5.307 8.24 11.793 15.979 20.225 21.168 1.017.624 2.056 1.209 3.118 1.754 1.378.722 2.616-1.415 1.201-2.137zm-75.341-72.041c1.548-.095 3.552.288 4.422 1.762 1.025 1.725.015 3.523-1.452 4.518-.883.599-1.886 1.024-2.886 1.448-.661.281-1.32.56-1.941.888-1.663.877-3.257 1.877-4.769 2.993-13.761 10.083-19.105 27.477-19.746 43.862-.059 1.577-2.535 1.592-2.469 0 .369-9.493 2.123-19.001 6.154-27.654 3.111-6.803 7.776-12.779 13.621-17.446 2.895-2.224 6.06-4.071 9.42-5.499l.057-.025.071-.031c.678-.293 2.651-1.147 1.67-1.956-.958-.791-2.819-.399-4.03-.144l-.341.07c-7.097 1.393-13.259 6.029-17.564 11.712-4.982 6.582-7.834 14.432-10.2 22.259-.457 1.526-2.845.899-2.388-.626 2.749-9.103 6.206-18.346 12.64-25.547 4.99-5.579 12.088-10.134 19.731-10.584zm14.453 8.698c-10.717-1.806-21.227 4.076-27.308 12.692-6.847 9.692-8.572 22.222-8.181 33.823.256 7.323 1.45 14.584 3.553 21.603.457 1.526 2.845.892 2.388-.634-3.42-11.417-4.607-23.851-2.595-35.644 1.762-10.318 6.486-20.534 15.766-26.099 4.695-2.822 10.282-4.297 15.751-3.375 1.555.287 2.196-2.108.626-2.366zm50.436 66.075c1.149 1.329 2.304 2.666 3.31 4.085 1.04 1.467 1.622 3.457.642 5.115-1.04 1.814-3.207 1.961-5.012 1.371-3.493-1.256-6.665-3.269-9.287-5.896-2.591-2.547-4.91-5.355-6.921-8.38-2.353-3.427-4.521-6.977-6.494-10.636-3.963-7.48-7.189-15.327-9.633-23.431-2.366-7.636-4.872-15.721-11.056-21.205-1.186-1.054.575-2.786 1.762-1.739 6.562 5.813 9.234 14.393 11.759 22.503l.107.345c2.315 7.618 5.359 14.996 9.088 22.031 1.853 3.449 3.87 6.798 6.052 10.046 1.921 2.96 4.13 5.723 6.596 8.247 2.326 2.421 5.129 4.331 8.233 5.609 1.157.443 3.125.833 2.83-1.076-.246-.883-.716-1.687-1.363-2.336-.412-.501-.828-.999-1.246-1.498l-.005-.007-.003-.003-.803-.961-16.76-20.129c-1.01-1.216.744-2.963 1.761-1.74l10.061 12.081 4.924 5.896c.477.572.967 1.139 1.458 1.708zm-6.824 13.181c-7.179-3.995-12.803-10.194-17.115-17.115-4.842-7.776-8.011-16.407-10.893-25.059-.526-1.573-1.042-3.148-1.559-4.722-1.003-3.061-2.007-6.12-3.077-9.157l-.11-.312c-1.358-3.854-2.758-7.826-5.226-11.127-1.194-1.674-2.733-3.072-4.513-4.101-1.78-1.029-3.76-1.663-5.806-1.862-4.203-.315-8.375.923-11.727 3.479-7.37 5.52-10.009 14.741-11.505 23.431-.161.932-.309 1.865-.457 2.801l-.001.006-.031.194-.031.196-.062.392c-.067.312-.013.638.152.911.164.274.426.475.732.563.313.072.641.021.916-.144.275-.165.475-.431.558-.74l.001-.003c1.363-8.498 2.867-17.871 9.36-24.128 2.793-2.8 6.544-4.435 10.495-4.577 1.907-.039 3.795.382 5.504 1.226 1.71.844 3.192 2.087 4.321 3.623 2.307 3.014 3.616 6.705 4.88 10.27l.28.786c1.063 3.026 2.063 6.072 3.062 9.118.475 1.45.951 2.9 1.434 4.348 2.815 8.469 5.896 16.952 10.473 24.632 4.577 7.681 10.776 14.742 18.729 19.164 1.378.818 2.609-1.32 1.216-2.093zm-6.825 3.669c-8.713-6.291-15.726-14.649-20.409-24.323-3.01-6.214-4.906-12.831-6.805-19.457-1.394-4.863-2.789-9.73-4.627-14.447-1.798-4.592-4.046-9.906-9.058-11.712-5.012-1.806-10.481 1.312-13.348 5.425-3.074 4.422-4.216 10.157-4.924 15.39-2.142 15.902 1.713 32.032 10.813 45.247.737 1.106 1.585 2.175 2.425 3.229.233.229.546.357.873.357.327 0 .641-.128.874-.357.224-.236.348-.549.348-.874 0-.325-.124-.638-.348-.873-6.306-7.98-10.505-17.415-12.213-27.441-.865-5.014-1.112-10.116-.737-15.19.182-2.489.524-4.963 1.024-7.408.465-2.575 1.207-5.094 2.211-7.51 1.872-4.253 5.808-8.587 10.938-7.879 4.879.678 7.113 6.206 8.683 10.208 1.895 4.825 3.333 9.806 4.771 14.787 1.778 6.157 3.555 12.314 6.196 18.174 4.307 9.505 10.782 17.868 18.905 24.418 1.037.831 2.094 1.634 3.17 2.41.284.162.62.205.936.121.315-.084.585-.289.751-.57.17-.289.217-.632.133-.956-.084-.323-.294-.6-.582-.769zm-24.972-19c4.847 8.154 10.858 15.556 17.844 21.972 1.172 1.076-.626 2.808-1.761 1.717-4.036-3.7-7.751-7.733-11.108-12.058-5.986-7.716-10.84-16.246-14.416-25.333-3.564-9.063-5.784-18.598-6.59-28.303-.132-1.577 2.344-1.569 2.477 0 .438 5.311 1.323 10.575 2.646 15.737 2.357 9.234 6.031 18.081 10.908 26.268zm7.592 21.617c-10.885-14.125-18.737-30.344-23.062-47.643-.538-2.153-1.025-4.327-1.474-6.501-.058-.276-.112-.553-.166-.83l-.001-.001c-.374-1.907-.749-3.816-1.978-5.361-1.312-1.599-3.568-2.461-5.528-1.577-1.725.781-2.558 2.683-2.948 4.422-.905 4.653-1.153 9.409-.737 14.13.326 4.833 1.184 9.616 2.557 14.262 2.653 8.734 6.803 16.942 12.265 24.256.678.924 1.371 1.833 2.078 2.727.115.115.251.207.401.269.149.063.31.095.473.095.162 0 .323-.032.473-.095.149-.062.286-.154.4-.269.226-.235.352-.548.352-.873 0-.326-.126-.639-.352-.874-10.989-13.952-17.888-31.545-16.016-49.493.02-.203.04-.41.059-.621v-.001c.151-1.61.319-3.407 1.12-4.795.907-1.57 2.587-1.187 3.575.066.965 1.226 1.241 2.954 1.497 4.553.07.44.139.87.22 1.277.423 2.094.894 4.172 1.415 6.236 4.459 17.565 12.488 34.024 23.586 48.35.233.23.547.358.873.358.327 0 .641-.128.874-.358.219-.228.346-.529.354-.846.008-.316-.103-.624-.31-.863zm-10.407-1.599c-7.86-11.08-13.302-23.689-15.972-37.008-.756-3.746-1.285-7.533-1.585-11.343-.118-1.577-2.594-1.577-2.469 0 1.062 13.863 5.027 27.348 11.638 39.58 1.867 3.449 3.942 6.782 6.213 9.979.169.279.438.482.752.568.314.086.649.049.936-.103.283-.162.491-.426.582-.738.091-.313.057-.648-.095-.935zM233.181 206.3c-.123 10.785 2.532 21.42 7.71 30.882.759 1.393-1.386 2.624-2.152 1.209-5.381-9.833-8.145-20.883-8.027-32.091.015-1.577 2.469-1.592 2.469 0zm51.174-14.261l5.52 10.15c.767 1.4-1.378 2.624-2.145 1.223-1.842-3.38-3.683-6.763-5.52-10.149-.767-1.393 1.408-2.624 2.145-1.224zm15.905-37.818c7.828 10.904 15.653 21.815 23.475 32.733.157.281.197.613.113.924-.084.311-.285.577-.562.742-.287.155-.621.194-.936.109-.314-.085-.583-.288-.752-.566l-6.634-9.243-23.482-32.718c-.161-.285-.203-.622-.118-.937.086-.316.292-.586.575-.751.287-.152.622-.189.936-.103.314.086.583.289.752.568l6.633 9.242zm14.709 40.89c2.684 3.53 5.417 7.124 8.965 9.812.973.708.052 2.322-.899 1.556-.922-.691-1.808-1.429-2.654-2.212-2.943-2.796-5.405-6.083-7.84-9.333-.504-.673-1.007-1.345-1.513-2.01L301.1 180.04c-1.81-2.37-3.61-4.751-5.41-7.134-4.436-5.871-8.876-11.748-13.495-17.468-5.904-7.312-12.515-14.122-20.932-18.545-8.268-4.387-17.665-6.185-26.969-5.159-8.884 1.05-17.196 4.926-23.711 11.056-.862.825-2.167-.494-1.297-1.319.82-.787 1.673-1.538 2.557-2.256 7.099-5.669 15.772-9.015 24.839-9.581 9.489-.511 18.922 1.753 27.146 6.515 8.38 4.776 14.969 11.94 20.865 19.429 4.678 5.903 9.23 11.91 13.782 17.915l.001.001v.001h.001v.001h.001v.001l.001.001c1.903 2.51 3.805 5.02 5.717 7.523l9.994 13.068c.26.339.519.68.779 1.022zm17.117 12.067l-3.729-.987c-.239-.059-.49-.023-.702.101-.212.124-.368.325-.433.562-.057.238-.02.489.104.701.123.211.324.367.559.434l3.752.995c.237.061.489.025.7-.099.211-.125.365-.327.427-.564.061-.242.024-.497-.103-.711-.127-.214-.334-.369-.575-.432zm-30.098-39.381v-.001c-3.913-5.863-7.826-11.727-12.142-17.283-10.194-13.141-23.741-25.303-40.737-28.008-5.331-.773-10.745-.773-16.075 0-5.29.612-10.478 1.908-15.434 3.855-.212.122-.368.323-.433.559-.065.236-.034.488.086.702.125.209.326.362.561.426.235.065.486.036.7-.08 8.847-3.31 18.308-4.658 27.728-3.951 8.203.804 15.957 4.113 22.745 8.705 13.467 9.104 22.612 22.823 31.504 36.164l.002.002c.675 1.013 1.349 2.024 2.023 3.03 5.586 8.351 11.372 16.636 18.382 23.873.825.819 2.152-.464 1.319-1.326-7.813-8.062-14.02-17.363-20.229-26.667zm17.612-41.208c-1.943-3.308-4.066-6.506-6.36-9.582-2.042-2.837-4.12-5.653-6.273-8.417-4.261-5.601-9.009-10.815-14.188-15.581-5.153-4.715-10.984-8.63-17.299-11.616-6.41-2.959-13.249-4.884-20.261-5.705-3.526-.42-7.081-.552-10.628-.39-3.354.154-6.921.39-10.142 1.407-2.587.819-6.951 3.325-5.418 6.693 1.07 2.347 4.255 2.529 6.71 2.67.421.024.821.047 1.184.08l.433.038c13.939 1.263 28.486 2.58 41.049 9.285 12.176 6.493 20.733 17.689 28.42 28.811.809 1.164 1.607 2.338 2.404 3.509l.001.002.485.712c.663.981 2.277.067 1.606-.913-7.37-10.901-15.065-22.112-25.878-29.903-11.276-8.159-25.059-10.915-38.665-12.434-3.148-.349-6.308-.637-9.468-.925h-.001l-.931-.084c-.324-.03-.652-.051-.982-.073-1.172-.078-2.365-.156-3.44-.576-.516-.15-.956-.49-1.231-.95-.354-.738.14-1.556.641-2.094 2.13-2.286 5.75-2.698 8.708-3.035l.336-.039c3.398-.38 6.821-.489 10.237-.324 13.766.693 26.953 5.753 37.649 14.446 5.243 4.34 10.038 9.195 14.313 14.491 4.423 5.365 8.609 11.004 12.53 16.782 1.017 1.511 1.99 3.052 2.882 4.636.142.165.337.275.551.311.214.035.434-.005.621-.115.188-.109.331-.281.405-.485.074-.204.074-.428 0-.632zm-97.195-32.615c3.822-1.708 7.801-3.038 11.882-3.972 1.201-.266 1.643 1.525.464 1.79-3.926.889-7.755 2.16-11.432 3.796-.213.107-.458.128-.686.058-.228-.07-.42-.223-.537-.43-.118-.208-.151-.452-.093-.683.057-.23.201-.43.402-.559z" clip-rule="evenodd"/>
    <defs>
        <linearGradient id="prefix__paint0_linear" x1="130.844" x2="-10.785" y1="94.727" y2="121.752" gradientUnits="userSpaceOnUse">
            <stop stop-color="#5BFECC"/>
            <stop offset="1" stop-color="#1CC994" stop-opacity="0"/>
        </linearGradient>
        <linearGradient id="prefix__paint1_linear" x1="384.076" x2="559.737" y1="184.309" y2="215.838" gradientUnits="userSpaceOnUse">
            <stop stop-color="#5BFECC"/>
            <stop offset="1" stop-color="#1CC994" stop-opacity="0"/>
        </linearGradient>
        <linearGradient id="prefix__paint2_linear" x1="195.661" x2="-10.285" y1="175.322" y2="216.338" gradientUnits="userSpaceOnUse">
            <stop stop-color="#5BFECC"/>
            <stop offset="1" stop-color="#1CC994" stop-opacity="0"/>
        </linearGradient>
        <linearGradient id="prefix__paint3_linear" x1="419.108" x2="560.237" y1="139.268" y2="163.29" gradientUnits="userSpaceOnUse">
            <stop stop-color="#5BFECC"/>
            <stop offset="1" stop-color="#1CC994" stop-opacity="0"/>
        </linearGradient>
        <linearGradient id="prefix__paint4_linear" x1="394.085" x2="548.226" y1="158.285" y2="175.301" gradientUnits="userSpaceOnUse">
            <stop stop-color="#5BFECC"/>
            <stop offset="1" stop-color="#1CC994" stop-opacity="0"/>
        </linearGradient>
        <linearGradient id="prefix__paint5_linear" x1="210.417" x2="1.226" y1="127.257" y2="153.281" gradientUnits="userSpaceOnUse">
            <stop stop-color="#5BFECC"/>
            <stop offset="1" stop-color="#1CC994" stop-opacity="0"/>
        </linearGradient>
        <linearGradient id="prefix__paint6_linear" x1="90.281" x2="23.246" y1="180.689" y2="224.846" gradientUnits="userSpaceOnUse">
            <stop stop-color="#5BFECC"/>
            <stop offset="1" stop-color="#1CC994" stop-opacity="0"/>
        </linearGradient>
        <linearGradient id="prefix__paint7_linear" x1="52.209" x2="12.736" y1="109.961" y2="110.241" gradientUnits="userSpaceOnUse">
            <stop stop-color="#5BFECC"/>
            <stop offset="1" stop-color="#1CC994" stop-opacity="0"/>
        </linearGradient>
        <linearGradient id="prefix__paint8_linear" x1="108.572" x2="108.572" y1="172.36" y2="180.688" gradientUnits="userSpaceOnUse">
            <stop stop-color="#5BFECC"/>
            <stop offset="1" stop-color="#1CC994"/>
        </linearGradient>
        <linearGradient id="prefix__paint9_linear" x1="28.25" x2="20.744" y1="108.24" y2="107.739" gradientUnits="userSpaceOnUse">
            <stop stop-color="#5BFECC"/>
            <stop offset="1" stop-color="#1CC994" stop-opacity="0"/>
        </linearGradient>
        <linearGradient id="prefix__paint10_linear" x1="40.261" x2="33.755" y1="220.342" y2="220.342" gradientUnits="userSpaceOnUse">
            <stop stop-color="#5BFECC"/>
            <stop offset="1" stop-color="#1CC994" stop-opacity="0"/>
        </linearGradient>
        <linearGradient id="prefix__paint11_linear" x1="467.645" x2="467.645" y1="134.401" y2="158.982" gradientUnits="userSpaceOnUse">
            <stop stop-color="#5BFECC"/>
            <stop offset="1" stop-color="#1CC994"/>
        </linearGradient>
        <linearGradient id="prefix__paint12_linear" x1="465.098" x2="465.098" y1="174.8" y2="175.8" gradientUnits="userSpaceOnUse">
            <stop stop-color="#5BFECC"/>
            <stop offset="1" stop-color="#1CC994"/>
        </linearGradient>
        <linearGradient id="prefix__paint13_linear" x1="425.15" x2="425.15" y1="194.243" y2="195.244" gradientUnits="userSpaceOnUse">
            <stop stop-color="#5BFECC"/>
            <stop offset="1" stop-color="#1CC994"/>
        </linearGradient>
        <linearGradient id="prefix__paint14_linear" x1="453.036" x2="453.036" y1="190.963" y2="197.522" gradientUnits="userSpaceOnUse">
            <stop stop-color="#5BFECC"/>
            <stop offset="1" stop-color="#1CC994"/>
        </linearGradient>
        <linearGradient id="prefix__paint15_linear" x1="486.632" x2="486.632" y1="171.519" y2="178.079" gradientUnits="userSpaceOnUse">
            <stop stop-color="#5BFECC"/>
            <stop offset="1" stop-color="#1CC994"/>
        </linearGradient>
        <linearGradient id="prefix__paint16_linear" x1="507.188" x2="539.718" y1="131.761" y2="137.767" gradientUnits="userSpaceOnUse">
            <stop stop-color="#5BFECC"/>
            <stop offset="1" stop-color="#1CC994" stop-opacity="0"/>
        </linearGradient>
        <linearGradient id="prefix__paint17_linear" x1="81.799" x2="42.263" y1="166.793" y2="172.298" gradientUnits="userSpaceOnUse">
            <stop stop-color="#5BFECC"/>
            <stop offset="1" stop-color="#1CC994" stop-opacity="0"/>
        </linearGradient>
        <linearGradient id="prefix__paint18_linear" x1="277.511" x2="277.511" y1="51.381" y2="251.83" gradientUnits="userSpaceOnUse">
            <stop stop-color="#5BFECC"/>
            <stop offset="1" stop-color="#1CC994"/>
        </linearGradient>
    </defs>
</svg>
