<svg xmlns="http://www.w3.org/2000/svg" width="730" height="672" fill="none" viewBox="0 0 730 672">
    <path fill="#F1E5D4" d="M361.602 392.932c-1 .22-2 .44-3.07.63 1.03-.19 2.05-.41 3.07-.63z"/>
    <path fill="#F7EFE5" d="M236.251 390.852c-.762-1.462-1.215-3.066-1.33-4.711.115 1.645.568 3.249 1.33 4.711zM234.93 384.721c.005.047.005.094 0 .14v0c.005-.046.005-.093 0-.14zM351.261 394.533c.981-.08 1.961-.18 2.941-.3-1.014.093-1.994.193-2.941.3zM236.991 357.139c0-.2 0-.41.08-.61-.03.2-.05.41-.08.61zM240.391 335.557c0 .16-.07.32-.1.48.03-.16.06-.32.1-.48zM239.571 339.778c0 .14 0 .28-.08.42.03-.14.05-.28.08-.42zM237.551 352.638v.15c.005-.05.005-.1 0-.15zM236.561 361.069c0-.21.05-.43.07-.64-.02.21-.05.43-.07.64zM238.401 393.742c1.139 1.149 2.5 2.054 4 2.661-1.5-.607-2.861-1.512-4-2.661zM235.031 382.232v-.92c.02.31.01.62 0 .92zM242.381 396.372c1.547.637 3.209.944 4.881.9l99.489-2.51-99.499 2.54c-1.671.033-3.33-.284-4.871-.93zM346.751 394.792c1.2 0 2.39-.1 3.57-.19-1.18.09-2.37.16-3.57.19zM235.161 379.371c0-.34 0-.69.05-1 .04.29-.03.64-.05 1zM235.561 372.67c0-.24 0-.47.05-.71-.02.24-.03.47-.05.71zM236.191 364.79v-.331c.06.11.06.221 0 .331zM235.331 376.211l.06-1.001-.06 1.001z"/>
    <path fill="url(#prefix__paint0_linear)" fill-rule="evenodd" d="M91.75 489.19c-5.172-3.261-12.357-3.182-20.777.228-16.946 6.864-34.848 25.395-38.315 39.653-4.764 19.61-11.75 34.053-11.83 34.217v.001c-.158.322-.245.673-.257 1.032-.012.358.052.715.188 1.046 3.943 9.605 21.256 14.006 23.217 14.477.46.111.943.09 1.392-.059.45-.15.849-.422 1.152-.786.427-.513.887-1.264 1.582-2.399l.01-.016c2.96-4.83 9.867-16.101 24.064-23.488 11.81-6.147 23.874-25.555 26.352-42.376 1.497-10.184-.91-17.829-6.778-21.53zm1.752 20.788c-2.228 15.167-13.29 33.209-23.67 38.609-15.463 8.046-22.89 20.177-26.06 25.356l-.063.102-.247.405c-5.14-1.47-14.573-5.074-17.533-10.075 1.773-3.842 7.482-16.889 11.673-34.109 3.083-12.684 19.9-29.91 35.283-36.143 4.772-1.932 11.448-3.613 16.16-.639 5.478 3.46 5.145 11.818 4.457 16.494zm-3.072-.452c.29-1.896.394-3.817.308-5.734-.212-3.827-1.342-6.41-3.347-7.679-3.79-2.391-9.987-.468-13.339.89-14.359 5.814-30.6 22.336-33.435 33.998-3.77 15.52-8.801 27.786-11.102 32.987 2.446 2.634 7.583 5.12 12.572 6.785 3.74-5.997 11.484-17.222 26.309-24.936 9.463-4.925 19.965-22.237 22.034-36.311zM9.488 608.163c-25.33-17.687 8.073-39.875 8.073-39.875s8.943 12.513 26.71 15.812c0 0-9.454 41.751-34.783 24.063zm96.98-39.975c-16.624 3.591-35.193 16.915-40.537 29.108-6.435 14.67-17.24 22.316-21.852 25.575-1.09.77-1.808 1.278-2.29 1.738-.343.326-.588.742-.707 1.2-.12.459-.108.941.032 1.393.6 1.927 6.14 18.91 15.987 22.206.34.112.7.152 1.057.116.356-.036.701-.147 1.012-.325l.013-.008c.507-.286 14.336-8.091 33.346-14.071 13.998-4.405 31.297-23.495 37.021-40.862 2.842-8.627 2.447-15.802-1.151-20.747-4.092-5.598-11.876-7.484-21.931-5.323zm17.821 8.321c3.28 4.507 2.045 11.279.435 16.168-5.198 15.765-21.273 33.688-33.72 37.606-16.904 5.32-29.541 11.883-33.263 13.908-5.187-2.622-9.403-11.796-11.216-16.826l.482-.343c4.958-3.507 16.57-11.724 23.57-27.692 4.698-10.716 21.97-22.951 36.957-26.182 4.619-.99 12.937-1.878 16.75 3.363l.005-.002zm-16.099-.321c1.873-.416 3.783-.646 5.701-.687 3.832-.043 6.484.912 7.89 2.838 2.637 3.623 1.129 9.93-.004 13.368-4.848 14.705-20.256 32.015-31.704 35.617-15.234 4.793-27.14 10.627-32.177 13.268-2.79-2.266-5.613-7.226-7.605-12.094 5.733-4.138 16.417-12.614 23.132-27.914 4.285-9.775 20.855-21.395 34.767-24.396zm-93.047 87.313c-19.33-24.098 21.697-36.305 21.697-36.305 4.475 17.508 17.555 25.603 17.555 25.603s-19.923 34.799-39.252 10.702z" clip-rule="evenodd" opacity=".8"/>
    <path fill="url(#prefix__paint1_linear)" fill-rule="evenodd" d="M321.113 374.633c-2.571-3.752-7.506-5.815-14.264-5.964-13.604-.302-31.293 7.086-37.861 15.808-9.04 12.004-18.074 19.817-18.167 19.896-.202.173-.365.388-.478.629-.114.242-.175.504-.179.771-.137 7.724 10.397 15.832 11.599 16.731.283.212.619.341.971.372.353.03.706-.039 1.021-.199.443-.223.978-.601 1.788-1.174l.007-.005c3.442-2.426 11.486-8.096 23.366-8.963 9.881-.722 23.844-10.427 30.487-21.197 4.022-6.515 4.629-12.449 1.71-16.705zm-4.925 14.715c-5.991 9.707-18.863 18.777-27.548 19.411-12.929.943-21.575 7.039-25.271 9.645l-.005.004c-.121.083-.243.166-.36.249-3.077-2.52-8.469-7.76-9.013-12.047 2.344-2.103 10.088-9.336 18.02-19.871 5.843-7.759 22.408-14.575 34.755-14.298 3.829.085 8.887.903 11.232 4.323 2.727 3.982.036 9.597-1.811 12.589l.001-.005zm-1.966-1.212c.757-1.209 1.393-2.49 1.898-3.824.982-2.677.972-4.774-.029-6.24-1.885-2.749-6.679-3.258-9.376-3.32-11.519-.255-27.489 6.249-32.861 13.383-7.149 9.494-14.2 16.393-17.304 19.269.896 2.52 3.673 5.733 6.592 8.341 4.328-2.995 12.925-8.384 25.328-9.288 7.916-.578 20.189-9.305 25.752-18.321zm-84.365 43.561c-12.1-19.549 17.262-24.87 17.262-24.87s2.426 11.185 13.591 18.672c0 0-18.754 25.748-30.853 6.198zm72.089 10.623c-12.416-2.448-29.026 1.193-36.273 7.949-8.705 8.116-18.327 10.162-22.448 11.038l-.021.004-.272.059c-.821.177-1.383.299-1.803.455-.331.122-.621.334-.837.612-.217.278-.351.611-.388.962-.158 1.491-1.375 14.728 4.382 19.881.199.178.433.312.687.393.254.08.522.106.787.076.117-.014 11.991-1.327 26.941.207 10.862 1.113 28.307-6.838 37.333-17.016 4.485-5.058 6.326-10.078 5.325-14.516-1.137-5.035-5.901-8.625-13.413-10.104zm9.726 10.937c.915 4.045-1.925 8.309-4.466 11.176-8.195 9.24-24.455 16.749-34.119 15.762-13.119-1.344-23.688-.583-26.822-.295-2.772-3.319-2.957-10.831-2.708-14.8l.431-.092.001-.001c4.417-.936 14.775-3.131 24.261-11.974 6.37-5.938 21.773-9.211 32.965-7.004 3.45.679 9.395 2.518 10.457 7.226v.002zm-10.905-4.963c1.403.268 2.776.673 4.099 1.21 2.632 1.095 4.162 2.533 4.556 4.263.735 3.253-2.154 7.119-3.94 9.134-7.644 8.62-23.271 15.909-32.155 14.998-11.827-1.213-21.68-.733-25.899-.413-1.24-2.37-1.704-6.59-1.634-10.504 5.138-1.134 14.935-3.783 24.03-12.259 5.807-5.414 20.555-8.477 30.943-6.429zm-89.298 32.253c-6.107-22.16 25.52-18.415 25.52-18.415-2.099 13.281 4.454 22.664 4.454 22.664s-23.867 17.911-29.974-4.249z" clip-rule="evenodd" opacity=".8"/>
    <path fill="url(#prefix__paint2_linear)" fill-rule="evenodd" d="M528.93 181.123c6.996 1.389 11.745 4.433 13.734 8.801 2.256 4.955.542 11.011-4.826 17.047-8.871 9.976-25.153 17.514-35.553 16.46-12.505-1.268-21.901 3.158-25.919 5.051l-.006.002-.003.002c-.945.445-1.569.74-2.069.892-.356.108-.734.114-1.094.019-.359-.096-.684-.29-.939-.561-1.087-1.151-10.551-11.501-8.999-19.503.053-.276.164-.538.326-.768.162-.23.371-.423.613-.567.109-.064 10.919-6.531 22.507-17.359 8.414-7.861 28.15-12.312 42.228-9.516zm-26.242 38.341c9.139.927 24.172-6.149 32.169-15.143 2.466-2.771 6.286-8.112 4.177-12.744-1.812-3.981-6.913-5.76-10.881-6.543-12.781-2.538-31.239 1.522-38.728 8.519-10.166 9.498-19.53 15.603-22.352 17.357-.21 4.557 4.429 10.984 7.166 14.165l.422-.197c4.314-2.034 14.413-6.795 28.027-5.414zm33.022-20.393c-.769 1.296-1.664 2.512-2.673 3.631-7.424 8.349-21.774 15.18-30.103 14.337-13.054-1.324-22.971 2.706-28.015 5.028-2.556-3.242-4.856-7.086-5.327-9.868 3.75-2.424 12.337-8.306 21.498-16.866 6.884-6.433 24.667-10.277 36.589-7.909 2.788.554 7.681 1.961 9.139 5.161.77 1.705.402 3.885-1.108 6.486zm-17.423 49.038c-12.454-4.81-30.384-4.055-39.144 1.637-10.539 6.854-20.92 7.218-25.357 7.374h-.005l-.038.001c-1.025.036-1.704.06-2.214.153-.366.067-.705.234-.981.484-.276.249-.476.571-.579.928-.437 1.522-4.117 15.056.926 21.46.174.221.393.403.642.533.249.131.523.207.804.224.125.008 12.7.811 27.956 5.132 11.083 3.14 30.662-1.937 41.9-10.867 5.586-4.437 8.415-9.317 8.179-14.108-.258-5.442-4.557-10.038-12.089-12.951zm8.114 13.144c.211 4.371-3.516 8.285-6.681 10.797-10.203 8.107-28.47 12.947-38.332 10.153-13.385-3.793-24.507-4.931-27.817-5.203-2.275-3.955-1.093-11.79-.112-15.875l.352-.011h.002l.111-.004h.002c4.767-.168 15.925-.559 27.395-8.016 7.702-5.007 24.307-5.597 35.533-1.261 3.456 1.332 9.298 4.333 9.547 9.42zm-10.433-7.155c1.409.534 2.762 1.206 4.039 2.006 2.536 1.626 3.865 3.396 3.954 5.262.17 3.513-3.537 7.004-5.761 8.772-9.518 7.562-27.087 12.284-36.152 9.715-12.062-3.423-22.396-4.716-26.835-5.158-.854-2.689-.571-7.16.218-11.213 5.549-.244 16.211-1.201 27.211-8.352 7.021-4.565 22.906-5.056 33.326-1.032zm-98.676 17.218c-2.304-24.142 29.88-14.477 29.88-14.477-4.607 13.417.489 24.363.489 24.363s-28.066 14.257-30.369-9.886zm20.129-38.753c-9.006-22.517 22.477-22.692 22.477-22.692s.479 12.066 10.716 21.887c0 0-24.188 23.323-33.193.805z" clip-rule="evenodd"/>
    <path fill="url(#prefix__paint3_linear)" fill-rule="evenodd" d="M699.16 163.316c4.224-1.707 7.826-1.743 10.417-.105 2.94 1.857 4.144 5.692 3.389 10.795-1.248 8.434-7.308 18.16-13.232 21.236-7.125 3.699-10.595 9.352-12.079 11.769l-.002.004-.001.002c-.349.568-.58.944-.794 1.2-.152.182-.352.318-.577.393-.226.075-.467.085-.698.029-.984-.234-9.662-2.451-11.633-7.269-.069-.166-.101-.345-.095-.524.006-.18.05-.356.129-.518.036-.072 3.547-7.31 5.948-17.15 1.744-7.144 10.73-16.429 19.228-19.862zm-.6 29.666c5.207-2.704 10.761-11.745 11.886-19.348.347-2.344.518-6.534-2.229-8.27-2.361-1.493-5.709-.657-8.103.313-7.716 3.117-16.156 11.746-17.707 18.105-2.107 8.632-4.972 15.17-5.866 17.095 1.482 2.507 6.21 4.317 8.786 5.059l.156-.253c1.592-2.597 5.321-8.675 13.077-12.701zm10.504-22.451c.042.961-.01 1.924-.157 2.875-1.044 7.058-6.319 15.73-11.064 18.194-7.437 3.861-11.324 9.485-13.206 12.491-2.501-.837-5.075-2.086-6.3-3.407 1.155-2.608 3.684-8.755 5.582-16.534 1.426-5.846 9.581-14.123 16.778-17.03 1.683-.68 4.79-1.641 6.689-.442 1.008.642 1.574 1.935 1.678 3.853zm7.854 32.294c-8.336 1.789-17.65 8.467-20.337 14.574-3.232 7.35-8.65 11.178-10.966 12.814l-.003.002-.02.014c-.534.378-.889.628-1.129.856-.172.164-.295.372-.355.602-.06.23-.054.472.016.698.3.966 3.07 9.484 8.005 11.14.17.057.351.078.53.061.178-.018.351-.073.507-.162.07-.04 7.069-4.012 16.731-7.043 7.02-2.201 15.702-11.766 18.58-20.469 1.431-4.325 1.235-7.922-.568-10.399-2.043-2.817-5.948-3.768-10.991-2.688zm8.935 4.182c1.642 2.261 1.021 5.656.21 8.106-2.613 7.902-10.678 16.88-16.924 18.839-8.478 2.658-14.818 5.943-16.681 6.956-2.6-1.316-4.71-5.916-5.616-8.441.08-.055.162-.114.243-.171l.001-.001c2.488-1.757 8.312-5.871 11.829-13.87 2.363-5.37 11.027-11.496 18.541-13.109 2.313-.498 6.483-.94 8.397 1.691zm-8.078-.171c.94-.208 1.898-.322 2.86-.342 1.924-.019 3.253.462 3.954 1.427 1.32 1.818.561 4.98-.008 6.703-2.438 7.37-10.171 16.041-15.912 17.842-7.642 2.393-13.615 5.319-16.141 6.636-1.397-1.137-2.811-3.625-3.808-6.066 2.879-2.073 8.24-6.315 11.613-13.985 2.153-4.896 10.467-10.718 17.442-12.215zm-46.688 43.733c-9.679-12.091 10.896-18.192 10.896-18.192 2.235 8.781 8.787 12.844 8.787 12.844s-10.003 17.439-19.683 5.348zm-2.809-27.747c-12.691-8.877 4.066-19.989 4.066-19.989s4.479 6.278 13.384 7.942c0 0-4.758 20.924-17.45 12.047z" clip-rule="evenodd" opacity=".7"/>
    <path fill="url(#prefix__paint4_linear)" fill-rule="evenodd" d="M669.971 92.429c-.185-3.086.542-5.478 2.104-6.919 1.771-1.634 4.415-1.786 7.443-.426 5.004 2.247 9.812 7.9 10.498 12.343.825 5.342 3.631 8.593 4.83 9.984l.002.002.001.001c.282.327.469.542.584.727.082.132.125.287.125.449 0 .162-.044.324-.127.467-.351.613-3.542 5.988-6.959 6.483-.118.017-.236.008-.347-.026-.111-.034-.212-.093-.296-.173-.038-.036-3.824-3.581-9.465-6.829-4.096-2.358-8.02-9.875-8.393-16.083zm18.39 5.394c-.603-3.904-5.089-9.107-9.6-11.132-1.39-.625-3.97-1.444-5.625.083-1.424 1.313-1.599 3.671-1.492 5.42.338 5.637 3.966 12.682 7.612 14.781 4.948 2.849 8.432 5.849 9.448 6.765 1.873-.56 3.987-3.387 4.986-4.968l-.125-.146c-1.289-1.493-4.306-4.987-5.204-10.803zm-11.824-10.74c.609.134 1.199.332 1.761.59 4.188 1.88 8.502 6.835 9.052 10.393.861 5.577 3.561 9.099 5.045 10.852-1.043 1.516-2.358 3.01-3.438 3.6-1.387-1.205-4.697-3.916-9.156-6.483-3.352-1.93-6.82-8.726-7.136-13.983-.073-1.23-.026-3.45 1.118-4.506.61-.56 1.535-.717 2.754-.462zm21.79.237c-.619 5.824 1.609 13.119 4.861 15.928 3.914 3.379 5.175 7.612 5.713 9.422l.001.002.005.016c.124.418.207.695.299.892.066.142.171.258.302.337.131.078.283.115.439.107.665-.036 6.558-.436 8.62-3.427.071-.103.121-.219.147-.34.027-.122.028-.246.005-.364-.01-.053-1.032-5.358-.911-12.27.088-5.02-4.074-12.383-8.906-15.756-2.402-1.676-4.688-2.152-6.609-1.375-2.183.878-3.59 3.305-3.966 6.828zm4.47-5.214c1.754-.708 3.743.276 5.103 1.226 4.388 3.062 8.312 9.917 8.234 14.385-.107 6.064.623 10.817.868 12.222-1.363 1.5-4.674 2.123-6.438 2.298l-.043-.145-.013-.044-.001-.001c-.578-1.945-1.933-6.496-6.192-10.173-2.86-2.47-4.88-9.241-4.321-14.49.171-1.616.763-4.454 2.803-5.278zm-1.788 5.322c.066-.658.194-1.311.382-1.952.389-1.278.966-2.077 1.714-2.38 1.41-.568 3.225.468 4.182 1.135 4.092 2.856 7.894 9.44 7.822 13.547-.098 5.465.484 9.915.781 11.81-1.001.734-2.848 1.251-4.58 1.501-.693-2.256-2.225-6.522-6.309-10.049-2.608-2.251-4.51-8.74-3.992-13.612zm17.572 38.295c-9.562 4.376-9.085-10.282-9.085-10.282 5.945-.001 9.846-3.658 9.846-3.658s8.801 9.564-.761 13.94zm-17.902-2.813c-8.184 6.913-11.629-6.06-11.629-6.06s4.851-1.909 7.744-7.529c0 0 12.068 6.677 3.885 13.589z" clip-rule="evenodd" opacity=".6"/>
    <path fill="url(#prefix__paint5_linear)" fill-rule="evenodd" d="M611.306 56.33c-1.173-1.48-1.646-2.933-1.369-4.2.315-1.439 1.586-2.44 3.578-2.82 3.292-.626 7.678.522 9.577 2.506 2.283 2.387 4.826 3.033 5.913 3.309h.002c.256.065.425.108.547.16.088.038.164.1.22.181.057.081.091.178.1.279.038.43.322 4.238-1.216 5.681-.053.05-.115.087-.183.109-.067.022-.138.027-.208.017-.032-.005-3.168-.455-7.13-.106-2.876.252-7.471-2.138-9.831-5.116zm11.096-3.736c-1.669-1.744-5.736-2.779-8.704-2.214-.914.174-2.493.666-2.787 2.01-.253 1.157.484 2.399 1.15 3.237 2.143 2.704 6.425 4.961 8.985 4.736 3.475-.305 6.269-.022 7.098.081.743-.936.812-3.092.758-4.233l-.113-.03c-1.168-.295-3.902-.989-6.387-3.587zm-9.68-1.238c.352-.147.716-.254 1.088-.322 2.755-.525 6.649.447 8.17 2.036 2.384 2.49 4.969 3.31 6.325 3.668.008 1.124-.127 2.333-.462 3.005-1.116-.117-3.722-.316-6.853-.04-2.354.206-6.469-1.983-8.467-4.505-.468-.59-1.221-1.718-1.018-2.647.11-.494.518-.896 1.217-1.195zm10.994-7.509c1.728 3.133 5.397 6.006 8.008 6.274 3.143.322 5.256 2 6.159 2.718l.001.001.008.006c.209.166.347.276.462.342.083.048.176.07.269.063.093-.007.182-.041.257-.1.321-.25 3.131-2.514 3.117-4.733 0-.076-.016-.152-.045-.222-.03-.07-.072-.133-.125-.184-.024-.023-2.392-2.322-4.751-5.824-1.713-2.545-6.374-4.775-9.974-4.773-1.789.002-3.1.563-3.791 1.625-.785 1.204-.64 2.912.405 4.807zm.413-4.175c.63-.968 1.971-1.172 2.984-1.173 3.269-.002 7.633 2.057 9.157 4.321 2.07 3.074 4.099 5.198 4.713 5.816-.157 1.228-1.597 2.7-2.419 3.404l-.072-.057-.023-.018c-.97-.771-3.242-2.576-6.661-2.926-2.297-.236-5.678-2.92-7.236-5.743-.48-.87-1.176-2.498-.443-3.624zm.967 3.29c-.197-.352-.361-.724-.491-1.11-.253-.777-.244-1.379.025-1.792.507-.778 1.778-.895 2.491-.896 3.049-.002 7.256 1.964 8.658 4.045 1.864 2.771 3.713 4.796 4.525 5.64-.245.719-.988 1.624-1.768 2.355-1.137-.887-3.397-2.487-6.677-2.823-2.093-.215-5.316-2.798-6.763-5.419zm22.203 13.025c-3.256 5.538-8.148-1.969-8.148-1.969 2.976-2.081 3.65-5.278 3.65-5.278s7.754 1.709 4.498 7.247zm-9.949 4.858c-1.678 6.325-7.944 1.035-7.944 1.035s1.761-2.654 1.242-6.48c0 0 8.38-.88 6.702 5.445z" clip-rule="evenodd" opacity=".3"/>
    <path fill="url(#prefix__paint6_linear)" fill-rule="evenodd" d="M528.195 12.892c-.606-1.789-.563-3.316.125-4.416.78-1.249 2.314-1.764 4.317-1.451 3.311.518 7.055 3.074 8.176 5.581 1.347 3.015 3.524 4.48 4.455 5.105h.001l.001.001c.219.147.364.245.462.335.069.064.12.149.146.244.025.096.026.198 0 .296-.108.418-1.122 4.1-3.056 4.942-.067.029-.138.043-.209.04-.071-.002-.14-.02-.202-.054-.028-.015-2.83-1.494-6.678-2.498-2.794-.73-6.317-4.527-7.538-8.125zm11.706.215c-.984-2.204-4.466-4.547-7.451-5.013-.92-.144-2.572-.211-3.302.955-.627 1.004-.35 2.422-.005 3.435 1.108 3.267 4.381 6.833 6.867 7.483 3.376.881 5.912 2.087 6.658 2.464 1.014-.632 1.804-2.639 2.138-3.732l-.097-.065c-1-.672-3.341-2.245-4.808-5.527zm-8.699-4.423c.381-.02.76.002 1.133.063 2.771.433 6.112 2.658 7.009 4.666 1.407 3.147 3.565 4.788 4.723 5.581-.371 1.062-.905 2.154-1.447 2.676-1.011-.487-3.398-1.55-6.44-2.345-2.286-.596-5.425-4.042-6.458-7.09-.242-.712-.572-2.028-.068-2.835.269-.428.789-.67 1.548-.716zm12.879-3.373c.574 3.532 3.062 7.472 5.431 8.602 2.851 1.36 4.277 3.652 4.886 4.632l.001.001.005.009c.14.226.234.376.32.477.062.073.142.125.232.15.09.025.185.022.276-.008.386-.128 3.794-1.314 4.527-3.408.025-.072.036-.149.032-.225-.004-.075-.023-.149-.055-.215-.015-.03-1.472-2.991-2.515-7.083-.758-2.973-4.396-6.641-7.788-7.85-1.685-.6-3.109-.512-4.116.255-1.145.87-1.582 2.527-1.236 4.663zm1.794-3.793c.919-.7 2.25-.44 3.204-.1 3.079 1.097 6.497 4.504 7.17 7.15.915 3.59 2.111 6.274 2.482 7.062-.562 1.104-2.412 2.005-3.423 2.392l-.049-.078-.015-.025c-.655-1.053-2.187-3.516-5.289-4.997-2.083-.994-4.365-4.659-4.882-7.842-.16-.98-.268-2.747.802-3.562zm-.196 3.424c-.067-.398-.097-.804-.089-1.211.023-.816.234-1.38.626-1.679.739-.562 1.976-.244 2.647-.005 2.872 1.023 6.173 4.29 6.793 6.722.823 3.236 1.883 5.764 2.363 6.833-.471.594-1.476 1.197-2.456 1.623-.773-1.218-2.363-3.485-5.338-4.905-1.899-.906-4.066-4.423-4.546-7.378zm16.527 19.735c-4.93 4.12-7.011-4.595-7.011-4.595 3.503-.96 5.213-3.742 5.213-3.742s6.727 4.217 1.798 8.337zm-11.003 1.228c-3.708 5.392-7.83-1.697-7.83-1.697s2.551-1.907 3.35-5.685c0 0 8.188 1.99 4.48 7.382z" clip-rule="evenodd" opacity=".3"/>
    <path fill="#BD5983" d="M556.68 390.177l18.435-11.069-34.02-56.657-18.434 11.067 34.019 56.659z"/>
    <path fill="#BD5983" d="M382.435 297.073c32.022 53.981 101.769 71.787 155.755 39.755 53.985-32.031 71.77-101.764 39.728-155.75-32.042-53.986-101.759-71.785-155.743-39.749-53.984 32.036-71.756 101.763-39.74 155.744zm49.694-138.972c44.728-26.546 102.485-11.792 129.021 32.928 26.537 44.721 11.787 102.479-32.927 129.017-44.714 26.538-102.483 11.789-129.022-32.929-26.54-44.717-11.79-102.471 32.928-129.016z"/>
    <path fill="#804983" d="M388.34 208.807c16.574-51.046 71.601-79.08 122.636-62.503 51.036 16.578 79.084 71.588 62.503 122.634-16.58 51.046-71.585 79.085-122.63 62.506-51.045-16.579-79.091-71.594-62.509-122.637zm4.347 1.412c-15.804 48.657 10.911 101.097 59.565 116.891 48.654 15.795 101.105-10.924 116.909-59.586 15.804-48.661-10.926-101.093-59.59-116.891-48.665-15.798-101.085 10.935-116.884 59.586zM629.117 493.023c13.671-8.213 18.607-25.112 11.021-37.743l-42.82-76.407c-7.584-12.636-24.819-16.222-38.493-8.009-13.674 8.208-18.608 25.108-11.021 37.742l42.821 76.409c7.589 12.632 24.815 16.217 38.492 8.008z"/>
    <circle cx="481.738" cy="238.985" r="93.085" fill="#fff" fill-opacity=".25"/>
    <defs>
        <linearGradient id="prefix__paint0_linear" x1="62.716" x2="68.159" y1="487.387" y2="670.869" gradientUnits="userSpaceOnUse">
            <stop stop-color="#5BFECC"/>
            <stop offset="1" stop-color="#1CC994"/>
        </linearGradient>
        <linearGradient id="prefix__paint1_linear" x1="288.453" x2="254.518" y1="363.342" y2="499.671" gradientUnits="userSpaceOnUse">
            <stop stop-color="#5BFECC"/>
            <stop offset="1" stop-color="#1CC994"/>
        </linearGradient>
        <linearGradient id="prefix__paint2_linear" x1="543.282" x2="430.083" y1="189.821" y2="291.376" gradientUnits="userSpaceOnUse">
            <stop stop-color="#5BFECC"/>
            <stop offset="1" stop-color="#1CC994"/>
        </linearGradient>
        <linearGradient id="prefix__paint3_linear" x1="709.871" x2="684.941" y1="162.939" y2="256.809" gradientUnits="userSpaceOnUse">
            <stop stop-color="#5BFECC"/>
            <stop offset="1" stop-color="#1CC994"/>
        </linearGradient>
        <linearGradient id="prefix__paint4_linear" x1="671.967" x2="725.36" y1="85.27" y2="117.596" gradientUnits="userSpaceOnUse">
            <stop stop-color="#5BFECC"/>
            <stop offset="1" stop-color="#1CC994"/>
        </linearGradient>
        <linearGradient id="prefix__paint5_linear" x1="609.799" x2="647.849" y1="52.047" y2="49.545" gradientUnits="userSpaceOnUse">
            <stop stop-color="#5BFECC"/>
            <stop offset="1" stop-color="#1CC994"/>
        </linearGradient>
        <linearGradient id="prefix__paint6_linear" x1="528.217" x2="564.891" y1="8.352" y2="18.795" gradientUnits="userSpaceOnUse">
            <stop stop-color="#5BFECC"/>
            <stop offset="1" stop-color="#1CC994"/>
        </linearGradient>
    </defs>
</svg>
