<svg width="375" height="766" viewBox="0 0 375 766" fill="none" xmlns="http://www.w3.org/2000/svg">
<path d="M0 0H375V652.476L0 763.707V0Z" fill="#030931"/>
<mask id="mask0_2861_189963" style="mask-type:alpha" maskUnits="userSpaceOnUse" x="0" y="1" width="375" height="765">
<path d="M0 1.14648H375V652.476L0 766V1.14648Z" fill="#030931"/>
</mask>
<g mask="url(#mask0_2861_189963)">
<g filter="url(#filter0_f_2861_189963)">
<path d="M257.398 411.186C254.438 476.747 261.542 511.954 238.385 572.153C217.41 626.679 182.627 515.066 180.736 422.528C178.999 337.484 200.522 264.995 224.247 257.2C251.125 248.368 261.704 315.82 257.398 411.186Z" fill="#38D99E" fill-opacity="0.84"/>
<path d="M302.995 846.724C300.119 910.333 307.022 944.493 284.52 1002.9C264.138 1055.8 230.338 947.513 228.501 857.729C226.812 775.216 247.728 704.884 270.781 697.321C296.899 688.752 307.179 754.196 302.995 846.724Z" fill="#38D99E" fill-opacity="0.36"/>
<path d="M419.596 51.1142C416.49 119.796 423.945 156.68 399.642 219.746C377.629 276.869 341.126 159.941 339.141 62.9961C337.318 -26.0973 359.907 -102.038 384.805 -110.205C413.012 -119.457 424.115 -48.7935 419.596 51.1142Z" fill="#38D99E" fill-opacity="0.4"/>
<path d="M53.8392 273.975C51.3186 328.023 57.3681 357.048 37.6478 406.676C19.7856 451.628 -9.83518 359.614 -11.4454 283.325C-12.9251 213.214 5.40444 153.454 25.6081 147.027C48.4968 139.746 57.5059 195.354 53.8392 273.975Z" fill="#38D99E" fill-opacity="0.4"/>
<path d="M257.424 -59.108C254.548 4.50107 261.451 38.6605 238.949 97.0676C218.567 149.971 184.767 41.6802 182.93 -48.1038C181.241 -130.616 202.157 -200.948 225.21 -208.512C251.328 -217.081 261.608 -151.636 257.424 -59.108Z" fill="#38D99E" fill-opacity="0.4"/>
<path d="M355.66 499.018C353.515 546.432 358.661 571.894 341.887 615.431C326.693 654.865 301.497 574.145 300.127 507.22C298.868 445.716 314.46 393.291 331.646 387.653C351.115 381.265 358.779 430.048 355.66 499.018Z" fill="#38D99E" fill-opacity="0.4"/>
<path d="M67.9328 549.124C70.0769 596.538 64.931 622 81.7056 665.537C96.8995 704.971 122.096 624.251 123.465 557.326C124.724 495.821 109.132 443.396 91.9468 437.758C72.4772 431.371 64.8139 480.153 67.9328 549.124Z" fill="#38D99E" fill-opacity="0.4"/>
<path d="M392.185 568.847C392.185 642.912 358.038 753.479 333.849 719.164C315.931 693.744 328.496 630.14 328.496 556.075C328.496 482.01 336.763 471.583 357.458 471.583C378.154 471.583 392.185 494.782 392.185 568.847Z" fill="#656BFF" fill-opacity="0.3"/>
<path d="M-11.5293 596.356C-11.5293 670.421 22.6181 780.988 46.8071 746.673C64.7255 721.253 52.1603 657.649 52.1603 583.584C52.1603 509.519 43.8935 499.092 23.198 499.092C2.5025 499.092 -11.5293 522.291 -11.5293 596.356Z" fill="#656BFF" fill-opacity="0.3"/>
<path d="M191.893 797.454C191.893 882.24 152.647 1016.69 116.011 977.403C88.8716 948.304 77.9656 826.006 77.9656 741.22C77.9656 656.433 90.4865 644.497 121.832 644.497C153.177 644.497 191.893 712.667 191.893 797.454Z" fill="#7D82FF" fill-opacity="0.4"/>
<path d="M300.605 23.1777C300.605 79.0486 274.693 167.643 250.504 141.757C232.586 122.582 225.385 41.9925 225.385 -13.8784C225.385 -69.7492 233.652 -77.6149 254.347 -77.6149C275.043 -77.6149 300.605 -32.6932 300.605 23.1777Z" fill="#7D82FF" fill-opacity="0.4"/>
<path d="M303.625 392.584C303.625 448.455 277.713 537.05 253.524 511.164C235.605 491.989 228.405 411.399 228.405 355.528C228.405 299.658 236.672 291.792 257.367 291.792C278.063 291.792 303.625 336.714 303.625 392.584Z" fill="#7D82FF" fill-opacity="0.4"/>
<path d="M192.991 265.632C192.991 328.283 163.906 427.628 136.754 398.601C116.641 377.099 78.5147 252.166 78.5147 189.515C78.5147 126.864 117.838 152.608 141.069 152.608C164.299 152.608 192.991 202.981 192.991 265.632Z" fill="#7D82FF" fill-opacity="0.4"/>
</g>
</g>
<defs>
<filter id="filter0_f_2861_189963" x="-211.529" y="-409.265" width="832.102" height="1626.12" filterUnits="userSpaceOnUse" color-interpolation-filters="sRGB">
<feFlood flood-opacity="0" result="BackgroundImageFix"/>
<feBlend mode="normal" in="SourceGraphic" in2="BackgroundImageFix" result="shape"/>
<feGaussianBlur stdDeviation="100" result="effect1_foregroundBlur_2861_189963"/>
</filter>
</defs>
</svg>
