<svg xmlns="http://www.w3.org/2000/svg" width="1440" height="550" fill="none" viewBox="0 0 1440 550">
    <path fill="#FFDEC0" d="M1126.14 134.548H967c7.127-12.332 24.896-20.198 38.77-17.101-.89-4.655 1.9-9.348 5.7-12.084 1.97-1.333 4.27-2.085 6.65-2.169 2.38-.084 4.73.503 6.79 1.694 3.82-6.449 9.48-11.617 16.24-14.85 6.77-3.234 14.34-4.387 21.77-3.315 7.47 1.221 14.41 4.62 19.95 9.772 5.55 5.152 9.45 11.826 11.21 19.185 2.9-1.74 6.15-2.79 9.52-3.066 3.36-.277 6.75.226 9.89 1.47 5.91 2.736 11.53 14.061 12.65 20.464z"/>
    <path fill="#FFEFE0" d="M1214.95 176.482h-160.63c2.87-6.321 8.09-11.271 14.56-13.795 3.13-1.061 6.44-1.484 9.74-1.242 3.3.241 6.51 1.142 9.45 2.648 6.45-12.844 14.24-22.629 26.89-29.394 12.66-6.764 28.26-8.55 41.66-3.382 13.4 5.168 24.02 17.785 25.45 32.073 5.71-2.251 12.06-2.251 17.77 0 5.64 2.148 12.56 7.601 15.11 13.092zM1258.66 99.738h-91.87c3.5-8.341 10.59-15.353 19.52-16.74 4.49-.659 9.07-.181 13.33 1.389 4.25 1.57 8.05 4.183 11.03 7.599 3.28-2.685 7.06-4.697 11.11-5.92 4.06-1.222 8.32-1.632 12.53-1.206 8.06.874 19.62 8.266 24.35 14.878z"/>
    <path fill="#FFF4EA" d="M1081.33 57.385h-91.871c3.497-8.341 10.581-15.352 19.521-16.74 4.48-.655 9.06-.176 13.31 1.394 4.26 1.57 8.05 4.18 11.03 7.594 6.63-5.411 15.13-7.974 23.64-7.125 8.08.93 19.63 8.265 24.37 14.877z"/>
    <path fill="#FFDCBD" d="M1265.23 46.46h-116.65c3.52-5.142 8.42-9.185 14.14-11.662 5.71-2.478 12.01-3.29 18.17-2.342 2.76-5.366 6.99-9.836 12.2-12.888 5.2-3.051 11.17-4.559 17.2-4.346 6.12.388 12.01 2.477 17.01 6.032 5 3.555 8.9 8.435 11.27 14.09 4.3-1.9 9.98-1.083 14.46.21 4.49 1.291 9.54 7.068 12.2 10.906z"/>
    <path fill="#FFEFE0" d="M1393.34 37.758h-160.68c4.75-6.879 13.11-11.173 21.27-13.016 8.24-1.823 16.88-.53 24.23 3.63 2.39-6.195 9.06-10.603 15.47-12.37 3.22-.853 6.6-.954 9.87-.296 3.26.66 6.34 2.06 8.98 4.096 4.17-7.355 10.61-13.16 18.36-16.54 7.74-3.383 16.38-4.16 24.61-2.214 17.01 3.82 29.72 21.3 37.89 36.71z"/>
    <path fill="#fff" d="M855.534 105.552h122.123c-3.611-5.225-9.958-8.474-16.154-9.88-6.274-1.391-12.841-.41-18.434 2.755-1.806-4.712-6.88-8.056-11.745-9.5-2.448-.656-5.015-.739-7.5-.241-2.486.498-4.823 1.562-6.83 3.11-3.165-5.59-8.059-10.001-13.947-12.571-5.888-2.57-12.451-3.16-18.702-1.68-12.942 3.021-22.597 16.303-28.811 28.007z"/>
    <path fill="#FFEFE0" d="M1033.32 49.633H888.222c6.043-9.5 13.759-19.514 23.033-25.841 9.274-6.327 20.753-9.938 31.852-8.246 11.098 1.69 21.551 9.215 25.124 19.874 1.244-1.872 3.005-3.342 5.07-4.231 2.065-.89 4.344-1.16 6.559-.777 2.216.383 4.272 1.401 5.919 2.931 1.647 1.53 2.813 3.506 3.357 5.688 3.322-2.346 7.078-4.007 11.054-4.884 3.97-.878 8.07-.955 12.07-.228 7.93 1.501 16.63 8.93 21.06 15.714z"/>
    <path fill="url(#prefix__paint0_linear)" d="M1440 331.334H415.5L0 541.334h1440v-210z"/>
    <path fill="#fff" d="M1300.7 330.996H859.886c-.944.005-1.848.384-2.514 1.053-.666.669-1.04 1.575-1.04 2.519 0 .944.374 1.85 1.04 2.519.666.67 1.57 1.048 2.514 1.053H1055.1c.86 0 1.68.341 2.29.946.6.606.94 1.428.94 2.285 0 .858-.34 1.682-.94 2.29-.61.609-1.43.954-2.29.959h-92.228c-1.134 0-2.222.45-3.024 1.252s-1.252 1.889-1.252 3.023c0 1.135.449 2.225 1.251 3.03.801.804 1.889 1.259 3.025 1.264h155.358c.95 0 1.86.376 2.53 1.046.67.67 1.05 1.579 1.05 2.526 0 .948-.38 1.856-1.05 2.526-.67.67-1.58 1.046-2.53 1.046h-16.63c-1 0-1.97.401-2.68 1.113-.72.713-1.12 1.679-1.12 2.687 0 1.008.4 1.975 1.12 2.687.71.713 1.68 1.114 2.68 1.114h194.78l4.32-36.938z"/>
    <path fill="#fff" d="M1067.28 367.895h16.4c1.01 0 1.98-.4 2.69-1.113.71-.712 1.11-1.679 1.11-2.687 0-1.008-.4-1.974-1.11-2.687-.71-.713-1.68-1.113-2.69-1.113h-16.4c-1.01 0-1.97.4-2.68 1.113-.72.713-1.12 1.679-1.12 2.687 0 1.008.4 1.975 1.12 2.687.71.713 1.67 1.113 2.68 1.113zM936.512 353.188h3.706c.572.013 1.141-.089 1.673-.299s1.017-.524 1.426-.924c.408-.4.733-.878.955-1.405.222-.527.336-1.094.336-1.666-.005-1.135-.46-2.223-1.265-3.024-.805-.801-1.894-1.251-3.03-1.251h-3.706c-1.134 0-2.222.451-3.024 1.252-.801.802-1.252 1.889-1.252 3.023 0 1.12.436 2.195 1.217 2.997.781.802 1.845 1.268 2.964 1.297zM904.09 353.189h12.981c.563 0 1.12-.112 1.64-.328.52-.216.992-.532 1.39-.931.397-.399.712-.873.925-1.394.214-.521.323-1.079.321-1.642 0-1.134-.451-2.221-1.253-3.023-.802-.801-1.889-1.252-3.023-1.252H904.09c-1.135 0-2.225.45-3.03 1.251-.805.801-1.26 1.889-1.265 3.024 0 1.139.453 2.231 1.258 3.037.806.805 1.898 1.258 3.037 1.258z"/>
    <path fill="#E9967C" d="M1439.98 78.761l-8.36 7.848c-21 19.681-47.24 32.877-75.56 38.001-34.9 6.342-66.4 24.891-88.87 52.328l-8.34 10.165c-20.39 24.867-48.27 42.487-79.48 50.238l-147.34 36.501v57.135h407.95V78.761z"/>
    <path fill="#E36F73" d="M822.466 146.632c26.882 2.135 57.591 17.1 65.813 20.901 8.221 3.8 36.721 19.3 65.489 47.787 16.173 16.013 21.286 25.441 39.188 35.987 17.904 10.548 32.654 14.84 50.474 16.835 17.83 1.994 309.78 35.151 309.78 35.151v15.961H722.255L704.5 206.834l-14-2.5s75.896-62.157 131.966-57.702z"/>
    <path fill="#BD5983" d="M799.774 223.472c6.815 6.679 14.906 11.976 23.81 15.59 8.904 3.613 18.446 5.471 28.083 5.468h38.587c9.649.007 19.203 1.878 28.113 5.507 8.911 3.63 17.005 8.946 23.818 15.644L1009 331.333H639V206.104l106.276-3.727c10.075-.344 20.114 1.352 29.491 4.982 9.376 3.629 17.889 9.114 25.007 16.113z"/>
    <path fill="#804983" d="M700.761 210.493l28.507 28.501c8.482 8.487 18.556 15.216 29.644 19.804 11.087 4.587 22.972 6.942 34.971 6.93h4.561c12-.011 23.884 2.344 34.972 6.931 11.088 4.588 21.162 11.317 29.644 19.803 8.482 8.487 18.556 15.216 29.644 19.804 11.087 4.587 22.972 6.942 34.971 6.931h512.305v11.723H417.536l57.66-57.553c5.617-5.61 13.232-8.761 21.171-8.76 3.933.002 7.827-.773 11.46-2.28 3.633-1.506 6.933-3.714 9.711-6.498l25.675-25.689c5.627-5.607 13.246-8.757 21.19-8.759h39.606c9.6-.007 18.806-3.82 25.599-10.603 6.652-6.668 15.648-10.472 25.067-10.602l19.974-.285c4.841-.073 9.647.827 14.133 2.649 4.486 1.821 8.56 4.526 11.979 7.953z"/>
    <path fill="#BD5983" d="M1369.93 234.206l-11.52-64.716c-.08-.7-.41-1.345-.94-1.813-.52-.468-1.2-.727-1.91-.727-.7 0-1.38.259-1.91.727-.52.468-.86 1.113-.94 1.813l-11.4 64.716c-.06.312-.05.633.03.94.08.307.23.593.43.836.2.244.46.439.75.572.29.133.6.201.92.198h9.31v18.089h5.7v-18.013h9.33c.33.005.65-.064.95-.202.29-.137.55-.339.76-.591.2-.252.35-.548.43-.864.07-.317.08-.646.01-.965zM1439.96 219.481l-11.51-64.717c-.09-.699-.42-1.344-.95-1.812-.52-.469-1.2-.727-1.91-.727-.7 0-1.38.258-1.9.727-.53.468-.87 1.113-.95 1.812l-11.49 64.717c-.06.311-.05.632.03.94.08.307.22.592.43.836.2.243.46.438.74.572.29.133.61.2.92.198h9.32v18.012h5.7v-18.012h9.33c.32.013.65-.047.95-.175.3-.128.56-.321.78-.565.21-.243.37-.532.46-.845.09-.312.11-.641.05-.961zM1411.09 218.265l-14.17-80.183c-.15-.824-.59-1.57-1.23-2.106-.64-.537-1.45-.831-2.29-.831-.84 0-1.65.294-2.29.831-.64.536-1.08 1.282-1.22 2.106l-14.26 80.183c-.06.385-.05.779.06 1.156.1.377.28.727.53 1.026.25.298.57.539.92.703.36.165.74.25 1.13.25h11.56v22.326h7.09V221.4h11.55c.39.001.78-.085 1.13-.249.35-.165.67-.406.92-.705.25-.299.43-.649.53-1.026.1-.377.11-.772.04-1.155z"/>
    <path fill="url(#prefix__paint1_linear)" d="M1439.98 233.94h-44.68c-26.48.003-51.87 10.514-70.6 29.224l-35.54 35.379c-18.75 18.74-44.18 29.271-70.7 29.28-26.5-.001-51.93 10.524-70.67 29.261l-22.01 22.003c-9.29 9.284-20.31 16.647-32.44 21.671-12.13 5.024-25.13 7.61-38.26 7.609h-10.81c-6.71-.005-13.35 1.311-19.54 3.873-6.2 2.563-11.83 6.322-16.57 11.062-4.74 4.742-10.371 8.501-16.567 11.064-6.196 2.563-47.593-3.532-72.093 17.468L823 549.353h616.98V233.94z"/>
    <path fill="#BD5983" d="M1178.36 418.361l-17.9-100.704c-.18-1.04-.72-1.983-1.53-2.663-.81-.679-1.83-1.052-2.89-1.052-1.05 0-2.08.373-2.88 1.052-.81.68-1.35 1.623-1.54 2.663l-17.9 100.704c-.08.484-.06.98.06 1.455.13.474.36.915.67 1.292.32.377.71.68 1.16.888.44.208.93.316 1.42.317h14.52v28.045h8.97v-28.045h14.52c.49.002.98-.104 1.43-.311.44-.207.84-.51 1.16-.887.31-.377.54-.819.67-1.295s.15-.974.06-1.459z"/>
    <path fill="#804983" d="M1149.08 429.648l-17.89-100.704c-.18-1.04-.72-1.983-1.53-2.662-.81-.68-1.83-1.053-2.88-1.053-1.06 0-2.08.373-2.89 1.053-.81.679-1.35 1.622-1.53 2.662l-17.9 100.704c-.09.484-.07.98.06 1.455.12.474.35.915.67 1.292.31.377.71.68 1.15.888.45.208.93.317 1.42.317h14.52v27.969h8.97v-28.121h14.52c.48-.001.95-.104 1.38-.302.44-.198.82-.487 1.14-.847.31-.36.54-.783.68-1.24.14-.457.17-.938.11-1.411z"/>
    <path fill="#BD5983" d="M1105.03 457.199l-14.09-79.347c-.14-.814-.57-1.551-1.21-2.081-.63-.53-1.44-.821-2.26-.821-.83 0-1.63.291-2.27.821-.63.53-1.06 1.267-1.21 2.081l-14.1 79.347c-.07.383-.05.775.05 1.149.1.375.28.723.53 1.02.25.297.56.536.92.699.35.164.73.249 1.12.248h11.4v22.098h7.03v-22.098h11.41c.39.013.78-.064 1.14-.222.36-.159.68-.397.94-.696.26-.298.44-.651.55-1.031.1-.381.12-.779.05-1.167zM981.8 440.022l-11.536-64.963c-.11-.676-.458-1.291-.98-1.734-.522-.444-1.185-.687-1.87-.687-.686 0-1.348.243-1.871.687-.522.443-.869 1.058-.98 1.734l-11.536 64.963c-.059.312-.048.633.032.94.08.307.227.593.431.836.203.244.458.439.746.572.288.134.602.201.92.199h9.369v18.088h5.701v-18.088h9.37c.323.014.646-.045.944-.173.297-.129.562-.322.774-.567.212-.245.366-.535.45-.848.084-.313.097-.64.036-.959z"/>
    <path fill="#804983" d="M1008.84 442.379l-15.2-86.036c0-1.008-.4-1.974-1.113-2.687-.713-.713-1.68-1.113-2.688-1.113-1.008 0-1.974.4-2.687 1.113-.713.713-1.113 1.679-1.113 2.687l-15.299 86.036c-.072.413-.053.838.056 1.243.109.406.305.782.575 1.104.269.322.606.582.986.76.38.179.795.273 1.215.275h12.391v23.96h7.601v-23.96h12.396c.42.009.84-.076 1.23-.25s.74-.432 1.01-.756c.28-.323.48-.705.59-1.116.11-.411.13-.842.05-1.26zM1206.43 399.779l-20.2-113.72c-.21-1.164-.83-2.217-1.74-2.974-.91-.757-2.06-1.171-3.25-1.171-1.18 0-2.33.414-3.24 1.171-.91.757-1.53 1.81-1.75 2.974l-20.2 113.72c-.1.551-.07 1.118.08 1.659.14.541.41 1.042.77 1.469.36.427.82.768 1.33.999.51.231 1.06.347 1.62.338h16.4v31.655h10.13v-31.655h16.39c.55-.011 1.09-.14 1.58-.38.49-.239.93-.583 1.28-1.008.35-.424.6-.919.74-1.45.14-.531.16-1.087.06-1.627z"/>
    <path fill="#5A3B7B" d="M1425.54 359.82l-25.83-145.337c-.27-1.493-1.06-2.843-2.22-3.815-1.17-.972-2.64-1.505-4.16-1.505-1.51 0-2.98.533-4.15 1.505-1.16.972-1.95 2.322-2.22 3.815l-25.83 145.337c-.12.699-.09 1.416.1 2.101.18.684.51 1.321.97 1.864.45.543 1.02.98 1.67 1.279.64.3 1.34.456 2.05.456h20.91v40.472h12.94V365.52h20.9c.72.014 1.43-.131 2.08-.425.66-.293 1.24-.729 1.7-1.274.47-.545.81-1.187 1-1.879.18-.692.21-1.416.09-2.122zM1359.74 377.719L1336.1 244.98c-.23-1.374-.95-2.619-2.01-3.517-1.07-.898-2.42-1.391-3.81-1.391-1.4 0-2.75.493-3.81 1.391-1.07.898-1.78 2.143-2.02 3.517l-23.58 132.739c-.12.637-.09 1.292.07 1.919.16.626.47 1.209.88 1.706.42.497.94.897 1.52 1.17.59.273 1.23.414 1.88.411h19.14v36.976h11.82v-36.976h19.14c.65.007 1.29-.13 1.89-.4.59-.271 1.12-.669 1.54-1.165.42-.497.73-1.081.9-1.71.17-.629.21-1.288.09-1.931z"/>
    <path fill="#422C4F" d="M1270.76 210.93h-14.36v8.247c2.79-.206 5.51-1.017 7.96-2.376 2.56-1.44 4.75-3.449 6.4-5.871z"/>
    <path fill="#F2C9AD" d="M1270.76 210.93c-1.65 2.422-3.84 4.431-6.4 5.871-2.45 1.359-5.17 2.17-7.96 2.376v6.137h19.97V210.93h-5.61z"/>
    <path fill="#F2C9AD" d="M1265.6 216.688c15.32 0 27.74-12.42 27.74-27.741s-12.42-27.741-27.74-27.741c-15.33 0-27.75 12.42-27.75 27.741s12.42 27.741 27.75 27.741z"/>
    <path fill="#422C4F" d="M1249.5 196.205l-2.72-2.718c-1.24-1.281-1.92-3.003-1.9-4.788v-8.436l-3.93-3.933c-3.94-4.237-7.15-9.995-6.26-15.714.47-2.375 1.48-4.611 2.94-6.538 1.47-1.927 3.36-3.492 5.52-4.577 4.36-2.145 9.23-3.04 14.06-2.584 5.09.33 10.05 1.661 14.62 3.918 4.57 2.256 8.64 5.393 11.99 9.23 2.28-.607 4.69-.584 6.96.065 2.27.649 4.33 1.9 5.94 3.621 3.06 3.566 4.88 8.026 5.19 12.712.66 6.538-.62 13.127-3.68 18.94-3.07 5.813-7.78 10.593-13.55 13.741h-8.52c-2.71-.005-5.39-.656-7.8-1.898s-4.49-3.041-6.07-5.246l-3.33-4.617-9.46-1.178z"/>
    <path fill="#F2C9AD" d="M1265.79 192.138c0 1.767-.53 3.493-1.51 4.962-.98 1.468-2.38 2.613-4.01 3.289-1.63.676-3.43.853-5.16.508-1.73-.344-3.32-1.195-4.57-2.444-1.25-1.249-2.1-2.84-2.45-4.572-.34-1.733-.17-3.528.51-5.16.68-1.632 1.82-3.027 3.29-4.008 1.47-.981 3.2-1.505 4.96-1.505 1.18-.002 2.34.227 3.42.675 1.09.448 2.07 1.105 2.9 1.935.83.83 1.49 1.815 1.94 2.9.45 1.085.68 2.247.68 3.42z"/>
    <path fill="#EBA58E" d="M1260.92 192.138c0 .805-.24 1.591-.69 2.259-.44.669-1.08 1.19-1.82 1.498-.74.308-1.56.388-2.35.231-.79-.156-1.51-.544-2.08-1.112-.57-.569-.96-1.294-1.12-2.082-.15-.789-.07-1.607.24-2.35.3-.743.82-1.378 1.49-1.824.67-.447 1.46-.686 2.26-.686 1.08 0 2.12.429 2.88 1.191.76.763 1.19 1.797 1.19 2.875z"/>
    <path fill="#6CA8BF" d="M1298.95 321.458h-78.91l7.39-96.144h78.91l-7.39 96.144z"/>
    <path fill="#F2C9AD" d="M1244.56 228.753l-83.3-76.763-3.8-20.54c-1.16.45-2.17 1.229-2.89 2.241-.73 1.013-1.14 2.215-1.2 3.459l-.43 7.905-16.54-.57c-1.24-.074-2.48.104-3.65.523-1.17.418-2.25 1.069-3.16 1.914-.91.844-1.64 1.864-2.15 2.998-.51 1.134-.78 2.36-.8 3.602-.02 1.243.21 2.477.67 3.628.47 1.152 1.17 2.196 2.05 3.072.88.876 1.93 1.564 3.09 2.024 1.15.459 2.39.681 3.63.65h16.86l78.18 80.26c.93.954 2.04 1.711 3.27 2.224 1.23.514 2.54.774 3.88.764 1.33-.01 2.64-.288 3.86-.819 1.22-.532 2.32-1.304 3.24-2.272.91-.967 1.62-2.109 2.08-3.358.46-1.248.66-2.577.6-3.906-.07-1.329-.41-2.631-.99-3.827-.58-1.196-1.4-2.262-2.41-3.133l-.09-.076z"/>
    <path fill="#422C4F" d="M1232.31 217.334l-2.37.532c-5.7 1.275-10.89 4.195-14.94 8.398l7.92 8.152 9.39-17.082z"/>
    <path fill="#6CA8BF" d="M1246.48 229.642l-12.18-14.308c-7.41 3.388-13.45 9.207-17.1 16.493l-1.2 2.432 15.2 11.4c1.25.94 2.68 1.608 4.2 1.961s3.09.383 4.63.087c1.53-.296 2.98-.91 4.26-1.803 1.28-.892 2.36-2.044 3.16-3.38 1.2-1.981 1.75-4.287 1.58-6.596-.18-2.309-1.07-4.506-2.55-6.286z"/>
    <path fill="#F2C9AD" d="M1353.07 128.847c-.47-.989-1.14-1.872-1.96-2.597-.83-.725-1.79-1.277-2.83-1.622-1.04-.346-2.14-.479-3.23-.39-1.1.088-2.16.395-3.13.904l-13.02 6.802-3.36-6.156c-.53-.958-1.33-1.744-2.29-2.262-.97-.519-2.06-.75-3.15-.664l4.71 17.936-37.11 93.313c-.75 1.872-.83 3.944-.22 5.865.61 1.922 1.86 3.575 3.54 4.68 1.1.716 2.35 1.175 3.65 1.345 1.3.17 2.62.046 3.86-.362 1.25-.409 2.39-1.091 3.33-1.998.95-.907 1.68-2.014 2.14-3.241l31.76-94.186 13.47-6.461c.97-.463 1.84-1.113 2.56-1.912.72-.8 1.27-1.732 1.62-2.745.36-1.013.51-2.086.46-3.159-.06-1.072-.33-2.122-.8-3.09z"/>
    <path fill="#422C4F" d="M1294.16 217.827c5.6-1.443 11.53-.837 16.72 1.71h.14l-2.8 8.304-14.06-10.014z"/>
    <path fill="#6CA8BF" d="M1286.86 233.94l4.26-16.113c7.21-.129 14.26 2.203 19.97 6.613l1.9 1.482-7.77 15.029c-.63 1.235-1.51 2.324-2.59 3.196-1.07.872-2.32 1.508-3.66 1.867-1.34.358-2.74.431-4.11.213-1.37-.217-2.67-.72-3.84-1.476-1.74-1.132-3.09-2.788-3.83-4.73-.75-1.942-.86-4.07-.33-6.081z"/>
    <path fill="#8C404C" d="M1230.17 474.585h-28.51v33.422l-19.95 9.501c-1.99.961-3.62 2.523-4.68 4.465h53.03l.11-47.388z"/>
    <path fill="#422C4F" d="M1177.05 521.973c-.82 1.518-1.25 3.215-1.25 4.94h54.24v-4.94h-52.99z"/>
    <path fill="#8C404C" d="M1284.43 474.585h-26.25v34.201l-8.43 6.119c-2.41 1.764-4.24 4.214-5.23 7.03h40.21l-.3-47.35z"/>
    <path fill="#422C4F" d="M1244.46 521.973c-.56 1.586-.85 3.257-.85 4.94h41.18v-4.94h-40.33z"/>
    <path fill="#56438C" d="M1298.95 321.458v24.036c0 4.241-.36 8.475-1.09 12.654l-8.51 49.06v62.456c0 1.305-.52 2.557-1.44 3.48-.92.923-2.18 1.441-3.48 1.441h-26.25c-.64.003-1.29-.123-1.89-.369-.6-.246-1.14-.608-1.6-1.066-.46-.457-.82-1-1.07-1.598-.25-.599-.38-1.24-.38-1.888V403.37l10-81.912h35.71z"/>
    <path fill="#422C4F" d="M1253.2 403.37l7.74-63.405 12.9 9.386-20.64 54.019z"/>
    <path fill="#56438C" d="M1220.04 321.458l-21.19 70.303c-1.39 4.615-2.1 9.41-2.11 14.231v63.672c.01 1.307.53 2.558 1.46 3.481.92.922 2.18 1.44 3.48 1.44h28.51c.65.003 1.29-.123 1.89-.369.6-.246 1.14-.608 1.6-1.066.46-.457.83-1 1.07-1.598.25-.599.38-1.24.38-1.888V408.31l30.96-43.606c6.95-9.773 10.69-21.468 10.68-33.461v-9.785h-56.73z"/>
    <path fill="#9062A0" d="M1194.21 402.097h24.71v14.573h-25.43c-.5 0-.99-.2-1.34-.556-.36-.357-.56-.84-.56-1.344v-9.994c0-.701.28-1.374.77-1.875.49-.501 1.15-.789 1.85-.804z"/>
    <path fill="#9062A0" d="M1194.08 416.651h24.84v24.036h-22.94c-.5 0-.99-.2-1.34-.556-.36-.357-.56-.84-.56-1.344v-22.136z"/>
    <path fill="#422C4F" d="M1218.9 402.097h-4.77v14.573h4.77v-14.573z"/>
    <path fill="#422C4F" d="M1218.9 416.651h-4.77v24.036h4.77v-24.036zM1214.13 416.651h-20.05v3.135h20.05v-3.135z"/>
    <path fill="#9062A0" d="M1261.41 356.856l-7.03 2.907c-1.83.74-3.87.74-5.7 0l-6.46-2.641c-.77-.315-1.42-.877-1.85-1.599-.42-.721-.59-1.561-.49-2.391l2.8-22.136h24.07l-2.88 22.801c-.1.685-.37 1.331-.8 1.87-.44.539-1.01.95-1.66 1.189zM1297.26 355.431l-6.05 2.908c-.77.37-1.61.563-2.47.563-.85 0-1.7-.193-2.47-.563l-5.7-2.794c-.35-.169-.64-.442-.83-.782-.19-.34-.27-.73-.23-1.118l2.33-21.832h19.01l-2.38 22.098c-.04.34-.18.66-.4.928-.21.268-.49.472-.81.592z"/>
    <path fill="#422C4F" d="M1220.04 321.458h78.91l.87 18.526-.87 8.132-47.19-6.308c-1.96-.279-3.72-1.308-4.93-2.868-1.21-1.561-1.77-3.53-1.55-5.493l.66-5.7-25.9-6.289z"/>
    <path fill="#56438C" d="M1271.22 256.019l-16.06-30.705-.55-.19c-3.8-1.336-7.95-1.268-11.71.19l16.08 30.705h12.24zM1305.2 256.019l-16.08-30.705-.55-.19c-3.79-1.336-7.94-1.268-11.69.19l16.06 30.705h12.26zM1224.83 259.287l29.88 56.527-.14 5.644-30.14-56.889.4-5.282z"/>
    <path fill="#56438C" d="M1271.13 334.644l4.73-70.302c.15-2.298-.29-4.597-1.29-6.672-1-2.075-2.52-3.855-4.41-5.166l-8.38-5.7c-.57-.39-1.22-.626-1.91-.684-.99-.069-1.97.255-2.73.902-.75.647-1.23 1.564-1.31 2.556l-7.61 84.325c-.07.791.03 1.588.28 2.34.26.751.67 1.442 1.2 2.027.54.585 1.19 1.051 1.92 1.369.73.318 1.51.481 2.31.478h11.49c1.48.001 2.89-.568 3.96-1.589 1.06-1.02 1.69-2.412 1.75-3.884z"/>
    <path fill="#9062A0" d="M1270.14 252.447c1.89 1.311 3.41 3.091 4.41 5.166s1.44 4.374 1.29 6.672l-4.73 70.302c-.1 1.445-.74 2.799-1.8 3.787-1.06.989-2.46 1.537-3.9 1.533h54.29c1.45.004 2.85-.544 3.9-1.533 1.06-.988 1.71-2.342 1.8-3.787l4.73-70.302c.16-2.298-.28-4.597-1.28-6.672-1-2.075-2.52-3.855-4.42-5.166l-2.37-1.634h-54.37l2.45 1.634zM1316.05 246.671c-.66-.464-1.47-.691-2.28-.646h-53.91c.68.057 1.33.293 1.9.684l3.36 2.318h54.3l-3.37-2.356z"/>
    <path fill="#F1C59A" d="M1265.12 248.97l2.64 1.824h54.3l-2.64-1.824h-54.3z"/>
    <path fill="#E47790" d="M1295.57 312.794h34.83c-.05-1.43-.44-2.827-1.13-4.08-.69-1.253-1.66-2.329-2.84-3.141l-5.7-3.99c-.46-.319-1.02-.479-1.58-.456h-37.48c.48.04.94.204 1.33.475l5.8 3.99c1.32.906 2.37 2.14 3.07 3.58.69 1.439 1 3.035.88 4.629l-2.09 18.411c-.07.995-.52 1.926-1.24 2.606-.73.68-1.69 1.059-2.69 1.062h37.55c1 .002 1.96-.376 2.69-1.057.73-.681 1.18-1.614 1.25-2.611l1.9-16.378h-34.86l.31-3.04z"/>
    <path fill="#F1C59A" d="M1330.4 312.793h-34.83l-.31 3.021h34.82l.32-2.071v-.95z"/>
    <path fill="#56438C" d="M1290.66 332.193l2.09-18.412c.12-1.594-.19-3.19-.88-4.629-.7-1.44-1.75-2.674-3.07-3.579l-5.8-3.99c-.39-.272-.85-.435-1.33-.475-.68-.038-1.35.19-1.87.636-.53.446-.85 1.076-.92 1.758l-4.01 28.064c-.05.544.01 1.093.19 1.611.17.519.45.995.82 1.399.37.404.82.727 1.32.948.5.221 1.04.336 1.58.336h7.91c1 .007 1.97-.368 2.71-1.049.74-.681 1.19-1.617 1.26-2.618z"/>
    <path fill="#F1C59A" d="M1321.94 269.871h-37.34l.21-2.527h37.36l-.23 2.527z"/>
    <path fill="#E47790" d="M1286.69 268.844c-.26.125-.47.347-.57.62-.11.273-.1.576.02.844l1.29 2.907c.14.237.36.415.63.499.26.083.54.067.8-.046.25-.113.45-.314.56-.566.11-.252.13-.537.05-.799l-1.32-2.889c-.05-.134-.14-.255-.24-.357-.11-.101-.23-.181-.37-.234-.13-.053-.28-.078-.43-.075-.14.004-.29.037-.42.096z"/>
    <path fill="#9062A0" d="M1298.09 314.181c-.29-.033-.58.051-.81.232-.23.181-.38.446-.42.737l-.38 3.154c-.03.292.05.584.23.815.18.231.45.382.74.42.14.018.29.008.43-.031s.27-.105.39-.195c.11-.09.21-.203.28-.33.07-.128.12-.268.13-.413l.38-3.154c.02-.145.01-.292-.03-.433-.04-.141-.1-.273-.19-.388-.09-.115-.21-.21-.33-.282-.13-.071-.27-.116-.42-.132z"/>
    <defs>
        <linearGradient id="prefix__paint0_linear" x1="720" x2="706" y1="331.334" y2="520.834" gradientUnits="userSpaceOnUse">
            <stop stop-color="#CFDDFE"/>
            <stop offset="1" stop-color="#CFDDFE" stop-opacity="0"/>
        </linearGradient>
        <linearGradient id="prefix__paint1_linear" x1="1220" x2="1216.27" y1="406.834" y2="587.339" gradientUnits="userSpaceOnUse">
            <stop stop-color="#21CE99"/>
            <stop offset="1" stop-color="#fff" stop-opacity="0"/>
        </linearGradient>
    </defs>
</svg>
