<svg xmlns="http://www.w3.org/2000/svg" xmlns:xlink="http://www.w3.org/1999/xlink" width="645" height="492" fill="none" viewBox="0 0 645 492">
    <path fill="url(#prefix__paint0_linear)" d="M397.662 414.602c-35.871-7.527-76.305 3.2-109.642 15.261-33.516 12.135-66.008 27.811-99.108 41.382-28.389 11.646-58.348 21.129-89.018 20.744C46.554 491.263 6.86 458.8.89 405.297c-6.357-57.221 21.795-118.918 70.29-150.581 21.187-13.823 46.479-17.142 64.066-35.959 7.511-8.207 13.222-17.896 16.764-28.442 3.542-10.547 4.837-21.718 3.801-32.795-2.222-22.847-17.542-41.813-19.972-64.556-4.564-42.538 35.056-73.09 71.475-84.706C254.727-6.87 310.17-.277 354.798 20.408c25.573 11.853 42.36 31.825 64.837 47.857 23.476 16.774 50.134 28.573 78.335 34.671 19.025 4.074 38.671 5.526 57.147 11.586 18.477 6.06 36.405 17.78 43.665 35.871 16.165 40.212-21.958 80.572-16.032 121.659 5.29 36.285 36.701 58.881 52.851 89.803 19.676 37.708 4.845 83.21-32.7 103.242-22.136 11.853-48.035 14.461-73.105 13.646-18.017-.578-38.167-2.786-54.154-11.854-15.454-8.771-25.929-24.151-39.827-34.922-11.223-8.629-24.275-14.57-38.153-17.365z" opacity=".47"/>
    <path fill="#3F4C70" d="M433.976 143.533H97.477c-6.292 0-11.394 5.101-11.394 11.394v231.627c0 6.293 5.102 11.394 11.394 11.394h336.499c6.293 0 11.394-5.101 11.394-11.394V154.927c0-6.293-5.101-11.394-11.394-11.394z"/>
    <mask id="prefix__a" width="424" height="217" x="54" y="155" maskUnits="userSpaceOnUse">
        <path fill="#BCC6FA" d="M477.832 155.578H54.202V371.9h423.63V155.578z"/>
    </mask>
    <g mask="url(#prefix__a)">
        <path fill="url(#prefix__pattern0)" d="M90.442 154.096H444.558V498.001H90.442z"/>
    </g>
    <path fill="#3F4C70" d="M391.068 392.643H45.205s4.786 5.304 19.262 5.304h402.951c14.535 0 19.261-5.304 19.261-5.304h-95.611z"/>
    <path fill="#8490C2" d="M486.724 384.196H45.19v8.461h441.534v-8.461z"/>
    <path fill="#3F4C70" d="M297.249 385.234h-61.948c0 .508.1 1.01.294 1.478.195.468.48.894.839 1.252.36.358.786.641 1.255.834.469.192.972.291 1.479.289h54.214c.507.002 1.009-.097 1.478-.289.47-.193.896-.476 1.255-.834.36-.358.645-.784.839-1.252.195-.468.295-.97.295-1.478z"/>
    <defs>
        <linearGradient id="prefix__paint0_linear" x1="322.156" x2="171.949" y1="0" y2="388.288" gradientUnits="userSpaceOnUse">
            <stop stop-color="#CFDDFE"/>
            <stop offset="1" stop-color="#CFDDFE" stop-opacity="0"/>
        </linearGradient>
        <pattern id="prefix__pattern0" width="1" height="1" patternContentUnits="objectBoundingBox">
            <use transform="matrix(.00026 0 0 .00026 0 0)" xlink:href="#prefix__image0"/>
        </pattern>
    </defs>
</svg>
