<svg width="100" height="100" viewBox="0 0 100 100" fill="none" xmlns="http://www.w3.org/2000/svg">
    <circle cx="50" cy="50" r="49" fill="white" stroke="#323947" stroke-width="2"/>
    <path d="M16.4305 53.5067C16.5701 53.7544 16.7084 53.9975 16.8429 54.2383C17.2557 53.8955 17.7784 53.7133 18.3148 53.7253C18.0923 53.3964 17.855 53.074 17.616 52.7399L17.2285 52.2017C17.0808 52.0015 16.9233 51.8089 16.7563 51.6245C16.4271 51.2714 16.0661 50.9493 15.6778 50.6623C15.3112 50.3967 14.9282 50.1545 14.5311 49.937C13.7713 49.515 13.0438 49.2043 12.4292 48.9343C11.8144 48.6677 11.3034 48.4467 10.9604 48.283C10.7867 48.205 10.6478 48.131 10.5546 48.0876L10.4107 48.0168C10.3537 47.9889 10.2882 47.9838 10.2276 48.0026C10.167 48.0215 10.1159 48.0627 10.0847 48.118C10.0536 48.1733 10.0448 48.2385 10.0601 48.3C10.0754 48.3616 10.1137 48.415 10.1671 48.4493L10.3024 48.5361C10.3925 48.5917 10.5167 48.6757 10.6892 48.7775C11.0307 48.9881 11.5174 49.2636 12.099 49.5949C12.6806 49.9262 13.3523 50.308 14.0095 50.773C14.3438 51.0061 14.6633 51.2599 14.966 51.5329C15.2644 51.8082 15.537 52.1102 15.7805 52.4351C15.8949 52.5964 16.0087 52.7655 16.1027 52.9303C16.2123 53.1222 16.3219 53.315 16.4305 53.5067Z" fill="#323947"/>
    <path d="M51.3318 34.6473L50.8019 34.3193L50.2891 34.0154C49.9472 33.82 49.5955 33.6205 49.2427 33.4429C48.8908 33.2575 48.5328 33.0901 48.1735 32.9286C47.8143 32.7671 47.4491 32.6247 47.0837 32.4846L46.5304 32.2956C46.3461 32.2346 46.1587 32.1851 45.9729 32.1288C45.599 32.0279 45.2243 31.9315 44.8455 31.8659C44.6566 31.8282 44.4676 31.7934 44.2767 31.7717C44.0859 31.75 43.8977 31.7129 43.7066 31.7036C43.516 31.6903 43.3254 31.6688 43.1344 31.6614L42.5611 31.6482C42.1794 31.659 41.7978 31.6671 41.4176 31.7122L41.2748 31.7257L41.2034 31.7324L41.168 31.7355L41.1497 31.7372H41.1408C41.3117 31.7085 41.1842 31.73 41.2222 31.724L41.2177 31.725L40.9138 31.7902L40.3059 31.9204C39.9121 32.0153 39.5558 32.118 39.1725 32.2215L37.996 32.5789L36.7957 32.9479L36.1859 33.1298L35.5592 33.2964C35.1467 33.416 34.7075 33.4946 34.2783 33.5877C33.8463 33.6758 33.3928 33.7167 32.9501 33.7811L32.9135 33.7848C32.8088 33.7948 32.7033 33.784 32.6028 33.7531L29.6777 32.8322L26.794 31.8099L23.9519 30.7008L21.1453 29.5226L18.3665 28.2906L15.6094 27.0215L10.13 24.4309C10.0768 24.4059 10.0354 24.3612 10.0146 24.3061C9.99381 24.2511 9.99528 24.1901 10.0187 24.1362C10.0421 24.0822 10.0856 24.0395 10.14 24.0171C10.1944 23.9947 10.2553 23.9943 10.31 24.0161L15.9446 26.2398L18.7668 27.322L21.6012 28.3627L24.451 29.3448L27.3183 30.2523L30.2057 31.0686L33.1127 31.778L32.7654 31.7498C33.1442 31.691 33.5209 31.663 33.9017 31.5831C34.2837 31.499 34.6632 31.4344 35.0494 31.3226L35.6265 31.1695L36.2104 30.9958L37.3927 30.6328L38.6028 30.2657C39.0209 30.1516 39.464 30.0269 39.878 29.929L40.4859 29.7988L40.7898 29.7337L40.8853 29.7169L40.8957 29.7159L40.9174 29.7137L40.9591 29.71L41.0427 29.702L41.2101 29.6859C41.6556 29.634 42.1041 29.6223 42.5528 29.6116L43.2258 29.6268C43.4494 29.6355 43.6719 29.6594 43.8955 29.6757C44.1196 29.6883 44.3395 29.7278 44.5613 29.7551C44.7832 29.7825 45.0031 29.8203 45.2217 29.8637C45.6614 29.9405 46.0925 30.0502 46.5195 30.1663C46.7314 30.2299 46.9461 30.2875 47.1556 30.3565L47.7813 30.5708C48.1916 30.7266 48.6004 30.8871 48.9987 31.0664C49.3971 31.2457 49.7915 31.4302 50.1745 31.6308C50.5627 31.8262 50.9343 32.037 51.3134 32.2541L51.8728 32.5854L52.4025 32.9132C52.6215 33.0605 52.7748 33.2869 52.8304 33.5448C52.886 33.8028 52.8395 34.0722 52.7007 34.2966C52.5619 34.521 52.3415 34.6829 52.0858 34.7483C51.8302 34.8137 51.5592 34.7775 51.3296 34.6473H51.3318Z" fill="#323947"/>
    <path d="M19.506 61.8066C19.226 61.8043 18.9476 61.7643 18.6784 61.6874C15.9042 60.9144 15.4118 56.6509 15.6343 55.4019C15.7402 54.6935 16.1032 54.0488 16.654 53.5908C17.2048 53.1329 17.905 52.8938 18.6209 52.9191C20.0164 52.9191 21.2896 53.7038 21.7171 54.8269C22.2711 56.2814 22.5854 59.1687 21.5019 60.7396C21.2845 61.0697 20.988 61.3402 20.6395 61.5266C20.2909 61.7129 19.9012 61.8092 19.506 61.8066ZM18.6202 54.9582C17.7842 54.9582 17.6763 55.5617 17.6407 55.7602C17.4942 56.5821 18.0245 59.3889 19.2255 59.723C19.3166 59.7502 19.4109 59.7652 19.506 59.7677C19.5711 59.7714 19.6359 59.7557 19.6922 59.7227C19.7485 59.6898 19.7938 59.6409 19.8225 59.5823C20.3509 58.8162 20.2567 56.726 19.8105 55.5522C19.7011 55.265 19.1973 54.9582 18.6202 54.9582Z" fill="#323947"/>
    <path d="M24.6883 64.5382C22.9394 64.5382 21.2583 62.9895 20.4383 61.5508C19.1636 59.3147 19.2361 55.6178 20.1452 54.0457C20.382 53.6337 20.7268 53.2944 21.1425 53.0642C21.5581 52.834 22.0287 52.7218 22.5035 52.7396C24.504 52.7396 27.0753 54.5676 27.2244 56.7014L27.2548 57.126C27.5016 60.5126 27.5707 63.3848 25.9067 64.2466C25.5301 64.441 25.1121 64.541 24.6883 64.5382ZM22.5029 54.7784C22.3865 54.7618 22.2678 54.7805 22.1621 54.832C22.0564 54.8835 21.9685 54.9655 21.9098 55.0673C21.374 55.9925 21.2926 58.9335 22.2089 60.5402C22.8253 61.6202 23.9372 62.4993 24.6877 62.4993C24.7845 62.5017 24.8804 62.4806 24.9673 62.4378C25.3544 62.1018 25.4449 60.3611 25.2204 57.2745L25.1898 56.8429C25.1277 55.9556 23.5959 54.7784 22.5029 54.7784Z" fill="#323947"/>
    <path d="M31.0283 69.8378C29.2874 69.8378 26.2663 67.9005 25.4548 66.2634C24.5975 64.5329 23.7157 57.8478 26.8685 55.6998C27.3374 55.4057 27.8834 55.2584 28.4366 55.277C30.5524 55.277 33.0544 56.8863 33.8746 60.4809C34.4618 63.056 33.4638 67.7481 32.5297 69.1186C32.3605 69.3555 32.1341 69.5457 31.8715 69.6714C31.609 69.7972 31.3189 69.8544 31.0283 69.8378ZM28.4366 57.3161C28.2924 57.3075 28.148 57.3315 28.0144 57.3864C26.1296 58.6708 26.625 64.0295 27.2823 65.3577C27.766 66.3346 29.996 67.7146 30.9449 67.7952C31.4963 66.6967 32.3415 62.9288 31.8864 60.935C31.2349 58.0783 29.4111 57.3161 28.4366 57.3161Z" fill="#323947"/>
    <path d="M37.4214 74.6092C37.2928 74.6092 37.1661 74.6044 37.0417 74.5942C33.5756 74.3085 31.6738 72.001 31.0499 69.9369C30.7369 68.9031 30.8035 65.0015 31.9042 62.9926C32.143 62.5569 32.7547 61.8257 34.17 61.8257C36.322 61.8257 39.7505 63.6408 39.9108 65.8766C40.0217 67.415 39.6609 69.3786 39.4397 70.3963L41.4734 71.8994C41.6159 72.0051 41.7284 72.1461 41.7998 72.3085C41.8712 72.4709 41.899 72.6491 41.8805 72.8256C41.8619 73.002 41.7977 73.1706 41.6942 73.3146C41.5906 73.4587 41.4513 73.5733 41.29 73.647C41.2029 73.6861 39.1566 74.6092 37.4214 74.6092ZM34.1691 63.865C33.8526 63.865 33.7108 63.9373 33.6915 63.9721C32.8622 65.4859 32.8422 68.803 33.0005 69.3462C33.2093 70.0363 34.1294 72.3082 37.209 72.562C37.7123 72.581 38.2154 72.5218 38.7005 72.3864L37.6877 71.6374C37.5245 71.5166 37.4011 71.3499 37.3331 71.1585C37.2652 70.9672 37.256 70.7599 37.3065 70.5632C37.3132 70.5361 38.0056 67.8174 37.8762 66.0232C37.8265 65.3278 35.7309 63.865 34.1691 63.865Z" fill="#323947"/>
    <path d="M47.0635 75.5013C44.2584 75.5013 40.872 73.8616 40.4111 73.6317C40.1802 73.5048 40.0074 73.2934 39.9288 73.0419C39.8502 72.7904 39.8719 72.5183 39.9895 72.2824C40.107 72.0466 40.3113 71.8654 40.5594 71.7768C40.8075 71.6881 41.0804 71.6989 41.3207 71.8069C43.1643 72.7241 46.654 73.9357 48.1709 73.285C50.322 72.3607 51.0291 71.4243 51.0365 71.4148C51.1358 71.2686 51.2725 71.1518 51.4323 71.0766C51.5922 71.0013 51.7693 70.9704 51.9452 70.9871C52.0036 70.9921 57.9626 71.3872 60.0141 68.2285C60.1283 68.053 60.2937 67.9169 60.4879 67.8386C60.6821 67.7603 60.8956 67.7436 61.0996 67.7909C63.1038 68.2572 66.1047 66.3772 67.1283 63.1722C67.1712 63.0383 67.2413 62.9146 67.3343 62.8091C67.4272 62.7035 67.541 62.6183 67.6685 62.5588C67.7959 62.4994 67.9343 62.4669 68.0749 62.4634C68.2155 62.4599 68.3553 62.4856 68.4855 62.5387C69.319 62.8798 70.5479 62.6534 71.6909 61.9476C73.1025 61.0816 74.1291 59.7081 74.5598 58.109C70.5147 57.8669 66.0565 55.4214 63.4012 53.0372C62.1169 51.8843 60.5699 50.1486 60.4937 48.4281C60.494 48.1656 60.5955 47.9132 60.7771 47.7236C60.9587 47.5339 61.2064 47.4216 61.4687 47.4099C61.731 47.3983 61.9877 47.4882 62.1855 47.661C62.3832 47.8338 62.5067 48.0761 62.5302 48.3376C62.5572 48.9307 63.1574 50.0783 64.7637 51.5204C67.4763 53.9558 72.1095 56.3054 75.6974 56.0744C75.8429 56.0653 75.9888 56.0875 76.1251 56.1396C76.2613 56.1917 76.3849 56.2724 76.4873 56.3762C76.5897 56.4801 76.6687 56.6047 76.7189 56.7417C76.7691 56.8787 76.7893 57.0248 76.7783 57.1703C76.6666 58.4951 76.2446 59.775 75.5464 60.9064C74.8482 62.0379 73.8935 62.9891 72.7594 63.683C71.4254 64.506 69.9861 64.8553 68.7302 64.6923C67.2273 68.1441 63.929 70.0593 61.3289 69.8793C58.8455 72.9212 53.9277 73.079 52.31 73.043C51.8096 73.5475 50.7955 74.3764 48.9754 75.1583C48.3678 75.4004 47.7174 75.5171 47.0635 75.5013Z" fill="#323947"/>
    <path d="M89.7727 25.8526L89.515 25.9733C89.345 26.0523 89.0923 26.1706 88.7699 26.3291L85.9601 27.7283C84.7518 28.3394 83.2803 29.076 81.5855 29.9129C80.7388 30.3338 79.8296 30.7667 78.8653 31.2176C77.8955 31.665 76.8865 32.1344 75.7422 32.5531C75.6032 32.6015 75.4732 32.6528 75.3249 32.7001L74.8734 32.8404C74.5695 32.9344 74.271 33.0079 73.9629 33.0861C73.3363 33.2332 72.7028 33.3487 72.0646 33.4321C70.7327 33.5884 69.3898 33.6295 68.0508 33.5548C67.3674 33.5201 66.6791 33.4679 65.986 33.3983L65.4685 33.3388L65.1945 33.3058L64.9384 33.2704C64.5955 33.2222 64.2507 33.174 63.9041 33.1256L61.7916 32.783C61.4388 32.7227 61.0947 32.6745 60.7437 32.6194L60.481 32.5792L60.3495 32.5592L60.3086 32.554L60.2416 32.546C60.0944 32.5262 59.9462 32.5157 59.7978 32.5145C58.6038 32.4839 57.2361 32.9226 55.827 33.3627C54.4386 33.7941 53.0856 34.3321 51.7802 34.972C51.1359 35.2927 50.5119 35.6525 49.9114 36.0492C49.6123 36.2446 49.3242 36.4545 49.0457 36.6727C48.9089 36.7845 48.7647 36.8898 48.6353 37.0074L48.2164 37.3737L47.7822 37.7569L47.3093 38.1522C46.9948 38.4099 46.6861 38.6565 46.3702 38.8951C45.7432 39.3768 45.1111 39.8368 44.4956 40.2947C43.281 41.1579 42.13 42.1073 41.0514 43.1355L40.6776 43.5209C40.5554 43.6511 40.4418 43.7857 40.3235 43.9175C40.2052 44.0493 40.0975 44.1867 39.9881 44.3233L39.8249 44.5284C39.8049 44.5501 39.7052 44.6884 39.6859 44.7201C39.5631 44.8897 39.4764 45.0828 39.4315 45.2874C39.4206 45.34 39.4203 45.3943 39.4305 45.447C39.4407 45.4998 39.4613 45.55 39.491 45.5948C39.6077 45.7645 39.7586 45.9079 39.9341 46.0159C40.179 46.1764 40.4398 46.3113 40.7123 46.4184C41.3242 46.656 41.9619 46.8207 42.6123 46.9093C42.9334 46.9562 43.257 46.9839 43.5814 46.9922C43.6598 46.9941 43.7351 46.9935 43.8096 46.9922L44.0614 46.9813C44.1613 46.9785 44.2303 46.9705 44.3052 46.9644C44.3801 46.9583 44.4515 46.9542 44.5329 46.9427C44.8487 46.9075 45.162 46.8523 45.4708 46.7775C45.6239 46.7407 45.7742 46.6986 45.9217 46.6511C45.997 46.6294 46.0689 46.6023 46.1414 46.5767L46.2499 46.538L46.2775 46.5285C46.3209 46.5115 46.2484 46.5413 46.2677 46.533L46.3305 46.5061L46.5803 46.3997C46.6646 46.3639 46.7056 46.3359 46.7705 46.3047C46.8791 46.2539 47.031 46.1635 47.1689 46.0876C47.455 45.9198 47.7433 45.737 48.064 45.5407C48.3792 45.3453 48.7163 45.1499 49.0923 44.9639L49.3311 44.8495C49.4102 44.8108 49.5133 44.7676 49.6031 44.7275C49.792 44.6406 49.9694 44.5755 50.1494 44.5037C50.8642 44.2315 51.6036 44.0291 52.3574 43.8993C53.0971 43.7768 53.8468 43.7259 54.5963 43.7473C55.3291 43.7715 56.0575 43.8702 56.7702 44.0419C57.4683 44.2131 58.1453 44.4606 58.7892 44.78C59.4042 45.0853 59.9874 45.4509 60.5301 45.8716C60.7964 46.0737 61.0454 46.2882 61.2869 46.5048C61.4041 46.616 61.521 46.7263 61.6375 46.8359L61.9492 47.1511C63.2706 48.5375 65.2992 48.7613 67.0235 48.684C68.5335 48.639 70.0262 48.3496 71.4435 47.8269C71.9478 47.6374 72.4251 47.3825 72.8631 47.0688C73.1842 46.8446 73.471 46.5749 73.7145 46.2682C73.8675 46.0735 74.0014 45.8645 74.1144 45.6443C74.1848 45.4893 74.2271 45.4074 74.2271 45.4074L74.2451 45.3731C74.2793 45.3074 74.3352 45.2555 74.4033 45.2263C74.4714 45.1971 74.5475 45.1923 74.6187 45.2127C74.6899 45.2332 74.7519 45.2776 74.7941 45.3385C74.8363 45.3993 74.8562 45.4729 74.8504 45.5468C74.8504 45.5468 74.8421 45.6519 74.8146 45.8587C74.8024 45.9627 74.7685 46.0869 74.7362 46.24C74.6868 46.4137 74.6264 46.5841 74.5553 46.7501C74.3531 47.215 74.0743 47.6425 73.7304 48.0149C73.2702 48.5062 72.739 48.9258 72.1545 49.2597C70.6117 50.1072 68.8992 50.5997 67.1418 50.7014C66.6145 50.7419 66.0852 50.7484 65.5571 50.721L65.34 50.7086L65.1507 50.6927C64.9974 50.6812 64.8659 50.6621 64.7208 50.6459C64.4362 50.6061 64.1471 50.559 63.854 50.49C63.2399 50.3519 62.6453 50.1385 62.0836 49.8546C61.7858 49.7028 61.4999 49.5286 61.2285 49.3335C61.0889 49.2306 60.9617 49.1358 60.8182 49.0109L60.6137 48.8299L60.4565 48.6794C60.3544 48.5791 60.2516 48.4783 60.148 48.3768L59.8514 48.1061C59.6485 47.9309 59.4416 47.7587 59.2236 47.5983C58.7879 47.2718 58.3208 46.9895 57.8292 46.7556C57.3282 46.5175 56.8026 46.3352 56.2618 46.2117C55.6963 46.0855 55.1194 46.0171 54.5401 46.0077C53.3208 45.9983 52.1108 46.2206 50.9745 46.6626C50.8302 46.721 50.6804 46.7784 50.5499 46.8394C50.4798 46.8717 50.4196 46.8947 50.3408 46.9334L50.102 47.0493C49.8467 47.1795 49.5693 47.3378 49.2792 47.5202C48.9931 47.6973 48.6775 47.9005 48.3444 48.0983C48.1673 48.1981 48.0103 48.2937 47.7941 48.4003C47.6973 48.4482 47.5801 48.5103 47.4982 48.5457L47.2488 48.6543L47.1863 48.6812C47.1863 48.6825 47.0918 48.7198 47.1137 48.7105L47.0768 48.7239L46.9294 48.7778C46.8313 48.8132 46.7327 48.8505 46.6329 48.8798C46.434 48.9449 46.2331 49.0024 46.03 49.0522C45.6258 49.1533 45.2154 49.2282 44.8015 49.2764C44.701 49.2914 44.5879 49.2981 44.4795 49.309C44.3712 49.3199 44.2555 49.3292 44.1704 49.3307L43.8665 49.345C43.7553 49.3479 43.6461 49.3492 43.5382 49.3472C43.1182 49.3396 42.699 49.3067 42.283 49.2484C41.4427 49.1382 40.6186 48.9284 39.8279 48.6234C39.3945 48.4557 38.9808 48.2413 38.5939 47.9839C38.1281 47.6779 37.7358 47.2727 37.4451 46.7972C37.1066 46.2267 36.9834 45.5539 37.0977 44.9005C37.1477 44.6114 37.2352 44.3301 37.3582 44.0638C37.4149 43.9396 37.4761 43.822 37.5406 43.7089C37.6044 43.6003 37.6709 43.4918 37.7508 43.3759C37.8393 43.2486 37.8519 43.2308 37.9516 43.1025L38.1469 42.8583C38.2792 42.6959 38.4075 42.5299 38.549 42.3781C38.6905 42.2264 38.8249 42.0664 38.9676 41.9166L39.4017 41.4752C40.5671 40.3748 41.8106 39.3602 43.1225 38.4394C43.7521 37.9789 44.3756 37.5306 44.9776 37.0745C45.28 36.8481 45.5767 36.6145 45.8644 36.3881L46.2858 36.0479L46.7254 35.6715L47.1826 35.2844C47.3404 35.1457 47.5093 35.0256 47.673 34.8969C48.0038 34.6466 48.3418 34.4088 48.6881 34.1896C49.3708 33.7534 50.0794 33.3594 50.8102 33.0097C52.2274 32.3412 53.6943 31.7834 55.1976 31.3413C55.9292 31.1242 56.6419 30.9132 57.4154 30.7363C58.2142 30.5417 59.0349 30.4522 59.8569 30.4701C60.0706 30.4771 60.2837 30.496 60.4953 30.5266L60.6556 30.5502L60.7906 30.5743L61.0609 30.6232C61.4193 30.6883 61.7827 30.7495 62.1309 30.8186C62.8239 30.9497 63.5099 31.0796 64.189 31.2083L65.2145 31.3789L65.4696 31.4208L65.7084 31.4555L66.2077 31.5256C66.8707 31.6191 67.5242 31.6961 68.1683 31.7564C70.7399 31.9902 73.1644 31.8508 75.2937 31.2007C76.3522 30.8839 77.3838 30.4554 78.3547 30.064C79.3292 29.6654 80.2497 29.2716 81.1172 28.9051L85.611 26.9867C86.8595 26.4557 87.8471 26.0532 88.5276 25.7861C88.868 25.6505 89.1286 25.5521 89.304 25.4868L89.5703 25.3865C89.6317 25.3637 89.6994 25.3655 89.7595 25.3915C89.8195 25.4175 89.8672 25.4656 89.8926 25.526C89.918 25.5863 89.9191 25.654 89.8957 25.7151C89.8723 25.7762 89.8262 25.8259 89.767 25.8539L89.7727 25.8526Z" fill="#323947"/>
    <path d="M75.3168 56.1741C75.3168 56.1741 75.3789 56.1418 75.4957 56.0801C75.5489 56.0508 75.637 56.0113 75.7008 55.9716L75.9179 55.8413L76.2132 55.6516C76.32 55.5747 76.4366 55.4977 76.5605 55.4039C76.8041 55.2185 77.085 54.9977 77.3889 54.7374C77.9996 54.2164 78.7113 53.526 79.5974 52.8255C79.7107 52.7397 79.8193 52.6501 79.9393 52.5665L80.1176 52.4384L80.2072 52.3746L80.2127 52.3704C80.2242 52.3615 80.1336 52.4306 80.1742 52.3995L80.1842 52.3917L80.2042 52.3765L80.2446 52.3455L80.2641 52.3298L80.2667 52.3262L80.2735 52.3205C80.283 52.3133 80.2918 52.3051 80.2997 52.2962C80.3232 52.2745 80.3451 52.2497 80.369 52.223C80.4221 52.1613 80.4691 52.0945 80.5094 52.0237C80.7048 51.7007 80.8366 51.1482 81.1607 50.5176C81.3377 50.1685 81.5829 49.8585 81.8817 49.6058C81.921 49.5723 81.9611 49.5406 82.003 49.5116L82.0647 49.4668L82.142 49.4136L82.1535 49.4073L82.1752 49.3943L82.3601 49.2903C82.4987 49.2187 82.6573 49.136 82.7804 49.0795C83.2963 48.8349 83.7923 48.611 84.2784 48.3994C85.2501 47.98 86.1599 47.6066 86.9434 47.2946C87.726 46.9881 88.378 46.7328 88.8345 46.5537C89.0577 46.4649 89.2326 46.3954 89.3518 46.3474L89.517 46.2758L89.555 46.2593C89.6265 46.2282 89.7069 46.2245 89.7809 46.2487C89.855 46.273 89.9175 46.3235 89.9568 46.3908C89.9961 46.4581 90.0093 46.5375 89.9939 46.6139C89.9786 46.6903 89.9357 46.7584 89.8735 46.8053L89.6925 46.9414C89.578 47.0217 89.4133 47.1368 89.2025 47.2703C88.7811 47.5423 88.1737 47.9044 87.4384 48.3238C86.7031 48.7433 85.8371 49.2122 84.9121 49.7093C84.4512 49.957 83.9677 50.2073 83.501 50.4702L83.1866 50.6504L83.0116 50.759L82.9899 50.7726L82.9786 50.7796C83.1013 50.6962 83.0112 50.7579 83.0379 50.7405L83.0357 50.7427L83.0156 50.7644C83.0019 50.778 82.9892 50.7925 82.9776 50.8078C82.8708 50.9433 82.7876 51.0957 82.7312 51.2587C82.5792 51.6477 82.4906 52.2139 82.1845 52.8804C82.014 53.2533 81.7641 53.5845 81.4523 53.8508L81.4132 53.8834L81.3937 53.8996L81.3305 53.9481L81.2582 54.0049L81.1132 54.1172C81.0161 54.1895 80.9228 54.2733 80.8288 54.3495C80.0815 54.9808 79.407 55.6891 78.7514 56.2803C78.4489 56.5601 78.1325 56.8245 77.8034 57.0725C77.5379 57.2719 77.2616 57.4566 76.9758 57.6256L76.6211 57.8171C76.5182 57.8711 76.4565 57.8959 76.3929 57.9256C76.2722 57.9795 76.2084 58.0083 76.2084 58.0083C75.9668 58.1148 75.6934 58.1235 75.4455 58.0325C75.1977 57.9416 74.9947 57.7582 74.8793 57.5208C74.7639 57.2833 74.745 57.0104 74.8266 56.7593C74.9081 56.5083 75.0839 56.2986 75.3168 56.1743V56.1741Z" fill="#323947"/>
    <path d="M45.475 67.8867L45.5317 67.9481C45.5679 67.9859 45.622 68.041 45.6902 68.1109C45.8352 68.254 46.0477 68.4583 46.3223 68.6825C46.6321 68.9402 46.9559 69.1806 47.2921 69.4026C47.4807 69.517 47.6666 69.6479 47.8713 69.7547C48.0706 69.8696 48.2753 69.9807 48.4865 70.0776C48.6926 70.1844 48.9077 70.2708 49.1181 70.3554C49.3245 70.4486 49.5401 70.5091 49.742 70.5793C49.9367 70.6444 50.1346 70.6998 50.3349 70.7451C50.4293 70.7686 50.5205 70.795 50.6097 70.8139C50.6998 70.8291 50.7868 70.8437 50.8702 70.8574C51.0374 70.8838 51.1883 70.9175 51.3246 70.9314L51.6776 70.9624L51.983 70.99L52.0558 70.9965C52.3231 71.0247 52.5685 71.1571 52.739 71.3648C52.9095 71.5726 52.9914 71.8392 52.967 72.1068C52.9425 72.3745 52.8137 72.6218 52.6084 72.7952C52.4031 72.9687 52.1377 73.0544 51.8697 73.0337C51.8303 73.0301 51.791 73.0242 51.7523 73.0161L51.3797 72.9378L50.9542 72.8466C50.7905 72.8088 50.6112 72.7476 50.4137 72.6901L50.1071 72.5974C50.0021 72.5615 49.8963 72.5177 49.7863 72.4762C49.5692 72.3894 49.3345 72.3093 49.1074 72.194C48.878 72.0831 48.6368 71.9793 48.4088 71.8432C48.1754 71.7153 47.941 71.5842 47.7187 71.434C47.4905 71.2931 47.2728 71.1383 47.0626 70.9815C46.8473 70.832 46.6543 70.6602 46.4595 70.5063C46.1153 70.2142 45.7874 69.9033 45.4774 69.575C45.2039 69.2891 44.9937 69.0336 44.8478 68.8501C44.7769 68.7587 44.7198 68.6834 44.6783 68.6267L44.6225 68.5481C44.543 68.4361 44.5092 68.2979 44.528 68.1618C44.5468 68.0257 44.6168 67.9019 44.7236 67.8155C44.8305 67.7292 44.9663 67.6868 45.1033 67.6971C45.2403 67.7073 45.3683 67.7693 45.4611 67.8706L45.475 67.8867Z" fill="#323947"/>
    <path d="M50.4003 62.5246L50.8219 62.8383C51.0916 63.0372 51.4841 63.3159 51.9584 63.6416C52.4328 63.9672 52.9946 64.3363 53.604 64.716C53.9107 64.9014 54.2236 65.1007 54.5501 65.2854C54.8742 65.4751 55.2046 65.6647 55.5402 65.8412C55.8724 66.0272 56.2104 66.1957 56.5434 66.3589C56.8732 66.5313 57.2084 66.6689 57.5268 66.8148C57.8449 66.9644 58.1618 67.0662 58.4554 67.186C58.7489 67.3059 59.0333 67.3725 59.2903 67.4594C59.3554 67.4793 59.4182 67.4987 59.4796 67.5182C59.541 67.5314 59.6014 67.5445 59.66 67.5575L59.9911 67.6313C60.0948 67.653 60.1921 67.6788 60.2807 67.6943L60.521 67.7194L60.9725 67.7711L61.0898 67.7844C61.2231 67.7996 61.3521 67.8409 61.4694 67.9059C61.5868 67.971 61.6901 68.0586 61.7737 68.1636C61.8572 68.2686 61.9192 68.389 61.9561 68.518C61.9931 68.647 62.0043 68.782 61.9891 68.9153C61.9739 69.0486 61.9326 69.1776 61.8675 69.295C61.8024 69.4123 61.7149 69.5157 61.6099 69.5992C61.5048 69.6827 61.3844 69.7447 61.2554 69.7817C61.1264 69.8186 60.9914 69.8298 60.8581 69.8146C60.8275 69.8109 60.795 69.8055 60.7648 69.7992C60.7648 69.7992 60.5477 69.7538 60.1654 69.6737C60.0701 69.6533 59.9652 69.6303 59.8513 69.6053C59.7405 69.5752 59.6272 69.5341 59.5026 69.4946L59.1095 69.3644C59.0404 69.3412 58.9697 69.3177 58.8974 69.2938C58.8283 69.2649 58.7578 69.2352 58.6859 69.2048C58.4019 69.0789 58.0809 68.9621 57.7702 68.8017C57.4595 68.6412 57.1189 68.4888 56.7955 68.296C56.4698 68.1074 56.1244 67.9224 55.7968 67.7082C55.4625 67.5013 55.1256 67.2883 54.7997 67.0623C54.4687 66.8437 54.1465 66.6142 53.8324 66.3854C53.5143 66.1618 53.2143 65.9265 52.9188 65.7048C52.3327 65.2561 51.7999 64.823 51.3493 64.4446C50.8986 64.0662 50.5293 63.744 50.2742 63.5139C50.0191 63.2838 49.8737 63.1492 49.8737 63.1492C49.7965 63.0786 49.7493 62.9812 49.7418 62.8769C49.7343 62.7726 49.767 62.6694 49.8333 62.5885C49.8995 62.5076 49.9943 62.4551 50.098 62.442C50.2018 62.4288 50.3066 62.4559 50.391 62.5177L50.4003 62.5246Z" fill="#323947"/>
    <path d="M56.4729 56.7505C56.4729 56.7505 57.1611 57.2262 58.2335 57.8983C58.7704 58.2315 59.3984 58.6147 60.0816 59.0079C60.7648 59.401 61.4988 59.8061 62.2421 60.1873C62.6112 60.3851 62.9898 60.5583 63.3565 60.7405C63.7231 60.9226 64.0946 61.0761 64.4472 61.2376C64.803 61.3896 65.1501 61.5248 65.476 61.6594L66.4045 61.9909C66.6919 62.0873 66.9574 62.1548 67.1906 62.226C67.3888 62.2865 67.5903 62.3359 67.7941 62.3739L68.3151 62.4868L68.393 62.5035C68.6579 62.5605 68.8892 62.7205 69.0362 62.9481C69.1831 63.1757 69.2336 63.4524 69.1765 63.7172C69.1195 63.9821 68.9595 64.2134 68.7319 64.3604C68.5043 64.5073 68.2276 64.5578 67.9628 64.5007C67.935 64.4944 67.9057 64.4871 67.879 64.479L67.2737 64.2934C67.0435 64.2277 66.8167 64.1503 66.5942 64.0618C66.3402 63.9602 66.0478 63.8564 65.7419 63.7231L64.77 63.2757C64.4352 63.102 64.079 62.9266 63.7184 62.733C63.3641 62.5317 62.9916 62.3331 62.6255 62.1145C62.2595 61.8958 61.8855 61.6783 61.5247 61.4415C60.7944 60.9825 60.0795 60.5049 59.4212 60.0423C58.763 59.5797 58.1582 59.137 57.6446 58.7526C56.6216 57.9799 55.9582 57.4298 55.9582 57.4298C55.8734 57.3597 55.8189 57.2595 55.8061 57.1501C55.7933 57.0408 55.8233 56.9308 55.8896 56.843C55.956 56.7552 56.0537 56.6963 56.1624 56.6788C56.271 56.6613 56.3823 56.6863 56.4729 56.7488V56.7505Z" fill="#323947"/>
</svg>
