<svg width="25" height="25" viewBox="0 0 25 25" fill="none" xmlns="http://www.w3.org/2000/svg">
    <path d="M23.9587 3.12473C22.9611 3.82835 21.8567 4.36651 20.6878 4.71848C20.0605 3.99714 19.2267 3.48587 18.2993 3.25382C17.3719 3.02177 16.3956 3.08014 15.5025 3.42104C14.6094 3.76193 13.8425 4.3689 13.3055 5.15985C12.7686 5.95081 12.4875 6.88758 12.5003 7.84348V8.88515C10.6697 8.93262 8.85582 8.52662 7.22013 7.70332C5.58443 6.88002 4.17774 5.66498 3.12533 4.1664C3.12533 4.1664 -1.04134 13.5414 8.33366 17.7081C6.18837 19.1643 3.63278 19.8945 1.04199 19.7914C10.417 24.9997 21.8753 19.7914 21.8753 7.81223C21.8744 7.52208 21.8465 7.23264 21.792 6.94765C22.8551 5.89921 23.6054 4.57548 23.9587 3.12473V3.12473Z" stroke="#495369" stroke-width="2" stroke-linecap="round" stroke-linejoin="round"/>
</svg>
