<svg width="418" height="358" viewBox="0 0 418 358" fill="none" xmlns="http://www.w3.org/2000/svg">
    <g clip-path="url(#clip0)">
        <path d="M122.842 354.087C129.552 348.417 133.628 339.46 132.559 330.74C131.49 322.02 124.87 314.004 116.282 312.152C107.695 310.301 97.9054 315.426 95.2971 323.815C93.8616 307.642 92.2074 290.791 83.6087 277.018C75.8227 264.547 62.3372 255.623 47.722 254.027C33.1068 252.43 17.7189 258.46 8.60393 269.995C-0.511034 281.531 -2.74279 298.301 3.6411 311.545C8.34387 321.301 17.0081 328.562 26.086 334.469C55.4199 353.396 90.6022 361.093 125.16 356.143" fill="#F8F9FB"/>
        <path d="M23.0565 258.793C35.1159 268.616 46.179 279.601 56.086 291.591C71.5904 310.292 84.1368 331.258 93.288 353.76C93.9578 355.401 91.2922 356.116 90.6298 354.493C84.8103 340.266 77.6105 326.643 69.1337 313.821C55.9149 293.791 39.7201 275.892 21.1073 260.742C19.7311 259.622 21.6917 257.682 23.0565 258.793V258.793Z" fill="white"/>
        <path d="M127.476 354.087C120.766 348.417 116.69 339.46 117.759 330.74C118.828 322.02 125.449 314.004 134.036 312.152C142.624 310.301 152.413 315.426 155.022 323.815C156.457 307.642 158.111 290.791 166.71 277.018C174.496 264.547 187.981 255.623 202.597 254.027C217.212 252.43 232.6 258.46 241.715 269.995C250.83 281.531 253.061 298.301 246.677 311.545C241.975 321.301 233.31 328.562 224.233 334.469C194.899 353.396 159.716 361.093 125.159 356.143" fill="#F8F9FB"/>
        <path d="M227.262 258.793C215.203 268.616 204.14 279.601 194.233 291.591C178.728 310.292 166.182 331.258 157.031 353.76C156.361 355.401 159.027 356.116 159.689 354.493C174.662 317.922 198.565 285.69 229.212 260.742C230.588 259.622 228.627 257.682 227.262 258.793V258.793Z" fill="white"/>
        <path d="M147.389 160.966C159.803 160.966 169.866 150.903 169.866 138.489C169.866 126.075 159.803 116.012 147.389 116.012C134.975 116.012 124.912 126.075 124.912 138.489C124.912 150.903 134.975 160.966 147.389 160.966Z" fill="#F8F9FB"/>
        <path d="M78.0865 61.0039H232.947V69.4765H97.8558C89.913 69.4765 82.0479 71.041 74.7096 74.0806C67.3714 77.1201 60.7037 81.5754 55.0872 87.1918C49.4708 92.8083 45.0155 99.4759 41.9759 106.814C38.9363 114.152 37.3719 122.018 37.3719 129.96V226.219H20.4267C19.6777 226.219 18.9594 225.922 18.4297 225.392C17.9001 224.862 17.6026 224.144 17.6025 223.395V121.488C17.6025 113.545 19.167 105.68 22.2066 98.3416C25.2462 91.0033 29.7014 84.3356 35.3179 78.7192C40.9343 73.1027 47.602 68.6475 54.9403 65.6079C62.2785 62.5683 70.1436 61.0039 78.0865 61.0039Z" fill="#F8F9FB"/>
        <path d="M107.873 354.559V225.859H145.576V354.559C145.575 355.424 145.231 356.253 144.62 356.865C144.008 357.476 143.179 357.821 142.314 357.821H111.136C110.271 357.821 109.441 357.476 108.83 356.865C108.218 356.253 107.874 355.424 107.873 354.559Z" fill="#495369"/>
        <path d="M9.62695 223.322V118.67C9.64576 102.01 16.2722 86.0382 28.0526 74.2578C39.8329 62.4774 55.8051 55.8509 72.465 55.832H232.222V226.948H13.2523C12.2911 226.947 11.3697 226.564 10.69 225.885C10.0104 225.205 9.62805 224.284 9.62695 223.322ZM230.772 57.2822H72.465C56.1896 57.3006 40.586 63.7742 29.0775 75.2827C17.569 86.7913 11.0955 102.395 11.0771 118.67V223.322C11.0777 223.899 11.3071 224.452 11.7149 224.86C12.1227 225.268 12.6756 225.497 13.2523 225.498H230.772V57.2822Z" fill="#495369"/>
        <path d="M147.389 150.089C143.928 150.085 140.611 148.709 138.164 146.262C135.718 143.815 134.341 140.498 134.337 137.038V43.504C134.337 42.9273 134.107 42.3744 133.7 41.9666C133.292 41.5588 132.739 41.3294 132.162 41.3288H81.4076C80.4464 41.3277 79.5249 40.9454 78.8453 40.2657C78.1657 39.5861 77.7833 38.6646 77.7822 37.7035V3.62533C77.7833 2.66418 78.1657 1.7427 78.8453 1.06306C79.5249 0.38342 80.4464 0.00111301 81.4076 0H156.814C157.776 0.0010996 158.697 0.383406 159.377 1.06305C160.056 1.74269 160.439 2.66417 160.44 3.62533V137.038C160.436 140.498 159.06 143.815 156.613 146.262C154.166 148.709 150.849 150.085 147.389 150.089Z" fill="#21CE99"/>
        <path d="M238.022 54.379C248.96 54.3561 259.459 58.6792 267.21 66.3975C274.961 74.1157 279.328 84.5967 279.351 95.5348V214.67H360.558C363.82 214.663 366.952 215.953 369.263 218.255C371.575 220.557 372.877 223.683 372.884 226.945H196.693V95.5348C196.716 84.5967 201.083 74.1157 208.834 66.3975C216.585 58.6792 227.084 54.3561 238.022 54.379Z" fill="#495369"/>
        <path d="M228.105 122.221L236.663 157.573L404.067 117.048L395.509 81.6961C395.406 81.2639 395.195 80.8648 394.896 80.5358C394.597 80.2069 394.22 79.9588 393.8 79.8145C393.489 79.7054 393.161 79.656 392.832 79.669L296.066 29.5655C295.498 29.2759 294.847 29.1986 294.228 29.3474C293.608 29.4962 293.063 29.8614 292.689 30.377L246.053 95.411L228.472 119.935C228.44 119.978 228.418 120.027 228.407 120.079C228.395 120.132 228.396 120.186 228.407 120.238C228.05 120.834 227.941 121.546 228.105 122.221Z" fill="white"/>
        <path d="M228.407 120.238C228.416 120.284 228.433 120.328 228.458 120.367C228.484 120.406 228.516 120.44 228.555 120.467C228.6 120.498 228.651 120.52 228.705 120.53C228.759 120.541 228.815 120.541 228.869 120.529C228.956 120.506 229.033 120.453 229.086 120.379L229.146 120.295L230.061 119.015L246.686 95.8387L293.309 30.8197C293.575 30.4512 293.964 30.1904 294.406 30.0844C294.848 29.9785 295.313 30.0345 295.717 30.2423L391.734 79.9577L392.596 80.4049C392.631 80.4196 392.666 80.4321 392.703 80.4424C392.768 80.4306 392.834 80.4243 392.9 80.4235C392.99 80.3934 393.065 80.3299 393.11 80.2461C393.133 80.2019 393.148 80.1536 393.152 80.1039C393.157 80.0541 393.152 80.004 393.137 79.9563C393.122 79.9085 393.098 79.8642 393.066 79.8257C393.034 79.7873 392.995 79.7555 392.951 79.7322L392.832 79.669L296.065 29.5655C295.498 29.2759 294.847 29.1986 294.227 29.3474C293.608 29.4962 293.063 29.8614 292.689 30.377L246.053 95.4109L228.472 119.935C228.44 119.978 228.418 120.027 228.407 120.079C228.395 120.132 228.396 120.186 228.407 120.238Z" fill="#495369"/>
        <path d="M278.684 123.843L282.41 124.257L310.066 127.32L328.4 129.35L329.483 129.471L352.36 111.601L353.237 110.917L358.64 106.697L377.864 91.6835L377.98 90.6289L384.817 28.9155C384.91 28.0658 384.663 27.2137 384.129 26.5461C383.595 25.8786 382.818 25.45 381.968 25.3544L290.715 15.2457C289.865 15.1529 289.013 15.4006 288.346 15.9345C287.678 16.4685 287.25 17.2452 287.154 18.0946L282.332 61.6258L279.657 85.7603L277.264 107.352L276.155 117.379L275.831 120.283C275.739 121.133 275.988 121.985 276.522 122.653C277.057 123.32 277.834 123.748 278.684 123.843Z" fill="#F8F9FB"/>
        <path d="M303.76 69.7482L343.288 74.1262L357.307 75.6783C357.925 75.7469 358.552 75.6929 359.15 75.5193C359.748 75.3458 360.306 75.0562 360.792 74.667C361.278 74.2779 361.683 73.7968 361.983 73.2512C362.283 72.7057 362.473 72.1063 362.541 71.4874C362.61 70.8685 362.556 70.2422 362.382 69.6441C362.209 69.0461 361.919 68.4881 361.53 68.002C361.141 67.5159 360.66 67.1112 360.114 66.811C359.569 66.5109 358.969 66.3211 358.35 66.2525L340.915 64.3215L304.807 60.3178C303.557 60.1796 302.303 60.5436 301.321 61.3297C300.339 62.1158 299.71 63.2597 299.571 64.5098C299.432 65.76 299.796 67.014 300.581 67.9963C301.367 68.9786 302.51 69.6088 303.76 69.7482Z" fill="white"/>
        <path d="M301.51 87.2337C301.612 87.252 301.714 87.2702 301.818 87.2802L347.704 92.3636L355.365 93.214C356.615 93.3523 357.87 92.9882 358.852 92.2018C359.834 91.4155 360.463 90.2712 360.601 89.0208C360.74 87.7704 360.376 86.5162 359.589 85.5342C358.803 84.5522 357.658 83.9228 356.408 83.7845L345.33 82.5589L308.982 78.5313L302.866 77.8535C301.642 77.717 300.414 78.0616 299.44 78.8144C298.466 79.5672 297.823 80.6692 297.647 81.8874C297.471 83.1056 297.776 84.3445 298.497 85.3423C299.218 86.34 300.298 87.0182 301.51 87.2337V87.2337Z" fill="white"/>
        <path d="M296.317 102.739C296.693 103.363 297.208 103.892 297.821 104.286C298.435 104.679 299.131 104.925 299.855 105.005L318.663 107.088L352.159 110.799L352.166 110.797L353.237 110.917L358.641 106.697C358.674 106.376 358.674 106.053 358.641 105.732C358.527 104.656 358.049 103.65 357.287 102.883C356.524 102.115 355.521 101.63 354.446 101.509L349.793 100.993L331.335 98.9499L318.054 97.4769L300.898 95.5757C300.019 95.4784 299.13 95.6289 298.332 96.0103C297.534 96.3916 296.859 96.9887 296.382 97.7338C295.905 98.479 295.647 99.3426 295.635 100.227C295.624 101.112 295.86 101.982 296.317 102.739L296.317 102.739Z" fill="white"/>
        <path d="M322.733 48.3776L332.568 49.4669L336.912 49.9493L343.474 50.6756C344.725 50.8139 345.979 50.4498 346.961 49.6634C347.943 48.877 348.572 47.7328 348.711 46.4823C348.849 45.2319 348.485 43.9777 347.698 42.9958C346.912 42.0138 345.768 41.3844 344.517 41.2461L323.781 38.9509C322.531 38.812 321.277 39.1753 320.295 39.961C319.312 40.7467 318.683 41.8903 318.544 43.1404C318.405 44.3904 318.768 45.6445 319.554 46.6267C320.339 47.6088 321.483 48.2387 322.733 48.3776V48.3776Z" fill="white"/>
        <path d="M242.312 74.6313L254.302 124.163L274.315 127.969L292.828 131.493L312.69 135.273L319.036 136.48C319.408 136.55 319.79 136.541 320.157 136.452C320.525 136.363 320.869 136.197 321.168 135.964L326.259 131.988L329.483 129.47L352.36 111.601L337.814 51.5122C337.67 50.9144 337.357 50.3708 336.912 49.9467C336.521 49.5715 336.043 49.3006 335.52 49.159C334.997 49.0175 334.447 49.0098 333.921 49.1367L244.687 70.7384C243.856 70.9401 243.139 71.4634 242.694 72.1933C242.249 72.9232 242.111 73.8001 242.312 74.6313Z" fill="#D3D3D3"/>
        <path d="M269.807 114.037C270.104 115.259 270.874 116.313 271.947 116.968C273.02 117.623 274.31 117.825 275.532 117.53L327.892 104.855C329.114 104.557 330.167 103.787 330.822 102.714C331.477 101.641 331.68 100.352 331.386 99.1298C331.372 99.0691 331.355 99.0094 331.335 98.9509C331 97.7724 330.223 96.7691 329.165 96.1512C328.107 95.5334 326.851 95.3488 325.661 95.6364L273.3 108.312C272.079 108.609 271.025 109.378 270.37 110.452C269.715 111.525 269.512 112.814 269.807 114.037Z" fill="white"/>
        <path d="M274.315 127.969L292.828 131.493L332.043 122C333.265 121.704 334.32 120.935 334.975 119.861C335.63 118.787 335.832 117.497 335.536 116.275C335.24 115.053 334.471 113.998 333.397 113.343C332.323 112.687 331.034 112.486 329.811 112.782L277.451 125.457C276.357 125.72 275.393 126.366 274.734 127.278C274.575 127.496 274.435 127.727 274.315 127.969Z" fill="white"/>
        <path d="M312.69 135.273L319.037 136.481C319.408 136.551 319.791 136.541 320.158 136.452C320.526 136.363 320.87 136.197 321.168 135.965L326.26 131.988L312.69 135.273Z" fill="white"/>
        <path d="M280.358 87.4776C280.655 88.6994 281.424 89.7536 282.497 90.4085C283.571 91.0635 284.86 91.2657 286.083 90.9709L306.363 86.0615C307.584 85.764 308.638 84.9942 309.293 83.9211C309.948 82.8479 310.15 81.5589 309.856 80.3365C309.698 79.6797 309.4 79.0648 308.983 78.5339C308.422 77.8162 307.666 77.2751 306.806 76.9753C305.945 76.6755 305.017 76.6296 304.131 76.8432L283.851 81.7526C282.629 82.0487 281.574 82.8181 280.919 83.8917C280.264 84.9653 280.062 86.2551 280.358 87.4776V87.4776Z" fill="white"/>
        <path d="M292.827 131.494L312.692 135.274L319.037 136.482C319.408 136.551 319.79 136.541 320.157 136.452C320.524 136.364 320.868 136.198 321.167 135.966L326.262 131.989L324.474 132.422L320.7 135.366C320.486 135.531 320.24 135.65 319.978 135.713C319.716 135.777 319.443 135.784 319.178 135.735L314.48 134.841L294.614 131.061L292.827 131.494ZM352.164 110.801L352.358 111.6L353.239 110.915L352.164 110.801ZM292.827 131.494L312.692 135.274L319.037 136.482C319.408 136.551 319.79 136.541 320.157 136.452C320.524 136.364 320.868 136.198 321.167 135.966L326.262 131.989L324.474 132.422L320.7 135.366C320.486 135.531 320.24 135.65 319.978 135.713C319.716 135.777 319.443 135.784 319.178 135.735L314.48 134.841L294.614 131.061L292.827 131.494ZM292.827 131.494L312.692 135.274L319.037 136.482C319.408 136.551 319.79 136.541 320.157 136.452C320.524 136.364 320.868 136.198 321.167 135.966L326.262 131.989L324.474 132.422L320.7 135.366C320.486 135.531 320.24 135.65 319.978 135.713C319.716 135.777 319.443 135.784 319.178 135.735L314.48 134.841L294.614 131.061L292.827 131.494ZM228.105 122.222L250.521 214.821C250.687 215.505 251.118 216.095 251.72 216.462C252.321 216.829 253.043 216.942 253.727 216.777L415.969 177.502C416.653 177.336 417.243 176.905 417.61 176.303C417.977 175.702 418.09 174.98 417.925 174.296L395.509 81.6972C395.406 81.2649 395.195 80.8658 394.896 80.5369C394.597 80.2079 394.22 79.9598 393.799 79.8156C393.489 79.7064 393.161 79.657 392.832 79.67C392.449 79.6811 392.073 79.7799 391.734 79.9588C391.578 80.0331 391.43 80.1248 391.294 80.2322L377.979 90.6295L358.641 105.735L352.163 110.795L352.164 110.801L352.159 110.802L328.401 129.348L324.474 132.422L320.7 135.366C320.486 135.531 320.24 135.65 319.978 135.713C319.716 135.777 319.443 135.784 319.178 135.735L314.48 134.841L294.614 131.061L274.732 127.279L231.183 118.992C230.812 118.918 230.429 118.926 230.061 119.016C229.566 119.137 229.116 119.398 228.765 119.767C228.63 119.912 228.511 120.07 228.407 120.239C228.05 120.835 227.941 121.547 228.105 122.222ZM292.827 131.494L312.692 135.274L319.037 136.482C319.408 136.551 319.79 136.541 320.157 136.452C320.524 136.364 320.868 136.198 321.167 135.966L326.262 131.989L324.474 132.422L320.7 135.366C320.486 135.531 320.24 135.65 319.978 135.713C319.716 135.777 319.443 135.784 319.178 135.735L314.48 134.841L294.614 131.061L292.827 131.494ZM292.827 131.494L312.692 135.274L319.037 136.482C319.408 136.551 319.79 136.541 320.157 136.452C320.524 136.364 320.868 136.198 321.167 135.966L326.262 131.989L324.474 132.422L320.7 135.366C320.486 135.531 320.24 135.65 319.978 135.713C319.716 135.777 319.443 135.784 319.178 135.735L314.48 134.841L294.614 131.061L292.827 131.494ZM292.827 131.494L312.692 135.274L319.037 136.482C319.408 136.551 319.79 136.541 320.157 136.452C320.524 136.364 320.868 136.198 321.167 135.966L326.262 131.989L324.474 132.422L320.7 135.366C320.486 135.531 320.24 135.65 319.978 135.713C319.716 135.777 319.443 135.784 319.178 135.735L314.48 134.841L294.614 131.061L292.827 131.494Z" fill="white"/>
        <path d="M292.827 131.494L312.692 135.274L319.037 136.482C319.408 136.551 319.79 136.541 320.157 136.452C320.524 136.364 320.868 136.198 321.167 135.966L326.262 131.989L324.474 132.422L320.7 135.366C320.486 135.531 320.24 135.65 319.978 135.713C319.716 135.777 319.443 135.784 319.178 135.734L314.48 134.841L294.614 131.061L292.827 131.494ZM352.164 110.801L352.358 111.6L353.239 110.915L352.164 110.801ZM292.827 131.494L312.692 135.274L319.037 136.482C319.408 136.551 319.79 136.541 320.157 136.452C320.524 136.364 320.868 136.198 321.167 135.966L326.262 131.989L324.474 132.422L320.7 135.366C320.486 135.531 320.24 135.65 319.978 135.713C319.716 135.777 319.443 135.784 319.178 135.734L314.48 134.841L294.614 131.061L292.827 131.494ZM292.827 131.494L312.692 135.274L319.037 136.482C319.408 136.551 319.79 136.541 320.157 136.452C320.524 136.364 320.868 136.198 321.167 135.966L326.262 131.989L324.474 132.422L320.7 135.366C320.486 135.531 320.24 135.65 319.978 135.713C319.716 135.777 319.443 135.784 319.178 135.734L314.48 134.841L294.614 131.061L292.827 131.494ZM229.146 120.296L229.244 120.37C229.261 120.343 229.29 120.319 229.311 120.291C229.531 120.062 229.804 119.891 230.106 119.794C230.408 119.697 230.729 119.676 231.041 119.734L274.317 127.966L292.827 131.494L312.692 135.274L319.037 136.482C319.408 136.551 319.79 136.541 320.157 136.452C320.524 136.364 320.868 136.198 321.167 135.966L326.262 131.989L324.474 132.422L320.7 135.366C320.486 135.531 320.24 135.65 319.978 135.713C319.716 135.777 319.443 135.784 319.178 135.734L314.48 134.841L294.614 131.061L274.732 127.279L231.183 118.992C230.812 118.918 230.429 118.926 230.061 119.016L229.146 120.296ZM228.105 122.222L250.521 214.821C250.687 215.505 251.118 216.095 251.72 216.462C252.321 216.829 253.043 216.942 253.727 216.777L415.969 177.502C416.653 177.336 417.243 176.905 417.61 176.303C417.977 175.702 418.09 174.98 417.925 174.296L395.509 81.6972C395.406 81.2649 395.195 80.8658 394.896 80.5369C394.597 80.2079 394.22 79.9598 393.799 79.8156C393.489 79.7064 393.161 79.657 392.832 79.67C392.449 79.6811 392.073 79.7799 391.734 79.9588C391.578 80.0331 391.43 80.1248 391.294 80.2322L377.979 90.6295L358.641 105.735L352.163 110.795L352.164 110.801L352.159 110.802L328.401 129.348L324.474 132.422L320.7 135.366C320.486 135.531 320.24 135.65 319.978 135.713C319.716 135.777 319.443 135.784 319.178 135.735L314.48 134.841L294.614 131.061L274.732 127.279L231.183 118.992C230.812 118.918 230.429 118.926 230.061 119.016C229.566 119.137 229.116 119.398 228.765 119.767C228.63 119.912 228.511 120.07 228.407 120.239C228.05 120.835 227.941 121.547 228.105 122.222ZM228.844 122.043C228.778 121.77 228.774 121.486 228.832 121.211C228.89 120.936 229.008 120.678 229.179 120.455C229.194 120.422 229.217 120.393 229.244 120.37C229.261 120.343 229.29 120.319 229.311 120.291C229.531 120.062 229.804 119.891 230.106 119.794C230.408 119.697 230.729 119.676 231.041 119.734L274.317 127.966L292.827 131.494L312.692 135.274L319.037 136.482C319.408 136.551 319.79 136.541 320.157 136.452C320.524 136.364 320.868 136.198 321.167 135.966L326.262 131.989L329.484 129.471L352.358 111.6L353.239 110.915L358.638 106.697L377.865 91.681L391.766 80.8256C391.977 80.6608 392.221 80.5429 392.482 80.4797C392.554 80.4619 392.628 80.4498 392.703 80.4434C392.768 80.4316 392.834 80.4253 392.9 80.4246C393.122 80.4225 393.343 80.4585 393.553 80.5311C393.852 80.6354 394.121 80.813 394.335 81.0477C394.548 81.2824 394.7 81.5667 394.775 81.8748L417.191 174.473C417.25 174.716 417.261 174.968 417.222 175.214C417.184 175.461 417.097 175.698 416.967 175.911C416.837 176.124 416.666 176.31 416.464 176.457C416.263 176.604 416.034 176.71 415.791 176.768L253.55 216.044C253.06 216.161 252.544 216.08 252.115 215.817C251.685 215.554 251.378 215.131 251.26 214.642L228.844 122.043ZM292.827 131.494L312.692 135.274L319.037 136.482C319.408 136.551 319.79 136.541 320.157 136.452C320.524 136.364 320.868 136.198 321.167 135.966L326.262 131.989L324.474 132.422L320.7 135.366C320.486 135.531 320.24 135.65 319.978 135.713C319.716 135.777 319.443 135.784 319.178 135.735L314.48 134.841L294.614 131.061L292.827 131.494ZM292.827 131.494L312.692 135.274L319.037 136.482C319.408 136.551 319.79 136.541 320.157 136.452C320.524 136.364 320.868 136.198 321.167 135.966L326.262 131.989L324.474 132.422L320.7 135.366C320.486 135.531 320.24 135.65 319.978 135.713C319.716 135.777 319.443 135.784 319.178 135.735L314.48 134.841L294.614 131.061L292.827 131.494ZM292.827 131.494L312.692 135.274L319.037 136.482C319.408 136.551 319.79 136.541 320.157 136.452C320.524 136.364 320.868 136.198 321.167 135.966L326.262 131.989L324.474 132.422L320.7 135.366C320.486 135.531 320.24 135.65 319.978 135.713C319.716 135.777 319.443 135.784 319.178 135.735L314.48 134.841L294.614 131.061L292.827 131.494Z" fill="#495369"/>
        <path d="M373.683 159.31C373.318 157.793 373.569 156.192 374.382 154.86C375.195 153.528 376.503 152.572 378.02 152.203L398.497 147.246C400.012 146.885 401.609 147.139 402.937 147.953C404.265 148.767 405.217 150.074 405.583 151.588C405.95 153.102 405.701 154.699 404.892 156.03C404.083 157.361 402.78 158.318 401.267 158.689L380.79 163.646C379.273 164.012 377.672 163.761 376.34 162.948C375.008 162.135 374.052 160.826 373.683 159.31Z" fill="#21CE99"/>
        <path d="M147.389 142.112C150.192 142.112 152.464 139.84 152.464 137.036C152.464 134.233 150.192 131.961 147.389 131.961C144.586 131.961 142.313 134.233 142.313 137.036C142.313 139.84 144.586 142.112 147.389 142.112Z" fill="white"/>
    </g>
    <defs>
        <clipPath id="clip0">
            <rect width="418" height="357.82" fill="white"/>
        </clipPath>
    </defs>
</svg>
