<svg width="24" height="24" viewBox="0 0 24 24" fill="none" xmlns="http://www.w3.org/2000/svg">
    <path d="M12 23C5.9247 23 1 18.0753 1 12C1 5.9247 5.9247 1 12 1C18.0753 1 23 5.9247 23 12C23 18.0753 18.0753 23 12 23ZM6.5143 18.8816C8.0714 20.1265 10.0064 20.8032 12 20.8C14.167 20.8 16.1503 20.0168 17.6837 18.7188C16.9673 17.9837 16.1108 17.3998 15.1647 17.0015C14.2187 16.6032 13.2024 16.3987 12.176 16.4C11.1118 16.3988 10.0591 16.6187 9.08441 17.0459C8.10977 17.4731 7.23456 18.0982 6.5143 18.8816ZM4.9776 17.302C5.9021 16.3209 7.01774 15.5395 8.25575 15.006C9.49377 14.4725 10.8279 14.1982 12.176 14.2C13.4758 14.1983 14.7632 14.4534 15.9641 14.9506C17.1651 15.4478 18.256 16.1774 19.1742 17.0974C20.1159 15.772 20.672 14.2117 20.7808 12.5895C20.8897 10.9673 20.5469 9.34667 19.7907 7.9074C19.0345 6.46813 17.8944 5.26649 16.4968 4.43579C15.0992 3.60509 13.4987 3.17782 11.8731 3.20138C10.2474 3.22493 8.66003 3.69839 7.28707 4.56923C5.91412 5.44007 4.80926 6.67424 4.09506 8.13482C3.38087 9.5954 3.08526 11.2253 3.24105 12.8436C3.39683 14.462 3.99791 16.0056 4.9776 17.3031V17.302ZM12 13.1C10.833 13.1 9.71389 12.6364 8.88873 11.8113C8.06357 10.9861 7.6 9.86695 7.6 8.7C7.6 7.53305 8.06357 6.41389 8.88873 5.58873C9.71389 4.76357 10.833 4.3 12 4.3C13.167 4.3 14.2861 4.76357 15.1113 5.58873C15.9364 6.41389 16.4 7.53305 16.4 8.7C16.4 9.86695 15.9364 10.9861 15.1113 11.8113C14.2861 12.6364 13.167 13.1 12 13.1ZM12 10.9C12.5835 10.9 13.1431 10.6682 13.5556 10.2556C13.9682 9.84305 14.2 9.28348 14.2 8.7C14.2 8.11652 13.9682 7.55695 13.5556 7.14437C13.1431 6.73179 12.5835 6.5 12 6.5C11.4165 6.5 10.8569 6.73179 10.4444 7.14437C10.0318 7.55695 9.8 8.11652 9.8 8.7C9.8 9.28348 10.0318 9.84305 10.4444 10.2556C10.8569 10.6682 11.4165 10.9 12 10.9Z" fill="#676E80"/>
</svg>
