<svg width="30" height="30" viewBox="0 0 30 30" fill="none" xmlns="http://www.w3.org/2000/svg">
<path d="M7.37619 13.7712C7.63969 11.7735 9.40559 9.96533 12.6357 8.38963L13.2174 8.10586L10.8327 3.70312L10.2943 3.976C3.46354 7.43859 0 12.3321 0 18.5206C0 20.6559 0.677812 22.5001 2.01475 24.0021C3.37043 25.525 5.01562 26.2972 6.90498 26.2972C8.60262 26.2972 10.0421 25.6927 11.1836 24.5002C12.3175 23.3155 12.8925 21.8439 12.8925 20.1263C12.8925 18.5032 12.3117 17.0568 11.1663 15.8271C10.156 14.7425 8.88299 14.0525 7.37619 13.7712ZM10.2873 23.6423C9.37641 24.594 8.27004 25.0565 6.90498 25.0565C5.36367 25.0565 4.06723 24.4417 2.94158 23.1771C1.79701 21.8913 1.24061 20.3682 1.24061 18.5205C1.24061 15.6842 2.0393 13.1235 3.61436 10.9096C5.11723 8.79738 7.37133 6.93252 10.3198 5.3608L11.5145 7.56639C7.92152 9.44924 6.10107 11.7126 6.10107 14.3002V14.8543L6.65156 14.9166C8.13445 15.0845 9.31412 15.6589 10.2585 16.6727C11.196 17.6792 11.6518 18.8089 11.6518 20.1262C11.6519 21.5329 11.2055 22.683 10.2873 23.6423Z" fill="#12B583"/>
<path d="M24.2108 13.7731C24.4712 11.7737 26.2225 9.96461 29.4268 8.38873L29.9995 8.10707L27.6741 3.70117L27.1304 3.97551C20.2684 7.43793 16.7891 12.3316 16.7891 18.5206C16.7891 20.6573 17.4755 22.5024 18.8294 24.0048C20.2 25.5259 21.852 26.2971 23.7399 26.2971C25.4396 26.2971 26.8725 25.6915 27.9987 24.4968C29.1153 23.3126 29.6815 21.8421 29.6815 20.1262C29.6815 18.5031 29.1007 17.0567 27.9554 15.8271C26.9472 14.7448 25.6895 14.0554 24.2108 13.7731ZM27.0962 23.6458C26.201 24.5951 25.1033 25.0566 23.7399 25.0566C22.197 25.0566 20.8923 24.441 19.751 23.1744C18.5926 21.889 18.0296 20.3668 18.0296 18.5206C18.0296 15.6848 18.8319 13.1245 20.414 10.9108C21.9235 8.79906 24.1873 6.93449 27.1484 5.36295L28.3106 7.56514C24.7436 9.44863 22.9361 11.7125 22.9361 14.3003V14.8531L23.4852 14.9165C24.9376 15.0842 26.1028 15.6586 27.0477 16.6728C27.9852 17.6792 28.4409 18.8089 28.4409 20.1263C28.441 21.5348 28.001 22.6861 27.0962 23.6458Z" fill="#12B583"/>
</svg>
