<svg width="100" height="100" viewBox="0 0 100 100" fill="none" xmlns="http://www.w3.org/2000/svg">
<path d="M99 50C99 77.062 77.062 99 50 99C22.938 99 1 77.062 1 50C1 22.938 22.938 1 50 1C77.062 1 99 22.938 99 50Z" stroke="#323947" stroke-width="2"/>
<path d="M27.2012 47L29.75 22.7129H35.2725C37.4697 22.7129 39.042 23.2109 39.9893 24.207C40.7607 25.0176 41.1465 26.1846 41.1465 27.708C41.1465 28.0498 41.127 28.4111 41.0879 28.792C40.7656 31.8779 39.4424 33.5869 37.1182 33.9189C38.4951 34.2607 39.457 34.9395 40.0039 35.9551C40.4141 36.7168 40.6191 37.6836 40.6191 38.8555C40.6191 39.2266 40.5996 39.6221 40.5605 40.042C40.3262 42.2295 39.6377 43.9385 38.4951 45.1689C37.3525 46.3896 35.7314 47 33.6318 47H27.2012ZM30.7461 44.6416H33.1338C34.5986 44.6416 35.6338 44.29 36.2393 43.5869C36.8545 42.8838 37.25 41.7021 37.4258 40.042C37.4648 39.7002 37.4844 39.3779 37.4844 39.0752C37.4844 37.9912 37.2695 37.1465 36.8398 36.541C36.293 35.7598 35.292 35.374 33.8369 35.3838H31.7129L30.7461 44.6416ZM31.9766 32.8936H34.1006C35.4873 32.8936 36.4834 32.5762 37.0889 31.9414C37.6943 31.3066 38.0752 30.2568 38.2314 28.792C38.2607 28.499 38.2754 28.2256 38.2754 27.9717C38.2754 27.6689 38.2559 27.3955 38.2168 27.1514C38.1387 26.7119 38.002 26.3604 37.8066 26.0967C37.6113 25.8232 37.3037 25.6182 36.8838 25.4814C36.4639 25.3447 36.0195 25.2568 35.5508 25.2178C35.0918 25.1689 34.4766 25.1445 33.7051 25.1445H32.7822L31.9766 32.8936Z" fill="#323947"/>
<path d="M47.2988 47.249C46.3027 47.249 45.4873 47.1025 44.8525 46.8096C44.2178 46.5166 43.7441 46.082 43.4316 45.5059C43.1191 44.9199 42.9238 44.1973 42.8457 43.3379C42.8164 43.0254 42.8066 42.6934 42.8164 42.3418C42.8164 41.7266 42.8555 41.0576 42.9336 40.335L43.3584 36.3213C43.4854 35.1201 43.6709 34.1045 43.915 33.2744C44.1689 32.4443 44.5205 31.7314 44.9697 31.1357C45.4189 30.54 45.9854 30.1055 46.6689 29.832C47.3623 29.5488 48.1924 29.4072 49.1592 29.4072C50.2041 29.4072 51.0391 29.5781 51.6641 29.9199C52.2988 30.252 52.7432 30.7402 52.9971 31.3848C53.2412 32.0293 53.3828 32.8203 53.4219 33.7578C53.4316 33.9336 53.4365 34.1143 53.4365 34.2998C53.4365 35.0908 53.3779 35.9697 53.2607 36.9365L53.0996 38.3574H46.2441L45.9951 40.7012C45.9658 41.0332 45.9414 41.2725 45.9219 41.4189C45.9121 41.5654 45.8975 41.7803 45.8779 42.0635C45.8584 42.3467 45.8486 42.5566 45.8486 42.6934C45.8584 42.8203 45.8633 43.001 45.8633 43.2354C45.873 43.46 45.8975 43.626 45.9365 43.7334C45.9756 43.8408 46.0195 43.9775 46.0684 44.1436C46.127 44.2998 46.2002 44.417 46.2881 44.4951C46.376 44.5732 46.4736 44.6562 46.5811 44.7441C46.6982 44.8223 46.835 44.876 46.9912 44.9053C47.1475 44.9346 47.3232 44.9492 47.5186 44.9492C48.2119 44.9492 48.7197 44.71 49.042 44.2314C49.3643 43.7529 49.5742 43.0254 49.6719 42.0488L49.7891 40.9795H52.8213L52.7334 41.6826C52.3525 45.3936 50.541 47.249 47.2988 47.249ZM46.4346 36.6729H50.2432L50.3896 35.1055C50.4482 34.5586 50.4775 34.0703 50.4775 33.6406C50.4678 33.5039 50.4629 33.377 50.4629 33.2598C50.4434 32.752 50.3066 32.3662 50.0527 32.1025C49.8086 31.8389 49.4229 31.707 48.8955 31.707C48.1143 31.707 47.5625 31.9854 47.2402 32.542C46.9277 33.0986 46.6885 34.1533 46.5225 35.7061L46.4346 36.6729Z" fill="#323947"/>
<path d="M27.2012 77L29.75 52.7129H34.7158C37.1377 52.7129 38.8613 53.2207 39.8867 54.2363C40.7168 55.0566 41.1318 56.2871 41.1318 57.9277C41.1318 58.2988 41.1123 58.6943 41.0732 59.1143C40.7314 62.2686 39.5156 64.1631 37.4258 64.7979L39.6377 77H36.459L34.4375 65.5449H31.6982L30.4824 77H27.2012ZM31.9473 63.2012H33.3975C34.8818 63.2012 35.9609 62.9082 36.6348 62.3223C37.3184 61.7266 37.7432 60.6572 37.9092 59.1143C37.9482 58.7529 37.9678 58.416 37.9678 58.1035C37.9678 57.1465 37.7871 56.4385 37.4258 55.9795C36.9473 55.374 35.9561 55.0713 34.4521 55.0713H32.7969L31.9473 63.2012Z" fill="#323947"/>
<path d="M42.7578 77L45.3066 52.7129H54.6523L54.4033 55.1445H48.3389L47.4746 63.2744H52.4111L52.1768 65.6328H47.2402L46.2881 74.6416H52.4404L52.1768 77H42.7578Z" fill="#323947"/>
<path d="M53.6123 77L61.3467 52.7129H64.5254L67.1621 77H64.0273L63.5586 70.833H58.5342L56.7324 77H53.6123ZM59.208 68.4893H63.3828L62.46 57.3125L59.208 68.4893Z" fill="#323947"/>
<path d="M69.6523 77L72.2012 52.7129H75.4824L73.1973 74.6416H79.4668L79.2031 77H69.6523Z" fill="#323947"/>
</svg>
