<svg width="20" height="20" viewBox="0 0 20 20" fill="none" xmlns="http://www.w3.org/2000/svg">
<path d="M4.19727 2.54732C4.19699 3.11211 3.97562 3.65364 3.58185 4.05281C3.18809 4.45197 2.65418 4.67605 2.09759 4.67577C1.54099 4.67549 1.00731 4.45086 0.613934 4.0513C0.220561 3.65174 -0.000278034 3.10998 2.62709e-07 2.5452C0.000278559 1.98041 0.221651 1.43888 0.615418 1.03971C1.00919 0.640554 1.54309 0.416466 2.09969 0.416748C2.65628 0.417031 3.18996 0.64166 3.58334 1.04122C3.97671 1.44078 4.19755 1.98254 4.19727 2.54732ZM4.26023 6.25268H0.0629593V19.5834H4.26023V6.25268ZM10.8919 6.25268H6.71564V19.5834H10.8499V12.588C10.8499 8.69097 15.8552 8.32895 15.8552 12.588V19.5834H20V11.1399C20 4.57036 12.5918 4.81526 10.8499 8.04147L10.8919 6.25268Z" fill="#676E80"/>
</svg>
