<svg width="50" height="50" viewBox="0 0 50 50" fill="none" xmlns="http://www.w3.org/2000/svg">
    <g clip-path="url(#clip0)">
        <path d="M12.2937 22.954C12.7328 19.6245 15.676 16.6108 21.0596 13.9847L22.029 13.5117L18.0545 6.17383L17.1572 6.62861C5.77256 12.3996 0 20.5554 0 30.8696C0 34.4284 1.12969 37.5021 3.35791 40.0054C5.61738 42.5436 8.35938 43.8306 11.5083 43.8306C14.3377 43.8306 16.7369 42.823 18.6393 40.8356C20.5292 38.861 21.4875 36.4084 21.4875 33.5457C21.4875 30.8406 20.5195 28.4299 18.6104 26.3805C16.9267 24.5728 14.805 23.4229 12.2937 22.954ZM17.1455 39.4059C15.6273 40.9919 13.7834 41.7628 11.5083 41.7628C8.93945 41.7628 6.77871 40.7382 4.90264 38.6305C2.99502 36.4875 2.06768 33.9489 2.06768 30.8695C2.06768 26.1423 3.39883 21.8744 6.02393 18.1847C8.52871 14.6643 12.2855 11.5562 17.1997 8.93662L19.1908 12.6126C13.2025 15.7507 10.1685 19.523 10.1685 23.8356V24.7591L11.0859 24.863C13.5574 25.1428 15.5235 26.1001 17.0975 27.7897C18.6601 29.4673 19.4197 31.3502 19.4197 33.5456C19.4198 35.8901 18.6758 37.8069 17.1455 39.4059Z" fill="#21CE99"/>
        <path d="M40.354 22.9564C40.7879 19.6242 43.7068 16.609 49.0473 13.9825L50.0019 13.5131L46.1261 6.16992L45.2199 6.62715C33.7832 12.3978 27.9844 20.554 27.9844 30.869C27.9844 34.4301 29.1285 37.5054 31.3849 40.0094C33.6693 42.5444 36.4227 43.8299 39.569 43.8299C42.402 43.8299 44.7901 42.8204 46.6672 40.8294C48.5281 38.8556 49.4718 36.4048 49.4718 33.545C49.4718 30.8398 48.5038 28.4291 46.5949 26.3798C44.9146 24.576 42.8185 23.427 40.354 22.9564ZM45.1629 39.4109C43.671 40.9932 41.8414 41.7623 39.569 41.7623C36.9977 41.7623 34.823 40.7362 32.9209 38.6253C30.9903 36.4829 30.052 33.9459 30.052 30.869C30.052 26.1426 31.3892 21.8754 34.0259 18.186C36.5418 14.6664 40.3148 11.5588 45.2499 8.93955L47.187 12.6099C41.2419 15.749 38.2295 19.5221 38.2295 23.8351V24.7565L39.1446 24.8622C41.5653 25.1416 43.5073 26.099 45.082 27.7892C46.6446 29.4667 47.4041 31.3494 47.4041 33.5451C47.4042 35.8926 46.671 37.8114 45.1629 39.4109Z" fill="#21CE99"/>
    </g>
    <defs>
        <clipPath id="clip0">
            <rect width="50" height="50" fill="white"/>
        </clipPath>
    </defs>
</svg>
