<svg width="80" height="80" viewBox="0 0 80 80" fill="none" xmlns="http://www.w3.org/2000/svg">
<g clip-path="url(#clip0_10821_67453)">
<path d="M72.8741 13.8142C61.8671 10.7983 50.7954 6.10221 40.8559 0.233789C40.3279 -0.0779295 39.6728 -0.0779295 39.145 0.233789C28.9187 6.27081 18.4453 10.7128 7.12582 13.8142C6.39457 14.0144 5.8877 14.6791 5.8877 15.4374V32.632C5.8877 50.3387 14.0563 62.0593 20.9091 68.7735C28.2866 76.0024 36.8803 80 40.0004 80C43.1203 80 51.714 76.0024 59.0915 68.7735C65.9441 62.0595 74.1123 50.3388 74.1123 32.632V15.4372C74.1123 14.6791 73.6054 14.0144 72.8741 13.8142ZM70.7466 32.6319C70.7466 49.1698 63.1277 60.1065 56.7359 66.3693C49.4811 73.4779 41.7243 76.6341 40.0004 76.6341C38.2765 76.6341 30.5194 73.4779 23.2644 66.3693C16.8727 60.1063 9.25347 49.1698 9.25347 32.6319V16.7147C20.0781 13.6413 30.1591 9.35205 40.0008 3.63284C49.5967 9.20033 60.1806 13.7028 70.7466 16.7141V32.6319Z" fill="#12B583"/>
<path d="M25.0837 16.5255C24.7431 15.6607 23.7661 15.2358 22.9011 15.5766C19.8948 16.7611 16.8092 17.8515 13.73 18.8174C13.0283 19.0377 12.5508 19.6877 12.5508 20.423V26.9216C12.5508 27.851 13.3044 28.6044 14.2336 28.6044C15.1628 28.6044 15.9164 27.851 15.9164 26.9216V21.6529C18.6787 20.7591 21.4381 19.7705 24.1348 18.7079C24.9997 18.3674 25.4245 17.3904 25.0837 16.5255Z" fill="#12B583"/>
<path d="M28.2804 16.8449C28.5062 16.8449 28.7354 16.7994 28.9552 16.7035L28.9862 16.69C29.8376 16.3169 30.221 15.3258 29.8479 14.4747C29.4745 13.6233 28.4777 13.2381 27.6273 13.611L27.6001 13.6227C26.7482 13.9947 26.3635 14.985 26.7356 15.8366C27.0117 16.4688 27.6312 16.8449 28.2804 16.8449Z" fill="#12B583"/>
<path d="M60.0504 54.2625C59.2727 53.7542 58.2299 53.9728 57.721 54.7508C56.3343 56.8733 54.7074 58.9058 52.8849 60.7912C51.3862 62.3415 49.7621 63.7865 48.0579 65.0858C47.319 65.6492 47.1768 66.7051 47.7401 67.4443C48.0715 67.8786 48.5726 68.107 49.0795 68.107C49.4354 68.107 49.794 67.9947 50.0987 67.7622C51.937 66.3604 53.6885 64.8022 55.3044 63.1306C57.2749 61.0925 59.0358 58.8925 60.5387 56.5917C61.0473 55.8136 60.8283 54.7708 60.0504 54.2625Z" fill="#12B583"/>
<path d="M44.1495 67.7249L44.053 67.7818C43.2488 68.2476 42.9739 69.277 43.4395 70.0812C43.7516 70.6202 44.3164 70.9212 44.8975 70.9212C45.1834 70.9212 45.4737 70.8482 45.7389 70.6943L45.8503 70.6288C46.6523 70.1592 46.9217 69.1284 46.452 68.3263C45.982 67.5246 44.9511 67.2557 44.1495 67.7249Z" fill="#12B583"/>
<path d="M28.5291 36.5656C27.4958 35.5322 26.1216 34.9634 24.6601 34.9634C23.1985 34.9634 21.8241 35.5323 20.7904 36.5656C18.6571 38.6994 18.6571 42.1712 20.7904 44.3048L30.7272 54.2414C31.7607 55.2745 33.1349 55.8434 34.5966 55.8434C36.0583 55.8434 37.4325 55.2745 38.4661 54.2411L59.21 33.497C61.3431 31.3628 61.3431 27.8914 59.2097 25.7584C58.1763 24.725 56.802 24.1562 55.3402 24.1562C53.8784 24.1562 52.5042 24.7252 51.4706 25.7584L34.5965 42.6326L28.5291 36.5656ZM53.8506 28.1384C54.2483 27.7408 54.7775 27.5219 55.3403 27.5219C55.9034 27.5219 56.4322 27.7408 56.8302 28.1384C57.6513 28.9595 57.6513 30.2961 56.8298 31.1175L36.0863 51.8612C35.6886 52.2589 35.1594 52.4778 34.5966 52.4778C34.0338 52.4778 33.5046 52.2589 33.1068 51.8612L23.1702 41.925C22.3488 41.1036 22.3488 39.767 23.1699 38.9459C23.5677 38.5483 24.0969 38.329 24.6599 38.329C25.2229 38.329 25.7518 38.548 26.1494 38.9456L33.4065 46.2028C33.7222 46.5182 34.15 46.6956 34.5965 46.6956C35.0429 46.6956 35.4707 46.5184 35.7861 46.2028L53.8506 28.1384Z" fill="#12B583"/>
</g>
<defs>
<clipPath id="clip0_10821_67453">
<rect width="80" height="80" fill="white"/>
</clipPath>
</defs>
</svg>
