<svg width="716" height="527" viewBox="0 0 716 527" fill="none" xmlns="http://www.w3.org/2000/svg">
    <path d="M535.424 415.038C535.424 415.038 579.344 403.573 613.712 346.247C652.232 281.985 635.707 169.857 584.399 115.383C536.799 64.8652 431.418 55.9797 370.272 80.6297C312.49 103.932 268.113 159.939 232.8 167.578C197.486 175.217 153.553 162.806 105.824 215.345C58.0956 267.883 68.5922 386.375 123.008 425.543C177.424 464.71 257.616 418.85 327.312 387.321C397.007 355.792 408.449 424.582 535.424 415.038Z" fill="#F8F9FB"/>
    <g opacity="0.7">
        <path opacity="0.7" d="M537.693 417.064C537.693 417.064 582.165 405.455 616.966 347.408C655.971 282.338 639.238 168.798 587.284 113.639C539.085 62.4854 432.378 53.4881 370.462 78.4483C311.954 102.044 267.018 158.756 231.26 166.491C195.503 174.226 151.016 161.658 102.687 214.858C54.3582 268.058 64.9868 388.041 120.088 427.701C175.188 467.362 256.389 420.924 326.962 388.999C397.534 357.073 409.12 426.729 537.693 417.064Z" fill="white"/>
    </g>
    <path d="M520.876 299.329V299.243C509.191 295.359 491.262 296.677 488.599 298.268C485.767 300.165 483.334 302.6 481.439 305.434C475.145 314.37 470.633 324.438 468.15 335.085L341.06 346.909C336.377 336.791 329.317 327.719 322.229 322.245C320.204 320.547 317.87 319.258 315.355 318.447C314.249 318.314 313.128 318.353 312.033 318.561C307.422 305.19 300.892 292.292 292.73 291.475C275.546 289.755 245.56 295.517 237.383 312.198C229.206 328.88 226.643 370.527 226.643 370.527L220.915 376.259C216.737 368.114 210.926 360.918 203.846 355.121C201.827 353.414 199.491 352.123 196.972 351.323C195.54 350.922 189.812 351.81 183.812 353.774C183.568 353.544 183.339 353.315 183.082 353.1C177.354 348.299 165.611 345.676 159.053 357.915C152.494 370.154 160.37 393.328 164.294 398.573C166.199 401.253 168.589 403.552 171.339 405.352C175.964 416.817 184.227 431.435 196.943 432.109C201.299 432.343 205.654 431.638 209.713 430.041C213.773 428.443 217.441 425.991 220.471 422.851C228.719 414.252 229.607 402.171 226.5 390.347L227.832 388.398C227.832 388.398 230.796 392.626 242.152 390.92C245.443 390.581 248.564 389.286 251.13 387.194C256.457 400.795 265.063 414.424 278.739 416.459C284.608 417.358 290.602 416.981 296.313 415.353C302.023 413.726 307.317 410.887 311.833 407.029C314.457 404.76 316.748 402.131 318.635 399.218C326.292 398.795 333.505 395.488 338.826 389.96C343.586 384.879 346.309 378.221 346.473 371.258L363.385 369.28C374.001 374.019 385.584 376.189 397.194 375.615C408.312 374.9 418.836 370.34 426.965 362.716L465.501 359.42C466.145 374.368 471.515 388.083 484.117 395.635C488.941 398.517 494.333 400.318 499.92 400.915C505.507 401.511 511.156 400.888 516.48 399.089C534.251 393.127 538.461 366.7 539.607 350.635C541.382 324.838 533.163 302.983 520.876 299.329Z" fill="#495369" stroke="#495369" stroke-width="0.75" stroke-linecap="round" stroke-linejoin="round"/>
    <path d="M285.598 408.16C284.12 410.051 282.236 411.584 280.085 412.646" stroke="white" stroke-width="0.5" stroke-linecap="round" stroke-linejoin="round"/>
    <path d="M292.543 374.195C292.543 374.195 294.247 392.826 287.903 404.649" stroke="white" stroke-width="0.5" stroke-linecap="round" stroke-linejoin="round"/>
    <path d="M297.569 394.773C295.951 401.939 292.729 408.89 286.485 411.971" stroke="white" stroke-width="0.5" stroke-linecap="round" stroke-linejoin="round"/>
    <path d="M305.345 372.777C305.345 372.777 308.209 403.747 292.901 411.228" stroke="white" stroke-width="0.5" stroke-linecap="round" stroke-linejoin="round"/>
    <path d="M311.76 372.059C311.76 372.059 314.624 403.043 299.302 410.51" stroke="white" stroke-width="0.5" stroke-linecap="round" stroke-linejoin="round"/>
    <path d="M504.952 393.773C503.306 395.854 501.261 397.583 498.938 398.861" stroke="white" stroke-width="0.5" stroke-linecap="round" stroke-linejoin="round"/>
    <path d="M516.465 355.09C516.465 355.09 515.548 376.286 507.687 389.772" stroke="white" stroke-width="0.5" stroke-linecap="round" stroke-linejoin="round"/>
    <path d="M518.512 378.566C515.935 386.721 511.811 394.632 505.295 398.071" stroke="white" stroke-width="0.5" stroke-linecap="round" stroke-linejoin="round"/>
    <path d="M529.181 353.516C529.181 353.516 527.649 388.828 511.653 397.284" stroke="white" stroke-width="0.5" stroke-linecap="round" stroke-linejoin="round"/>
    <path d="M535.568 352.742C535.568 352.742 534.035 388.04 518.04 396.51" stroke="white" stroke-width="0.5" stroke-linecap="round" stroke-linejoin="round"/>
    <path d="M200.981 427.32C199.762 429.189 198.155 430.773 196.27 431.964" stroke="white" stroke-width="0.5" stroke-linecap="round" stroke-linejoin="round"/>
    <path d="M203.244 397.184C203.244 397.184 207.282 412.948 202.729 423.969" stroke="white" stroke-width="0.5" stroke-linecap="round" stroke-linejoin="round"/>
    <path d="M210.733 414.109C210.089 420.487 207.869 426.907 202.327 430.433" stroke="white" stroke-width="0.5" stroke-linecap="round" stroke-linejoin="round"/>
    <path d="M215.33 394.117C215.33 394.117 222.06 420.272 208.37 428.885" stroke="white" stroke-width="0.5" stroke-linecap="round" stroke-linejoin="round"/>
    <path d="M221.373 392.566C221.373 392.566 228.117 418.721 214.413 427.349" stroke="white" stroke-width="0.5" stroke-linecap="round" stroke-linejoin="round"/>
    <path d="M270.734 363.577C274.142 383.082 272.009 399.763 265.994 400.838C259.98 401.913 252.319 386.923 248.911 367.418C245.502 347.913 247.636 331.231 253.665 330.156C259.694 329.081 267.326 344.057 270.734 363.577Z" fill="#F8F9FB" stroke="#495369" stroke-linecap="round" stroke-linejoin="round"/>
    <path d="M267.698 363.991C268.643 371.472 267.77 377.735 265.722 377.993C263.674 378.251 261.268 372.404 260.323 364.923C259.378 357.442 260.323 351.165 262.299 350.907C264.276 350.649 266.753 356.51 267.698 363.991Z" fill="#F8F9FB" stroke="#495369" stroke-linecap="round" stroke-linejoin="round"/>
    <path d="M253.335 346.105C253.538 343.594 253.935 341.102 254.524 338.652" stroke="#495369" stroke-width="0.75" stroke-linecap="round" stroke-linejoin="round"/>
    <path d="M262.829 393.802C258.866 385.861 256.032 377.405 254.409 368.679C253.33 362.507 252.894 356.239 253.106 349.977" stroke="#495369" stroke-width="0.75" stroke-linecap="round" stroke-linejoin="round"/>
    <path d="M186.457 421.544C190.786 420.343 191.147 407.999 187.263 393.972C183.378 379.945 176.72 369.547 172.391 370.748C168.062 371.949 167.702 384.293 171.586 398.32C175.47 412.347 182.128 422.745 186.457 421.544Z" fill="#F8F9FB" stroke="#495369" stroke-linecap="round" stroke-linejoin="round"/>
    <path d="M185.845 394.533C187.205 399.864 187.133 404.479 185.673 404.851C184.212 405.224 181.95 401.197 180.589 395.88C179.229 390.563 179.3 385.92 180.761 385.561C182.222 385.203 184.484 389.202 185.845 394.533Z" stroke="#495369" stroke-width="0.75" stroke-linecap="round" stroke-linejoin="round"/>
    <path d="M173.844 382.878C173.764 381.042 173.827 379.202 174.03 377.375" stroke="#495369" stroke-width="0.75" stroke-linecap="round" stroke-linejoin="round"/>
    <path d="M185 416.544C181.419 411.153 178.609 405.287 176.651 399.117C175.313 394.749 174.43 390.253 174.017 385.703" stroke="#495369" stroke-width="0.75" stroke-linecap="round" stroke-linejoin="round"/>
    <path d="M493.424 154.581C478.331 123.411 471.815 120.702 461.777 120.186C451.738 119.67 428.039 116.718 401.633 120.946C401.633 120.946 327.97 119.656 270.977 154.209C211.477 190.281 182.522 221.967 178.47 238.391C174.417 254.815 160.584 297.608 154.025 322.144C147.467 346.679 142.999 368.291 151.362 388.154C156.417 400.164 161.801 403.775 168.718 403.718C167.66 401.817 166.727 399.85 165.925 397.828C159.052 380.788 159.882 356.41 167.73 354.834C175.577 353.257 180.26 369.58 185 387.38C185.94 391.303 187.215 395.139 188.809 398.845C200.537 394.417 219.325 384.514 244.299 374.224C241.928 358.591 241.875 342.693 244.141 327.045C247.836 302.581 263.459 297.178 270.261 312.069C275.889 324.336 277.979 351.795 278.538 361.053C288.562 357.599 296.953 355.321 302.123 355.005C302.123 355.005 387.585 335.687 450.578 334.139C513.572 332.591 545.09 331.086 545.09 331.086C545.09 331.086 508.517 185.695 493.424 154.581Z" fill="white"/>
    <path d="M292.027 304.973C292.027 304.973 283.364 316.839 272.824 319.376C276.547 333.048 278.08 353.284 278.552 360.937C287.502 357.855 295.106 355.691 300.319 355.061C301.078 350.589 301.536 347.737 301.536 347.737L292.027 304.973Z" fill="#F8F9FB"/>
    <path opacity="0.2" d="M185.372 388.669C189.353 389.07 192.003 390.79 200.093 388.77C214.413 385.201 204.117 357.541 227.874 346.248C232.486 343.921 237.504 342.51 242.652 342.092C242.866 337.031 243.344 331.984 244.084 326.973C244.715 322.05 246.167 317.269 248.38 312.828C241.894 310.836 240.719 308.929 229.664 314.189C205.893 325.482 209.459 354.618 195.21 358.186C183.84 361.053 183.21 356.481 174.575 358.602C178.613 364.335 181.735 375.499 184.886 387.265C185.129 387.795 185.244 388.182 185.372 388.669Z" fill="#F8F9FB"/>
    <g style="mix-blend-mode:multiply">
        <g style="mix-blend-mode:multiply" opacity="0.2">
            <path d="M161.988 364.176C155.329 368.762 151.362 375.641 149.1 381.445C149.713 383.735 150.469 385.985 151.362 388.181C156.417 400.191 161.801 403.802 168.718 403.745C167.66 401.844 166.727 399.877 165.926 397.854C161.558 387.006 160.384 373.205 161.988 364.176Z" fill="#F8F9FB"/>
        </g>
    </g>
    <g style="mix-blend-mode:multiply" opacity="0.2">
        <path d="M461.776 120.185L459.185 120.027C354.749 146.77 312.261 272.742 297.641 333.45C298.428 339.484 299.287 345.402 300.218 351.164C301.994 350.82 300.762 355.004 302.123 354.933C302.123 354.933 387.585 335.614 450.578 334.066C513.572 332.519 545.09 331.014 545.09 331.014C545.09 331.014 508.517 185.694 493.424 154.58C478.33 123.467 471.815 120.644 461.776 120.185Z" fill="#F8F9FB"/>
    </g>
    <path d="M493.424 154.581C478.33 123.411 471.815 120.702 461.777 120.186C451.738 119.67 428.039 116.718 401.633 120.946C401.633 120.946 327.97 119.656 270.977 154.209C211.477 190.281 182.522 221.967 178.47 238.391C174.417 254.815 160.584 297.608 154.025 322.144C147.467 346.679 142.999 368.291 151.362 388.154C156.417 400.164 161.801 403.775 168.718 403.718C167.66 401.817 166.727 399.85 165.925 397.828C159.052 380.788 159.882 356.41 167.73 354.834C175.577 353.257 180.26 369.58 185 387.38C185.94 391.303 187.215 395.139 188.809 398.845C200.537 394.417 219.325 384.514 244.299 374.224C241.928 358.591 241.875 342.693 244.141 327.045C247.836 302.581 263.459 297.178 270.261 312.069C275.889 324.336 277.979 351.795 278.538 361.053C288.562 357.599 296.953 355.321 302.123 355.005C302.123 355.005 387.585 335.687 450.578 334.139C513.572 332.591 545.09 331.086 545.09 331.086C545.09 331.086 508.517 185.695 493.424 154.581Z" stroke="#495369" stroke-linecap="round" stroke-linejoin="round"/>
    <path opacity="0.2" d="M180.818 311.881C181.801 312.699 182.998 313.219 184.267 313.379C185.535 313.539 186.823 313.332 187.978 312.783C192.489 310.978 192.947 304.185 192.947 304.185L199.706 303.74L201.067 282.516L186.174 288.377C186.174 288.377 182.179 309.172 180.818 311.881Z" fill="#F8F9FB"/>
    <path d="M161.286 373.953C157.01 376.228 152.966 378.916 149.214 381.979C149.808 384.078 150.525 386.141 151.362 388.156C156.417 400.165 161.801 403.777 168.718 403.719C167.66 401.819 166.727 399.851 165.925 397.829C162.99 390.205 161.419 382.123 161.286 373.953Z" fill="#495369" stroke="#495369" stroke-width="0.75" stroke-linecap="round" stroke-linejoin="round"/>
    <path d="M184.098 362.116C183.711 362.114 183.331 362.008 182.998 361.809C182.666 361.61 182.393 361.325 182.208 360.984C181.947 360.488 181.891 359.911 182.052 359.375C182.213 358.839 182.577 358.387 183.067 358.117C183.411 357.931 211.277 340.647 234.361 328.365C234.611 328.233 234.883 328.15 235.164 328.123C235.445 328.096 235.729 328.125 235.999 328.207C236.269 328.29 236.52 328.425 236.738 328.604C236.955 328.784 237.136 329.005 237.268 329.254C237.401 329.503 237.483 329.776 237.51 330.058C237.537 330.339 237.509 330.622 237.426 330.893C237.344 331.163 237.209 331.414 237.03 331.632C236.85 331.85 236.63 332.03 236.38 332.163C213.311 344.431 185.459 361.7 185.115 361.886C184.801 362.049 184.451 362.128 184.098 362.116Z" fill="#495369" stroke="#495369" stroke-miterlimit="10"/>
    <path d="M220.528 218.456L219.54 243.063C219.325 246.416 221.272 248.036 223.836 246.588L263.43 220.792C264.886 219.776 266.06 218.407 266.841 216.812C267.623 215.218 267.987 213.451 267.898 211.677L267.655 184.233C267.368 181.739 265.679 180.721 263.602 181.796C256.156 185.651 241.779 198.693 224.595 210.832C223.43 211.755 222.468 212.909 221.769 214.22C221.069 215.532 220.647 216.974 220.528 218.456Z" fill="#F8F9FB" stroke="#495369" stroke-linecap="round" stroke-linejoin="round"/>
    <path d="M247.277 211.52L266.624 216.249" stroke="#495369" stroke-linecap="round" stroke-linejoin="round"/>
    <path d="M220.814 246.703L232.757 220.305" stroke="#495369" stroke-linecap="round" stroke-linejoin="round"/>
    <path d="M220.757 217.638L238.313 219.83C240.132 220.103 242.394 218.598 244.041 215.989L266.953 183.156" stroke="#495369" stroke-linecap="round" stroke-linejoin="round"/>
    <path d="M318.777 172.737L322.844 234.362C322.95 236.141 323.416 237.88 324.215 239.472C325.014 241.065 326.129 242.477 327.492 243.624C328.855 244.771 330.437 245.627 332.142 246.142C333.847 246.656 335.639 246.817 337.408 246.616L474.192 228.845C476.077 228.627 477.892 228.003 479.512 227.015C481.131 226.027 482.518 224.699 483.574 223.122C484.631 221.545 485.333 219.758 485.632 217.883C485.93 216.008 485.819 214.091 485.305 212.263L468.035 151.154C467.217 148.25 465.423 145.718 462.954 143.987C460.485 142.255 457.494 141.431 454.488 141.653C432.321 143.286 379.151 148.059 328.959 159.252C325.945 159.937 323.271 161.666 321.407 164.134C319.544 166.602 318.613 169.649 318.777 172.737Z" fill="#F8F9FB" stroke="#495369" stroke-linecap="round" stroke-linejoin="round"/>
    <path d="M420.449 191.844L482.899 221.452" stroke="#495369" stroke-linecap="round" stroke-linejoin="round"/>
    <path d="M328.028 243.908L380.769 196.672" stroke="#495369" stroke-linecap="round" stroke-linejoin="round"/>
    <path d="M319.235 171.119L394.917 202.261C397.758 203.423 400.876 203.734 403.891 203.156C406.905 202.579 409.688 201.138 411.9 199.008L465.844 148.031" stroke="#495369" stroke-linecap="round" stroke-linejoin="round"/>
    <path d="M470.378 237.567C483.234 237.251 493.403 226.744 493.092 214.099C492.781 201.455 482.108 191.461 469.252 191.778C456.396 192.095 446.227 202.602 446.538 215.246C446.849 227.891 457.522 237.884 470.378 237.567Z" fill="#21CE99" stroke="#495369" stroke-width="0.75" stroke-linecap="round" stroke-linejoin="round"/>
    <path d="M467.305 225.607H467.233C466.781 225.608 466.335 225.502 465.932 225.298C465.529 225.094 465.18 224.797 464.913 224.432L455.763 211.792C455.317 211.176 455.133 210.408 455.252 209.657C455.372 208.905 455.785 208.233 456.4 207.786C457.015 207.339 457.783 207.156 458.533 207.275C459.284 207.395 459.956 207.808 460.402 208.424L467.233 217.854L483.558 195.282C484.004 194.666 484.677 194.253 485.427 194.133C486.178 194.014 486.945 194.197 487.56 194.644C488.176 195.091 488.588 195.764 488.708 196.515C488.827 197.266 488.644 198.034 488.198 198.65L469.582 224.446C469.318 224.803 468.975 225.093 468.58 225.295C468.185 225.496 467.748 225.603 467.305 225.607Z" fill="white" stroke="#495369" stroke-linecap="round" stroke-linejoin="round"/>
    <path d="M380.812 287.374C380.812 287.374 429.5 278.03 462.865 278.69L464.87 286.715C464.87 286.715 394.817 290.04 381.47 296.747L380.812 287.374Z" fill="#495369" stroke="#495369" stroke-width="0.75" stroke-linecap="round" stroke-linejoin="round"/>
    <path d="M381.471 296.721L382.903 304.746C383.051 305.641 383.543 306.441 384.273 306.977C385.004 307.513 385.915 307.741 386.812 307.613C399.027 305.864 441.901 299.974 464.14 300.518C464.688 300.535 465.232 300.422 465.728 300.189C466.224 299.955 466.658 299.608 466.994 299.175C467.33 298.742 467.56 298.236 467.664 297.697C467.767 297.158 467.742 296.603 467.591 296.076L464.928 286.746" stroke="#495369" stroke-linecap="round" stroke-linejoin="round"/>
    <path d="M203.802 282.546L203.53 249.44L205.177 215.403C205.189 215.078 205.103 214.756 204.929 214.48C204.756 214.204 204.504 213.987 204.205 213.857C203.907 213.727 203.576 213.69 203.256 213.751C202.936 213.812 202.642 213.969 202.413 214.2C196.255 220.505 185.716 230.05 182.594 237.875C178.541 248.007 173.744 297.88 173.744 297.88L203.802 282.546Z" fill="#495369" stroke="#495369" stroke-width="0.75" stroke-linecap="round" stroke-linejoin="round"/>
    <path d="M165.668 275.895H160.871C158.427 275.895 156.446 277.877 156.446 280.323V305.059C156.446 307.505 158.427 309.487 160.871 309.487H165.668C168.112 309.487 170.093 307.505 170.093 305.059V280.323C170.093 277.877 168.112 275.895 165.668 275.895Z" fill="#495369" stroke="#495369" stroke-width="0.75" stroke-linecap="round" stroke-linejoin="round"/>
    <path d="M168.689 252.795C170.96 253.231 173.178 253.908 175.305 254.815C177.069 255.684 178.672 256.847 180.045 258.255L187.205 248.782C187.205 248.782 176.709 244.382 174.718 241.702L172.742 239.008L168.689 252.795Z" fill="white"/>
    <g style="mix-blend-mode:multiply" opacity="0.5">
        <path d="M174.704 241.702L172.857 239.137L172.642 239.28L168.689 252.752C168.689 252.752 169.448 252.895 170.522 253.153L180.761 245.729C178.524 244.749 176.474 243.387 174.704 241.702Z" fill="#F8F9FB"/>
    </g>
    <path d="M168.689 252.795C170.96 253.231 173.178 253.908 175.305 254.815C177.069 255.684 178.672 256.847 180.045 258.255L187.205 248.782C187.205 248.782 176.709 244.382 174.718 241.702L172.742 239.008L168.689 252.795Z" stroke="#495369" stroke-width="0.75" stroke-linecap="round" stroke-linejoin="round"/>
    <path d="M183.811 244.754L175.062 255.918L176.25 259.716L189.582 245.857L183.811 244.754Z" fill="#F8F9FB" stroke="#495369" stroke-linecap="round" stroke-linejoin="round"/>
    <path d="M169.806 213.209C163.892 208.623 148.484 211.547 145.462 222.41C143.6 229.103 144.631 239.135 144.631 239.135L162.188 235.409L163.62 237.573C166.484 241.872 172.684 239.006 174.288 237.573C175.162 236.813 175.104 234.578 174.875 232.729L175.577 232.571C175.577 232.571 175.706 217.81 169.806 213.209Z" fill="#21CE99" stroke="#495369" stroke-width="0.75" stroke-linecap="round" stroke-linejoin="round"/>
    <path d="M163.248 234.093C155.542 233.234 147.742 233.975 140.336 236.271C128.88 240.112 127.119 243.437 135.324 243.236C143.529 243.036 163.248 234.093 163.248 234.093Z" fill="#21CE99" stroke="#495369" stroke-width="0.75" stroke-linecap="round" stroke-linejoin="round"/>
    <path d="M149.1 229.922C150.436 229.922 151.52 228.44 151.52 226.611C151.52 224.783 150.436 223.301 149.1 223.301C147.763 223.301 146.68 224.783 146.68 226.611C146.68 228.44 147.763 229.922 149.1 229.922Z" fill="#F8F9FB"/>
    <path d="M203.53 249.442C203.53 249.442 187.85 245.458 183.024 249.127C178.198 252.796 176.966 258.858 178.513 266.21C180.059 273.562 183.826 292.895 183.826 292.895L203.802 282.548L203.53 249.442Z" fill="#495369" stroke="#495369" stroke-width="0.75" stroke-linecap="round" stroke-linejoin="round"/>
    <path d="M178.642 289.812C178.642 289.812 177.797 297.236 176.809 298.282C175.821 299.328 149.759 277.416 148.169 275.352C146.58 273.288 147.668 265.922 148.169 263.615C148.67 261.307 147.826 260.046 145.305 261.637C142.785 263.228 143.458 269.849 143.458 269.849C143.458 269.849 135.768 268 134.236 267.785C132.704 267.57 131.372 269.476 131.601 270.995C131.83 272.514 133.849 272.643 133.849 272.643C133.333 274.843 133.477 277.147 134.265 279.264C135.611 282.045 137.129 283.793 139.993 284.481C142.947 284.942 145.939 285.125 148.928 285.026C148.928 285.026 162.246 297.723 166.112 302.467C169.979 307.211 178.127 313.66 182.179 312.499C186.232 311.338 190.098 291.088 190.098 291.088L178.642 289.812Z" fill="white"/>
    <g style="mix-blend-mode:multiply" opacity="0.5">
        <path d="M176.809 298.281L184.427 300.818C184.669 302.417 184.331 304.05 183.475 305.422C182.619 306.794 181.301 307.814 179.759 308.299C176.394 309.417 170.351 305.59 166.055 302.365L166.184 302.523C170.122 307.281 178.198 313.716 182.251 312.555C186.303 311.394 190.17 291.144 190.17 291.144L178.642 289.711C178.642 289.711 177.797 297.235 176.809 298.281Z" fill="#F8F9FB"/>
    </g>
    <path d="M178.642 289.812C178.642 289.812 177.797 297.236 176.809 298.282C175.821 299.328 149.759 277.416 148.169 275.352C146.58 273.288 147.668 265.922 148.169 263.615C148.67 261.307 147.826 260.046 145.305 261.637C142.785 263.228 143.458 269.849 143.458 269.849C143.458 269.849 135.768 268 134.236 267.785C132.704 267.57 131.372 269.476 131.601 270.995C131.83 272.514 133.849 272.643 133.849 272.643C133.333 274.843 133.477 277.147 134.265 279.264C135.611 282.045 137.129 283.793 139.993 284.481C142.947 284.942 145.939 285.125 148.928 285.026C148.928 285.026 162.246 297.723 166.112 302.467C169.979 307.211 178.127 313.66 182.179 312.499C186.232 311.338 190.098 291.088 190.098 291.088L178.642 289.812Z" stroke="#495369" stroke-width="0.75" stroke-linecap="round" stroke-linejoin="round"/>
    <path d="M152.594 279.379L148.928 285.083L150.804 286.358L154.555 280.984L152.594 279.379Z" fill="#495369" stroke="#495369" stroke-miterlimit="10"/>
    <path d="M151.333 284.753C152.124 284.753 152.765 284.111 152.765 283.32C152.765 282.528 152.124 281.887 151.333 281.887C150.542 281.887 149.901 282.528 149.901 283.32C149.901 284.111 150.542 284.753 151.333 284.753Z" fill="white" stroke="#495369" stroke-width="0.75" stroke-linecap="round" stroke-linejoin="round"/>
    <path d="M147.825 240.972C147.825 240.972 148.699 243.136 150.159 246.934C151.62 250.732 159.467 258.743 163.305 259.201C167.143 259.66 171.74 245.701 172.47 242.821C172.713 241.875 172.957 240.356 172.957 240.356C172.957 240.356 177.783 238.077 176.666 235.325C175.549 232.574 173.286 231.313 172.212 232.158C171.138 233.004 170.952 236.572 169.348 236.601C167.744 236.63 166.871 236.128 165.453 234.236C164.035 232.344 149.343 236.271 147.825 240.972Z" fill="white"/>
    <path opacity="0.5" d="M165.424 234.233C163.992 232.356 149.343 236.283 147.825 240.969L148.656 243.09C154.256 239.71 160.341 237.211 166.699 235.681C166.224 235.245 165.797 234.76 165.424 234.233Z" fill="#F8F9FB"/>
    <g style="mix-blend-mode:multiply">
        <g style="mix-blend-mode:multiply" opacity="0.5">
            <path d="M176.48 234.936C175.306 232.471 173.229 231.353 172.184 232.155C171.529 233.011 171.043 233.984 170.752 235.022C172.654 234.809 174.572 234.78 176.48 234.936Z" fill="#F8F9FB"/>
        </g>
    </g>
    <path d="M147.825 240.972C147.825 240.972 148.699 243.136 150.159 246.934C151.62 250.732 159.467 258.743 163.305 259.201C167.143 259.66 171.74 245.701 172.47 242.821C172.713 241.875 172.957 240.356 172.957 240.356C172.957 240.356 177.783 238.077 176.666 235.325C175.549 232.574 173.286 231.313 172.212 232.158C171.138 233.004 170.952 236.572 169.348 236.601C167.744 236.63 166.871 236.128 165.453 234.236C164.035 232.344 149.343 236.271 147.825 240.972Z" stroke="#495369" stroke-width="0.75" stroke-linecap="round" stroke-linejoin="round"/>
    <path d="M152.706 242.068C152.963 242.942 152.877 243.745 152.534 243.845C152.19 243.945 151.689 243.315 151.431 242.412C151.173 241.509 151.259 240.735 151.603 240.635C151.947 240.534 152.448 241.222 152.706 242.068Z" fill="#495369"/>
    <path d="M150.359 239.567C152.364 238.993 153.223 240.498 153.467 241.888L153.839 243.536L155.085 249.914L156.975 249.111" stroke="#495369" stroke-width="0.5" stroke-linecap="round" stroke-linejoin="round"/>
    <path d="M158.522 240.053C158.958 239.575 159.5 239.206 160.105 238.977C160.709 238.748 161.359 238.665 162.002 238.735" stroke="#495369" stroke-width="0.5" stroke-linecap="round" stroke-linejoin="round"/>
    <path d="M160.184 236.082C159.369 236.252 158.621 236.656 158.031 237.244C157.442 237.831 157.035 238.578 156.861 239.393" stroke="#495369" stroke-width="0.5" stroke-linecap="round" stroke-linejoin="round"/>
    <path d="M158.68 251.175C158.68 251.175 162.832 250.344 163.162 247.363" stroke="#495369" stroke-width="0.5" stroke-linecap="round" stroke-linejoin="round"/>
    <path d="M193.935 300.56L172.971 294.713C172.971 294.713 174.818 258.885 178.054 252.822C183.095 243.407 194.651 247.649 196.828 259.486C198.861 270.665 193.935 300.56 193.935 300.56Z" fill="#F8F9FB" stroke="#495369" stroke-linecap="round" stroke-linejoin="round"/>
    <path d="M173.473 290.73C173.473 290.73 184.929 293.367 191.902 295.661" stroke="#495369" stroke-width="0.5" stroke-linecap="round" stroke-linejoin="round"/>
    <path d="M191.616 246.559C191.616 246.559 198.433 247.089 202.886 250.758" stroke="#F8F9FB" stroke-width="0.5" stroke-linecap="round" stroke-linejoin="round"/>
    <path d="M311.732 338.21C311.732 338.21 281.202 348.987 278.409 351.925C275.617 354.863 275.903 366.328 282.49 371.903C289.078 377.478 336.033 364.837 369.599 361.154C403.165 357.471 476.856 352.054 506.928 350.592C537 349.13 550.675 353.1 553.31 343.713C555.945 334.326 555.616 324.294 549.888 322.259C544.16 320.224 439.796 303.499 311.732 338.21Z" fill="#495369" stroke="#495369" stroke-width="0.75" stroke-linecap="round" stroke-linejoin="round"/>
    <path d="M276.232 358.186C276.232 358.186 277.664 370.611 285.297 372.517C292.93 374.423 383.632 357.226 437.089 355.32C490.546 353.414 537.329 351.98 537.329 351.98" stroke="white" stroke-width="0.5" stroke-linecap="round" stroke-linejoin="round"/>
    <path d="M320.539 364.494C355.995 355.895 428.927 343.742 551.65 347.196" stroke="white" stroke-width="0.5" stroke-linecap="round" stroke-linejoin="round"/>
    <path d="M291.469 372.059C291.469 372.059 299.617 370.081 312.004 366.699" stroke="white" stroke-width="0.5" stroke-linecap="round" stroke-linejoin="round"/>
    <path d="M298.944 373.48C299.33 378.808 299.186 384.161 298.515 389.46" stroke="white" stroke-width="0.5" stroke-linecap="round" stroke-linejoin="round"/>
    <path d="M297.641 144.305C297.641 144.305 290.81 152.316 290.28 159.496" stroke="#495369" stroke-width="0.75" stroke-linecap="round" stroke-linejoin="round"/>
    <path d="M289.565 165.285C289.565 165.285 284.424 247.132 298.028 334.238" stroke="#495369" stroke-width="0.75" stroke-linecap="round" stroke-linejoin="round"/>
    <path d="M291.182 259.861C291.182 259.861 280.084 263.73 279.941 268.746C279.569 282.232 280.987 311.009 283.922 313.804C286.858 316.598 295.98 309.203 295.98 309.203C295.98 309.203 308.868 310.321 310.3 307.426C311.732 304.531 306.362 263.787 305.56 260.233C304.758 256.679 291.182 259.861 291.182 259.861Z" fill="#21CE99" stroke="#495369" stroke-linecap="round" stroke-linejoin="round"/>
    <path d="M522.995 279.264C525.883 280.677 529.022 281.505 532.231 281.701C528.68 268.344 524.656 253.468 520.503 238.621C516.751 238.363 511.911 238.363 512.011 240.054C512.083 242.949 519.372 277.172 522.995 279.264Z" fill="#21CE99" stroke="#495369" stroke-linecap="round" stroke-linejoin="round"/>
    <path d="M289.593 264.074C289.593 264.074 290.08 289.871 291.984 299.903" stroke="#495369" stroke-width="0.75" stroke-linecap="round" stroke-linejoin="round"/>
    <path d="M423.457 270.035C423.457 270.035 487.353 259.73 561.803 272.901" stroke="#495369" stroke-linecap="round" stroke-linejoin="round"/>
    <path d="M617.979 310.434C622.376 311.752 626.7 313.142 630.868 314.633" stroke="#495369" stroke-linecap="round" stroke-linejoin="round"/>
    <path d="M503.262 290.973C503.262 290.973 553.926 294.054 602.442 306.193" stroke="#495369" stroke-linecap="round" stroke-linejoin="round"/>
    <path d="M349.064 409.05C390.781 402.67 433.163 401.913 475.081 406.8" stroke="#495369" stroke-linecap="round" stroke-linejoin="round"/>
    <path d="M343.823 402.301C343.823 402.301 373.809 398.546 383.561 397.801" stroke="#495369" stroke-linecap="round" stroke-linejoin="round"/>
    <path d="M544.646 123.957C548.942 124.573 553.238 125.39 557.133 126.322" stroke="#495369" stroke-linecap="round" stroke-linejoin="round"/>
    <path d="M482.913 122.537C500.557 121.29 518.271 121.41 535.897 122.896" stroke="#495369" stroke-linecap="round" stroke-linejoin="round"/>
    <path d="M251.874 296.145C251.874 296.145 294.662 275.867 356.568 270.234" stroke="#495369" stroke-linecap="round" stroke-linejoin="round"/>
    <path d="M323.933 258.956C323.933 258.956 349.837 252.206 389.246 249.941" stroke="#495369" stroke-linecap="round" stroke-linejoin="round"/>
    <path d="M251.173 402.141C256.373 411.462 264.765 418.588 274.801 422.205" stroke="#495369" stroke-linecap="round" stroke-linejoin="round"/>
    <path d="M249.74 408.59C249.74 408.59 256.184 418.622 264.776 422.921" stroke="#495369" stroke-linecap="round" stroke-linejoin="round"/>
    <path d="M460.961 372.762C460.961 372.762 465.257 392.826 482.441 401.424" stroke="#495369" stroke-linecap="round" stroke-linejoin="round"/>
    <path d="M463.108 390.676C466.514 395.667 471.218 399.632 476.712 402.141" stroke="#495369" stroke-linecap="round" stroke-linejoin="round"/>
    <path d="M179.802 429.312C179.802 429.312 184.098 436.478 199.134 436.478" stroke="#495369" stroke-linecap="round" stroke-linejoin="round"/>
    <path d="M176.938 433.613C182.415 438.172 189.168 440.926 196.27 441.496" stroke="#495369" stroke-linecap="round" stroke-linejoin="round"/>
    <path d="M370.515 415.93C332.484 418 294.732 423.653 257.76 432.812L258.648 434.145C258.648 434.145 290.152 427.452 348.377 441.784C406.602 456.115 410.44 467.58 474.393 467.58C538.346 467.58 600.409 452.303 600.409 452.303L592.647 448.004C535.224 423.683 456.521 411.115 370.515 415.93Z" fill="#D3D3D3"/>
    <path opacity="0.5" d="M370.515 415.93C332.484 418 294.732 423.653 257.76 432.812L258.648 434.145C258.648 434.145 290.152 427.452 348.377 441.784C406.602 456.115 410.44 467.58 474.393 467.58C538.346 467.58 600.409 452.303 600.409 452.303L592.647 448.004C535.224 423.683 456.521 411.115 370.515 415.93Z" fill="white"/>
    <path d="M230.408 448.721C230.408 448.721 305.588 437.256 370.744 480.966" stroke="#495369" stroke-linecap="round" stroke-linejoin="round"/>
    <path d="M309.168 465.199C309.168 465.199 339.956 474.515 358.572 494.578" stroke="#495369" stroke-linecap="round" stroke-linejoin="round"/>
    <path d="M491.032 428.656C491.032 428.656 534.708 432.956 574.088 456.602" stroke="#495369" stroke-linecap="round" stroke-linejoin="round"/>
    <path d="M627.216 465.688C635.081 470.504 642.568 475.913 649.612 481.868" stroke="#495369" stroke-linecap="round" stroke-linejoin="round"/>
    <path d="M114.86 499.495C167.057 455.068 261.368 422.106 370.515 415.929C470.14 410.268 559.998 428.125 618.251 460.356" stroke="#495369" stroke-linecap="round" stroke-linejoin="round"/>
    <path d="M433.036 427.938C433.036 427.938 478.144 430.087 508.216 440.119" stroke="#495369" stroke-linecap="round" stroke-linejoin="round"/>
</svg>
