<svg width="25" height="25" viewBox="0 0 25 25" fill="none" xmlns="http://www.w3.org/2000/svg">
    <path d="M16.667 8.3335C18.3246 8.3335 19.9143 8.99198 21.0864 10.1641C22.2585 11.3362 22.917 12.9259 22.917 14.5835V21.8752H18.7503V14.5835C18.7503 14.031 18.5308 13.5011 18.1401 13.1104C17.7494 12.7197 17.2195 12.5002 16.667 12.5002C16.1145 12.5002 15.5846 12.7197 15.1939 13.1104C14.8032 13.5011 14.5837 14.031 14.5837 14.5835V21.8752H10.417V14.5835C10.417 12.9259 11.0755 11.3362 12.2476 10.1641C13.4197 8.99198 15.0094 8.3335 16.667 8.3335V8.3335Z" stroke="#495369" stroke-width="2" stroke-linecap="round" stroke-linejoin="round"/>
    <path d="M6.24967 9.375H2.08301V21.875H6.24967V9.375Z" stroke="#495369" stroke-width="2" stroke-linecap="round" stroke-linejoin="round"/>
    <path d="M4.16634 6.25016C5.31693 6.25016 6.24967 5.31742 6.24967 4.16683C6.24967 3.01624 5.31693 2.0835 4.16634 2.0835C3.01575 2.0835 2.08301 3.01624 2.08301 4.16683C2.08301 5.31742 3.01575 6.25016 4.16634 6.25016Z" stroke="#495369" stroke-width="2" stroke-linecap="round" stroke-linejoin="round"/>
</svg>
