<svg width="25" height="25" viewBox="0 0 25 25" fill="none" xmlns="http://www.w3.org/2000/svg">
<path d="M12.5001 0C5.59655 0 0 5.59655 0 12.5001C0 18.6917 4.50652 23.8195 10.4153 24.8124V15.1079H7.39993V11.6157H10.4153V9.04063C10.4153 6.05283 12.2402 4.42466 14.9059 4.42466C16.1826 4.42466 17.2798 4.51979 17.5983 4.56169V7.68474L15.7494 7.68563C14.3 7.68563 14.0206 8.37424 14.0206 9.38508V11.6139H17.479L17.0279 15.1061H14.0206V24.8959C20.2052 24.1432 25 18.8848 25 12.4965C25 5.59655 19.4035 0 12.5001 0Z" fill="#495369"/>
</svg>
