<svg width="25" height="25" viewBox="0 0 25 25" fill="none" xmlns="http://www.w3.org/2000/svg">
<path d="M16.667 8.33325C18.3246 8.33325 19.9143 8.99173 21.0864 10.1638C22.2585 11.3359 22.917 12.9256 22.917 14.5833V21.8749H18.7503V14.5833C18.7503 14.0307 18.5308 13.5008 18.1401 13.1101C17.7494 12.7194 17.2195 12.4999 16.667 12.4999C16.1145 12.4999 15.5846 12.7194 15.1939 13.1101C14.8032 13.5008 14.5837 14.0307 14.5837 14.5833V21.8749H10.417V14.5833C10.417 12.9256 11.0755 11.3359 12.2476 10.1638C13.4197 8.99173 15.0094 8.33325 16.667 8.33325V8.33325Z" stroke="#F8F9FB" stroke-width="2" stroke-linecap="round" stroke-linejoin="round"/>
<path d="M6.24967 9.375H2.08301V21.875H6.24967V9.375Z" stroke="#F8F9FB" stroke-width="2" stroke-linecap="round" stroke-linejoin="round"/>
<path d="M4.16634 6.24992C5.31693 6.24992 6.24967 5.31718 6.24967 4.16658C6.24967 3.01599 5.31693 2.08325 4.16634 2.08325C3.01575 2.08325 2.08301 3.01599 2.08301 4.16658C2.08301 5.31718 3.01575 6.24992 4.16634 6.24992Z" stroke="#F8F9FB" stroke-width="2" stroke-linecap="round" stroke-linejoin="round"/>
</svg>
