<svg width="20" height="20" viewBox="0 0 20 20" fill="none" xmlns="http://www.w3.org/2000/svg">
    <path fill-rule="evenodd" clip-rule="evenodd" d="M10 0C4.47715 0 0 4.47715 0 10C0 15.5228 4.47715 20 10 20C15.5228 20 20 15.5228 20 10C20 4.47715 15.5228 0 10 0ZM4.14736 7.60723H6.63776V15.0899H4.14736V7.60723ZM6.80169 5.29247C6.78553 4.5588 6.26088 4 5.40893 4C4.55698 4 4 4.5588 4 5.29247C4 6.01094 4.54051 6.58584 5.3766 6.58584H5.39252C6.26088 6.58584 6.80169 6.01094 6.80169 5.29247ZM12.7517 7.43154C14.3905 7.43154 15.6191 8.50123 15.6191 10.7996L15.619 15.0899H13.1287V11.0867C13.1287 10.0811 12.7683 9.39501 11.8668 9.39501C11.1788 9.39501 10.769 9.85756 10.589 10.3043C10.5231 10.4644 10.507 10.6875 10.507 10.9112V15.0901H8.01627C8.01627 15.0901 8.04909 8.30958 8.01627 7.60745H10.507V8.6673C10.8375 8.15781 11.4295 7.43154 12.7517 7.43154Z" fill="white"/>
</svg>
