<svg width="25" height="25" viewBox="0 0 25 25" fill="none" xmlns="http://www.w3.org/2000/svg">
    <path d="M5.24659 3.18397C5.24624 3.88995 4.96953 4.56687 4.47732 5.06582C3.98511 5.56477 3.31772 5.84488 2.62198 5.84453C1.92624 5.84418 1.25914 5.56339 0.767418 5.06394C0.275701 4.56449 -0.000347542 3.88729 3.28386e-07 3.18131C0.000348199 2.47533 0.277064 1.79841 0.769273 1.29946C1.26148 0.800509 1.92887 0.520399 2.62461 0.520752C3.32035 0.521105 3.98746 0.801892 4.47917 1.30134C4.97089 1.80079 5.24694 2.478 5.24659 3.18397ZM5.32529 7.81566H0.0786991V24.4791H5.32529V7.81566ZM13.6149 7.81566H8.39454V24.4791H13.5624V15.7348C13.5624 10.8635 19.819 10.411 19.819 15.7348V24.4791H25V13.9247C25 5.71277 15.7398 6.01888 13.5624 10.0516L13.6149 7.81566Z" fill="white"/>
</svg>
