<svg width="156" height="36" viewBox="0 0 156 36" fill="none" xmlns="http://www.w3.org/2000/svg">
<path d="M20.4529 3.3894L31.1311 14.0841L27.2212 28.6947L12.6331 32.6106L1.9549 21.9159L5.86477 7.3053L20.4529 3.3894ZM19.7005 6.20072L7.91885 9.36363L4.76196 21.1605L13.3858 29.7981L25.1663 26.6348L28.3231 14.838L19.7005 6.20072Z" fill="url(#paint0_linear)"/>
<path d="M44.7369 12.2837C42.969 12.2837 41.5795 12.8494 40.5682 13.9809C39.5569 15.1124 39.0513 16.6593 39.0513 18.6215C39.0513 20.6482 39.5419 22.213 40.5232 23.3159C41.5046 24.4116 42.9016 24.9594 44.7144 24.9594C45.883 24.9594 47.1977 24.7517 48.6584 24.3364V26.0551C47.9618 26.2986 47.2913 26.4633 46.6471 26.5492C46.0029 26.6423 45.2613 26.6889 44.4223 26.6889C42.0027 26.6889 40.1375 25.9871 38.8265 24.5834C37.5231 23.1726 36.8714 21.1782 36.8714 18.6001C36.8714 16.9816 37.1823 15.5636 37.804 14.3462C38.4333 13.1287 39.3434 12.1906 40.5345 11.5317C41.733 10.8729 43.1413 10.5435 44.7594 10.5435C46.4973 10.5435 48.0104 10.8514 49.2989 11.4673L48.4674 13.1431C47.1565 12.5701 45.913 12.2837 44.7369 12.2837Z" fill="#333333"/>
<path d="M53.9845 26.474H51.9619V9.75928H53.9845V26.474Z" fill="#333333"/>
<path d="M63.1422 26.6889C61.2919 26.6889 59.8387 26.1554 58.7824 25.0883C57.7337 24.0141 57.2093 22.5388 57.2093 20.6625C57.2093 18.7719 57.7 17.268 58.6813 16.1508C59.6626 15.0265 60.9885 14.4643 62.659 14.4643C64.2096 14.4643 65.4456 14.9441 66.367 15.9038C67.2884 16.8562 67.7491 18.1489 67.7491 19.7817V20.9526H59.2993C59.3368 22.2918 59.6926 23.3087 60.3668 24.0034C61.041 24.698 61.996 25.0453 63.2321 25.0453C63.8913 25.0453 64.5168 24.9916 65.1085 24.8842C65.7003 24.7696 66.3932 24.5512 67.1873 24.2289V25.9262C66.5056 26.2055 65.8651 26.4024 65.2659 26.517C64.6666 26.6316 63.9587 26.6889 63.1422 26.6889ZM62.6365 16.0434C61.6702 16.0434 60.9061 16.3406 60.3443 16.935C59.7825 17.5294 59.4491 18.3566 59.3443 19.4165H65.6254C65.6104 18.3136 65.3445 17.4757 64.8276 16.9028C64.3108 16.3299 63.5804 16.0434 62.6365 16.0434Z" fill="#333333"/>
<path d="M78.5024 26.474L78.1091 24.7983H78.0192C77.4049 25.5359 76.7907 26.0372 76.1764 26.3022C75.5697 26.56 74.8018 26.6889 73.873 26.6889C72.6594 26.6889 71.7081 26.3845 71.0189 25.7758C70.3297 25.1671 69.9851 24.3077 69.9851 23.1977C69.9851 20.8058 71.959 19.5525 75.9067 19.4379L77.9967 19.3627V18.6645C77.9967 17.7693 77.7945 17.1105 77.39 16.688C76.9854 16.2583 76.3375 16.0434 75.4461 16.0434C74.7943 16.0434 74.1763 16.1365 73.592 16.3227C73.0152 16.5089 72.4721 16.7166 71.9628 16.9458L71.3448 15.4956C71.9665 15.1805 72.6444 14.9334 73.3786 14.7544C74.1127 14.5753 74.8393 14.4858 75.5584 14.4858C77.0491 14.4858 78.1578 14.8009 78.8844 15.4311C79.611 16.0613 79.9743 17.0639 79.9743 18.4389V26.474H78.5024ZM74.3336 25.1313C75.4648 25.1313 76.3525 24.8412 76.9967 24.2612C77.6484 23.6739 77.9743 22.8432 77.9743 21.769V20.7055L76.1539 20.7807C74.7382 20.8308 73.7044 21.0457 73.0527 21.4252C72.4085 21.8048 72.0864 22.4028 72.0864 23.2192C72.0864 23.8351 72.2811 24.3077 72.6707 24.6371C73.0677 24.9666 73.622 25.1313 74.3336 25.1313Z" fill="#333333"/>
<path d="M89.559 14.4643C90.1058 14.4643 90.589 14.5073 91.0085 14.5932L90.7613 16.3764C90.3044 16.2762 89.8586 16.226 89.4242 16.226C88.7725 16.226 88.1657 16.3979 87.6039 16.7417C87.0495 17.0854 86.6151 17.5616 86.3004 18.1704C85.9858 18.7719 85.8285 19.4415 85.8285 20.1791V26.474H83.806V14.6792H85.4689L85.6937 16.8383H85.7836C86.2555 16.0577 86.8136 15.4669 87.4578 15.0659C88.102 14.6649 88.8024 14.4643 89.559 14.4643Z" fill="#333333"/>
<path d="M97.5144 10.769H99.683L103.38 20.8452C103.852 22.1199 104.196 23.2621 104.414 24.2719C104.601 23.3696 104.949 22.213 105.459 20.8022L109.133 10.769H111.324L105.459 26.474H103.38L97.5144 10.769Z" fill="#333333"/>
<path d="M120.684 26.474L120.291 24.7983H120.201C119.586 25.5359 118.972 26.0372 118.358 26.3022C117.751 26.56 116.983 26.6889 116.055 26.6889C114.841 26.6889 113.89 26.3845 113.2 25.7758C112.511 25.1671 112.167 24.3077 112.167 23.1977C112.167 20.8058 114.141 19.5525 118.088 19.4379L120.178 19.3627V18.6645C120.178 17.7693 119.976 17.1105 119.572 16.688C119.167 16.2583 118.519 16.0434 117.628 16.0434C116.976 16.0434 116.358 16.1365 115.774 16.3227C115.197 16.5089 114.654 16.7166 114.144 16.9458L113.526 15.4956C114.148 15.1805 114.826 14.9334 115.56 14.7544C116.294 14.5753 117.021 14.4858 117.74 14.4858C119.231 14.4858 120.339 14.8009 121.066 15.4311C121.793 16.0613 122.156 17.0639 122.156 18.4389V26.474H120.684ZM116.515 25.1313C117.646 25.1313 118.534 24.8412 119.178 24.2612C119.83 23.6739 120.156 22.8432 120.156 21.769V20.7055L118.335 20.7807C116.92 20.8308 115.886 21.0457 115.234 21.4252C114.59 21.8048 114.268 22.4028 114.268 23.2192C114.268 23.8351 114.463 24.3077 114.852 24.6371C115.249 24.9666 115.804 25.1313 116.515 25.1313Z" fill="#333333"/>
<path d="M128.01 26.474H125.988V9.75928H128.01V26.474Z" fill="#333333"/>
<path d="M133.831 14.6792V22.2739C133.831 23.2263 134.052 23.9353 134.493 24.4008C134.943 24.8591 135.636 25.0883 136.572 25.0883C137.838 25.0883 138.76 24.7517 139.336 24.0785C139.913 23.4054 140.202 22.3204 140.202 20.8237V14.6792H142.235V26.474H140.572L140.28 24.9164H140.179C139.812 25.4822 139.291 25.919 138.617 26.227C137.943 26.5349 137.16 26.6889 136.269 26.6889C134.786 26.6889 133.666 26.3487 132.909 25.6684C132.16 24.988 131.785 23.8995 131.785 22.4028V14.6792H133.831Z" fill="#333333"/>
<path d="M151.393 26.6889C149.543 26.6889 148.09 26.1554 147.033 25.0883C145.985 24.0141 145.46 22.5388 145.46 20.6625C145.46 18.7719 145.951 17.268 146.932 16.1508C147.914 15.0265 149.239 14.4643 150.91 14.4643C152.461 14.4643 153.697 14.9441 154.618 15.9038C155.539 16.8562 156 18.1489 156 19.7817V20.9526H147.55C147.588 22.2918 147.943 23.3087 148.618 24.0034C149.292 24.698 150.247 25.0453 151.483 25.0453C152.142 25.0453 152.768 24.9916 153.359 24.8842C153.951 24.7696 154.644 24.5512 155.438 24.2289V25.9262C154.757 26.2055 154.116 26.4024 153.517 26.517C152.917 26.6316 152.21 26.6889 151.393 26.6889ZM150.887 16.0434C149.921 16.0434 149.157 16.3406 148.595 16.935C148.033 17.5294 147.7 18.3566 147.595 19.4165H153.876C153.861 18.3136 153.595 17.4757 153.079 16.9028C152.562 16.3299 151.831 16.0434 150.887 16.0434Z" fill="#333333"/>
<defs>
<linearGradient id="paint0_linear" x1="20.438" y1="3.44493" x2="12.6144" y2="32.6056" gradientUnits="userSpaceOnUse">
<stop stop-color="#5EFFE7"/>
<stop offset="1" stop-color="#FF7F48"/>
</linearGradient>
</defs>
</svg>
