<svg width="184" height="49" viewBox="0 0 184 49" fill="none" xmlns="http://www.w3.org/2000/svg">
<path d="M69.3204 33.7227C68.8387 36.6914 67.504 39.0612 65.3165 40.832C63.129 42.5898 60.4663 43.4427 57.3282 43.3906C55.5184 43.3516 53.9298 42.9219 52.5626 42.1016C51.2085 41.2812 50.1473 40.0898 49.379 38.5273C48.6108 36.9518 48.1811 35.1745 48.09 33.1953C48.0118 31.7109 48.1941 29.6927 48.6368 27.1406C49.0795 24.5755 49.9259 22.2773 51.1759 20.2461C52.4389 18.2148 53.9819 16.6849 55.8048 15.6562C57.6407 14.6276 59.6785 14.1328 61.9181 14.1719C64.7436 14.224 66.9767 15.1159 68.6173 16.8477C70.271 18.5664 71.1499 20.9427 71.254 23.9766H66.4689C66.4038 21.9453 65.9741 20.4805 65.1798 19.582C64.3986 18.6706 63.2332 18.1953 61.6837 18.1562C59.5613 18.0911 57.784 18.8529 56.3517 20.4414C54.9194 22.0299 53.9559 24.3411 53.4611 27.375L53.0704 29.9727L52.8947 31.9648C52.7905 33.306 52.8816 34.569 53.1681 35.7539C53.4676 36.9258 53.9884 37.8242 54.7306 38.4492C55.4728 39.0612 56.4168 39.3867 57.5626 39.4258C61.1954 39.569 63.5262 37.681 64.5548 33.7617L69.3204 33.7227ZM76.7814 43H72.1525L77.3673 13H81.9962L76.7814 43ZM94.5353 43C94.379 42.4792 94.3139 41.8216 94.34 41.0273C92.5952 42.6549 90.7137 43.4427 88.6954 43.3906C86.8595 43.3646 85.3361 42.7786 84.1251 41.6328C82.9272 40.474 82.3673 39.0091 82.4454 37.2383C82.5496 35.0117 83.5131 33.2604 85.3361 31.9844C87.159 30.7083 89.6069 30.0703 92.6798 30.0703L95.6876 30.1094L95.9611 28.6641C96.0392 28.1562 96.0392 27.681 95.9611 27.2383C95.7006 25.832 94.7697 25.1094 93.1681 25.0703C92.1785 25.0443 91.3061 25.2982 90.5509 25.832C89.8087 26.3529 89.353 27.056 89.1837 27.9414L84.5548 27.9805C84.646 26.6784 85.1082 25.5391 85.9415 24.5625C86.7749 23.5729 87.8816 22.8047 89.2618 22.2578C90.642 21.7109 92.1004 21.4505 93.6368 21.4766C95.9415 21.5286 97.7384 22.2253 99.0275 23.5664C100.317 24.8945 100.85 26.6198 100.629 28.7422L99.0079 38.6445L98.8517 40.4023C98.8126 41.1706 98.9103 41.9193 99.1447 42.6484L99.1251 43H94.5353ZM89.7697 39.6016C90.7462 39.6276 91.6512 39.4062 92.4845 38.9375C93.3178 38.4557 94.0275 37.8372 94.6134 37.082L95.3361 33.0781L93.129 33.0586C91.3842 33.0586 89.991 33.3906 88.9493 34.0547C87.9077 34.7057 87.3152 35.6042 87.172 36.75C87.0678 37.6224 87.2566 38.3125 87.7384 38.8203C88.2332 39.3151 88.9103 39.5755 89.7697 39.6016ZM117.016 26.2031C116.417 26.0729 115.811 26.0078 115.199 26.0078C113.168 25.9557 111.554 26.7956 110.356 28.5273L107.817 43H103.188L106.84 21.8672L111.234 21.8477L110.766 24.25C112.211 22.3359 113.878 21.3984 115.766 21.4375C116.195 21.4375 116.788 21.5352 117.543 21.7305L117.016 26.2031ZM121.938 43H117.309L120.981 21.8672H125.609L121.938 43ZM121.645 16.457C121.645 15.7409 121.879 15.1289 122.348 14.6211C122.817 14.1133 123.448 13.8464 124.242 13.8203C124.998 13.7943 125.623 14.0286 126.117 14.5234C126.625 15.0052 126.879 15.5977 126.879 16.3008C126.879 17.043 126.632 17.6549 126.137 18.1367C125.655 18.6185 125.037 18.8724 124.281 18.8984C123.539 18.9245 122.914 18.7031 122.406 18.2344C121.899 17.7526 121.645 17.1602 121.645 16.457ZM137.504 16.7305L136.606 21.8672H140.219L139.613 25.3828H135.981L133.988 37.2188C133.949 37.5443 133.943 37.8372 133.969 38.0977C134.047 38.944 134.568 39.3867 135.531 39.4258C136.013 39.4258 136.56 39.3672 137.172 39.25L136.859 42.9609C135.896 43.2344 134.926 43.3711 133.949 43.3711C132.335 43.3451 131.124 42.7982 130.317 41.7305C129.522 40.6497 129.21 39.224 129.379 37.4531L131.352 25.3828H127.973L128.598 21.8672H131.957L132.856 16.7305H137.504ZM153.324 40.9102C151.723 42.6159 149.718 43.4427 147.309 43.3906C145.942 43.3646 144.802 43.026 143.891 42.375C142.992 41.724 142.348 40.819 141.957 39.6602C141.58 38.4883 141.469 37.1146 141.625 35.5391L143.91 21.8672H148.539L146.234 35.5977C146.182 36.0794 146.176 36.5482 146.215 37.0039C146.345 38.6185 147.159 39.4583 148.656 39.5234C150.701 39.6016 152.354 38.7812 153.617 37.0625L156.274 21.8672H160.902L157.25 43H152.914L153.324 40.9102ZM174.652 37.1406C174.874 35.8516 174.034 34.9596 172.133 34.4648C170.245 33.957 168.956 33.5534 168.266 33.2539C165.583 32.1081 164.288 30.3633 164.379 28.0195C164.444 26.1185 165.304 24.5495 166.957 23.3125C168.624 22.0625 170.616 21.4505 172.934 21.4766C175.173 21.5026 176.996 22.1341 178.402 23.3711C179.822 24.6081 180.518 26.2292 180.492 28.2344L175.902 28.2148C175.929 27.2383 175.662 26.4766 175.102 25.9297C174.542 25.3698 173.774 25.0768 172.797 25.0508C171.768 25.0508 170.883 25.3047 170.141 25.8125C169.412 26.3203 168.988 26.9844 168.871 27.8047C168.689 28.9896 169.522 29.8164 171.371 30.2852C173.22 30.7409 174.587 31.1641 175.473 31.5547C178.051 32.6875 179.294 34.4583 179.203 36.8672C179.138 38.2083 178.695 39.3802 177.875 40.3828C177.068 41.3724 175.981 42.1341 174.613 42.668C173.246 43.1888 171.794 43.4297 170.258 43.3906C167.953 43.3646 166.039 42.694 164.516 41.3789C163.005 40.0638 162.263 38.3776 162.289 36.3203L166.762 36.3398C166.788 37.4727 167.126 38.332 167.777 38.918C168.429 39.5039 169.32 39.8034 170.453 39.8164C171.599 39.8164 172.55 39.582 173.305 39.1133C174.073 38.6315 174.522 37.974 174.652 37.1406Z" fill="white"/>
<path d="M11.9341 12.3565L28.3844 7.63944L40.6947 19.5273L36.5546 36.1322L20.1043 40.8493L7.79405 28.9614L11.9341 12.3565Z" stroke="white" stroke-width="5"/>
</svg>
