<svg width="201" height="55" viewBox="0 0 201 55" fill="none" xmlns="http://www.w3.org/2000/svg">
<path fill-rule="evenodd" clip-rule="evenodd" d="M9.63487 11.0875L6.51595 23.3734L16.2696 32.4973L29.3387 28.9124L32.4575 16.6265L22.7039 7.50269L9.63487 11.0875ZM6.99425 5.74978C5.64166 6.1208 4.59274 7.18996 4.24763 8.54939L0.566218 23.051C0.216684 24.4278 0.643951 25.8858 1.68136 26.8562L13.0718 37.5111C14.0608 38.4363 15.4592 38.7817 16.7652 38.4234L31.9793 34.2501C33.3319 33.8791 34.3808 32.81 34.7259 31.4505L38.4073 16.9489C38.7568 15.5721 38.3295 14.1141 37.2921 13.1437L25.9018 2.48887C24.9128 1.5637 23.5144 1.21828 22.2084 1.57653L6.99425 5.74978Z" fill="url(#paint0_linear)"/>
<path d="M58.9956 38.516C54.9536 38.516 51.5853 37.3407 48.8906 34.99C46.2246 32.6107 44.8916 29.5003 44.8916 25.659C44.8916 20.7283 46.5256 16.7007 49.7936 13.576C53.0616 10.4227 56.9889 8.846 61.5756 8.846C64.8723 8.846 67.5813 9.60567 69.7026 11.125C71.8526 12.6443 73.3863 14.5937 74.3036 16.973L68.4126 18.951C67.8679 17.4603 66.9506 16.3137 65.6606 15.511C64.3993 14.6797 62.9373 14.264 61.2746 14.264C58.5226 14.264 56.1576 15.3247 54.1796 17.446C52.2303 19.5673 51.2556 22.176 51.2556 25.272C51.2556 27.5367 51.9866 29.4143 53.4486 30.905C54.9393 32.367 56.9029 33.098 59.3396 33.098C60.5723 33.098 61.8049 32.797 63.0376 32.195C64.2703 31.593 65.2879 30.7903 66.0906 29.787L70.7776 32.969C69.2583 34.9183 67.4379 36.3373 65.3166 37.226C63.2239 38.086 61.1169 38.516 58.9956 38.516Z" fill="white"/>
<path d="M79.2281 38H73.7671L80.0881 9.319H85.5491L79.2281 38Z" fill="white"/>
<path d="M97.1991 16.715C98.5751 16.715 99.8508 17.0017 101.026 17.575C102.201 18.1483 103.133 18.951 103.821 19.983L104.38 17.231H109.884L105.283 38H99.7791L100.381 35.42C98.6324 37.484 96.5541 38.516 94.1461 38.516C91.7381 38.516 89.8174 37.7563 88.3841 36.237C86.9508 34.7177 86.2341 32.6107 86.2341 29.916C86.2341 27.7373 86.6354 25.6733 87.4381 23.724C88.2694 21.746 89.5308 20.0833 91.2221 18.736C92.9421 17.3887 94.9344 16.715 97.1991 16.715ZM98.0591 21.574C96.3104 21.574 94.8484 22.2907 93.6731 23.724C92.5264 25.1573 91.9531 26.8487 91.9531 28.798C91.9531 30.26 92.3831 31.4353 93.2431 32.324C94.1031 33.2127 95.2068 33.657 96.5541 33.657C98.4461 33.657 100.037 32.84 101.327 31.206L102.918 23.982C101.857 22.3767 100.238 21.574 98.0591 21.574Z" fill="white"/>
<path d="M117.019 38H111.558L116.159 17.231H121.62L120.975 19.94C122.982 17.79 125.447 16.715 128.371 16.715L127.167 22.133C126.479 21.961 125.82 21.875 125.189 21.875C123.211 21.875 121.491 22.7063 120.029 24.369L117.019 38Z" fill="white"/>
<path d="M136.041 14.995C135.209 14.995 134.507 14.7227 133.934 14.178C133.389 13.6333 133.117 12.974 133.117 12.2C133.117 11.082 133.489 10.1933 134.235 9.534C135.009 8.846 135.854 8.502 136.772 8.502C137.632 8.502 138.334 8.77433 138.879 9.319C139.452 9.86367 139.739 10.523 139.739 11.297C139.739 12.415 139.352 13.318 138.578 14.006C137.804 14.6653 136.958 14.995 136.041 14.995ZM133.375 38H127.914L132.515 17.231H137.976L133.375 38Z" fill="white"/>
<path d="M147.992 38.516C146.071 38.516 144.551 38.1433 143.433 37.398C142.344 36.624 141.799 35.4917 141.799 34.001C141.799 33.5137 141.857 33.0407 141.971 32.582L144.293 21.961H140.854L141.928 17.231H145.368L146.615 11.555H152.119L150.872 17.231H155.087L153.968 21.961H149.755L147.776 30.991C147.719 31.335 147.69 31.6217 147.69 31.851C147.69 33.055 148.364 33.657 149.711 33.657C150.371 33.657 150.872 33.5137 151.216 33.227L151.431 37.613C150.543 38.215 149.396 38.516 147.992 38.516Z" fill="white"/>
<path d="M159.597 17.231H165.101L162.306 29.744C162.191 30.26 162.134 30.6757 162.134 30.991C162.134 31.8797 162.449 32.5533 163.08 33.012C163.739 33.442 164.585 33.657 165.617 33.657C167.222 33.657 168.87 32.84 170.562 31.206L173.658 17.231H179.119L174.518 38H169.057L169.659 35.291C167.394 37.441 165.086 38.516 162.736 38.516C160.758 38.516 159.181 38.0287 158.006 37.054C156.83 36.0793 156.243 34.7893 156.243 33.184C156.243 32.6967 156.314 32.1377 156.458 31.507L159.597 17.231Z" fill="white"/>
<path d="M189.83 38.516C187.91 38.516 186.075 38.2007 184.326 37.57C182.606 36.9107 181.173 35.979 180.026 34.775L183.079 31.12C183.738 31.9227 184.756 32.668 186.132 33.356C187.537 34.044 188.941 34.388 190.346 34.388C191.235 34.388 191.952 34.173 192.496 33.743C193.07 33.2843 193.356 32.7683 193.356 32.195C193.356 31.5357 192.797 30.9623 191.679 30.475C190.59 29.959 189.386 29.529 188.067 29.185C186.777 28.8123 185.573 28.1673 184.455 27.25C183.366 26.304 182.821 25.1287 182.821 23.724C182.821 21.8033 183.581 20.155 185.1 18.779C186.648 17.403 188.741 16.715 191.378 16.715C193.127 16.715 194.775 17.0303 196.323 17.661C197.9 18.263 199.19 19.08 200.193 20.112L197.398 23.595C196.854 22.907 195.993 22.2907 194.818 21.746C193.671 21.1727 192.496 20.886 191.292 20.886C190.375 20.886 189.644 21.0867 189.099 21.488C188.555 21.8607 188.282 22.3337 188.282 22.907C188.282 23.3657 188.641 23.7813 189.357 24.154C190.074 24.5267 190.948 24.8707 191.98 25.186C193.012 25.5013 194.044 25.874 195.076 26.304C196.137 26.734 197.025 27.379 197.742 28.239C198.459 29.0703 198.817 30.0737 198.817 31.249C198.817 33.313 198 35.0473 196.366 36.452C194.761 37.828 192.582 38.516 189.83 38.516Z" fill="white"/>
<path d="M173.568 54C175.584 54 176.672 52.768 176.672 51.104C176.672 49.808 175.76 48.672 174.608 48.496C175.6 48.288 176.464 47.376 176.464 46.048C176.464 44.544 175.392 43.328 173.424 43.328H168.176V54H173.568ZM173.056 47.728H170.048V44.976H173.056C174 44.976 174.544 45.568 174.544 46.352C174.544 47.168 174 47.728 173.056 47.728ZM173.136 52.352H170.048V49.376H173.136C174.192 49.376 174.752 50.064 174.752 50.864C174.752 51.792 174.144 52.352 173.136 52.352Z" fill="white"/>
<path d="M182.422 54.192C183.638 54.192 184.774 53.792 185.558 53.056L184.79 51.952C184.23 52.512 183.35 52.816 182.582 52.816C181.126 52.816 180.262 51.84 180.134 50.688H186.086V50.272C186.086 47.84 184.614 46.08 182.294 46.08C180.006 46.08 178.374 47.888 178.374 50.128C178.374 52.576 180.086 54.192 182.422 54.192ZM184.47 49.488H180.118C180.182 48.56 180.854 47.456 182.278 47.456C183.798 47.456 184.422 48.576 184.47 49.488Z" fill="white"/>
<path d="M190.401 54.192C191.169 54.192 191.665 53.968 191.969 53.696L191.569 52.416C191.441 52.56 191.153 52.704 190.833 52.704C190.353 52.704 190.097 52.304 190.097 51.776V47.728H191.665V46.272H190.097V44.16H188.417V46.272H187.137V47.728H188.417V52.192C188.417 53.488 189.089 54.192 190.401 54.192Z" fill="white"/>
<path d="M199.91 54V48.864C199.91 46.8 198.406 46.08 196.678 46.08C195.446 46.08 194.326 46.464 193.43 47.328L194.134 48.496C194.79 47.824 195.558 47.504 196.422 47.504C197.478 47.504 198.23 48.048 198.23 48.944V50.096C197.654 49.44 196.774 49.104 195.718 49.104C194.454 49.104 193.046 49.84 193.046 51.632C193.046 53.328 194.47 54.192 195.718 54.192C196.742 54.192 197.654 53.824 198.23 53.152V54H199.91ZM196.39 53.04C195.446 53.04 194.726 52.496 194.726 51.648C194.726 50.816 195.446 50.256 196.39 50.256C197.11 50.256 197.83 50.528 198.23 51.056V52.24C197.83 52.768 197.11 53.04 196.39 53.04Z" fill="white"/>
<defs>
<linearGradient id="paint0_linear" x1="25.1293" y1="-2.22664" x2="14.2213" y2="42.3189" gradientUnits="userSpaceOnUse">
<stop stop-color="#21CE99"/>
<stop offset="1" stop-color="#FF8800"/>
</linearGradient>
</defs>
</svg>
