<svg width="111" height="32" viewBox="0 0 111 32" fill="none" xmlns="http://www.w3.org/2000/svg">
    <g filter="url(#filter0_d)">
        <path d="M41.4395 20.4336C41.1505 22.2148 40.3497 23.6367 39.0372 24.6992C37.7247 25.7539 36.127 26.2656 34.2442 26.2344C33.1583 26.2109 32.2051 25.9531 31.3848 25.4609C30.5723 24.9688 29.9356 24.2539 29.4747 23.3164C29.0137 22.3711 28.7559 21.3047 28.7012 20.1172C28.6544 19.2266 28.7637 18.0156 29.0294 16.4844C29.295 14.9453 29.8028 13.5664 30.5528 12.3477C31.3106 11.1289 32.2364 10.2109 33.3301 9.59375C34.4317 8.97656 35.6544 8.67969 36.9981 8.70312C38.6934 8.73438 40.0333 9.26953 41.0176 10.3086C42.0098 11.3398 42.5372 12.7656 42.5997 14.5859H39.7286C39.6895 13.3672 39.4317 12.4883 38.9551 11.9492C38.4864 11.4023 37.7872 11.1172 36.8575 11.0938C35.584 11.0547 34.5176 11.5117 33.6583 12.4648C32.7989 13.418 32.2208 14.8047 31.9239 16.625L31.6895 18.1836L31.584 19.3789C31.5215 20.1836 31.5762 20.9414 31.7481 21.6523C31.9278 22.3555 32.2403 22.8945 32.6856 23.2695C33.1309 23.6367 33.6973 23.832 34.3848 23.8555C36.5645 23.9414 37.963 22.8086 38.5801 20.457L41.4395 20.4336ZM45.9161 26H43.1387L46.2676 8H49.045L45.9161 26ZM56.5684 26C56.4747 25.6875 56.4356 25.293 56.4512 24.8164C55.4044 25.793 54.2755 26.2656 53.0645 26.2344C51.963 26.2188 51.0489 25.8672 50.3223 25.1797C49.6036 24.4844 49.2676 23.6055 49.3145 22.543C49.377 21.207 49.9551 20.1562 51.0489 19.3906C52.1426 18.625 53.6114 18.2422 55.4551 18.2422L57.2598 18.2656L57.4239 17.3984C57.4708 17.0938 57.4708 16.8086 57.4239 16.543C57.2676 15.6992 56.709 15.2656 55.7481 15.2422C55.1544 15.2266 54.6309 15.3789 54.1778 15.6992C53.7325 16.0117 53.459 16.4336 53.3575 16.9648L50.5801 16.9883C50.6348 16.207 50.9122 15.5234 51.4122 14.9375C51.9122 14.3438 52.5762 13.8828 53.4044 13.5547C54.2325 13.2266 55.1075 13.0703 56.0294 13.0859C57.4122 13.1172 58.4903 13.5352 59.2637 14.3398C60.0372 15.1367 60.3575 16.1719 60.2247 17.4453L59.252 23.3867L59.1583 24.4414C59.1348 24.9023 59.1934 25.3516 59.334 25.7891L59.3223 26H56.5684ZM53.709 23.9609C54.295 23.9766 54.838 23.8438 55.338 23.5625C55.838 23.2734 56.2637 22.9023 56.6153 22.4492L57.0489 20.0469L55.7247 20.0352C54.6778 20.0352 53.8419 20.2344 53.2169 20.6328C52.5919 21.0234 52.2364 21.5625 52.1505 22.25C52.088 22.7734 52.2012 23.1875 52.4903 23.4922C52.7872 23.7891 53.1934 23.9453 53.709 23.9609ZM70.0567 15.9219C69.6973 15.8438 69.334 15.8047 68.9669 15.8047C67.7481 15.7734 66.7794 16.2773 66.0606 17.3164L64.5372 26H61.7598L63.9512 13.3203L66.588 13.3086L66.3067 14.75C67.1739 13.6016 68.1739 13.0391 69.3067 13.0625C69.5645 13.0625 69.92 13.1211 70.3731 13.2383L70.0567 15.9219ZM73.0098 26H70.2325L72.4356 13.3203H75.213L73.0098 26ZM72.834 10.0742C72.834 9.64453 72.9747 9.27734 73.2559 8.97266C73.5372 8.66797 73.9161 8.50781 74.3926 8.49219C74.8458 8.47656 75.2208 8.61719 75.5176 8.91406C75.8223 9.20312 75.9747 9.55859 75.9747 9.98047C75.9747 10.4258 75.8262 10.793 75.5294 11.082C75.2403 11.3711 74.8692 11.5234 74.4161 11.5391C73.9708 11.5547 73.5958 11.4219 73.2911 11.1406C72.9864 10.8516 72.834 10.4961 72.834 10.0742ZM82.3497 10.2383L81.8106 13.3203H83.9786L83.6153 15.4297H81.4356L80.2403 22.5312C80.2169 22.7266 80.213 22.9023 80.2286 23.0586C80.2755 23.5664 80.588 23.832 81.1661 23.8555C81.4551 23.8555 81.7833 23.8203 82.1505 23.75L81.963 25.9766C81.3848 26.1406 80.8028 26.2227 80.2169 26.2227C79.2481 26.207 78.5215 25.8789 78.0372 25.2383C77.5606 24.5898 77.3731 23.7344 77.4747 22.6719L78.6583 15.4297H76.6309L77.0059 13.3203H79.0215L79.5606 10.2383H82.3497ZM91.8419 24.7461C90.8809 25.7695 89.6778 26.2656 88.2325 26.2344C87.4122 26.2188 86.7286 26.0156 86.1817 25.625C85.6426 25.2344 85.2559 24.6914 85.0215 23.9961C84.795 23.293 84.7286 22.4688 84.8223 21.5234L86.1934 13.3203H88.9708L87.588 21.5586C87.5567 21.8477 87.5528 22.1289 87.5762 22.4023C87.6544 23.3711 88.1426 23.875 89.0411 23.9141C90.2676 23.9609 91.2598 23.4688 92.0176 22.4375L93.6114 13.3203H96.3887L94.1973 26H91.5958L91.8419 24.7461ZM104.639 22.4844C104.772 21.7109 104.268 21.1758 103.127 20.8789C101.994 20.5742 101.221 20.332 100.807 20.1523C99.1973 19.4648 98.42 18.418 98.4747 17.0117C98.5137 15.8711 99.0294 14.9297 100.022 14.1875C101.022 13.4375 102.217 13.0703 103.607 13.0859C104.951 13.1016 106.045 13.4805 106.889 14.2227C107.74 14.9648 108.158 15.9375 108.143 17.1406L105.389 17.1289C105.404 16.543 105.244 16.0859 104.908 15.7578C104.572 15.4219 104.111 15.2461 103.525 15.2305C102.908 15.2305 102.377 15.3828 101.932 15.6875C101.494 15.9922 101.24 16.3906 101.17 16.8828C101.061 17.5938 101.561 18.0898 102.67 18.3711C103.779 18.6445 104.6 18.8984 105.131 19.1328C106.678 19.8125 107.424 20.875 107.369 22.3203C107.33 23.125 107.065 23.8281 106.572 24.4297C106.088 25.0234 105.436 25.4805 104.615 25.8008C103.795 26.1133 102.924 26.2578 102.002 26.2344C100.619 26.2188 99.4708 25.8164 98.5567 25.0273C97.6505 24.2383 97.2051 23.2266 97.2208 21.9922L99.9044 22.0039C99.92 22.6836 100.123 23.1992 100.514 23.5508C100.904 23.9023 101.44 24.082 102.119 24.0898C102.807 24.0898 103.377 23.9492 103.83 23.668C104.291 23.3789 104.561 22.9844 104.639 22.4844Z" fill="white"/>
        <path d="M7.18395 7.42688L17.2201 4.62386L24.7656 11.8105L22.2849 21.76L12.2487 24.563L4.70326 17.3764L7.18395 7.42688Z" stroke="white" stroke-width="3"/>
    </g>
    <defs>
        <filter id="filter0_d" x="1.03662" y="0.949829" width="109.106" height="27.2871" filterUnits="userSpaceOnUse" color-interpolation-filters="sRGB">
            <feFlood flood-opacity="0" result="BackgroundImageFix"/>
            <feColorMatrix in="SourceAlpha" type="matrix" values="0 0 0 0 0 0 0 0 0 0 0 0 0 0 0 0 0 0 127 0"/>
            <feOffset/>
            <feGaussianBlur stdDeviation="1"/>
            <feColorMatrix type="matrix" values="0 0 0 0 0 0 0 0 0 0 0 0 0 0 0 0 0 0 0.5 0"/>
            <feBlend mode="normal" in2="BackgroundImageFix" result="effect1_dropShadow"/>
            <feBlend mode="normal" in="SourceGraphic" in2="effect1_dropShadow" result="shape"/>
        </filter>
    </defs>
</svg>
