<svg width="170" height="47" viewBox="0 0 170 47" fill="none" xmlns="http://www.w3.org/2000/svg">
<path fill-rule="evenodd" clip-rule="evenodd" d="M8.14839 9.30197L5.51049 19.6094L13.7599 27.2639L24.8133 24.2563L27.4511 13.9489L19.2018 6.29441L8.14839 9.30197ZM5.91503 4.82379C4.77105 5.13506 3.8839 6.03204 3.59202 7.17255L0.478385 19.3388C0.18276 20.494 0.54413 21.7172 1.42154 22.5313L11.0552 31.4703C11.8917 32.2465 13.0744 32.5363 14.179 32.2357L27.0467 28.7345C28.1906 28.4232 29.0778 27.5262 29.3697 26.3857L32.4832 14.2195C32.7789 13.0643 32.4175 11.8412 31.5401 11.027L21.9065 2.08801C21.07 1.31183 19.8873 1.02204 18.7827 1.32259L5.91503 4.82379Z" fill="white"/>
<path d="M49.8965 32.3134C46.4779 32.3134 43.6291 31.3273 41.35 29.3552C39.0952 27.3591 37.9678 24.7496 37.9678 21.5269C37.9678 17.3902 39.3498 14.0112 42.1137 11.3897C44.8777 8.74418 48.1993 7.42142 52.0786 7.42142C54.8668 7.42142 57.158 8.05875 58.9522 9.33341C60.7706 10.6081 62.0677 12.2435 62.8436 14.2397L57.8612 15.8991C57.4005 14.6485 56.6246 13.6865 55.5336 13.0131C54.4668 12.3156 53.2303 11.9669 51.824 11.9669C49.4965 11.9669 47.4962 12.8568 45.8233 14.6365C44.1746 16.4162 43.3503 18.6048 43.3503 21.2022C43.3503 23.1022 43.9685 24.6775 45.205 25.9281C46.4658 27.1546 48.1266 27.7679 50.1875 27.7679C51.23 27.7679 52.2726 27.5154 53.3151 27.0103C54.3577 26.5053 55.2184 25.8319 55.8973 24.9901L59.8614 27.6597C58.5764 29.2951 57.0368 30.4856 55.2426 31.2311C53.4727 31.9527 51.6907 32.3134 49.8965 32.3134Z" fill="white"/>
<path d="M67.0086 31.8805H62.3898L67.736 7.81824H72.3547L67.0086 31.8805Z" fill="white"/>
<path d="M82.2079 14.0232C83.3717 14.0232 84.4506 14.2637 85.4447 14.7447C86.4388 15.2257 87.2267 15.8991 87.8086 16.7649L88.2814 14.4561H92.9365L89.0451 31.8805H84.39L84.8992 29.716C83.4202 31.4476 81.6624 32.3134 79.6258 32.3134C77.5892 32.3134 75.9647 31.6761 74.7525 30.4014C73.5402 29.1267 72.9341 27.3591 72.9341 25.0983C72.9341 23.2705 73.2735 21.5389 73.9524 19.9035C74.6555 18.244 75.7223 16.8491 77.1528 15.7187C78.6075 14.5884 80.2925 14.0232 82.2079 14.0232ZM82.9353 18.0997C81.4563 18.0997 80.2198 18.701 79.2257 19.9035C78.2559 21.106 77.771 22.525 77.771 24.1604C77.771 25.3869 78.1347 26.373 78.8621 27.1186C79.5894 27.8641 80.5229 28.2369 81.6624 28.2369C83.2626 28.2369 84.6082 27.5515 85.6993 26.1806L87.0449 20.1199C86.1478 18.7731 84.778 18.0997 82.9353 18.0997Z" fill="white"/>
<path d="M98.9714 31.8805H94.3526L98.244 14.4561H102.863L102.317 16.7289C104.014 14.9251 106.1 14.0232 108.573 14.0232L107.554 18.5687C106.972 18.4244 106.415 18.3522 105.881 18.3522C104.208 18.3522 102.754 19.0497 101.517 20.4446L98.9714 31.8805Z" fill="white"/>
<path d="M115.059 12.5802C114.356 12.5802 113.762 12.3517 113.277 11.8948C112.816 11.4378 112.586 10.8846 112.586 10.2353C112.586 9.29733 112.901 8.55178 113.531 7.99862C114.186 7.42142 114.901 7.13281 115.677 7.13281C116.405 7.13281 116.999 7.36129 117.459 7.81824C117.944 8.2752 118.187 8.82835 118.187 9.47771C118.187 10.4157 117.859 11.1733 117.205 11.7505C116.55 12.3036 115.835 12.5802 115.059 12.5802ZM112.804 31.8805H108.185L112.077 14.4561H116.695L112.804 31.8805Z" fill="white"/>
<path d="M125.167 32.3134C123.542 32.3134 122.257 32.0007 121.312 31.3754C120.39 30.7261 119.93 29.7761 119.93 28.5255C119.93 28.1166 119.978 27.7198 120.075 27.335L122.039 18.4244H119.13L120.039 14.4561H122.948L124.003 9.69416H128.658L127.603 14.4561H131.167L130.222 18.4244H126.658L124.985 26.0002C124.936 26.2888 124.912 26.5293 124.912 26.7217C124.912 27.7318 125.482 28.2369 126.621 28.2369C127.179 28.2369 127.603 28.1166 127.894 27.8761L128.076 31.5558C127.325 32.0609 126.355 32.3134 125.167 32.3134Z" fill="white"/>
<path d="M134.982 14.4561H139.637L137.273 24.954C137.176 25.3869 137.128 25.7357 137.128 26.0002C137.128 26.7458 137.395 27.311 137.928 27.6958C138.486 28.0565 139.201 28.2369 140.074 28.2369C141.431 28.2369 142.826 27.5515 144.256 26.1806L146.874 14.4561H151.493L147.602 31.8805H142.983L143.492 29.6078C141.577 31.4115 139.625 32.3134 137.637 32.3134C135.964 32.3134 134.631 31.9045 133.636 31.0868C132.642 30.2691 132.145 29.1869 132.145 27.8401C132.145 27.4312 132.206 26.9622 132.327 26.4331L134.982 14.4561Z" fill="white"/>
<path d="M160.553 32.3134C158.928 32.3134 157.376 32.0488 155.897 31.5197C154.443 30.9666 153.23 30.185 152.261 29.1748L154.843 26.1084C155.4 26.7818 156.261 27.4072 157.425 27.9844C158.613 28.5616 159.801 28.8502 160.989 28.8502C161.741 28.8502 162.347 28.6698 162.807 28.309C163.292 27.9242 163.535 27.4913 163.535 27.0103C163.535 26.4572 163.062 25.9762 162.116 25.5673C161.195 25.1344 160.177 24.7737 159.062 24.4851C157.97 24.1724 156.952 23.6313 156.007 22.8617C155.085 22.068 154.625 21.0819 154.625 19.9035C154.625 18.2921 155.267 16.9092 156.552 15.7548C157.861 14.6004 159.631 14.0232 161.862 14.0232C163.341 14.0232 164.735 14.2878 166.044 14.8169C167.378 15.3219 168.469 16.0073 169.317 16.8732L166.953 19.7953C166.493 19.2181 165.765 18.701 164.771 18.244C163.802 17.763 162.807 17.5225 161.789 17.5225C161.013 17.5225 160.395 17.6909 159.934 18.0276C159.474 18.3402 159.243 18.737 159.243 19.2181C159.243 19.6029 159.546 19.9516 160.153 20.2642C160.759 20.5769 161.498 20.8655 162.371 21.13C163.244 21.3946 164.117 21.7073 164.99 22.068C165.887 22.4288 166.638 22.9699 167.244 23.6914C167.85 24.3889 168.154 25.2306 168.154 26.2167C168.154 27.9483 167.463 29.4033 166.081 30.5818C164.723 31.7362 162.88 32.3134 160.553 32.3134Z" fill="white"/>
<path d="M146.799 45.304C148.504 45.304 149.424 44.2704 149.424 42.8743C149.424 41.7871 148.653 40.834 147.678 40.6863C148.517 40.5118 149.248 39.7467 149.248 38.6326C149.248 37.3708 148.341 36.3506 146.677 36.3506H142.238V45.304H146.799ZM146.366 40.042H143.822V37.7332H146.366C147.164 37.7332 147.624 38.2299 147.624 38.8876C147.624 39.5722 147.164 40.042 146.366 40.042ZM146.433 43.9214H143.822V41.4246H146.433C147.326 41.4246 147.8 42.0018 147.8 42.673C147.8 43.4515 147.286 43.9214 146.433 43.9214Z" fill="white"/>
<path d="M154.288 45.4651C155.316 45.4651 156.277 45.1295 156.94 44.512L156.29 43.5858C155.817 44.0556 155.073 44.3106 154.423 44.3106C153.192 44.3106 152.461 43.4918 152.353 42.5253H157.387V42.1763C157.387 40.136 156.142 38.6594 154.179 38.6594C152.244 38.6594 150.864 40.1762 150.864 42.0555C150.864 44.1093 152.312 45.4651 154.288 45.4651ZM156.02 41.5186H152.339C152.393 40.74 152.961 39.8138 154.166 39.8138C155.451 39.8138 155.979 40.7535 156.02 41.5186Z" fill="white"/>
<path d="M161.035 45.4651C161.685 45.4651 162.104 45.2771 162.362 45.0489L162.023 43.9751C161.915 44.0959 161.671 44.2167 161.401 44.2167C160.995 44.2167 160.778 43.8811 160.778 43.4381V40.042H162.104V38.8205H160.778V37.0486H159.357V38.8205H158.275V40.042H159.357V43.7871C159.357 44.8744 159.926 45.4651 161.035 45.4651Z" fill="white"/>
<path d="M169.078 45.304V40.9951C169.078 39.2635 167.806 38.6594 166.345 38.6594C165.303 38.6594 164.355 38.9816 163.598 39.7064L164.193 40.6863C164.748 40.1226 165.397 39.8541 166.128 39.8541C167.021 39.8541 167.657 40.3105 167.657 41.0622V42.0287C167.17 41.4783 166.426 41.1964 165.533 41.1964C164.464 41.1964 163.273 41.8139 163.273 43.3173C163.273 44.7402 164.477 45.4651 165.533 45.4651C166.399 45.4651 167.17 45.1563 167.657 44.5925V45.304H169.078ZM166.101 44.4986C165.303 44.4986 164.694 44.0422 164.694 43.3307C164.694 42.6327 165.303 42.1629 166.101 42.1629C166.71 42.1629 167.319 42.3911 167.657 42.8341V43.8274C167.319 44.2704 166.71 44.4986 166.101 44.4986Z" fill="white"/>
</svg>
