<svg width="199" height="52" viewBox="0 0 199 52" fill="none" xmlns="http://www.w3.org/2000/svg">
    <g filter="url(#filter0_d)">
        <path d="M69.6385 35.9863C69.1568 38.9551 67.8221 41.3249 65.6346 43.0957C63.4471 44.8535 60.7844 45.7064 57.6464 45.6543C55.8365 45.6152 54.2479 45.1855 52.8807 44.3652C51.5266 43.5449 50.4654 42.3535 49.6971 40.791C48.9289 39.2155 48.4992 37.4382 48.4081 35.459C48.33 33.9746 48.5122 31.9564 48.955 29.4043C49.3977 26.8392 50.244 24.541 51.494 22.5098C52.757 20.4785 54.3 18.9486 56.1229 17.9199C57.9589 16.8913 59.9966 16.3965 62.2362 16.4355C65.0617 16.4876 67.2948 17.3796 68.9354 19.1113C70.5891 20.8301 71.468 23.2064 71.5721 26.2402H66.787C66.7219 24.209 66.2922 22.7441 65.4979 21.8457C64.7167 20.9342 63.5513 20.459 62.0018 20.4199C59.8794 20.3548 58.1021 21.1165 56.6698 22.7051C55.2375 24.2936 54.274 26.6048 53.7792 29.6387L53.3885 32.2363L53.2128 34.2285C53.1086 35.5697 53.1997 36.8327 53.4862 38.0176C53.7857 39.1895 54.3065 40.0879 55.0487 40.7129C55.7909 41.3249 56.7349 41.6504 57.8807 41.6895C61.5135 41.8327 63.8443 39.9447 64.8729 36.0254L69.6385 35.9863ZM77.0995 45.2637H72.4706L77.6854 15.2637H82.3143L77.0995 45.2637ZM94.8534 45.2637C94.6971 44.7428 94.632 44.0853 94.6581 43.291C92.9133 44.9186 91.0318 45.7064 89.0135 45.6543C87.1776 45.6283 85.6542 45.0423 84.4432 43.8965C83.2453 42.7376 82.6854 41.2728 82.7635 39.502C82.8677 37.2754 83.8313 35.5241 85.6542 34.248C87.4771 32.972 89.925 32.334 92.9979 32.334L96.0057 32.373L96.2792 30.9277C96.3573 30.4199 96.3573 29.9447 96.2792 29.502C96.0188 28.0957 95.0878 27.373 93.4862 27.334C92.4966 27.3079 91.6242 27.5618 90.869 28.0957C90.1268 28.6165 89.6711 29.3197 89.5018 30.2051L84.8729 30.2441C84.9641 28.9421 85.4263 27.8027 86.2596 26.8262C87.093 25.8366 88.1997 25.0684 89.58 24.5215C90.9602 23.9746 92.4185 23.7142 93.955 23.7402C96.2596 23.7923 98.0565 24.4889 99.3456 25.8301C100.635 27.1582 101.168 28.8835 100.947 31.0059L99.326 40.9082L99.1698 42.666C99.1307 43.4342 99.2284 44.1829 99.4628 44.9121L99.4432 45.2637H94.8534ZM90.0878 41.8652C91.0643 41.8913 91.9693 41.6699 92.8026 41.2012C93.6359 40.7194 94.3456 40.1009 94.9315 39.3457L95.6542 35.3418L93.4471 35.3223C91.7024 35.3223 90.3091 35.6543 89.2675 36.3184C88.2258 36.9694 87.6333 37.8678 87.4901 39.0137C87.3859 39.8861 87.5747 40.5762 88.0565 41.084C88.5513 41.5788 89.2284 41.8392 90.0878 41.8652ZM117.334 28.4668C116.735 28.3366 116.129 28.2715 115.517 28.2715C113.486 28.2194 111.872 29.0592 110.674 30.791L108.135 45.2637H103.506L107.158 24.1309L111.553 24.1113L111.084 26.5137C112.529 24.5996 114.196 23.6621 116.084 23.7012C116.514 23.7012 117.106 23.7988 117.861 23.9941L117.334 28.4668ZM122.256 45.2637H117.627L121.299 24.1309H125.928L122.256 45.2637ZM121.963 18.7207C121.963 18.0046 122.197 17.3926 122.666 16.8848C123.135 16.377 123.766 16.11 124.56 16.084C125.316 16.0579 125.941 16.2923 126.435 16.7871C126.943 17.2689 127.197 17.8613 127.197 18.5645C127.197 19.3066 126.95 19.9186 126.455 20.4004C125.973 20.8822 125.355 21.1361 124.599 21.1621C123.857 21.1882 123.232 20.9668 122.724 20.498C122.217 20.0163 121.963 19.4238 121.963 18.7207ZM137.822 18.9941L136.924 24.1309H140.537L139.932 27.6465H136.299L134.307 39.4824C134.267 39.8079 134.261 40.1009 134.287 40.3613C134.365 41.2077 134.886 41.6504 135.849 41.6895C136.331 41.6895 136.878 41.6309 137.49 41.5137L137.178 45.2246C136.214 45.498 135.244 45.6348 134.267 45.6348C132.653 45.6087 131.442 45.0618 130.635 43.9941C129.84 42.9134 129.528 41.4876 129.697 39.7168L131.67 27.6465H128.291L128.916 24.1309H132.275L133.174 18.9941H137.822ZM153.642 43.1738C152.041 44.8796 150.036 45.7064 147.627 45.6543C146.26 45.6283 145.12 45.2897 144.209 44.6387C143.31 43.9876 142.666 43.0827 142.275 41.9238C141.898 40.752 141.787 39.3783 141.943 37.8027L144.228 24.1309H148.857L146.553 37.8613C146.501 38.3431 146.494 38.8118 146.533 39.2676C146.663 40.8822 147.477 41.722 148.974 41.7871C151.019 41.8652 152.672 41.0449 153.935 39.3262L156.592 24.1309H161.221L157.568 45.2637H153.232L153.642 43.1738ZM174.971 39.4043C175.192 38.1152 174.352 37.2233 172.451 36.7285C170.563 36.2207 169.274 35.8171 168.584 35.5176C165.902 34.3717 164.606 32.627 164.697 30.2832C164.762 28.3822 165.622 26.8132 167.275 25.5762C168.942 24.3262 170.934 23.7142 173.252 23.7402C175.491 23.7663 177.314 24.3978 178.721 25.6348C180.14 26.8717 180.836 28.4928 180.81 30.498L176.221 30.4785C176.247 29.502 175.98 28.7402 175.42 28.1934C174.86 27.6335 174.092 27.3405 173.115 27.3145C172.086 27.3145 171.201 27.5684 170.459 28.0762C169.73 28.584 169.307 29.248 169.189 30.0684C169.007 31.2533 169.84 32.0801 171.689 32.5488C173.538 33.0046 174.905 33.4277 175.791 33.8184C178.369 34.9512 179.613 36.722 179.521 39.1309C179.456 40.472 179.014 41.6439 178.193 42.6465C177.386 43.6361 176.299 44.3978 174.932 44.9316C173.564 45.4525 172.113 45.6934 170.576 45.6543C168.271 45.6283 166.357 44.9577 164.834 43.6426C163.323 42.3275 162.581 40.6413 162.607 38.584L167.08 38.6035C167.106 39.7363 167.445 40.5957 168.096 41.1816C168.747 41.7676 169.639 42.0671 170.771 42.0801C171.917 42.0801 172.868 41.8457 173.623 41.377C174.391 40.8952 174.84 40.2376 174.971 39.4043Z" fill="white"/>
        <path d="M11.9733 14.3781L28.7002 9.70643L41.2759 21.6841L37.1415 38.2667L20.4145 42.9384L7.83877 30.9607L11.9733 14.3781Z" stroke="url(#paint0_linear)" stroke-width="5"/>
    </g>
    <defs>
        <filter id="filter0_d" x="0.641846" y="0.658691" width="182.169" height="51.3274" filterUnits="userSpaceOnUse" color-interpolation-filters="sRGB">
            <feFlood flood-opacity="0" result="BackgroundImageFix"/>
            <feColorMatrix in="SourceAlpha" type="matrix" values="0 0 0 0 0 0 0 0 0 0 0 0 0 0 0 0 0 0 127 0"/>
            <feOffset/>
            <feGaussianBlur stdDeviation="1"/>
            <feColorMatrix type="matrix" values="0 0 0 0 0 0 0 0 0 0 0 0 0 0 0 0 0 0 0.5 0"/>
            <feBlend mode="normal" in2="BackgroundImageFix" result="effect1_dropShadow"/>
            <feBlend mode="normal" in="SourceGraphic" in2="effect1_dropShadow" result="shape"/>
        </filter>
        <linearGradient id="paint0_linear" x1="29.3958" y1="6.91648" x2="19.7189" y2="45.7283" gradientUnits="userSpaceOnUse">
            <stop stop-color="#21CE99"/>
            <stop offset="1" stop-color="#FF8800"/>
        </linearGradient>
    </defs>
</svg>
