<svg width="90" height="36" viewBox="0 0 90 36" fill="none" xmlns="http://www.w3.org/2000/svg">
<path d="M70.65 27.42C71.0433 27.4933 71.3667 27.69 71.62 28.01C71.8733 28.33 72 28.6967 72 29.11C72 29.4833 71.9067 29.8133 71.72 30.1C71.54 30.38 71.2767 30.6 70.93 30.76C70.5833 30.92 70.1733 31 69.7 31H66.69V24.02H69.57C70.0433 24.02 70.45 24.0967 70.79 24.25C71.1367 24.4033 71.3967 24.6167 71.57 24.89C71.75 25.1633 71.84 25.4733 71.84 25.82C71.84 26.2267 71.73 26.5667 71.51 26.84C71.2967 27.1133 71.01 27.3067 70.65 27.42ZM68.09 26.9H69.37C69.7033 26.9 69.96 26.8267 70.14 26.68C70.32 26.5267 70.41 26.31 70.41 26.03C70.41 25.75 70.32 25.5333 70.14 25.38C69.96 25.2267 69.7033 25.15 69.37 25.15H68.09V26.9ZM69.5 29.86C69.84 29.86 70.1033 29.78 70.29 29.62C70.4833 29.46 70.58 29.2333 70.58 28.94C70.58 28.64 70.48 28.4067 70.28 28.24C70.08 28.0667 69.81 27.98 69.47 27.98H68.09V29.86H69.5ZM78.3658 28.11C78.3658 28.31 78.3524 28.49 78.3258 28.65H74.2758C74.3091 29.05 74.4491 29.3633 74.6958 29.59C74.9424 29.8167 75.2458 29.93 75.6058 29.93C76.1258 29.93 76.4958 29.7067 76.7158 29.26H78.2258C78.0658 29.7933 77.7591 30.2333 77.3058 30.58C76.8524 30.92 76.2958 31.09 75.6358 31.09C75.1024 31.09 74.6224 30.9733 74.1958 30.74C73.7758 30.5 73.4458 30.1633 73.2058 29.73C72.9724 29.2967 72.8558 28.7967 72.8558 28.23C72.8558 27.6567 72.9724 27.1533 73.2058 26.72C73.4391 26.2867 73.7658 25.9533 74.1858 25.72C74.6058 25.4867 75.0891 25.37 75.6358 25.37C76.1624 25.37 76.6324 25.4833 77.0458 25.71C77.4658 25.9367 77.7891 26.26 78.0158 26.68C78.2491 27.0933 78.3658 27.57 78.3658 28.11ZM76.9158 27.71C76.9091 27.35 76.7791 27.0633 76.5258 26.85C76.2724 26.63 75.9624 26.52 75.5958 26.52C75.2491 26.52 74.9558 26.6267 74.7158 26.84C74.4824 27.0467 74.3391 27.3367 74.2858 27.71H76.9158ZM81.1177 26.61V29.29C81.1177 29.4767 81.161 29.6133 81.2477 29.7C81.341 29.78 81.4943 29.82 81.7077 29.82H82.3577V31H81.4777C80.2977 31 79.7077 30.4267 79.7077 29.28V26.61H79.0477V25.46H79.7077V24.09H81.1177V25.46H82.3577V26.61H81.1177ZM83.1046 28.21C83.1046 27.65 83.2146 27.1533 83.4346 26.72C83.6613 26.2867 83.9646 25.9533 84.3446 25.72C84.7313 25.4867 85.1613 25.37 85.6346 25.37C86.0479 25.37 86.4079 25.4533 86.7146 25.62C87.0279 25.7867 87.2779 25.9967 87.4646 26.25V25.46H88.8746V31H87.4646V30.19C87.2846 30.45 87.0346 30.6667 86.7146 30.84C86.4013 31.0067 86.0379 31.09 85.6246 31.09C85.1579 31.09 84.7313 30.97 84.3446 30.73C83.9646 30.49 83.6613 30.1533 83.4346 29.72C83.2146 29.28 83.1046 28.7767 83.1046 28.21ZM87.4646 28.23C87.4646 27.89 87.3979 27.6 87.2646 27.36C87.1313 27.1133 86.9513 26.9267 86.7246 26.8C86.4979 26.6667 86.2546 26.6 85.9946 26.6C85.7346 26.6 85.4946 26.6633 85.2746 26.79C85.0546 26.9167 84.8746 27.1033 84.7346 27.35C84.6013 27.59 84.5346 27.8767 84.5346 28.21C84.5346 28.5433 84.6013 28.8367 84.7346 29.09C84.8746 29.3367 85.0546 29.5267 85.2746 29.66C85.5013 29.7933 85.7413 29.86 85.9946 29.86C86.2546 29.86 86.4979 29.7967 86.7246 29.67C86.9513 29.5367 87.1313 29.35 87.2646 29.11C87.3979 28.8633 87.4646 28.57 87.4646 28.23Z" fill="#323947" fill-opacity="0.5"/>
<path d="M34.3106 16.6912C34.0722 18.1606 33.4116 19.3336 32.3289 20.2101C31.2461 21.0801 29.9282 21.5023 28.375 21.4765C27.4792 21.4572 26.6929 21.2445 26.0162 20.8385C25.3459 20.4324 24.8207 19.8427 24.4404 19.0694C24.0602 18.2895 23.8475 17.4098 23.8024 16.4302C23.7637 15.6955 23.854 14.6966 24.0731 13.4334C24.2922 12.1638 24.7111 11.0262 25.3298 10.0209C25.955 9.01547 26.7187 8.2582 27.6209 7.74907C28.5297 7.23993 29.5383 6.99502 30.6468 7.01436C32.0453 7.04014 33.1506 7.48161 33.9626 8.33876C34.7811 9.18948 35.2161 10.3657 35.2677 11.8673H32.8992C32.867 10.8619 32.6543 10.1369 32.2612 9.69217C31.8745 9.24104 31.2977 9.0058 30.5308 8.98647C29.4803 8.95424 28.6006 9.33126 27.8916 10.1175C27.1827 10.9038 26.7058 12.0477 26.4609 13.5494L26.2675 14.8351L26.1805 15.8212C26.129 16.485 26.1741 17.1101 26.3159 17.6966C26.4641 18.2766 26.7219 18.7213 27.0892 19.0307C27.4566 19.3336 27.9239 19.4947 28.491 19.514C30.2891 19.5849 31.4427 18.6504 31.9519 16.7106L34.3106 16.6912Z" fill="#323947"/>
<path d="M38.0035 21.2831H35.7124L38.2935 6.43433H40.5847L38.0035 21.2831Z" fill="#323947"/>
<path d="M46.791 21.2831C46.7137 21.0254 46.6814 20.6999 46.6943 20.3068C45.8307 21.1124 44.8995 21.5023 43.9005 21.4765C42.9918 21.4636 42.2378 21.1736 41.6384 20.6064C41.0455 20.0329 40.7683 19.3078 40.807 18.4313C40.8586 17.3293 41.3355 16.4624 42.2378 15.8308C43.14 15.1993 44.3516 14.8835 45.8726 14.8835L47.3614 14.9028L47.4967 14.1874C47.5354 13.9361 47.5354 13.7008 47.4967 13.4817C47.3678 12.7857 46.907 12.428 46.1143 12.4087C45.6245 12.3958 45.1927 12.5214 44.8189 12.7857C44.4515 13.0435 44.226 13.3915 44.1422 13.8297L41.8511 13.8491C41.8962 13.2046 42.125 12.6407 42.5374 12.1573C42.9499 11.6675 43.4977 11.2873 44.1809 11.0166C44.864 10.7459 45.5858 10.617 46.3463 10.6299C47.487 10.6557 48.3764 11.0005 49.0145 11.6643C49.6525 12.3217 49.9167 13.1756 49.8072 14.2261L49.0048 19.1274L48.9275 19.9974C48.9081 20.3776 48.9565 20.7482 49.0725 21.1091L49.0628 21.2831H46.791ZM44.4322 19.6011C44.9156 19.6139 45.3635 19.5044 45.7759 19.2724C46.1884 19.0339 46.5397 18.7278 46.8297 18.354L47.1874 16.3722L46.095 16.3625C45.2314 16.3625 44.5418 16.5269 44.0262 16.8556C43.5106 17.1778 43.2174 17.6225 43.1465 18.1896C43.0949 18.6214 43.1884 18.963 43.4268 19.2144C43.6717 19.4593 44.0068 19.5882 44.4322 19.6011Z" fill="#323947"/>
<path d="M57.9179 12.9694C57.6215 12.9049 57.3218 12.8727 57.0189 12.8727C56.0135 12.8469 55.2144 13.2626 54.6214 14.1197L53.3647 21.2831H51.0736L52.8813 10.8232L55.0565 10.8136L54.8244 12.0026C55.5398 11.0552 56.3647 10.5912 57.2992 10.6106C57.5119 10.6106 57.8052 10.6589 58.179 10.7556L57.9179 12.9694Z" fill="#323947"/>
<path d="M60.3541 21.2831H58.063L59.8804 10.8232H62.1715L60.3541 21.2831ZM60.2091 8.14542C60.2091 7.79096 60.3251 7.48805 60.5571 7.2367C60.7891 6.98536 61.1017 6.85324 61.4948 6.84035C61.8686 6.82746 62.178 6.94347 62.4229 7.18837C62.6742 7.42683 62.7999 7.72006 62.7999 8.06808C62.7999 8.43544 62.6774 8.73834 62.4325 8.9768C62.1941 9.21526 61.8879 9.34093 61.5141 9.35382C61.1468 9.36671 60.8374 9.25715 60.5861 9.02514C60.3347 8.78668 60.2091 8.49344 60.2091 8.14542Z" fill="#323947"/>
<path d="M68.0588 8.28076L67.6141 10.8232H69.4026L69.1029 12.5633H67.3048L66.3187 18.4217C66.2994 18.5828 66.2962 18.7278 66.3091 18.8567C66.3477 19.2756 66.6055 19.4947 67.0825 19.514C67.3209 19.514 67.5916 19.485 67.8945 19.427L67.7398 21.2638C67.2629 21.3991 66.7828 21.4668 66.2994 21.4668C65.5003 21.4539 64.9009 21.1832 64.5013 20.6548C64.1082 20.1199 63.9535 19.4142 64.0373 18.5377L65.0137 12.5633H63.3412L63.6506 10.8232H65.3134L65.758 8.28076H68.0588Z" fill="#323947"/>
<path d="M75.8893 20.2488C75.0966 21.093 74.1041 21.5023 72.9118 21.4765C72.2351 21.4636 71.6712 21.296 71.22 20.9738C70.7753 20.6516 70.4563 20.2036 70.263 19.6301C70.0761 19.05 70.0213 18.3701 70.0986 17.5903L71.2297 10.8232H73.5208L72.3801 17.6193C72.3543 17.8577 72.3511 18.0897 72.3704 18.3153C72.4349 19.1145 72.8377 19.5302 73.5788 19.5624C74.5906 19.6011 75.4091 19.195 76.0343 18.3443L77.349 10.8232H79.6401L77.8324 21.2831H75.6863L75.8893 20.2488Z" fill="#323947"/>
<path d="M86.4459 18.383C86.5554 17.7449 86.1397 17.3035 85.1988 17.0586C84.2643 16.8072 83.6263 16.6074 83.2847 16.4592C81.9571 15.8921 81.3158 15.0285 81.3609 13.8684C81.3931 12.9275 81.8185 12.1509 82.637 11.5386C83.4619 10.9199 84.448 10.617 85.5951 10.6299C86.7036 10.6428 87.6059 10.9554 88.302 11.5676C89.0044 12.1799 89.3492 12.9822 89.3363 13.9747L87.0646 13.9651C87.0774 13.4817 86.9453 13.1047 86.6682 12.834C86.3911 12.5569 86.0108 12.4119 85.5275 12.399C85.0183 12.399 84.5801 12.5247 84.2127 12.776C83.8518 13.0274 83.6424 13.356 83.5844 13.7621C83.4941 14.3485 83.9066 14.7578 84.8218 14.9898C85.7369 15.2154 86.4136 15.4248 86.8519 15.6182C88.1279 16.1789 88.7434 17.0554 88.6983 18.2476C88.6661 18.9115 88.447 19.4915 88.0409 19.9877C87.6414 20.4775 87.1032 20.8546 86.4265 21.1188C85.7498 21.3766 85.0312 21.4958 84.2707 21.4765C83.13 21.4636 82.1826 21.1317 81.4286 20.4808C80.681 19.8298 80.3136 18.9952 80.3265 17.977L82.5403 17.9866C82.5532 18.5473 82.7208 18.9727 83.043 19.2627C83.3652 19.5527 83.8067 19.7009 84.3674 19.7074C84.9345 19.7074 85.405 19.5914 85.7788 19.3594C86.1591 19.1209 86.3814 18.7955 86.4459 18.383Z" fill="#323947"/>
<path d="M6.12491 6.32661L13.9757 4.07544L19.8507 9.74883L17.8748 17.6734L10.0241 19.9246L4.1491 14.2512L6.12491 6.32661Z" stroke="#323947" stroke-width="3"/>
</svg>
