<svg width="181" height="62" viewBox="0 0 181 62" fill="none" xmlns="http://www.w3.org/2000/svg">
<path d="M69.3203 33.7227C68.8385 36.6914 67.5039 39.0612 65.3164 40.832C63.1289 42.5898 60.4661 43.4427 57.3281 43.3906C55.5182 43.3516 53.9297 42.9219 52.5625 42.1016C51.2083 41.2812 50.1471 40.0898 49.3789 38.5273C48.6107 36.9518 48.181 35.1745 48.0898 33.1953C48.0117 31.7109 48.194 29.6927 48.6367 27.1406C49.0794 24.5755 49.9258 22.2773 51.1758 20.2461C52.4388 18.2148 53.9818 16.6849 55.8047 15.6562C57.6406 14.6276 59.6784 14.1328 61.918 14.1719C64.7435 14.224 66.9766 15.1159 68.6172 16.8477C70.2708 18.5664 71.1497 20.9427 71.2539 23.9766H66.4688C66.4036 21.9453 65.974 20.4805 65.1797 19.582C64.3984 18.6706 63.2331 18.1953 61.6836 18.1562C59.5612 18.0911 57.7839 18.8529 56.3516 20.4414C54.9193 22.0299 53.9557 24.3411 53.4609 27.375L53.0703 29.9727L52.8945 31.9648C52.7904 33.306 52.8815 34.569 53.168 35.7539C53.4674 36.9258 53.9883 37.8242 54.7305 38.4492C55.4727 39.0612 56.4167 39.3867 57.5625 39.4258C61.1953 39.569 63.526 37.681 64.5547 33.7617L69.3203 33.7227Z" fill="#323947"/>
<path d="M76.7812 43H72.1523L77.3672 13H81.9961L76.7812 43Z" fill="#323947"/>
<path d="M94.5352 43C94.3789 42.4792 94.3138 41.8216 94.3398 41.0273C92.5951 42.6549 90.7135 43.4427 88.6953 43.3906C86.8594 43.3646 85.3359 42.7786 84.125 41.6328C82.9271 40.474 82.3672 39.0091 82.4453 37.2383C82.5495 35.0117 83.513 33.2604 85.3359 31.9844C87.1589 30.7083 89.6068 30.0703 92.6797 30.0703L95.6875 30.1094L95.9609 28.6641C96.0391 28.1562 96.0391 27.681 95.9609 27.2383C95.7005 25.832 94.7695 25.1094 93.168 25.0703C92.1784 25.0443 91.306 25.2982 90.5508 25.832C89.8086 26.3529 89.3529 27.056 89.1836 27.9414L84.5547 27.9805C84.6458 26.6784 85.1081 25.5391 85.9414 24.5625C86.7747 23.5729 87.8815 22.8047 89.2617 22.2578C90.6419 21.7109 92.1003 21.4505 93.6367 21.4766C95.9414 21.5286 97.7383 22.2253 99.0273 23.5664C100.316 24.8945 100.85 26.6198 100.629 28.7422L99.0078 38.6445L98.8516 40.4023C98.8125 41.1706 98.9102 41.9193 99.1445 42.6484L99.125 43H94.5352ZM89.7695 39.6016C90.7461 39.6276 91.651 39.4062 92.4844 38.9375C93.3177 38.4557 94.0273 37.8372 94.6133 37.082L95.3359 33.0781L93.1289 33.0586C91.3841 33.0586 89.9909 33.3906 88.9492 34.0547C87.9076 34.7057 87.3151 35.6042 87.1719 36.75C87.0677 37.6224 87.2565 38.3125 87.7383 38.8203C88.2331 39.3151 88.9102 39.5755 89.7695 39.6016Z" fill="#323947"/>
<path d="M117.016 26.2031C116.417 26.0729 115.811 26.0078 115.199 26.0078C113.168 25.9557 111.553 26.7956 110.355 28.5273L107.816 43H103.188L106.84 21.8672L111.234 21.8477L110.766 24.25C112.211 22.3359 113.878 21.3984 115.766 21.4375C116.195 21.4375 116.788 21.5352 117.543 21.7305L117.016 26.2031Z" fill="#323947"/>
<path d="M121.938 43H117.309L120.98 21.8672H125.609L121.938 43ZM121.645 16.457C121.645 15.7409 121.879 15.1289 122.348 14.6211C122.816 14.1133 123.448 13.8464 124.242 13.8203C124.997 13.7943 125.622 14.0286 126.117 14.5234C126.625 15.0052 126.879 15.5977 126.879 16.3008C126.879 17.043 126.632 17.6549 126.137 18.1367C125.655 18.6185 125.036 18.8724 124.281 18.8984C123.539 18.9245 122.914 18.7031 122.406 18.2344C121.898 17.7526 121.645 17.1602 121.645 16.457Z" fill="#323947"/>
<path d="M137.504 16.7305L136.605 21.8672H140.219L139.613 25.3828H135.98L133.988 37.2188C133.949 37.5443 133.943 37.8372 133.969 38.0977C134.047 38.944 134.568 39.3867 135.531 39.4258C136.013 39.4258 136.56 39.3672 137.172 39.25L136.859 42.9609C135.896 43.2344 134.926 43.3711 133.949 43.3711C132.335 43.3451 131.124 42.7982 130.316 41.7305C129.522 40.6497 129.21 39.224 129.379 37.4531L131.352 25.3828H127.973L128.598 21.8672H131.957L132.855 16.7305H137.504Z" fill="#323947"/>
<path d="M153.324 40.9102C151.723 42.6159 149.717 43.4427 147.309 43.3906C145.941 43.3646 144.802 43.026 143.891 42.375C142.992 41.724 142.348 40.819 141.957 39.6602C141.579 38.4883 141.469 37.1146 141.625 35.5391L143.91 21.8672H148.539L146.234 35.5977C146.182 36.0794 146.176 36.5482 146.215 37.0039C146.345 38.6185 147.159 39.4583 148.656 39.5234C150.701 39.6016 152.354 38.7812 153.617 37.0625L156.273 21.8672H160.902L157.25 43H152.914L153.324 40.9102Z" fill="#323947"/>
<path d="M174.652 37.1406C174.874 35.8516 174.034 34.9596 172.133 34.4648C170.245 33.957 168.956 33.5534 168.266 33.2539C165.583 32.1081 164.288 30.3633 164.379 28.0195C164.444 26.1185 165.303 24.5495 166.957 23.3125C168.624 22.0625 170.616 21.4505 172.934 21.4766C175.173 21.5026 176.996 22.1341 178.402 23.3711C179.822 24.6081 180.518 26.2292 180.492 28.2344L175.902 28.2148C175.928 27.2383 175.661 26.4766 175.102 25.9297C174.542 25.3698 173.773 25.0768 172.797 25.0508C171.768 25.0508 170.883 25.3047 170.141 25.8125C169.411 26.3203 168.988 26.9844 168.871 27.8047C168.689 28.9896 169.522 29.8164 171.371 30.2852C173.22 30.7409 174.587 31.1641 175.473 31.5547C178.051 32.6875 179.294 34.4583 179.203 36.8672C179.138 38.2083 178.695 39.3802 177.875 40.3828C177.068 41.3724 175.98 42.1341 174.613 42.668C173.246 43.1888 171.794 43.4297 170.258 43.3906C167.953 43.3646 166.039 42.694 164.516 41.3789C163.005 40.0638 162.263 38.3776 162.289 36.3203L166.762 36.3398C166.788 37.4727 167.126 38.332 167.777 38.918C168.428 39.5039 169.32 39.8034 170.453 39.8164C171.599 39.8164 172.549 39.582 173.305 39.1133C174.073 38.6315 174.522 37.974 174.652 37.1406Z" fill="#323947"/>
<path d="M11.934 12.3565L28.3843 7.63944L40.6945 19.5273L36.5545 36.1322L20.1042 40.8493L7.79392 28.9614L11.934 12.3565Z" stroke="url(#paint0_linear)" stroke-width="5"/>
<path d="M151.44 55.272C152.069 55.3894 152.587 55.704 152.992 56.216C153.397 56.728 153.6 57.3147 153.6 57.976C153.6 58.5734 153.451 59.1014 153.152 59.56C152.864 60.008 152.443 60.36 151.888 60.616C151.333 60.872 150.677 61 149.92 61H145.104V49.832H149.712C150.469 49.832 151.12 49.9547 151.664 50.2C152.219 50.4454 152.635 50.7867 152.912 51.224C153.2 51.6614 153.344 52.1574 153.344 52.712C153.344 53.3627 153.168 53.9067 152.816 54.344C152.475 54.7814 152.016 55.0907 151.44 55.272ZM147.344 54.44H149.392C149.925 54.44 150.336 54.3227 150.624 54.088C150.912 53.8427 151.056 53.496 151.056 53.048C151.056 52.6 150.912 52.2534 150.624 52.008C150.336 51.7627 149.925 51.64 149.392 51.64H147.344V54.44ZM149.6 59.176C150.144 59.176 150.565 59.048 150.864 58.792C151.173 58.536 151.328 58.1734 151.328 57.704C151.328 57.224 151.168 56.8507 150.848 56.584C150.528 56.3067 150.096 56.168 149.552 56.168H147.344V59.176H149.6Z" fill="#495369" fill-opacity="0.5"/>
<path d="M163.785 56.376C163.785 56.696 163.764 56.984 163.721 57.24H157.241C157.295 57.88 157.519 58.3814 157.913 58.744C158.308 59.1067 158.793 59.288 159.369 59.288C160.201 59.288 160.793 58.9307 161.145 58.216H163.561C163.305 59.0694 162.815 59.7734 162.089 60.328C161.364 60.872 160.473 61.144 159.417 61.144C158.564 61.144 157.796 60.9574 157.113 60.584C156.441 60.2 155.913 59.6614 155.529 58.968C155.156 58.2747 154.969 57.4747 154.969 56.568C154.969 55.6507 155.156 54.8454 155.529 54.152C155.903 53.4587 156.425 52.9254 157.097 52.552C157.769 52.1787 158.543 51.992 159.417 51.992C160.26 51.992 161.012 52.1734 161.673 52.536C162.345 52.8987 162.863 53.416 163.225 54.088C163.599 54.7494 163.785 55.512 163.785 56.376ZM161.465 55.736C161.455 55.16 161.247 54.7014 160.841 54.36C160.436 54.008 159.94 53.832 159.353 53.832C158.799 53.832 158.329 54.0027 157.945 54.344C157.572 54.6747 157.343 55.1387 157.257 55.736H161.465Z" fill="#495369" fill-opacity="0.5"/>
<path d="M168.188 53.976V58.264C168.188 58.5627 168.258 58.7814 168.396 58.92C168.546 59.048 168.791 59.112 169.132 59.112H170.172V61H168.764C166.876 61 165.932 60.0827 165.932 58.248V53.976H164.876V52.136H165.932V49.944H168.188V52.136H170.172V53.976H168.188Z" fill="#495369" fill-opacity="0.5"/>
<path d="M171.367 56.536C171.367 55.64 171.543 54.8454 171.895 54.152C172.258 53.4587 172.743 52.9254 173.351 52.552C173.97 52.1787 174.658 51.992 175.415 51.992C176.077 51.992 176.653 52.1254 177.143 52.392C177.645 52.6587 178.045 52.9947 178.343 53.4V52.136H180.599V61H178.343V59.704C178.055 60.12 177.655 60.4667 177.143 60.744C176.642 61.0107 176.061 61.144 175.399 61.144C174.653 61.144 173.97 60.952 173.351 60.568C172.743 60.184 172.258 59.6454 171.895 58.952C171.543 58.248 171.367 57.4427 171.367 56.536ZM178.343 56.568C178.343 56.024 178.237 55.56 178.023 55.176C177.81 54.7814 177.522 54.4827 177.159 54.28C176.797 54.0667 176.407 53.96 175.991 53.96C175.575 53.96 175.191 54.0614 174.839 54.264C174.487 54.4667 174.199 54.7654 173.975 55.16C173.762 55.544 173.655 56.0027 173.655 56.536C173.655 57.0694 173.762 57.5387 173.975 57.944C174.199 58.3387 174.487 58.6427 174.839 58.856C175.202 59.0694 175.586 59.176 175.991 59.176C176.407 59.176 176.797 59.0747 177.159 58.872C177.522 58.6587 177.81 58.36 178.023 57.976C178.237 57.5814 178.343 57.112 178.343 56.568Z" fill="#495369" fill-opacity="0.5"/>
<defs>
<linearGradient id="paint0_linear" x1="29.0827" y1="4.83844" x2="19.4058" y2="43.6503" gradientUnits="userSpaceOnUse">
<stop stop-color="#21CE99"/>
<stop offset="1" stop-color="#FF8800"/>
</linearGradient>
</defs>
</svg>
