<svg width="181" height="62" viewBox="0 0 181 62" fill="none" xmlns="http://www.w3.org/2000/svg">
<path d="M69.3203 39.0842C68.8385 42.0529 67.5039 44.4227 65.3164 46.1935C63.1289 47.9513 60.4661 48.8042 57.3281 48.7521C55.5182 48.7131 53.9297 48.2834 52.5625 47.4631C51.2083 46.6427 50.1471 45.4513 49.3789 43.8888C48.6107 42.3133 48.181 40.536 48.0898 38.5568C48.0117 37.0724 48.194 35.0542 48.6367 32.5021C49.0794 29.937 49.9258 27.6388 51.1758 25.6076C52.4388 23.5763 53.9818 22.0464 55.8047 21.0177C57.6406 19.9891 59.6784 19.4943 61.918 19.5334C64.7435 19.5855 66.9766 20.4774 68.6172 22.2092C70.2708 23.9279 71.1497 26.3042 71.2539 29.3381H66.4688C66.4036 27.3068 65.974 25.842 65.1797 24.9435C64.3984 24.0321 63.2331 23.5568 61.6836 23.5177C59.5612 23.4526 57.7839 24.2144 56.3516 25.8029C54.9193 27.3914 53.9557 29.7026 53.4609 32.7365L53.0703 35.3342L52.8945 37.3263C52.7904 38.6675 52.8815 39.9305 53.168 41.1154C53.4674 42.2873 53.9883 43.1857 54.7305 43.8107C55.4727 44.4227 56.4167 44.7482 57.5625 44.7873C61.1953 44.9305 63.526 43.0425 64.5547 39.1232L69.3203 39.0842Z" fill="#323947"/>
<path d="M76.7812 48.3613H72.1523L77.3672 18.3613H81.9961L76.7812 48.3613Z" fill="#323947"/>
<path d="M94.5356 48.3611C94.3793 47.8403 94.3141 47.1827 94.3401 46.3884C92.5954 48.016 90.7138 48.8038 88.6956 48.7517C86.8597 48.7257 85.3362 48.1397 84.1253 46.9939C82.9274 45.8351 82.3675 44.3702 82.4456 42.5994C82.5498 40.3728 83.5133 38.6215 85.3362 37.3455C87.1592 36.0694 89.6072 35.4314 92.6801 35.4314L95.6878 35.4705L95.9612 34.0252C96.0394 33.5173 96.0394 33.0421 95.9612 32.5994C95.7008 31.1931 94.7698 30.4705 93.1683 30.4314C92.1787 30.4054 91.3063 30.6593 90.5511 31.1931C89.8089 31.714 89.3533 32.4171 89.184 33.3025L84.5551 33.3416C84.6462 32.0395 85.1084 30.9002 85.9417 29.9236C86.775 28.934 87.8819 28.1658 89.2621 27.6189C90.6423 27.072 92.1007 26.8116 93.6371 26.8377C95.9418 26.8897 97.7386 27.5864 99.0276 28.9275C100.316 30.2556 100.85 31.9809 100.629 34.1033L99.0081 44.0056L98.8519 45.7634C98.8128 46.5317 98.9105 47.2804 99.1448 48.0095L99.1253 48.3611H94.5356ZM89.7699 44.9627C90.7465 44.9887 91.6513 44.7673 92.4847 44.2986C93.318 43.8168 94.0276 43.1983 94.6136 42.4431L95.3362 38.4392L93.1292 38.4197C91.3844 38.4197 89.9913 38.7517 88.9496 39.4158C87.908 40.0668 87.3154 40.9653 87.1722 42.1111C87.068 42.9835 87.2568 43.6736 87.7386 44.1814C88.2334 44.6762 88.9106 44.9366 89.7699 44.9627Z" fill="#323947"/>
<path d="M117.016 31.5636C116.417 31.4334 115.811 31.3683 115.199 31.3683C113.168 31.3162 111.553 32.1561 110.355 33.8878L107.816 48.3605H103.188L106.84 27.2277L111.234 27.2082L110.766 29.6105C112.211 27.6964 113.878 26.7589 115.766 26.798C116.195 26.798 116.788 26.8957 117.543 27.091L117.016 31.5636Z" fill="#323947"/>
<path d="M121.938 48.3613H117.309L120.98 27.2285H125.609L121.938 48.3613ZM121.645 21.8183C121.645 21.1022 121.879 20.4902 122.348 19.9824C122.816 19.4746 123.448 19.2077 124.242 19.1816C124.997 19.1556 125.622 19.3899 126.117 19.8847C126.625 20.3665 126.879 20.959 126.879 21.6621C126.879 22.4043 126.632 23.0162 126.137 23.498C125.655 23.9798 125.036 24.2337 124.281 24.2597C123.539 24.2858 122.914 24.0644 122.406 23.5957C121.898 23.1139 121.645 22.5215 121.645 21.8183Z" fill="#323947"/>
<path d="M137.504 22.0918L136.605 27.2285H140.219L139.613 30.7441H135.98L133.988 42.5801C133.949 42.9056 133.943 43.1985 133.969 43.459C134.047 44.3053 134.568 44.748 135.531 44.7871C136.013 44.7871 136.56 44.7285 137.172 44.6113L136.859 48.3222C135.896 48.5957 134.926 48.7324 133.949 48.7324C132.335 48.7064 131.124 48.1595 130.316 47.0918C129.522 46.011 129.21 44.5853 129.379 42.8144L131.352 30.7441H127.973L128.598 27.2285H131.957L132.855 22.0918H137.504Z" fill="#323947"/>
<path d="M153.324 46.2715C151.723 47.9772 149.717 48.804 147.309 48.7519C145.941 48.7259 144.802 48.3873 143.891 47.7363C142.992 47.0853 142.348 46.1803 141.957 45.0215C141.579 43.8496 141.469 42.4759 141.625 40.9004L143.91 27.2285H148.539L146.234 40.959C146.182 41.4407 146.176 41.9095 146.215 42.3652C146.345 43.9798 147.159 44.8196 148.656 44.8847C150.701 44.9629 152.354 44.1425 153.617 42.4238L156.273 27.2285H160.902L157.25 48.3613H152.914L153.324 46.2715Z" fill="#323947"/>
<path d="M174.652 42.5027C174.874 41.2137 174.034 40.3217 172.133 39.8269C170.245 39.3191 168.956 38.9155 168.266 38.616C165.583 37.4702 164.288 35.7254 164.379 33.3816C164.444 31.4806 165.303 29.9116 166.957 28.6746C168.624 27.4246 170.616 26.8126 172.934 26.8387C175.173 26.8647 176.996 27.4962 178.402 28.7332C179.822 29.9702 180.518 31.5913 180.492 33.5965L175.902 33.5769C175.928 32.6004 175.661 31.8387 175.102 31.2918C174.542 30.7319 173.773 30.4389 172.797 30.4129C171.768 30.4129 170.883 30.6668 170.141 31.1746C169.411 31.6824 168.988 32.3465 168.871 33.1668C168.689 34.3517 169.522 35.1785 171.371 35.6473C173.22 36.103 174.587 36.5262 175.473 36.9168C178.051 38.0496 179.294 39.8204 179.203 42.2293C179.138 43.5704 178.695 44.7423 177.875 45.7449C177.068 46.7345 175.98 47.4962 174.613 48.0301C173.246 48.5509 171.794 48.7918 170.258 48.7527C167.953 48.7267 166.039 48.0561 164.516 46.741C163.005 45.4259 162.263 43.7397 162.289 41.6824L166.762 41.7019C166.788 42.8348 167.126 43.6941 167.777 44.2801C168.428 44.866 169.32 45.1655 170.453 45.1785C171.599 45.1785 172.549 44.9441 173.305 44.4754C174.073 43.9936 174.522 43.3361 174.652 42.5027Z" fill="#323947"/>
<path d="M11.934 17.7171L28.3843 13L40.6945 24.8879L36.5545 41.4928L20.1042 46.2099L7.79395 34.322L11.934 17.7171Z" stroke="url(#paint0_linear_10824_69527)" stroke-width="5"/>
<defs>
<linearGradient id="paint0_linear_10824_69527" x1="29.0827" y1="10.199" x2="19.4058" y2="49.0109" gradientUnits="userSpaceOnUse">
<stop stop-color="#21CE99"/>
<stop offset="1" stop-color="#FF8800"/>
</linearGradient>
</defs>
</svg>
