<svg width="82" height="23" viewBox="0 0 82 23" fill="none" xmlns="http://www.w3.org/2000/svg">
<path d="M31.3734 15.9123C31.1556 17.254 30.5525 18.325 29.5638 19.1253C28.5752 19.9197 27.3718 20.3052 25.9536 20.2816C25.1356 20.264 24.4177 20.0698 23.7998 19.699C23.1878 19.3283 22.7082 18.7899 22.361 18.0837C22.0138 17.3717 21.8196 16.5684 21.7785 15.674C21.7431 15.0031 21.8255 14.091 22.0256 12.9376C22.2257 11.7783 22.6082 10.7397 23.1731 9.82168C23.7439 8.90367 24.4413 8.21223 25.2651 7.74734C26.0948 7.28245 27.0158 7.05884 28.0279 7.07649C29.3049 7.10003 30.3141 7.50313 31.0556 8.28579C31.8029 9.06256 32.2001 10.1365 32.2472 11.5076H30.0846C30.0552 10.5896 29.861 9.9276 29.502 9.52156C29.149 9.10964 28.6223 8.89485 27.922 8.87719C26.9628 8.84777 26.1596 9.19202 25.5123 9.90995C24.8649 10.6279 24.4295 11.6724 24.2059 13.0435L24.0293 14.2175L23.9499 15.1179C23.9028 15.724 23.944 16.2948 24.0735 16.8303C24.2088 17.3599 24.4442 17.7659 24.7796 18.0484C25.115 18.325 25.5417 18.4721 26.0595 18.4898C27.7013 18.5545 28.7547 17.7012 29.2196 15.9299L31.3734 15.9123Z" fill="white"/>
<path d="M34.7453 20.1051H32.6533L35.0101 6.54688H37.1021L34.7453 20.1051Z" fill="white"/>
<path d="M42.769 20.1051C42.6983 19.8697 42.6689 19.5725 42.6807 19.2136C41.8922 19.9491 41.0418 20.3052 40.1297 20.2816C39.3 20.2699 38.6115 20.005 38.0642 19.4872C37.5228 18.9635 37.2698 18.3014 37.3051 17.5011C37.3522 16.4949 37.7876 15.7034 38.6115 15.1267C39.4353 14.55 40.5416 14.2616 41.9304 14.2616L43.2898 14.2793L43.4133 13.6261C43.4486 13.3966 43.4486 13.1818 43.4133 12.9817C43.2956 12.3462 42.8749 12.0196 42.1511 12.0019C41.7038 11.9902 41.3096 12.1049 40.9683 12.3462C40.6328 12.5816 40.4269 12.8993 40.3504 13.2995L38.2584 13.3172C38.2996 12.7287 38.5085 12.2138 38.8851 11.7724C39.2617 11.3252 39.7619 10.978 40.3857 10.7309C41.0095 10.4837 41.6685 10.366 42.3629 10.3778C43.4045 10.4013 44.2166 10.7161 44.7992 11.3223C45.3817 11.9225 45.623 12.7022 45.523 13.6614L44.7903 18.1367L44.7197 18.9311C44.7021 19.2783 44.7462 19.6167 44.8521 19.9462L44.8433 20.1051H42.769ZM40.6152 18.5692C41.0565 18.581 41.4655 18.4809 41.8421 18.2691C42.2187 18.0513 42.5395 17.7718 42.8043 17.4305L43.1309 15.621L42.1334 15.6122C41.3449 15.6122 40.7152 15.7622 40.2445 16.0623C39.7737 16.3566 39.5059 16.7626 39.4412 17.2805C39.3941 17.6747 39.4794 17.9866 39.6972 18.2161C39.9208 18.4397 40.2268 18.5574 40.6152 18.5692Z" fill="white"/>
<path d="M52.9288 12.5139C52.6581 12.4551 52.3845 12.4256 52.1079 12.4256C51.1899 12.4021 50.4602 12.7817 49.9188 13.5643L48.7713 20.1051H46.6793L48.3299 10.5543L50.316 10.5455L50.1042 11.6312C50.7574 10.7662 51.5106 10.3425 52.3639 10.3601C52.5581 10.3601 52.8258 10.4043 53.1671 10.4925L52.9288 12.5139Z" fill="white"/>
<path d="M55.1532 20.1051H53.0612L54.7207 10.5543H56.8127L55.1532 20.1051ZM55.0208 8.10925C55.0208 7.78559 55.1267 7.50901 55.3386 7.27951C55.5504 7.05001 55.8358 6.92938 56.1948 6.91761C56.5361 6.90584 56.8185 7.01176 57.0422 7.23538C57.2717 7.45311 57.3864 7.72086 57.3864 8.03863C57.3864 8.37406 57.2746 8.65063 57.051 8.86837C56.8333 9.0861 56.5537 9.20085 56.2124 9.21262C55.877 9.22439 55.5945 9.12435 55.365 8.9125C55.1355 8.69477 55.0208 8.42702 55.0208 8.10925Z" fill="white"/>
<path d="M62.1883 8.23282L61.7822 10.5543H63.4152L63.1416 12.1432H61.4998L60.5994 17.4923C60.5818 17.6394 60.5788 17.7718 60.5906 17.8895C60.6259 18.272 60.8613 18.4721 61.2968 18.4898C61.5145 18.4898 61.7616 18.4633 62.0382 18.4103L61.897 20.0874C61.4615 20.211 61.0231 20.2728 60.5818 20.2728C59.8521 20.261 59.3048 20.0139 58.94 19.5313C58.581 19.0429 58.4398 18.3985 58.5163 17.5982L59.4078 12.1432H57.8807L58.1632 10.5543H59.6814L60.0875 8.23282H62.1883Z" fill="white"/>
<path d="M69.3381 19.1606C68.6143 19.9315 67.7081 20.3052 66.6194 20.2816C66.0015 20.2699 65.4866 20.1169 65.0747 19.8226C64.6687 19.5284 64.3774 19.1194 64.2008 18.5957C64.0302 18.0661 63.9801 17.4452 64.0508 16.7332L65.0835 10.5543H67.1755L66.1339 16.7597C66.1104 16.9774 66.1074 17.1892 66.1251 17.3952C66.1839 18.1249 66.5517 18.5045 67.2285 18.5339C68.1524 18.5692 68.8997 18.1985 69.4705 17.4217L70.671 10.5543H72.763L71.1123 20.1051H69.1527L69.3381 19.1606Z" fill="white"/>
<path d="M78.9772 17.457C79.0772 16.8744 78.6976 16.4713 77.8385 16.2477C76.9852 16.0182 76.4026 15.8358 76.0907 15.7004C74.8785 15.1826 74.293 14.394 74.3342 13.3348C74.3636 12.4756 74.752 11.7666 75.4993 11.2075C76.2526 10.6426 77.1529 10.366 78.2004 10.3778C79.2125 10.3895 80.0364 10.6749 80.6719 11.234C81.3134 11.793 81.6282 12.5257 81.6164 13.4319L79.5421 13.4231C79.5538 12.9817 79.4332 12.6375 79.1802 12.3903C78.9271 12.1373 78.5799 12.0049 78.1386 11.9931C77.6737 11.9931 77.2736 12.1079 76.9381 12.3374C76.6086 12.5669 76.4173 12.867 76.3644 13.2377C76.282 13.7732 76.6586 14.1469 77.4942 14.3587C78.3298 14.5647 78.9477 14.7559 79.3479 14.9325C80.513 15.4445 81.075 16.2448 81.0338 17.3334C81.0044 17.9395 80.8043 18.4692 80.4336 18.9223C80.0688 19.3695 79.5774 19.7138 78.9595 19.955C78.3416 20.1904 77.6855 20.2993 76.9911 20.2816C75.9495 20.2699 75.0845 19.9668 74.396 19.3724C73.7133 18.7781 73.3779 18.016 73.3897 17.0863L75.4111 17.0951C75.4228 17.6071 75.5758 17.9954 75.8701 18.2603C76.1643 18.5251 76.5674 18.6604 77.0794 18.6663C77.5972 18.6663 78.0268 18.5604 78.3681 18.3485C78.7153 18.1308 78.9183 17.8336 78.9772 17.457Z" fill="white"/>
<path d="M5.63727 6.4486L12.8057 4.39309L18.17 9.57337L16.3659 16.8092L9.19751 18.8647L3.83318 13.6844L5.63727 6.4486Z" stroke="white" stroke-width="2.73925"/>
</svg>
