<svg width="156" height="41" viewBox="0 0 156 41" fill="none" xmlns="http://www.w3.org/2000/svg">
<path d="M20.452 3.8185L31.131 15.8609L27.2244 32.3088L12.6387 36.7142L1.95973 24.6718L5.86638 8.22393L20.452 3.8185ZM19.7003 6.98335L7.92061 10.5416L4.76632 23.8219L13.3908 33.548L25.1693 29.9893L28.3236 16.7091L19.7003 6.98335Z" fill="white"/>
<path d="M44.7369 13.8267C42.969 13.8267 41.5795 14.4636 40.5682 15.7374C39.5569 17.0112 39.0513 18.7526 39.0513 20.9616C39.0513 23.2432 39.5419 25.0047 40.5232 26.2462C41.5046 27.4797 42.9016 28.0965 44.7144 28.0965C45.883 28.0965 47.1977 27.8627 48.6584 27.3951V29.33C47.9618 29.6041 47.2913 29.7895 46.6471 29.8862C46.0029 29.9911 45.2613 30.0435 44.4223 30.0435C42.0027 30.0435 40.1375 29.2534 38.8265 27.6732C37.5231 26.085 36.8714 23.8397 36.8714 20.9374C36.8714 19.1154 37.1823 17.5191 37.804 16.1486C38.4333 14.778 39.3434 13.7219 40.5345 12.9802C41.733 12.2385 43.1413 11.8677 44.7594 11.8677C46.4973 11.8677 48.0104 12.2143 49.2989 12.9077L48.4674 14.7942C47.1565 14.1492 45.913 13.8267 44.7369 13.8267Z" fill="white"/>
<path d="M53.9845 29.8016H51.9619V10.9849H53.9845V29.8016Z" fill="white"/>
<path d="M63.1422 30.0435C61.2919 30.0435 59.8387 29.4428 58.7824 28.2416C57.7337 27.0323 57.2093 25.3715 57.2093 23.2593C57.2093 21.1309 57.7 19.4379 58.6813 18.1802C59.6626 16.9145 60.9885 16.2816 62.659 16.2816C64.2096 16.2816 65.4456 16.8218 66.367 17.9021C67.2884 18.9743 67.7491 20.4295 67.7491 22.2676V23.5858H59.2993C59.3368 25.0934 59.6926 26.2382 60.3668 27.0202C61.041 27.8022 61.996 28.1932 63.2321 28.1932C63.8913 28.1932 64.5168 28.1328 65.1085 28.0118C65.7003 27.8828 66.3932 27.6369 67.1873 27.2742V29.1849C66.5056 29.4993 65.8651 29.721 65.2659 29.85C64.6666 29.979 63.9587 30.0435 63.1422 30.0435ZM62.6365 18.0593C61.6702 18.0593 60.9061 18.3939 60.3443 19.063C59.7825 19.7321 59.4491 20.6633 59.3443 21.8565H65.6254C65.6104 20.6149 65.3445 19.6717 64.8276 19.0267C64.3108 18.3818 63.5804 18.0593 62.6365 18.0593Z" fill="white"/>
<path d="M78.5024 29.8016L78.1091 27.9151H78.0192C77.4049 28.7455 76.7907 29.3098 76.1764 29.6081C75.5697 29.8983 74.8018 30.0435 73.873 30.0435C72.6594 30.0435 71.7081 29.7008 71.0189 29.0156C70.3297 28.3303 69.9851 27.3628 69.9851 26.1132C69.9851 23.4205 71.959 22.0097 75.9067 21.8807L77.9967 21.796V21.01C77.9967 20.0022 77.7945 19.2605 77.39 18.7849C76.9854 18.3011 76.3375 18.0593 75.4461 18.0593C74.7943 18.0593 74.1763 18.1641 73.592 18.3737C73.0152 18.5833 72.4721 18.8171 71.9628 19.0751L71.3448 17.4425C71.9665 17.0878 72.6444 16.8097 73.3786 16.6081C74.1127 16.4066 74.8393 16.3058 75.5584 16.3058C77.0491 16.3058 78.1578 16.6605 78.8844 17.37C79.611 18.0794 79.9743 19.2081 79.9743 20.756V29.8016H78.5024ZM74.3336 28.29C75.4648 28.29 76.3525 27.9635 76.9967 27.3104C77.6484 26.6494 77.9743 25.7142 77.9743 24.5049V23.3076L76.1539 23.3923C74.7382 23.4487 73.7044 23.6906 73.0527 24.1179C72.4085 24.5452 72.0864 25.2183 72.0864 26.1374C72.0864 26.8307 72.2811 27.3628 72.6707 27.7337C73.0677 28.1045 73.622 28.29 74.3336 28.29Z" fill="white"/>
<path d="M89.559 16.2816C90.1058 16.2816 90.589 16.33 91.0085 16.4267L90.7613 18.4342C90.3044 18.3213 89.8586 18.2649 89.4242 18.2649C88.7725 18.2649 88.1657 18.4583 87.6039 18.8453C87.0495 19.2323 86.6151 19.7684 86.3004 20.4537C85.9858 21.1309 85.8285 21.8847 85.8285 22.7151V29.8016H83.806V16.5235H85.4689L85.6937 18.9542H85.7836C86.2555 18.0754 86.8136 17.4103 87.4578 16.9588C88.102 16.5073 88.8024 16.2816 89.559 16.2816Z" fill="white"/>
<path d="M97.5144 12.1216H99.683L103.38 23.4649C103.852 24.8999 104.196 26.1858 104.414 27.3225C104.601 26.3067 104.949 25.0047 105.459 23.4165L109.133 12.1216H111.324L105.459 29.8016H103.38L97.5144 12.1216Z" fill="white"/>
<path d="M120.684 29.8016L120.291 27.9151H120.201C119.586 28.7455 118.972 29.3098 118.358 29.6081C117.751 29.8983 116.983 30.0435 116.055 30.0435C114.841 30.0435 113.89 29.7008 113.2 29.0156C112.511 28.3303 112.167 27.3628 112.167 26.1132C112.167 23.4205 114.141 22.0097 118.088 21.8807L120.178 21.796V21.01C120.178 20.0022 119.976 19.2605 119.572 18.7849C119.167 18.3011 118.519 18.0593 117.628 18.0593C116.976 18.0593 116.358 18.1641 115.774 18.3737C115.197 18.5833 114.654 18.8171 114.144 19.0751L113.526 17.4425C114.148 17.0878 114.826 16.8097 115.56 16.6081C116.294 16.4066 117.021 16.3058 117.74 16.3058C119.231 16.3058 120.339 16.6605 121.066 17.37C121.793 18.0794 122.156 19.2081 122.156 20.756V29.8016H120.684ZM116.515 28.29C117.646 28.29 118.534 27.9635 119.178 27.3104C119.83 26.6494 120.156 25.7142 120.156 24.5049V23.3076L118.335 23.3923C116.92 23.4487 115.886 23.6906 115.234 24.1179C114.59 24.5452 114.268 25.2183 114.268 26.1374C114.268 26.8307 114.463 27.3628 114.852 27.7337C115.249 28.1045 115.804 28.29 116.515 28.29Z" fill="white"/>
<path d="M128.01 29.8016H125.988V10.9849H128.01V29.8016Z" fill="white"/>
<path d="M133.831 16.5235V25.0732C133.831 26.1455 134.052 26.9436 134.493 27.4676C134.943 27.9836 135.636 28.2416 136.572 28.2416C137.838 28.2416 138.76 27.8627 139.336 27.1049C139.913 26.347 140.202 25.1256 140.202 23.4407V16.5235H142.235V29.8016H140.572L140.28 28.0481H140.179C139.812 28.685 139.291 29.1768 138.617 29.5235C137.943 29.8701 137.16 30.0435 136.269 30.0435C134.786 30.0435 133.666 29.6605 132.909 28.8946C132.16 28.1287 131.785 26.9033 131.785 25.2183V16.5235H133.831Z" fill="white"/>
<path d="M151.393 30.0435C149.543 30.0435 148.09 29.4428 147.033 28.2416C145.985 27.0323 145.46 25.3715 145.46 23.2593C145.46 21.1309 145.951 19.4379 146.932 18.1802C147.914 16.9145 149.239 16.2816 150.91 16.2816C152.461 16.2816 153.697 16.8218 154.618 17.9021C155.539 18.9743 156 20.4295 156 22.2676V23.5858H147.55C147.588 25.0934 147.943 26.2382 148.618 27.0202C149.292 27.8022 150.247 28.1932 151.483 28.1932C152.142 28.1932 152.768 28.1328 153.359 28.0118C153.951 27.8828 154.644 27.6369 155.438 27.2742V29.1849C154.757 29.4993 154.116 29.721 153.517 29.85C152.917 29.979 152.21 30.0435 151.393 30.0435ZM150.887 18.0593C149.921 18.0593 149.157 18.3939 148.595 19.063C148.033 19.7321 147.7 20.6633 147.595 21.8565H153.876C153.861 20.6149 153.595 19.6717 153.079 19.0267C152.562 18.3818 151.831 18.0593 150.887 18.0593Z" fill="white"/>
</svg>
