<svg width="108" height="24" viewBox="0 0 108 24" fill="none" xmlns="http://www.w3.org/2000/svg">
<path d="M39.7283 15.3093C39.4324 17.1205 38.6128 18.5663 37.2694 19.6466C35.9261 20.7191 34.2909 21.2394 32.3638 21.2076C31.2523 21.1838 30.2768 20.9216 29.4372 20.4212C28.6056 19.9207 27.9539 19.1938 27.4821 18.2406C27.0103 17.2794 26.7465 16.195 26.6905 14.9875C26.6425 14.0819 26.7545 12.8506 27.0263 11.2936C27.2982 9.72866 27.8179 8.32655 28.5856 7.0873C29.3612 5.84805 30.3088 4.91464 31.4282 4.28707C32.5557 3.65949 33.8071 3.35763 35.1824 3.38146C36.9176 3.41323 38.289 3.95739 39.2965 5.01393C40.312 6.06253 40.8517 7.5123 40.9157 9.36323H37.9771C37.9371 8.12398 37.6732 7.23029 37.1855 6.68216C36.7057 6.12608 35.99 5.83613 35.0385 5.8123C33.7351 5.77258 32.6436 6.2373 31.7641 7.20646C30.8845 8.17562 30.2928 9.58566 29.9889 11.4366L29.749 13.0214L29.6411 14.2368C29.5771 15.0551 29.6331 15.8256 29.809 16.5485C29.9929 17.2635 30.3128 17.8116 30.7685 18.1929C31.2243 18.5663 31.804 18.7649 32.5077 18.7887C34.7386 18.8761 36.17 17.7242 36.8017 15.3331L39.7283 15.3093Z" fill="white"/>
<path d="M44.3101 20.9693H41.4674L44.6699 2.6665H47.5126L44.3101 20.9693Z" fill="white"/>
<path d="M55.2129 20.9693C55.1169 20.6516 55.077 20.2504 55.0929 19.7658C54.0215 20.7588 52.866 21.2394 51.6266 21.2076C50.4991 21.1917 49.5636 20.8343 48.8199 20.1352C48.0843 19.4282 47.7404 18.5345 47.7884 17.4541C47.8524 16.0957 48.4441 15.0273 49.5636 14.2487C50.683 13.4702 52.1863 13.081 54.0734 13.081L55.9205 13.1048L56.0885 12.223C56.1364 11.9132 56.1364 11.6233 56.0885 11.3532C55.9285 10.4952 55.3568 10.0544 54.3733 10.0305C53.7656 10.0146 53.2298 10.1695 52.7661 10.4952C52.3103 10.813 52.0304 11.242 51.9265 11.7822L49.0838 11.806C49.1398 11.0116 49.4236 10.3165 49.9354 9.72071C50.4472 9.11697 51.1268 8.64828 51.9744 8.31464C52.822 7.98099 53.7176 7.82211 54.6611 7.838C56.0765 7.86978 57.1799 8.29478 57.9716 9.113C58.7632 9.92328 59.091 10.9759 58.9551 12.2707L57.9596 18.3121L57.8636 19.3845C57.8396 19.8532 57.8996 20.31 58.0435 20.7548L58.0315 20.9693H55.2129ZM52.2863 18.8959C52.886 18.9118 53.4417 18.7768 53.9535 18.4908C54.4652 18.1969 54.901 17.8195 55.2609 17.3588L55.7046 14.916L54.3493 14.9041C53.2778 14.9041 52.4222 15.1067 51.7825 15.5118C51.1428 15.909 50.779 16.4572 50.691 17.1562C50.6271 17.6885 50.743 18.1095 51.0389 18.4193C51.3427 18.7212 51.7585 18.8801 52.2863 18.8959Z" fill="white"/>
<path d="M69.0183 10.7216C68.6505 10.6422 68.2787 10.6025 67.9028 10.6025C66.6554 10.5707 65.6639 11.0831 64.9282 12.1396L63.369 20.9693H60.5264L62.7693 8.07632L65.468 8.0644L65.1801 9.53006C66.0677 8.3623 67.0912 7.79034 68.2507 7.81417C68.5145 7.81417 68.8784 7.87375 69.3421 7.99291L69.0183 10.7216Z" fill="white"/>
<path d="M72.0409 20.9693H69.1982L71.4531 8.07632H74.2958L72.0409 20.9693ZM71.861 4.77562C71.861 4.3387 72.0049 3.96534 72.2927 3.65552C72.5806 3.34571 72.9684 3.18286 73.4562 3.16697C73.92 3.15108 74.3038 3.29407 74.6076 3.59594C74.9195 3.88987 75.0754 4.25132 75.0754 4.68029C75.0754 5.13309 74.9235 5.50646 74.6196 5.80038C74.3238 6.09431 73.944 6.24922 73.4802 6.2651C73.0244 6.28099 72.6406 6.14594 72.3287 5.85996C72.0169 5.56604 71.861 5.20459 71.861 4.77562Z" fill="white"/>
<path d="M81.6003 4.94244L81.0486 8.07632H83.2675L82.8957 10.2212H80.6647L79.4413 17.4422C79.4173 17.6408 79.4133 17.8195 79.4293 17.9784C79.4773 18.4948 79.7972 18.7649 80.3889 18.7887C80.6847 18.7887 81.0206 18.753 81.3964 18.6815L81.2045 20.9455C80.6128 21.1123 80.0171 21.1957 79.4173 21.1957C78.4258 21.1798 77.6822 20.8462 77.1864 20.1948C76.6986 19.5354 76.5067 18.6656 76.6107 17.5852L77.8221 10.2212H75.7471L76.1309 8.07632H78.1939L78.7457 4.94244H81.6003Z" fill="white"/>
<path d="M91.3157 19.6943C90.3321 20.735 89.1007 21.2394 87.6214 21.2076C86.7818 21.1917 86.0822 20.9852 85.5224 20.588C84.9707 20.1908 84.5749 19.6387 84.335 18.9317C84.1031 18.2167 84.0351 17.3787 84.1311 16.4174L85.5344 8.07632H88.3771L86.9618 16.4532C86.9298 16.7471 86.9258 17.0331 86.9498 17.3111C87.0297 18.2962 87.5295 18.8086 88.449 18.8483C89.7044 18.8959 90.72 18.3955 91.4956 17.3469L93.1268 8.07632H95.9695L93.7265 20.9693H91.0638L91.3157 19.6943Z" fill="white"/>
<path d="M104.413 17.3945C104.549 16.6081 104.034 16.0639 102.866 15.7621C101.707 15.4523 100.915 15.206 100.491 15.0233C98.8441 14.3242 98.0485 13.2597 98.1044 11.8298C98.1444 10.67 98.6722 9.71277 99.6877 8.9581C100.711 8.19548 101.935 7.82211 103.358 7.838C104.733 7.85389 105.853 8.23917 106.716 8.99384C107.588 9.74852 108.016 10.7375 108 11.9609L105.181 11.949C105.197 11.3532 105.033 10.8885 104.689 10.5548C104.345 10.2132 103.874 10.0345 103.274 10.0186C102.642 10.0186 102.099 10.1735 101.643 10.4833C101.195 10.7931 100.935 11.1983 100.863 11.6988C100.751 12.4216 101.263 12.9261 102.398 13.2121C103.534 13.4901 104.373 13.7483 104.917 13.9866C106.5 14.6777 107.264 15.7581 107.208 17.2277C107.168 18.0459 106.896 18.7609 106.392 19.3726C105.897 19.9763 105.229 20.441 104.389 20.7667C103.55 21.0845 102.658 21.2315 101.715 21.2076C100.299 21.1917 99.1239 20.7826 98.1884 19.9803C97.2608 19.178 96.8051 18.1492 96.821 16.8941L99.5677 16.906C99.5837 17.5971 99.7916 18.1214 100.191 18.4789C100.591 18.8364 101.139 19.0191 101.835 19.027C102.538 19.027 103.122 18.884 103.586 18.5981C104.058 18.3041 104.333 17.903 104.413 17.3945Z" fill="white"/>
<path fill-rule="evenodd" clip-rule="evenodd" d="M13.9724 4.29425L6.28075 6.48538L4.36497 14.1189L10.1209 19.641L17.8125 17.4499L19.7283 9.81632L13.9724 4.29425ZM23.853 8.60433L15.018 0.128198L3.2116 3.49149L0.240283 15.3309L9.07532 23.8071L20.8817 20.4438L23.853 8.60433Z" fill="url(#paint0_linear_4252_111658)"/>
<defs>
<linearGradient id="paint0_linear_4252_111658" x1="15.018" y1="0.128198" x2="9.14828" y2="23.8251" gradientUnits="userSpaceOnUse">
<stop stop-color="#21CE99"/>
<stop offset="1" stop-color="#FF8800"/>
</linearGradient>
</defs>
</svg>
