<svg width="90" height="36" viewBox="0 0 90 36" fill="none" xmlns="http://www.w3.org/2000/svg">
    <path opacity="0.7" d="M70.65 27.42C71.0433 27.4933 71.3667 27.69 71.62 28.01C71.8733 28.33 72 28.6967 72 29.11C72 29.4833 71.9067 29.8133 71.72 30.1C71.54 30.38 71.2767 30.6 70.93 30.76C70.5833 30.92 70.1733 31 69.7 31H66.69V24.02H69.57C70.0433 24.02 70.45 24.0967 70.79 24.25C71.1367 24.4033 71.3967 24.6167 71.57 24.89C71.75 25.1633 71.84 25.4733 71.84 25.82C71.84 26.2267 71.73 26.5667 71.51 26.84C71.2967 27.1133 71.01 27.3067 70.65 27.42ZM68.09 26.9H69.37C69.7033 26.9 69.96 26.8267 70.14 26.68C70.32 26.5267 70.41 26.31 70.41 26.03C70.41 25.75 70.32 25.5333 70.14 25.38C69.96 25.2267 69.7033 25.15 69.37 25.15H68.09V26.9ZM69.5 29.86C69.84 29.86 70.1033 29.78 70.29 29.62C70.4833 29.46 70.58 29.2333 70.58 28.94C70.58 28.64 70.48 28.4067 70.28 28.24C70.08 28.0667 69.81 27.98 69.47 27.98H68.09V29.86H69.5ZM78.3658 28.11C78.3658 28.31 78.3524 28.49 78.3258 28.65H74.2758C74.3091 29.05 74.4491 29.3633 74.6958 29.59C74.9424 29.8167 75.2458 29.93 75.6058 29.93C76.1258 29.93 76.4958 29.7067 76.7158 29.26H78.2258C78.0658 29.7933 77.7591 30.2333 77.3058 30.58C76.8524 30.92 76.2958 31.09 75.6358 31.09C75.1024 31.09 74.6224 30.9733 74.1958 30.74C73.7758 30.5 73.4458 30.1633 73.2058 29.73C72.9724 29.2967 72.8558 28.7967 72.8558 28.23C72.8558 27.6567 72.9724 27.1533 73.2058 26.72C73.4391 26.2867 73.7658 25.9533 74.1858 25.72C74.6058 25.4867 75.0891 25.37 75.6358 25.37C76.1624 25.37 76.6324 25.4833 77.0458 25.71C77.4658 25.9367 77.7891 26.26 78.0158 26.68C78.2491 27.0933 78.3658 27.57 78.3658 28.11ZM76.9158 27.71C76.9091 27.35 76.7791 27.0633 76.5258 26.85C76.2724 26.63 75.9624 26.52 75.5958 26.52C75.2491 26.52 74.9558 26.6267 74.7158 26.84C74.4824 27.0467 74.3391 27.3367 74.2858 27.71H76.9158ZM81.1177 26.61V29.29C81.1177 29.4767 81.161 29.6133 81.2477 29.7C81.341 29.78 81.4943 29.82 81.7077 29.82H82.3577V31H81.4777C80.2977 31 79.7077 30.4267 79.7077 29.28V26.61H79.0477V25.46H79.7077V24.09H81.1177V25.46H82.3577V26.61H81.1177ZM83.1046 28.21C83.1046 27.65 83.2146 27.1533 83.4346 26.72C83.6613 26.2867 83.9646 25.9533 84.3446 25.72C84.7313 25.4867 85.1613 25.37 85.6346 25.37C86.0479 25.37 86.4079 25.4533 86.7146 25.62C87.0279 25.7867 87.2779 25.9967 87.4646 26.25V25.46H88.8746V31H87.4646V30.19C87.2846 30.45 87.0346 30.6667 86.7146 30.84C86.4013 31.0067 86.0379 31.09 85.6246 31.09C85.1579 31.09 84.7313 30.97 84.3446 30.73C83.9646 30.49 83.6613 30.1533 83.4346 29.72C83.2146 29.28 83.1046 28.7767 83.1046 28.21ZM87.4646 28.23C87.4646 27.89 87.3979 27.6 87.2646 27.36C87.1313 27.1133 86.9513 26.9267 86.7246 26.8C86.4979 26.6667 86.2546 26.6 85.9946 26.6C85.7346 26.6 85.4946 26.6633 85.2746 26.79C85.0546 26.9167 84.8746 27.1033 84.7346 27.35C84.6013 27.59 84.5346 27.8767 84.5346 28.21C84.5346 28.5433 84.6013 28.8367 84.7346 29.09C84.8746 29.3367 85.0546 29.5267 85.2746 29.66C85.5013 29.7933 85.7413 29.86 85.9946 29.86C86.2546 29.86 86.4979 29.7967 86.7246 29.67C86.9513 29.5367 87.1313 29.35 87.2646 29.11C87.3979 28.8633 87.4646 28.57 87.4646 28.23Z" fill="white"/>
    <path d="M34.3099 16.6915C34.0715 18.1609 33.4109 19.3338 32.3281 20.2103C31.2454 21.0804 29.9275 21.5025 28.3743 21.4767C27.4784 21.4574 26.6922 21.2447 26.0155 20.8387C25.3452 20.4327 24.8199 19.843 24.4397 19.0696C24.0595 18.2898 23.8468 17.4101 23.8017 16.4305C23.763 15.6957 23.8532 14.6968 24.0724 13.4336C24.2915 12.164 24.7104 11.0265 25.3291 10.0211C25.9542 9.01571 26.7179 8.25845 27.6202 7.74931C28.5289 7.24017 29.5375 6.99527 30.646 7.0146C32.0446 7.04038 33.1499 7.48185 33.9619 8.33901C34.7804 9.18972 35.2154 10.3659 35.267 11.8675H32.8985C32.8663 10.8621 32.6536 10.1371 32.2605 9.69242C31.8738 9.24128 31.297 9.00605 30.53 8.98671C29.4795 8.95449 28.5998 9.33151 27.8909 10.1178C27.182 10.904 26.7051 12.048 26.4601 13.5496L26.2668 14.8354L26.1798 15.8214C26.1282 16.4852 26.1734 17.1104 26.3151 17.6969C26.4634 18.2769 26.7212 18.7216 27.0885 19.0309C27.4559 19.3338 27.9231 19.495 28.4903 19.5143C30.2884 19.5852 31.442 18.6507 31.9511 16.7108L34.3099 16.6915Z" fill="white"/>
    <path d="M38.0028 21.2834H35.7117L38.2928 6.43457H40.5839L38.0028 21.2834Z" fill="white"/>
    <path d="M46.7903 21.2834C46.7129 21.0256 46.6807 20.7001 46.6936 20.307C45.83 21.1126 44.8987 21.5025 43.8998 21.4767C42.9911 21.4638 42.237 21.1738 41.6377 20.6067C41.0447 20.0331 40.7676 19.3081 40.8063 18.4316C40.8578 17.3295 41.3347 16.4627 42.237 15.8311C43.1393 15.1995 44.3509 14.8837 45.8719 14.8837L47.3606 14.903L47.496 14.1877C47.5346 13.9363 47.5346 13.7011 47.496 13.482C47.3671 12.7859 46.9063 12.4282 46.1136 12.4089C45.6238 12.396 45.192 12.5217 44.8182 12.7859C44.4508 13.0437 44.2252 13.3917 44.1415 13.83L41.8503 13.8493C41.8954 13.2048 42.1242 12.6409 42.5367 12.1576C42.9492 11.6677 43.497 11.2875 44.1801 11.0168C44.8633 10.7461 45.5851 10.6172 46.3456 10.6301C47.4863 10.6559 48.3757 11.0007 49.0137 11.6645C49.6518 12.3219 49.916 13.1758 49.8064 14.2263L49.0041 19.1276L48.9267 19.9976C48.9074 20.3779 48.9557 20.7485 49.0717 21.1094L49.0621 21.2834H46.7903ZM44.4315 19.6013C44.9148 19.6142 45.3627 19.5046 45.7752 19.2726C46.1877 19.0342 46.5389 18.728 46.8289 18.3542L47.1866 16.3724L46.0942 16.3628C45.2306 16.3628 44.541 16.5271 44.0254 16.8558C43.5099 17.1781 43.2166 17.6227 43.1457 18.1899C43.0942 18.6217 43.1876 18.9633 43.4261 19.2146C43.671 19.4595 44.0061 19.5884 44.4315 19.6013Z" fill="white"/>
    <path d="M57.9172 12.9696C57.6208 12.9051 57.3211 12.8729 57.0182 12.8729C56.0128 12.8471 55.2136 13.2628 54.6207 14.12L53.364 21.2834H51.0728L52.8806 10.8235L55.0557 10.8138L54.8237 12.0029C55.5391 11.0555 56.364 10.5915 57.2985 10.6108C57.5112 10.6108 57.8044 10.6591 58.1782 10.7558L57.9172 12.9696Z" fill="white"/>
    <path d="M60.3534 21.2834H58.0622L59.8797 10.8235H62.1708L60.3534 21.2834ZM60.2083 8.14566C60.2083 7.7912 60.3243 7.48829 60.5564 7.23695C60.7884 6.9856 61.1009 6.85348 61.4941 6.84059C61.8679 6.8277 62.1772 6.94371 62.4221 7.18861C62.6735 7.42707 62.7992 7.72031 62.7992 8.06833C62.7992 8.43568 62.6767 8.73859 62.4318 8.97704C62.1933 9.2155 61.8872 9.34117 61.5134 9.35406C61.1461 9.36695 60.8367 9.25739 60.5854 9.02538C60.334 8.78692 60.2083 8.49368 60.2083 8.14566Z" fill="white"/>
    <path d="M68.0581 8.28101L67.6134 10.8235H69.4018L69.1022 12.5636H67.3041L66.318 18.4219C66.2987 18.583 66.2955 18.728 66.3083 18.8569C66.347 19.2758 66.6048 19.495 67.0817 19.5143C67.3202 19.5143 67.5909 19.4853 67.8938 19.4273L67.7391 21.2641C67.2622 21.3994 66.782 21.4671 66.2987 21.4671C65.4995 21.4542 64.9002 21.1835 64.5006 20.655C64.1074 20.1201 63.9528 19.4144 64.0366 18.5379L65.0129 12.5636H63.3405L63.6499 10.8235H65.3126L65.7573 8.28101H68.0581Z" fill="white"/>
    <path d="M75.8885 20.249C75.0958 21.0933 74.1033 21.5025 72.911 21.4767C72.2343 21.4638 71.6704 21.2963 71.2193 20.974C70.7746 20.6518 70.4556 20.2039 70.2622 19.6303C70.0753 19.0503 70.0205 18.3703 70.0979 17.5905L71.229 10.8235H73.5201L72.3793 17.6195C72.3536 17.858 72.3503 18.09 72.3697 18.3156C72.4341 19.1147 72.8369 19.5304 73.5781 19.5626C74.5899 19.6013 75.4084 19.1953 76.0335 18.3446L77.3483 10.8235H79.6394L77.8316 21.2834H75.6855L75.8885 20.249Z" fill="white"/>
    <path d="M86.4451 18.3832C86.5547 17.7452 86.139 17.3037 85.1981 17.0588C84.2636 16.8075 83.6255 16.6077 83.2839 16.4595C81.9563 15.8923 81.3151 15.0287 81.3602 13.8686C81.3924 12.9277 81.8178 12.1511 82.6362 11.5389C83.4612 10.9202 84.4472 10.6172 85.5944 10.6301C86.7029 10.643 87.6052 10.9556 88.3012 11.5679C89.0037 12.1801 89.3485 12.9825 89.3356 13.975L87.0638 13.9653C87.0767 13.482 86.9446 13.1049 86.6675 12.8343C86.3903 12.5571 86.0101 12.4121 85.5267 12.3992C85.0176 12.3992 84.5794 12.5249 84.212 12.7763C83.8511 13.0276 83.6416 13.3563 83.5836 13.7623C83.4934 14.3488 83.9059 14.758 84.821 14.99C85.7362 15.2156 86.4129 15.4251 86.8511 15.6184C88.1272 16.1791 88.7427 17.0556 88.6976 18.2479C88.6654 18.9117 88.4462 19.4917 88.0402 19.988C87.6406 20.4778 87.1025 20.8548 86.4258 21.119C85.7491 21.3768 85.0305 21.4961 84.27 21.4767C83.1293 21.4638 82.1819 21.1319 81.4278 20.481C80.6802 19.8301 80.3129 18.9955 80.3258 17.9772L82.5396 17.9869C82.5525 18.5476 82.72 18.9729 83.0423 19.2629C83.3645 19.553 83.806 19.7012 84.3667 19.7076C84.9338 19.7076 85.4043 19.5916 85.7781 19.3596C86.1583 19.1212 86.3807 18.7957 86.4451 18.3832Z" fill="white"/>
    <path d="M6.12443 6.32661L13.9752 4.07544L19.8502 9.74883L17.8744 17.6734L10.0236 19.9246L4.14861 14.2512L6.12443 6.32661Z" stroke="white" stroke-width="3"/>
</svg>
