<svg width="90" height="36" viewBox="0 0 90 36" fill="none" xmlns="http://www.w3.org/2000/svg">
<path d="M34.3099 21.6155C34.0715 23.0849 33.4109 24.2578 32.3281 25.1343C31.2454 26.0044 29.9275 26.4265 28.3743 26.4007C27.4784 26.3814 26.6922 26.1687 26.0155 25.7627C25.3452 25.3567 24.8199 24.767 24.4397 23.9936C24.0595 23.2138 23.8468 22.3341 23.8017 21.3545C23.763 20.6197 23.8532 19.6208 24.0724 18.3576C24.2915 17.088 24.7104 15.9505 25.3291 14.9451C25.9542 13.9397 26.7179 13.1824 27.6202 12.6733C28.5289 12.1641 29.5375 11.9192 30.646 11.9386C32.0446 11.9643 33.1499 12.4058 33.9619 13.263C34.7804 14.1137 35.2154 15.2899 35.267 16.7915H32.8985C32.8663 15.7861 32.6536 15.0611 32.2605 14.6164C31.8738 14.1652 31.297 13.93 30.53 13.9107C29.4795 13.8785 28.5998 14.2555 27.8909 15.0418C27.182 15.828 26.7051 16.972 26.4601 18.4736L26.2668 19.7594L26.1798 20.7454C26.1282 21.4092 26.1734 22.0344 26.3151 22.6209C26.4634 23.2009 26.7212 23.6456 27.0885 23.9549C27.4559 24.2578 27.9231 24.419 28.4903 24.4383C30.2884 24.5092 31.442 23.5747 31.9511 21.6348L34.3099 21.6155Z" fill="white"/>
<path d="M38.003 26.2063H35.7119L38.293 11.3574H40.5841L38.003 26.2063Z" fill="white"/>
<path d="M46.7903 26.2069C46.7129 25.9491 46.6807 25.6236 46.6936 25.2305C45.83 26.0361 44.8987 26.426 43.8998 26.4002C42.9911 26.3873 42.237 26.0973 41.6377 25.5302C41.0447 24.9566 40.7676 24.2316 40.8063 23.3551C40.8578 22.253 41.3347 21.3862 42.237 20.7546C43.1393 20.123 44.3509 19.8072 45.8719 19.8072L47.3606 19.8265L47.496 19.1112C47.5346 18.8598 47.5346 18.6246 47.496 18.4055C47.3671 17.7094 46.9063 17.3517 46.1136 17.3324C45.6238 17.3195 45.192 17.4452 44.8182 17.7094C44.4508 17.9672 44.2252 18.3152 44.1415 18.7535L41.8503 18.7728C41.8954 18.1283 42.1242 17.5644 42.5367 17.0811C42.9492 16.5912 43.497 16.211 44.1801 15.9403C44.8633 15.6696 45.5851 15.5407 46.3456 15.5536C47.4863 15.5794 48.3757 15.9242 49.0137 16.588C49.6518 17.2454 49.916 18.0993 49.8064 19.1498L49.0041 24.0511L48.9267 24.9211C48.9074 25.3014 48.9557 25.672 49.0717 26.0329L49.0621 26.2069H46.7903ZM44.4315 24.5248C44.9148 24.5377 45.3627 24.4281 45.7752 24.1961C46.1877 23.9577 46.5389 23.6515 46.8289 23.2777L47.1866 21.2959L46.0942 21.2863C45.2306 21.2863 44.541 21.4506 44.0254 21.7793C43.5099 22.1016 43.2166 22.5462 43.1457 23.1134C43.0942 23.5452 43.1876 23.8868 43.4261 24.1381C43.671 24.383 44.0061 24.5119 44.4315 24.5248Z" fill="white"/>
<path d="M57.9176 17.8926C57.6212 17.8281 57.3215 17.7959 57.0186 17.7959C56.0132 17.7701 55.214 18.1858 54.6211 19.043L53.3644 26.2064H51.0732L52.881 15.7465L55.0561 15.7368L54.8241 16.9259C55.5395 15.9785 56.3644 15.5145 57.2989 15.5338C57.5116 15.5338 57.8048 15.5821 58.1786 15.6788L57.9176 17.8926Z" fill="white"/>
<path d="M60.3537 26.2074H58.0625L59.88 15.7475H62.1711L60.3537 26.2074ZM60.2086 13.0697C60.2086 12.7152 60.3246 12.4123 60.5567 12.161C60.7887 11.9096 61.1012 11.7775 61.4944 11.7646C61.8682 11.7517 62.1775 11.8678 62.4224 12.1127C62.6738 12.3511 62.7995 12.6444 62.7995 12.9924C62.7995 13.3597 62.677 13.6626 62.4321 13.9011C62.1936 14.1395 61.8875 14.2652 61.5137 14.2781C61.1464 14.291 60.837 14.1814 60.5857 13.9494C60.3343 13.711 60.2086 13.4177 60.2086 13.0697Z" fill="white"/>
<path d="M68.0584 13.2051L67.6137 15.7476H69.4021L69.1025 17.4877H67.3044L66.3183 23.346C66.299 23.5071 66.2958 23.6521 66.3086 23.781C66.3473 24.1999 66.6051 24.4191 67.082 24.4384C67.3205 24.4384 67.5912 24.4094 67.8941 24.3514L67.7394 26.1882C67.2625 26.3235 66.7823 26.3912 66.299 26.3912C65.4998 26.3783 64.9005 26.1076 64.5009 25.5791C64.1077 25.0442 63.9531 24.3385 64.0369 23.462L65.0132 17.4877H63.3408L63.6502 15.7476H65.3129L65.7576 13.2051H68.0584Z" fill="white"/>
<path d="M75.8881 25.1735C75.0954 26.0178 74.1029 26.427 72.9106 26.4012C72.2339 26.3883 71.67 26.2208 71.2189 25.8985C70.7742 25.5763 70.4552 25.1284 70.2618 24.5548C70.0749 23.9748 70.0201 23.2948 70.0975 22.515L71.2286 15.748H73.5197L72.3789 22.544C72.3532 22.7825 72.3499 23.0145 72.3693 23.2401C72.4337 24.0392 72.8365 24.4549 73.5777 24.4871C74.5895 24.5258 75.408 24.1198 76.0331 23.2691L77.3479 15.748H79.639L77.8312 26.2079H75.6851L75.8881 25.1735Z" fill="white"/>
<path d="M86.4448 23.3062C86.5544 22.6682 86.1387 22.2267 85.1978 21.9818C84.2633 21.7305 83.6252 21.5307 83.2836 21.3825C81.956 20.8153 81.3148 19.9517 81.3599 18.7916C81.3921 17.8507 81.8175 17.0741 82.6359 16.4619C83.4609 15.8432 84.4469 15.5402 85.5941 15.5531C86.7026 15.566 87.6049 15.8786 88.3009 16.4909C89.0034 17.1031 89.3482 17.9055 89.3353 18.898L87.0635 18.8883C87.0764 18.405 86.9443 18.0279 86.6672 17.7573C86.39 17.4801 86.0098 17.3351 85.5264 17.3222C85.0173 17.3222 84.5791 17.4479 84.2117 17.6993C83.8508 17.9506 83.6413 18.2793 83.5833 18.6853C83.4931 19.2718 83.9056 19.681 84.8207 19.913C85.7359 20.1386 86.4126 20.3481 86.8508 20.5414C88.1269 21.1021 88.7424 21.9786 88.6973 23.1709C88.6651 23.8347 88.4459 24.4147 88.0399 24.911C87.6403 25.4008 87.1022 25.7778 86.4255 26.042C85.7488 26.2998 85.0302 26.4191 84.2697 26.3997C83.129 26.3868 82.1816 26.0549 81.4275 25.404C80.6799 24.7531 80.3126 23.9185 80.3255 22.9002L82.5393 22.9099C82.5522 23.4706 82.7197 23.8959 83.042 24.1859C83.3642 24.476 83.8057 24.6242 84.3664 24.6306C84.9335 24.6306 85.404 24.5146 85.7778 24.2826C86.158 24.0442 86.3804 23.7187 86.4448 23.3062Z" fill="white"/>
<path d="M6.12426 11.2512L13.975 9L19.85 14.6734L17.8742 22.598L10.0234 24.8492L4.14844 19.1758L6.12426 11.2512Z" stroke="white" stroke-width="3"/>
</svg>
