<svg width="140" height="32" viewBox="0 0 140 32" fill="none" xmlns="http://www.w3.org/2000/svg">
<mask id="path-1-inside-1" fill="white">
<path d="M51.152 23.4323C50.767 25.8196 49.7003 27.7252 47.9521 29.1492C46.2039 30.5627 44.0758 31.2486 41.5679 31.2067C40.1215 31.1753 38.8519 30.8297 37.7593 30.1701C36.6771 29.5105 35.829 28.5524 35.215 27.2959C34.601 26.029 34.2576 24.5997 34.1848 23.0082C34.1224 21.8146 34.2681 20.1916 34.6219 18.1394C34.9757 16.0767 35.6521 14.2286 36.6511 12.5952C37.6604 10.9618 38.8936 9.73152 40.3504 8.90434C41.8177 8.07716 43.4463 7.67928 45.2361 7.71069C47.4942 7.75257 49.2789 8.46981 50.5901 9.8624C51.9116 11.2445 52.614 13.1554 52.6973 15.595H48.873C48.821 13.9616 48.4776 12.7837 47.8428 12.0612C47.2185 11.3283 46.2871 10.9461 45.0488 10.9147C43.3526 10.8623 41.9322 11.4749 40.7875 12.7523C39.6428 14.0297 38.8728 15.8882 38.4773 18.3279L38.1651 20.4167L38.0247 22.0187C37.9414 23.0972 38.0143 24.1129 38.2432 25.0657C38.4825 26.008 38.8988 26.7305 39.4919 27.2331C40.0851 27.7252 40.8395 27.987 41.7553 28.0184C44.6586 28.1336 46.5213 26.6153 47.3433 23.4637L51.152 23.4323Z"/>
<path d="M57.1147 30.8926H53.4153L57.583 6.76834H61.2823L57.1147 30.8926Z"/>
<path d="M71.3034 30.8926C71.1786 30.4737 71.1265 29.945 71.1473 29.3063C69.7529 30.6151 68.2492 31.2486 66.6363 31.2067C65.169 31.1857 63.9515 30.7146 62.9837 29.7932C62.0264 28.8613 61.5789 27.6833 61.6414 26.2593C61.7246 24.4689 62.4947 23.0606 63.9515 22.0345C65.4084 21.0083 67.3647 20.4953 69.8206 20.4953L72.2244 20.5267L72.4429 19.3645C72.5053 18.9561 72.5053 18.5739 72.4429 18.2179C72.2348 17.0871 71.4907 16.506 70.2108 16.4746C69.4199 16.4536 68.7227 16.6578 68.1192 17.0871C67.526 17.5059 67.1618 18.0713 67.0265 18.7833L63.3271 18.8148C63.4 17.7677 63.7694 16.8515 64.4354 16.0662C65.1014 15.2705 65.9859 14.6527 67.089 14.2129C68.192 13.7732 69.3575 13.5638 70.5854 13.5847C72.4273 13.6266 73.8633 14.1868 74.8935 15.2652C75.9238 16.3332 76.3504 17.7206 76.1735 19.4273L74.8779 27.3902L74.7531 28.8037C74.7218 29.4215 74.7999 30.0235 74.9872 30.6099L74.9716 30.8926H71.3034ZM67.4948 28.1597C68.2753 28.1807 68.9985 28.0027 69.6645 27.6257C70.3305 27.2383 70.8976 26.741 71.3659 26.1337L71.9434 22.914L70.1796 22.8983C68.7852 22.8983 67.6717 23.1653 66.8392 23.6993C66.0067 24.2228 65.5332 24.9453 65.4188 25.8667C65.3355 26.5682 65.4864 27.1232 65.8714 27.5315C66.2669 27.9294 66.808 28.1388 67.4948 28.1597Z"/>
<path d="M89.2696 17.3855C88.7909 17.2808 88.307 17.2285 87.818 17.2285C86.1946 17.1866 84.9042 17.8619 83.9469 19.2545L81.9177 30.8926H78.2183L81.1372 13.8988L84.6493 13.8831L84.2747 15.8149C85.4297 14.2758 86.7617 13.5219 88.2706 13.5533C88.614 13.5533 89.0875 13.6318 89.6911 13.7889L89.2696 17.3855Z"/>
<path d="M93.2031 30.8926H89.5037L92.4383 13.8988H96.1376L93.2031 30.8926ZM92.969 9.54828C92.969 8.9724 93.1563 8.48028 93.5309 8.07193C93.9055 7.66357 94.4102 7.44893 95.045 7.42799C95.6486 7.40705 96.1481 7.59552 96.5435 7.9934C96.9493 8.38081 97.1522 8.85722 97.1522 9.42263C97.1522 10.0195 96.9545 10.5116 96.5591 10.899C96.1741 11.2864 95.6798 11.4906 95.0762 11.5115C94.4831 11.5325 93.9836 11.3545 93.5777 10.9775C93.1719 10.5901 92.969 10.1137 92.969 9.54828Z"/>
<path d="M105.644 9.76816L104.926 13.8988H107.813L107.329 16.7259H104.426L102.834 26.2436C102.803 26.5054 102.798 26.741 102.818 26.9504C102.881 27.631 103.297 27.987 104.067 28.0184C104.452 28.0184 104.889 27.9713 105.378 27.877L105.129 30.8612C104.358 31.081 103.583 31.191 102.803 31.191C101.512 31.17 100.545 30.7303 99.8995 29.8717C99.2647 29.0026 99.0149 27.8561 99.1502 26.4321L100.727 16.7259H98.0264L98.5258 13.8988H101.211L101.929 9.76816H105.644Z"/>
<path d="M118.287 29.212C117.007 30.5837 115.405 31.2486 113.479 31.2067C112.387 31.1857 111.476 30.9135 110.748 30.39C110.03 29.8665 109.515 29.1387 109.203 28.2069C108.901 27.2645 108.812 26.1599 108.937 24.8929L110.763 13.8988H114.463L112.621 24.94C112.579 25.3275 112.574 25.7044 112.605 26.0709C112.709 27.3692 113.36 28.0446 114.556 28.0969C116.19 28.1597 117.512 27.5001 118.521 26.118L120.644 13.8988H124.343L121.425 30.8926H117.959L118.287 29.212Z"/>
<path d="M135.332 26.1808C135.509 25.1442 134.838 24.427 133.319 24.0291C131.81 23.6207 130.78 23.2962 130.228 23.0553C128.084 22.1339 127.049 20.7309 127.122 18.8462C127.174 17.3175 127.861 16.0557 129.182 15.061C130.514 14.0559 132.106 13.5638 133.959 13.5847C135.749 13.6056 137.205 14.1135 138.329 15.1082C139.464 16.1029 140.02 17.4065 139.999 19.0189L136.331 19.0032C136.352 18.2179 136.139 17.6054 135.691 17.1656C135.244 16.7154 134.63 16.4798 133.849 16.4589C133.027 16.4589 132.32 16.663 131.727 17.0714C131.144 17.4797 130.806 18.0138 130.712 18.6734C130.566 19.6262 131.232 20.2911 132.71 20.668C134.188 21.0345 135.28 21.3748 135.988 21.6889C138.048 22.5999 139.042 24.0239 138.969 25.9609C138.917 27.0394 138.563 27.9817 137.908 28.788C137.263 29.5837 136.394 30.1963 135.301 30.6256C134.208 31.0444 133.048 31.2381 131.82 31.2067C129.978 31.1857 128.449 30.6465 127.231 29.589C126.024 28.5315 125.431 27.1755 125.452 25.5212L129.026 25.5369C129.047 26.4478 129.318 27.1389 129.838 27.61C130.358 28.0812 131.071 28.322 131.976 28.3325C132.892 28.3325 133.652 28.144 134.255 27.7671C134.869 27.3797 135.228 26.8509 135.332 26.1808Z"/>
<path d="M19.4481 0L31.1625 11.2264L27.2957 26.8315L11.7144 31.2102L0 19.9838L3.86683 4.37868L19.4481 0Z"/>
</mask>
<path d="M51.152 23.4323C50.767 25.8196 49.7003 27.7252 47.9521 29.1492C46.2039 30.5627 44.0758 31.2486 41.5679 31.2067C40.1215 31.1753 38.8519 30.8297 37.7593 30.1701C36.6771 29.5105 35.829 28.5524 35.215 27.2959C34.601 26.029 34.2576 24.5997 34.1848 23.0082C34.1224 21.8146 34.2681 20.1916 34.6219 18.1394C34.9757 16.0767 35.6521 14.2286 36.6511 12.5952C37.6604 10.9618 38.8936 9.73152 40.3504 8.90434C41.8177 8.07716 43.4463 7.67928 45.2361 7.71069C47.4942 7.75257 49.2789 8.46981 50.5901 9.8624C51.9116 11.2445 52.614 13.1554 52.6973 15.595H48.873C48.821 13.9616 48.4776 12.7837 47.8428 12.0612C47.2185 11.3283 46.2871 10.9461 45.0488 10.9147C43.3526 10.8623 41.9322 11.4749 40.7875 12.7523C39.6428 14.0297 38.8728 15.8882 38.4773 18.3279L38.1651 20.4167L38.0247 22.0187C37.9414 23.0972 38.0143 24.1129 38.2432 25.0657C38.4825 26.008 38.8988 26.7305 39.4919 27.2331C40.0851 27.7252 40.8395 27.987 41.7553 28.0184C44.6586 28.1336 46.5213 26.6153 47.3433 23.4637L51.152 23.4323Z" stroke="white" stroke-width="6" mask="url(#path-1-inside-1)"/>
<path d="M57.1147 30.8926H53.4153L57.583 6.76834H61.2823L57.1147 30.8926Z" stroke="white" stroke-width="6" mask="url(#path-1-inside-1)"/>
<path d="M71.3034 30.8926C71.1786 30.4737 71.1265 29.945 71.1473 29.3063C69.7529 30.6151 68.2492 31.2486 66.6363 31.2067C65.169 31.1857 63.9515 30.7146 62.9837 29.7932C62.0264 28.8613 61.5789 27.6833 61.6414 26.2593C61.7246 24.4689 62.4947 23.0606 63.9515 22.0345C65.4084 21.0083 67.3647 20.4953 69.8206 20.4953L72.2244 20.5267L72.4429 19.3645C72.5053 18.9561 72.5053 18.5739 72.4429 18.2179C72.2348 17.0871 71.4907 16.506 70.2108 16.4746C69.4199 16.4536 68.7227 16.6578 68.1192 17.0871C67.526 17.5059 67.1618 18.0713 67.0265 18.7833L63.3271 18.8148C63.4 17.7677 63.7694 16.8515 64.4354 16.0662C65.1014 15.2705 65.9859 14.6527 67.089 14.2129C68.192 13.7732 69.3575 13.5638 70.5854 13.5847C72.4273 13.6266 73.8633 14.1868 74.8935 15.2652C75.9238 16.3332 76.3504 17.7206 76.1735 19.4273L74.8779 27.3902L74.7531 28.8037C74.7218 29.4215 74.7999 30.0235 74.9872 30.6099L74.9716 30.8926H71.3034ZM67.4948 28.1597C68.2753 28.1807 68.9985 28.0027 69.6645 27.6257C70.3305 27.2383 70.8976 26.741 71.3659 26.1337L71.9434 22.914L70.1796 22.8983C68.7852 22.8983 67.6717 23.1653 66.8392 23.6993C66.0067 24.2228 65.5332 24.9453 65.4188 25.8667C65.3355 26.5682 65.4864 27.1232 65.8714 27.5315C66.2669 27.9294 66.808 28.1388 67.4948 28.1597Z" stroke="white" stroke-width="6" mask="url(#path-1-inside-1)"/>
<path d="M89.2696 17.3855C88.7909 17.2808 88.307 17.2285 87.818 17.2285C86.1946 17.1866 84.9042 17.8619 83.9469 19.2545L81.9177 30.8926H78.2183L81.1372 13.8988L84.6493 13.8831L84.2747 15.8149C85.4297 14.2758 86.7617 13.5219 88.2706 13.5533C88.614 13.5533 89.0875 13.6318 89.6911 13.7889L89.2696 17.3855Z" stroke="white" stroke-width="6" mask="url(#path-1-inside-1)"/>
<path d="M93.2031 30.8926H89.5037L92.4383 13.8988H96.1376L93.2031 30.8926ZM92.969 9.54828C92.969 8.9724 93.1563 8.48028 93.5309 8.07193C93.9055 7.66357 94.4102 7.44893 95.045 7.42799C95.6486 7.40705 96.1481 7.59552 96.5435 7.9934C96.9493 8.38081 97.1522 8.85722 97.1522 9.42263C97.1522 10.0195 96.9545 10.5116 96.5591 10.899C96.1741 11.2864 95.6798 11.4906 95.0762 11.5115C94.4831 11.5325 93.9836 11.3545 93.5777 10.9775C93.1719 10.5901 92.969 10.1137 92.969 9.54828Z" stroke="white" stroke-width="6" mask="url(#path-1-inside-1)"/>
<path d="M105.644 9.76816L104.926 13.8988H107.813L107.329 16.7259H104.426L102.834 26.2436C102.803 26.5054 102.798 26.741 102.818 26.9504C102.881 27.631 103.297 27.987 104.067 28.0184C104.452 28.0184 104.889 27.9713 105.378 27.877L105.129 30.8612C104.358 31.081 103.583 31.191 102.803 31.191C101.512 31.17 100.545 30.7303 99.8995 29.8717C99.2647 29.0026 99.0149 27.8561 99.1502 26.4321L100.727 16.7259H98.0264L98.5258 13.8988H101.211L101.929 9.76816H105.644Z" stroke="white" stroke-width="6" mask="url(#path-1-inside-1)"/>
<path d="M118.287 29.212C117.007 30.5837 115.405 31.2486 113.479 31.2067C112.387 31.1857 111.476 30.9135 110.748 30.39C110.03 29.8665 109.515 29.1387 109.203 28.2069C108.901 27.2645 108.812 26.1599 108.937 24.8929L110.763 13.8988H114.463L112.621 24.94C112.579 25.3275 112.574 25.7044 112.605 26.0709C112.709 27.3692 113.36 28.0446 114.556 28.0969C116.19 28.1597 117.512 27.5001 118.521 26.118L120.644 13.8988H124.343L121.425 30.8926H117.959L118.287 29.212Z" stroke="white" stroke-width="6" mask="url(#path-1-inside-1)"/>
<path d="M135.332 26.1808C135.509 25.1442 134.838 24.427 133.319 24.0291C131.81 23.6207 130.78 23.2962 130.228 23.0553C128.084 22.1339 127.049 20.7309 127.122 18.8462C127.174 17.3175 127.861 16.0557 129.182 15.061C130.514 14.0559 132.106 13.5638 133.959 13.5847C135.749 13.6056 137.205 14.1135 138.329 15.1082C139.464 16.1029 140.02 17.4065 139.999 19.0189L136.331 19.0032C136.352 18.2179 136.139 17.6054 135.691 17.1656C135.244 16.7154 134.63 16.4798 133.849 16.4589C133.027 16.4589 132.32 16.663 131.727 17.0714C131.144 17.4797 130.806 18.0138 130.712 18.6734C130.566 19.6262 131.232 20.2911 132.71 20.668C134.188 21.0345 135.28 21.3748 135.988 21.6889C138.048 22.5999 139.042 24.0239 138.969 25.9609C138.917 27.0394 138.563 27.9817 137.908 28.788C137.263 29.5837 136.394 30.1963 135.301 30.6256C134.208 31.0444 133.048 31.2381 131.82 31.2067C129.978 31.1857 128.449 30.6465 127.231 29.589C126.024 28.5315 125.431 27.1755 125.452 25.5212L129.026 25.5369C129.047 26.4478 129.318 27.1389 129.838 27.61C130.358 28.0812 131.071 28.322 131.976 28.3325C132.892 28.3325 133.652 28.144 134.255 27.7671C134.869 27.3797 135.228 26.8509 135.332 26.1808Z" stroke="white" stroke-width="6" mask="url(#path-1-inside-1)"/>
<path d="M19.4481 0L31.1625 11.2264L27.2957 26.8315L11.7144 31.2102L0 19.9838L3.86683 4.37868L19.4481 0Z" stroke="white" stroke-width="6" mask="url(#path-1-inside-1)"/>
</svg>
