<svg width="490" height="351" viewBox="0 0 490 351" fill="none" xmlns="http://www.w3.org/2000/svg">
    <g filter="url(#filter0_d)">
        <path d="M82.2074 194.226C82.885 195.429 83.5562 196.609 84.2096 197.778C86.2132 196.114 88.7504 195.229 91.3543 195.288C90.2742 193.691 89.1224 192.126 87.9621 190.504L86.0811 187.892C85.3644 186.92 84.5994 185.985 83.7891 185.09C82.1909 183.376 80.4385 181.813 78.5539 180.42C76.7743 179.13 74.9152 177.954 72.9878 176.899C69.2995 174.85 65.7682 173.342 62.7849 172.031C59.8006 170.737 57.32 169.665 55.655 168.87C54.812 168.492 54.1375 168.132 53.6855 167.922L52.9868 167.578C52.7102 167.442 52.3922 167.418 52.098 167.509C51.8038 167.601 51.5556 167.801 51.4044 168.069C51.2533 168.338 51.2105 168.654 51.2848 168.953C51.3592 169.252 51.5451 169.511 51.8044 169.677L52.461 170.099C52.8983 170.368 53.501 170.776 54.3388 171.271C55.9964 172.293 58.359 173.63 61.1821 175.238C64.0052 176.846 67.2657 178.7 70.4555 180.957C72.0785 182.088 73.6292 183.32 75.0985 184.645C76.5469 185.982 77.8704 187.448 79.0523 189.025C79.6077 189.808 80.1599 190.629 80.6162 191.429C81.1483 192.36 81.6805 193.296 82.2074 194.226Z" fill="#323947"/>
        <path d="M251.622 102.681L249.05 101.089L246.561 99.6138C244.901 98.6653 243.194 97.6969 241.482 96.8349C239.773 95.935 238.036 95.1225 236.292 94.3385C234.548 93.5544 232.775 92.8632 231.002 92.1835L228.316 91.2656C227.421 90.9695 226.512 90.7292 225.609 90.4563C223.795 89.9663 221.976 89.4984 220.137 89.1802C219.22 88.9968 218.302 88.8282 217.376 88.7228C216.45 88.6174 215.536 88.4372 214.609 88.3919C213.684 88.3276 212.758 88.2233 211.831 88.1875L209.048 88.1232C207.195 88.1759 205.343 88.2149 203.498 88.4341L202.804 88.4994L202.458 88.5321L202.286 88.5468L202.197 88.5553H202.154C202.983 88.4162 202.365 88.5205 202.549 88.491L202.527 88.4963L201.052 88.8124L198.101 89.4447C196.19 89.9052 194.46 90.4036 192.599 90.9063L186.889 92.6408L181.063 94.4323L178.102 95.3153L175.06 96.1236C173.058 96.7042 170.926 97.0857 168.843 97.5378C166.746 97.9656 164.544 98.1637 162.396 98.4767L162.218 98.4946C161.71 98.5429 161.197 98.4906 160.71 98.3408L146.511 93.8706L132.513 88.9083L118.717 83.5245L105.094 77.8055L91.6051 71.8253L78.222 65.6648L51.6243 53.0899C51.3658 52.9685 51.1649 52.7512 51.064 52.4841C50.9631 52.217 50.9702 51.921 51.0839 51.6591C51.1975 51.3972 51.4087 51.1898 51.6727 51.0809C51.9366 50.9721 52.2326 50.9704 52.4978 51.0761L79.849 61.8701L93.5483 67.1233L107.307 72.1751L121.14 76.9425L135.058 81.3473L149.074 85.3096L163.185 88.7534L161.499 88.6164C163.338 88.3308 165.166 88.1949 167.014 87.8071C168.869 87.3992 170.711 87.0852 172.586 86.5425L175.387 85.7996L178.221 84.9566L183.96 83.1946L189.834 81.4127C191.864 80.8584 194.015 80.2535 196.024 79.7782L198.975 79.146L200.45 78.8298L200.914 78.7487L200.964 78.7434L201.07 78.7329L201.272 78.715L201.678 78.676L202.49 78.598C204.653 78.3461 206.83 78.2892 209.008 78.2376L212.275 78.3113C213.36 78.3535 214.44 78.4694 215.526 78.5485C216.613 78.6096 217.681 78.8014 218.758 78.9341C219.835 79.0669 220.902 79.2503 221.963 79.461C224.097 79.8341 226.19 80.3662 228.263 80.93C229.291 81.2388 230.334 81.518 231.351 81.8531L234.388 82.8932C236.379 83.6499 238.363 84.4286 240.297 85.299C242.231 86.1695 244.146 87.0652 246.005 88.0389C247.889 88.9873 249.693 90.0105 251.533 91.0643L254.248 92.6724L256.82 94.2636C257.882 94.9786 258.627 96.0775 258.897 97.3296C259.167 98.5817 258.941 99.8897 258.267 100.979C257.593 102.068 256.523 102.854 255.282 103.171C254.042 103.489 252.726 103.313 251.612 102.681H251.622Z" fill="#323947"/>
        <path d="M97.1365 234.516C95.7775 234.505 94.4263 234.31 93.1194 233.937C79.653 230.185 77.263 209.489 78.3432 203.427C78.857 199.988 80.6189 196.859 83.2927 194.636C85.9666 192.413 89.3652 191.252 92.8402 191.375C99.6139 191.375 105.794 195.184 107.869 200.635C110.559 207.696 112.085 221.711 106.825 229.337C105.77 230.939 104.331 232.252 102.639 233.157C100.946 234.061 99.0551 234.528 97.1365 234.516ZM92.837 201.273C88.7789 201.273 88.2551 204.203 88.0823 205.166C87.371 209.155 89.9454 222.78 95.775 224.402C96.2173 224.534 96.6751 224.607 97.1365 224.619C97.4527 224.637 97.7672 224.561 98.0405 224.401C98.3138 224.241 98.5338 224.003 98.6729 223.719C101.238 220 100.78 209.854 98.6149 204.156C98.0838 202.762 95.638 201.273 92.837 201.273Z" fill="#323947"/>
        <path d="M122.292 247.775C113.802 247.775 105.642 240.257 101.662 233.274C95.4736 222.419 95.8256 204.474 100.239 196.843C101.388 194.843 103.062 193.196 105.08 192.079C107.097 190.961 109.382 190.417 111.686 190.503C121.397 190.503 133.878 199.376 134.602 209.734L134.75 211.795C135.948 228.234 136.283 242.176 128.205 246.359C126.378 247.303 124.348 247.788 122.292 247.775ZM111.683 200.399C111.118 200.319 110.542 200.41 110.029 200.66C109.516 200.91 109.089 201.308 108.804 201.802C106.203 206.293 105.808 220.569 110.256 228.368C113.248 233.611 118.645 237.878 122.288 237.878C122.758 237.889 123.224 237.787 123.646 237.579C125.525 235.948 125.964 227.499 124.874 212.516L124.726 210.421C124.424 206.114 116.989 200.399 111.683 200.399Z" fill="#323947"/>
        <path d="M153.068 273.5C144.617 273.5 129.953 264.096 126.014 256.149C121.852 247.749 117.572 215.299 132.876 204.873C135.152 203.445 137.802 202.73 140.487 202.82C150.758 202.82 162.903 210.632 166.884 228.08C169.734 240.58 164.89 263.356 160.356 270.009C159.534 271.159 158.435 272.082 157.161 272.692C155.886 273.303 154.478 273.581 153.068 273.5ZM140.487 212.718C139.787 212.676 139.087 212.793 138.438 213.06C129.289 219.294 131.693 245.306 134.884 251.753C137.232 256.495 148.057 263.194 152.663 263.585C155.339 258.253 159.442 239.963 157.233 230.285C154.071 216.418 145.218 212.718 140.487 212.718Z" fill="#323947"/>
        <path d="M184.1 296.661C183.476 296.661 182.86 296.638 182.257 296.588C165.432 295.202 156.2 284.001 153.172 273.981C151.652 268.963 151.976 250.025 157.319 240.273C158.478 238.158 161.447 234.609 168.317 234.609C178.763 234.609 195.406 243.419 196.183 254.272C196.722 261.74 194.971 271.271 193.897 276.211L203.769 283.508C204.46 284.021 205.007 284.705 205.353 285.493C205.7 286.282 205.835 287.147 205.745 288.003C205.655 288.86 205.343 289.678 204.84 290.377C204.338 291.077 203.661 291.633 202.878 291.991C202.456 292.18 192.523 296.661 184.1 296.661ZM168.313 244.508C166.776 244.508 166.088 244.859 165.994 245.027C161.969 252.376 161.872 268.478 162.64 271.114C163.654 274.464 168.12 285.492 183.069 286.724C185.512 286.816 187.954 286.529 190.309 285.871L185.393 282.236C184.6 281.649 184.001 280.84 183.671 279.911C183.342 278.982 183.297 277.976 183.542 277.022C183.575 276.89 186.935 263.693 186.307 254.984C186.066 251.608 175.894 244.508 168.313 244.508Z" fill="#323947"/>
        <path d="M230.905 300.991C217.289 300.991 200.851 293.032 198.613 291.916C197.493 291.3 196.654 290.274 196.272 289.053C195.891 287.832 195.996 286.511 196.567 285.366C197.137 284.222 198.129 283.342 199.333 282.912C200.538 282.481 201.862 282.534 203.029 283.058C211.978 287.51 228.917 293.391 236.28 290.233C246.722 285.746 250.154 281.201 250.19 281.155C250.672 280.445 251.336 279.878 252.112 279.513C252.888 279.148 253.748 278.998 254.601 279.079C254.885 279.103 283.81 281.021 293.769 265.688C294.323 264.836 295.126 264.175 296.068 263.795C297.011 263.415 298.048 263.334 299.038 263.564C308.766 265.827 323.333 256.701 328.301 241.144C328.51 240.494 328.85 239.894 329.301 239.382C329.753 238.869 330.305 238.456 330.924 238.167C331.542 237.878 332.214 237.72 332.896 237.704C333.579 237.687 334.258 237.811 334.89 238.069C338.935 239.725 344.901 238.626 350.449 235.2C357.301 230.996 362.284 224.329 364.375 216.567C344.74 215.392 323.099 203.521 310.21 191.948C303.976 186.351 296.466 177.926 296.097 169.575C296.098 168.3 296.591 167.075 297.472 166.155C298.354 165.234 299.556 164.689 300.829 164.632C302.103 164.576 303.349 165.012 304.308 165.851C305.268 166.69 305.868 167.866 305.982 169.136C306.113 172.014 309.026 177.585 316.824 184.585C329.991 196.407 352.481 207.812 369.897 206.691C370.603 206.646 371.311 206.754 371.973 207.007C372.634 207.26 373.234 207.652 373.731 208.156C374.228 208.66 374.612 209.265 374.855 209.93C375.099 210.595 375.197 211.304 375.143 212.01C374.601 218.441 372.553 224.654 369.164 230.146C365.775 235.638 361.14 240.255 355.636 243.624C349.16 247.619 342.173 249.314 336.077 248.523C328.782 265.278 312.772 274.575 300.15 273.701C288.096 288.467 264.225 289.233 256.372 289.058C253.943 291.507 249.02 295.53 240.185 299.326C237.236 300.501 234.079 301.068 230.905 300.991Z" fill="#323947"/>
        <path d="M438.218 59.9901L436.967 60.576C436.142 60.9596 434.916 61.5339 433.351 62.3032L419.711 69.0949C413.846 72.0613 406.703 75.6368 398.477 79.6992C394.367 81.7425 389.953 83.8438 385.273 86.0325C380.565 88.2043 375.667 90.4826 370.113 92.5154C369.438 92.7504 368.807 92.9991 368.087 93.2288L365.895 93.9096C364.42 94.3659 362.971 94.7231 361.476 95.1025C358.434 95.8165 355.359 96.3771 352.261 96.7822C345.796 97.5408 339.277 97.74 332.778 97.3776C329.461 97.209 326.12 96.9557 322.755 96.6178L320.243 96.3291L318.913 96.1689L317.67 95.9971C316.005 95.7632 314.332 95.5289 312.649 95.2943L302.395 93.6314C300.683 93.3384 299.012 93.1045 297.308 92.8368L296.033 92.6419L295.395 92.5449L295.197 92.5196L294.871 92.4806C294.157 92.3847 293.437 92.3336 292.717 92.3278C286.921 92.1792 280.282 94.309 273.442 96.445C266.703 98.5392 260.135 101.151 253.798 104.257C250.671 105.814 247.642 107.56 244.727 109.486C243.275 110.434 241.877 111.453 240.525 112.512C239.861 113.055 239.161 113.566 238.533 114.137L236.499 115.915L234.392 117.775L232.097 119.694C230.57 120.945 229.071 122.142 227.538 123.3C224.494 125.638 221.426 127.871 218.438 130.094C212.543 134.284 206.955 138.893 201.72 143.884L199.905 145.754C199.312 146.386 198.761 147.04 198.187 147.679C197.612 148.319 197.09 148.986 196.558 149.649L195.766 150.645C195.669 150.75 195.185 151.421 195.092 151.575C194.495 152.398 194.075 153.336 193.857 154.329C193.804 154.584 193.802 154.848 193.852 155.104C193.901 155.36 194.001 155.604 194.145 155.821C194.712 156.645 195.445 157.341 196.296 157.865C197.485 158.644 198.751 159.299 200.074 159.819C203.044 160.972 206.14 161.772 209.297 162.202C210.855 162.43 212.426 162.564 214.001 162.604C214.381 162.614 214.747 162.61 215.108 162.604L216.331 162.551C216.815 162.538 217.151 162.499 217.514 162.469C217.878 162.44 218.224 162.42 218.62 162.364C220.152 162.193 221.673 161.925 223.172 161.562C223.915 161.384 224.645 161.179 225.361 160.949C225.726 160.843 226.075 160.712 226.427 160.587L226.954 160.4L227.088 160.353C227.299 160.271 226.947 160.415 227.04 160.375L227.345 160.245L228.558 159.728C228.967 159.554 229.166 159.419 229.481 159.267C230.008 159.02 230.746 158.582 231.415 158.213C232.804 157.398 234.203 156.511 235.759 155.558C237.29 154.61 238.926 153.662 240.751 152.759L241.91 152.203C242.294 152.016 242.795 151.806 243.231 151.611C244.148 151.189 245.009 150.873 245.882 150.525C249.352 149.204 252.941 148.221 256.6 147.591C260.191 146.996 263.83 146.749 267.468 146.853C271.025 146.97 274.561 147.45 278.021 148.283C281.409 149.114 284.696 150.316 287.821 151.866C290.806 153.348 293.637 155.123 296.271 157.164C297.564 158.146 298.773 159.187 299.945 160.238C300.514 160.778 301.081 161.314 301.647 161.845L303.16 163.376C309.574 170.105 319.421 171.191 327.791 170.816C335.121 170.598 342.367 169.193 349.247 166.656C351.694 165.736 354.011 164.499 356.137 162.976C357.696 161.887 359.088 160.578 360.27 159.09C361.013 158.145 361.663 157.13 362.211 156.061C362.553 155.309 362.758 154.911 362.758 154.911L362.846 154.745C363.012 154.426 363.283 154.174 363.614 154.032C363.944 153.891 364.313 153.867 364.659 153.966C365.005 154.066 365.305 154.281 365.51 154.577C365.715 154.872 365.812 155.229 365.784 155.588C365.784 155.588 365.744 156.098 365.61 157.102C365.551 157.607 365.386 158.21 365.229 158.953C364.99 159.796 364.697 160.623 364.352 161.429C363.37 163.685 362.016 165.761 360.347 167.569C358.113 169.953 355.535 171.99 352.698 173.611C345.209 177.725 336.896 180.116 328.366 180.609C325.806 180.806 323.237 180.837 320.673 180.704L319.619 180.644L318.7 180.567C317.956 180.511 317.318 180.418 316.614 180.339C315.232 180.147 313.829 179.918 312.406 179.583C309.425 178.912 306.539 177.876 303.812 176.498C302.367 175.762 300.979 174.916 299.661 173.969C298.984 173.47 298.366 173.009 297.67 172.403L296.677 171.524L295.914 170.794C295.419 170.307 294.92 169.818 294.417 169.325L292.977 168.011C291.992 167.161 290.988 166.325 289.93 165.546C287.815 163.961 285.548 162.591 283.161 161.455C280.729 160.3 278.178 159.415 275.553 158.816C272.808 158.203 270.007 157.871 267.195 157.825C261.277 157.78 255.404 158.859 249.888 161.004C249.187 161.288 248.46 161.566 247.826 161.862C247.486 162.019 247.194 162.131 246.812 162.319L245.652 162.881C244.413 163.514 243.066 164.282 241.659 165.167C240.27 166.027 238.738 167.013 237.121 167.973C236.261 168.458 235.499 168.922 234.45 169.439C233.98 169.672 233.411 169.973 233.013 170.145L231.803 170.672L231.499 170.803C231.499 170.809 231.041 170.99 231.147 170.945L230.968 171.01L230.252 171.272C229.776 171.443 229.298 171.625 228.813 171.767C227.848 172.083 226.872 172.362 225.887 172.604C223.924 173.094 221.932 173.458 219.923 173.692C219.435 173.765 218.886 173.798 218.36 173.85C217.835 173.903 217.273 173.948 216.86 173.956L215.384 174.025C214.845 174.039 214.315 174.045 213.791 174.036C211.752 173.999 209.718 173.839 207.698 173.556C203.619 173.021 199.619 172.003 195.781 170.522C193.677 169.708 191.669 168.667 189.791 167.418C187.53 165.933 185.626 163.966 184.214 161.658C182.571 158.888 181.973 155.623 182.528 152.451C182.771 151.048 183.196 149.682 183.793 148.39C184.068 147.787 184.365 147.216 184.678 146.667C184.988 146.14 185.31 145.613 185.698 145.05C186.128 144.433 186.189 144.346 186.673 143.723L187.621 142.538C188.263 141.75 188.886 140.943 189.573 140.207C190.26 139.47 190.912 138.694 191.605 137.966L193.712 135.824C199.369 130.483 205.405 125.558 211.773 121.088C214.829 118.853 217.856 116.677 220.778 114.463C222.246 113.364 223.686 112.23 225.082 111.131L227.128 109.479L229.262 107.652L231.481 105.773C232.247 105.1 233.067 104.517 233.862 103.892C235.468 102.677 237.108 101.523 238.789 100.459C242.103 98.3417 245.543 96.429 249.09 94.7315C255.969 91.4866 263.09 88.7791 270.387 86.6331C273.938 85.5793 277.398 84.5551 281.153 83.6962C285.03 82.7517 289.014 82.3174 293.004 82.4043C294.041 82.4382 295.076 82.5296 296.103 82.6783L296.88 82.7931L297.536 82.9101L298.848 83.1472C300.588 83.4633 302.352 83.7605 304.042 84.0956C307.406 84.7321 310.736 85.3626 314.032 85.9872L319.01 86.8154L320.248 87.0188L321.407 87.1874L323.831 87.5278C327.049 87.9816 330.222 88.355 333.348 88.648C345.831 89.7829 357.6 89.1064 367.936 85.9503C373.074 84.4128 378.081 82.3326 382.794 80.4326C387.524 78.4979 391.993 76.5863 396.203 74.8075L418.017 65.4951C424.077 62.9176 428.871 60.9638 432.175 59.6677C433.827 59.0091 435.092 58.5317 435.943 58.2145L437.236 57.7276C437.534 57.6171 437.863 57.6258 438.154 57.752C438.446 57.8781 438.677 58.1119 438.8 58.4047C438.923 58.6974 438.929 59.0264 438.815 59.323C438.702 59.6196 438.478 59.8609 438.191 59.9965L438.218 59.9901Z" fill="#323947"/>
        <path d="M368.047 207.174C368.047 207.174 368.349 207.017 368.916 206.718C369.174 206.576 369.602 206.384 369.911 206.191L370.965 205.559L372.398 204.638C372.917 204.265 373.483 203.891 374.084 203.435C375.267 202.535 376.63 201.464 378.106 200.2C381.07 197.671 384.524 194.32 388.826 190.92C389.376 190.503 389.903 190.068 390.486 189.662L391.351 189.041L391.786 188.731L391.812 188.711C391.868 188.668 391.429 189.003 391.626 188.852L391.674 188.814L391.771 188.74L391.967 188.59L392.062 188.514L392.075 188.496L392.107 188.468C392.154 188.433 392.196 188.394 392.235 188.35C392.349 188.245 392.455 188.125 392.571 187.995C392.829 187.695 393.057 187.371 393.253 187.028C394.201 185.46 394.841 182.778 396.414 179.717C397.274 178.023 398.464 176.518 399.914 175.291C400.105 175.128 400.3 174.975 400.503 174.833L400.802 174.616L401.177 174.358L401.233 174.328L401.339 174.264L402.236 173.76C402.909 173.412 403.679 173.01 404.277 172.736C406.78 171.549 409.188 170.462 411.548 169.435C416.265 167.399 420.681 165.586 424.484 164.072C428.283 162.584 431.448 161.345 433.664 160.475C434.747 160.044 435.596 159.707 436.175 159.474L436.977 159.127L437.161 159.047C437.508 158.896 437.898 158.878 438.258 158.995C438.617 159.113 438.921 159.358 439.111 159.685C439.302 160.012 439.366 160.397 439.292 160.768C439.217 161.139 439.009 161.469 438.707 161.697L437.828 162.358C437.273 162.747 436.473 163.306 435.45 163.954C433.404 165.274 430.456 167.032 426.887 169.068C423.318 171.104 419.114 173.38 414.624 175.793C412.387 176.996 410.04 178.211 407.774 179.487L406.248 180.362L405.399 180.888L405.294 180.955L405.239 180.989C405.834 180.584 405.397 180.883 405.526 180.799L405.516 180.809L405.418 180.915C405.352 180.981 405.29 181.051 405.233 181.126C404.715 181.783 404.311 182.523 404.037 183.314C403.3 185.203 402.87 187.951 401.384 191.186C400.556 192.996 399.343 194.604 397.83 195.897L397.64 196.055L397.545 196.134L397.238 196.369L396.887 196.645L396.184 197.19C395.712 197.54 395.259 197.947 394.803 198.317C391.176 201.382 387.902 204.82 384.719 207.69C383.251 209.048 381.715 210.331 380.117 211.535C378.829 212.503 377.488 213.399 376.1 214.22L374.378 215.149C373.879 215.412 373.58 215.532 373.271 215.676C372.685 215.938 372.375 216.078 372.375 216.078C371.203 216.594 369.875 216.637 368.672 216.195C367.469 215.754 366.484 214.863 365.924 213.711C365.363 212.558 365.272 211.234 365.668 210.015C366.064 208.796 366.917 207.778 368.047 207.175V207.174Z" fill="#323947"/>
        <path d="M223.193 264.028L223.468 264.327C223.644 264.51 223.907 264.778 224.237 265.117C224.941 265.811 225.973 266.803 227.306 267.892C228.81 269.142 230.381 270.309 232.013 271.387C232.929 271.942 233.831 272.578 234.825 273.096C235.792 273.654 236.786 274.193 237.811 274.663C238.811 275.182 239.856 275.601 240.877 276.012C241.879 276.464 242.925 276.758 243.905 277.099C244.851 277.415 245.811 277.684 246.783 277.904C247.242 278.017 247.684 278.146 248.117 278.238C248.555 278.311 248.977 278.382 249.382 278.448C250.193 278.577 250.926 278.74 251.588 278.808L253.301 278.959L254.784 279.092L255.137 279.124C256.434 279.261 257.626 279.903 258.453 280.912C259.281 281.92 259.679 283.214 259.56 284.514C259.441 285.813 258.816 287.013 257.819 287.855C256.823 288.697 255.534 289.113 254.234 289.013C254.042 288.995 253.852 288.967 253.664 288.927L251.855 288.547L249.79 288.104C248.995 287.921 248.125 287.624 247.166 287.345L245.678 286.895C245.168 286.721 244.655 286.508 244.12 286.307C243.067 285.885 241.927 285.496 240.825 284.937C239.711 284.398 238.541 283.894 237.434 283.234C236.301 282.613 235.163 281.977 234.084 281.247C232.977 280.563 231.92 279.812 230.899 279.051C229.854 278.325 228.917 277.492 227.972 276.744C226.301 275.326 224.709 273.817 223.205 272.224C221.877 270.836 220.857 269.596 220.149 268.705C219.804 268.261 219.527 267.896 219.326 267.621L219.055 267.239C218.669 266.695 218.505 266.025 218.596 265.364C218.688 264.703 219.027 264.102 219.546 263.683C220.065 263.264 220.724 263.058 221.389 263.108C222.054 263.158 222.675 263.459 223.126 263.95L223.193 264.028Z" fill="#323947"/>
        <path d="M247.101 238.001L249.147 239.524C250.456 240.489 252.361 241.842 254.664 243.423C256.966 245.003 259.693 246.795 262.651 248.638C264.14 249.538 265.659 250.505 267.244 251.402C268.817 252.323 270.421 253.243 272.05 254.1C273.662 255.003 275.303 255.82 276.92 256.613C278.52 257.45 280.147 258.118 281.693 258.826C283.237 259.552 284.776 260.046 286.2 260.628C287.625 261.209 289.006 261.533 290.253 261.955C290.569 262.051 290.874 262.145 291.172 262.24C291.47 262.304 291.763 262.368 292.048 262.431L293.655 262.789C294.159 262.895 294.631 263.02 295.061 263.095L296.227 263.217L298.419 263.468L298.988 263.532C299.635 263.606 300.262 263.806 300.831 264.122C301.401 264.438 301.902 264.863 302.308 265.373C302.713 265.883 303.014 266.467 303.194 267.093C303.373 267.719 303.427 268.375 303.354 269.022C303.28 269.669 303.079 270.295 302.763 270.865C302.447 271.434 302.023 271.936 301.513 272.341C301.003 272.747 300.418 273.048 299.792 273.227C299.166 273.407 298.511 273.461 297.864 273.387C297.715 273.369 297.557 273.343 297.411 273.312C297.411 273.312 296.357 273.092 294.501 272.703C294.039 272.604 293.53 272.492 292.976 272.371C292.439 272.225 291.889 272.026 291.284 271.834L289.376 271.202C289.04 271.089 288.697 270.975 288.346 270.859C288.011 270.719 287.669 270.575 287.32 270.427C285.941 269.816 284.383 269.249 282.875 268.47C281.367 267.691 279.713 266.952 278.143 266.016C276.562 265.1 274.886 264.202 273.296 263.162C271.673 262.158 270.037 261.124 268.456 260.027C266.849 258.966 265.285 257.852 263.76 256.741C262.216 255.656 260.76 254.514 259.326 253.438C256.48 251.26 253.894 249.157 251.707 247.321C249.519 245.484 247.727 243.92 246.488 242.803C245.25 241.686 244.544 241.033 244.544 241.033C244.169 240.69 243.94 240.217 243.904 239.711C243.867 239.204 244.026 238.703 244.348 238.311C244.67 237.918 245.13 237.663 245.633 237.6C246.137 237.536 246.646 237.667 247.055 237.967L247.101 238.001Z" fill="#323947"/>
        <path d="M276.578 209.973C276.578 209.973 279.919 212.282 285.124 215.544C287.73 217.162 290.779 219.022 294.095 220.93C297.412 222.839 300.975 224.805 304.583 226.656C306.374 227.616 308.212 228.457 309.992 229.341C311.772 230.225 313.575 230.97 315.286 231.754C317.013 232.492 318.698 233.148 320.28 233.801L324.787 235.411C326.182 235.878 327.471 236.206 328.603 236.552C329.565 236.845 330.543 237.085 331.532 237.269L334.061 237.817L334.44 237.899C335.725 238.176 336.848 238.952 337.562 240.057C338.275 241.162 338.52 242.505 338.243 243.79C337.966 245.076 337.19 246.199 336.085 246.912C334.98 247.625 333.637 247.87 332.351 247.593C332.216 247.563 332.074 247.527 331.944 247.488L329.006 246.587C327.889 246.268 326.788 245.893 325.708 245.463C324.475 244.969 323.056 244.466 321.571 243.819L316.853 241.647C315.228 240.804 313.499 239.952 311.749 239.012C310.029 238.036 308.22 237.071 306.444 236.01C304.667 234.949 302.851 233.893 301.1 232.743C297.555 230.516 294.085 228.197 290.89 225.952C287.695 223.706 284.759 221.557 282.266 219.691C277.3 215.941 274.08 213.27 274.08 213.27C273.668 212.93 273.404 212.444 273.342 211.913C273.28 211.382 273.425 210.848 273.747 210.422C274.069 209.996 274.543 209.71 275.071 209.625C275.598 209.54 276.138 209.661 276.578 209.965V209.973Z" fill="#323947"/>
    </g>
    <defs>
        <filter id="filter0_d" x="0.993164" y="0.998047" width="488.329" height="350" filterUnits="userSpaceOnUse" color-interpolation-filters="sRGB">
            <feFlood flood-opacity="0" result="BackgroundImageFix"/>
            <feColorMatrix in="SourceAlpha" type="matrix" values="0 0 0 0 0 0 0 0 0 0 0 0 0 0 0 0 0 0 127 0"/>
            <feOffset/>
            <feGaussianBlur stdDeviation="25"/>
            <feColorMatrix type="matrix" values="0 0 0 0 0 0 0 0 0 0 0 0 0 0 0 0 0 0 0.25 0"/>
            <feBlend mode="normal" in2="BackgroundImageFix" result="effect1_dropShadow"/>
            <feBlend mode="normal" in="SourceGraphic" in2="effect1_dropShadow" result="shape"/>
        </filter>
    </defs>
</svg>
