<svg width="173" height="250" viewBox="0 0 173 250" fill="none" xmlns="http://www.w3.org/2000/svg">
    <path d="M6.35831 95.3231C6.18665 95.3226 6.01521 95.3107 5.84518 95.2875C5.37779 95.222 4.9281 95.0663 4.52181 94.8293C4.11552 94.5924 3.76061 94.2788 3.47738 93.9066C3.19414 93.5343 2.98814 93.1107 2.87114 92.6599C2.75415 92.2091 2.72846 91.74 2.79555 91.2794C5.45008 75.8626 10.4995 60.9411 17.7661 47.0404C33.455 17.4404 57.0263 1.1979 85.9237 0.0657218C114.933 -1.0837 138.226 12.8634 153.289 40.3634C160.278 53.3829 164.991 67.4696 167.231 82.0323C167.294 82.4958 167.262 82.9667 167.139 83.4181C167.015 83.8694 166.802 84.2922 166.512 84.662C166.222 85.0319 165.861 85.3415 165.448 85.5729C165.036 85.8044 164.582 85.9532 164.111 86.0107C163.641 86.0682 163.163 86.0333 162.706 85.908C162.249 85.7827 161.822 85.5694 161.449 85.2806C161.076 84.9917 160.765 84.633 160.533 84.225C160.302 83.817 160.155 83.3679 160.1 82.9036C157.92 69.1603 153.449 55.8668 146.868 43.5611C133.008 18.368 112.612 6.11859 86.2106 7.15307C22.6665 9.64043 10.0295 91.4553 9.91055 92.2794C9.78859 93.1229 9.36239 93.8949 8.71001 94.4538C8.05762 95.0128 7.22274 95.3214 6.35831 95.3231Z" fill="#262626"/>
    <path d="M168.902 137.113C168.724 137.113 168.547 137.099 168.372 137.071C152.134 134.71 149.178 108.174 147.223 90.6116C146.9 87.7173 146.6 84.9794 146.274 82.7829C143.974 67.0162 132.832 15.7576 85.6113 18.1323C40.5271 20.399 26.0545 73.6047 24.5443 92.0656C23.3559 106.509 10.7609 111.606 4.26631 112.295C3.32422 112.384 2.38478 112.103 1.65152 111.513C0.918258 110.923 0.450236 110.073 0.348845 109.145C0.247454 108.218 0.52087 107.289 1.10984 106.558C1.69881 105.828 2.55591 105.356 3.49546 105.245C4.0529 105.182 16.3867 103.622 17.3733 91.4989C19.0211 71.4288 35.0214 13.5794 85.237 11.0576C107.062 9.95416 124.505 18.7587 137.047 37.2001C147.938 53.2231 151.958 72.0058 153.383 81.7771C153.722 84.0909 154.031 86.8863 154.364 89.8438C155.973 104.301 158.667 128.501 169.415 130.064C170.313 130.195 171.128 130.656 171.696 131.354C172.265 132.052 172.544 132.936 172.478 133.829C172.413 134.722 172.007 135.557 171.342 136.167C170.678 136.777 169.804 137.117 168.896 137.118L168.902 137.113Z" fill="#262626"/>
    <path d="M42.1047 233.212C41.3315 233.211 40.5791 232.964 39.959 232.509C39.3389 232.054 38.884 231.414 38.6616 230.684C38.4392 229.954 38.4612 229.173 38.7242 228.456C38.9873 227.74 39.4774 227.125 40.1222 226.705C70.9099 206.671 89.6578 178.525 97.4457 140.66C103.091 113.2 102.167 93.3037 94.8358 84.6313C91.9308 81.1968 87.9668 79.5646 82.8332 79.6761C70.4376 79.9152 69.3997 89.6761 68.2207 111.731C67.6609 122.274 67.0253 134.224 64.2346 146.85C55.7878 185.09 21.3323 199.608 19.871 200.214C18.9895 200.575 17.9987 200.576 17.1164 200.217C16.2342 199.858 15.5328 199.168 15.1666 198.299C14.8004 197.43 14.7993 196.454 15.1637 195.584C15.5281 194.714 16.228 194.023 17.1095 193.662C17.6354 193.446 49.6092 179.768 57.2141 145.339C59.8812 133.277 60.4992 121.631 61.045 111.359C62.1447 90.7554 63.0941 72.9681 82.6898 72.5864C90.108 72.4347 96.0276 74.968 100.353 80.091C111.574 93.3669 108.796 121.125 104.487 142.071C96.3052 181.876 76.5415 211.497 44.0779 232.624C43.4934 233.008 42.8068 233.212 42.1047 233.212Z" fill="#262626"/>
    <path d="M100.198 250C99.9985 249.999 99.7992 249.983 99.6021 249.953C72.8575 245.585 63.2655 226.317 62.8667 225.5C62.4544 224.653 62.4004 223.679 62.7167 222.793C63.0329 221.906 63.6935 221.18 64.553 220.774C65.4125 220.367 66.4006 220.314 67.3 220.626C68.1993 220.938 68.9361 221.589 69.3484 222.436C69.682 223.117 77.8617 239.217 100.774 242.955C101.665 243.1 102.468 243.569 103.024 244.27C103.58 244.971 103.848 245.853 103.776 246.74C103.703 247.627 103.295 248.454 102.632 249.058C101.969 249.662 101.1 249.998 100.197 250H100.198Z" fill="#262626"/>
    <path d="M123.353 238.759C123.2 238.759 123.048 238.75 122.896 238.733C86.7774 234.199 75.3148 214.836 74.8401 214.014C74.3808 213.198 74.2668 212.236 74.5228 211.338C74.7789 210.439 75.3843 209.676 76.2075 209.215C77.0308 208.754 78.0054 208.632 78.9195 208.875C79.8337 209.118 80.6136 209.707 81.0898 210.514C81.2472 210.784 91.6136 227.66 123.805 231.697C124.71 231.813 125.537 232.264 126.117 232.959C126.697 233.653 126.988 234.539 126.93 235.436C126.873 236.334 126.471 237.177 125.807 237.793C125.143 238.41 124.266 238.755 123.353 238.759Z" fill="#262626"/>
    <path d="M139.499 223.05H139.482C99.2162 222.827 85.1844 200.866 84.6083 199.937C84.1096 199.137 83.9539 198.174 84.1754 197.26C84.397 196.347 84.9776 195.557 85.7897 195.066C86.6018 194.574 87.5787 194.421 88.5056 194.639C89.4324 194.857 90.2333 195.43 90.7321 196.23C91.2499 197.043 103.524 215.761 139.518 215.959C140.461 215.978 141.358 216.361 142.018 217.026C142.677 217.69 143.045 218.584 143.042 219.513C143.04 220.443 142.667 221.334 142.004 221.996C141.342 222.657 140.442 223.035 139.499 223.05Z" fill="#262626"/>
    <path d="M25.0399 212.342C24.243 212.342 23.4685 212.081 22.8382 211.6C22.2078 211.12 21.7572 210.447 21.557 209.686C21.3569 208.926 21.4185 208.122 21.7323 207.4C22.046 206.678 22.5941 206.079 23.2906 205.697C23.6218 205.517 56.1064 187.477 65.59 160.416C70.1801 147.313 71.2717 131.847 72.2373 118.206C73.4957 100.446 74.3237 88.7164 82.1862 86.5428C83.8095 85.9991 85.5484 85.8808 87.2322 86.1996C88.9159 86.5184 90.4865 87.2633 91.7899 88.3612C98.3836 93.9934 98.0617 108.388 96.6261 119.478C94.5491 135.493 91.9765 155.427 83.2614 170.754C83.0303 171.16 82.7203 171.517 82.3491 171.805C81.978 172.092 81.553 172.305 81.0984 172.431C80.6437 172.557 80.1684 172.593 79.6996 172.538C79.2307 172.483 78.7775 172.337 78.3657 172.109C77.954 171.882 77.5918 171.576 77.2999 171.21C77.008 170.844 76.792 170.426 76.6643 169.977C76.5366 169.529 76.4998 169.061 76.5558 168.599C76.6118 168.137 76.7596 167.69 76.9908 167.284C85.0201 153.158 87.5006 133.984 89.496 118.58C91.454 103.423 89.4225 95.7175 87.0843 93.7302C86.57 93.2876 85.8178 92.9003 84.1186 93.3693C81.139 94.1945 80.094 108.94 79.4072 118.698C78.4602 132.083 77.2835 148.739 72.3831 162.731C61.9876 192.386 28.2062 211.116 26.7741 211.897C26.2442 212.189 25.6471 212.342 25.0399 212.342Z" fill="#262626"/>
    <path d="M32.6388 223.05C31.8229 223.048 31.0316 222.774 30.3947 222.271C29.7578 221.769 29.3132 221.068 29.1338 220.283C28.9544 219.499 29.0509 218.677 29.4074 217.954C29.764 217.231 30.3594 216.648 31.0959 216.302C56.581 204.338 69.2495 180.07 69.3731 179.827C69.5866 179.411 69.8809 179.042 70.2393 178.739C70.5977 178.436 71.0132 178.205 71.4619 178.061C71.9107 177.916 72.384 177.86 72.8548 177.895C73.3256 177.931 73.7847 178.058 74.2058 178.268C74.627 178.478 75.002 178.768 75.3094 179.122C75.6168 179.475 75.8506 179.884 75.9974 180.327C76.1442 180.769 76.2013 181.236 76.1652 181.7C76.1291 182.164 76.0007 182.616 75.7872 183.031C75.2332 184.113 61.8627 209.709 34.1864 222.702C33.7037 222.932 33.1746 223.05 32.6388 223.05Z" fill="#262626"/>
    <path d="M96.1748 193.606C95.5441 193.604 94.925 193.44 94.3792 193.128C93.8334 192.817 93.3801 192.37 93.0648 191.831C92.7494 191.293 92.5829 190.683 92.5821 190.061C92.5812 189.44 92.746 188.829 93.0599 188.29C93.2231 188.016 109.044 160.575 113.21 127.692C117.492 93.9059 109.594 72.2392 91.5554 68.2484C81.8153 66.0967 73.442 67.161 67.3462 71.3415C61.282 75.499 57.5186 82.538 56.167 92.261C55.1559 99.576 54.8842 106.921 54.616 114.022C54.0562 129.02 53.5279 143.185 46.3604 155.641C46.1273 156.046 45.8157 156.401 45.4434 156.686C45.0711 156.972 44.6454 157.182 44.1906 157.306C43.7358 157.429 43.2607 157.463 42.7926 157.405C42.3245 157.348 41.8725 157.2 41.4624 156.97C41.0522 156.74 40.692 156.433 40.4023 156.066C40.1126 155.699 39.8991 155.28 39.7739 154.832C39.6487 154.383 39.6143 153.915 39.6727 153.454C39.7311 152.992 39.8811 152.547 40.1142 152.143C46.4117 141.192 46.9109 127.869 47.4345 113.763C47.5913 106.253 48.1304 98.755 49.0497 91.2978C50.6602 79.6886 55.5688 70.776 63.2494 65.5151C71.0349 60.1748 81.3687 58.7335 93.131 61.3277C115.219 66.2139 125.135 90.722 120.339 128.569C115.99 162.916 99.9649 190.663 99.2862 191.824C98.9736 192.366 98.5209 192.816 97.9744 193.129C97.4278 193.442 96.8069 193.606 96.1748 193.606Z" fill="#262626"/>
    <path d="M12.4555 185.997C11.6134 185.996 10.7984 185.704 10.1525 185.171C9.50654 184.639 9.07058 183.9 8.92057 183.083C8.77057 182.267 8.91603 181.424 9.33162 180.702C9.7472 179.98 10.4066 179.425 11.1948 179.133C18.4159 176.461 27.8645 166.558 30.8955 162.969C31.1978 162.612 31.5686 162.316 31.9867 162.1C32.4048 161.884 32.8621 161.751 33.3323 161.709C33.8026 161.667 34.2766 161.716 34.7275 161.855C35.1783 161.993 35.597 162.218 35.9597 162.516C36.3224 162.814 36.6221 163.179 36.8415 163.591C37.0609 164.003 37.1959 164.454 37.2386 164.917C37.2813 165.381 37.231 165.848 37.0905 166.292C36.95 166.737 36.7221 167.15 36.4198 167.507C35.923 168.094 24.1746 181.902 13.7126 185.773C13.3106 185.921 12.8848 185.997 12.4555 185.997Z" fill="#262626"/>
    <path d="M108.872 204.01C108.44 204.01 108.012 203.932 107.609 203.78C106.717 203.449 105.994 202.782 105.599 201.926C105.204 201.071 105.17 200.096 105.503 199.215C105.651 198.828 120.246 160.358 124.123 148.143C127.377 137.897 138.179 81.5817 111.007 61.2219C98.634 51.9461 83.969 48.8909 70.7816 52.853C65.2586 54.4312 60.1923 57.2739 55.996 61.1491C51.7997 65.0243 48.5923 69.8224 46.6354 75.1518C46.4892 75.6001 46.2539 76.0151 45.943 76.3726C45.6321 76.7301 45.2521 77.0229 44.825 77.2339C44.3979 77.4449 43.9325 77.5697 43.4558 77.6012C42.9792 77.6327 42.501 77.5702 42.0492 77.4173C41.5974 77.2644 41.181 77.0242 40.8246 76.7108C40.4681 76.3974 40.1786 76.017 39.9731 75.592C39.7676 75.1669 39.6502 74.7058 39.6277 74.2355C39.6052 73.7652 39.6781 73.2952 39.8422 72.853C42.1667 66.4628 45.992 60.7053 51.0055 56.0508C56.0191 51.3962 62.0787 47.9766 68.6894 46.0714C84.1148 41.4415 101.117 44.907 115.356 55.5783C145.694 78.315 135.205 136.963 130.983 150.262C127.046 162.663 112.841 200.118 112.235 201.705C111.98 202.381 111.521 202.964 110.92 203.376C110.319 203.788 109.604 204.01 108.872 204.01Z" fill="#262626"/>
    <path d="M120.006 208.728C119.428 208.727 118.858 208.589 118.345 208.325C117.832 208.061 117.391 207.679 117.06 207.212C116.729 206.744 116.517 206.205 116.443 205.639C116.368 205.074 116.433 204.499 116.632 203.963L136.117 151.555C136.28 151.119 136.528 150.718 136.848 150.376C137.168 150.034 137.553 149.758 137.981 149.562C138.41 149.367 138.873 149.257 139.344 149.238C139.816 149.219 140.286 149.292 140.729 149.452C141.172 149.613 141.579 149.858 141.925 150.173C142.272 150.488 142.553 150.867 142.751 151.29C142.949 151.712 143.061 152.168 143.08 152.633C143.099 153.097 143.025 153.561 142.863 153.998L123.382 206.403C123.129 207.085 122.669 207.673 122.065 208.089C121.462 208.505 120.743 208.728 120.006 208.728Z" fill="#262626"/>
    <path d="M131.145 212.342C130.511 212.342 129.887 212.177 129.339 211.864C128.79 211.55 128.335 211.098 128.021 210.555C127.707 210.011 127.544 209.396 127.55 208.77C127.556 208.145 127.73 207.532 128.054 206.994C128.251 206.666 147.646 173.967 152.915 138.021C152.983 137.561 153.142 137.118 153.383 136.718C153.625 136.318 153.944 135.969 154.322 135.691C154.7 135.413 155.13 135.21 155.588 135.096C156.045 134.982 156.521 134.957 156.988 135.024C157.455 135.091 157.904 135.247 158.31 135.485C158.715 135.723 159.07 136.037 159.352 136.41C159.634 136.783 159.839 137.207 159.956 137.658C160.072 138.109 160.097 138.578 160.029 139.038C154.548 176.409 135.072 209.222 134.242 210.604C133.923 211.134 133.47 211.573 132.928 211.877C132.385 212.182 131.77 212.342 131.145 212.342Z" fill="#262626"/>
    <path d="M147.982 210.897C147.178 210.897 146.397 210.63 145.766 210.137C145.018 209.555 144.535 208.704 144.422 207.771C144.31 206.838 144.578 205.9 145.167 205.161C154.153 193.875 157.311 178.447 157.343 178.297C157.527 177.375 158.074 176.563 158.865 176.039C159.656 175.515 160.626 175.322 161.561 175.503C162.496 175.684 163.32 176.223 163.852 177.003C164.383 177.782 164.579 178.738 164.395 179.66C164.258 180.358 160.897 196.881 150.813 209.545C150.476 209.968 150.047 210.309 149.556 210.544C149.065 210.778 148.527 210.899 147.982 210.897Z" fill="#262626"/>
    <path d="M164.367 170.128C163.812 170.127 163.265 170 162.768 169.757C162.271 169.513 161.838 169.16 161.503 168.724C161.168 168.288 160.939 167.782 160.836 167.244C160.732 166.707 160.756 166.153 160.906 165.626C162.638 159.612 163.712 153.433 164.112 147.193C164.143 146.254 164.551 145.366 165.247 144.723C165.942 144.081 166.868 143.737 167.821 143.767C168.774 143.798 169.675 144.2 170.327 144.886C170.979 145.571 171.328 146.484 171.297 147.423C170.888 154.233 169.724 160.978 167.826 167.538C167.615 168.282 167.162 168.938 166.538 169.405C165.914 169.873 165.151 170.126 164.367 170.128Z" fill="#262626"/>
    <path d="M8.92069 174.64C8.11355 174.641 7.32976 174.373 6.69539 173.881C6.06102 173.39 5.61296 172.702 5.42329 171.928C5.23362 171.155 5.31335 170.342 5.64968 169.618C5.986 168.895 6.55935 168.305 7.27751 167.941C7.53874 167.807 30.0861 156.083 34.9294 132.844C35.0247 132.388 35.2101 131.956 35.475 131.571C35.74 131.186 36.0792 130.856 36.4734 130.601C36.8676 130.345 37.309 130.169 37.7724 130.081C38.2358 129.994 38.7122 129.997 39.1743 130.091C39.6365 130.185 40.0753 130.368 40.4657 130.629C40.8562 130.89 41.1907 131.224 41.45 131.613C41.7094 132.001 41.8886 132.436 41.9773 132.893C42.0661 133.35 42.0627 133.819 41.9674 134.275C36.4163 160.925 11.6088 173.72 10.5569 174.252C10.0505 174.507 9.48964 174.641 8.92069 174.64Z" fill="#262626"/>
    <path d="M40.1211 122.928C39.2128 122.927 38.3386 122.587 37.6742 121.976C37.0098 121.366 36.6045 120.53 36.5397 119.637C35.4901 105.084 37.0062 86.7726 37.075 85.9968C37.1144 85.5334 37.246 85.0823 37.4624 84.6691C37.6787 84.2559 37.9755 83.8888 38.3358 83.5887C38.6961 83.2885 39.1128 83.0613 39.5622 82.9199C40.0116 82.7785 40.4848 82.7257 40.9549 82.7646C41.425 82.8035 41.8827 82.9332 42.302 83.1464C42.7212 83.3596 43.0937 83.6521 43.3982 84.0073C43.7027 84.3624 43.9333 84.7731 44.0767 85.216C44.2202 85.659 44.2737 86.1254 44.2343 86.5887C44.2215 86.7726 42.6937 105.134 43.7072 119.132C43.7418 119.597 43.6833 120.063 43.535 120.505C43.3867 120.947 43.1515 121.355 42.8428 121.708C42.5342 122.06 42.1581 122.349 41.7361 122.558C41.3141 122.767 40.8545 122.892 40.3835 122.925C40.2937 122.925 40.2074 122.928 40.1211 122.928Z" fill="#262626"/>
    <path d="M139.288 87.23C138.435 87.2298 137.609 86.9297 136.96 86.3836C136.311 85.8376 135.881 85.0813 135.747 84.2507C131.732 59.7783 113.24 42.7082 87.4665 39.7082C61.3948 36.6692 45.2627 56.6048 45.1006 56.8036C44.8096 57.1699 44.4483 57.4761 44.0373 57.7047C43.6262 57.9334 43.1735 58.08 42.705 58.1362C42.2365 58.1924 41.7613 58.1571 41.3066 58.0323C40.852 57.9075 40.4267 57.6956 40.0551 57.4088C39.6834 57.122 39.3728 56.7659 39.1408 56.3608C38.9088 55.9556 38.7601 55.5094 38.7031 55.0477C38.6461 54.5859 38.6819 54.1175 38.8085 53.6694C38.9351 53.2213 39.1501 52.8021 39.441 52.4358C40.1956 51.4841 58.2414 29.16 88.312 32.6657C116.952 35.9991 138.353 55.8071 142.831 83.1186C142.917 83.6256 142.889 84.145 142.75 84.6405C142.611 85.1359 142.364 85.5955 142.026 85.987C141.688 86.3786 141.267 86.6927 140.793 86.9074C140.319 87.1221 139.804 87.2322 139.282 87.23H139.288Z" fill="#262626"/>
    <path d="M120.365 40.676C119.544 40.6775 118.747 40.3985 118.111 39.8864C97.068 23.0807 72.6652 29.1496 72.425 29.2151C71.5072 29.4445 70.5346 29.3079 69.7183 28.8349C68.9021 28.362 68.308 27.5909 68.065 26.6889C67.8219 25.7869 67.9496 24.8268 68.4202 24.0171C68.8909 23.2073 69.6665 22.6131 70.5789 22.3634C71.7101 22.0611 98.6704 15.237 122.63 34.3772C123.208 34.8385 123.626 35.4648 123.827 36.17C124.029 36.8753 124.004 37.6247 123.756 38.3153C123.507 39.0059 123.048 39.6036 122.441 40.0264C121.834 40.4492 121.109 40.6761 120.365 40.676Z" fill="#262626"/>
    <path d="M5.86375 161.024C5.0954 161.024 4.34735 160.781 3.7291 160.331C3.11085 159.882 2.65484 159.249 2.4278 158.525C2.20076 157.802 2.2146 157.026 2.4673 156.311C2.72001 155.595 3.19832 154.979 3.83222 154.551C4.81417 153.888 27.2402 138.266 24.4484 106.39C24.4053 105.925 24.4558 105.457 24.5969 105.012C24.738 104.567 24.9669 104.154 25.2705 103.796C25.5741 103.438 25.9464 103.143 26.3661 102.928C26.7857 102.713 27.2444 102.581 27.7157 102.541C28.1871 102.501 28.6619 102.553 29.1128 102.694C29.5638 102.835 29.982 103.063 30.3434 103.363C30.7048 103.664 31.0024 104.033 31.2189 104.447C31.4355 104.862 31.5668 105.315 31.6054 105.78C34.7728 141.916 8.981 159.668 7.88244 160.405C7.28842 160.807 6.58468 161.023 5.86375 161.024Z" fill="#262626"/>
    <path d="M3.60377 143.315C2.85355 143.316 2.12177 143.086 1.51074 142.657C0.899718 142.228 0.440009 141.621 0.19588 140.922C-0.0482489 140.223 -0.0645898 139.466 0.149151 138.757C0.362892 138.048 0.796015 137.423 1.38797 136.969C1.51509 136.875 11.9573 128.693 12.5765 117.245C12.6018 116.781 12.7196 116.326 12.9232 115.906C13.1269 115.487 13.4123 115.111 13.7633 114.8C14.1143 114.49 14.5239 114.25 14.9688 114.095C15.4137 113.941 15.8851 113.874 16.3562 113.899C16.8273 113.924 17.2888 114.04 17.7143 114.241C18.1399 114.441 18.5212 114.723 18.8364 115.069C19.1517 115.414 19.3947 115.818 19.5516 116.257C19.7085 116.695 19.7763 117.16 19.751 117.624C18.9568 132.37 6.32685 142.167 5.79156 142.576C5.1655 143.054 4.39597 143.314 3.60377 143.315Z" fill="#262626"/>
    <path d="M141.567 143.315C141.498 143.315 141.424 143.315 141.355 143.309C140.402 143.253 139.51 142.826 138.876 142.123C138.242 141.42 137.917 140.497 137.973 139.558C139.463 115.112 139.227 112.891 138.089 102.234L137.99 101.314C137.936 100.849 137.976 100.378 138.108 99.928C138.239 99.4782 138.46 99.0585 138.757 98.6933C139.055 98.3281 139.422 98.0246 139.839 97.8002C140.256 97.5759 140.714 97.4352 141.187 97.3863C141.659 97.3374 142.136 97.3813 142.592 97.5153C143.047 97.6494 143.47 97.871 143.838 98.1674C144.206 98.4638 144.51 98.8291 144.734 99.2421C144.958 99.6551 145.096 100.108 145.141 100.574L145.233 101.493C146.422 112.632 146.675 114.951 145.149 139.982C145.096 140.883 144.695 141.73 144.029 142.349C143.363 142.969 142.483 143.314 141.567 143.315Z" fill="#262626"/>
</svg>
