<svg width="1918" height="658" fill="none" xmlns="http://www.w3.org/2000/svg"><g clip-path="url(#a)"><path fill="#fff" d="M0 0h1918v658H0z"/><path d="M1927.89-42.039c-10.34 122.005-136.16 195.996-239.42 166.446-90.71-25.961-145.76-15.764-183.01 10.492-70.03 49.355-64.6 144.193-171.06 172.073-80.29 21.027-149.92-44.338-224-12.102-74.07 32.236-43.88 93.799-147.292 179.924-103.411 86.125-178.381-8.185-229.559 60.115" stroke="url(#b)"/><g filter="url(#c)"><circle cx="1381.75" cy="278.617" r="180.343" fill="#fff"/></g><g filter="url(#d)"><path d="M1211.86 429.791a225.438 225.438 0 0 0 136.81 77.136 225.414 225.414 0 0 0 153.98-30.93 225.404 225.404 0 0 0 96.41-123.985 225.457 225.457 0 0 0-7.95-156.856l-25.72 11.071a197.456 197.456 0 0 1 6.97 137.374 197.447 197.447 0 0 1-84.44 108.586 197.411 197.411 0 0 1-134.85 27.089 197.417 197.417 0 0 1-119.82-67.556l-21.39 18.071Z" fill="#E2E4F1"/></g><g filter="url(#e)"><circle cx="1381.75" cy="278.617" r="123.986" fill="#fff"/></g><path opacity=".5" d="M1463.46 225.572c-4.49-9.662-11.15-18.514-19.45-25.908-8.31-7.393-18.25-13.322-29.1-17.321-10.84-4.015-22.58-6.066-34.32-6.07-11.74.004-23.48 2.057-34.33 6.07-10.85 3.999-20.79 9.928-29.09 17.321-8.31 7.394-14.96 16.246-19.46 25.908-4.5 9.656-6.81 20.111-6.81 30.565s2.31 20.908 6.81 30.566c4.5 9.662 11.15 18.514 19.46 25.907 8.3 7.394 18.24 13.322 29.09 17.322 10.84 4.015 22.59 6.066 34.33 6.07 11.74-.004 23.48-2.057 34.32-6.07 10.85-4 20.79-9.928 29.1-17.322 8.3-7.393 14.96-16.245 19.45-25.907a72.297 72.297 0 0 0 6.81-30.566c0-10.454-2.3-20.909-6.81-30.565Zm-1.24 60.672c-4.43 9.515-10.98 18.236-19.16 25.517-8.18 7.285-17.97 13.126-28.66 17.063-10.68 3.953-22.24 5.976-33.81 5.98-11.57-.004-23.13-2.027-33.81-5.98-10.69-3.937-20.48-9.778-28.66-17.063-8.18-7.283-14.74-16.002-19.16-25.517a71.402 71.402 0 0 1-6.72-30.109 71.401 71.401 0 0 1 6.72-30.108c4.42-9.515 10.98-18.236 19.16-25.519 8.18-7.283 17.97-13.124 28.66-17.061 10.68-3.953 22.24-5.976 33.81-5.98 11.57.004 23.13 2.027 33.81 5.98 10.69 3.937 20.48 9.778 28.66 17.061 8.18 7.285 14.73 16.004 19.16 25.519 4.44 9.511 6.71 19.807 6.71 30.108 0 10.302-2.27 20.598-6.71 30.109Z" fill="url(#f)"/><path d="M1318.51 194.899c14.02-11.375 32.07-18.678 50.96-20.641l.67 5.97c-17.48 1.84-34.18 8.606-47.14 19.128-13.19 10.601-22.47 24.719-26.24 39.871l-6.58-1.22c4.06-16.392 14.09-31.66 28.33-43.108Z" fill="url(#g)"/><path d="M1290.18 238.007c4.06-16.392 14.08-31.66 28.33-43.108 14.02-11.375 32.07-18.678 50.96-20.641l.67 5.97c-17.48 1.84-34.18 8.606-47.14 19.128-13.19 10.601-22.47 24.719-26.24 39.871l-6.58-1.22Z" fill="url(#h)"/><path d="m1288.42 257.361 6.73.002c.16 9.95 2.57 19.961 6.99 29.029 4.4 9.074 10.93 17.497 18.92 24.432l-4.61 4.364c-8.65-7.491-15.72-16.602-20.49-26.419-4.78-9.813-7.37-20.647-7.54-31.408Z" fill="url(#i)"/><path d="m1423.66 189.851 3.32-5.2c15.53 8.269 28.33 20.773 36.13 35.331 8.02 14.833 10.85 32.055 7.99 48.501-2.81 16.344-11.38 31.929-24.16 43.888-12.45 11.721-28.88 20.026-46.42 23.468l-1.37-5.875c16.22-3.206 31.42-10.895 42.93-21.738 11.85-11.086 19.81-25.537 22.4-40.688 2.66-15.261.03-31.235-7.4-44.971-7.21-13.471-19.05-25.046-33.42-32.716Z" fill="url(#j)"/><path d="M1427.85 222.491c0 73.022-47.23 83.523-47.23 83.523s-47.24-10.501-47.24-83.523c15.75-1.137 31.16-2.729 47.24-15.83 16.07 13.101 31.48 14.693 47.23 15.83Z" stroke="#3136BD" stroke-miterlimit="10"/><path d="M1380.65 206.682c16.07 13.101 31.49 14.693 47.23 15.83 0 73.022-47.23 83.523-47.23 83.523s-47.23-10.501-47.23-83.523c15.74-1.137 31.16-2.729 47.23-15.83Zm0-3.647-2.04 1.662c-3.71 3.023-7.44 5.472-11.4 7.489-3.55 1.805-7.22 3.222-11.2 4.329-7.47 2.078-15.06 2.754-22.83 3.314l-2.78.2v2.479c0 16.96 2.54 32.014 7.55 44.745 4.05 10.291 9.71 19.103 16.83 26.191 12.29 12.229 24.62 15.079 25.14 15.195l.73.162.73-.162c.52-.116 12.85-2.966 25.14-15.195 7.12-7.088 12.78-15.9 16.83-26.191 5.01-12.731 7.55-27.785 7.55-44.745v-2.479l-2.77-.2c-7.77-.56-15.37-1.236-22.84-3.314-3.98-1.107-7.64-2.524-11.19-4.329-3.97-2.017-7.7-4.468-11.41-7.489l-2.04-1.662Z" stroke="#3136BD" stroke-miterlimit="10"/><mask id="l" style="mask-type:alpha" maskUnits="userSpaceOnUse" x="1330" y="201" width="102" height="105"><path d="M1330.4 201.818v104.181h101.17V201.818H1330.4Z" fill="url(#k)"/></mask><g mask="url(#l)"><path d="M1374.31 212.788c0 .421-.38.764-.85.764-.48 0-.86-.341-.86-.764 0-.421.38-.764.86-.764.47 0 .85.343.85.764ZM1376.99 212.788c0 .421-.39.764-.86.764s-.86-.341-.86-.764c0-.421.38-.764.86-.764.47 0 .86.343.86.764ZM1376.99 210.464c0 .421-.39.764-.86.764s-.86-.341-.86-.764c0-.421.38-.763.86-.763.47 0 .86.342.86.763ZM1379.67 212.788c0 .421-.39.764-.86.764s-.86-.341-.86-.764c0-.421.38-.764.86-.764.47 0 .86.343.86.764ZM1379.67 210.464c0 .421-.39.764-.86.764s-.86-.341-.86-.764c0-.421.38-.763.86-.763.47 0 .86.342.86.763ZM1379.67 208.179c0 .421-.38.764-.86.764-.47 0-.4-.223-.4-.645 0-.421.57-.479.86-.764.47 0 .4.224.4.645ZM1382.35 212.788c0 .421-.39.764-.86.764s-.86-.341-.86-.764c0-.421.38-.764.86-.764.47 0 .86.343.86.764ZM1382.35 210.464c0 .421-.39.764-.86.764s-.86-.341-.86-.764c0-.421.38-.763.86-.763.47 0 .86.342.86.763ZM1382.35 208.179c0 .421-.39.764-.86.764s-.86-.341-.86-.764c0-.421.38-.764.86-.764.47 0 .86.343.86.764ZM1385.02 212.788c0 .421-.38.764-.86.764-.47 0-.86-.341-.86-.764 0-.421.39-.764.86-.764.48 0 .86.343.86.764ZM1385.02 210.464c0 .421-.38.764-.86.764-.47 0-.86-.341-.86-.764 0-.421.39-.763.86-.763.48 0 .86.342.86.763ZM1368.96 215.171c0 .42-.38.763-.85.763-.48 0-.86-.341-.86-.763 0-.421.38-.764.86-.764.47.002.85.343.85.764ZM1371.64 215.171c0 .42-.38.763-.86.763-.47 0-.86-.341-.86-.763 0-.421.39-.764.86-.764.47.002.86.343.86.764ZM1374.31 215.171c0 .42-.38.763-.85.763-.48 0-.86-.341-.86-.763 0-.421.38-.764.86-.764.47.002.85.343.85.764ZM1376.99 215.171c0 .42-.39.763-.86.763s-.86-.341-.86-.763c0-.421.38-.764.86-.764.47.002.86.343.86.764ZM1379.67 215.171c0 .42-.39.763-.86.763s-.86-.341-.86-.763c0-.421.38-.764.86-.764.47.002.86.343.86.764ZM1382.35 215.171c0 .42-.39.763-.86.763s-.86-.341-.86-.763c0-.421.38-.764.86-.764.47.002.86.343.86.764ZM1385.02 215.171c0 .42-.38.763-.86.763-.47 0-.86-.341-.86-.763 0-.421.39-.764.86-.764.48.002.86.343.86.764ZM1363.61 217.555c0 .421-.38.764-.86.764-.47 0-.86-.341-.86-.764 0-.421.39-.764.86-.764s.86.341.86.764ZM1366.28 217.555c0 .421-.38.764-.85.764-.48 0-.86-.341-.86-.764 0-.421.38-.764.86-.764.47 0 .85.341.85.764ZM1368.96 217.555c0 .421-.38.764-.85.764-.48 0-.86-.341-.86-.764 0-.421.38-.764.86-.764.47 0 .85.341.85.764ZM1371.64 217.555c0 .421-.38.764-.86.764-.47 0-.86-.341-.86-.764 0-.421.39-.764.86-.764s.86.341.86.764ZM1374.31 217.555c0 .421-.38.764-.85.764-.48 0-.86-.341-.86-.764 0-.421.38-.764.86-.764.47 0 .85.341.85.764ZM1376.99 217.555c0 .421-.39.764-.86.764s-.86-.341-.86-.764c0-.421.38-.764.86-.764.47 0 .86.341.86.764ZM1379.67 217.555c0 .421-.39.764-.86.764s-.86-.341-.86-.764c0-.421.38-.764.86-.764.47 0 .86.341.86.764ZM1382.35 217.555c0 .421-.39.764-.86.764s-.86-.341-.86-.764c0-.421.38-.764.86-.764.47 0 .86.341.86.764ZM1385.02 217.555c0 .421-.38.764-.86.764-.47 0-.86-.341-.86-.764 0-.421.39-.764.86-.764.48 0 .86.341.86.764ZM1355.58 219.938c0 .421-.38.764-.86.764-.47 0-.85-.341-.85-.764 0-.421.38-.764.85-.764.48 0 .86.343.86.764ZM1358.26 219.938c0 .421-.39.764-.86.764s-.86-.341-.86-.764c0-.421.38-.764.86-.764.47 0 .86.343.86.764ZM1360.94 219.938c0 .421-.39.764-.86.764s-.86-.341-.86-.764c0-.421.38-.764.86-.764.47 0 .86.343.86.764ZM1363.61 219.938c0 .421-.38.764-.86.764-.47 0-.86-.341-.86-.764 0-.421.39-.764.86-.764s.86.343.86.764ZM1366.28 219.938c0 .421-.38.764-.85.764-.48 0-.86-.341-.86-.764 0-.421.38-.764.86-.764.47 0 .85.343.85.764ZM1368.96 219.938c0 .421-.38.764-.85.764-.48 0-.86-.341-.86-.764 0-.421.38-.764.86-.764.47 0 .85.343.85.764ZM1371.64 219.938c0 .421-.38.764-.86.764-.47 0-.86-.341-.86-.764 0-.421.39-.764.86-.764s.86.343.86.764ZM1374.31 219.938c0 .421-.38.764-.85.764-.48 0-.86-.341-.86-.764 0-.421.38-.764.86-.764.47 0 .85.343.85.764ZM1376.99 219.938c0 .421-.39.764-.86.764s-.86-.341-.86-.764c0-.421.38-.764.86-.764.47 0 .86.343.86.764ZM1379.67 219.938c0 .421-.39.764-.86.764s-.86-.341-.86-.764c0-.421.38-.764.86-.764.47 0 .86.343.86.764ZM1382.35 219.938c0 .421-.39.764-.86.764s-.86-.341-.86-.764c0-.421.38-.764.86-.764.47 0 .86.343.86.764ZM1385.02 219.938c0 .421-.38.764-.86.764-.47 0-.86-.341-.86-.764 0-.421.39-.764.86-.764.48 0 .86.343.86.764ZM1336.85 222.32c0 .421-.39.764-.86.764s-.86-.341-.86-.764c0-.421.35-.335.83-.335.47 0 .89-.086.89.335ZM1344.88 222.32c0 .421-.39.764-.86.764s-.86-.341-.86-.764c0-.421.38-.764.86-.764.47 0 .86.343.86.764ZM1347.55 222.32c0 .421-.38.764-.85.764-.48 0-.86-.341-.86-.764 0-.421.38-.764.86-.764.47 0 .85.343.85.764ZM1339.52 222.32c0 .421-.38.764-.86.764-.47 0-.85-.341-.85-.764 0-.421.38-.525.85-.525.48 0 .86.104.86.525ZM1342.21 222.32c0 .421-.39.764-.86.764s-.86-.341-.86-.764c0-.421.38-.764.86-.764.47 0 .86.343.86.764ZM1350.23 222.32c0 .421-.38.764-.86.764-.47 0-.86-.341-.86-.764 0-.421.39-.764.86-.764.48 0 .86.343.86.764ZM1352.9 222.32c0 .421-.38.764-.85.764-.48 0-.86-.341-.86-.764 0-.421.38-.764.86-.764.47 0 .85.343.85.764ZM1355.58 222.32c0 .421-.38.764-.86.764-.47 0-.85-.341-.85-.764 0-.421.38-.764.85-.764.48 0 .86.343.86.764ZM1358.26 222.32c0 .421-.39.764-.86.764s-.86-.341-.86-.764c0-.421.38-.764.86-.764.47 0 .86.343.86.764ZM1360.94 222.32c0 .421-.39.764-.86.764s-.86-.341-.86-.764c0-.421.38-.764.86-.764.47 0 .86.343.86.764ZM1366.28 222.32c0 .421-.38.764-.85.764-.48 0-.86-.341-.86-.764 0-.421.38-.764.86-.764.47 0 .85.343.85.764ZM1363.61 222.32c0 .421-.38.764-.86.764-.47 0-.86-.341-.86-.764 0-.421.39-.764.86-.764s.86.343.86.764ZM1368.96 222.32c0 .421-.38.764-.85.764-.48 0-.86-.341-.86-.764 0-.421.38-.764.86-.764.47 0 .85.343.85.764ZM1371.64 222.32c0 .421-.38.764-.86.764-.47 0-.86-.341-.86-.764 0-.421.39-.764.86-.764s.86.343.86.764ZM1374.31 222.32c0 .421-.38.764-.85.764-.48 0-.86-.341-.86-.764 0-.421.38-.764.86-.764.47 0 .85.343.85.764ZM1376.99 222.32c0 .421-.39.764-.86.764s-.86-.341-.86-.764c0-.421.38-.764.86-.764.47 0 .86.343.86.764ZM1379.67 222.32c0 .421-.39.764-.86.764s-.86-.341-.86-.764c0-.421.38-.764.86-.764.47 0 .86.343.86.764ZM1382.35 222.32c0 .421-.39.764-.86.764s-.86-.341-.86-.764c0-.421.38-.764.86-.764.47 0 .86.343.86.764ZM1385.02 222.32c0 .421-.38.764-.86.764-.47 0-.86-.341-.86-.764 0-.421.39-.764.86-.764.48 0 .86.343.86.764ZM1334.17 224.702c0 .421-.38.764-.86.764-.47 0-.24-.392-.24-.815 0-.421-.23-.712.24-.712.48.002.86.343.86.763ZM1336.85 224.703c0 .421-.39.763-.86.763s-.86-.341-.86-.763c0-.421.38-.764.86-.764.47.002.86.343.86.764ZM1339.52 224.703c0 .421-.38.763-.86.763-.47 0-.85-.341-.85-.763 0-.421.38-.764.85-.764.48.002.86.343.86.764ZM1342.21 224.703c0 .421-.39.763-.86.763s-.86-.341-.86-.763c0-.421.38-.764.86-.764.47.002.86.343.86.764ZM1344.88 224.703c0 .421-.39.763-.86.763s-.86-.341-.86-.763c0-.421.38-.764.86-.764.47.002.86.343.86.764ZM1352.9 224.703c0 .421-.38.763-.85.763-.48 0-.86-.341-.86-.763 0-.421.38-.764.86-.764.47.002.85.343.85.764ZM1355.58 224.703c0 .421-.38.763-.86.763-.47 0-.85-.341-.85-.763 0-.421.38-.764.85-.764.48.002.86.343.86.764ZM1347.55 224.703c0 .421-.38.763-.85.763-.48 0-.86-.341-.86-.763 0-.421.38-.764.86-.764.47.002.85.343.85.764ZM1350.23 224.703c0 .421-.38.763-.86.763-.47 0-.86-.341-.86-.763 0-.421.39-.764.86-.764.48.002.86.343.86.764ZM1360.94 224.703c0 .421-.39.763-.86.763s-.86-.341-.86-.763c0-.421.38-.764.86-.764.47.002.86.343.86.764ZM1358.26 224.703c0 .421-.39.763-.86.763s-.86-.341-.86-.763c0-.421.38-.764.86-.764.47.002.86.343.86.764ZM1363.61 224.703c0 .421-.38.763-.86.763-.47 0-.86-.341-.86-.763 0-.421.39-.764.86-.764.47.002.86.343.86.764ZM1366.28 224.703c0 .421-.38.763-.85.763-.48 0-.86-.341-.86-.763 0-.421.38-.764.86-.764.47.002.85.343.85.764ZM1368.96 224.703c0 .421-.38.763-.85.763-.48 0-.86-.341-.86-.763 0-.421.38-.764.86-.764.47.002.85.343.85.764ZM1371.64 224.703c0 .421-.38.763-.86.763-.47 0-.86-.341-.86-.763 0-.421.39-.764.86-.764.47.002.86.343.86.764ZM1374.31 224.703c0 .421-.38.763-.85.763-.48 0-.86-.341-.86-.763 0-.421.38-.764.86-.764.47.002.85.343.85.764ZM1376.99 224.703c0 .421-.39.763-.86.763s-.86-.341-.86-.763c0-.421.38-.764.86-.764.47.002.86.343.86.764ZM1379.67 224.703c0 .421-.39.763-.86.763s-.86-.341-.86-.763c0-.421.38-.764.86-.764.47.002.86.343.86.764ZM1382.35 224.703c0 .421-.39.763-.86.763s-.86-.341-.86-.763c0-.421.38-.764.86-.764.47.002.86.343.86.764ZM1385.02 224.703c0 .421-.38.763-.86.763-.47 0-.86-.341-.86-.763 0-.421.39-.764.86-.764.48.002.86.343.86.764ZM1336.85 227.087c0 .421-.39.764-.86.764s-.86-.341-.86-.764c0-.421.38-.764.86-.764.47 0 .86.341.86.764ZM1342.21 227.087c0 .421-.39.764-.86.764s-.86-.341-.86-.764c0-.421.38-.764.86-.764.47 0 .86.341.86.764ZM1339.52 227.087c0 .421-.38.764-.86.764-.47 0-.85-.341-.85-.764 0-.421.38-.764.85-.764.48 0 .86.341.86.764ZM1344.88 227.087c0 .421-.39.764-.86.764s-.86-.341-.86-.764c0-.421.38-.764.86-.764.47 0 .86.341.86.764ZM1347.55 227.087c0 .421-.38.764-.85.764-.48 0-.86-.341-.86-.764 0-.421.38-.764.86-.764.47 0 .85.341.85.764ZM1350.23 227.087c0 .421-.38.764-.86.764-.47 0-.86-.341-.86-.764 0-.421.39-.764.86-.764.48 0 .86.341.86.764ZM1352.9 227.087c0 .421-.38.764-.85.764-.48 0-.86-.341-.86-.764 0-.421.38-.764.86-.764.47 0 .85.341.85.764ZM1355.58 227.087c0 .421-.38.764-.86.764-.47 0-.85-.341-.85-.764 0-.421.38-.764.85-.764.48 0 .86.341.86.764ZM1358.26 227.087c0 .421-.39.764-.86.764s-.86-.341-.86-.764c0-.421.38-.764.86-.764.47 0 .86.341.86.764ZM1360.94 227.087c0 .421-.39.764-.86.764s-.86-.341-.86-.764c0-.421.38-.764.86-.764.47 0 .86.341.86.764ZM1363.61 227.087c0 .421-.38.764-.86.764-.47 0-.86-.341-.86-.764 0-.421.39-.764.86-.764s.86.341.86.764ZM1366.28 227.087c0 .421-.38.764-.85.764-.48 0-.86-.341-.86-.764 0-.421.38-.764.86-.764.47 0 .85.341.85.764ZM1368.96 227.087c0 .421-.38.764-.85.764-.48 0-.86-.341-.86-.764 0-.421.38-.764.86-.764.47 0 .85.341.85.764ZM1371.64 227.087c0 .421-.38.764-.86.764-.47 0-.86-.341-.86-.764 0-.421.39-.764.86-.764s.86.341.86.764ZM1374.31 227.087c0 .421-.38.764-.85.764-.48 0-.86-.341-.86-.764 0-.421.38-.764.86-.764.47 0 .85.341.85.764ZM1376.99 227.087c0 .421-.39.764-.86.764s-.86-.341-.86-.764c0-.421.38-.764.86-.764.47 0 .86.341.86.764ZM1379.67 227.087c0 .421-.39.764-.86.764s-.86-.341-.86-.764c0-.421.38-.764.86-.764.47 0 .86.341.86.764ZM1382.35 227.087c0 .421-.39.764-.86.764s-.86-.341-.86-.764c0-.421.38-.764.86-.764.47 0 .86.341.86.764ZM1385.02 227.087c0 .421-.38.764-.86.764-.47 0-.86-.341-.86-.764 0-.421.39-.764.86-.764.48 0 .86.341.86.764ZM1334.17 229.47c0 .421-.38.763-.86.763-.47 0-.21-.34-.21-.763 0-.421-.26-.764.21-.764s.86.343.86.764ZM1336.85 229.47c0 .421-.39.763-.86.763s-.86-.34-.86-.763c0-.421.38-.764.86-.764.47 0 .86.343.86.764ZM1339.52 229.47c0 .421-.38.763-.86.763-.47 0-.85-.34-.85-.763 0-.421.38-.764.85-.764.48 0 .86.343.86.764ZM1344.88 229.47c0 .421-.39.763-.86.763s-.86-.34-.86-.763c0-.421.38-.764.86-.764.47 0 .86.343.86.764ZM1342.21 229.47c0 .421-.39.763-.86.763s-.86-.34-.86-.763c0-.421.38-.764.86-.764.47 0 .86.343.86.764ZM1350.23 229.47c0 .421-.38.763-.86.763-.47 0-.86-.34-.86-.763 0-.421.39-.764.86-.764.48 0 .86.343.86.764ZM1355.58 229.47c0 .421-.38.763-.86.763-.47 0-.85-.34-.85-.763 0-.421.38-.764.85-.764.48 0 .86.343.86.764ZM1358.26 229.47c0 .421-.39.763-.86.763s-.86-.34-.86-.763c0-.421.38-.764.86-.764.47 0 .86.343.86.764ZM1360.94 229.47c0 .421-.39.763-.86.763s-.86-.34-.86-.763c0-.421.38-.764.86-.764.47 0 .86.343.86.764ZM1347.55 229.47c0 .421-.38.763-.85.763-.48 0-.86-.34-.86-.763 0-.421.38-.764.86-.764.47 0 .85.343.85.764ZM1352.9 229.47c0 .421-.38.763-.85.763-.48 0-.86-.34-.86-.763 0-.421.38-.764.86-.764.47 0 .85.343.85.764ZM1363.61 229.47c0 .421-.38.763-.86.763-.47 0-.86-.34-.86-.763 0-.421.39-.764.86-.764s.86.343.86.764ZM1366.28 229.47c0 .421-.38.763-.85.763-.48 0-.86-.34-.86-.763 0-.421.38-.764.86-.764.47 0 .85.343.85.764ZM1368.96 229.47c0 .421-.38.763-.85.763-.48 0-.86-.34-.86-.763 0-.421.38-.764.86-.764.47 0 .85.343.85.764ZM1371.64 229.47c0 .421-.38.763-.86.763-.47 0-.86-.34-.86-.763 0-.421.39-.764.86-.764s.86.343.86.764ZM1374.31 229.47c0 .421-.38.763-.85.763-.48 0-.86-.34-.86-.763 0-.421.38-.764.86-.764.47 0 .85.343.85.764ZM1376.99 229.47c0 .421-.39.763-.86.763s-.86-.34-.86-.763c0-.421.38-.764.86-.764.47 0 .86.343.86.764ZM1379.67 229.47c0 .421-.39.763-.86.763s-.86-.34-.86-.763c0-.421.38-.764.86-.764.47 0 .86.343.86.764ZM1382.35 229.47c0 .421-.39.763-.86.763s-.86-.34-.86-.763c0-.421.38-.764.86-.764.47 0 .86.343.86.764ZM1385.02 229.47c0 .421-.38.763-.86.763-.47 0-.86-.34-.86-.763 0-.421.39-.764.86-.764.48 0 .86.343.86.764ZM1336.85 231.852c0 .421-.39.764-.86.764s-.86-.341-.86-.764c0-.421.38-.764.86-.764.47.002.86.343.86.764ZM1334.17 227.087c0 .421-.38.764-.86.764-.47 0-.24-.341-.24-.764 0-.421-.23-.764.24-.764.48 0 .86.341.86.764ZM1339.52 231.852c0 .421-.38.764-.86.764-.47 0-.85-.341-.85-.764 0-.421.38-.764.85-.764.48.002.86.343.86.764ZM1342.21 231.852c0 .421-.39.764-.86.764s-.86-.341-.86-.764c0-.421.38-.764.86-.764.47.002.86.343.86.764ZM1347.55 231.852c0 .421-.38.764-.85.764-.48 0-.86-.341-.86-.764 0-.421.38-.764.86-.764.47.002.85.343.85.764ZM1350.23 231.852c0 .421-.38.764-.86.764-.47 0-.86-.341-.86-.764 0-.421.39-.764.86-.764.48.002.86.343.86.764ZM1352.9 231.852c0 .421-.38.764-.85.764-.48 0-.86-.341-.86-.764 0-.421.38-.764.86-.764.47.002.85.343.85.764ZM1355.58 231.852c0 .421-.38.764-.86.764-.47 0-.85-.341-.85-.764 0-.421.38-.764.85-.764.48.002.86.343.86.764ZM1360.94 231.852c0 .421-.39.764-.86.764s-.86-.341-.86-.764c0-.421.38-.764.86-.764.47.002.86.343.86.764ZM1366.28 231.852c0 .421-.38.764-.85.764-.48 0-.86-.341-.86-.764 0-.421.38-.764.86-.764.47.002.85.343.85.764ZM1358.26 231.852c0 .421-.39.764-.86.764s-.86-.341-.86-.764c0-.421.38-.764.86-.764.47.002.86.343.86.764ZM1363.61 231.852c0 .421-.38.764-.86.764-.47 0-.86-.341-.86-.764 0-.421.39-.764.86-.764.47.002.86.343.86.764ZM1368.96 231.852c0 .421-.38.764-.85.764-.48 0-.86-.341-.86-.764 0-.421.38-.764.86-.764.47.002.85.343.85.764ZM1371.64 231.852c0 .421-.38.764-.86.764-.47 0-.86-.341-.86-.764 0-.421.39-.764.86-.764.47.002.86.343.86.764ZM1374.31 231.852c0 .421-.38.764-.85.764-.48 0-.86-.341-.86-.764 0-.421.38-.764.86-.764.47.002.85.343.85.764ZM1376.99 231.852c0 .421-.39.764-.86.764s-.86-.341-.86-.764c0-.421.38-.764.86-.764.47.002.86.343.86.764ZM1379.67 231.852c0 .421-.39.764-.86.764s-.86-.341-.86-.764c0-.421.38-.764.86-.764.47.002.86.343.86.764ZM1382.35 231.852c0 .421-.39.764-.86.764s-.86-.341-.86-.764c0-.421.38-.764.86-.764.47.002.86.343.86.764ZM1385.02 231.852c0 .421-.38.764-.86.764-.47 0-.86-.341-.86-.764 0-.421.39-.764.86-.764.48.002.86.343.86.764ZM1336.85 234.237c0 .421-.39.763-.86.763s-.86-.341-.86-.763c0-.421.38-.764.86-.764.47 0 .86.341.86.764ZM1339.52 234.237c0 .421-.38.763-.86.763-.47 0-.85-.341-.85-.763 0-.421.38-.764.85-.764.48 0 .86.341.86.764ZM1342.21 234.237c0 .421-.39.763-.86.763s-.86-.341-.86-.763c0-.421.38-.764.86-.764.47 0 .86.341.86.764ZM1344.88 234.237c0 .421-.39.763-.86.763s-.86-.341-.86-.763c0-.421.38-.764.86-.764.47 0 .86.341.86.764ZM1347.55 234.237c0 .421-.38.763-.85.763-.48 0-.86-.341-.86-.763 0-.421.38-.764.86-.764.47 0 .85.341.85.764ZM1350.23 234.237c0 .421-.38.763-.86.763-.47 0-.86-.341-.86-.763 0-.421.39-.764.86-.764.48 0 .86.341.86.764ZM1352.9 234.237c0 .421-.38.763-.85.763-.48 0-.86-.341-.86-.763 0-.421.38-.764.86-.764.47 0 .85.341.85.764ZM1355.58 234.237c0 .421-.38.763-.86.763-.47 0-.85-.341-.85-.763 0-.421.38-.764.85-.764.48 0 .86.341.86.764ZM1358.26 234.237c0 .421-.39.763-.86.763s-.86-.341-.86-.763c0-.421.38-.764.86-.764.47 0 .86.341.86.764ZM1360.94 234.237c0 .421-.39.763-.86.763s-.86-.341-.86-.763c0-.421.38-.764.86-.764.47 0 .86.341.86.764ZM1363.61 234.237c0 .421-.38.763-.86.763-.47 0-.86-.341-.86-.763 0-.421.39-.764.86-.764s.86.341.86.764ZM1366.28 234.237c0 .421-.38.763-.85.763-.48 0-.86-.341-.86-.763 0-.421.38-.764.86-.764.47 0 .85.341.85.764ZM1368.96 234.237c0 .421-.38.763-.85.763-.48 0-.86-.341-.86-.763 0-.421.38-.764.86-.764.47 0 .85.341.85.764ZM1371.64 234.237c0 .421-.38.763-.86.763-.47 0-.86-.341-.86-.763 0-.421.39-.764.86-.764s.86.341.86.764ZM1374.31 234.237c0 .421-.38.763-.85.763-.48 0-.86-.341-.86-.763 0-.421.38-.764.86-.764.47 0 .85.341.85.764ZM1376.99 234.237c0 .421-.39.763-.86.763s-.86-.341-.86-.763c0-.421.38-.764.86-.764.47 0 .86.341.86.764ZM1379.67 234.237c0 .421-.39.763-.86.763s-.86-.341-.86-.763c0-.421.38-.764.86-.764.47 0 .86.341.86.764ZM1382.35 234.237c0 .421-.39.763-.86.763s-.86-.341-.86-.763c0-.421.38-.764.86-.764.47 0 .86.341.86.764ZM1385.02 234.237c0 .421-.38.763-.86.763-.47 0-.86-.341-.86-.763 0-.421.39-.764.86-.764.48 0 .86.341.86.764ZM1339.52 236.619c0 .421-.38.764-.86.764-.47 0-.85-.341-.85-.764 0-.421.38-.764.85-.764.48 0 .86.343.86.764ZM1342.21 236.619c0 .421-.39.764-.86.764s-.86-.341-.86-.764c0-.421.38-.764.86-.764.47 0 .86.343.86.764ZM1344.88 236.619c0 .421-.39.764-.86.764s-.86-.341-.86-.764c0-.421.38-.764.86-.764.47 0 .86.343.86.764ZM1347.55 236.619c0 .421-.38.764-.85.764-.48 0-.86-.341-.86-.764 0-.421.38-.764.86-.764.47 0 .85.343.85.764ZM1352.9 236.619c0 .421-.38.764-.85.764-.48 0-.86-.341-.86-.764 0-.421.38-.764.86-.764.47 0 .85.343.85.764ZM1358.26 236.619c0 .421-.39.764-.86.764s-.86-.341-.86-.764c0-.421.38-.764.86-.764.47 0 .86.343.86.764ZM1350.23 236.619c0 .421-.38.764-.86.764-.47 0-.86-.341-.86-.764 0-.421.39-.764.86-.764.48 0 .86.343.86.764ZM1355.58 236.619c0 .421-.38.764-.86.764-.47 0-.85-.341-.85-.764 0-.421.38-.764.85-.764.48 0 .86.343.86.764ZM1360.94 236.619c0 .421-.39.764-.86.764s-.86-.341-.86-.764c0-.421.38-.764.86-.764.47 0 .86.343.86.764ZM1363.61 236.619c0 .421-.38.764-.86.764-.47 0-.86-.341-.86-.764 0-.421.39-.764.86-.764s.86.343.86.764ZM1366.28 236.619c0 .421-.38.764-.85.764-.48 0-.86-.341-.86-.764 0-.421.38-.764.86-.764.47 0 .85.343.85.764ZM1368.96 236.619c0 .421-.38.764-.85.764-.48 0-.86-.341-.86-.764 0-.421.38-.764.86-.764.47 0 .85.343.85.764ZM1371.64 236.619c0 .421-.38.764-.86.764-.47 0-.86-.341-.86-.764 0-.421.39-.764.86-.764s.86.343.86.764ZM1374.31 236.619c0 .421-.38.764-.85.764-.48 0-.86-.341-.86-.764 0-.421.38-.764.86-.764.47 0 .85.343.85.764ZM1376.99 236.619c0 .421-.39.764-.86.764s-.86-.341-.86-.764c0-.421.38-.764.86-.764.47 0 .86.343.86.764ZM1379.67 236.619c0 .421-.39.764-.86.764s-.86-.341-.86-.764c0-.421.38-.764.86-.764.47 0 .86.343.86.764ZM1382.35 236.619c0 .421-.39.764-.86.764s-.86-.341-.86-.764c0-.421.38-.764.86-.764.47 0 .86.343.86.764ZM1385.02 236.619c0 .421-.38.764-.86.764-.47 0-.86-.341-.86-.764 0-.421.39-.764.86-.764.48 0 .86.343.86.764ZM1339.52 239.002c0 .421-.38.764-.86.764-.47 0-.85-.341-.85-.764 0-.421.38-.764.85-.764.48 0 .86.343.86.764ZM1336.85 236.619c0 .421-.39.764-.86.764s-.86-.341-.86-.764c0-.421.38-.764.86-.764.47 0 .86.343.86.764ZM1336.85 239.002c0 .421-.39.764-.86.764s-.86-.341-.86-.764c0-.421.38-.764.86-.764.47 0 .86.343.86.764ZM1342.21 239.002c0 .421-.39.764-.86.764s-.86-.341-.86-.764c0-.421.38-.764.86-.764.47 0 .86.343.86.764ZM1347.55 239.002c0 .421-.38.764-.85.764-.48 0-.86-.341-.86-.764 0-.421.38-.764.86-.764.47 0 .85.343.85.764ZM1344.88 231.852c0 .421-.39.764-.86.764s-.86-.341-.86-.764c0-.421.38-.764.86-.764.47.002.86.343.86.764ZM1344.88 239.002c0 .421-.39.764-.86.764s-.86-.341-.86-.764c0-.421.38-.764.86-.764.47 0 .86.343.86.764ZM1350.23 239.002c0 .421-.38.764-.86.764-.47 0-.86-.341-.86-.764 0-.421.39-.764.86-.764.48 0 .86.343.86.764ZM1352.9 239.002c0 .421-.38.764-.85.764-.48 0-.86-.341-.86-.764 0-.421.38-.764.86-.764.47 0 .85.343.85.764ZM1355.58 239.002c0 .421-.38.764-.86.764-.47 0-.85-.341-.85-.764 0-.421.38-.764.85-.764.48 0 .86.343.86.764ZM1358.26 239.002c0 .421-.39.764-.86.764s-.86-.341-.86-.764c0-.421.38-.764.86-.764.47 0 .86.343.86.764ZM1363.61 239.002c0 .421-.38.764-.86.764-.47 0-.86-.341-.86-.764 0-.421.39-.764.86-.764s.86.343.86.764ZM1360.94 239.002c0 .421-.39.764-.86.764s-.86-.341-.86-.764c0-.421.38-.764.86-.764.47 0 .86.343.86.764ZM1366.28 239.002c0 .421-.38.764-.85.764-.48 0-.86-.341-.86-.764 0-.421.38-.764.86-.764.47 0 .85.343.85.764ZM1368.96 239.002c0 .421-.38.764-.85.764-.48 0-.86-.341-.86-.764 0-.421.38-.764.86-.764.47 0 .85.343.85.764ZM1371.64 239.002c0 .421-.38.764-.86.764-.47 0-.86-.341-.86-.764 0-.421.39-.764.86-.764s.86.343.86.764ZM1374.31 239.002c0 .421-.38.764-.85.764-.48 0-.86-.341-.86-.764 0-.421.38-.764.86-.764.47 0 .85.343.85.764ZM1376.99 239.002c0 .421-.39.764-.86.764s-.86-.341-.86-.764c0-.421.38-.764.86-.764.47 0 .86.343.86.764ZM1379.67 239.002c0 .421-.39.764-.86.764s-.86-.341-.86-.764c0-.421.38-.764.86-.764.47 0 .86.343.86.764ZM1382.35 239.002c0 .421-.39.764-.86.764s-.86-.341-.86-.764c0-.421.38-.764.86-.764.47 0 .86.343.86.764ZM1385.02 239.002c0 .421-.38.764-.86.764-.47 0-.86-.341-.86-.764 0-.421.39-.764.86-.764.48 0 .86.343.86.764ZM1336.85 241.384c0 .421-.39.764-.86.764s-.86-.341-.86-.764c0-.421.38-.764.86-.764.47.002.86.343.86.764ZM1339.52 241.384c0 .421-.38.764-.86.764-.47 0-.85-.341-.85-.764 0-.421.38-.764.85-.764.48.002.86.343.86.764ZM1342.21 241.384c0 .421-.39.764-.86.764s-.86-.341-.86-.764c0-.421.38-.764.86-.764.47.002.86.343.86.764ZM1344.88 241.384c0 .421-.39.764-.86.764s-.86-.341-.86-.764c0-.421.38-.764.86-.764.47.002.86.343.86.764ZM1352.9 241.384c0 .421-.38.764-.85.764-.48 0-.86-.341-.86-.764 0-.421.38-.764.86-.764.47.002.85.343.85.764ZM1358.26 241.384c0 .421-.39.764-.86.764s-.86-.341-.86-.764c0-.421.38-.764.86-.764.47.002.86.343.86.764ZM1360.94 241.384c0 .421-.39.764-.86.764s-.86-.341-.86-.764c0-.421.38-.764.86-.764.47.002.86.343.86.764ZM1363.61 241.384c0 .421-.38.764-.86.764-.47 0-.86-.341-.86-.764 0-.421.39-.764.86-.764.47.002.86.343.86.764ZM1366.28 241.384c0 .421-.38.764-.85.764-.48 0-.86-.341-.86-.764 0-.421.38-.764.86-.764.47.002.85.343.85.764ZM1368.96 241.384c0 .421-.38.764-.85.764-.48 0-.86-.341-.86-.764 0-.421.38-.764.86-.764.47.002.85.343.85.764ZM1371.64 241.384c0 .421-.38.764-.86.764-.47 0-.86-.341-.86-.764 0-.421.39-.764.86-.764.47.002.86.343.86.764ZM1374.31 241.384c0 .421-.38.764-.85.764-.48 0-.86-.341-.86-.764 0-.421.38-.764.86-.764.47.002.85.343.85.764ZM1376.99 241.384c0 .421-.39.764-.86.764s-.86-.341-.86-.764c0-.421.38-.764.86-.764.47.002.86.343.86.764ZM1379.67 241.384c0 .421-.39.764-.86.764s-.86-.341-.86-.764c0-.421.38-.764.86-.764.47.002.86.343.86.764ZM1382.35 241.384c0 .421-.39.764-.86.764s-.86-.341-.86-.764c0-.421.38-.764.86-.764.47.002.86.343.86.764ZM1385.02 241.384c0 .421-.38.764-.86.764-.47 0-.86-.341-.86-.764 0-.421.39-.764.86-.764.48.002.86.343.86.764ZM1336.85 243.769c0 .421-.39.764-.86.764s-.86-.341-.86-.764c0-.421.38-.764.86-.764.47 0 .86.341.86.764ZM1342.21 243.769c0 .421-.39.764-.86.764s-.86-.341-.86-.764c0-.421.38-.764.86-.764.47 0 .86.341.86.764ZM1339.52 243.769c0 .421-.38.764-.86.764-.47 0-.85-.341-.85-.764 0-.421.38-.764.85-.764.48 0 .86.341.86.764ZM1344.88 243.769c0 .421-.39.764-.86.764s-.86-.341-.86-.764c0-.421.38-.764.86-.764.47 0 .86.341.86.764ZM1347.55 243.769c0 .421-.38.764-.85.764-.48 0-.86-.341-.86-.764 0-.421.38-.764.86-.764.47 0 .85.341.85.764ZM1352.9 243.769c0 .421-.38.764-.85.764-.48 0-.86-.341-.86-.764 0-.421.38-.764.86-.764.47 0 .85.341.85.764ZM1355.58 243.769c0 .421-.38.764-.86.764-.47 0-.85-.341-.85-.764 0-.421.38-.764.85-.764.48 0 .86.341.86.764ZM1358.26 243.769c0 .421-.39.764-.86.764s-.86-.341-.86-.764c0-.421.38-.764.86-.764.47 0 .86.341.86.764ZM1360.94 243.769c0 .421-.39.764-.86.764s-.86-.341-.86-.764c0-.421.38-.764.86-.764.47 0 .86.341.86.764ZM1363.61 243.769c0 .421-.38.764-.86.764-.47 0-.86-.341-.86-.764 0-.421.39-.764.86-.764s.86.341.86.764ZM1366.28 243.769c0 .421-.38.764-.85.764-.48 0-.86-.341-.86-.764 0-.421.38-.764.86-.764.47 0 .85.341.85.764ZM1368.96 243.769c0 .421-.38.764-.85.764-.48 0-.86-.341-.86-.764 0-.421.38-.764.86-.764.47 0 .85.341.85.764ZM1371.64 243.769c0 .421-.38.764-.86.764-.47 0-.86-.341-.86-.764 0-.421.39-.764.86-.764s.86.341.86.764ZM1374.31 243.769c0 .421-.38.764-.85.764-.48 0-.86-.341-.86-.764 0-.421.38-.764.86-.764.47 0 .85.341.85.764ZM1376.99 243.769c0 .421-.39.764-.86.764s-.86-.341-.86-.764c0-.421.38-.764.86-.764.47 0 .86.341.86.764ZM1379.67 243.769c0 .421-.39.764-.86.764s-.86-.341-.86-.764c0-.421.38-.764.86-.764.47 0 .86.341.86.764ZM1382.35 243.769c0 .421-.39.764-.86.764s-.86-.341-.86-.764c0-.421.38-.764.86-.764.47 0 .86.341.86.764ZM1385.02 243.769c0 .421-.38.764-.86.764-.47 0-.86-.341-.86-.764 0-.421.39-.764.86-.764.48 0 .86.341.86.764ZM1336.85 246.151c0 .421-.39.764-.86.764s-.86-.341-.86-.764c0-.421.38-.763.86-.763.47 0 .86.342.86.763ZM1339.52 246.151c0 .421-.38.764-.86.764-.47 0-.85-.341-.85-.764 0-.421.38-.763.85-.763.48 0 .86.342.86.763ZM1342.21 246.151c0 .421-.39.764-.86.764s-.86-.341-.86-.764c0-.421.38-.763.86-.763.47 0 .86.342.86.763ZM1344.88 246.151c0 .421-.39.764-.86.764s-.86-.341-.86-.764c0-.421.38-.763.86-.763.47 0 .86.342.86.763ZM1347.55 246.151c0 .421-.38.764-.85.764-.48 0-.86-.341-.86-.764 0-.421.38-.763.86-.763.47 0 .85.342.85.763ZM1352.9 246.151c0 .421-.38.764-.85.764-.48 0-.86-.341-.86-.764 0-.421.38-.763.86-.763.47 0 .85.342.85.763ZM1350.23 241.384c0 .421-.38.764-.86.764-.47 0-.86-.341-.86-.764 0-.421.39-.764.86-.764.48.002.86.343.86.764ZM1347.55 241.384c0 .421-.38.764-.85.764-.48 0-.86-.341-.86-.764 0-.421.38-.764.86-.764.47.002.85.343.85.764ZM1350.23 243.769c0 .421-.38.764-.86.764-.47 0-.86-.341-.86-.764 0-.421.39-.764.86-.764.48 0 .86.341.86.764ZM1350.23 246.151c0 .421-.38.764-.86.764-.47 0-.86-.341-.86-.764 0-.421.39-.763.86-.763.48 0 .86.342.86.763ZM1358.26 246.151c0 .421-.39.764-.86.764s-.86-.341-.86-.764c0-.421.38-.763.86-.763.47 0 .86.342.86.763ZM1355.58 241.384c0 .421-.38.764-.86.764-.47 0-.85-.341-.85-.764 0-.421.38-.764.85-.764.48.002.86.343.86.764ZM1355.58 246.151c0 .421-.38.764-.86.764-.47 0-.85-.341-.85-.764 0-.421.38-.763.85-.763.48 0 .86.342.86.763ZM1360.94 246.151c0 .421-.39.764-.86.764s-.86-.341-.86-.764c0-.421.38-.763.86-.763.47 0 .86.342.86.763ZM1363.61 246.151c0 .421-.38.764-.86.764-.47 0-.86-.341-.86-.764 0-.421.39-.763.86-.763s.86.342.86.763ZM1366.28 246.151c0 .421-.38.764-.85.764-.48 0-.86-.341-.86-.764 0-.421.38-.763.86-.763.47 0 .85.342.85.763ZM1368.96 246.151c0 .421-.38.764-.85.764-.48 0-.86-.341-.86-.764 0-.421.38-.763.86-.763.47 0 .85.342.85.763ZM1371.64 246.151c0 .421-.38.764-.86.764-.47 0-.86-.341-.86-.764 0-.421.39-.763.86-.763s.86.342.86.763ZM1374.31 246.151c0 .421-.38.764-.85.764-.48 0-.86-.341-.86-.764 0-.421.38-.763.86-.763.47 0 .85.342.85.763ZM1376.99 246.151c0 .421-.39.764-.86.764s-.86-.341-.86-.764c0-.421.38-.763.86-.763.47 0 .86.342.86.763ZM1379.67 246.151c0 .421-.39.764-.86.764s-.86-.341-.86-.764c0-.421.38-.763.86-.763.47 0 .86.342.86.763ZM1382.35 246.151c0 .421-.39.764-.86.764s-.86-.341-.86-.764c0-.421.38-.763.86-.763.47 0 .86.342.86.763ZM1385.02 246.151c0 .421-.38.764-.86.764-.47 0-.86-.341-.86-.764 0-.421.39-.763.86-.763.48 0 .86.342.86.763ZM1336.84 248.534c0 .421-.38.764-.85.764-.48 0-.6-.44-.78-.745 0-.421.3-.783.78-.783.47.002.85.343.85.764ZM1339.52 248.534c0 .421-.38.764-.86.764-.47 0-.85-.341-.85-.764 0-.421.38-.764.85-.764.48.002.86.343.86.764ZM1342.21 248.534c0 .421-.39.764-.86.764s-.86-.341-.86-.764c0-.421.38-.764.86-.764.47.002.86.343.86.764ZM1344.88 248.534c0 .421-.39.764-.86.764s-.86-.341-.86-.764c0-.421.38-.764.86-.764.47.002.86.343.86.764ZM1350.23 248.534c0 .421-.38.764-.86.764-.47 0-.86-.341-.86-.764 0-.421.39-.764.86-.764.48.002.86.343.86.764ZM1347.55 248.534c0 .421-.38.764-.85.764-.48 0-.86-.341-.86-.764 0-.421.38-.764.86-.764.47.002.85.343.85.764ZM1352.9 248.534c0 .421-.38.764-.85.764-.48 0-.86-.341-.86-.764 0-.421.38-.764.86-.764.47.002.85.343.85.764ZM1358.26 248.534c0 .421-.39.764-.86.764s-.86-.341-.86-.764c0-.421.38-.764.86-.764.47.002.86.343.86.764ZM1355.58 248.534c0 .421-.38.764-.86.764-.47 0-.85-.341-.85-.764 0-.421.38-.764.85-.764.48.002.86.343.86.764ZM1363.61 248.534c0 .421-.38.764-.86.764-.47 0-.86-.341-.86-.764 0-.421.39-.764.86-.764.47.002.86.343.86.764ZM1360.94 248.534c0 .421-.39.764-.86.764s-.86-.341-.86-.764c0-.421.38-.764.86-.764.47.002.86.343.86.764ZM1366.28 248.534c0 .421-.38.764-.85.764-.48 0-.86-.341-.86-.764 0-.421.38-.764.86-.764.47.002.85.343.85.764ZM1368.96 248.534c0 .421-.38.764-.85.764-.48 0-.86-.341-.86-.764 0-.421.38-.764.86-.764.47.002.85.343.85.764ZM1371.64 248.534c0 .421-.38.764-.86.764-.47 0-.86-.341-.86-.764 0-.421.39-.764.86-.764.47.002.86.343.86.764ZM1374.31 248.534c0 .421-.38.764-.85.764-.48 0-.86-.341-.86-.764 0-.421.38-.764.86-.764.47.002.85.343.85.764ZM1376.99 248.534c0 .421-.39.764-.86.764s-.86-.341-.86-.764c0-.421.38-.764.86-.764.47.002.86.343.86.764ZM1379.67 248.534c0 .421-.39.764-.86.764s-.86-.341-.86-.764c0-.421.38-.764.86-.764.47.002.86.343.86.764ZM1382.35 248.534c0 .421-.39.764-.86.764s-.86-.341-.86-.764c0-.421.38-.764.86-.764.47.002.86.343.86.764ZM1385.02 248.534c0 .421-.38.764-.86.764-.47 0-.86-.341-.86-.764 0-.421.39-.764.86-.764.48.002.86.343.86.764ZM1339.52 250.918c0 .421-.38.764-.86.764-.47 0-.85-.341-.85-.764 0-.421.38-.763.85-.763.48 0 .86.34.86.763ZM1336.84 250.918c0 .421-.38.764-.86.764-.47 0-.03-.516-.03-.939 0-.421-.44-.588.03-.588.48 0 .86.34.86.763ZM1347.55 250.918c0 .421-.38.764-.85.764-.48 0-.86-.341-.86-.764 0-.421.38-.763.86-.763.47 0 .85.34.85.763ZM1350.23 250.918c0 .421-.38.764-.86.764-.47 0-.86-.341-.86-.764 0-.421.39-.763.86-.763.48 0 .86.34.86.763ZM1352.9 250.918c0 .421-.38.764-.85.764-.48 0-.86-.341-.86-.764 0-.421.38-.763.86-.763.47 0 .85.34.85.763ZM1355.58 250.918c0 .421-.38.764-.86.764-.47 0-.85-.341-.85-.764 0-.421.38-.763.85-.763.48 0 .86.34.86.763ZM1358.26 250.918c0 .421-.39.764-.86.764s-.86-.341-.86-.764c0-.421.38-.763.86-.763.47 0 .86.34.86.763ZM1360.94 250.918c0 .421-.39.764-.86.764s-.86-.341-.86-.764c0-.421.38-.763.86-.763.47 0 .86.34.86.763ZM1363.61 250.918c0 .421-.38.764-.86.764-.47 0-.86-.341-.86-.764 0-.421.39-.763.86-.763s.86.34.86.763ZM1368.96 250.918c0 .421-.38.764-.85.764-.48 0-.86-.341-.86-.764 0-.421.38-.763.86-.763.47 0 .85.34.85.763ZM1366.28 250.918c0 .421-.38.764-.85.764-.48 0-.86-.341-.86-.764 0-.421.38-.763.86-.763.47 0 .85.34.85.763ZM1371.64 250.918c0 .421-.38.764-.86.764-.47 0-.86-.341-.86-.764 0-.421.39-.763.86-.763s.86.34.86.763ZM1374.31 250.918c0 .421-.38.764-.85.764-.48 0-.86-.341-.86-.764 0-.421.38-.763.86-.763.47 0 .85.34.85.763ZM1376.99 250.918c0 .421-.39.764-.86.764s-.86-.341-.86-.764c0-.421.38-.763.86-.763.47 0 .86.34.86.763ZM1379.67 250.918c0 .421-.39.764-.86.764s-.86-.341-.86-.764c0-.421.38-.763.86-.763.47 0 .86.34.86.763ZM1382.35 250.918c0 .421-.39.764-.86.764s-.86-.341-.86-.764c0-.421.38-.763.86-.763.47 0 .86.34.86.763ZM1385.02 250.918c0 .421-.38.764-.86.764-.47 0-.86-.341-.86-.764 0-.421.39-.763.86-.763.48 0 .86.34.86.763ZM1347.55 253.301c0 .421-.38.764-.85.764-.48 0-.86-.341-.86-.764 0-.421.38-.764.86-.764.47 0 .85.343.85.764ZM1344.88 250.918c0 .421-.39.764-.86.764s-.86-.341-.86-.764c0-.421.38-.763.86-.763.47 0 .86.34.86.763ZM1344.88 253.301c0 .421-.39.764-.86.764s-.86-.341-.86-.764c0-.421.38-.764.86-.764.47 0 .86.343.86.764ZM1342.21 250.918c0 .421-.39.764-.86.764s-.86-.341-.86-.764c0-.421.38-.763.86-.763.47 0 .86.34.86.763ZM1342.21 253.301c0 .421-.39.764-.86.764s-.86-.341-.86-.764c0-.421.38-.764.86-.764.47 0 .86.343.86.764ZM1352.9 253.301c0 .421-.38.764-.85.764-.48 0-.86-.341-.86-.764 0-.421.38-.764.86-.764.47 0 .85.343.85.764ZM1358.26 253.301c0 .421-.39.764-.86.764s-.86-.341-.86-.764c0-.421.38-.764.86-.764.47 0 .86.343.86.764ZM1355.58 253.301c0 .421-.38.764-.86.764-.47 0-.85-.341-.85-.764 0-.421.38-.764.85-.764.48 0 .86.343.86.764ZM1360.94 253.301c0 .421-.39.764-.86.764s-.86-.341-.86-.764c0-.421.38-.764.86-.764.47 0 .86.343.86.764ZM1363.61 253.301c0 .421-.38.764-.86.764-.47 0-.86-.341-.86-.764 0-.421.39-.764.86-.764s.86.343.86.764ZM1366.28 253.301c0 .421-.38.764-.85.764-.48 0-.86-.341-.86-.764 0-.421.38-.764.86-.764.47 0 .85.343.85.764ZM1368.96 253.301c0 .421-.38.764-.85.764-.48 0-.86-.341-.86-.764 0-.421.38-.764.86-.764.47 0 .85.343.85.764ZM1371.64 253.301c0 .421-.38.764-.86.764-.47 0-.86-.341-.86-.764 0-.421.39-.764.86-.764s.86.343.86.764ZM1374.31 253.301c0 .421-.38.764-.85.764-.48 0-.86-.341-.86-.764 0-.421.38-.764.86-.764.47 0 .85.343.85.764ZM1376.99 253.301c0 .421-.39.764-.86.764s-.86-.341-.86-.764c0-.421.38-.764.86-.764.47 0 .86.343.86.764ZM1379.67 253.301c0 .421-.39.764-.86.764s-.86-.341-.86-.764c0-.421.38-.764.86-.764.47 0 .86.343.86.764ZM1382.35 253.301c0 .421-.39.764-.86.764s-.86-.341-.86-.764c0-.421.38-.764.86-.764.47 0 .86.343.86.764ZM1385.02 253.301c0 .421-.38.764-.86.764-.47 0-.86-.341-.86-.764 0-.421.39-.764.86-.764.48 0 .86.343.86.764ZM1342.21 255.684c0 .421-.39.763-.86.763s-.86-.34-.86-.763c0-.421.38-.764.86-.764.47 0 .86.343.86.764ZM1339.52 253.301c0 .421-.38.764-.86.764-.47 0-.85-.341-.85-.764 0-.421.38-.764.85-.764.48 0 .86.343.86.764ZM1339.52 255.684c0 .421-.38.763-.86.763-.47 0-.85-.34-.85-.763 0-.421.38-.764.85-.764.48 0 .86.343.86.764ZM1344.88 255.684c0 .421-.39.763-.86.763s-.86-.34-.86-.763c0-.421.38-.764.86-.764.47 0 .86.343.86.764ZM1347.55 255.684c0 .421-.38.763-.85.763-.48 0-.86-.34-.86-.763 0-.421.38-.764.86-.764.47 0 .85.343.85.764ZM1352.9 255.684c0 .421-.38.763-.85.763-.48 0-.86-.34-.86-.763 0-.421.38-.764.86-.764.47 0 .85.343.85.764ZM1350.23 253.301c0 .421-.38.764-.86.764-.47 0-.86-.341-.86-.764 0-.421.39-.764.86-.764.48 0 .86.343.86.764ZM1350.23 255.684c0 .421-.38.763-.86.763-.47 0-.86-.34-.86-.763 0-.421.39-.764.86-.764.48 0 .86.343.86.764ZM1355.58 255.684c0 .421-.38.763-.86.763-.47 0-.85-.34-.85-.763 0-.421.38-.764.85-.764.48 0 .86.343.86.764ZM1360.94 255.684c0 .421-.39.763-.86.763s-.86-.34-.86-.763c0-.421.38-.764.86-.764.47 0 .86.343.86.764ZM1358.26 255.684c0 .421-.39.763-.86.763s-.86-.34-.86-.763c0-.421.38-.764.86-.764.47 0 .86.343.86.764ZM1363.61 255.684c0 .421-.38.763-.86.763-.47 0-.86-.34-.86-.763 0-.421.39-.764.86-.764s.86.343.86.764ZM1366.28 255.684c0 .421-.38.763-.85.763-.48 0-.86-.34-.86-.763 0-.421.38-.764.86-.764.47 0 .85.343.85.764ZM1368.96 255.684c0 .421-.38.763-.85.763-.48 0-.86-.34-.86-.763 0-.421.38-.764.86-.764.47 0 .85.343.85.764ZM1371.64 255.684c0 .421-.38.763-.86.763-.47 0-.86-.34-.86-.763 0-.421.39-.764.86-.764s.86.343.86.764ZM1374.31 255.684c0 .421-.38.763-.85.763-.48 0-.86-.34-.86-.763 0-.421.38-.764.86-.764.47 0 .85.343.85.764ZM1376.99 255.684c0 .421-.39.763-.86.763s-.86-.34-.86-.763c0-.421.38-.764.86-.764.47 0 .86.343.86.764ZM1379.67 255.684c0 .421-.39.763-.86.763s-.86-.34-.86-.763c0-.421.38-.764.86-.764.47 0 .86.343.86.764ZM1382.35 255.684c0 .421-.39.763-.86.763s-.86-.34-.86-.763c0-.421.38-.764.86-.764.47 0 .86.343.86.764ZM1385.02 255.684c0 .421-.38.763-.86.763-.47 0-.86-.34-.86-.763 0-.421.39-.764.86-.764.48 0 .86.343.86.764ZM1339.52 258.066c0 .421-.38.764-.86.764-.47 0-.85-.341-.85-.764 0-.421.38-.763.85-.763.48.002.86.342.86.763ZM1342.21 258.066c0 .421-.39.764-.86.764s-.86-.341-.86-.764c0-.421.38-.763.86-.763.47.002.86.342.86.763ZM1344.88 258.066c0 .421-.39.764-.86.764s-.86-.341-.86-.764c0-.421.38-.763.86-.763.47.002.86.342.86.763ZM1347.55 258.066c0 .421-.38.764-.85.764-.48 0-.86-.341-.86-.764 0-.421.38-.763.86-.763.47.002.85.342.85.763ZM1350.23 258.066c0 .421-.38.764-.86.764-.47 0-.86-.341-.86-.764 0-.421.39-.763.86-.763.48.002.86.342.86.763ZM1355.58 258.066c0 .421-.38.764-.86.764-.47 0-.85-.341-.85-.764 0-.421.38-.763.85-.763.48.002.86.342.86.763ZM1358.26 258.066c0 .421-.39.764-.86.764s-.86-.341-.86-.764c0-.421.38-.763.86-.763.47.002.86.342.86.763ZM1360.94 258.066c0 .421-.39.764-.86.764s-.86-.341-.86-.764c0-.421.38-.763.86-.763.47.002.86.342.86.763ZM1363.61 258.066c0 .421-.38.764-.86.764-.47 0-.86-.341-.86-.764 0-.421.39-.763.86-.763.47.002.86.342.86.763ZM1366.28 258.066c0 .421-.38.764-.85.764-.48 0-.86-.341-.86-.764 0-.421.38-.763.86-.763.47.002.85.342.85.763ZM1368.96 258.066c0 .421-.38.764-.85.764-.48 0-.86-.341-.86-.764 0-.421.38-.763.86-.763.47.002.85.342.85.763ZM1371.64 258.066c0 .421-.38.764-.86.764-.47 0-.86-.341-.86-.764 0-.421.39-.763.86-.763.47.002.86.342.86.763ZM1374.31 258.066c0 .421-.38.764-.85.764-.48 0-.86-.341-.86-.764 0-.421.38-.763.86-.763.47.002.85.342.85.763ZM1376.99 258.066c0 .421-.39.764-.86.764s-.86-.341-.86-.764c0-.421.38-.763.86-.763.47.002.86.342.86.763ZM1379.67 258.066c0 .421-.39.764-.86.764s-.86-.341-.86-.764c0-.421.38-.763.86-.763.47.002.86.342.86.763ZM1382.35 258.066c0 .421-.39.764-.86.764s-.86-.341-.86-.764c0-.421.38-.763.86-.763.47.002.86.342.86.763ZM1385.02 258.066c0 .421-.38.764-.86.764-.47 0-.86-.341-.86-.764 0-.421.39-.763.86-.763.48.002.86.342.86.763ZM1339.52 260.451c0 .421-.38.763-.86.763-.47 0-.46-.43-.46-.853 0-.421-.01-.674.46-.674.48 0 .86.341.86.764ZM1344.88 260.451c0 .421-.39.763-.86.763s-.86-.341-.86-.763c0-.421.38-.764.86-.764.47 0 .86.341.86.764ZM1342.21 260.451c0 .421-.39.763-.86.763s-.86-.341-.86-.763c0-.421.38-.764.86-.764.47 0 .86.341.86.764ZM1347.55 260.451c0 .421-.38.763-.85.763-.48 0-.86-.341-.86-.763 0-.421.38-.764.86-.764.47 0 .85.341.85.764ZM1350.23 260.451c0 .421-.38.763-.86.763-.47 0-.86-.341-.86-.763 0-.421.39-.764.86-.764.48 0 .86.341.86.764ZM1352.9 260.451c0 .421-.38.763-.85.763-.48 0-.86-.341-.86-.763 0-.421.38-.764.86-.764.47 0 .85.341.85.764ZM1355.58 260.451c0 .421-.38.763-.86.763-.47 0-.85-.341-.85-.763 0-.421.38-.764.85-.764.48 0 .86.341.86.764ZM1358.26 260.451c0 .421-.39.763-.86.763s-.86-.341-.86-.763c0-.421.38-.764.86-.764.47 0 .86.341.86.764ZM1363.61 260.451c0 .421-.38.763-.86.763-.47 0-.86-.341-.86-.763 0-.421.39-.764.86-.764s.86.341.86.764ZM1360.94 260.451c0 .421-.39.763-.86.763s-.86-.341-.86-.763c0-.421.38-.764.86-.764.47 0 .86.341.86.764ZM1366.28 260.451c0 .421-.38.763-.85.763-.48 0-.86-.341-.86-.763 0-.421.38-.764.86-.764.47 0 .85.341.85.764ZM1368.96 260.451c0 .421-.38.763-.85.763-.48 0-.86-.341-.86-.763 0-.421.38-.764.86-.764.47 0 .85.341.85.764ZM1371.64 260.451c0 .421-.38.763-.86.763-.47 0-.86-.341-.86-.763 0-.421.39-.764.86-.764s.86.341.86.764ZM1374.31 260.451c0 .421-.38.763-.85.763-.48 0-.86-.341-.86-.763 0-.421.38-.764.86-.764.47 0 .85.341.85.764ZM1376.99 260.451c0 .421-.39.763-.86.763s-.86-.341-.86-.763c0-.421.38-.764.86-.764.47 0 .86.341.86.764ZM1379.67 260.451c0 .421-.39.763-.86.763s-.86-.341-.86-.763c0-.421.38-.764.86-.764.47 0 .86.341.86.764ZM1382.35 260.451c0 .421-.39.763-.86.763s-.86-.341-.86-.763c0-.421.38-.764.86-.764.47 0 .86.341.86.764ZM1385.02 260.451c0 .421-.38.763-.86.763-.47 0-.86-.341-.86-.763 0-.421.39-.764.86-.764.48 0 .86.341.86.764ZM1352.9 258.066c0 .421-.38.764-.85.764-.48 0-.86-.341-.86-.764 0-.421.38-.763.86-.763.47.002.85.342.85.763Z" fill="#3136BD"/><path d="M1376.99 260.451c0 .421-.38.763-.86.763-.47 0-.85-.341-.85-.763 0-.421.38-.764.85-.764.48 0 .86.343.86.764ZM1382.35 260.451c0 .421-.39.763-.86.763s-.86-.341-.86-.763c0-.421.38-.764.86-.764.47 0 .86.343.86.764ZM1379.67 260.451c0 .421-.39.763-.86.763s-.86-.341-.86-.763c0-.421.38-.764.86-.764.47 0 .86.343.86.764ZM1385.02 260.451c0 .421-.38.763-.86.763-.47 0-.85-.341-.85-.763 0-.421.38-.764.85-.764.48 0 .86.343.86.764ZM1390.37 260.451c0 .421-.38.763-.86.763-.47 0-.86-.341-.86-.763 0-.421.39-.764.86-.764.48 0 .86.343.86.764ZM1387.69 260.451c0 .421-.38.763-.85.763-.48 0-.86-.341-.86-.763 0-.421.38-.764.86-.764.47 0 .85.343.85.764ZM1393.05 260.451c0 .421-.38.763-.86.763-.47 0-.86-.341-.86-.763 0-.421.39-.764.86-.764.48 0 .86.343.86.764ZM1395.72 260.451c0 .421-.38.763-.85.763-.48 0-.86-.341-.86-.763 0-.421.38-.764.86-.764.47 0 .85.343.85.764ZM1398.4 260.451c0 .421-.39.763-.86.763s-.86-.341-.86-.763c0-.421.38-.764.86-.764.47 0 .86.343.86.764ZM1401.07 260.451c0 .421-.38.763-.85.763-.48 0-.86-.341-.86-.763 0-.421.38-.764.86-.764.47 0 .85.343.85.764ZM1406.43 260.451c0 .421-.38.763-.86.763-.47 0-.86-.341-.86-.763 0-.421.39-.764.86-.764s.86.343.86.764ZM1403.75 260.451c0 .421-.38.763-.86.763-.47 0-.86-.341-.86-.763 0-.421.39-.764.86-.764.48 0 .86.343.86.764ZM1409.1 260.451c0 .421-.38.763-.85.763-.48 0-.86-.341-.86-.763 0-.421.38-.764.86-.764.47 0 .85.343.85.764ZM1411.78 260.451c0 .421-.38.763-.85.763-.48 0-.86-.341-.86-.763 0-.421.38-.764.86-.764.47 0 .85.343.85.764ZM1414.46 260.451c0 .421-.39.763-.86.763s-.86-.341-.86-.763c0-.421.38-.764.86-.764.47 0 .86.343.86.764ZM1417.13 260.451c0 .421-.38.763-.86.763-.47 0-.85-.341-.85-.763 0-.421.38-.764.85-.764.48 0 .86.343.86.764ZM1419.81 260.451c0 .421-.39.763-.86.763s-.86-.341-.86-.763c0-.421.38-.764.86-.764.47 0 .86.343.86.764ZM1422.49 260.451c0 .421-.39.763-.86.763s-.86-.341-.86-.763c0-.421.38-.764.86-.764.47 0 .86.343.86.764ZM1379.67 262.833c0 .421-.39.764-.86.764s-.86-.341-.86-.764c0-.421.38-.764.86-.764.47.002.86.343.86.764ZM1385.02 262.833c0 .421-.38.764-.86.764-.47 0-.85-.341-.85-.764 0-.421.38-.764.85-.764.48.002.86.343.86.764ZM1387.69 262.833c0 .421-.38.764-.85.764-.48 0-.86-.341-.86-.764 0-.421.38-.764.86-.764.47.002.85.343.85.764ZM1390.37 262.833c0 .421-.38.764-.86.764-.47 0-.86-.341-.86-.764 0-.421.39-.764.86-.764.48.002.86.343.86.764ZM1395.73 262.833c0 .421-.39.764-.86.764-.48 0-.86-.341-.86-.764 0-.421.38-.764.86-.764.47.002.86.343.86.764ZM1401.07 262.833c0 .421-.38.764-.85.764-.48 0-.86-.341-.86-.764 0-.421.38-.764.86-.764.47.002.85.343.85.764ZM1393.05 262.833c0 .421-.38.764-.86.764-.47 0-.86-.341-.86-.764 0-.421.39-.764.86-.764.48.002.86.343.86.764ZM1398.4 262.833c0 .421-.39.764-.86.764s-.86-.341-.86-.764c0-.421.38-.764.86-.764.47.002.86.343.86.764ZM1403.75 262.833c0 .421-.38.764-.86.764-.47 0-.86-.341-.86-.764 0-.421.39-.764.86-.764.48.002.86.343.86.764ZM1406.43 262.833c0 .421-.38.764-.86.764-.47 0-.86-.341-.86-.764 0-.421.39-.764.86-.764.47.002.86.343.86.764ZM1409.1 262.833c0 .421-.38.764-.85.764-.48 0-.86-.341-.86-.764 0-.421.38-.764.86-.764.47.002.85.343.85.764ZM1411.78 262.833c0 .421-.38.764-.85.764-.48 0-.86-.341-.86-.764 0-.421.38-.764.86-.764.47.002.85.343.85.764ZM1414.46 262.833c0 .421-.39.764-.86.764s-.86-.341-.86-.764c0-.421.38-.764.86-.764.47.002.86.343.86.764ZM1417.13 262.833c0 .421-.38.764-.86.764-.47 0-.85-.341-.85-.764 0-.421.38-.764.85-.764.48.002.86.343.86.764ZM1419.81 262.833c0 .421-.39.764-.86.764s-.86-.341-.86-.764c0-.421.38-.764.86-.764.47.002.86.343.86.764ZM1422.27 262.742c0 .42-.17.855-.64.855s-.86-.341-.86-.764c0-.421.38-.764.86-.764.47.002.64.252.64.673ZM1379.67 265.218c0 .42-.39.763-.86.763s-.86-.341-.86-.763c0-.421.38-.764.86-.764.47 0 .86.341.86.764ZM1376.99 262.833c0 .421-.38.764-.86.764-.47 0-.85-.341-.85-.764 0-.421.38-.764.85-.764.48.002.86.343.86.764ZM1376.99 265.218c0 .421-.38.763-.86.763-.47 0-.85-.341-.85-.763 0-.421.38-.764.85-.764.48 0 .86.341.86.764ZM1385.02 265.218c0 .42-.38.763-.86.763-.47 0-.85-.341-.85-.763 0-.421.38-.764.85-.764.48 0 .86.341.86.764ZM1382.35 262.833c0 .421-.39.764-.86.764s-.86-.341-.86-.764c0-.421.38-.764.86-.764.47.002.86.343.86.764ZM1382.35 265.218c0 .42-.39.763-.86.763s-.86-.341-.86-.763c0-.421.38-.764.86-.764.47 0 .86.341.86.764ZM1387.69 265.218c0 .42-.38.763-.85.763-.48 0-.86-.341-.86-.763 0-.421.38-.764.86-.764.47 0 .85.341.85.764ZM1390.37 265.218c0 .42-.38.763-.86.763-.47 0-.86-.341-.86-.763 0-.421.39-.764.86-.764.48 0 .86.341.86.764ZM1393.05 265.218c0 .42-.38.763-.86.763-.47 0-.86-.341-.86-.763 0-.421.39-.764.86-.764.48 0 .86.341.86.764ZM1395.72 265.218c0 .421-.38.763-.85.763-.48 0-.86-.341-.86-.763 0-.421.38-.764.86-.764.47 0 .85.341.85.764ZM1398.4 265.218c0 .42-.39.763-.86.763s-.86-.341-.86-.763c0-.421.38-.764.86-.764.47 0 .86.341.86.764ZM1401.07 265.218c0 .42-.38.763-.85.763-.48 0-.86-.341-.86-.763 0-.421.38-.764.86-.764.47 0 .85.341.85.764ZM1403.75 265.218c0 .42-.38.763-.86.763-.47 0-.86-.341-.86-.763 0-.421.39-.764.86-.764.48 0 .86.341.86.764ZM1406.43 265.218c0 .42-.38.763-.86.763-.47 0-.86-.341-.86-.763 0-.421.39-.764.86-.764s.86.341.86.764ZM1409.1 265.218c0 .42-.38.763-.85.763-.48 0-.86-.341-.86-.763 0-.421.38-.764.86-.764.47 0 .85.341.85.764ZM1411.78 265.218c0 .42-.38.763-.85.763-.48 0-.86-.341-.86-.763 0-.421.38-.764.86-.764.47 0 .85.341.85.764ZM1414.46 265.218c0 .42-.39.763-.86.763s-.86-.341-.86-.763c0-.421.38-.764.86-.764.47 0 .86.341.86.764ZM1417.13 265.218c0 .42-.38.763-.86.763-.47 0-.85-.341-.85-.763 0-.421.38-.764.85-.764.48 0 .86.341.86.764ZM1419.81 265.218c0 .42-.39.763-.86.763s-.86-.341-.86-.763c0-.421.38-.764.86-.764.47 0 .86.341.86.764ZM1376.99 267.6c0 .421-.38.764-.86.764-.47 0-.85-.341-.85-.764 0-.421.38-.763.85-.763.48 0 .86.342.86.763ZM1379.67 267.6c0 .421-.39.764-.86.764s-.86-.341-.86-.764c0-.421.38-.763.86-.763.47 0 .86.342.86.763ZM1382.35 267.6c0 .421-.39.764-.86.764s-.86-.341-.86-.764c0-.421.38-.763.86-.763.47 0 .86.342.86.763ZM1385.02 267.6c0 .421-.38.764-.86.764-.47 0-.85-.341-.85-.764 0-.421.38-.763.85-.763.48 0 .86.342.86.763ZM1393.05 267.6c0 .421-.38.764-.86.764-.47 0-.86-.341-.86-.764 0-.421.39-.763.86-.763.48 0 .86.342.86.763ZM1395.72 267.6c0 .421-.38.764-.85.764-.48 0-.86-.341-.86-.764 0-.421.38-.763.86-.763.47 0 .85.342.85.763ZM1398.4 267.6c0 .421-.39.764-.86.764s-.86-.341-.86-.764c0-.421.38-.763.86-.763.47 0 .86.342.86.763ZM1401.07 267.6c0 .421-.38.764-.85.764-.48 0-.86-.341-.86-.764 0-.421.38-.763.86-.763.47 0 .85.342.85.763ZM1403.75 267.6c0 .421-.38.764-.86.764-.47 0-.86-.341-.86-.764 0-.421.39-.763.86-.763.48 0 .86.342.86.763ZM1406.43 267.6c0 .421-.38.764-.86.764-.47 0-.86-.341-.86-.764 0-.421.39-.763.86-.763s.86.342.86.763ZM1409.1 267.6c0 .421-.38.764-.85.764-.48 0-.86-.341-.86-.764 0-.421.38-.763.86-.763.47 0 .85.342.85.763ZM1411.78 267.6c0 .421-.38.764-.85.764-.48 0-.86-.341-.86-.764 0-.421.38-.763.86-.763.47 0 .85.342.85.763ZM1414.46 267.6c0 .421-.39.764-.86.764s-.86-.341-.86-.764c0-.421.38-.763.86-.763.47 0 .86.342.86.763ZM1417.13 267.6c0 .421-.38.764-.86.764-.47 0-.85-.341-.85-.764 0-.421.38-.763.85-.763.48 0 .86.342.86.763ZM1419.81 267.6c0 .421-.39.764-.86.764s-.86-.341-.86-.764c0-.421.38-.763.86-.763.47 0 .86.342.86.763ZM1376.99 269.983c0 .421-.38.763-.86.763-.47 0-.85-.34-.85-.763 0-.421.38-.764.85-.764.48.002.86.343.86.764ZM1379.67 269.983c0 .421-.39.763-.86.763s-.86-.34-.86-.763c0-.421.38-.764.86-.764.47.002.86.343.86.764ZM1387.69 269.983c0 .421-.38.763-.85.763-.48 0-.86-.34-.86-.763 0-.421.38-.764.86-.764.47.002.85.343.85.764ZM1390.37 269.983c0 .421-.38.763-.86.763-.47 0-.86-.34-.86-.763 0-.421.39-.764.86-.764.48.002.86.343.86.764ZM1387.69 267.6c0 .421-.38.764-.85.764-.48 0-.86-.341-.86-.764 0-.421.38-.763.86-.763.47 0 .85.342.85.763ZM1390.37 267.6c0 .421-.38.764-.86.764-.47 0-.86-.341-.86-.764 0-.421.39-.763.86-.763.48 0 .86.342.86.763ZM1382.35 269.983c0 .421-.39.763-.86.763s-.86-.34-.86-.763c0-.421.38-.764.86-.764.47.002.86.343.86.764ZM1385.02 269.983c0 .421-.38.763-.86.763-.47 0-.85-.34-.85-.763 0-.421.38-.764.85-.764.48.002.86.343.86.764ZM1393.05 269.983c0 .421-.38.763-.86.763-.47 0-.86-.34-.86-.763 0-.421.39-.764.86-.764.48.002.86.343.86.764ZM1395.72 269.983c0 .421-.38.763-.85.763-.48 0-.86-.34-.86-.763 0-.421.38-.764.86-.764.47.002.85.343.85.764ZM1398.4 269.983c0 .421-.39.763-.86.763s-.86-.34-.86-.763c0-.421.38-.764.86-.764.47.002.86.343.86.764ZM1401.07 269.983c0 .421-.38.763-.85.763-.48 0-.86-.34-.86-.763 0-.421.38-.764.86-.764.47.002.85.343.85.764ZM1403.75 269.983c0 .421-.38.763-.86.763-.47 0-.86-.34-.86-.763 0-.421.39-.764.86-.764.48.002.86.343.86.764ZM1409.1 269.983c0 .421-.38.763-.85.763-.48 0-.86-.34-.86-.763 0-.421.38-.764.86-.764.47.002.85.343.85.764ZM1406.43 269.983c0 .421-.38.763-.86.763-.47 0-.86-.34-.86-.763 0-.421.39-.764.86-.764.47.002.86.343.86.764ZM1411.78 269.983c0 .421-.38.763-.85.763-.48 0-.86-.34-.86-.763 0-.421.38-.764.86-.764.47.002.85.343.85.764ZM1414.46 269.983c0 .421-.39.763-.86.763s-.86-.34-.86-.763c0-.421.38-.764.86-.764.47.002.86.343.86.764ZM1417.13 269.983c0 .421-.38.763-.86.763-.47 0-.85-.34-.85-.763 0-.421.38-.764.85-.764.48.002.86.343.86.764ZM1419.27 269.788c0 .421.15.958-.32.958s-.86-.34-.86-.763c0-.421.38-.764.86-.764.47.002.32.149.32.569ZM1376.99 272.367c0 .421-.38.764-.86.764-.47 0-.85-.341-.85-.764 0-.42.38-.763.85-.763.48 0 .86.341.86.763ZM1379.67 272.367c0 .421-.39.764-.86.764s-.86-.341-.86-.764c0-.42.38-.763.86-.763.47 0 .86.341.86.763ZM1382.35 272.367c0 .421-.39.764-.86.764s-.86-.341-.86-.764c0-.42.38-.763.86-.763.47 0 .86.341.86.763ZM1385.02 272.367c0 .421-.38.764-.86.764-.47 0-.85-.341-.85-.764 0-.42.38-.763.85-.763.48 0 .86.341.86.763ZM1387.69 272.367c0 .421-.38.764-.85.764-.48 0-.86-.341-.86-.764 0-.42.38-.763.86-.763.47 0 .85.341.85.763ZM1395.72 272.367c0 .421-.38.764-.85.764-.48 0-.86-.341-.86-.764 0-.42.38-.763.86-.763.47 0 .85.341.85.763ZM1398.4 272.367c0 .421-.39.764-.86.764s-.86-.341-.86-.764c0-.42.38-.763.86-.763.47 0 .86.341.86.763ZM1390.37 272.367c0 .421-.38.764-.86.764-.47 0-.86-.341-.86-.764 0-.42.39-.763.86-.763.48 0 .86.341.86.763ZM1393.05 272.367c0 .421-.38.764-.86.764-.47 0-.86-.341-.86-.764 0-.42.39-.763.86-.763.48 0 .86.341.86.763ZM1403.75 272.367c0 .421-.38.764-.86.764-.47 0-.86-.341-.86-.764 0-.42.39-.763.86-.763.48 0 .86.341.86.763ZM1401.07 272.367c0 .421-.38.764-.85.764-.48 0-.86-.341-.86-.764 0-.42.38-.763.86-.763.47 0 .85.341.85.763ZM1406.43 272.367c0 .421-.38.764-.86.764-.47 0-.86-.341-.86-.764 0-.42.39-.763.86-.763s.86.341.86.763ZM1409.1 272.367c0 .421-.38.764-.85.764-.48 0-.86-.341-.86-.764 0-.42.38-.763.86-.763.47 0 .85.341.85.763ZM1411.78 272.367c0 .421-.38.764-.85.764-.48 0-.86-.341-.86-.764 0-.42.38-.763.86-.763.47 0 .85.341.85.763ZM1414.46 272.367c0 .421-.39.764-.86.764s-.86-.341-.86-.764c0-.42.38-.763.86-.763.47 0 .86.341.86.763ZM1417.13 272.367c0 .421-.38.764-.86.764-.47 0-.85-.341-.85-.764 0-.42.38-.763.85-.763.48 0 .86.341.86.763ZM1379.67 274.75c0 .421-.39.764-.86.764s-.86-.341-.86-.764c0-.421.38-.764.86-.764.47 0 .86.343.86.764ZM1385.02 274.75c0 .421-.38.764-.86.764-.47 0-.85-.341-.85-.764 0-.421.38-.764.85-.764.48 0 .86.343.86.764ZM1382.35 274.75c0 .421-.39.764-.86.764s-.86-.341-.86-.764c0-.421.38-.764.86-.764.47 0 .86.343.86.764ZM1387.69 274.75c0 .421-.38.764-.85.764-.48 0-.86-.341-.86-.764 0-.421.38-.764.86-.764.47 0 .85.343.85.764ZM1390.37 274.75c0 .421-.38.764-.86.764-.47 0-.86-.341-.86-.764 0-.421.39-.764.86-.764.48 0 .86.343.86.764ZM1393.05 274.75c0 .421-.38.764-.86.764-.47 0-.86-.341-.86-.764 0-.421.39-.764.86-.764.48 0 .86.343.86.764ZM1395.72 274.75c0 .421-.38.764-.85.764-.48 0-.86-.341-.86-.764 0-.421.38-.764.86-.764.47 0 .85.343.85.764ZM1398.4 274.75c0 .421-.39.764-.86.764s-.86-.341-.86-.764c0-.421.38-.764.86-.764.47 0 .86.343.86.764ZM1401.07 274.75c0 .421-.38.764-.85.764-.48 0-.86-.341-.86-.764 0-.421.38-.764.86-.764.47 0 .85.343.85.764ZM1403.75 274.75c0 .421-.38.764-.86.764-.47 0-.86-.341-.86-.764 0-.421.39-.764.86-.764.48 0 .86.343.86.764ZM1406.43 274.75c0 .421-.38.764-.86.764-.47 0-.86-.341-.86-.764 0-.421.39-.764.86-.764s.86.343.86.764ZM1409.1 274.75c0 .421-.38.764-.85.764-.48 0-.86-.341-.86-.764 0-.421.38-.764.86-.764.47 0 .85.343.85.764ZM1411.78 274.75c0 .421-.38.764-.85.764-.48 0-.86-.341-.86-.764 0-.421.38-.764.86-.764.47 0 .85.343.85.764ZM1414.46 274.75c0 .421-.39.764-.86.764s-.86-.341-.86-.764c0-.421.38-.764.86-.764.47 0 .86.343.86.764ZM1417.13 274.75c0 .421-.38.764-.86.764-.47 0-.85-.341-.85-.764 0-.421.38-.764.85-.764.48 0 .86.343.86.764ZM1376.99 277.132c0 .421-.38.764-.86.764-.47 0-.85-.341-.85-.764 0-.421.38-.763.85-.763.48 0 .86.342.86.763ZM1379.67 277.132c0 .421-.39.764-.86.764s-.86-.341-.86-.764c0-.421.38-.763.86-.763.47 0 .86.342.86.763ZM1382.35 277.132c0 .421-.39.764-.86.764s-.86-.341-.86-.764c0-.421.38-.763.86-.763.47 0 .86.342.86.763ZM1387.69 277.132c0 .421-.38.764-.85.764-.48 0-.86-.341-.86-.764 0-.421.38-.763.86-.763.47 0 .85.342.85.763ZM1385.02 277.132c0 .421-.38.764-.86.764-.47 0-.85-.341-.85-.764 0-.421.38-.763.85-.763.48 0 .86.342.86.763ZM1393.05 277.132c0 .421-.38.764-.86.764-.47 0-.86-.341-.86-.764 0-.421.39-.763.86-.763.48 0 .86.342.86.763ZM1398.4 277.132c0 .421-.39.764-.86.764s-.86-.341-.86-.764c0-.421.38-.763.86-.763.47 0 .86.342.86.763ZM1401.07 277.132c0 .421-.38.764-.85.764-.48 0-.86-.341-.86-.764 0-.421.38-.763.86-.763.47 0 .85.342.85.763ZM1403.75 277.132c0 .421-.38.764-.86.764-.47 0-.86-.341-.86-.764 0-.421.39-.763.86-.763.48 0 .86.342.86.763ZM1390.37 277.132c0 .421-.38.764-.86.764-.47 0-.86-.341-.86-.764 0-.421.39-.763.86-.763.48 0 .86.342.86.763ZM1395.72 277.132c0 .421-.38.764-.85.764-.48 0-.86-.341-.86-.764 0-.421.38-.763.86-.763.47 0 .85.342.85.763ZM1406.43 277.132c0 .421-.38.764-.86.764-.47 0-.86-.341-.86-.764 0-.421.39-.763.86-.763s.86.342.86.763ZM1409.1 277.132c0 .421-.38.764-.85.764-.48 0-.86-.341-.86-.764 0-.421.38-.763.86-.763.47 0 .85.342.85.763ZM1411.78 277.132c0 .421-.38.764-.85.764-.48 0-.86-.341-.86-.764 0-.421.38-.763.86-.763.47 0 .85.342.85.763ZM1414.46 277.132c0 .421-.39.764-.86.764s-.86-.341-.86-.764c0-.421.38-.763.86-.763.47 0 .86.342.86.763ZM1379.67 279.515c0 .421-.39.764-.86.764s-.86-.341-.86-.764c0-.421.38-.764.86-.764.47.002.86.343.86.764ZM1376.99 274.75c0 .421-.38.764-.86.764-.47 0-.85-.341-.85-.764 0-.421.38-.764.85-.764.48 0 .86.343.86.764ZM1376.99 279.515c0 .421-.38.764-.86.764-.47 0-.85-.341-.85-.764 0-.421.38-.764.85-.764.48.002.86.343.86.764ZM1382.35 279.515c0 .421-.39.764-.86.764s-.86-.341-.86-.764c0-.421.38-.764.86-.764.47.002.86.343.86.764ZM1385.02 279.515c0 .421-.38.764-.86.764-.47 0-.85-.341-.85-.764 0-.421.38-.764.85-.764.48.002.86.343.86.764ZM1390.37 279.515c0 .421-.38.764-.86.764-.47 0-.86-.341-.86-.764 0-.421.39-.764.86-.764.48.002.86.343.86.764ZM1393.05 279.515c0 .421-.38.764-.86.764-.47 0-.86-.341-.86-.764 0-.421.39-.764.86-.764.48.002.86.343.86.764ZM1395.72 279.515c0 .421-.38.764-.85.764-.48 0-.86-.341-.86-.764 0-.421.38-.764.86-.764.47.002.85.343.85.764ZM1398.4 279.515c0 .421-.39.764-.86.764s-.86-.341-.86-.764c0-.421.38-.764.86-.764.47.002.86.343.86.764ZM1403.75 279.515c0 .421-.38.764-.86.764-.47 0-.86-.341-.86-.764 0-.421.39-.764.86-.764.48.002.86.343.86.764ZM1409.1 279.515c0 .421-.38.764-.85.764-.48 0-.86-.341-.86-.764 0-.421.38-.764.86-.764.47.002.85.343.85.764ZM1401.07 279.515c0 .421-.38.764-.85.764-.48 0-.86-.341-.86-.764 0-.421.38-.764.86-.764.47.002.85.343.85.764ZM1406.43 279.515c0 .421-.38.764-.86.764-.47 0-.86-.341-.86-.764 0-.421.39-.764.86-.764.47.002.86.343.86.764ZM1411.78 279.515c0 .421-.38.764-.85.764-.48 0-.86-.341-.86-.764 0-.421.38-.764.86-.764.47.002.85.343.85.764ZM1414.35 279.406c0 .421-.28.873-.75.873s-.86-.341-.86-.764c0-.421.38-.764.86-.764.47.002.75.234.75.655ZM1376.99 281.9c0 .42-.38.763-.86.763-.47 0-.85-.341-.85-.763 0-.421.38-.764.85-.764.48 0 .86.341.86.764ZM1379.67 281.9c0 .421-.39.763-.86.763s-.86-.341-.86-.763c0-.421.38-.764.86-.764.47 0 .86.341.86.764ZM1382.35 281.9c0 .421-.39.763-.86.763s-.86-.341-.86-.763c0-.421.38-.764.86-.764.47 0 .86.341.86.764ZM1385.02 281.9c0 .421-.38.763-.86.763-.47 0-.85-.341-.85-.763 0-.421.38-.764.85-.764.48 0 .86.341.86.764ZM1387.69 281.9c0 .421-.38.763-.85.763-.48 0-.86-.341-.86-.763 0-.421.38-.764.86-.764.47 0 .85.341.85.764ZM1390.37 281.9c0 .421-.38.763-.86.763-.47 0-.86-.341-.86-.763 0-.421.39-.764.86-.764.48 0 .86.341.86.764ZM1393.05 281.9c0 .421-.38.763-.86.763-.47 0-.86-.341-.86-.763 0-.421.39-.764.86-.764.48 0 .86.341.86.764ZM1395.72 281.9c0 .42-.38.763-.85.763-.48 0-.86-.341-.86-.763 0-.421.38-.764.86-.764.47 0 .85.341.85.764ZM1398.4 281.9c0 .421-.39.763-.86.763s-.86-.341-.86-.763c0-.421.38-.764.86-.764.47 0 .86.341.86.764ZM1401.07 281.9c0 .421-.38.763-.85.763-.48 0-.86-.341-.86-.763 0-.421.38-.764.86-.764.47 0 .85.341.85.764ZM1403.75 281.9c0 .421-.38.763-.86.763-.47 0-.86-.341-.86-.763 0-.421.39-.764.86-.764.48 0 .86.341.86.764ZM1406.43 281.9c0 .421-.38.763-.86.763-.47 0-.86-.341-.86-.763 0-.421.39-.764.86-.764s.86.341.86.764ZM1409.1 281.9c0 .421-.38.763-.85.763-.48 0-.86-.341-.86-.763 0-.421.38-.764.86-.764.47 0 .85.341.85.764ZM1411.78 281.9c0 .421-.38.763-.85.763-.48 0-.86-.341-.86-.763 0-.421.38-.764.86-.764.47 0 .85.341.85.764ZM1376.99 284.282c0 .421-.38.763-.86.763-.47 0-.85-.34-.85-.763 0-.421.38-.764.85-.764.48 0 .86.343.86.764ZM1382.35 284.282c0 .421-.39.764-.86.764s-.86-.341-.86-.764c0-.421.38-.764.86-.764.47 0 .86.343.86.764ZM1385.02 284.282c0 .421-.38.764-.86.764-.47 0-.85-.341-.85-.764 0-.421.38-.764.85-.764.48 0 .86.343.86.764ZM1387.69 284.282c0 .421-.38.764-.85.764-.48 0-.86-.341-.86-.764 0-.421.38-.764.86-.764.47 0 .85.343.85.764ZM1390.37 284.282c0 .421-.38.764-.86.764-.47 0-.86-.341-.86-.764 0-.421.39-.764.86-.764.48 0 .86.343.86.764ZM1395.72 284.282c0 .421-.38.763-.85.763-.48 0-.86-.34-.86-.763 0-.421.38-.764.86-.764.47 0 .85.343.85.764ZM1401.07 284.282c0 .421-.38.764-.85.764-.48 0-.86-.341-.86-.764 0-.421.38-.764.86-.764.47 0 .85.343.85.764ZM1393.05 284.282c0 .421-.38.764-.86.764-.47 0-.86-.341-.86-.764 0-.421.39-.764.86-.764.48 0 .86.343.86.764ZM1398.4 284.282c0 .421-.39.764-.86.764s-.86-.341-.86-.764c0-.421.38-.764.86-.764.47 0 .86.343.86.764ZM1403.75 284.282c0 .421-.38.764-.86.764-.47 0-.86-.341-.86-.764 0-.421.39-.764.86-.764.48 0 .86.343.86.764ZM1406.43 284.282c0 .421-.38.764-.86.764-.47 0-.86-.341-.86-.764 0-.421.39-.764.86-.764s.86.343.86.764ZM1409.1 284.282c0 .421-.38.764-.85.764-.48 0-.86-.341-.86-.764 0-.421.38-.764.86-.764.47 0 .85.343.85.764ZM1376.99 286.665c0 .42-.38.763-.86.763-.47 0-.85-.341-.85-.763 0-.421.38-.764.85-.764.48.002.86.343.86.764ZM1382.35 286.665c0 .421-.39.763-.86.763s-.86-.34-.86-.763c0-.421.38-.764.86-.764.47.002.86.343.86.764ZM1379.67 284.282c0 .421-.39.764-.86.764s-.86-.341-.86-.764c0-.421.38-.764.86-.764.47 0 .86.343.86.764ZM1379.67 286.665c0 .421-.39.763-.86.763s-.86-.34-.86-.763c0-.421.38-.764.86-.764.47.002.86.343.86.764ZM1385.02 286.665c0 .421-.38.763-.86.763-.47 0-.85-.34-.85-.763 0-.421.38-.764.85-.764.48.002.86.343.86.764ZM1390.37 286.665c0 .421-.38.763-.86.763-.47 0-.86-.34-.86-.763 0-.421.39-.764.86-.764.48.002.86.343.86.764ZM1387.69 279.515c0 .421-.38.764-.85.764-.48 0-.86-.341-.86-.764 0-.421.38-.764.86-.764.47.002.85.343.85.764ZM1387.69 286.665c0 .421-.38.763-.85.763-.48 0-.86-.34-.86-.763 0-.421.38-.764.86-.764.47.002.85.343.85.764ZM1393.05 286.665c0 .421-.38.763-.86.763-.47 0-.86-.34-.86-.763 0-.421.39-.764.86-.764.48.002.86.343.86.764ZM1395.72 286.665c0 .42-.38.763-.85.763-.48 0-.86-.341-.86-.763 0-.421.38-.764.86-.764.47.002.85.343.85.764ZM1398.4 286.665c0 .421-.39.763-.86.763s-.86-.34-.86-.763c0-.421.38-.764.86-.764.47.002.86.343.86.764ZM1401.07 286.665c0 .421-.38.763-.85.763-.48 0-.86-.34-.86-.763 0-.421.38-.764.86-.764.47.002.85.343.85.764ZM1406.43 286.665c0 .421-.38.763-.86.763-.47 0-.86-.34-.86-.763 0-.421.39-.764.86-.764.47.002.86.343.86.764ZM1403.75 286.665c0 .421-.38.763-.86.763-.47 0-.86-.34-.86-.763 0-.421.39-.764.86-.764.48.002.86.343.86.764ZM1409.1 286.665c0 .421-.38.763-.85.763-.48 0-.86-.34-.86-.763 0-.421.38-.764.86-.764.47.002.85.343.85.764ZM1376.99 289.049c0 .421-.38.764-.86.764-.47 0-.85-.341-.85-.764 0-.421.38-.764.85-.764.48 0 .86.341.86.764ZM1379.67 289.049c0 .421-.39.764-.86.764s-.86-.341-.86-.764c0-.421.38-.764.86-.764.47 0 .86.341.86.764ZM1382.35 289.049c0 .421-.39.764-.86.764s-.86-.341-.86-.764c0-.421.38-.764.86-.764.47 0 .86.341.86.764ZM1385.02 289.049c0 .421-.38.764-.86.764-.47 0-.85-.341-.85-.764 0-.421.38-.764.85-.764.48 0 .86.341.86.764ZM1387.69 289.049c0 .421-.38.764-.85.764-.48 0-.86-.341-.86-.764 0-.421.38-.764.86-.764.47 0 .85.341.85.764ZM1395.72 289.049c0 .421-.38.764-.85.764-.48 0-.86-.341-.86-.764 0-.421.38-.764.86-.764.47 0 .85.341.85.764ZM1401.07 289.049c0 .421-.38.764-.85.764-.48 0-.86-.341-.86-.764 0-.421.38-.764.86-.764.47 0 .85.341.85.764ZM1403.75 289.049c0 .421-.38.764-.86.764-.47 0-.86-.341-.86-.764 0-.421.39-.764.86-.764.48 0 .86.341.86.764ZM1406.43 289.049c0 .421-.38.764-.86.764-.47 0-.86-.341-.86-.764 0-.421.39-.764.86-.764s.86.341.86.764ZM1376.99 291.431c0 .421-.38.764-.86.764-.47 0-.85-.341-.85-.764 0-.42.38-.763.85-.763.48 0 .86.343.86.763ZM1379.67 291.432c0 .421-.39.763-.86.763s-.86-.341-.86-.763c0-.421.38-.764.86-.764.47 0 .86.343.86.764ZM1385.02 291.432c0 .421-.38.763-.86.763-.47 0-.85-.341-.85-.763 0-.421.38-.764.85-.764.48 0 .86.343.86.764ZM1382.35 291.432c0 .421-.39.763-.86.763s-.86-.341-.86-.763c0-.421.38-.764.86-.764.47 0 .86.343.86.764ZM1387.69 291.432c0 .421-.38.763-.85.763-.48 0-.86-.341-.86-.763 0-.421.38-.764.86-.764.47 0 .85.343.85.764ZM1390.37 291.432c0 .421-.38.763-.86.763-.47 0-.86-.341-.86-.763 0-.421.39-.764.86-.764.48 0 .86.343.86.764ZM1395.72 291.431c0 .421-.38.764-.85.764-.48 0-.86-.341-.86-.764 0-.42.38-.763.86-.763.47 0 .85.343.85.763ZM1398.4 291.432c0 .421-.39.763-.86.763s-.86-.341-.86-.763c0-.421.38-.764.86-.764.47 0 .86.343.86.764ZM1401.07 291.432c0 .421-.38.763-.85.763-.48 0-.86-.341-.86-.763 0-.421.38-.764.86-.764.47 0 .85.343.85.764ZM1403.75 291.432c0 .421-.38.763-.86.763-.47 0-.86-.341-.86-.763 0-.421.39-.764.86-.764.48 0 .86.343.86.764ZM1376.99 293.814c0 .421-.38.764-.86.764-.47 0-.85-.341-.85-.764 0-.421.38-.764.85-.764.48 0 .86.343.86.764ZM1379.67 293.814c0 .421-.39.763-.86.763s-.86-.34-.86-.763c0-.421.38-.764.86-.764.47 0 .86.343.86.764ZM1382.35 293.814c0 .421-.39.763-.86.763s-.86-.34-.86-.763c0-.421.38-.764.86-.764.47 0 .86.343.86.764ZM1385.02 293.814c0 .421-.38.763-.86.763-.47 0-.85-.34-.85-.763 0-.421.38-.764.85-.764.48 0 .86.343.86.764ZM1387.69 293.814c0 .421-.38.763-.85.763-.48 0-.86-.34-.86-.763 0-.421.38-.764.86-.764.47 0 .85.343.85.764ZM1390.37 293.814c0 .421-.38.763-.86.763-.47 0-.86-.34-.86-.763 0-.421.39-.764.86-.764.48 0 .86.343.86.764ZM1395.72 293.814c0 .421-.38.764-.85.764-.48 0-.86-.341-.86-.764 0-.421.38-.764.86-.764.47 0 .85.343.85.764ZM1393.05 289.049c0 .421-.38.764-.86.764-.47 0-.86-.341-.86-.764 0-.421.39-.764.86-.764.48 0 .86.341.86.764ZM1390.37 289.049c0 .421-.38.764-.86.764-.47 0-.86-.341-.86-.764 0-.421.39-.764.86-.764.48 0 .86.341.86.764ZM1393.05 291.432c0 .421-.38.763-.86.763-.47 0-.86-.341-.86-.763 0-.421.39-.764.86-.764.48 0 .86.343.86.764ZM1393.05 293.814c0 .421-.38.763-.86.763-.47 0-.86-.34-.86-.763 0-.421.39-.764.86-.764.48 0 .86.343.86.764ZM1401.07 293.814c0 .421-.38.763-.85.763-.48 0-.86-.34-.86-.763 0-.421.38-.764.86-.764.47 0 .85.343.85.764ZM1398.4 289.049c0 .421-.39.764-.86.764s-.86-.341-.86-.764c0-.421.38-.764.86-.764.47 0 .86.341.86.764ZM1398.4 293.814c0 .421-.39.763-.86.763s-.86-.34-.86-.763c0-.421.38-.764.86-.764.47 0 .86.343.86.764ZM1379.67 296.197c0 .421-.39.763-.86.763s-.86-.34-.86-.763c0-.421.38-.764.86-.764.47.002.86.343.86.764ZM1382.35 296.197c0 .421-.39.763-.86.763s-.86-.34-.86-.763c0-.421.38-.764.86-.764.47.002.86.343.86.764ZM1385.02 296.197c0 .421-.38.763-.86.763-.47 0-.85-.34-.85-.763 0-.421.38-.764.85-.764.48.002.86.343.86.764ZM1387.69 296.197c0 .421-.38.763-.85.763-.48 0-.86-.34-.86-.763 0-.421.38-.764.86-.764.47.002.85.343.85.764ZM1393.05 296.197c0 .421-.38.763-.86.763-.47 0-.86-.34-.86-.763 0-.421.39-.764.86-.764.48.002.86.343.86.764ZM1390.37 296.197c0 .421-.38.763-.86.763-.47 0-.86-.34-.86-.763 0-.421.39-.764.86-.764.48.002.86.343.86.764ZM1395.72 296.197c0 .421-.38.763-.85.763-.48 0-.86-.341-.86-.763 0-.421.38-.764.86-.764.47.002.85.343.85.764ZM1398.4 296.197c0 .421-.39.763-.86.763s-.86-.34-.86-.763c0-.421.38-.764.86-.764.47.002.86.343.86.764ZM1376.99 298.581c0 .421-.38.764-.86.764-.47 0-.85-.341-.85-.764 0-.421.38-.763.85-.763.48 0 .86.34.86.763ZM1382.35 298.581c0 .421-.39.764-.86.764s-.86-.341-.86-.764c0-.421.38-.763.86-.763.47 0 .86.34.86.763ZM1379.67 298.581c0 .421-.39.764-.86.764s-.86-.341-.86-.764c0-.421.38-.763.86-.763.47 0 .86.34.86.763ZM1390.37 298.581c0 .421-.38.764-.86.764-.47 0-.86-.341-.86-.764 0-.421.39-.763.86-.763.48 0 .86.34.86.763ZM1393.05 298.581c0 .421-.38.764-.86.764-.47 0-.86-.341-.86-.764 0-.421.39-.763.86-.763.48 0 .86.34.86.763ZM1395.73 298.581c0 .421-.39.764-.86.764-.48 0-.86-.341-.86-.764 0-.421.38-.763.86-.763.47 0 .86.34.86.763ZM1376.99 300.964c0 .421-.38.763-.86.763-.47 0-.85-.341-.85-.763 0-.421.38-.764.85-.764.48 0 .86.343.86.764ZM1379.67 300.964c0 .421-.39.763-.86.763s-.86-.341-.86-.763c0-.421.38-.764.86-.764.47 0 .86.343.86.764ZM1390.37 300.964c0 .421-.38.763-.86.763-.47 0-.86-.341-.86-.763 0-.421.39-.764.86-.764.48 0 .86.343.86.764ZM1387.69 298.581c0 .421-.38.764-.85.764-.48 0-.86-.341-.86-.764 0-.421.38-.763.86-.763.47 0 .85.34.85.763ZM1387.69 300.964c0 .421-.38.763-.85.763-.48 0-.86-.341-.86-.763 0-.421.38-.764.86-.764.47 0 .85.343.85.764ZM1385.02 298.581c0 .421-.38.764-.86.764-.47 0-.85-.341-.85-.764 0-.421.38-.763.85-.763.48 0 .86.34.86.763ZM1385.02 300.964c0 .421-.38.763-.86.763-.47 0-.85-.341-.85-.763 0-.421.38-.764.85-.764.48 0 .86.343.86.764ZM1376.99 303.346c0 .421-.38.764-.86.764-.47 0-.85-.341-.85-.764 0-.421.38-.763.85-.763.48.001.86.342.86.763ZM1379.67 303.346c0 .421-.39.764-.86.764s-.86-.341-.86-.764c0-.421.38-.764.86-.764.47.002.86.343.86.764ZM1385.02 303.346c0 .421-.38.764-.86.764-.47 0-.85-.341-.85-.764 0-.421.38-.764.85-.764.48.002.86.343.86.764ZM1382.35 300.964c0 .421-.39.763-.86.763s-.86-.341-.86-.763c0-.421.38-.764.86-.764.47 0 .86.343.86.764ZM1382.35 303.346c0 .421-.39.764-.86.764s-.86-.341-.86-.764c0-.421.38-.764.86-.764.47.002.86.343.86.764ZM1387.69 303.346c0 .421-.38.764-.85.764-.48 0-.86-.341-.86-.764 0-.421.38-.764.86-.764.47.002.85.343.85.764ZM1393.07 300.737c0 .421-1.02.857-1.5.857-.47 0-.24-.208-.24-.63 0-.421.38-.764.86-.764.47 0 .88.116.88.537ZM1379.67 305.731c0 .421-.35.053-.82.053-.48 0-.43-.053-.9-.053 0-.421.38-.764.86-.764.47 0 .86.341.86.764ZM1382.35 305.731c0 .421-.39.339-.86.339s-.86.084-.86-.339c0-.421.38-.764.86-.764.47 0 .86.341.86.764ZM1376.99 296.197c0 .421-.38.763-.86.763-.47 0-.85-.341-.85-.763 0-.421.38-.764.85-.764.48.002.86.343.86.764Z" fill="#3136BD"/><path d="M1381.19 334.971c49.49 0 89.61-35.511 89.61-79.316s-40.12-79.316-89.61-79.316-89.61 35.511-89.61 79.316 40.12 79.316 89.61 79.316Z" stroke="url(#m)" stroke-width="1.061" stroke-miterlimit="10"/></g></g><defs><linearGradient id="b" x1="264.757" y1="714.558" x2="2042.27" y2="-155.01" gradientUnits="userSpaceOnUse"><stop offset=".325" stop-color="#F8F8FE"/><stop offset="1" stop-color="#494FE1" stop-opacity=".93"/></linearGradient><linearGradient id="f" x1="1285.57" y1="185.179" x2="1445.65" y2="335.942" gradientUnits="userSpaceOnUse"><stop offset="0" stop-color="#3D4FC7"/><stop offset=".254" stop-color="#3D4FC7" stop-opacity=".72"/><stop offset=".391" stop-color="#3D4FC7" stop-opacity=".64"/><stop offset=".501" stop-color="#3D4FC7" stop-opacity=".48"/><stop offset=".595" stop-color="#3D4FC7" stop-opacity=".4"/><stop offset=".68" stop-color="#3D4FC7" stop-opacity=".32"/><stop offset=".759" stop-color="#3D4FC7" stop-opacity=".24"/><stop offset=".832" stop-color="#6266C6" stop-opacity=".16"/><stop offset=".901" stop-color="#6266C6" stop-opacity=".1"/><stop offset=".965" stop-color="#6266C6" stop-opacity=".03"/><stop offset="1" stop-opacity="0"/><stop offset="1" stop-color="#EFF0F8"/></linearGradient><linearGradient id="g" x1="1479.85" y1="322.023" x2="1322.4" y2="169.385" gradientUnits="userSpaceOnUse"><stop offset="0" stop-color="#3D4FC7"/><stop offset=".254" stop-color="#3D4FC7" stop-opacity=".72"/><stop offset=".391" stop-color="#3D4FC7" stop-opacity=".6"/><stop offset=".501" stop-color="#3D4FC7" stop-opacity=".5"/><stop offset=".595" stop-color="#3D4FC7" stop-opacity=".4"/><stop offset=".68" stop-color="#3D4FC7" stop-opacity=".32"/><stop offset=".759" stop-color="#3D4FC7" stop-opacity=".24"/><stop offset=".832" stop-color="#3D4FC7" stop-opacity=".16"/><stop offset=".901" stop-color="#3D4FC7" stop-opacity=".08"/><stop offset=".94" stop-color="#6266C6" stop-opacity=".04"/><stop offset=".965" stop-color="#3D4FC7" stop-opacity=".04"/><stop offset="1" stop-color="#3D4FC7" stop-opacity=".02"/></linearGradient><linearGradient id="h" x1="1479.85" y1="322.023" x2="1322.4" y2="169.385" gradientUnits="userSpaceOnUse"><stop offset="0" stop-color="#3D4FC7"/><stop offset=".254" stop-color="#3D4FC7" stop-opacity=".72"/><stop offset=".391" stop-color="#3D4FC7" stop-opacity=".64"/><stop offset=".501" stop-color="#3D4FC7" stop-opacity=".64"/><stop offset=".595" stop-color="#3D4FC7" stop-opacity=".4"/><stop offset=".68" stop-color="#3D4FC7" stop-opacity=".32"/><stop offset=".759" stop-color="#3D4FC7" stop-opacity=".24"/><stop offset=".832" stop-color="#3D4FC7" stop-opacity=".16"/><stop offset=".901" stop-color="#3D4FC7" stop-opacity=".08"/><stop offset=".965" stop-color="#3D4FC7" stop-opacity=".04"/><stop offset="1" stop-color="#3D4FC7" stop-opacity="0"/></linearGradient><linearGradient id="i" x1="1427.53" y1="377.88" x2="1268.07" y2="226.747" gradientUnits="userSpaceOnUse"><stop offset="0" stop-color="#3D4FC7"/><stop offset=".254" stop-color="#3D4FC7" stop-opacity=".72"/><stop offset=".391" stop-color="#3D4FC7" stop-opacity=".6"/><stop offset=".501" stop-color="#3D4FC7" stop-opacity=".48"/><stop offset=".595" stop-color="#3D4FC7" stop-opacity=".4"/><stop offset=".68" stop-color="#3D4FC7" stop-opacity=".4"/><stop offset=".759" stop-color="#3D4FC7" stop-opacity=".24"/><stop offset=".832" stop-color="#3D4FC7" stop-opacity=".16"/><stop offset=".901" stop-color="#3D4FC7" stop-opacity=".08"/><stop offset=".965" stop-color="#3D4FC7" stop-opacity=".04"/><stop offset="1" stop-color="#3D4FC7" stop-opacity="0"/></linearGradient><linearGradient id="j" x1="1487.68" y1="312.329" x2="1322.51" y2="166.321" gradientUnits="userSpaceOnUse"><stop offset="0" stop-color="#3D4FC7"/><stop offset=".122" stop-color="#3D4FC7" stop-opacity=".8"/><stop offset=".254" stop-color="#3D4FC7" stop-opacity=".72"/><stop offset=".391" stop-color="#3D4FC7" stop-opacity=".6"/><stop offset=".501" stop-color="#3D4FC7" stop-opacity=".48"/><stop offset=".595" stop-color="#3D4FC7" stop-opacity=".4"/><stop offset=".68" stop-color="#3D4FC7" stop-opacity=".32"/><stop offset=".759" stop-color="#3D4FC7" stop-opacity=".24"/><stop offset=".832" stop-color="#3D4FC7" stop-opacity=".16"/><stop offset=".865" stop-color="#4E54D1" stop-opacity=".122"/><stop offset=".901" stop-color="#3D4FC7" stop-opacity=".08"/><stop offset=".965" stop-color="#3D4FC7" stop-opacity=".04"/><stop offset="1" stop-opacity="0"/><stop offset="1" stop-color="#6266C6" stop-opacity="0"/><stop offset="1" stop-color="#3D4FC7" stop-opacity="0"/></linearGradient><linearGradient id="k" x1="1431.56" y1="253.908" x2="1330.4" y2="253.908" gradientUnits="userSpaceOnUse"><stop offset=".443" stop-color="#fff"/><stop offset=".589" stop-color="#A1A1A1"/><stop offset=".732" stop-color="#4A4A4A"/><stop offset=".832" stop-color="#151515"/><stop offset=".88"/></linearGradient><linearGradient id="m" x1="1312.44" y1="204.621" x2="1435.86" y2="321.552" gradientUnits="userSpaceOnUse"><stop stop-color="#57C3F9" stop-opacity=".2"/><stop offset=".489" stop-color="#57C3F9"/><stop offset=".761" stop-color="#57C3F9"/><stop offset="1" stop-color="#57C3F9" stop-opacity=".5"/></linearGradient><filter id="c" x="1121.41" y="18.274" width="520.686" height="520.685" filterUnits="userSpaceOnUse" color-interpolation-filters="sRGB"><feFlood flood-opacity="0" result="BackgroundImageFix"/><feColorMatrix in="SourceAlpha" values="0 0 0 0 0 0 0 0 0 0 0 0 0 0 0 0 0 0 127 0" result="hardAlpha"/><feOffset/><feGaussianBlur stdDeviation="40"/><feComposite in2="hardAlpha" operator="out"/><feColorMatrix values="0 0 0 0 0.777767 0 0 0 0 0.797986 0 0 0 0 0.865384 0 0 0 0.4 0"/><feBlend in2="BackgroundImageFix" result="effect1_dropShadow_3031_173718"/><feBlend in="SourceGraphic" in2="effect1_dropShadow_3031_173718" result="shape"/></filter><filter id="d" x="1131.86" y="115.156" width="557.615" height="474.565" filterUnits="userSpaceOnUse" color-interpolation-filters="sRGB"><feFlood flood-opacity="0" result="BackgroundImageFix"/><feColorMatrix in="SourceAlpha" values="0 0 0 0 0 0 0 0 0 0 0 0 0 0 0 0 0 0 127 0" result="hardAlpha"/><feOffset/><feGaussianBlur stdDeviation="40"/><feComposite in2="hardAlpha" operator="out"/><feColorMatrix values="0 0 0 0 0.777767 0 0 0 0 0.797986 0 0 0 0 0.865384 0 0 0 0.4 0"/><feBlend in2="BackgroundImageFix" result="effect1_dropShadow_3031_173718"/><feBlend in="SourceGraphic" in2="effect1_dropShadow_3031_173718" result="shape"/></filter><filter id="e" x="1225.77" y="122.631" width="311.971" height="311.971" filterUnits="userSpaceOnUse" color-interpolation-filters="sRGB"><feFlood flood-opacity="0" result="BackgroundImageFix"/><feColorMatrix in="SourceAlpha" values="0 0 0 0 0 0 0 0 0 0 0 0 0 0 0 0 0 0 127 0" result="hardAlpha"/><feOffset/><feGaussianBlur stdDeviation="16"/><feComposite in2="hardAlpha" operator="out"/><feColorMatrix values="0 0 0 0 0.886275 0 0 0 0 0.894118 0 0 0 0 0.945098 0 0 0 0.6 0"/><feBlend in2="BackgroundImageFix" result="effect1_dropShadow_3031_173718"/><feBlend in="SourceGraphic" in2="effect1_dropShadow_3031_173718" result="shape"/></filter><clipPath id="a"><path fill="#fff" d="M0 0h1918v658H0z"/></clipPath></defs></svg>