<svg width="744" height="361" fill="none" xmlns="http://www.w3.org/2000/svg"><g clip-path="url(#a)"><path fill="#fff" d="M0 0h744v361H0z"/><path fill="#fff" d="M0-199h744v560H0z"/><path d="M795.508-47c-6.021 77.681-79.232 124.793-139.315 105.977-52.785-16.53-84.817-10.036-106.493 6.68-40.748 31.426-37.585 91.81-99.534 109.561-46.722 13.388-87.238-28.23-130.34-7.705-43.102 20.525-25.535 59.723-85.708 114.559-60.173 54.837-103.797-5.212-133.577 38.276" stroke="url(#b)"/><g filter="url(#c)"><circle cx="477.721" cy="141.888" r="104.938" fill="#fff"/></g><g filter="url(#d)"><path d="M378.863 229.854a131.173 131.173 0 0 0 220.675-136.53l-14.964 6.442a114.883 114.883 0 0 1-123.547 158.883 114.884 114.884 0 0 1-69.72-39.31l-12.444 10.515Z" fill="#E2E4F1"/></g><g filter="url(#e)"><circle cx="477.719" cy="141.888" r="72.145" fill="#fff"/></g><path opacity=".5" d="M525.271 123.39c-2.614-6.152-6.488-11.788-11.319-16.496a52.443 52.443 0 0 0-16.929-11.028c-6.31-2.557-13.143-3.863-19.974-3.865-6.831.002-13.662 1.31-19.973 3.865a52.432 52.432 0 0 0-16.929 11.028c-4.832 4.708-8.706 10.344-11.319 16.496a49.736 49.736 0 0 0 0 38.923c2.613 6.151 6.487 11.788 11.319 16.495a52.409 52.409 0 0 0 16.929 11.029c6.31 2.556 13.142 3.862 19.973 3.865 6.831-.003 13.663-1.31 19.974-3.865a52.42 52.42 0 0 0 16.929-11.029c4.831-4.707 8.705-10.344 11.319-16.495a49.758 49.758 0 0 0 3.966-19.462 49.753 49.753 0 0 0-3.966-19.461Zm-.722 38.631c-2.574 6.058-6.391 11.611-11.15 16.246a51.582 51.582 0 0 1-16.674 10.864c-6.215 2.518-12.943 3.806-19.675 3.808-6.731-.002-13.459-1.29-19.674-3.808a51.59 51.59 0 0 1-16.676-10.864c-4.759-4.637-8.576-10.188-11.148-16.246a49.02 49.02 0 0 1-3.908-19.171 49.015 49.015 0 0 1 3.908-19.17c2.572-6.059 6.389-11.611 11.148-16.248a51.652 51.652 0 0 1 16.676-10.863c6.215-2.517 12.943-3.805 19.674-3.808 6.732.003 13.46 1.29 19.675 3.808a51.611 51.611 0 0 1 16.674 10.863c4.759 4.638 8.576 10.189 11.15 16.248a49.015 49.015 0 0 1 3.908 19.17 49.056 49.056 0 0 1-3.908 19.171Z" fill="url(#f)"/><path d="M440.905 103.862c8.156-7.221 18.665-11.85 29.67-13.083l.397 3.796c-10.183 1.156-19.903 5.444-27.447 12.124-7.672 6.73-13.067 15.699-15.253 25.329l-3.833-.78c2.352-10.419 8.179-20.119 16.466-27.386Z" fill="url(#g)"/><path d="M424.438 131.248c2.353-10.419 8.179-20.119 16.467-27.386 8.156-7.221 18.665-11.85 29.67-13.083l.397 3.796c-10.183 1.156-19.903 5.444-27.447 12.124-7.672 6.73-13.067 15.699-15.253 25.329l-3.834-.78Z" fill="url(#h)"/><path d="m423.412 143.631 3.914.002a47.503 47.503 0 0 0 4.076 18.481c2.565 5.778 6.369 11.141 11.026 15.557l-2.685 2.778c-5.041-4.771-9.159-10.572-11.934-16.823a51.215 51.215 0 0 1-4.397-19.995Z" fill="url(#i)"/><path d="m502.197 100.707 1.95-3.312c9.071 5.238 16.535 13.173 21.072 22.422 4.665 9.423 6.297 20.373 4.593 30.838-1.665 10.4-6.708 20.325-14.202 27.949-7.296 7.473-16.923 12.779-27.186 14.993l-.79-3.736c9.489-2.061 18.392-6.973 25.143-13.886 6.948-7.069 11.625-16.271 13.167-25.912 1.581-9.71.069-19.867-4.258-28.594-4.195-8.558-11.098-15.903-19.489-20.762Z" fill="url(#j)"/><path d="M504.54 121.429c0 46.493-27.483 53.18-27.483 53.18s-27.483-6.687-27.483-53.18c9.161-.724 18.132-1.738 27.483-10.079 9.353 8.341 18.322 9.355 27.483 10.079Z" stroke="#3136BD" stroke-miterlimit="10"/><path d="M477.078 111.363c9.351 8.342 18.322 9.355 27.483 10.079 0 46.494-27.483 53.18-27.483 53.18s-27.483-6.686-27.483-53.18c9.161-.724 18.132-1.737 27.483-10.079Zm0-2.322-1.187 1.058c-2.157 1.925-4.328 3.484-6.636 4.768a32.948 32.948 0 0 1-6.514 2.757c-4.348 1.323-8.766 1.753-13.288 2.11l-1.615.127v1.579c0 10.798 1.478 20.383 4.393 28.489 2.356 6.552 5.653 12.163 9.796 16.676 7.148 7.787 14.323 9.601 14.625 9.675l.426.103.426-.103c.302-.074 7.477-1.888 14.625-9.675 4.145-4.513 7.44-10.124 9.796-16.676 2.915-8.106 4.393-17.691 4.393-28.489v-1.579l-1.615-.127c-4.522-.357-8.94-.787-13.288-2.11a32.948 32.948 0 0 1-6.514-2.757c-2.309-1.284-4.479-2.844-6.636-4.768l-1.187-1.058Z" stroke="#3136BD" stroke-miterlimit="10"/><mask id="l" style="mask-type:alpha" maskUnits="userSpaceOnUse" x="447" y="108" width="60" height="67"><path d="M447.838 108.266v66.333h58.866v-66.333h-58.866Z" fill="url(#k)"/></mask><g mask="url(#l)"><path d="M473.391 115.251a.493.493 0 0 1-.499.486.493.493 0 0 1-.499-.486c0-.268.222-.487.499-.487.276 0 .499.219.499.487ZM474.945 115.251a.492.492 0 0 1-.499.486.493.493 0 0 1-.499-.486c0-.268.223-.487.499-.487.277 0 .499.219.499.487ZM474.945 113.771a.492.492 0 0 1-.499.486.493.493 0 0 1-.499-.486c0-.268.223-.486.499-.486.277 0 .499.218.499.486ZM476.506 115.251a.493.493 0 0 1-.499.486.493.493 0 0 1-.499-.486c0-.268.223-.487.499-.487.275 0 .499.219.499.487ZM476.506 113.771a.493.493 0 0 1-.499.486.493.493 0 0 1-.499-.486c0-.268.223-.486.499-.486.275 0 .499.218.499.486ZM476.507 112.316a.492.492 0 0 1-.499.486c-.275 0-.232-.141-.232-.41 0-.268.33-.305.499-.487.275 0 .232.143.232.411ZM478.065 115.251a.493.493 0 0 1-.5.486.493.493 0 0 1-.499-.486c0-.268.223-.487.499-.487s.5.219.5.487ZM478.065 113.771a.493.493 0 0 1-.5.486.493.493 0 0 1-.499-.486c0-.268.223-.486.499-.486s.5.218.5.486ZM478.065 112.316a.493.493 0 0 1-.5.486.493.493 0 0 1-.499-.486c0-.268.223-.486.499-.486s.5.218.5.486ZM479.619 115.251a.493.493 0 0 1-.499.486.493.493 0 0 1-.499-.486c0-.268.223-.487.499-.487s.499.219.499.487ZM479.619 113.771a.493.493 0 0 1-.499.486.493.493 0 0 1-.499-.486c0-.268.223-.486.499-.486s.499.218.499.486ZM470.277 116.768a.492.492 0 0 1-.499.486.493.493 0 0 1-.499-.486c0-.268.223-.487.499-.487a.494.494 0 0 1 .499.487ZM471.836 116.768a.493.493 0 0 1-.499.486.493.493 0 0 1-.499-.486c0-.268.223-.487.499-.487a.495.495 0 0 1 .499.487ZM473.391 116.768a.493.493 0 0 1-.499.486.493.493 0 0 1-.499-.486c0-.268.222-.487.499-.487a.495.495 0 0 1 .499.487ZM474.945 116.768a.492.492 0 0 1-.499.486.493.493 0 0 1-.499-.486c0-.268.223-.487.499-.487a.494.494 0 0 1 .499.487ZM476.506 116.768a.493.493 0 0 1-.499.486.493.493 0 0 1-.499-.486c0-.268.223-.487.499-.487a.495.495 0 0 1 .499.487ZM478.065 116.768a.493.493 0 0 1-.5.486.493.493 0 0 1-.499-.486c0-.268.223-.487.499-.487.276.002.5.219.5.487ZM479.619 116.768a.493.493 0 0 1-.499.486.493.493 0 0 1-.499-.486c0-.268.223-.487.499-.487a.495.495 0 0 1 .499.487ZM467.162 118.286a.493.493 0 0 1-.499.486.493.493 0 0 1-.499-.486c0-.268.223-.486.499-.486.275 0 .499.217.499.486ZM468.719 118.286a.493.493 0 0 1-.499.486.493.493 0 0 1-.499-.486c0-.268.222-.486.499-.486.276 0 .499.217.499.486ZM470.277 118.286a.492.492 0 0 1-.499.486.493.493 0 0 1-.499-.486c0-.268.223-.486.499-.486.277 0 .499.217.499.486ZM471.836 118.286a.493.493 0 0 1-.499.486.493.493 0 0 1-.499-.486c0-.268.223-.486.499-.486.275 0 .499.217.499.486ZM473.391 118.286a.493.493 0 0 1-.499.486.493.493 0 0 1-.499-.486c0-.268.222-.486.499-.486.276 0 .499.217.499.486ZM474.945 118.286a.492.492 0 0 1-.499.486.493.493 0 0 1-.499-.486c0-.268.223-.486.499-.486.277 0 .499.217.499.486ZM476.506 118.286a.493.493 0 0 1-.499.486.493.493 0 0 1-.499-.486c0-.268.223-.486.499-.486.275 0 .499.217.499.486ZM478.065 118.286a.493.493 0 0 1-.5.486.493.493 0 0 1-.499-.486c0-.268.223-.486.499-.486s.5.217.5.486ZM479.619 118.286a.493.493 0 0 1-.499.486.493.493 0 0 1-.499-.486c0-.268.223-.486.499-.486s.499.217.499.486ZM462.49 119.803a.492.492 0 0 1-.499.486.493.493 0 0 1-.499-.486c0-.268.223-.486.499-.486.277 0 .499.218.499.486ZM464.047 119.803a.493.493 0 0 1-.499.486.493.493 0 0 1-.499-.486c0-.268.223-.486.499-.486s.499.218.499.486ZM465.607 119.803a.492.492 0 0 1-.499.486.493.493 0 0 1-.499-.486c0-.268.223-.486.499-.486.275 0 .499.218.499.486ZM467.162 119.803a.493.493 0 0 1-.499.486.493.493 0 0 1-.499-.486c0-.268.223-.486.499-.486.275 0 .499.218.499.486ZM468.719 119.803a.493.493 0 0 1-.499.486.493.493 0 0 1-.499-.486c0-.268.222-.486.499-.486.276 0 .499.218.499.486ZM470.277 119.803a.492.492 0 0 1-.499.486.493.493 0 0 1-.499-.486c0-.268.223-.486.499-.486.277 0 .499.218.499.486ZM471.836 119.803a.493.493 0 0 1-.499.486.493.493 0 0 1-.499-.486c0-.268.223-.486.499-.486.275 0 .499.218.499.486ZM473.391 119.803a.493.493 0 0 1-.499.486.493.493 0 0 1-.499-.486c0-.268.222-.486.499-.486.276 0 .499.218.499.486ZM474.945 119.803a.492.492 0 0 1-.499.486.493.493 0 0 1-.499-.486c0-.268.223-.486.499-.486.277 0 .499.218.499.486ZM476.506 119.803a.493.493 0 0 1-.499.486.493.493 0 0 1-.499-.486c0-.268.223-.486.499-.486.275 0 .499.218.499.486ZM478.065 119.803a.493.493 0 0 1-.5.486.493.493 0 0 1-.499-.486c0-.268.223-.486.499-.486s.5.218.5.486ZM479.619 119.803a.493.493 0 0 1-.499.486.493.493 0 0 1-.499-.486c0-.268.223-.486.499-.486s.499.218.499.486ZM451.59 121.32a.493.493 0 0 1-.499.486.493.493 0 0 1-.499-.486c0-.268.204-.214.481-.214.276 0 .517-.054.517.214ZM456.262 121.32a.493.493 0 0 1-.499.486.493.493 0 0 1-.499-.486c0-.268.222-.487.499-.487.275 0 .499.219.499.487ZM457.82 121.32a.492.492 0 0 1-.499.486.493.493 0 0 1-.499-.486c0-.268.223-.487.499-.487.277 0 .499.219.499.487ZM453.147 121.32a.493.493 0 0 1-.5.486.493.493 0 0 1-.499-.486c0-.268.223-.335.499-.335.277 0 .5.067.5.335ZM454.707 121.32a.493.493 0 0 1-.499.486.493.493 0 0 1-.499-.486c0-.268.223-.487.499-.487.275 0 .499.219.499.487ZM459.375 121.32a.493.493 0 0 1-.499.486.493.493 0 0 1-.499-.486c0-.268.223-.487.499-.487s.499.219.499.487ZM460.934 121.32a.493.493 0 0 1-.499.486.493.493 0 0 1-.499-.486c0-.268.222-.487.499-.487.275 0 .499.219.499.487ZM462.49 121.32a.492.492 0 0 1-.499.486.493.493 0 0 1-.499-.486c0-.268.223-.487.499-.487.277 0 .499.219.499.487ZM464.047 121.32a.493.493 0 0 1-.499.486.493.493 0 0 1-.499-.486c0-.268.223-.487.499-.487s.499.219.499.487ZM465.607 121.32a.492.492 0 0 1-.499.486.493.493 0 0 1-.499-.486c0-.268.223-.487.499-.487.275 0 .499.219.499.487ZM468.719 121.32a.493.493 0 0 1-.499.486.493.493 0 0 1-.499-.486c0-.268.222-.487.499-.487.276 0 .499.219.499.487ZM467.162 121.32a.493.493 0 0 1-.499.486.493.493 0 0 1-.499-.486c0-.268.223-.487.499-.487.275 0 .499.219.499.487ZM470.277 121.32a.492.492 0 0 1-.499.486.493.493 0 0 1-.499-.486c0-.268.223-.487.499-.487.277 0 .499.219.499.487ZM471.836 121.32a.493.493 0 0 1-.499.486.493.493 0 0 1-.499-.486c0-.268.223-.487.499-.487.275 0 .499.219.499.487ZM473.391 121.32a.493.493 0 0 1-.499.486.493.493 0 0 1-.499-.486c0-.268.222-.487.499-.487.276 0 .499.219.499.487ZM474.945 121.32a.492.492 0 0 1-.499.486.493.493 0 0 1-.499-.486c0-.268.223-.487.499-.487.277 0 .499.219.499.487ZM476.506 121.32a.493.493 0 0 1-.499.486.493.493 0 0 1-.499-.486c0-.268.223-.487.499-.487.275 0 .499.219.499.487ZM478.065 121.32a.493.493 0 0 1-.5.486.493.493 0 0 1-.499-.486c0-.268.223-.487.499-.487s.5.219.5.487ZM479.619 121.32a.493.493 0 0 1-.499.486.493.493 0 0 1-.499-.486c0-.268.223-.487.499-.487s.499.219.499.487ZM450.033 122.837a.493.493 0 0 1-.499.486c-.275 0-.142-.25-.142-.519 0-.268-.134-.454.142-.454a.495.495 0 0 1 .499.487ZM451.59 122.837a.493.493 0 0 1-.499.486.493.493 0 0 1-.499-.486c0-.268.223-.487.499-.487a.495.495 0 0 1 .499.487ZM453.147 122.837a.493.493 0 0 1-.5.486.493.493 0 0 1-.499-.486c0-.268.223-.486.499-.486.277.001.5.218.5.486ZM454.707 122.837a.493.493 0 0 1-.499.486.493.493 0 0 1-.499-.486c0-.268.223-.486.499-.486a.494.494 0 0 1 .499.486ZM456.262 122.837a.493.493 0 0 1-.499.486.493.493 0 0 1-.499-.486c0-.268.222-.487.499-.487a.495.495 0 0 1 .499.487ZM460.934 122.837a.493.493 0 0 1-.499.486.493.493 0 0 1-.499-.486c0-.268.222-.486.499-.486a.494.494 0 0 1 .499.486ZM462.49 122.837a.492.492 0 0 1-.499.486.493.493 0 0 1-.499-.486c0-.268.223-.486.499-.486a.493.493 0 0 1 .499.486ZM457.82 122.837a.492.492 0 0 1-.499.486.493.493 0 0 1-.499-.486c0-.268.223-.486.499-.486a.493.493 0 0 1 .499.486ZM459.375 122.837a.493.493 0 0 1-.499.486.493.493 0 0 1-.499-.486c0-.268.223-.486.499-.486a.493.493 0 0 1 .499.486ZM465.607 122.837a.492.492 0 0 1-.499.486.493.493 0 0 1-.499-.486c0-.268.223-.487.499-.487a.495.495 0 0 1 .499.487ZM464.047 122.837a.493.493 0 0 1-.499.486.493.493 0 0 1-.499-.486c0-.268.223-.486.499-.486a.493.493 0 0 1 .499.486ZM467.162 122.837a.493.493 0 0 1-.499.486.493.493 0 0 1-.499-.486c0-.268.223-.486.499-.486a.494.494 0 0 1 .499.486ZM468.719 122.837a.493.493 0 0 1-.499.486.493.493 0 0 1-.499-.486c0-.268.222-.486.499-.486a.493.493 0 0 1 .499.486ZM470.277 122.837a.492.492 0 0 1-.499.486.493.493 0 0 1-.499-.486c0-.268.223-.486.499-.486a.493.493 0 0 1 .499.486ZM471.836 122.837a.493.493 0 0 1-.499.486.493.493 0 0 1-.499-.486c0-.268.223-.486.499-.486a.494.494 0 0 1 .499.486ZM473.391 122.837a.493.493 0 0 1-.499.486.493.493 0 0 1-.499-.486c0-.268.222-.486.499-.486a.493.493 0 0 1 .499.486ZM474.945 122.837a.492.492 0 0 1-.499.486.493.493 0 0 1-.499-.486c0-.268.223-.486.499-.486a.493.493 0 0 1 .499.486ZM476.506 122.837a.493.493 0 0 1-.499.486.493.493 0 0 1-.499-.486c0-.268.223-.486.499-.486a.494.494 0 0 1 .499.486ZM478.065 122.837a.493.493 0 0 1-.5.486.493.493 0 0 1-.499-.486c0-.268.223-.486.499-.486.276.001.5.218.5.486ZM479.619 122.837a.493.493 0 0 1-.499.486.493.493 0 0 1-.499-.486c0-.268.223-.486.499-.486a.493.493 0 0 1 .499.486ZM451.59 124.355a.493.493 0 0 1-.499.486.493.493 0 0 1-.499-.486c0-.268.223-.486.499-.486s.499.217.499.486ZM454.707 124.355a.493.493 0 0 1-.499.486.493.493 0 0 1-.499-.486c0-.268.223-.486.499-.486.275 0 .499.217.499.486ZM453.147 124.355a.493.493 0 0 1-.5.486.493.493 0 0 1-.499-.486c0-.268.223-.486.499-.486.277 0 .5.217.5.486ZM456.262 124.355a.493.493 0 0 1-.499.486.493.493 0 0 1-.499-.486c0-.268.222-.486.499-.486.275 0 .499.217.499.486ZM457.82 124.355a.492.492 0 0 1-.499.486.493.493 0 0 1-.499-.486c0-.268.223-.486.499-.486.277 0 .499.217.499.486ZM459.375 124.355a.493.493 0 0 1-.499.486.493.493 0 0 1-.499-.486c0-.268.223-.486.499-.486s.499.217.499.486ZM460.934 124.355a.493.493 0 0 1-.499.486.493.493 0 0 1-.499-.486c0-.268.222-.486.499-.486.275 0 .499.217.499.486ZM462.49 124.355a.492.492 0 0 1-.499.486.493.493 0 0 1-.499-.486c0-.268.223-.486.499-.486.277 0 .499.217.499.486ZM464.047 124.355a.493.493 0 0 1-.499.486.493.493 0 0 1-.499-.486c0-.268.223-.486.499-.486s.499.217.499.486ZM465.607 124.355a.492.492 0 0 1-.499.486.493.493 0 0 1-.499-.486c0-.268.223-.486.499-.486.275 0 .499.217.499.486ZM467.162 124.355a.493.493 0 0 1-.499.486.493.493 0 0 1-.499-.486c0-.268.223-.486.499-.486.275 0 .499.217.499.486ZM468.719 124.355a.493.493 0 0 1-.499.486.493.493 0 0 1-.499-.486c0-.268.222-.486.499-.486.276 0 .499.217.499.486ZM470.277 124.355a.492.492 0 0 1-.499.486.493.493 0 0 1-.499-.486c0-.268.223-.486.499-.486.277 0 .499.217.499.486ZM471.836 124.355a.493.493 0 0 1-.499.486.493.493 0 0 1-.499-.486c0-.268.223-.486.499-.486.275 0 .499.217.499.486ZM473.391 124.355a.493.493 0 0 1-.499.486.493.493 0 0 1-.499-.486c0-.268.222-.486.499-.486.276 0 .499.217.499.486ZM474.945 124.355a.492.492 0 0 1-.499.486.493.493 0 0 1-.499-.486c0-.268.223-.486.499-.486.277 0 .499.217.499.486ZM476.506 124.355a.493.493 0 0 1-.499.486.493.493 0 0 1-.499-.486c0-.268.223-.486.499-.486.275 0 .499.217.499.486ZM478.065 124.355a.493.493 0 0 1-.5.486.493.493 0 0 1-.499-.486c0-.268.223-.486.499-.486s.5.217.5.486ZM479.619 124.355a.493.493 0 0 1-.499.486.493.493 0 0 1-.499-.486c0-.268.223-.486.499-.486s.499.217.499.486ZM450.033 125.872a.493.493 0 0 1-.5.486c-.275 0-.124-.217-.124-.486 0-.268-.152-.486.124-.486.275 0 .5.218.5.486ZM451.59 125.872a.493.493 0 0 1-.499.486.493.493 0 0 1-.499-.486c0-.268.223-.486.499-.486s.499.218.499.486ZM453.147 125.872a.493.493 0 0 1-.5.486.493.493 0 0 1-.499-.486c0-.268.223-.486.499-.486.277 0 .5.218.5.486ZM456.262 125.872a.493.493 0 0 1-.499.486.493.493 0 0 1-.499-.486c0-.268.222-.486.499-.486.275 0 .499.218.499.486ZM454.707 125.872a.493.493 0 0 1-.499.486.493.493 0 0 1-.499-.486c0-.268.223-.486.499-.486.275 0 .499.218.499.486ZM459.375 125.872a.493.493 0 0 1-.499.486.493.493 0 0 1-.499-.486c0-.268.223-.486.499-.486s.499.218.499.486ZM462.49 125.872a.492.492 0 0 1-.499.486.493.493 0 0 1-.499-.486c0-.268.223-.486.499-.486.277 0 .499.218.499.486ZM464.047 125.872a.493.493 0 0 1-.499.486.493.493 0 0 1-.499-.486c0-.268.223-.486.499-.486s.499.218.499.486ZM465.607 125.872a.492.492 0 0 1-.499.486.493.493 0 0 1-.499-.486c0-.268.223-.486.499-.486.275 0 .499.218.499.486ZM457.82 125.872a.492.492 0 0 1-.499.486.493.493 0 0 1-.499-.486c0-.268.223-.486.499-.486.277 0 .499.218.499.486ZM460.934 125.872a.493.493 0 0 1-.499.486.493.493 0 0 1-.499-.486c0-.268.222-.486.499-.486.275 0 .499.218.499.486ZM467.162 125.872a.493.493 0 0 1-.499.486.493.493 0 0 1-.499-.486c0-.268.223-.486.499-.486.275 0 .499.218.499.486ZM468.719 125.872a.493.493 0 0 1-.499.486.493.493 0 0 1-.499-.486c0-.268.222-.486.499-.486.276 0 .499.218.499.486ZM470.277 125.872a.492.492 0 0 1-.499.486.493.493 0 0 1-.499-.486c0-.268.223-.486.499-.486.277 0 .499.218.499.486ZM471.836 125.872a.493.493 0 0 1-.499.486.493.493 0 0 1-.499-.486c0-.268.223-.486.499-.486.275 0 .499.218.499.486ZM473.391 125.872a.493.493 0 0 1-.499.486.493.493 0 0 1-.499-.486c0-.268.222-.486.499-.486.276 0 .499.218.499.486ZM474.945 125.872a.492.492 0 0 1-.499.486.493.493 0 0 1-.499-.486c0-.268.223-.486.499-.486.277 0 .499.218.499.486ZM476.506 125.872a.493.493 0 0 1-.499.486.493.493 0 0 1-.499-.486c0-.268.223-.486.499-.486.275 0 .499.218.499.486ZM478.065 125.872a.493.493 0 0 1-.5.486.493.493 0 0 1-.499-.486c0-.268.223-.486.499-.486s.5.218.5.486ZM479.619 125.872a.493.493 0 0 1-.499.486.493.493 0 0 1-.499-.486c0-.268.223-.486.499-.486s.499.218.499.486ZM451.59 127.389a.493.493 0 0 1-.499.486.493.493 0 0 1-.499-.486c0-.268.223-.486.499-.486a.493.493 0 0 1 .499.486ZM450.033 124.355a.493.493 0 0 1-.499.486c-.275 0-.142-.217-.142-.486 0-.268-.134-.486.142-.486.275 0 .499.217.499.486ZM453.147 127.389a.493.493 0 0 1-.5.486.493.493 0 0 1-.499-.486c0-.268.223-.486.499-.486.277.001.5.218.5.486ZM454.707 127.389a.493.493 0 0 1-.499.486.493.493 0 0 1-.499-.486c0-.268.223-.486.499-.486a.494.494 0 0 1 .499.486ZM457.82 127.389a.492.492 0 0 1-.499.486.493.493 0 0 1-.499-.486c0-.268.223-.486.499-.486a.493.493 0 0 1 .499.486ZM459.375 127.389a.493.493 0 0 1-.499.486.493.493 0 0 1-.499-.486c0-.268.223-.486.499-.486a.493.493 0 0 1 .499.486ZM460.934 127.389a.493.493 0 0 1-.499.486.493.493 0 0 1-.499-.486c0-.268.222-.486.499-.486a.494.494 0 0 1 .499.486ZM462.49 127.389a.492.492 0 0 1-.499.486.493.493 0 0 1-.499-.486c0-.268.223-.486.499-.486a.493.493 0 0 1 .499.486ZM465.607 127.389a.492.492 0 0 1-.499.486.493.493 0 0 1-.499-.486c0-.268.223-.486.499-.486a.494.494 0 0 1 .499.486ZM468.719 127.389a.493.493 0 0 1-.499.486.493.493 0 0 1-.499-.486c0-.268.222-.486.499-.486a.493.493 0 0 1 .499.486ZM464.047 127.389a.493.493 0 0 1-.499.486.493.493 0 0 1-.499-.486c0-.268.223-.486.499-.486a.493.493 0 0 1 .499.486ZM467.162 127.389a.493.493 0 0 1-.499.486.493.493 0 0 1-.499-.486c0-.268.223-.486.499-.486a.494.494 0 0 1 .499.486ZM470.277 127.389a.492.492 0 0 1-.499.486.493.493 0 0 1-.499-.486c0-.268.223-.486.499-.486a.493.493 0 0 1 .499.486ZM471.836 127.389a.493.493 0 0 1-.499.486.493.493 0 0 1-.499-.486c0-.268.223-.486.499-.486a.494.494 0 0 1 .499.486ZM473.391 127.389a.493.493 0 0 1-.499.486.493.493 0 0 1-.499-.486c0-.268.222-.486.499-.486a.493.493 0 0 1 .499.486ZM474.945 127.389a.492.492 0 0 1-.499.486.493.493 0 0 1-.499-.486c0-.268.223-.486.499-.486a.493.493 0 0 1 .499.486ZM476.506 127.389a.493.493 0 0 1-.499.486.493.493 0 0 1-.499-.486c0-.268.223-.486.499-.486a.494.494 0 0 1 .499.486ZM478.065 127.389a.493.493 0 0 1-.5.486.493.493 0 0 1-.499-.486c0-.268.223-.486.499-.486.276.001.5.218.5.486ZM479.619 127.389a.493.493 0 0 1-.499.486.493.493 0 0 1-.499-.486c0-.268.223-.486.499-.486a.493.493 0 0 1 .499.486ZM451.59 128.907a.493.493 0 0 1-.499.487.493.493 0 0 1-.499-.487c0-.268.223-.486.499-.486s.499.217.499.486ZM453.147 128.907a.494.494 0 0 1-.5.487.493.493 0 0 1-.499-.487c0-.268.223-.486.499-.486.277 0 .5.217.5.486ZM454.707 128.907a.493.493 0 0 1-.499.487.493.493 0 0 1-.499-.487c0-.268.223-.486.499-.486.275 0 .499.217.499.486ZM456.262 128.907a.493.493 0 0 1-.499.487.493.493 0 0 1-.499-.487c0-.268.222-.486.499-.486.275 0 .499.217.499.486ZM457.82 128.907a.493.493 0 0 1-.499.487.493.493 0 0 1-.499-.487c0-.268.223-.486.499-.486.277 0 .499.217.499.486ZM459.375 128.907a.493.493 0 0 1-.499.487.493.493 0 0 1-.499-.487c0-.268.223-.486.499-.486s.499.217.499.486ZM460.934 128.907a.493.493 0 0 1-.499.487.493.493 0 0 1-.499-.487c0-.268.222-.486.499-.486.275 0 .499.217.499.486ZM462.49 128.907a.493.493 0 0 1-.499.487.493.493 0 0 1-.499-.487c0-.268.223-.486.499-.486.277 0 .499.217.499.486ZM464.047 128.907a.493.493 0 0 1-.499.487.493.493 0 0 1-.499-.487c0-.268.223-.486.499-.486s.499.217.499.486ZM465.607 128.907a.493.493 0 0 1-.499.487.493.493 0 0 1-.499-.487c0-.268.223-.486.499-.486.275 0 .499.217.499.486ZM467.162 128.907a.493.493 0 0 1-.499.487.493.493 0 0 1-.499-.487c0-.268.223-.486.499-.486.275 0 .499.217.499.486ZM468.719 128.907a.493.493 0 0 1-.499.487.493.493 0 0 1-.499-.487c0-.268.222-.486.499-.486.276 0 .499.217.499.486ZM470.277 128.907a.493.493 0 0 1-.499.487.493.493 0 0 1-.499-.487c0-.268.223-.486.499-.486.277 0 .499.217.499.486ZM471.836 128.907a.493.493 0 0 1-.499.487.493.493 0 0 1-.499-.487c0-.268.223-.486.499-.486.275 0 .499.217.499.486ZM473.391 128.907a.493.493 0 0 1-.499.487.493.493 0 0 1-.499-.487c0-.268.222-.486.499-.486.276 0 .499.217.499.486ZM474.945 128.907a.493.493 0 0 1-.499.487.493.493 0 0 1-.499-.487c0-.268.223-.486.499-.486.277 0 .499.217.499.486ZM476.506 128.907a.493.493 0 0 1-.499.487.493.493 0 0 1-.499-.487c0-.268.223-.486.499-.486.275 0 .499.217.499.486ZM478.065 128.907a.494.494 0 0 1-.5.487.493.493 0 0 1-.499-.487c0-.268.223-.486.499-.486s.5.217.5.486ZM479.619 128.907a.493.493 0 0 1-.499.487.493.493 0 0 1-.499-.487c0-.268.223-.486.499-.486s.499.217.499.486ZM453.147 130.424a.494.494 0 0 1-.5.487.493.493 0 0 1-.499-.487c0-.268.223-.486.499-.486.277 0 .5.218.5.486ZM454.707 130.424a.493.493 0 0 1-.499.487.493.493 0 0 1-.499-.487c0-.268.223-.486.499-.486.275 0 .499.218.499.486ZM456.262 130.424a.493.493 0 0 1-.499.487.493.493 0 0 1-.499-.487c0-.268.222-.486.499-.486.275 0 .499.218.499.486ZM457.82 130.424a.493.493 0 0 1-.499.487.493.493 0 0 1-.499-.487c0-.268.223-.486.499-.486.277 0 .499.218.499.486ZM460.934 130.424a.493.493 0 0 1-.499.487.493.493 0 0 1-.499-.487c0-.268.222-.486.499-.486.275 0 .499.218.499.486ZM464.047 130.424a.493.493 0 0 1-.499.487.493.493 0 0 1-.499-.487c0-.268.223-.486.499-.486s.499.218.499.486ZM459.375 130.424a.493.493 0 0 1-.499.487.493.493 0 0 1-.499-.487c0-.268.223-.486.499-.486s.499.218.499.486ZM462.49 130.424a.493.493 0 0 1-.499.487.493.493 0 0 1-.499-.487c0-.268.223-.486.499-.486.277 0 .499.218.499.486ZM465.607 130.424a.493.493 0 0 1-.499.487.493.493 0 0 1-.499-.487c0-.268.223-.486.499-.486.275 0 .499.218.499.486ZM467.162 130.424a.493.493 0 0 1-.499.487.493.493 0 0 1-.499-.487c0-.268.223-.486.499-.486.275 0 .499.218.499.486ZM468.719 130.424a.493.493 0 0 1-.499.487.493.493 0 0 1-.499-.487c0-.268.222-.486.499-.486.276 0 .499.218.499.486ZM470.277 130.424a.493.493 0 0 1-.499.487.493.493 0 0 1-.499-.487c0-.268.223-.486.499-.486.277 0 .499.218.499.486ZM471.836 130.424a.493.493 0 0 1-.499.487.493.493 0 0 1-.499-.487c0-.268.223-.486.499-.486.275 0 .499.218.499.486ZM473.391 130.424a.493.493 0 0 1-.499.487.493.493 0 0 1-.499-.487c0-.268.222-.486.499-.486.276 0 .499.218.499.486ZM474.945 130.424a.493.493 0 0 1-.499.487.493.493 0 0 1-.499-.487c0-.268.223-.486.499-.486.277 0 .499.218.499.486ZM476.506 130.424a.493.493 0 0 1-.499.487.493.493 0 0 1-.499-.487c0-.268.223-.486.499-.486.275 0 .499.218.499.486ZM478.065 130.424a.494.494 0 0 1-.5.487.493.493 0 0 1-.499-.487c0-.268.223-.486.499-.486s.5.218.5.486ZM479.619 130.424a.493.493 0 0 1-.499.487.493.493 0 0 1-.499-.487c0-.268.223-.486.499-.486s.499.218.499.486ZM453.147 131.942a.493.493 0 0 1-.5.486.493.493 0 0 1-.499-.486c0-.268.223-.487.499-.487.277 0 .5.219.5.487ZM451.59 130.424a.493.493 0 0 1-.499.487.493.493 0 0 1-.499-.487c0-.268.223-.486.499-.486s.499.218.499.486ZM451.59 131.941a.493.493 0 0 1-.499.487.493.493 0 0 1-.499-.487c0-.268.223-.486.499-.486s.499.218.499.486ZM454.707 131.942a.493.493 0 0 1-.499.486.493.493 0 0 1-.499-.486c0-.268.223-.487.499-.487.275 0 .499.219.499.487ZM457.82 131.942a.492.492 0 0 1-.499.486.493.493 0 0 1-.499-.486c0-.268.223-.487.499-.487.277 0 .499.219.499.487ZM456.262 127.389a.493.493 0 0 1-.499.486.493.493 0 0 1-.499-.486c0-.268.222-.486.499-.486a.494.494 0 0 1 .499.486ZM456.262 131.941a.493.493 0 0 1-.499.487.493.493 0 0 1-.499-.487c0-.268.222-.486.499-.486.275 0 .499.218.499.486ZM459.375 131.942a.493.493 0 0 1-.499.486.493.493 0 0 1-.499-.486c0-.268.223-.487.499-.487s.499.219.499.487ZM460.934 131.942a.493.493 0 0 1-.499.486.493.493 0 0 1-.499-.486c0-.268.222-.487.499-.487.275 0 .499.219.499.487ZM462.49 131.942a.492.492 0 0 1-.499.486.493.493 0 0 1-.499-.486c0-.268.223-.487.499-.487.277 0 .499.219.499.487ZM464.047 131.942a.493.493 0 0 1-.499.486.493.493 0 0 1-.499-.486c0-.268.223-.487.499-.487s.499.219.499.487ZM467.162 131.942a.493.493 0 0 1-.499.486.493.493 0 0 1-.499-.486c0-.268.223-.487.499-.487.275 0 .499.219.499.487ZM465.607 131.941a.493.493 0 0 1-.499.487.493.493 0 0 1-.499-.487c0-.268.223-.486.499-.486.275 0 .499.218.499.486ZM468.719 131.942a.493.493 0 0 1-.499.486.493.493 0 0 1-.499-.486c0-.268.222-.487.499-.487.276 0 .499.219.499.487ZM470.277 131.942a.492.492 0 0 1-.499.486.493.493 0 0 1-.499-.486c0-.268.223-.487.499-.487.277 0 .499.219.499.487ZM471.836 131.942a.493.493 0 0 1-.499.486.493.493 0 0 1-.499-.486c0-.268.223-.487.499-.487.275 0 .499.219.499.487ZM473.391 131.942a.493.493 0 0 1-.499.486.493.493 0 0 1-.499-.486c0-.268.222-.487.499-.487.276 0 .499.219.499.487ZM474.945 131.942a.492.492 0 0 1-.499.486.493.493 0 0 1-.499-.486c0-.268.223-.487.499-.487.277 0 .499.219.499.487ZM476.506 131.942a.493.493 0 0 1-.499.486.493.493 0 0 1-.499-.486c0-.268.223-.487.499-.487.275 0 .499.219.499.487ZM478.065 131.942a.493.493 0 0 1-.5.486.493.493 0 0 1-.499-.486c0-.268.223-.487.499-.487s.5.219.5.487ZM479.619 131.942a.493.493 0 0 1-.499.486.493.493 0 0 1-.499-.486c0-.268.223-.487.499-.487s.499.219.499.487ZM451.59 133.458a.493.493 0 0 1-.499.487.493.493 0 0 1-.499-.487c0-.268.223-.486.499-.486a.493.493 0 0 1 .499.486ZM453.147 133.458a.493.493 0 0 1-.5.486.493.493 0 0 1-.499-.486c0-.268.223-.486.499-.486.277.001.5.218.5.486ZM454.707 133.458a.493.493 0 0 1-.499.486.493.493 0 0 1-.499-.486c0-.268.223-.486.499-.486a.494.494 0 0 1 .499.486ZM456.262 133.458a.493.493 0 0 1-.499.487.493.493 0 0 1-.499-.487c0-.268.222-.486.499-.486a.494.494 0 0 1 .499.486ZM460.934 133.458a.493.493 0 0 1-.499.486.493.493 0 0 1-.499-.486c0-.268.222-.486.499-.486a.494.494 0 0 1 .499.486ZM464.047 133.458a.493.493 0 0 1-.499.486.493.493 0 0 1-.499-.486c0-.268.223-.486.499-.486a.493.493 0 0 1 .499.486ZM465.607 133.458a.493.493 0 0 1-.499.487.493.493 0 0 1-.499-.487c0-.268.223-.486.499-.486a.494.494 0 0 1 .499.486ZM467.162 133.458a.493.493 0 0 1-.499.486.493.493 0 0 1-.499-.486c0-.268.223-.486.499-.486a.494.494 0 0 1 .499.486ZM468.719 133.458a.493.493 0 0 1-.499.486.493.493 0 0 1-.499-.486c0-.268.222-.486.499-.486a.493.493 0 0 1 .499.486ZM470.277 133.458a.492.492 0 0 1-.499.486.493.493 0 0 1-.499-.486c0-.268.223-.486.499-.486a.493.493 0 0 1 .499.486ZM471.836 133.458a.493.493 0 0 1-.499.486.493.493 0 0 1-.499-.486c0-.268.223-.486.499-.486a.494.494 0 0 1 .499.486ZM473.391 133.458a.493.493 0 0 1-.499.486.493.493 0 0 1-.499-.486c0-.268.222-.486.499-.486a.493.493 0 0 1 .499.486ZM474.945 133.458a.492.492 0 0 1-.499.486.493.493 0 0 1-.499-.486c0-.268.223-.486.499-.486a.493.493 0 0 1 .499.486ZM476.506 133.458a.493.493 0 0 1-.499.486.493.493 0 0 1-.499-.486c0-.268.223-.486.499-.486a.494.494 0 0 1 .499.486ZM478.065 133.458a.493.493 0 0 1-.5.486.493.493 0 0 1-.499-.486c0-.268.223-.486.499-.486.276.001.5.218.5.486ZM479.619 133.458a.493.493 0 0 1-.499.486.493.493 0 0 1-.499-.486c0-.268.223-.486.499-.486a.493.493 0 0 1 .499.486ZM451.59 134.976a.493.493 0 0 1-.499.487.493.493 0 0 1-.499-.487c0-.267.223-.486.499-.486s.499.217.499.486ZM454.707 134.976a.493.493 0 0 1-.499.487.493.493 0 0 1-.499-.487c0-.267.223-.486.499-.486.275 0 .499.217.499.486ZM453.147 134.976a.494.494 0 0 1-.5.487.493.493 0 0 1-.499-.487c0-.267.223-.486.499-.486.277 0 .5.217.5.486ZM456.262 134.976a.493.493 0 0 1-.499.487.493.493 0 0 1-.499-.487c0-.267.222-.486.499-.486.275 0 .499.217.499.486ZM457.82 134.976a.493.493 0 0 1-.499.487.493.493 0 0 1-.499-.487c0-.267.223-.486.499-.486.277 0 .499.217.499.486ZM460.934 134.976a.493.493 0 0 1-.499.487.493.493 0 0 1-.499-.487c0-.267.222-.486.499-.486.275 0 .499.217.499.486ZM462.49 134.976a.493.493 0 0 1-.499.487.493.493 0 0 1-.499-.487c0-.267.223-.486.499-.486.277 0 .499.217.499.486ZM464.047 134.976a.493.493 0 0 1-.499.487.493.493 0 0 1-.499-.487c0-.267.223-.486.499-.486s.499.217.499.486ZM465.607 134.976a.493.493 0 0 1-.499.487.493.493 0 0 1-.499-.487c0-.267.223-.486.499-.486.275 0 .499.217.499.486ZM467.162 134.976a.493.493 0 0 1-.499.487.493.493 0 0 1-.499-.487c0-.267.223-.486.499-.486.275 0 .499.217.499.486ZM468.719 134.976a.493.493 0 0 1-.499.487.493.493 0 0 1-.499-.487c0-.267.222-.486.499-.486.276 0 .499.217.499.486ZM470.277 134.976a.493.493 0 0 1-.499.487.493.493 0 0 1-.499-.487c0-.267.223-.486.499-.486.277 0 .499.217.499.486ZM471.836 134.976a.493.493 0 0 1-.499.487.493.493 0 0 1-.499-.487c0-.267.223-.486.499-.486.275 0 .499.217.499.486ZM473.391 134.976a.493.493 0 0 1-.499.487.493.493 0 0 1-.499-.487c0-.267.222-.486.499-.486.276 0 .499.217.499.486ZM474.945 134.976a.493.493 0 0 1-.499.487.493.493 0 0 1-.499-.487c0-.267.223-.486.499-.486.277 0 .499.217.499.486ZM476.506 134.976a.493.493 0 0 1-.499.487.493.493 0 0 1-.499-.487c0-.267.223-.486.499-.486.275 0 .499.217.499.486ZM478.065 134.976a.494.494 0 0 1-.5.487.493.493 0 0 1-.499-.487c0-.267.223-.486.499-.486s.5.217.5.486ZM479.619 134.976a.493.493 0 0 1-.499.487.493.493 0 0 1-.499-.487c0-.267.223-.486.499-.486s.499.217.499.486ZM451.59 136.494a.493.493 0 0 1-.499.486.493.493 0 0 1-.499-.486c0-.268.223-.487.499-.487s.499.219.499.487ZM453.147 136.494a.493.493 0 0 1-.5.486.493.493 0 0 1-.499-.486c0-.268.223-.487.499-.487.277 0 .5.219.5.487ZM454.707 136.494a.493.493 0 0 1-.499.486.493.493 0 0 1-.499-.486c0-.268.223-.487.499-.487.275 0 .499.219.499.487ZM456.262 136.494a.493.493 0 0 1-.499.486.493.493 0 0 1-.499-.486c0-.268.222-.487.499-.487.275 0 .499.219.499.487ZM457.82 136.494a.492.492 0 0 1-.499.486.493.493 0 0 1-.499-.486c0-.268.223-.487.499-.487.277 0 .499.219.499.487ZM460.934 136.494a.493.493 0 0 1-.499.486.493.493 0 0 1-.499-.486c0-.268.222-.487.499-.487.275 0 .499.219.499.487ZM459.375 133.458a.493.493 0 0 1-.499.486.493.493 0 0 1-.499-.486c0-.268.223-.486.499-.486a.493.493 0 0 1 .499.486ZM457.82 133.458a.492.492 0 0 1-.499.486.493.493 0 0 1-.499-.486c0-.268.223-.486.499-.486a.493.493 0 0 1 .499.486ZM459.375 134.976a.493.493 0 0 1-.499.487.493.493 0 0 1-.499-.487c0-.267.223-.486.499-.486s.499.217.499.486ZM459.375 136.494a.493.493 0 0 1-.499.486.493.493 0 0 1-.499-.486c0-.268.223-.487.499-.487s.499.219.499.487ZM464.047 136.494a.493.493 0 0 1-.499.486.493.493 0 0 1-.499-.486c0-.268.223-.487.499-.487s.499.219.499.487ZM462.49 133.458a.492.492 0 0 1-.499.486.493.493 0 0 1-.499-.486c0-.268.223-.486.499-.486a.493.493 0 0 1 .499.486ZM462.49 136.494a.492.492 0 0 1-.499.486.493.493 0 0 1-.499-.486c0-.268.223-.487.499-.487.277 0 .499.219.499.487ZM465.607 136.494a.492.492 0 0 1-.499.486.493.493 0 0 1-.499-.486c0-.268.223-.487.499-.487.275 0 .499.219.499.487ZM467.162 136.494a.493.493 0 0 1-.499.486.493.493 0 0 1-.499-.486c0-.268.223-.487.499-.487.275 0 .499.219.499.487ZM468.719 136.494a.493.493 0 0 1-.499.486.493.493 0 0 1-.499-.486c0-.268.222-.487.499-.487.276 0 .499.219.499.487ZM470.277 136.494a.492.492 0 0 1-.499.486.493.493 0 0 1-.499-.486c0-.268.223-.487.499-.487.277 0 .499.219.499.487ZM471.836 136.494a.493.493 0 0 1-.499.486.493.493 0 0 1-.499-.486c0-.268.223-.487.499-.487.275 0 .499.219.499.487ZM473.391 136.494a.493.493 0 0 1-.499.486.493.493 0 0 1-.499-.486c0-.268.222-.487.499-.487.276 0 .499.219.499.487ZM474.945 136.494a.492.492 0 0 1-.499.486.493.493 0 0 1-.499-.486c0-.268.223-.487.499-.487.277 0 .499.219.499.487ZM476.506 136.494a.493.493 0 0 1-.499.486.493.493 0 0 1-.499-.486c0-.268.223-.487.499-.487.275 0 .499.219.499.487ZM478.065 136.494a.493.493 0 0 1-.5.486.493.493 0 0 1-.499-.486c0-.268.223-.487.499-.487s.5.219.5.487ZM479.619 136.494a.493.493 0 0 1-.499.486.493.493 0 0 1-.499-.486c0-.268.223-.487.499-.487s.499.219.499.487ZM451.588 138.01a.493.493 0 0 1-.499.487c-.275 0-.347-.28-.454-.474 0-.268.178-.499.454-.499a.493.493 0 0 1 .499.486ZM453.147 138.01a.494.494 0 0 1-.5.487.493.493 0 0 1-.499-.487c0-.268.223-.486.499-.486.277.001.5.218.5.486ZM454.707 138.01a.493.493 0 0 1-.499.487.493.493 0 0 1-.499-.487c0-.268.223-.486.499-.486a.494.494 0 0 1 .499.486ZM456.262 138.011a.493.493 0 0 1-.499.486.493.493 0 0 1-.499-.486c0-.268.222-.487.499-.487a.495.495 0 0 1 .499.487ZM459.375 138.01a.493.493 0 0 1-.499.487.493.493 0 0 1-.499-.487c0-.268.223-.486.499-.486a.493.493 0 0 1 .499.486ZM457.82 138.01a.493.493 0 0 1-.499.487.493.493 0 0 1-.499-.487c0-.268.223-.486.499-.486a.493.493 0 0 1 .499.486ZM460.934 138.01a.493.493 0 0 1-.499.487.493.493 0 0 1-.499-.487c0-.268.222-.486.499-.486a.494.494 0 0 1 .499.486ZM464.047 138.01a.493.493 0 0 1-.499.487.493.493 0 0 1-.499-.487c0-.268.223-.486.499-.486a.493.493 0 0 1 .499.486ZM462.49 138.01a.493.493 0 0 1-.499.487.493.493 0 0 1-.499-.487c0-.268.223-.486.499-.486a.493.493 0 0 1 .499.486ZM467.162 138.01a.493.493 0 0 1-.499.487.493.493 0 0 1-.499-.487c0-.268.223-.486.499-.486a.494.494 0 0 1 .499.486ZM465.607 138.011a.492.492 0 0 1-.499.486.493.493 0 0 1-.499-.486c0-.268.223-.487.499-.487a.495.495 0 0 1 .499.487ZM468.719 138.01a.493.493 0 0 1-.499.487.493.493 0 0 1-.499-.487c0-.268.222-.486.499-.486a.493.493 0 0 1 .499.486ZM470.277 138.01a.493.493 0 0 1-.499.487.493.493 0 0 1-.499-.487c0-.268.223-.486.499-.486a.493.493 0 0 1 .499.486ZM471.836 138.01a.493.493 0 0 1-.499.487.493.493 0 0 1-.499-.487c0-.268.223-.486.499-.486a.494.494 0 0 1 .499.486ZM473.391 138.01a.493.493 0 0 1-.499.487.493.493 0 0 1-.499-.487c0-.268.222-.486.499-.486a.493.493 0 0 1 .499.486ZM474.945 138.01a.493.493 0 0 1-.499.487.493.493 0 0 1-.499-.487c0-.268.223-.486.499-.486a.493.493 0 0 1 .499.486ZM476.506 138.01a.493.493 0 0 1-.499.487.493.493 0 0 1-.499-.487c0-.268.223-.486.499-.486a.494.494 0 0 1 .499.486ZM478.065 138.01a.494.494 0 0 1-.5.487.493.493 0 0 1-.499-.487c0-.268.223-.486.499-.486.276.001.5.218.5.486ZM479.619 138.01a.493.493 0 0 1-.499.487.493.493 0 0 1-.499-.487c0-.268.223-.486.499-.486a.493.493 0 0 1 .499.486ZM453.147 139.529a.494.494 0 0 1-.5.486.493.493 0 0 1-.499-.486c0-.268.223-.487.499-.487.277 0 .5.217.5.487ZM451.586 139.529a.493.493 0 0 1-.499.486c-.275 0-.019-.329-.019-.598 0-.268-.258-.375.019-.375.276 0 .499.217.499.487ZM457.82 139.529a.493.493 0 0 1-.499.486.493.493 0 0 1-.499-.486c0-.268.223-.487.499-.487.277 0 .499.217.499.487ZM459.375 139.529a.493.493 0 0 1-.499.486.493.493 0 0 1-.499-.486c0-.268.223-.487.499-.487s.499.217.499.487ZM460.934 139.529a.493.493 0 0 1-.499.486.493.493 0 0 1-.499-.486c0-.268.222-.487.499-.487.275 0 .499.217.499.487ZM462.49 139.529a.493.493 0 0 1-.499.486.493.493 0 0 1-.499-.486c0-.268.223-.487.499-.487.277 0 .499.217.499.487ZM464.047 139.529a.493.493 0 0 1-.499.486.493.493 0 0 1-.499-.486c0-.268.223-.487.499-.487s.499.217.499.487ZM465.607 139.529a.493.493 0 0 1-.499.486.493.493 0 0 1-.499-.486c0-.268.223-.487.499-.487.275 0 .499.217.499.487ZM467.162 139.529a.493.493 0 0 1-.499.486.493.493 0 0 1-.499-.486c0-.268.223-.487.499-.487.275 0 .499.217.499.487ZM470.277 139.529a.493.493 0 0 1-.499.486.493.493 0 0 1-.499-.486c0-.268.223-.487.499-.487.277 0 .499.217.499.487ZM468.719 139.529a.493.493 0 0 1-.499.486.493.493 0 0 1-.499-.486c0-.268.222-.487.499-.487.276 0 .499.217.499.487ZM471.836 139.529a.493.493 0 0 1-.499.486.493.493 0 0 1-.499-.486c0-.268.223-.487.499-.487.275 0 .499.217.499.487ZM473.391 139.529a.493.493 0 0 1-.499.486.493.493 0 0 1-.499-.486c0-.268.222-.487.499-.487.276 0 .499.217.499.487ZM474.945 139.529a.493.493 0 0 1-.499.486.493.493 0 0 1-.499-.486c0-.268.223-.487.499-.487.277 0 .499.217.499.487ZM476.506 139.529a.493.493 0 0 1-.499.486.493.493 0 0 1-.499-.486c0-.268.223-.487.499-.487.275 0 .499.217.499.487ZM478.065 139.529a.494.494 0 0 1-.5.486.493.493 0 0 1-.499-.486c0-.268.223-.487.499-.487s.5.217.5.487ZM479.619 139.529a.493.493 0 0 1-.499.486.493.493 0 0 1-.499-.486c0-.268.223-.487.499-.487s.499.217.499.487ZM457.82 141.046a.492.492 0 0 1-.499.486.493.493 0 0 1-.499-.486c0-.268.223-.487.499-.487.277 0 .499.219.499.487ZM456.262 139.529a.493.493 0 0 1-.499.486.493.493 0 0 1-.499-.486c0-.268.222-.487.499-.487.275 0 .499.217.499.487ZM456.262 141.046a.493.493 0 0 1-.499.486.493.493 0 0 1-.499-.486c0-.268.222-.487.499-.487.275 0 .499.219.499.487ZM454.707 139.529a.493.493 0 0 1-.499.486.493.493 0 0 1-.499-.486c0-.268.223-.487.499-.487.275 0 .499.217.499.487ZM454.707 141.046a.493.493 0 0 1-.499.486.493.493 0 0 1-.499-.486c0-.268.223-.487.499-.487.275 0 .499.219.499.487ZM460.934 141.046a.493.493 0 0 1-.499.486.493.493 0 0 1-.499-.486c0-.268.222-.487.499-.487.275 0 .499.219.499.487ZM464.047 141.046a.493.493 0 0 1-.499.486.493.493 0 0 1-.499-.486c0-.268.223-.487.499-.487s.499.219.499.487ZM462.49 141.046a.492.492 0 0 1-.499.486.493.493 0 0 1-.499-.486c0-.268.223-.487.499-.487.277 0 .499.219.499.487ZM465.607 141.046a.492.492 0 0 1-.499.486.493.493 0 0 1-.499-.486c0-.268.223-.487.499-.487.275 0 .499.219.499.487ZM467.162 141.046a.493.493 0 0 1-.499.486.493.493 0 0 1-.499-.486c0-.268.223-.487.499-.487.275 0 .499.219.499.487ZM468.719 141.046a.493.493 0 0 1-.499.486.493.493 0 0 1-.499-.486c0-.268.222-.487.499-.487.276 0 .499.219.499.487ZM470.277 141.046a.492.492 0 0 1-.499.486.493.493 0 0 1-.499-.486c0-.268.223-.487.499-.487.277 0 .499.219.499.487ZM471.836 141.046a.493.493 0 0 1-.499.486.493.493 0 0 1-.499-.486c0-.268.223-.487.499-.487.275 0 .499.219.499.487ZM473.391 141.046a.493.493 0 0 1-.499.486.493.493 0 0 1-.499-.486c0-.268.222-.487.499-.487.276 0 .499.219.499.487ZM474.945 141.046a.492.492 0 0 1-.499.486.493.493 0 0 1-.499-.486c0-.268.223-.487.499-.487.277 0 .499.219.499.487ZM476.506 141.046a.493.493 0 0 1-.499.486.493.493 0 0 1-.499-.486c0-.268.223-.487.499-.487.275 0 .499.219.499.487ZM478.065 141.046a.493.493 0 0 1-.5.486.493.493 0 0 1-.499-.486c0-.268.223-.487.499-.487s.5.219.5.487ZM479.619 141.046a.493.493 0 0 1-.499.486.493.493 0 0 1-.499-.486c0-.268.223-.487.499-.487s.499.219.499.487ZM454.707 142.563a.493.493 0 0 1-.499.486.493.493 0 0 1-.499-.486c0-.268.223-.487.499-.487.275 0 .499.219.499.487ZM453.147 141.046a.493.493 0 0 1-.5.486.493.493 0 0 1-.499-.486c0-.268.223-.487.499-.487.277 0 .5.219.5.487ZM453.147 142.563a.493.493 0 0 1-.5.486.493.493 0 0 1-.499-.486c0-.268.223-.487.499-.487.277 0 .5.219.5.487ZM456.262 142.563a.493.493 0 0 1-.499.486.493.493 0 0 1-.499-.486c0-.268.222-.487.499-.487.275 0 .499.219.499.487ZM457.82 142.563a.492.492 0 0 1-.499.486.493.493 0 0 1-.499-.486c0-.268.223-.487.499-.487.277 0 .499.219.499.487ZM460.934 142.563a.493.493 0 0 1-.499.486.493.493 0 0 1-.499-.486c0-.268.222-.487.499-.487.275 0 .499.219.499.487ZM459.375 141.046a.493.493 0 0 1-.499.486.493.493 0 0 1-.499-.486c0-.268.223-.487.499-.487s.499.219.499.487ZM459.375 142.563a.493.493 0 0 1-.499.486.493.493 0 0 1-.499-.486c0-.268.223-.487.499-.487s.499.219.499.487ZM462.49 142.563a.492.492 0 0 1-.499.486.493.493 0 0 1-.499-.486c0-.268.223-.487.499-.487.277 0 .499.219.499.487ZM465.607 142.563a.492.492 0 0 1-.499.486.493.493 0 0 1-.499-.486c0-.268.223-.487.499-.487.275 0 .499.219.499.487ZM464.047 142.563a.493.493 0 0 1-.499.486.493.493 0 0 1-.499-.486c0-.268.223-.487.499-.487s.499.219.499.487ZM467.162 142.563a.493.493 0 0 1-.499.486.493.493 0 0 1-.499-.486c0-.268.223-.487.499-.487.275 0 .499.219.499.487ZM468.719 142.563a.493.493 0 0 1-.499.486.493.493 0 0 1-.499-.486c0-.268.222-.487.499-.487.276 0 .499.219.499.487ZM470.277 142.563a.492.492 0 0 1-.499.486.493.493 0 0 1-.499-.486c0-.268.223-.487.499-.487.277 0 .499.219.499.487ZM471.836 142.563a.493.493 0 0 1-.499.486.493.493 0 0 1-.499-.486c0-.268.223-.487.499-.487.275 0 .499.219.499.487ZM473.391 142.563a.493.493 0 0 1-.499.486.493.493 0 0 1-.499-.486c0-.268.222-.487.499-.487.276 0 .499.219.499.487ZM474.945 142.563a.492.492 0 0 1-.499.486.493.493 0 0 1-.499-.486c0-.268.223-.487.499-.487.277 0 .499.219.499.487ZM476.506 142.563a.493.493 0 0 1-.499.486.493.493 0 0 1-.499-.486c0-.268.223-.487.499-.487.275 0 .499.219.499.487ZM478.065 142.563a.493.493 0 0 1-.5.486.493.493 0 0 1-.499-.486c0-.268.223-.487.499-.487s.5.219.5.487ZM479.619 142.563a.493.493 0 0 1-.499.486.493.493 0 0 1-.499-.486c0-.268.223-.487.499-.487s.499.219.499.487ZM453.147 144.08a.493.493 0 0 1-.5.486.493.493 0 0 1-.499-.486c0-.268.223-.486.499-.486.277.001.5.218.5.486ZM454.707 144.08a.493.493 0 0 1-.499.486.493.493 0 0 1-.499-.486c0-.268.223-.486.499-.486a.494.494 0 0 1 .499.486ZM456.262 144.08a.493.493 0 0 1-.499.486.493.493 0 0 1-.499-.486c0-.268.222-.486.499-.486a.494.494 0 0 1 .499.486ZM457.82 144.08a.492.492 0 0 1-.499.486.493.493 0 0 1-.499-.486c0-.268.223-.486.499-.486a.493.493 0 0 1 .499.486ZM459.375 144.08a.493.493 0 0 1-.499.486.493.493 0 0 1-.499-.486c0-.268.223-.486.499-.486a.493.493 0 0 1 .499.486ZM462.49 144.08a.492.492 0 0 1-.499.486.493.493 0 0 1-.499-.486c0-.268.223-.486.499-.486a.493.493 0 0 1 .499.486ZM464.047 144.08a.493.493 0 0 1-.499.486.493.493 0 0 1-.499-.486c0-.268.223-.486.499-.486a.493.493 0 0 1 .499.486ZM465.607 144.08a.492.492 0 0 1-.499.486.493.493 0 0 1-.499-.486c0-.268.223-.486.499-.486a.494.494 0 0 1 .499.486ZM467.162 144.08a.493.493 0 0 1-.499.486.493.493 0 0 1-.499-.486c0-.268.223-.486.499-.486a.494.494 0 0 1 .499.486ZM468.719 144.08a.493.493 0 0 1-.499.486.493.493 0 0 1-.499-.486c0-.268.222-.486.499-.486a.493.493 0 0 1 .499.486ZM470.277 144.08a.492.492 0 0 1-.499.486.493.493 0 0 1-.499-.486c0-.268.223-.486.499-.486a.493.493 0 0 1 .499.486ZM471.836 144.08a.493.493 0 0 1-.499.486.493.493 0 0 1-.499-.486c0-.268.223-.486.499-.486a.494.494 0 0 1 .499.486ZM473.391 144.08a.493.493 0 0 1-.499.486.493.493 0 0 1-.499-.486c0-.268.222-.486.499-.486a.493.493 0 0 1 .499.486ZM474.945 144.08a.492.492 0 0 1-.499.486.493.493 0 0 1-.499-.486c0-.268.223-.486.499-.486a.493.493 0 0 1 .499.486ZM476.506 144.08a.493.493 0 0 1-.499.486.493.493 0 0 1-.499-.486c0-.268.223-.486.499-.486a.494.494 0 0 1 .499.486ZM478.065 144.08a.493.493 0 0 1-.5.486.493.493 0 0 1-.499-.486c0-.268.223-.486.499-.486.276.001.5.218.5.486ZM479.619 144.08a.493.493 0 0 1-.499.486.493.493 0 0 1-.499-.486c0-.268.223-.486.499-.486a.493.493 0 0 1 .499.486ZM453.147 145.598a.493.493 0 0 1-.499.486c-.275 0-.269-.274-.269-.543 0-.268-.008-.429.269-.429.276 0 .499.217.499.486ZM456.262 145.598a.493.493 0 0 1-.499.486.493.493 0 0 1-.499-.486c0-.268.222-.486.499-.486.275 0 .499.217.499.486ZM454.707 145.598a.493.493 0 0 1-.499.486.493.493 0 0 1-.499-.486c0-.268.223-.486.499-.486.275 0 .499.217.499.486ZM457.82 145.598a.492.492 0 0 1-.499.486.493.493 0 0 1-.499-.486c0-.268.223-.486.499-.486.277 0 .499.217.499.486ZM459.375 145.598a.493.493 0 0 1-.499.486.493.493 0 0 1-.499-.486c0-.268.223-.486.499-.486s.499.217.499.486ZM460.934 145.598a.493.493 0 0 1-.499.486.493.493 0 0 1-.499-.486c0-.268.222-.486.499-.486.275 0 .499.217.499.486ZM462.49 145.598a.492.492 0 0 1-.499.486.493.493 0 0 1-.499-.486c0-.268.223-.486.499-.486.277 0 .499.217.499.486ZM464.047 145.598a.493.493 0 0 1-.499.486.493.493 0 0 1-.499-.486c0-.268.223-.486.499-.486s.499.217.499.486ZM467.162 145.598a.493.493 0 0 1-.499.486.493.493 0 0 1-.499-.486c0-.268.223-.486.499-.486.275 0 .499.217.499.486ZM465.607 145.598a.492.492 0 0 1-.499.486.493.493 0 0 1-.499-.486c0-.268.223-.486.499-.486.275 0 .499.217.499.486ZM468.719 145.598a.493.493 0 0 1-.499.486.493.493 0 0 1-.499-.486c0-.268.222-.486.499-.486.276 0 .499.217.499.486ZM470.277 145.598a.492.492 0 0 1-.499.486.493.493 0 0 1-.499-.486c0-.268.223-.486.499-.486.277 0 .499.217.499.486ZM471.836 145.598a.493.493 0 0 1-.499.486.493.493 0 0 1-.499-.486c0-.268.223-.486.499-.486.275 0 .499.217.499.486ZM473.391 145.598a.493.493 0 0 1-.499.486.493.493 0 0 1-.499-.486c0-.268.222-.486.499-.486.276 0 .499.217.499.486ZM474.945 145.598a.492.492 0 0 1-.499.486.493.493 0 0 1-.499-.486c0-.268.223-.486.499-.486.277 0 .499.217.499.486ZM476.506 145.598a.493.493 0 0 1-.499.486.493.493 0 0 1-.499-.486c0-.268.223-.486.499-.486.275 0 .499.217.499.486ZM478.065 145.598a.493.493 0 0 1-.5.486.493.493 0 0 1-.499-.486c0-.268.223-.486.499-.486s.5.217.5.486ZM479.619 145.598a.493.493 0 0 1-.499.486.493.493 0 0 1-.499-.486c0-.268.223-.486.499-.486s.499.217.499.486ZM460.934 144.08a.493.493 0 0 1-.499.486.493.493 0 0 1-.499-.486c0-.268.222-.486.499-.486a.494.494 0 0 1 .499.486Z" fill="#3136BD"/><path d="M474.949 145.598a.492.492 0 0 1-.499.486.493.493 0 0 1-.499-.486c0-.268.223-.486.499-.486.275 0 .499.218.499.486ZM478.065 145.598a.493.493 0 0 1-.5.486.493.493 0 0 1-.499-.486c0-.268.223-.486.499-.486.277 0 .5.218.5.486ZM476.506 145.598a.493.493 0 0 1-.499.486.493.493 0 0 1-.499-.486c0-.268.223-.486.499-.486.275 0 .499.218.499.486ZM479.623 145.598a.493.493 0 0 1-.499.486.493.493 0 0 1-.499-.486c0-.268.223-.486.499-.486s.499.218.499.486ZM482.734 145.598a.492.492 0 0 1-.499.486.493.493 0 0 1-.499-.486c0-.268.223-.486.499-.486.277 0 .499.218.499.486ZM481.178 145.598a.493.493 0 0 1-.499.486.493.493 0 0 1-.499-.486c0-.268.222-.486.499-.486.275 0 .499.218.499.486ZM484.293 145.598a.493.493 0 0 1-.499.486.493.493 0 0 1-.499-.486c0-.268.223-.486.499-.486s.499.218.499.486ZM485.852 145.598a.493.493 0 0 1-.499.486.493.493 0 0 1-.499-.486c0-.268.222-.486.499-.486.275 0 .499.218.499.486ZM487.406 145.598a.492.492 0 0 1-.499.486.493.493 0 0 1-.499-.486c0-.268.223-.486.499-.486.275 0 .499.218.499.486ZM488.961 145.598a.493.493 0 0 1-.499.486.493.493 0 0 1-.499-.486c0-.268.223-.486.499-.486s.499.218.499.486ZM492.078 145.598a.493.493 0 0 1-.499.486.493.493 0 0 1-.499-.486c0-.268.223-.486.499-.486.275 0 .499.218.499.486ZM490.52 145.598a.493.493 0 0 1-.499.486.493.493 0 0 1-.5-.486c0-.268.223-.486.5-.486.276 0 .499.218.499.486ZM493.635 145.598a.493.493 0 0 1-.499.486.493.493 0 0 1-.499-.486c0-.268.222-.486.499-.486.275 0 .499.218.499.486ZM495.195 145.598a.492.492 0 0 1-.499.486.493.493 0 0 1-.499-.486c0-.268.223-.486.499-.486.277 0 .499.218.499.486ZM496.75 145.598a.493.493 0 0 1-.499.486.493.493 0 0 1-.499-.486c0-.268.223-.486.499-.486s.499.218.499.486ZM498.307 145.598a.493.493 0 0 1-.499.486.493.493 0 0 1-.499-.486c0-.268.222-.486.499-.486.275 0 .499.218.499.486ZM499.863 145.598a.492.492 0 0 1-.499.486.493.493 0 0 1-.499-.486c0-.268.223-.486.499-.486.277 0 .499.218.499.486ZM501.422 145.598a.493.493 0 0 1-.499.486.493.493 0 0 1-.499-.486c0-.268.223-.486.499-.486s.499.218.499.486ZM476.506 147.115a.493.493 0 0 1-.499.486.493.493 0 0 1-.499-.486c0-.268.223-.486.499-.486a.494.494 0 0 1 .499.486ZM479.623 147.115a.493.493 0 0 1-.499.486.493.493 0 0 1-.499-.486c0-.268.223-.486.499-.486a.493.493 0 0 1 .499.486ZM481.178 147.115a.493.493 0 0 1-.499.486.493.493 0 0 1-.499-.486c0-.268.222-.486.499-.486a.494.494 0 0 1 .499.486ZM482.734 147.115a.492.492 0 0 1-.499.486.493.493 0 0 1-.499-.486c0-.268.223-.486.499-.486a.493.493 0 0 1 .499.486ZM485.852 147.115a.493.493 0 0 1-.499.486.493.493 0 0 1-.499-.486c0-.268.222-.486.499-.486a.494.494 0 0 1 .499.486ZM488.961 147.115a.493.493 0 0 1-.499.486.493.493 0 0 1-.499-.486c0-.268.223-.486.499-.486a.493.493 0 0 1 .499.486ZM484.293 147.115a.493.493 0 0 1-.499.486.493.493 0 0 1-.499-.486c0-.268.223-.486.499-.486a.493.493 0 0 1 .499.486ZM487.406 147.115a.492.492 0 0 1-.499.486.493.493 0 0 1-.499-.486c0-.268.223-.486.499-.486a.494.494 0 0 1 .499.486ZM490.52 147.115a.493.493 0 0 1-.499.486.493.493 0 0 1-.5-.486c0-.268.223-.486.5-.486a.493.493 0 0 1 .499.486ZM492.078 147.115a.493.493 0 0 1-.499.486.493.493 0 0 1-.499-.486c0-.268.223-.486.499-.486a.494.494 0 0 1 .499.486ZM493.635 147.115a.493.493 0 0 1-.499.486.493.493 0 0 1-.499-.486c0-.268.222-.486.499-.486a.494.494 0 0 1 .499.486ZM495.195 147.115a.492.492 0 0 1-.499.486.493.493 0 0 1-.499-.486c0-.268.223-.486.499-.486a.493.493 0 0 1 .499.486ZM496.75 147.115a.493.493 0 0 1-.499.486.493.493 0 0 1-.499-.486c0-.268.223-.486.499-.486a.493.493 0 0 1 .499.486ZM498.307 147.115a.493.493 0 0 1-.499.486.493.493 0 0 1-.499-.486c0-.268.222-.486.499-.486a.494.494 0 0 1 .499.486ZM499.863 147.115a.492.492 0 0 1-.499.486.493.493 0 0 1-.499-.486c0-.268.223-.486.499-.486a.493.493 0 0 1 .499.486ZM501.294 147.057c0 .268-.095.544-.371.544a.493.493 0 0 1-.499-.486c0-.268.223-.486.499-.486.276.001.371.16.371.428ZM476.506 148.633a.493.493 0 0 1-.499.487.493.493 0 0 1-.499-.487c0-.268.223-.486.499-.486.275 0 .499.217.499.486ZM474.949 147.115a.492.492 0 0 1-.499.486.493.493 0 0 1-.499-.486c0-.268.223-.486.499-.486a.494.494 0 0 1 .499.486ZM474.949 148.633a.493.493 0 0 1-.499.487.493.493 0 0 1-.499-.487c0-.268.223-.486.499-.486.275 0 .499.217.499.486ZM479.623 148.633a.493.493 0 0 1-.499.487.493.493 0 0 1-.499-.487c0-.268.223-.486.499-.486s.499.217.499.486ZM478.065 147.115a.493.493 0 0 1-.5.486.493.493 0 0 1-.499-.486c0-.268.223-.486.499-.486.277.001.5.218.5.486ZM478.065 148.633a.494.494 0 0 1-.5.487.493.493 0 0 1-.499-.487c0-.268.223-.486.499-.486.277 0 .5.217.5.486ZM481.178 148.633a.493.493 0 0 1-.499.487.493.493 0 0 1-.499-.487c0-.268.222-.486.499-.486.275 0 .499.217.499.486ZM482.734 148.633a.493.493 0 0 1-.499.487.493.493 0 0 1-.499-.487c0-.268.223-.486.499-.486.277 0 .499.217.499.486ZM484.293 148.633a.493.493 0 0 1-.499.487.493.493 0 0 1-.499-.487c0-.268.223-.486.499-.486s.499.217.499.486ZM485.852 148.633a.493.493 0 0 1-.499.487.493.493 0 0 1-.499-.487c0-.268.222-.486.499-.486.275 0 .499.217.499.486ZM487.406 148.633a.493.493 0 0 1-.499.487.493.493 0 0 1-.499-.487c0-.268.223-.486.499-.486.275 0 .499.217.499.486ZM488.961 148.633a.493.493 0 0 1-.499.487.493.493 0 0 1-.499-.487c0-.268.223-.486.499-.486s.499.217.499.486ZM490.52 148.633a.493.493 0 0 1-.499.487.494.494 0 0 1-.5-.487c0-.268.223-.486.5-.486.276 0 .499.217.499.486ZM492.078 148.633a.493.493 0 0 1-.499.487.493.493 0 0 1-.499-.487c0-.268.223-.486.499-.486.275 0 .499.217.499.486ZM493.635 148.633a.493.493 0 0 1-.499.487.493.493 0 0 1-.499-.487c0-.268.222-.486.499-.486.275 0 .499.217.499.486ZM495.195 148.633a.493.493 0 0 1-.499.487.493.493 0 0 1-.499-.487c0-.268.223-.486.499-.486.277 0 .499.217.499.486ZM496.75 148.633a.493.493 0 0 1-.499.487.493.493 0 0 1-.499-.487c0-.268.223-.486.499-.486s.499.217.499.486ZM498.307 148.633a.493.493 0 0 1-.499.487.493.493 0 0 1-.499-.487c0-.268.222-.486.499-.486.275 0 .499.217.499.486ZM499.863 148.633a.493.493 0 0 1-.499.487.493.493 0 0 1-.499-.487c0-.268.223-.486.499-.486.277 0 .499.217.499.486ZM474.949 150.15a.493.493 0 0 1-.499.487.493.493 0 0 1-.499-.487c0-.268.223-.486.499-.486.275 0 .499.218.499.486ZM476.506 150.15a.493.493 0 0 1-.499.487.493.493 0 0 1-.499-.487c0-.268.223-.486.499-.486.275 0 .499.218.499.486ZM478.065 150.15a.494.494 0 0 1-.5.487.493.493 0 0 1-.499-.487c0-.268.223-.486.499-.486.277 0 .5.218.5.486ZM479.623 150.15a.493.493 0 0 1-.499.487.493.493 0 0 1-.499-.487c0-.268.223-.486.499-.486s.499.218.499.486ZM484.293 150.15a.493.493 0 0 1-.499.487.493.493 0 0 1-.499-.487c0-.268.223-.486.499-.486s.499.218.499.486ZM485.852 150.15a.493.493 0 0 1-.499.487.493.493 0 0 1-.499-.487c0-.268.222-.486.499-.486.275 0 .499.218.499.486ZM487.406 150.15a.493.493 0 0 1-.499.487.493.493 0 0 1-.499-.487c0-.268.223-.486.499-.486.275 0 .499.218.499.486ZM488.961 150.15a.493.493 0 0 1-.499.487.493.493 0 0 1-.499-.487c0-.268.223-.486.499-.486s.499.218.499.486ZM490.52 150.15a.493.493 0 0 1-.499.487.493.493 0 0 1-.5-.487c0-.268.223-.486.5-.486.276 0 .499.218.499.486ZM492.078 150.15a.493.493 0 0 1-.499.487.493.493 0 0 1-.499-.487c0-.268.223-.486.499-.486.275 0 .499.218.499.486ZM493.635 150.15a.493.493 0 0 1-.499.487.493.493 0 0 1-.499-.487c0-.268.222-.486.499-.486.275 0 .499.218.499.486ZM495.195 150.15a.493.493 0 0 1-.499.487.493.493 0 0 1-.499-.487c0-.268.223-.486.499-.486.277 0 .499.218.499.486ZM496.75 150.15a.493.493 0 0 1-.499.487.493.493 0 0 1-.499-.487c0-.268.223-.486.499-.486s.499.218.499.486ZM498.307 150.15a.493.493 0 0 1-.499.487.493.493 0 0 1-.499-.487c0-.268.222-.486.499-.486.275 0 .499.218.499.486ZM499.863 150.15a.493.493 0 0 1-.499.487.493.493 0 0 1-.499-.487c0-.268.223-.486.499-.486.277 0 .499.218.499.486ZM474.949 151.667a.492.492 0 0 1-.499.486.493.493 0 0 1-.499-.486c0-.268.223-.486.499-.486a.494.494 0 0 1 .499.486ZM476.506 151.667a.493.493 0 0 1-.499.486.493.493 0 0 1-.499-.486c0-.268.223-.486.499-.486a.494.494 0 0 1 .499.486ZM481.178 151.667a.493.493 0 0 1-.499.486.493.493 0 0 1-.499-.486c0-.268.222-.486.499-.486a.494.494 0 0 1 .499.486ZM482.734 151.667a.492.492 0 0 1-.499.486.493.493 0 0 1-.499-.486c0-.268.223-.486.499-.486a.493.493 0 0 1 .499.486ZM481.178 150.15a.493.493 0 0 1-.499.487.493.493 0 0 1-.499-.487c0-.268.222-.486.499-.486.275 0 .499.218.499.486ZM482.734 150.15a.493.493 0 0 1-.499.487.493.493 0 0 1-.499-.487c0-.268.223-.486.499-.486.277 0 .499.218.499.486ZM478.065 151.667a.493.493 0 0 1-.5.486.493.493 0 0 1-.499-.486c0-.268.223-.486.499-.486.277.001.5.218.5.486ZM479.623 151.667a.493.493 0 0 1-.499.486.493.493 0 0 1-.499-.486c0-.268.223-.486.499-.486a.493.493 0 0 1 .499.486ZM484.293 151.667a.493.493 0 0 1-.499.486.493.493 0 0 1-.499-.486c0-.268.223-.486.499-.486a.493.493 0 0 1 .499.486ZM485.852 151.667a.493.493 0 0 1-.499.486.493.493 0 0 1-.499-.486c0-.268.222-.486.499-.486a.494.494 0 0 1 .499.486ZM487.406 151.667a.492.492 0 0 1-.499.486.493.493 0 0 1-.499-.486c0-.268.223-.486.499-.486a.494.494 0 0 1 .499.486ZM488.961 151.667a.493.493 0 0 1-.499.486.493.493 0 0 1-.499-.486c0-.268.223-.486.499-.486a.493.493 0 0 1 .499.486ZM490.52 151.667a.493.493 0 0 1-.499.486.493.493 0 0 1-.5-.486c0-.268.223-.486.5-.486a.493.493 0 0 1 .499.486ZM493.635 151.667a.493.493 0 0 1-.499.486.493.493 0 0 1-.499-.486c0-.268.222-.486.499-.486a.494.494 0 0 1 .499.486ZM492.078 151.667a.493.493 0 0 1-.499.486.493.493 0 0 1-.499-.486c0-.268.223-.486.499-.486a.494.494 0 0 1 .499.486ZM495.195 151.667a.492.492 0 0 1-.499.486.493.493 0 0 1-.499-.486c0-.268.223-.486.499-.486a.493.493 0 0 1 .499.486ZM496.75 151.667a.493.493 0 0 1-.499.486.493.493 0 0 1-.499-.486c0-.268.223-.486.499-.486a.493.493 0 0 1 .499.486ZM498.307 151.667a.493.493 0 0 1-.499.486.493.493 0 0 1-.499-.486c0-.268.222-.486.499-.486a.494.494 0 0 1 .499.486ZM499.55 151.543c0 .268.091.61-.186.61a.493.493 0 0 1-.499-.486c0-.268.223-.486.499-.486.277.001.186.094.186.362ZM474.949 153.186a.492.492 0 0 1-.499.486.493.493 0 0 1-.499-.486c0-.268.223-.487.499-.487.275 0 .499.218.499.487ZM476.506 153.186a.493.493 0 0 1-.499.486.493.493 0 0 1-.499-.486c0-.268.223-.487.499-.487.275 0 .499.218.499.487ZM478.065 153.186a.493.493 0 0 1-.5.486.493.493 0 0 1-.499-.486c0-.268.223-.487.499-.487.277 0 .5.218.5.487ZM479.623 153.186a.493.493 0 0 1-.499.486.493.493 0 0 1-.499-.486c0-.268.223-.487.499-.487s.499.218.499.487ZM481.178 153.186a.493.493 0 0 1-.499.486.493.493 0 0 1-.499-.486c0-.268.222-.487.499-.487.275 0 .499.218.499.487ZM485.852 153.186a.493.493 0 0 1-.499.486.493.493 0 0 1-.499-.486c0-.268.222-.487.499-.487.275 0 .499.218.499.487ZM487.406 153.186a.492.492 0 0 1-.499.486.493.493 0 0 1-.499-.486c0-.268.223-.487.499-.487.275 0 .499.218.499.487ZM482.734 153.186a.492.492 0 0 1-.499.486.493.493 0 0 1-.499-.486c0-.268.223-.487.499-.487.277 0 .499.218.499.487ZM484.293 153.186a.493.493 0 0 1-.499.486.493.493 0 0 1-.499-.486c0-.268.223-.487.499-.487s.499.218.499.487ZM490.52 153.186a.493.493 0 0 1-.499.486.493.493 0 0 1-.5-.486c0-.268.223-.487.5-.487.276 0 .499.218.499.487ZM488.961 153.186a.493.493 0 0 1-.499.486.493.493 0 0 1-.499-.486c0-.268.223-.487.499-.487s.499.218.499.487ZM492.078 153.186a.493.493 0 0 1-.499.486.493.493 0 0 1-.499-.486c0-.268.223-.487.499-.487.275 0 .499.218.499.487ZM493.635 153.186a.493.493 0 0 1-.499.486.493.493 0 0 1-.499-.486c0-.268.222-.487.499-.487.275 0 .499.218.499.487ZM495.195 153.186a.492.492 0 0 1-.499.486.493.493 0 0 1-.499-.486c0-.268.223-.487.499-.487.277 0 .499.218.499.487ZM496.75 153.186a.493.493 0 0 1-.499.486.493.493 0 0 1-.499-.486c0-.268.223-.487.499-.487s.499.218.499.487ZM498.307 153.186a.493.493 0 0 1-.499.486.493.493 0 0 1-.499-.486c0-.268.222-.487.499-.487.275 0 .499.218.499.487ZM476.506 154.702a.493.493 0 0 1-.499.487.493.493 0 0 1-.499-.487c0-.268.223-.486.499-.486.275 0 .499.218.499.486ZM479.623 154.702a.493.493 0 0 1-.499.487.493.493 0 0 1-.499-.487c0-.268.223-.486.499-.486s.499.218.499.486ZM478.065 154.702a.494.494 0 0 1-.5.487.493.493 0 0 1-.499-.487c0-.268.223-.486.499-.486.277 0 .5.218.5.486ZM481.178 154.702a.493.493 0 0 1-.499.487.493.493 0 0 1-.499-.487c0-.268.222-.486.499-.486.275 0 .499.218.499.486ZM482.734 154.702a.493.493 0 0 1-.499.487.493.493 0 0 1-.499-.487c0-.268.223-.486.499-.486.277 0 .499.218.499.486ZM484.293 154.702a.493.493 0 0 1-.499.487.493.493 0 0 1-.499-.487c0-.268.223-.486.499-.486s.499.218.499.486ZM485.852 154.702a.493.493 0 0 1-.499.487.493.493 0 0 1-.499-.487c0-.268.222-.486.499-.486.275 0 .499.218.499.486ZM487.406 154.702a.493.493 0 0 1-.499.487.493.493 0 0 1-.499-.487c0-.268.223-.486.499-.486.275 0 .499.218.499.486ZM488.961 154.702a.493.493 0 0 1-.499.487.493.493 0 0 1-.499-.487c0-.268.223-.486.499-.486s.499.218.499.486ZM490.52 154.702a.493.493 0 0 1-.499.487.493.493 0 0 1-.5-.487c0-.268.223-.486.5-.486.276 0 .499.218.499.486ZM492.078 154.702a.493.493 0 0 1-.499.487.493.493 0 0 1-.499-.487c0-.268.223-.486.499-.486.275 0 .499.218.499.486ZM493.635 154.702a.493.493 0 0 1-.499.487.493.493 0 0 1-.499-.487c0-.268.222-.486.499-.486.275 0 .499.218.499.486ZM495.195 154.702a.493.493 0 0 1-.499.487.493.493 0 0 1-.499-.487c0-.268.223-.486.499-.486.277 0 .499.218.499.486ZM496.75 154.702a.493.493 0 0 1-.499.487.493.493 0 0 1-.499-.487c0-.268.223-.486.499-.486s.499.218.499.486ZM498.307 154.702a.493.493 0 0 1-.499.487.493.493 0 0 1-.499-.487c0-.268.222-.486.499-.486.275 0 .499.218.499.486ZM474.949 156.22a.492.492 0 0 1-.499.486.493.493 0 0 1-.499-.486c0-.268.223-.487.499-.487.275 0 .499.219.499.487ZM476.506 156.22a.493.493 0 0 1-.499.486.493.493 0 0 1-.499-.486c0-.268.223-.487.499-.487.275 0 .499.219.499.487ZM478.065 156.22a.493.493 0 0 1-.5.486.493.493 0 0 1-.499-.486c0-.268.223-.487.499-.487.277 0 .5.219.5.487ZM481.178 156.22a.493.493 0 0 1-.499.486.493.493 0 0 1-.499-.486c0-.268.222-.487.499-.487.275 0 .499.219.499.487ZM479.623 156.22a.493.493 0 0 1-.499.486.493.493 0 0 1-.499-.486c0-.268.223-.487.499-.487s.499.219.499.487ZM484.293 156.22a.493.493 0 0 1-.499.486.493.493 0 0 1-.499-.486c0-.268.223-.487.499-.487s.499.219.499.487ZM487.406 156.22a.492.492 0 0 1-.499.486.493.493 0 0 1-.499-.486c0-.268.223-.487.499-.487.275 0 .499.219.499.487ZM488.961 156.22a.493.493 0 0 1-.499.486.493.493 0 0 1-.499-.486c0-.268.223-.487.499-.487s.499.219.499.487ZM490.52 156.22a.493.493 0 0 1-.499.486.493.493 0 0 1-.5-.486c0-.268.223-.487.5-.487.276 0 .499.219.499.487ZM482.734 156.22a.492.492 0 0 1-.499.486.493.493 0 0 1-.499-.486c0-.268.223-.487.499-.487.277 0 .499.219.499.487ZM485.852 156.22a.493.493 0 0 1-.499.486.493.493 0 0 1-.499-.486c0-.268.222-.487.499-.487.275 0 .499.219.499.487ZM492.078 156.22a.493.493 0 0 1-.499.486.493.493 0 0 1-.499-.486c0-.268.223-.487.499-.487.275 0 .499.219.499.487ZM493.635 156.22a.493.493 0 0 1-.499.486.493.493 0 0 1-.499-.486c0-.268.222-.487.499-.487.275 0 .499.219.499.487ZM495.195 156.22a.492.492 0 0 1-.499.486.493.493 0 0 1-.499-.486c0-.268.223-.487.499-.487.277 0 .499.219.499.487ZM496.75 156.22a.493.493 0 0 1-.499.486.493.493 0 0 1-.499-.486c0-.268.223-.487.499-.487s.499.219.499.487ZM476.506 157.737a.493.493 0 0 1-.499.486.493.493 0 0 1-.499-.486c0-.268.223-.487.499-.487a.495.495 0 0 1 .499.487ZM474.949 154.702a.493.493 0 0 1-.499.487.493.493 0 0 1-.499-.487c0-.268.223-.486.499-.486.275 0 .499.218.499.486ZM474.949 157.737a.492.492 0 0 1-.499.486.493.493 0 0 1-.499-.486c0-.268.223-.487.499-.487a.495.495 0 0 1 .499.487ZM478.065 157.737a.493.493 0 0 1-.5.486.493.493 0 0 1-.499-.486c0-.268.223-.487.499-.487.277.001.5.219.5.487ZM479.623 157.737a.493.493 0 0 1-.499.486.493.493 0 0 1-.499-.486c0-.268.223-.487.499-.487a.494.494 0 0 1 .499.487ZM482.734 157.737a.492.492 0 0 1-.499.486.493.493 0 0 1-.499-.486c0-.268.223-.487.499-.487a.493.493 0 0 1 .499.487ZM484.293 157.737a.493.493 0 0 1-.499.486.493.493 0 0 1-.499-.486c0-.268.223-.487.499-.487a.495.495 0 0 1 .499.487ZM485.852 157.737a.493.493 0 0 1-.499.486.493.493 0 0 1-.499-.486c0-.268.222-.487.499-.487a.494.494 0 0 1 .499.487ZM487.406 157.737a.492.492 0 0 1-.499.486.493.493 0 0 1-.499-.486c0-.268.223-.487.499-.487a.495.495 0 0 1 .499.487ZM490.52 157.737a.493.493 0 0 1-.499.486.493.493 0 0 1-.5-.486c0-.268.223-.487.5-.487a.494.494 0 0 1 .499.487ZM493.635 157.737a.493.493 0 0 1-.499.486.493.493 0 0 1-.499-.486c0-.268.222-.487.499-.487a.495.495 0 0 1 .499.487ZM488.961 157.737a.493.493 0 0 1-.499.486.493.493 0 0 1-.499-.486c0-.268.223-.487.499-.487a.494.494 0 0 1 .499.487ZM492.078 157.737a.493.493 0 0 1-.499.486.493.493 0 0 1-.499-.486c0-.268.223-.487.499-.487a.495.495 0 0 1 .499.487ZM495.195 157.737a.492.492 0 0 1-.499.486.493.493 0 0 1-.499-.486c0-.268.223-.487.499-.487a.493.493 0 0 1 .499.487ZM496.689 157.667c0 .268-.162.556-.438.556a.493.493 0 0 1-.499-.486c0-.268.223-.487.499-.487.276.001.438.149.438.417ZM474.949 159.255a.492.492 0 0 1-.499.486.493.493 0 0 1-.499-.486c0-.268.223-.486.499-.486.275 0 .499.217.499.486ZM476.506 159.255a.493.493 0 0 1-.499.486.493.493 0 0 1-.499-.486c0-.268.223-.486.499-.486.275 0 .499.217.499.486ZM478.065 159.255a.493.493 0 0 1-.5.486.493.493 0 0 1-.499-.486c0-.268.223-.486.499-.486.277 0 .5.217.5.486ZM479.623 159.255a.493.493 0 0 1-.499.486.493.493 0 0 1-.499-.486c0-.268.223-.486.499-.486s.499.217.499.486ZM481.178 159.255a.493.493 0 0 1-.499.486.493.493 0 0 1-.499-.486c0-.268.222-.486.499-.486.275 0 .499.217.499.486ZM482.734 159.255a.492.492 0 0 1-.499.486.493.493 0 0 1-.499-.486c0-.268.223-.486.499-.486.277 0 .499.217.499.486ZM484.293 159.255a.493.493 0 0 1-.499.486.493.493 0 0 1-.499-.486c0-.268.223-.486.499-.486s.499.217.499.486ZM485.852 159.255a.493.493 0 0 1-.499.486.493.493 0 0 1-.499-.486c0-.268.222-.486.499-.486.276 0 .499.217.499.486ZM487.406 159.255a.492.492 0 0 1-.499.486.493.493 0 0 1-.499-.486c0-.268.223-.486.499-.486.275 0 .499.217.499.486ZM488.961 159.255a.493.493 0 0 1-.499.486.493.493 0 0 1-.499-.486c0-.268.223-.486.499-.486s.499.217.499.486ZM490.52 159.255a.493.493 0 0 1-.499.486.493.493 0 0 1-.5-.486c0-.268.223-.486.5-.486.276 0 .499.217.499.486ZM492.078 159.255a.493.493 0 0 1-.499.486.493.493 0 0 1-.499-.486c0-.268.223-.486.499-.486.275 0 .499.217.499.486ZM493.635 159.255a.493.493 0 0 1-.499.486.493.493 0 0 1-.499-.486c0-.268.222-.486.499-.486.275 0 .499.217.499.486ZM495.195 159.255a.492.492 0 0 1-.499.486.493.493 0 0 1-.499-.486c0-.268.223-.486.499-.486.277 0 .499.217.499.486ZM474.949 160.772a.492.492 0 0 1-.499.486.493.493 0 0 1-.499-.486c0-.268.223-.487.499-.487.275 0 .499.219.499.487ZM478.065 160.772a.493.493 0 0 1-.5.486.493.493 0 0 1-.499-.486c0-.268.223-.487.499-.487.277 0 .5.219.5.487ZM479.623 160.772a.493.493 0 0 1-.499.486.493.493 0 0 1-.499-.486c0-.268.223-.487.499-.487s.499.219.499.487ZM481.178 160.772a.493.493 0 0 1-.499.486.493.493 0 0 1-.499-.486c0-.268.222-.487.499-.487.275 0 .499.219.499.487ZM482.734 160.772a.492.492 0 0 1-.499.486.493.493 0 0 1-.499-.486c0-.268.223-.487.499-.487.277 0 .499.219.499.487ZM485.852 160.772a.493.493 0 0 1-.499.486.493.493 0 0 1-.499-.486c0-.268.222-.487.499-.487.276 0 .499.219.499.487ZM488.961 160.772a.493.493 0 0 1-.499.486.493.493 0 0 1-.499-.486c0-.268.223-.487.499-.487s.499.219.499.487ZM484.293 160.772a.493.493 0 0 1-.499.486.493.493 0 0 1-.499-.486c0-.268.223-.487.499-.487s.499.219.499.487ZM487.406 160.772a.492.492 0 0 1-.499.486.493.493 0 0 1-.499-.486c0-.268.223-.487.499-.487.275 0 .499.219.499.487ZM490.52 160.772a.493.493 0 0 1-.499.486.493.493 0 0 1-.5-.486c0-.268.223-.487.5-.487.276 0 .499.219.499.487ZM492.078 160.772a.493.493 0 0 1-.499.486.493.493 0 0 1-.499-.486c0-.268.223-.487.499-.487.275 0 .499.219.499.487ZM493.635 160.772a.493.493 0 0 1-.499.486.493.493 0 0 1-.499-.486c0-.268.222-.487.499-.487.275 0 .499.219.499.487ZM474.949 162.289a.492.492 0 0 1-.499.486.493.493 0 0 1-.499-.486c0-.268.223-.486.499-.486a.494.494 0 0 1 .499.486ZM478.065 162.289a.493.493 0 0 1-.5.486.493.493 0 0 1-.499-.486c0-.268.223-.487.499-.487.277.002.5.219.5.487ZM476.506 160.772a.493.493 0 0 1-.499.486.493.493 0 0 1-.499-.486c0-.268.223-.487.499-.487.275 0 .499.219.499.487ZM476.506 162.289a.493.493 0 0 1-.499.486.493.493 0 0 1-.499-.486c0-.268.223-.487.499-.487a.495.495 0 0 1 .499.487ZM479.623 162.289a.493.493 0 0 1-.499.486.493.493 0 0 1-.499-.486c0-.268.223-.487.499-.487a.495.495 0 0 1 .499.487ZM482.734 162.289a.492.492 0 0 1-.499.486.493.493 0 0 1-.499-.486c0-.268.223-.487.499-.487a.494.494 0 0 1 .499.487ZM481.178 157.737a.493.493 0 0 1-.499.486.493.493 0 0 1-.499-.486c0-.268.222-.487.499-.487a.495.495 0 0 1 .499.487ZM481.178 162.289a.493.493 0 0 1-.499.486.493.493 0 0 1-.499-.486c0-.268.222-.487.499-.487a.495.495 0 0 1 .499.487ZM484.293 162.289a.493.493 0 0 1-.499.486.493.493 0 0 1-.499-.486c0-.268.223-.486.499-.486a.493.493 0 0 1 .499.486ZM485.852 162.289a.493.493 0 0 1-.499.486.493.493 0 0 1-.499-.486c0-.268.222-.487.499-.487a.495.495 0 0 1 .499.487ZM487.406 162.289a.492.492 0 0 1-.499.486.493.493 0 0 1-.499-.486c0-.268.223-.487.499-.487a.495.495 0 0 1 .499.487ZM488.961 162.289a.493.493 0 0 1-.499.486.493.493 0 0 1-.499-.486c0-.268.223-.487.499-.487a.495.495 0 0 1 .499.487ZM492.078 162.289a.493.493 0 0 1-.499.486.493.493 0 0 1-.499-.486c0-.268.223-.487.499-.487a.495.495 0 0 1 .499.487ZM490.52 162.289a.493.493 0 0 1-.499.486.493.493 0 0 1-.5-.486c0-.268.223-.487.5-.487a.495.495 0 0 1 .499.487ZM493.635 162.289a.493.493 0 0 1-.499.486.493.493 0 0 1-.499-.486c0-.268.222-.487.499-.487a.495.495 0 0 1 .499.487ZM474.949 163.807a.492.492 0 0 1-.499.486.493.493 0 0 1-.499-.486c0-.268.223-.486.499-.486.275 0 .499.217.499.486ZM476.506 163.807a.493.493 0 0 1-.499.486.493.493 0 0 1-.499-.486c0-.268.223-.486.499-.486.275 0 .499.217.499.486ZM478.065 163.807a.493.493 0 0 1-.5.486.493.493 0 0 1-.499-.486c0-.268.223-.486.499-.486.277 0 .5.217.5.486ZM479.623 163.807a.493.493 0 0 1-.499.486.493.493 0 0 1-.499-.486c0-.268.223-.486.499-.486s.499.217.499.486ZM481.178 163.807a.493.493 0 0 1-.499.486.493.493 0 0 1-.499-.486c0-.268.222-.486.499-.486.275 0 .499.217.499.486ZM485.852 163.807a.493.493 0 0 1-.499.486.493.493 0 0 1-.499-.486c0-.268.222-.486.499-.486.276 0 .499.217.499.486ZM488.961 163.807a.493.493 0 0 1-.499.486.493.493 0 0 1-.499-.486c0-.268.223-.486.499-.486s.499.217.499.486ZM490.52 163.807a.493.493 0 0 1-.499.486.493.493 0 0 1-.5-.486c0-.268.223-.486.5-.486.276 0 .499.217.499.486ZM492.078 163.807a.493.493 0 0 1-.499.486.493.493 0 0 1-.499-.486c0-.268.223-.486.499-.486.275 0 .499.217.499.486ZM474.949 165.324a.492.492 0 0 1-.499.486.493.493 0 0 1-.499-.486c0-.268.223-.486.499-.486.275 0 .499.218.499.486ZM476.506 165.324a.493.493 0 0 1-.499.486.493.493 0 0 1-.499-.486c0-.268.223-.486.499-.486.275 0 .499.218.499.486ZM479.623 165.324a.493.493 0 0 1-.499.486.493.493 0 0 1-.499-.486c0-.268.223-.486.499-.486s.499.218.499.486ZM478.065 165.324a.493.493 0 0 1-.5.486.493.493 0 0 1-.499-.486c0-.268.223-.486.499-.486.277 0 .5.218.5.486ZM481.178 165.324a.493.493 0 0 1-.499.486.493.493 0 0 1-.499-.486c0-.268.222-.486.499-.486.275 0 .499.218.499.486ZM482.734 165.324a.492.492 0 0 1-.499.486.493.493 0 0 1-.499-.486c0-.268.223-.486.499-.486.277 0 .499.218.499.486ZM485.852 165.324a.493.493 0 0 1-.499.486.493.493 0 0 1-.499-.486c0-.268.222-.486.499-.486.276 0 .499.218.499.486ZM487.406 165.324a.492.492 0 0 1-.499.486.493.493 0 0 1-.499-.486c0-.268.223-.486.499-.486.275 0 .499.218.499.486ZM488.961 165.324a.493.493 0 0 1-.499.486.493.493 0 0 1-.499-.486c0-.268.223-.486.499-.486s.499.218.499.486ZM490.52 165.324a.493.493 0 0 1-.499.486.493.493 0 0 1-.5-.486c0-.268.223-.486.5-.486.276 0 .499.218.499.486ZM474.949 166.841a.492.492 0 0 1-.499.486.493.493 0 0 1-.499-.486c0-.268.223-.487.499-.487.275 0 .499.219.499.487ZM476.506 166.841a.493.493 0 0 1-.499.486.493.493 0 0 1-.499-.486c0-.268.223-.487.499-.487.275 0 .499.219.499.487ZM478.065 166.841a.493.493 0 0 1-.5.486.493.493 0 0 1-.499-.486c0-.268.223-.487.499-.487.277 0 .5.219.5.487ZM479.623 166.841a.493.493 0 0 1-.499.486.493.493 0 0 1-.499-.486c0-.268.223-.487.499-.487s.499.219.499.487ZM481.178 166.841a.493.493 0 0 1-.499.486.493.493 0 0 1-.499-.486c0-.268.222-.487.499-.487.275 0 .499.219.499.487ZM482.734 166.841a.492.492 0 0 1-.499.486.493.493 0 0 1-.499-.486c0-.268.223-.487.499-.487.277 0 .499.219.499.487ZM485.852 166.841a.493.493 0 0 1-.499.486.493.493 0 0 1-.499-.486c0-.268.222-.487.499-.487.276 0 .499.219.499.487ZM484.293 163.807a.493.493 0 0 1-.499.486.493.493 0 0 1-.499-.486c0-.268.223-.486.499-.486s.499.217.499.486ZM482.734 163.807a.492.492 0 0 1-.499.486.493.493 0 0 1-.499-.486c0-.268.223-.486.499-.486.277 0 .499.217.499.486ZM484.293 165.324a.493.493 0 0 1-.499.486.493.493 0 0 1-.499-.486c0-.268.223-.486.499-.486s.499.218.499.486ZM484.293 166.841a.493.493 0 0 1-.499.486.493.493 0 0 1-.499-.486c0-.268.223-.487.499-.487s.499.219.499.487ZM488.961 166.841a.493.493 0 0 1-.499.486.493.493 0 0 1-.499-.486c0-.268.223-.487.499-.487s.499.219.499.487ZM487.406 163.807a.492.492 0 0 1-.499.486.493.493 0 0 1-.499-.486c0-.268.223-.486.499-.486.275 0 .499.217.499.486ZM487.406 166.841a.492.492 0 0 1-.499.486.493.493 0 0 1-.499-.486c0-.268.223-.487.499-.487.275 0 .499.219.499.487ZM476.506 168.358a.493.493 0 0 1-.499.486.493.493 0 0 1-.499-.486c0-.268.223-.486.499-.486a.494.494 0 0 1 .499.486ZM478.065 168.358a.493.493 0 0 1-.5.486.493.493 0 0 1-.499-.486c0-.268.223-.486.499-.486.277.001.5.218.5.486ZM479.623 168.358a.493.493 0 0 1-.499.486.493.493 0 0 1-.499-.486c0-.268.223-.486.499-.486a.493.493 0 0 1 .499.486ZM481.178 168.358a.493.493 0 0 1-.499.486.493.493 0 0 1-.499-.486c0-.268.222-.486.499-.486a.494.494 0 0 1 .499.486ZM484.293 168.358a.493.493 0 0 1-.499.486.493.493 0 0 1-.499-.486c0-.268.223-.486.499-.486a.493.493 0 0 1 .499.486ZM482.734 168.358a.492.492 0 0 1-.499.486.493.493 0 0 1-.499-.486c0-.268.223-.486.499-.486a.493.493 0 0 1 .499.486ZM485.852 168.358a.493.493 0 0 1-.499.486.493.493 0 0 1-.499-.486c0-.268.222-.486.499-.486a.493.493 0 0 1 .499.486ZM487.406 168.358a.492.492 0 0 1-.499.486.493.493 0 0 1-.499-.486c0-.268.223-.486.499-.486a.494.494 0 0 1 .499.486ZM474.949 169.876a.492.492 0 0 1-.499.486.493.493 0 0 1-.499-.486c0-.268.223-.486.499-.486.275 0 .499.217.499.486ZM478.065 169.876a.493.493 0 0 1-.5.486.493.493 0 0 1-.499-.486c0-.268.223-.486.499-.486.277 0 .5.217.5.486ZM476.506 169.876a.493.493 0 0 1-.499.486.493.493 0 0 1-.499-.486c0-.268.223-.486.499-.486.275 0 .499.217.499.486ZM482.734 169.876a.492.492 0 0 1-.499.486.493.493 0 0 1-.499-.486c0-.268.223-.486.499-.486.277 0 .499.217.499.486ZM484.293 169.876a.493.493 0 0 1-.499.486.493.493 0 0 1-.499-.486c0-.268.223-.486.499-.486s.499.217.499.486ZM485.852 169.876a.493.493 0 0 1-.499.486.493.493 0 0 1-.499-.486c0-.268.222-.486.499-.486.276 0 .499.217.499.486ZM474.949 171.393a.493.493 0 0 1-.499.487.493.493 0 0 1-.499-.487c0-.268.223-.486.499-.486.275 0 .499.218.499.486ZM476.506 171.393a.493.493 0 0 1-.499.487.493.493 0 0 1-.499-.487c0-.268.223-.486.499-.486.275 0 .499.218.499.486ZM482.734 171.393a.493.493 0 0 1-.499.487.493.493 0 0 1-.499-.487c0-.268.223-.486.499-.486.277 0 .499.218.499.486ZM481.178 169.876a.493.493 0 0 1-.499.486.493.493 0 0 1-.499-.486c0-.268.222-.486.499-.486.275 0 .499.217.499.486ZM481.178 171.393a.493.493 0 0 1-.499.487.493.493 0 0 1-.499-.487c0-.268.222-.486.499-.486.275 0 .499.218.499.486ZM479.623 169.876a.493.493 0 0 1-.499.486.493.493 0 0 1-.499-.486c0-.268.223-.486.499-.486s.499.217.499.486ZM479.623 171.393a.493.493 0 0 1-.499.487.493.493 0 0 1-.499-.487c0-.268.223-.486.499-.486s.499.218.499.486ZM474.949 172.91a.492.492 0 0 1-.499.486.493.493 0 0 1-.499-.486c0-.268.223-.486.499-.486a.494.494 0 0 1 .499.486ZM476.506 172.91a.493.493 0 0 1-.499.486.493.493 0 0 1-.499-.486c0-.268.223-.486.499-.486a.494.494 0 0 1 .499.486ZM479.623 172.91a.493.493 0 0 1-.499.486.493.493 0 0 1-.499-.486c0-.268.223-.486.499-.486a.493.493 0 0 1 .499.486ZM478.065 171.393a.494.494 0 0 1-.5.487.493.493 0 0 1-.499-.487c0-.268.223-.486.499-.486.277 0 .5.218.5.486ZM478.065 172.91a.493.493 0 0 1-.5.486.493.493 0 0 1-.499-.486c0-.268.223-.486.499-.486.277.001.5.218.5.486ZM481.178 172.91a.493.493 0 0 1-.499.486.493.493 0 0 1-.499-.486c0-.268.222-.486.499-.486a.494.494 0 0 1 .499.486ZM484.306 171.249c0 .268-.594.546-.871.546-.275 0-.141-.133-.141-.402 0-.268.223-.486.5-.486.276 0 .512.074.512.342ZM476.506 174.428c0 .268-.201.034-.477.034-.275 0-.249-.034-.521-.034 0-.268.223-.486.499-.486.275 0 .499.217.499.486ZM478.065 174.428c0 .268-.223.216-.5.216-.275 0-.499.054-.499-.216 0-.268.223-.486.499-.486.277 0 .5.217.5.486ZM474.949 168.358a.492.492 0 0 1-.499.486.493.493 0 0 1-.499-.486c0-.268.223-.486.499-.486a.494.494 0 0 1 .499.486Z" fill="#3136BD"/><path d="M477.393 193.046c28.797 0 52.141-22.61 52.141-50.502 0-27.891-23.344-50.501-52.141-50.501-28.797 0-52.141 22.61-52.141 50.501 0 27.892 23.344 50.502 52.141 50.502Z" stroke="url(#m)" stroke-width="1.061" stroke-miterlimit="10"/></g></g><defs><linearGradient id="b" x1="-172.24" y1="434.732" x2="896.063" y2="-42.883" gradientUnits="userSpaceOnUse"><stop offset=".325" stop-color="#F8F8FE"/><stop offset="1" stop-color="#494FE1" stop-opacity=".93"/></linearGradient><linearGradient id="f" x1="421.763" y1="97.672" x2="522.73" y2="184.576" gradientUnits="userSpaceOnUse"><stop offset="0" stop-color="#3D4FC7"/><stop offset=".254" stop-color="#3D4FC7" stop-opacity=".72"/><stop offset=".391" stop-color="#3D4FC7" stop-opacity=".64"/><stop offset=".501" stop-color="#3D4FC7" stop-opacity=".48"/><stop offset=".595" stop-color="#3D4FC7" stop-opacity=".4"/><stop offset=".68" stop-color="#3D4FC7" stop-opacity=".32"/><stop offset=".759" stop-color="#3D4FC7" stop-opacity=".24"/><stop offset=".832" stop-color="#6266C6" stop-opacity=".16"/><stop offset=".901" stop-color="#6266C6" stop-opacity=".1"/><stop offset=".965" stop-color="#6266C6" stop-opacity=".03"/><stop offset="1" stop-opacity="0"/><stop offset="1" stop-color="#EFF0F8"/></linearGradient><linearGradient id="g" x1="535.022" y1="184.813" x2="435.411" y2="96.359" gradientUnits="userSpaceOnUse"><stop offset="0" stop-color="#3D4FC7"/><stop offset=".254" stop-color="#3D4FC7" stop-opacity=".72"/><stop offset=".391" stop-color="#3D4FC7" stop-opacity=".6"/><stop offset=".501" stop-color="#3D4FC7" stop-opacity=".5"/><stop offset=".595" stop-color="#3D4FC7" stop-opacity=".4"/><stop offset=".68" stop-color="#3D4FC7" stop-opacity=".32"/><stop offset=".759" stop-color="#3D4FC7" stop-opacity=".24"/><stop offset=".832" stop-color="#3D4FC7" stop-opacity=".16"/><stop offset=".901" stop-color="#3D4FC7" stop-opacity=".08"/><stop offset=".94" stop-color="#6266C6" stop-opacity=".04"/><stop offset=".965" stop-color="#3D4FC7" stop-opacity=".04"/><stop offset="1" stop-color="#3D4FC7" stop-opacity=".02"/></linearGradient><linearGradient id="h" x1="535.022" y1="184.813" x2="435.411" y2="96.359" gradientUnits="userSpaceOnUse"><stop offset="0" stop-color="#3D4FC7"/><stop offset=".254" stop-color="#3D4FC7" stop-opacity=".72"/><stop offset=".391" stop-color="#3D4FC7" stop-opacity=".64"/><stop offset=".501" stop-color="#3D4FC7" stop-opacity=".64"/><stop offset=".595" stop-color="#3D4FC7" stop-opacity=".4"/><stop offset=".68" stop-color="#3D4FC7" stop-opacity=".32"/><stop offset=".759" stop-color="#3D4FC7" stop-opacity=".24"/><stop offset=".832" stop-color="#3D4FC7" stop-opacity=".16"/><stop offset=".901" stop-color="#3D4FC7" stop-opacity=".08"/><stop offset=".965" stop-color="#3D4FC7" stop-opacity=".04"/><stop offset="1" stop-color="#3D4FC7" stop-opacity="0"/></linearGradient><linearGradient id="i" x1="504.428" y1="220.378" x2="403.76" y2="133.128" gradientUnits="userSpaceOnUse"><stop offset="0" stop-color="#3D4FC7"/><stop offset=".254" stop-color="#3D4FC7" stop-opacity=".72"/><stop offset=".391" stop-color="#3D4FC7" stop-opacity=".6"/><stop offset=".501" stop-color="#3D4FC7" stop-opacity=".48"/><stop offset=".595" stop-color="#3D4FC7" stop-opacity=".4"/><stop offset=".68" stop-color="#3D4FC7" stop-opacity=".4"/><stop offset=".759" stop-color="#3D4FC7" stop-opacity=".24"/><stop offset=".832" stop-color="#3D4FC7" stop-opacity=".16"/><stop offset=".901" stop-color="#3D4FC7" stop-opacity=".08"/><stop offset=".965" stop-color="#3D4FC7" stop-opacity=".04"/><stop offset="1" stop-color="#3D4FC7" stop-opacity="0"/></linearGradient><linearGradient id="j" x1="539.438" y1="178.52" x2="436.116" y2="94.43" gradientUnits="userSpaceOnUse"><stop offset="0" stop-color="#3D4FC7"/><stop offset=".122" stop-color="#3D4FC7" stop-opacity=".8"/><stop offset=".254" stop-color="#3D4FC7" stop-opacity=".72"/><stop offset=".391" stop-color="#3D4FC7" stop-opacity=".6"/><stop offset=".501" stop-color="#3D4FC7" stop-opacity=".48"/><stop offset=".595" stop-color="#3D4FC7" stop-opacity=".4"/><stop offset=".68" stop-color="#3D4FC7" stop-opacity=".32"/><stop offset=".759" stop-color="#3D4FC7" stop-opacity=".24"/><stop offset=".832" stop-color="#3D4FC7" stop-opacity=".16"/><stop offset=".865" stop-color="#4E54D1" stop-opacity=".122"/><stop offset=".901" stop-color="#3D4FC7" stop-opacity=".08"/><stop offset=".965" stop-color="#3D4FC7" stop-opacity=".04"/><stop offset="1" stop-opacity="0"/><stop offset="1" stop-color="#6266C6" stop-opacity="0"/><stop offset="1" stop-color="#3D4FC7" stop-opacity="0"/></linearGradient><linearGradient id="k" x1="506.704" y1="141.432" x2="447.838" y2="141.432" gradientUnits="userSpaceOnUse"><stop offset=".443" stop-color="#fff"/><stop offset=".589" stop-color="#A1A1A1"/><stop offset=".732" stop-color="#4A4A4A"/><stop offset=".832" stop-color="#151515"/><stop offset=".88"/></linearGradient><linearGradient id="m" x1="437.39" y1="110.05" x2="515.274" y2="177.489" gradientUnits="userSpaceOnUse"><stop stop-color="#57C3F9" stop-opacity=".2"/><stop offset=".489" stop-color="#57C3F9"/><stop offset=".761" stop-color="#57C3F9"/><stop offset="1" stop-color="#57C3F9" stop-opacity=".5"/></linearGradient><filter id="c" x="292.783" y="-43.05" width="369.877" height="369.876" filterUnits="userSpaceOnUse" color-interpolation-filters="sRGB"><feFlood flood-opacity="0" result="BackgroundImageFix"/><feColorMatrix in="SourceAlpha" values="0 0 0 0 0 0 0 0 0 0 0 0 0 0 0 0 0 0 127 0" result="hardAlpha"/><feOffset/><feGaussianBlur stdDeviation="40"/><feComposite in2="hardAlpha" operator="out"/><feColorMatrix values="0 0 0 0 0.777767 0 0 0 0 0.797986 0 0 0 0 0.865384 0 0 0 0.4 0"/><feBlend in2="BackgroundImageFix" result="effect1_dropShadow_3059_174694"/><feBlend in="SourceGraphic" in2="effect1_dropShadow_3059_174694" result="shape"/></filter><filter id="d" x="298.863" y="13.324" width="391.363" height="343.04" filterUnits="userSpaceOnUse" color-interpolation-filters="sRGB"><feFlood flood-opacity="0" result="BackgroundImageFix"/><feColorMatrix in="SourceAlpha" values="0 0 0 0 0 0 0 0 0 0 0 0 0 0 0 0 0 0 127 0" result="hardAlpha"/><feOffset/><feGaussianBlur stdDeviation="40"/><feComposite in2="hardAlpha" operator="out"/><feColorMatrix values="0 0 0 0 0.777767 0 0 0 0 0.797986 0 0 0 0 0.865384 0 0 0 0.4 0"/><feBlend in2="BackgroundImageFix" result="effect1_dropShadow_3059_174694"/><feBlend in="SourceGraphic" in2="effect1_dropShadow_3059_174694" result="shape"/></filter><filter id="e" x="373.574" y="37.743" width="208.289" height="208.29" filterUnits="userSpaceOnUse" color-interpolation-filters="sRGB"><feFlood flood-opacity="0" result="BackgroundImageFix"/><feColorMatrix in="SourceAlpha" values="0 0 0 0 0 0 0 0 0 0 0 0 0 0 0 0 0 0 127 0" result="hardAlpha"/><feOffset/><feGaussianBlur stdDeviation="16"/><feComposite in2="hardAlpha" operator="out"/><feColorMatrix values="0 0 0 0 0.886275 0 0 0 0 0.894118 0 0 0 0 0.945098 0 0 0 0.6 0"/><feBlend in2="BackgroundImageFix" result="effect1_dropShadow_3059_174694"/><feBlend in="SourceGraphic" in2="effect1_dropShadow_3059_174694" result="shape"/></filter><clipPath id="a"><path fill="#fff" d="M0 0h744v361H0z"/></clipPath></defs></svg>