<svg width="375" height="271" fill="none" xmlns="http://www.w3.org/2000/svg"><g clip-path="url(#a)"><path d="M480.904 0c-4.322 55.769-56.882 89.59-100.016 76.083-37.895-11.867-60.892-7.206-76.453 4.796-29.254 22.56-26.983 65.911-71.457 78.655-33.543 9.612-62.629-20.267-93.573-5.532-30.944 14.735-18.333 42.876-61.532 82.244s-74.517-3.741-95.896 27.479" stroke="url(#b)"/><g filter="url(#c)"><circle cx="252.761" cy="135.606" r="75.337" fill="#fff"/></g><g filter="url(#d)"><path d="M181.788 198.758a94.174 94.174 0 0 0 121.476 19.302 94.168 94.168 0 0 0 36.95-117.319l-10.743 4.625a82.48 82.48 0 0 1-32.36 102.748 82.477 82.477 0 0 1-106.389-16.905l-8.934 7.549Z" fill="#E2E4F1"/></g><g filter="url(#e)"><circle cx="252.759" cy="135.606" r="51.794" fill="#fff"/></g><path opacity=".5" d="M286.898 122.325a36.565 36.565 0 0 0-8.126-11.842 37.642 37.642 0 0 0-12.154-7.918c-4.53-1.835-9.435-2.772-14.339-2.774-4.904.002-9.808.94-14.339 2.774a37.642 37.642 0 0 0-12.154 7.918 36.565 36.565 0 0 0-8.126 11.842 35.719 35.719 0 0 0-2.848 13.972 35.719 35.719 0 0 0 2.848 13.972 36.554 36.554 0 0 0 8.126 11.842 37.626 37.626 0 0 0 12.154 7.918 38.34 38.34 0 0 0 14.339 2.774 38.363 38.363 0 0 0 14.339-2.774 37.626 37.626 0 0 0 12.154-7.918 36.554 36.554 0 0 0 8.126-11.842 35.733 35.733 0 0 0 2.848-13.972 35.737 35.737 0 0 0-2.848-13.972Zm-.518 27.734a35.998 35.998 0 0 1-8.005 11.664c-3.416 3.33-7.507 6-11.97 7.799-4.462 1.808-9.292 2.732-14.125 2.734-4.833-.002-9.663-.926-14.125-2.734a37.031 37.031 0 0 1-11.971-7.799 35.99 35.99 0 0 1-8.004-11.664 35.191 35.191 0 0 1-2.806-13.763 35.191 35.191 0 0 1 2.806-13.763 35.99 35.99 0 0 1 8.004-11.664 37.075 37.075 0 0 1 11.971-7.799 37.77 37.77 0 0 1 14.125-2.733 37.77 37.77 0 0 1 14.125 2.733 37.06 37.06 0 0 1 11.97 7.799 36.02 36.02 0 0 1 8.005 11.664 35.172 35.172 0 0 1 0 27.526Z" fill="url(#f)"/><path d="M226.332 108.306c5.855-5.184 13.4-8.508 21.3-9.393l.285 2.725c-7.311.83-14.289 3.909-19.705 8.705-5.507 4.831-9.38 11.27-10.95 18.184l-2.752-.561c1.689-7.48 5.872-14.443 11.822-19.66Z" fill="url(#g)"/><path d="M214.51 127.966c1.689-7.48 5.871-14.443 11.822-19.66 5.855-5.184 13.4-8.508 21.3-9.393l.285 2.725c-7.311.83-14.289 3.909-19.705 8.705-5.507 4.831-9.38 11.27-10.95 18.184l-2.752-.561Z" fill="url(#h)"/><path d="m213.771 136.856 2.81.002a34.1 34.1 0 0 0 2.927 13.268c1.841 4.148 4.572 7.998 7.915 11.169l-1.927 1.994c-3.619-3.425-6.576-7.59-8.568-12.077a36.782 36.782 0 0 1-3.157-14.356Z" fill="url(#i)"/><path d="m270.334 106.041 1.399-2.378c6.512 3.76 11.871 9.457 15.128 16.097 3.35 6.765 4.521 14.626 3.298 22.139-1.196 7.467-4.816 14.592-10.196 20.066-5.238 5.364-12.15 9.173-19.517 10.763l-.568-2.682c6.812-1.48 13.204-5.007 18.051-9.969 4.988-5.075 8.346-11.682 9.453-18.603 1.135-6.971.049-14.263-3.057-20.528-3.012-6.144-7.967-11.417-13.991-14.905Z" fill="url(#j)"/><path d="M272.015 120.918c0 33.378-19.73 38.179-19.73 38.179s-19.73-4.801-19.73-38.179c6.576-.52 13.017-1.247 19.73-7.236 6.714 5.989 13.154 6.716 19.73 7.236Z" stroke="#3136BD" stroke-miterlimit="10"/><path d="M252.299 113.692c6.713 5.988 13.153 6.716 19.73 7.236 0 33.378-19.73 38.178-19.73 38.178s-19.731-4.8-19.731-38.178c6.577-.52 13.017-1.248 19.731-7.236Zm0-1.668-.853.76c-1.548 1.382-3.106 2.502-4.764 3.423a23.597 23.597 0 0 1-4.676 1.979c-3.122.95-6.294 1.259-9.54 1.515l-1.159.091v1.134c0 7.752 1.061 14.633 3.154 20.453 1.691 4.704 4.058 8.732 7.032 11.972 5.132 5.59 10.283 6.892 10.5 6.945l.306.074.305-.074c.217-.053 5.368-1.355 10.5-6.945 2.975-3.24 5.341-7.268 7.033-11.972 2.092-5.82 3.154-12.701 3.154-20.453v-1.134l-1.16-.091c-3.246-.256-6.418-.565-9.54-1.515a23.622 23.622 0 0 1-4.676-1.979c-1.657-.921-3.216-2.042-4.764-3.423l-.852-.76Z" stroke="#3136BD" stroke-miterlimit="10"/><mask id="l" style="mask-type:alpha" maskUnits="userSpaceOnUse" x="231" y="111" width="43" height="49"><path d="M231.307 111.468v47.621h42.26v-47.621h-42.26Z" fill="url(#k)"/></mask><g mask="url(#l)"><path d="M249.652 116.482c0 .193-.16.349-.358.349a.353.353 0 0 1-.358-.349c0-.192.159-.349.358-.349.198 0 .358.157.358.349ZM250.769 116.482c0 .193-.16.349-.358.349a.354.354 0 0 1-.358-.349c0-.192.16-.349.358-.349.198 0 .358.157.358.349ZM250.769 115.42c0 .193-.16.349-.358.349a.354.354 0 0 1-.358-.349c0-.192.16-.349.358-.349.198 0 .358.157.358.349ZM251.888 116.482a.353.353 0 0 1-.358.349.354.354 0 0 1-.358-.349c0-.192.16-.349.358-.349.198 0 .358.157.358.349ZM251.888 115.42a.353.353 0 0 1-.358.349.354.354 0 0 1-.358-.349c0-.192.16-.349.358-.349.198 0 .358.157.358.349ZM251.89 114.376c0 .192-.16.349-.358.349-.198 0-.167-.102-.167-.295s.237-.219.358-.349c.198 0 .167.102.167.295ZM253.008 116.482c0 .193-.16.349-.359.349a.354.354 0 0 1-.358-.349c0-.192.16-.349.358-.349.198 0 .359.157.359.349ZM253.008 115.42c0 .193-.16.349-.359.349a.354.354 0 0 1-.358-.349c0-.192.16-.349.358-.349.198 0 .359.157.359.349ZM253.008 114.375c0 .193-.16.35-.359.35a.354.354 0 0 1-.358-.35c0-.192.16-.349.358-.349.198 0 .359.157.359.349ZM254.125 116.482c0 .193-.16.349-.359.349a.354.354 0 0 1-.358-.349c0-.192.16-.349.358-.349.199 0 .359.157.359.349ZM254.125 115.42c0 .193-.16.349-.359.349a.354.354 0 0 1-.358-.349c0-.192.16-.349.358-.349.199 0 .359.157.359.349ZM247.418 117.571c0 .193-.16.349-.359.349a.353.353 0 0 1-.358-.349c0-.192.16-.349.358-.349a.355.355 0 0 1 .359.349ZM248.537 117.571c0 .193-.16.349-.358.349a.353.353 0 0 1-.359-.349c0-.192.16-.349.359-.349a.355.355 0 0 1 .358.349ZM249.652 117.571c0 .193-.16.349-.358.349a.353.353 0 0 1-.358-.349c0-.192.159-.349.358-.349a.355.355 0 0 1 .358.349ZM250.769 117.571c0 .193-.16.349-.358.349a.353.353 0 0 1-.358-.349c0-.192.16-.349.358-.349a.355.355 0 0 1 .358.349ZM251.888 117.571a.353.353 0 0 1-.358.349.353.353 0 0 1-.358-.349c0-.192.16-.349.358-.349a.355.355 0 0 1 .358.349ZM253.008 117.571c0 .193-.16.349-.359.349a.353.353 0 0 1-.358-.349c0-.192.16-.349.358-.349a.355.355 0 0 1 .359.349ZM254.125 117.571c0 .193-.16.349-.359.349a.353.353 0 0 1-.358-.349c0-.192.16-.349.358-.349a.355.355 0 0 1 .359.349ZM245.181 118.661c0 .193-.16.349-.358.349a.354.354 0 0 1-.358-.349c0-.192.16-.349.358-.349.198 0 .358.156.358.349ZM246.299 118.661c0 .193-.16.349-.359.349a.354.354 0 0 1-.358-.349c0-.192.16-.349.358-.349.199 0 .359.156.359.349ZM247.418 118.661c0 .193-.16.349-.359.349a.354.354 0 0 1-.358-.349c0-.192.16-.349.358-.349.199 0 .359.156.359.349ZM248.537 118.661c0 .193-.16.349-.358.349a.354.354 0 0 1-.359-.349c0-.192.16-.349.359-.349.197 0 .358.156.358.349ZM249.652 118.661c0 .193-.16.349-.358.349a.353.353 0 0 1-.358-.349c0-.192.159-.349.358-.349.198 0 .358.156.358.349ZM250.769 118.661c0 .193-.16.349-.358.349a.354.354 0 0 1-.358-.349c0-.192.16-.349.358-.349.198 0 .358.156.358.349ZM251.888 118.661a.353.353 0 0 1-.358.349.354.354 0 0 1-.358-.349c0-.192.16-.349.358-.349.198 0 .358.156.358.349ZM253.008 118.661c0 .193-.16.349-.359.349a.354.354 0 0 1-.358-.349c0-.192.16-.349.358-.349.198 0 .359.156.359.349ZM254.125 118.661c0 .193-.16.349-.359.349a.354.354 0 0 1-.358-.349c0-.192.16-.349.358-.349.199 0 .359.156.359.349ZM241.828 119.75c0 .193-.16.35-.358.35a.354.354 0 0 1-.359-.35c0-.192.16-.349.359-.349.198 0 .358.157.358.349ZM242.945 119.75c0 .193-.16.35-.358.35a.353.353 0 0 1-.358-.35c0-.192.159-.349.358-.349.198 0 .358.157.358.349ZM244.064 119.75c0 .193-.16.35-.358.35a.353.353 0 0 1-.358-.35c0-.192.16-.349.358-.349.197 0 .358.157.358.349ZM245.181 119.75c0 .193-.16.349-.358.349a.353.353 0 0 1-.358-.349c0-.192.16-.349.358-.349.198 0 .358.157.358.349ZM246.299 119.75c0 .193-.16.35-.359.35a.354.354 0 0 1-.358-.35c0-.192.16-.349.358-.349.199 0 .359.157.359.349ZM247.418 119.75c0 .193-.16.349-.359.349a.353.353 0 0 1-.358-.349c0-.192.16-.349.358-.349.199 0 .359.157.359.349ZM248.537 119.75c0 .193-.16.35-.358.35a.354.354 0 0 1-.359-.35c0-.192.16-.349.359-.349.197 0 .358.157.358.349ZM249.652 119.75c0 .193-.16.35-.358.35a.353.353 0 0 1-.358-.35c0-.192.159-.349.358-.349.198 0 .358.157.358.349ZM250.769 119.75c0 .193-.16.35-.358.35a.354.354 0 0 1-.358-.35c0-.192.16-.349.358-.349.198 0 .358.157.358.349ZM251.888 119.75c0 .193-.159.35-.358.35a.354.354 0 0 1-.358-.35c0-.192.16-.349.358-.349.198 0 .358.157.358.349ZM253.008 119.75c0 .193-.16.35-.359.35a.354.354 0 0 1-.358-.35c0-.192.16-.349.358-.349.198 0 .359.157.359.349ZM254.125 119.75c0 .193-.16.35-.359.35a.354.354 0 0 1-.358-.35c0-.192.16-.349.358-.349.199 0 .359.157.359.349ZM234.002 120.839c0 .193-.16.349-.359.349a.353.353 0 0 1-.358-.349c0-.192.147-.153.345-.153.199 0 .372-.039.372.153ZM237.355 120.839c0 .193-.16.349-.358.349a.353.353 0 0 1-.358-.349c0-.192.16-.349.358-.349.197 0 .358.157.358.349ZM238.474 120.839c0 .193-.16.349-.358.349a.353.353 0 0 1-.358-.349c0-.192.16-.349.358-.349.198 0 .358.157.358.349ZM235.119 120.839c0 .193-.16.349-.358.349a.353.353 0 0 1-.359-.349c0-.192.16-.24.359-.24.198 0 .358.048.358.24ZM236.24 120.839c0 .193-.16.349-.358.349a.353.353 0 0 1-.359-.349c0-.192.16-.349.359-.349.197 0 .358.157.358.349ZM239.592 120.839c0 .193-.16.349-.359.349a.353.353 0 0 1-.358-.349c0-.192.16-.349.358-.349.199 0 .359.157.359.349ZM240.711 120.839c0 .193-.16.349-.359.349a.353.353 0 0 1-.358-.349c0-.192.16-.349.358-.349.198 0 .359.157.359.349ZM241.828 120.839c0 .193-.16.349-.358.349a.353.353 0 0 1-.359-.349c0-.192.16-.349.359-.349.198 0 .358.157.358.349ZM242.945 120.839c0 .193-.16.349-.358.349a.353.353 0 0 1-.358-.349c0-.192.159-.349.358-.349.198 0 .358.157.358.349ZM244.064 120.839c0 .193-.16.349-.358.349a.353.353 0 0 1-.358-.349c0-.192.16-.349.358-.349.197 0 .358.157.358.349ZM246.299 120.839c0 .193-.16.349-.359.349a.353.353 0 0 1-.358-.349c0-.192.16-.349.358-.349.199 0 .359.157.359.349ZM245.181 120.839c0 .193-.16.349-.358.349a.353.353 0 0 1-.358-.349c0-.192.16-.349.358-.349.198 0 .358.157.358.349ZM247.418 120.839c0 .193-.16.349-.359.349a.353.353 0 0 1-.358-.349c0-.192.16-.349.358-.349.199 0 .359.157.359.349ZM248.537 120.839c0 .193-.16.349-.358.349a.353.353 0 0 1-.359-.349c0-.192.16-.349.359-.349.197 0 .358.157.358.349ZM249.652 120.839c0 .193-.16.349-.358.349a.353.353 0 0 1-.358-.349c0-.192.159-.349.358-.349.198 0 .358.157.358.349ZM250.769 120.839c0 .193-.16.349-.358.349a.353.353 0 0 1-.358-.349c0-.192.16-.349.358-.349.198 0 .358.157.358.349ZM251.888 120.839a.353.353 0 0 1-.358.349.353.353 0 0 1-.358-.349c0-.192.16-.349.358-.349.198 0 .358.157.358.349ZM253.008 120.839c0 .193-.16.349-.359.349a.353.353 0 0 1-.358-.349c0-.192.16-.349.358-.349.198 0 .359.157.359.349ZM254.125 120.839c0 .193-.16.349-.359.349a.353.353 0 0 1-.358-.349c0-.192.16-.349.358-.349.199 0 .359.157.359.349ZM232.884 121.928c0 .193-.16.35-.358.35-.198 0-.102-.18-.102-.373 0-.192-.097-.326.102-.326a.355.355 0 0 1 .358.349ZM234.002 121.928c0 .193-.16.35-.359.35a.354.354 0 0 1-.358-.35c0-.192.16-.349.358-.349a.355.355 0 0 1 .359.349ZM235.119 121.928c0 .193-.16.35-.358.35a.354.354 0 0 1-.359-.35c0-.192.16-.349.359-.349a.355.355 0 0 1 .358.349ZM236.24 121.928c0 .193-.16.35-.358.35a.354.354 0 0 1-.359-.35c0-.192.16-.349.359-.349a.355.355 0 0 1 .358.349ZM237.355 121.928c0 .193-.16.35-.358.35a.353.353 0 0 1-.358-.35c0-.192.16-.349.358-.349a.355.355 0 0 1 .358.349ZM240.711 121.928c0 .193-.16.35-.359.35a.354.354 0 0 1-.358-.35c0-.192.16-.349.358-.349a.355.355 0 0 1 .359.349ZM241.828 121.928c0 .193-.16.35-.358.35a.354.354 0 0 1-.359-.35c0-.192.16-.349.359-.349a.355.355 0 0 1 .358.349ZM238.474 121.928c0 .193-.16.35-.358.35a.354.354 0 0 1-.358-.35c0-.192.16-.349.358-.349a.355.355 0 0 1 .358.349ZM239.592 121.928c0 .193-.16.35-.359.35a.354.354 0 0 1-.358-.35c0-.192.16-.349.358-.349a.355.355 0 0 1 .359.349ZM244.064 121.928c0 .193-.16.35-.358.35a.353.353 0 0 1-.358-.35c0-.192.16-.349.358-.349a.355.355 0 0 1 .358.349ZM242.945 121.928c0 .193-.16.35-.358.35a.353.353 0 0 1-.358-.35c0-.192.159-.349.358-.349a.355.355 0 0 1 .358.349ZM245.181 121.928c0 .193-.16.35-.358.35a.354.354 0 0 1-.358-.35c0-.192.16-.349.358-.349a.355.355 0 0 1 .358.349ZM246.299 121.928c0 .193-.16.35-.359.35a.354.354 0 0 1-.358-.35c0-.192.16-.349.358-.349a.355.355 0 0 1 .359.349ZM247.418 121.928c0 .193-.16.35-.359.35a.354.354 0 0 1-.358-.35c0-.192.16-.349.358-.349a.355.355 0 0 1 .359.349ZM248.537 121.928c0 .193-.16.35-.358.35a.354.354 0 0 1-.359-.35c0-.192.16-.349.359-.349a.355.355 0 0 1 .358.349ZM249.652 121.928c0 .193-.16.35-.358.35a.353.353 0 0 1-.358-.35c0-.192.159-.349.358-.349a.355.355 0 0 1 .358.349ZM250.769 121.928c0 .193-.16.35-.358.35a.354.354 0 0 1-.358-.35c0-.192.16-.349.358-.349a.355.355 0 0 1 .358.349ZM251.888 121.928c0 .193-.159.35-.358.35a.354.354 0 0 1-.358-.35c0-.192.16-.349.358-.349a.355.355 0 0 1 .358.349ZM253.008 121.928c0 .193-.16.35-.359.35a.354.354 0 0 1-.358-.35c0-.192.16-.349.358-.349a.355.355 0 0 1 .359.349ZM254.125 121.928c0 .193-.16.35-.359.35a.354.354 0 0 1-.358-.35c0-.192.16-.349.358-.349a.355.355 0 0 1 .359.349ZM234.002 123.018c0 .193-.16.349-.359.349a.353.353 0 0 1-.358-.349c0-.192.16-.349.358-.349.199 0 .359.156.359.349ZM236.24 123.018c0 .193-.16.349-.358.349a.353.353 0 0 1-.359-.349c0-.192.16-.349.359-.349.197 0 .358.156.358.349ZM235.119 123.018c0 .193-.16.349-.358.349a.353.353 0 0 1-.359-.349c0-.192.16-.349.359-.349.198 0 .358.156.358.349ZM237.355 123.018c0 .193-.16.349-.358.349a.353.353 0 0 1-.358-.349c0-.192.16-.349.358-.349.197 0 .358.156.358.349ZM238.474 123.018c0 .193-.16.349-.358.349a.353.353 0 0 1-.358-.349c0-.192.16-.349.358-.349.198 0 .358.156.358.349ZM239.592 123.018c0 .193-.16.349-.359.349a.353.353 0 0 1-.358-.349c0-.192.16-.349.358-.349.199 0 .359.156.359.349ZM240.711 123.018c0 .193-.16.349-.359.349a.353.353 0 0 1-.358-.349c0-.192.16-.349.358-.349.198 0 .359.156.359.349ZM241.828 123.018c0 .193-.16.349-.358.349a.353.353 0 0 1-.359-.349c0-.192.16-.349.359-.349.198 0 .358.156.358.349ZM242.945 123.018c0 .193-.16.349-.358.349a.353.353 0 0 1-.358-.349c0-.192.159-.349.358-.349.198 0 .358.156.358.349ZM244.064 123.018c0 .193-.16.349-.358.349a.353.353 0 0 1-.358-.349c0-.192.16-.349.358-.349.197 0 .358.156.358.349ZM245.181 123.018c0 .193-.16.349-.358.349a.353.353 0 0 1-.358-.349c0-.192.16-.349.358-.349.198 0 .358.156.358.349ZM246.299 123.018c0 .193-.16.349-.359.349a.353.353 0 0 1-.358-.349c0-.192.16-.349.358-.349.199 0 .359.156.359.349ZM247.418 123.018c0 .193-.16.349-.359.349a.353.353 0 0 1-.358-.349c0-.192.16-.349.358-.349.199 0 .359.156.359.349ZM248.537 123.018c0 .193-.16.349-.358.349a.353.353 0 0 1-.359-.349c0-.192.16-.349.359-.349.197 0 .358.156.358.349ZM249.652 123.018c0 .193-.16.349-.358.349a.353.353 0 0 1-.358-.349c0-.192.159-.349.358-.349.198 0 .358.156.358.349ZM250.769 123.018c0 .193-.16.349-.358.349a.353.353 0 0 1-.358-.349c0-.192.16-.349.358-.349.198 0 .358.156.358.349ZM251.888 123.018a.353.353 0 0 1-.358.349.353.353 0 0 1-.358-.349c0-.192.16-.349.358-.349.198 0 .358.156.358.349ZM253.008 123.018c0 .193-.16.349-.359.349a.353.353 0 0 1-.358-.349c0-.192.16-.349.358-.349.198 0 .359.156.359.349ZM254.125 123.018c0 .193-.16.349-.359.349a.353.353 0 0 1-.358-.349c0-.192.16-.349.358-.349.199 0 .359.156.359.349ZM232.884 124.107c0 .193-.16.349-.358.349-.198 0-.09-.155-.09-.349 0-.192-.109-.349.09-.349.197 0 .358.157.358.349ZM234.002 124.108c0 .192-.16.349-.359.349a.354.354 0 0 1-.358-.349c0-.193.16-.35.358-.35.199 0 .359.157.359.35ZM235.119 124.107c0 .193-.16.349-.358.349a.353.353 0 0 1-.359-.349c0-.192.16-.349.359-.349.198 0 .358.157.358.349ZM237.355 124.107c0 .193-.16.349-.358.349a.353.353 0 0 1-.358-.349c0-.192.16-.349.358-.349.197 0 .358.157.358.349ZM236.24 124.107c0 .193-.16.349-.358.349a.353.353 0 0 1-.359-.349c0-.192.16-.349.359-.349.197 0 .358.157.358.349ZM239.592 124.107c0 .193-.16.349-.359.349a.353.353 0 0 1-.358-.349c0-.192.16-.349.358-.349.199 0 .359.157.359.349ZM241.828 124.107c0 .193-.16.349-.358.349a.353.353 0 0 1-.359-.349c0-.192.16-.349.359-.349.198 0 .358.157.358.349ZM242.945 124.107c0 .193-.16.349-.358.349a.353.353 0 0 1-.358-.349c0-.192.159-.349.358-.349.198 0 .358.157.358.349ZM244.064 124.107c0 .193-.16.349-.358.349a.353.353 0 0 1-.358-.349c0-.192.16-.349.358-.349.197 0 .358.157.358.349ZM238.474 124.107c0 .193-.16.349-.358.349a.353.353 0 0 1-.358-.349c0-.192.16-.349.358-.349.198 0 .358.157.358.349ZM240.711 124.107c0 .193-.16.349-.359.349a.353.353 0 0 1-.358-.349c0-.192.16-.349.358-.349.198 0 .359.157.359.349ZM245.181 124.108c0 .192-.16.349-.358.349a.354.354 0 0 1-.358-.349c0-.193.16-.35.358-.35.198 0 .358.157.358.35ZM246.299 124.107c0 .193-.16.349-.359.349a.353.353 0 0 1-.358-.349c0-.192.16-.349.358-.349.199 0 .359.157.359.349ZM247.418 124.108c0 .192-.16.349-.359.349a.354.354 0 0 1-.358-.349c0-.193.16-.35.358-.35.199 0 .359.157.359.35ZM248.537 124.107c0 .193-.16.349-.358.349a.353.353 0 0 1-.359-.349c0-.192.16-.349.359-.349.197 0 .358.157.358.349ZM249.652 124.107c0 .193-.16.349-.358.349a.353.353 0 0 1-.358-.349c0-.192.159-.349.358-.349.198 0 .358.157.358.349ZM250.769 124.107c0 .193-.16.349-.358.349a.353.353 0 0 1-.358-.349c0-.192.16-.349.358-.349.198 0 .358.157.358.349ZM251.888 124.107a.353.353 0 0 1-.358.349.353.353 0 0 1-.358-.349c0-.192.16-.349.358-.349.198 0 .358.157.358.349ZM253.008 124.107c0 .193-.16.349-.359.349a.353.353 0 0 1-.358-.349c0-.192.16-.349.358-.349.198 0 .359.157.359.349ZM254.125 124.107c0 .193-.16.349-.359.349a.353.353 0 0 1-.358-.349c0-.192.16-.349.358-.349.199 0 .359.157.359.349ZM234.002 125.197c0 .192-.16.349-.359.349a.354.354 0 0 1-.358-.349c0-.193.16-.35.358-.35a.355.355 0 0 1 .359.35ZM232.884 123.018c0 .193-.16.349-.358.349-.198 0-.102-.155-.102-.349 0-.192-.097-.349.102-.349.197 0 .358.156.358.349ZM235.119 125.197c0 .192-.16.349-.358.349a.354.354 0 0 1-.359-.349c0-.193.16-.35.359-.35a.355.355 0 0 1 .358.35ZM236.24 125.197c0 .192-.16.349-.358.349a.354.354 0 0 1-.359-.349c0-.193.16-.35.359-.35a.355.355 0 0 1 .358.35ZM238.474 125.197c0 .192-.16.349-.358.349a.354.354 0 0 1-.358-.349c0-.193.16-.35.358-.35a.355.355 0 0 1 .358.35ZM239.592 125.197c0 .192-.16.349-.359.349a.354.354 0 0 1-.358-.349c0-.193.16-.35.358-.35a.355.355 0 0 1 .359.35ZM240.711 125.197c0 .192-.16.349-.359.349a.354.354 0 0 1-.358-.349c0-.193.16-.35.358-.35a.356.356 0 0 1 .359.35ZM241.828 125.197c0 .192-.16.349-.358.349a.354.354 0 0 1-.359-.349c0-.193.16-.35.359-.35a.355.355 0 0 1 .358.35ZM244.064 125.197c0 .192-.16.349-.358.349a.353.353 0 0 1-.358-.349c0-.193.16-.35.358-.35a.355.355 0 0 1 .358.35ZM246.299 125.197c0 .192-.16.349-.359.349a.354.354 0 0 1-.358-.349c0-.193.16-.35.358-.35a.355.355 0 0 1 .359.35ZM242.945 125.197c0 .192-.16.349-.358.349a.353.353 0 0 1-.358-.349c0-.193.159-.35.358-.35a.355.355 0 0 1 .358.35ZM245.181 125.197c0 .192-.16.349-.358.349a.354.354 0 0 1-.358-.349c0-.193.16-.35.358-.35a.355.355 0 0 1 .358.35ZM247.418 125.197c0 .192-.16.349-.359.349a.354.354 0 0 1-.358-.349c0-.193.16-.35.358-.35a.355.355 0 0 1 .359.35ZM248.537 125.197c0 .192-.16.349-.358.349a.354.354 0 0 1-.359-.349c0-.193.16-.35.359-.35a.355.355 0 0 1 .358.35ZM249.652 125.197c0 .192-.16.349-.358.349a.353.353 0 0 1-.358-.349c0-.193.159-.35.358-.35a.355.355 0 0 1 .358.35ZM250.769 125.197c0 .192-.16.349-.358.349a.354.354 0 0 1-.358-.349c0-.193.16-.35.358-.35a.355.355 0 0 1 .358.35ZM251.888 125.197a.353.353 0 0 1-.358.349.354.354 0 0 1-.358-.349c0-.193.16-.35.358-.35a.355.355 0 0 1 .358.35ZM253.008 125.197c0 .192-.16.349-.359.349a.354.354 0 0 1-.358-.349c0-.193.16-.35.358-.35a.356.356 0 0 1 .359.35ZM254.125 125.197c0 .192-.16.349-.359.349a.354.354 0 0 1-.358-.349c0-.193.16-.35.358-.35a.355.355 0 0 1 .359.35ZM234.002 126.287c0 .192-.16.349-.359.349a.354.354 0 0 1-.358-.349c0-.193.16-.349.358-.349.199 0 .359.155.359.349ZM235.119 126.287c0 .192-.16.349-.358.349a.354.354 0 0 1-.359-.349c0-.193.16-.349.359-.349.198 0 .358.155.358.349ZM236.24 126.287c0 .192-.16.349-.358.349a.354.354 0 0 1-.359-.349c0-.193.16-.349.359-.349.197 0 .358.155.358.349ZM237.355 126.287c0 .192-.16.349-.358.349a.353.353 0 0 1-.358-.349c0-.193.16-.349.358-.349.197 0 .358.155.358.349ZM238.474 126.287c0 .192-.16.349-.358.349a.354.354 0 0 1-.358-.349c0-.193.16-.349.358-.349.198 0 .358.155.358.349ZM239.592 126.287c0 .192-.16.349-.359.349a.354.354 0 0 1-.358-.349c0-.193.16-.349.358-.349.199 0 .359.155.359.349ZM240.711 126.287c0 .192-.16.349-.359.349a.354.354 0 0 1-.358-.349c0-.193.16-.349.358-.349.198 0 .359.155.359.349ZM241.828 126.287c0 .192-.16.349-.358.349a.354.354 0 0 1-.359-.349c0-.193.16-.349.359-.349.198 0 .358.155.358.349ZM242.945 126.287c0 .192-.16.349-.358.349a.353.353 0 0 1-.358-.349c0-.193.159-.349.358-.349.198 0 .358.155.358.349ZM244.064 126.287c0 .192-.16.349-.358.349a.353.353 0 0 1-.358-.349c0-.193.16-.349.358-.349.197 0 .358.155.358.349ZM245.181 126.287c0 .192-.16.349-.358.349a.354.354 0 0 1-.358-.349c0-.193.16-.349.358-.349.198 0 .358.155.358.349ZM246.299 126.287c0 .192-.16.349-.359.349a.354.354 0 0 1-.358-.349c0-.193.16-.349.358-.349.199 0 .359.155.359.349ZM247.418 126.287c0 .192-.16.349-.359.349a.354.354 0 0 1-.358-.349c0-.193.16-.349.358-.349.199 0 .359.155.359.349ZM248.537 126.287c0 .192-.16.349-.358.349a.354.354 0 0 1-.359-.349c0-.193.16-.349.359-.349.197 0 .358.155.358.349ZM249.652 126.287c0 .192-.16.349-.358.349a.353.353 0 0 1-.358-.349c0-.193.159-.349.358-.349.198 0 .358.155.358.349ZM250.769 126.287c0 .192-.16.349-.358.349a.354.354 0 0 1-.358-.349c0-.193.16-.349.358-.349.198 0 .358.155.358.349ZM251.888 126.287a.353.353 0 0 1-.358.349.354.354 0 0 1-.358-.349c0-.193.16-.349.358-.349.198 0 .358.155.358.349ZM253.008 126.287c0 .192-.16.349-.359.349a.354.354 0 0 1-.358-.349c0-.193.16-.349.358-.349.198 0 .359.155.359.349ZM254.125 126.287c0 .192-.16.349-.359.349a.354.354 0 0 1-.358-.349c0-.193.16-.349.358-.349.199 0 .359.155.359.349ZM235.119 127.376c0 .192-.16.349-.358.349a.354.354 0 0 1-.359-.349c0-.193.16-.349.359-.349.198 0 .358.156.358.349ZM236.24 127.376c0 .192-.16.349-.358.349a.354.354 0 0 1-.359-.349c0-.193.16-.349.359-.349.197 0 .358.156.358.349ZM237.355 127.376c0 .192-.16.349-.358.349a.353.353 0 0 1-.358-.349c0-.193.16-.349.358-.349.197 0 .358.156.358.349ZM238.474 127.376c0 .192-.16.349-.358.349a.354.354 0 0 1-.358-.349c0-.193.16-.349.358-.349.198 0 .358.156.358.349ZM240.711 127.376c0 .192-.16.349-.359.349a.354.354 0 0 1-.358-.349c0-.193.16-.349.358-.349.198 0 .359.156.359.349ZM242.945 127.376c0 .192-.16.349-.358.349a.353.353 0 0 1-.358-.349c0-.193.159-.349.358-.349.198 0 .358.156.358.349ZM239.592 127.376c0 .192-.16.349-.359.349a.354.354 0 0 1-.358-.349c0-.193.16-.349.358-.349.199 0 .359.156.359.349ZM241.828 127.376c0 .192-.16.349-.358.349a.354.354 0 0 1-.359-.349c0-.193.16-.349.359-.349.198 0 .358.156.358.349ZM244.064 127.376c0 .192-.16.349-.358.349a.353.353 0 0 1-.358-.349c0-.193.16-.349.358-.349.197 0 .358.156.358.349ZM245.181 127.376c0 .192-.16.349-.358.349a.354.354 0 0 1-.358-.349c0-.193.16-.349.358-.349.198 0 .358.156.358.349ZM246.299 127.376c0 .192-.16.349-.359.349a.354.354 0 0 1-.358-.349c0-.193.16-.349.358-.349.199 0 .359.156.359.349ZM247.418 127.376c0 .192-.16.349-.359.349a.354.354 0 0 1-.358-.349c0-.193.16-.349.358-.349.199 0 .359.156.359.349ZM248.537 127.376c0 .192-.16.349-.358.349a.354.354 0 0 1-.359-.349c0-.193.16-.349.359-.349.197 0 .358.156.358.349ZM249.652 127.376c0 .192-.16.349-.358.349a.353.353 0 0 1-.358-.349c0-.193.159-.349.358-.349.198 0 .358.156.358.349ZM250.769 127.376c0 .192-.16.349-.358.349a.354.354 0 0 1-.358-.349c0-.193.16-.349.358-.349.198 0 .358.156.358.349ZM251.888 127.376a.353.353 0 0 1-.358.349.354.354 0 0 1-.358-.349c0-.193.16-.349.358-.349.198 0 .358.156.358.349ZM253.008 127.376c0 .192-.16.349-.359.349a.354.354 0 0 1-.358-.349c0-.193.16-.349.358-.349.198 0 .359.156.359.349ZM254.125 127.376c0 .192-.16.349-.359.349a.354.354 0 0 1-.358-.349c0-.193.16-.349.358-.349.199 0 .359.156.359.349ZM235.119 128.465c0 .192-.16.349-.358.349a.354.354 0 0 1-.359-.349c0-.193.16-.349.359-.349.198 0 .358.156.358.349ZM234.002 127.376c0 .192-.16.349-.359.349a.354.354 0 0 1-.358-.349c0-.193.16-.349.358-.349.199 0 .359.156.359.349ZM234.002 128.465c0 .192-.16.349-.359.349a.354.354 0 0 1-.358-.349c0-.192.16-.349.358-.349.199 0 .359.157.359.349ZM236.24 128.465c0 .192-.16.349-.358.349a.354.354 0 0 1-.359-.349c0-.193.16-.349.359-.349.197 0 .358.156.358.349ZM238.474 128.465c0 .192-.16.349-.358.349a.354.354 0 0 1-.358-.349c0-.193.16-.349.358-.349.198 0 .358.156.358.349ZM237.355 125.197c0 .192-.16.349-.358.349a.353.353 0 0 1-.358-.349c0-.193.16-.35.358-.35a.355.355 0 0 1 .358.35ZM237.355 128.465c0 .192-.16.349-.358.349a.353.353 0 0 1-.358-.349c0-.193.16-.349.358-.349.197 0 .358.156.358.349ZM239.592 128.465c0 .192-.16.349-.359.349a.354.354 0 0 1-.358-.349c0-.193.16-.349.358-.349.199 0 .359.156.359.349ZM240.711 128.465c0 .192-.16.349-.359.349a.354.354 0 0 1-.358-.349c0-.193.16-.349.358-.349.198 0 .359.156.359.349ZM241.828 128.465c0 .192-.16.349-.358.349a.354.354 0 0 1-.359-.349c0-.193.16-.349.359-.349.198 0 .358.156.358.349ZM242.945 128.465c0 .192-.16.349-.358.349a.353.353 0 0 1-.358-.349c0-.193.159-.349.358-.349.198 0 .358.156.358.349ZM245.181 128.465c0 .192-.16.349-.358.349a.354.354 0 0 1-.358-.349c0-.192.16-.349.358-.349.198 0 .358.157.358.349ZM244.064 128.465c0 .192-.16.349-.358.349a.353.353 0 0 1-.358-.349c0-.193.16-.349.358-.349.197 0 .358.156.358.349ZM246.299 128.465c0 .192-.16.349-.359.349a.354.354 0 0 1-.358-.349c0-.193.16-.349.358-.349.199 0 .359.156.359.349ZM247.418 128.465c0 .192-.16.349-.359.349a.354.354 0 0 1-.358-.349c0-.192.16-.349.358-.349.199 0 .359.157.359.349ZM248.537 128.465c0 .192-.16.349-.358.349a.354.354 0 0 1-.359-.349c0-.193.16-.349.359-.349.197 0 .358.156.358.349ZM249.652 128.465c0 .192-.16.349-.358.349a.353.353 0 0 1-.358-.349c0-.193.159-.349.358-.349.198 0 .358.156.358.349ZM250.769 128.465c0 .192-.16.349-.358.349a.354.354 0 0 1-.358-.349c0-.193.16-.349.358-.349.198 0 .358.156.358.349ZM251.888 128.465a.353.353 0 0 1-.358.349.354.354 0 0 1-.358-.349c0-.193.16-.349.358-.349.198 0 .358.156.358.349ZM253.008 128.465c0 .192-.16.349-.359.349a.354.354 0 0 1-.358-.349c0-.193.16-.349.358-.349.198 0 .359.156.359.349ZM254.125 128.465c0 .192-.16.349-.359.349a.354.354 0 0 1-.358-.349c0-.193.16-.349.358-.349.199 0 .359.156.359.349ZM234.002 129.554c0 .192-.16.349-.359.349a.354.354 0 0 1-.358-.349c0-.193.16-.349.358-.349.199 0 .359.156.359.349ZM235.119 129.554c0 .192-.16.349-.358.349a.354.354 0 0 1-.359-.349c0-.193.16-.349.359-.349.198 0 .358.156.358.349ZM236.24 129.554c0 .192-.16.349-.358.349a.354.354 0 0 1-.359-.349c0-.193.16-.349.359-.349.197 0 .358.156.358.349ZM237.355 129.554c0 .192-.16.349-.358.349a.353.353 0 0 1-.358-.349c0-.193.16-.349.358-.349.197 0 .358.156.358.349ZM240.711 129.554c0 .192-.16.349-.359.349a.354.354 0 0 1-.358-.349c0-.193.16-.349.358-.349.198 0 .359.156.359.349ZM242.945 129.554c0 .192-.16.349-.358.349a.353.353 0 0 1-.358-.349c0-.193.159-.349.358-.349.198 0 .358.156.358.349ZM244.064 129.554c0 .192-.16.349-.358.349a.353.353 0 0 1-.358-.349c0-.193.16-.349.358-.349.197 0 .358.156.358.349ZM245.181 129.554c0 .192-.16.349-.358.349a.354.354 0 0 1-.358-.349c0-.193.16-.349.358-.349.198 0 .358.156.358.349ZM246.299 129.554c0 .192-.16.349-.359.349a.354.354 0 0 1-.358-.349c0-.193.16-.349.358-.349.199 0 .359.156.359.349ZM247.418 129.554c0 .192-.16.349-.359.349a.354.354 0 0 1-.358-.349c0-.193.16-.349.358-.349.199 0 .359.156.359.349ZM248.537 129.554c0 .192-.16.349-.358.349a.354.354 0 0 1-.359-.349c0-.193.16-.349.359-.349.197 0 .358.156.358.349ZM249.652 129.554c0 .192-.16.349-.358.349a.353.353 0 0 1-.358-.349c0-.193.159-.349.358-.349.198 0 .358.156.358.349ZM250.769 129.554c0 .192-.16.349-.358.349a.354.354 0 0 1-.358-.349c0-.193.16-.349.358-.349.198 0 .358.156.358.349ZM251.888 129.554a.353.353 0 0 1-.358.349.354.354 0 0 1-.358-.349c0-.193.16-.349.358-.349.198 0 .358.156.358.349ZM253.008 129.554c0 .192-.16.349-.359.349a.354.354 0 0 1-.358-.349c0-.193.16-.349.358-.349.198 0 .359.156.359.349ZM254.125 129.554c0 .192-.16.349-.359.349a.354.354 0 0 1-.358-.349c0-.193.16-.349.358-.349.199 0 .359.156.359.349ZM234.002 130.644c0 .192-.16.349-.359.349a.354.354 0 0 1-.358-.349c0-.193.16-.349.358-.349.199 0 .359.156.359.349ZM236.24 130.644c0 .192-.16.349-.358.349a.354.354 0 0 1-.359-.349c0-.193.16-.349.359-.349.197 0 .358.156.358.349ZM235.119 130.644c0 .192-.16.349-.358.349a.354.354 0 0 1-.359-.349c0-.193.16-.349.359-.349.198 0 .358.156.358.349ZM237.355 130.644c0 .192-.16.349-.358.349a.353.353 0 0 1-.358-.349c0-.193.16-.349.358-.349.197 0 .358.156.358.349ZM238.474 130.644c0 .192-.16.349-.358.349a.354.354 0 0 1-.358-.349c0-.193.16-.349.358-.349.198 0 .358.156.358.349ZM240.711 130.644c0 .192-.16.349-.359.349a.354.354 0 0 1-.358-.349c0-.193.16-.349.358-.349.198 0 .359.156.359.349ZM241.828 130.644c0 .192-.16.349-.358.349a.354.354 0 0 1-.359-.349c0-.193.16-.349.359-.349.198 0 .358.156.358.349ZM242.945 130.644c0 .192-.16.349-.358.349a.353.353 0 0 1-.358-.349c0-.193.159-.349.358-.349.198 0 .358.156.358.349ZM244.064 130.644c0 .192-.16.349-.358.349a.353.353 0 0 1-.358-.349c0-.193.16-.349.358-.349.197 0 .358.156.358.349ZM245.181 130.644c0 .192-.16.349-.358.349a.354.354 0 0 1-.358-.349c0-.193.16-.349.358-.349.198 0 .358.156.358.349ZM246.299 130.644c0 .192-.16.349-.359.349a.354.354 0 0 1-.358-.349c0-.193.16-.349.358-.349.199 0 .359.156.359.349ZM247.418 130.644c0 .192-.16.349-.359.349a.354.354 0 0 1-.358-.349c0-.193.16-.349.358-.349.199 0 .359.156.359.349ZM248.537 130.644c0 .192-.16.349-.358.349a.354.354 0 0 1-.359-.349c0-.193.16-.349.359-.349.197 0 .358.156.358.349ZM249.652 130.644c0 .192-.16.349-.358.349a.353.353 0 0 1-.358-.349c0-.193.159-.349.358-.349.198 0 .358.156.358.349ZM250.769 130.644c0 .192-.16.349-.358.349a.354.354 0 0 1-.358-.349c0-.193.16-.349.358-.349.198 0 .358.156.358.349ZM251.888 130.644a.353.353 0 0 1-.358.349.354.354 0 0 1-.358-.349c0-.193.16-.349.358-.349.198 0 .358.156.358.349ZM253.008 130.644c0 .192-.16.349-.359.349a.354.354 0 0 1-.358-.349c0-.193.16-.349.358-.349.198 0 .359.156.359.349ZM254.125 130.644c0 .192-.16.349-.359.349a.354.354 0 0 1-.358-.349c0-.193.16-.349.358-.349.199 0 .359.156.359.349ZM234.002 131.733c0 .192-.16.349-.359.349a.354.354 0 0 1-.358-.349c0-.193.16-.349.358-.349.199 0 .359.156.359.349ZM235.119 131.733c0 .192-.16.349-.358.349a.354.354 0 0 1-.359-.349c0-.193.16-.349.359-.349.198 0 .358.156.358.349ZM236.24 131.733c0 .192-.16.349-.358.349a.354.354 0 0 1-.359-.349c0-.193.16-.349.359-.349.197 0 .358.156.358.349ZM237.355 131.733c0 .192-.16.349-.358.349a.353.353 0 0 1-.358-.349c0-.193.16-.349.358-.349.197 0 .358.156.358.349ZM238.474 131.733c0 .192-.16.349-.358.349a.354.354 0 0 1-.358-.349c0-.193.16-.349.358-.349.198 0 .358.156.358.349ZM240.711 131.733c0 .192-.16.349-.359.349a.354.354 0 0 1-.358-.349c0-.193.16-.349.358-.349.198 0 .359.156.359.349ZM239.592 129.554c0 .192-.16.349-.359.349a.354.354 0 0 1-.358-.349c0-.193.16-.349.358-.349.199 0 .359.156.359.349ZM238.474 129.554c0 .192-.16.349-.358.349a.354.354 0 0 1-.358-.349c0-.193.16-.349.358-.349.198 0 .358.156.358.349ZM239.592 130.644c0 .192-.16.349-.359.349a.354.354 0 0 1-.358-.349c0-.193.16-.349.358-.349.199 0 .359.156.359.349ZM239.592 131.733c0 .192-.16.349-.359.349a.354.354 0 0 1-.358-.349c0-.193.16-.349.358-.349.199 0 .359.156.359.349ZM242.945 131.733c0 .192-.16.349-.358.349a.353.353 0 0 1-.358-.349c0-.193.159-.349.358-.349.198 0 .358.156.358.349ZM241.828 129.554c0 .192-.16.349-.358.349a.354.354 0 0 1-.359-.349c0-.193.16-.349.359-.349.198 0 .358.156.358.349ZM241.828 131.733c0 .192-.16.349-.358.349a.354.354 0 0 1-.359-.349c0-.193.16-.349.359-.349.198 0 .358.156.358.349ZM244.064 131.733c0 .192-.16.349-.358.349a.353.353 0 0 1-.358-.349c0-.193.16-.349.358-.349.197 0 .358.156.358.349ZM245.181 131.733c0 .192-.16.349-.358.349a.354.354 0 0 1-.358-.349c0-.193.16-.349.358-.349.198 0 .358.156.358.349ZM246.299 131.733c0 .192-.16.349-.359.349a.354.354 0 0 1-.358-.349c0-.193.16-.349.358-.349.199 0 .359.156.359.349ZM247.418 131.733c0 .192-.16.349-.359.349a.354.354 0 0 1-.358-.349c0-.193.16-.349.358-.349.199 0 .359.156.359.349ZM248.537 131.733c0 .192-.16.349-.358.349a.354.354 0 0 1-.359-.349c0-.193.16-.349.359-.349.197 0 .358.156.358.349ZM249.652 131.733c0 .192-.16.349-.358.349a.353.353 0 0 1-.358-.349c0-.193.159-.349.358-.349.198 0 .358.156.358.349ZM250.769 131.733c0 .192-.16.349-.358.349a.354.354 0 0 1-.358-.349c0-.193.16-.349.358-.349.198 0 .358.156.358.349ZM251.888 131.733a.353.353 0 0 1-.358.349.354.354 0 0 1-.358-.349c0-.193.16-.349.358-.349.198 0 .358.156.358.349ZM253.008 131.733c0 .192-.16.349-.359.349a.354.354 0 0 1-.358-.349c0-.193.16-.349.358-.349.198 0 .359.156.359.349ZM254.125 131.733c0 .192-.16.349-.359.349a.354.354 0 0 1-.358-.349c0-.193.16-.349.358-.349.199 0 .359.156.359.349ZM234.001 132.822c0 .192-.16.349-.358.349-.198 0-.25-.201-.327-.341 0-.192.128-.357.327-.357a.354.354 0 0 1 .358.349ZM235.119 132.822c0 .192-.16.349-.358.349a.354.354 0 0 1-.359-.349c0-.193.16-.349.359-.349a.354.354 0 0 1 .358.349ZM236.24 132.822c0 .192-.16.349-.358.349a.354.354 0 0 1-.359-.349c0-.193.16-.349.359-.349a.355.355 0 0 1 .358.349ZM237.355 132.822c0 .192-.16.349-.358.349a.353.353 0 0 1-.358-.349c0-.193.16-.349.358-.349a.355.355 0 0 1 .358.349ZM239.592 132.822c0 .192-.16.349-.359.349a.354.354 0 0 1-.358-.349c0-.193.16-.349.358-.349a.354.354 0 0 1 .359.349ZM238.474 132.822c0 .192-.16.349-.358.349a.354.354 0 0 1-.358-.349c0-.193.16-.349.358-.349a.354.354 0 0 1 .358.349ZM240.711 132.822c0 .192-.16.349-.359.349a.354.354 0 0 1-.358-.349c0-.193.16-.349.358-.349a.355.355 0 0 1 .359.349ZM242.945 132.822c0 .192-.16.349-.358.349a.353.353 0 0 1-.358-.349c0-.193.159-.349.358-.349a.354.354 0 0 1 .358.349ZM241.828 132.822c0 .192-.16.349-.358.349a.354.354 0 0 1-.359-.349c0-.193.16-.349.359-.349a.354.354 0 0 1 .358.349ZM245.181 132.822c0 .192-.16.349-.358.349a.354.354 0 0 1-.358-.349c0-.193.16-.349.358-.349a.354.354 0 0 1 .358.349ZM244.064 132.822c0 .192-.16.349-.358.349a.353.353 0 0 1-.358-.349c0-.193.16-.349.358-.349a.355.355 0 0 1 .358.349ZM246.299 132.822c0 .192-.16.349-.359.349a.354.354 0 0 1-.358-.349c0-.193.16-.349.358-.349a.354.354 0 0 1 .359.349ZM247.418 132.822c0 .192-.16.349-.359.349a.354.354 0 0 1-.358-.349c0-.193.16-.349.358-.349a.354.354 0 0 1 .359.349ZM248.537 132.822c0 .192-.16.349-.358.349a.354.354 0 0 1-.359-.349c0-.193.16-.349.359-.349a.355.355 0 0 1 .358.349ZM249.652 132.822c0 .192-.16.349-.358.349a.353.353 0 0 1-.358-.349c0-.193.159-.349.358-.349a.354.354 0 0 1 .358.349ZM250.769 132.822c0 .192-.16.349-.358.349a.354.354 0 0 1-.358-.349c0-.193.16-.349.358-.349a.354.354 0 0 1 .358.349ZM251.888 132.822a.353.353 0 0 1-.358.349.354.354 0 0 1-.358-.349c0-.193.16-.349.358-.349a.354.354 0 0 1 .358.349ZM253.008 132.822c0 .192-.16.349-.359.349a.354.354 0 0 1-.358-.349c0-.193.16-.349.358-.349a.355.355 0 0 1 .359.349ZM254.125 132.822c0 .192-.16.349-.359.349a.354.354 0 0 1-.358-.349c0-.193.16-.349.358-.349a.354.354 0 0 1 .359.349ZM235.119 133.912c0 .192-.16.349-.358.349a.354.354 0 0 1-.359-.349c0-.193.16-.35.359-.35.198 0 .358.156.358.35ZM233.999 133.912c0 .192-.16.349-.358.349-.198 0-.014-.236-.014-.429s-.185-.269.014-.269c.198 0 .358.155.358.349ZM238.474 133.912c0 .192-.16.349-.358.349a.354.354 0 0 1-.358-.349c0-.193.16-.35.358-.35.198 0 .358.156.358.35ZM239.592 133.912c0 .192-.16.349-.359.349a.354.354 0 0 1-.358-.349c0-.193.16-.35.358-.35.199 0 .359.156.359.35ZM240.711 133.912c0 .192-.16.349-.359.349a.354.354 0 0 1-.358-.349c0-.193.16-.35.358-.35.198 0 .359.156.359.35ZM241.828 133.912c0 .192-.16.349-.358.349a.354.354 0 0 1-.359-.349c0-.193.16-.35.359-.35.198 0 .358.156.358.35ZM242.945 133.912c0 .192-.16.349-.358.349a.353.353 0 0 1-.358-.349c0-.193.159-.35.358-.35.198 0 .358.156.358.35ZM244.064 133.912c0 .192-.16.349-.358.349a.353.353 0 0 1-.358-.349c0-.193.16-.35.358-.35.197 0 .358.156.358.35ZM245.181 133.912c0 .192-.16.349-.358.349a.354.354 0 0 1-.358-.349c0-.193.16-.349.358-.349.198 0 .358.155.358.349ZM247.418 133.912c0 .192-.16.349-.359.349a.354.354 0 0 1-.358-.349c0-.193.16-.349.358-.349.199 0 .359.155.359.349ZM246.299 133.912c0 .192-.16.349-.359.349a.354.354 0 0 1-.358-.349c0-.193.16-.35.358-.35.199 0 .359.156.359.35ZM248.537 133.912c0 .192-.16.349-.358.349a.354.354 0 0 1-.359-.349c0-.193.16-.35.359-.35.197 0 .358.156.358.35ZM249.652 133.912c0 .192-.16.349-.358.349a.353.353 0 0 1-.358-.349c0-.193.159-.35.358-.35.198 0 .358.156.358.35ZM250.769 133.912c0 .192-.16.349-.358.349a.354.354 0 0 1-.358-.349c0-.193.16-.35.358-.35.198 0 .358.156.358.35ZM251.888 133.912a.353.353 0 0 1-.358.349.354.354 0 0 1-.358-.349c0-.193.16-.35.358-.35.198 0 .358.156.358.35ZM253.008 133.912c0 .192-.16.349-.359.349a.354.354 0 0 1-.358-.349c0-.193.16-.35.358-.35.198 0 .359.156.359.35ZM254.125 133.912c0 .192-.16.349-.359.349a.354.354 0 0 1-.358-.349c0-.193.16-.35.358-.35.199 0 .359.156.359.35ZM238.474 135.001c0 .192-.16.349-.358.349a.354.354 0 0 1-.358-.349c0-.192.16-.349.358-.349.198 0 .358.157.358.349ZM237.355 133.912c0 .192-.16.349-.358.349a.353.353 0 0 1-.358-.349c0-.193.16-.35.358-.35.197 0 .358.156.358.35ZM237.355 135.001c0 .192-.16.349-.358.349a.353.353 0 0 1-.358-.349c0-.192.16-.349.358-.349.197 0 .358.157.358.349ZM236.24 133.912c0 .192-.16.349-.358.349a.354.354 0 0 1-.359-.349c0-.193.16-.35.359-.35.197 0 .358.156.358.35ZM236.24 135.001c0 .192-.16.349-.358.349a.354.354 0 0 1-.359-.349c0-.192.16-.349.359-.349.197 0 .358.157.358.349ZM240.711 135.001c0 .192-.16.349-.359.349a.354.354 0 0 1-.358-.349c0-.192.16-.349.358-.349.198 0 .359.157.359.349ZM242.945 135.001c0 .192-.16.349-.358.349a.353.353 0 0 1-.358-.349c0-.192.159-.349.358-.349.198 0 .358.157.358.349ZM241.828 135.001c0 .192-.16.349-.358.349a.354.354 0 0 1-.359-.349c0-.192.16-.349.359-.349.198 0 .358.157.358.349ZM244.064 135.001c0 .192-.16.349-.358.349a.353.353 0 0 1-.358-.349c0-.192.16-.349.358-.349.197 0 .358.157.358.349ZM245.181 135.001c0 .192-.16.349-.358.349a.354.354 0 0 1-.358-.349c0-.192.16-.349.358-.349.198 0 .358.157.358.349ZM246.299 135.001c0 .192-.16.349-.359.349a.354.354 0 0 1-.358-.349c0-.192.16-.349.358-.349.199 0 .359.157.359.349ZM247.418 135.001c0 .192-.16.349-.359.349a.354.354 0 0 1-.358-.349c0-.192.16-.349.358-.349.199 0 .359.157.359.349ZM248.537 135.001c0 .192-.16.349-.358.349a.354.354 0 0 1-.359-.349c0-.192.16-.349.359-.349.197 0 .358.157.358.349ZM249.652 135.001c0 .192-.16.349-.358.349a.353.353 0 0 1-.358-.349c0-.192.159-.349.358-.349.198 0 .358.157.358.349ZM250.769 135.001c0 .192-.16.349-.358.349a.354.354 0 0 1-.358-.349c0-.192.16-.349.358-.349.198 0 .358.157.358.349ZM251.888 135.001a.353.353 0 0 1-.358.349.354.354 0 0 1-.358-.349c0-.192.16-.349.358-.349.198 0 .358.157.358.349ZM253.008 135.001c0 .192-.16.349-.359.349a.354.354 0 0 1-.358-.349c0-.192.16-.349.358-.349.198 0 .359.157.359.349ZM254.125 135.001c0 .192-.16.349-.359.349a.354.354 0 0 1-.358-.349c0-.192.16-.349.358-.349.199 0 .359.157.359.349ZM236.24 136.09c0 .192-.16.349-.358.349a.354.354 0 0 1-.359-.349c0-.192.16-.349.359-.349.197 0 .358.157.358.349ZM235.119 135.001c0 .192-.16.349-.358.349a.354.354 0 0 1-.359-.349c0-.192.16-.349.359-.349.198 0 .358.157.358.349ZM235.119 136.09c0 .192-.16.349-.358.349a.354.354 0 0 1-.359-.349c0-.192.16-.349.359-.349.198 0 .358.157.358.349ZM237.355 136.09c0 .192-.16.349-.358.349a.353.353 0 0 1-.358-.349c0-.192.16-.349.358-.349.197 0 .358.157.358.349ZM238.474 136.09c0 .192-.16.349-.358.349a.354.354 0 0 1-.358-.349c0-.192.16-.349.358-.349.198 0 .358.157.358.349ZM240.711 136.09c0 .192-.16.349-.359.349a.354.354 0 0 1-.358-.349c0-.192.16-.349.358-.349.198 0 .359.157.359.349ZM239.592 135.001c0 .192-.16.349-.359.349a.354.354 0 0 1-.358-.349c0-.192.16-.349.358-.349.199 0 .359.157.359.349ZM239.592 136.09c0 .192-.16.349-.359.349a.354.354 0 0 1-.358-.349c0-.192.16-.349.358-.349.199 0 .359.157.359.349ZM241.828 136.09c0 .192-.16.349-.358.349a.354.354 0 0 1-.359-.349c0-.192.16-.349.359-.349.198 0 .358.157.358.349ZM244.064 136.09c0 .192-.16.349-.358.349a.353.353 0 0 1-.358-.349c0-.192.16-.349.358-.349.197 0 .358.157.358.349ZM242.945 136.09c0 .192-.16.349-.358.349a.353.353 0 0 1-.358-.349c0-.192.159-.349.358-.349.198 0 .358.157.358.349ZM245.181 136.09c0 .192-.16.349-.358.349a.354.354 0 0 1-.358-.349c0-.192.16-.349.358-.349.198 0 .358.157.358.349ZM246.299 136.09c0 .192-.16.349-.359.349a.354.354 0 0 1-.358-.349c0-.192.16-.349.358-.349.199 0 .359.157.359.349ZM247.418 136.09c0 .192-.16.349-.359.349a.354.354 0 0 1-.358-.349c0-.192.16-.349.358-.349.199 0 .359.157.359.349ZM248.537 136.09c0 .192-.16.349-.358.349a.354.354 0 0 1-.359-.349c0-.192.16-.349.359-.349.197 0 .358.157.358.349ZM249.652 136.09c0 .192-.16.349-.358.349a.353.353 0 0 1-.358-.349c0-.192.159-.349.358-.349.198 0 .358.157.358.349ZM250.769 136.09c0 .192-.16.349-.358.349a.354.354 0 0 1-.358-.349c0-.192.16-.349.358-.349.198 0 .358.157.358.349ZM251.888 136.09a.353.353 0 0 1-.358.349.354.354 0 0 1-.358-.349c0-.192.16-.349.358-.349.198 0 .358.157.358.349ZM253.008 136.09c0 .192-.16.349-.359.349a.354.354 0 0 1-.358-.349c0-.192.16-.349.358-.349.198 0 .359.157.359.349ZM254.125 136.09c0 .192-.16.349-.359.349a.354.354 0 0 1-.358-.349c0-.192.16-.349.358-.349.199 0 .359.157.359.349ZM235.119 137.179c0 .193-.16.349-.358.349a.354.354 0 0 1-.359-.349c0-.192.16-.349.359-.349a.355.355 0 0 1 .358.349ZM236.24 137.179c0 .193-.16.349-.358.349a.354.354 0 0 1-.359-.349c0-.192.16-.349.359-.349a.355.355 0 0 1 .358.349ZM237.355 137.179c0 .193-.16.349-.358.349a.353.353 0 0 1-.358-.349c0-.192.16-.349.358-.349a.355.355 0 0 1 .358.349ZM238.474 137.179c0 .193-.16.349-.358.349a.354.354 0 0 1-.358-.349c0-.192.16-.349.358-.349a.355.355 0 0 1 .358.349ZM239.592 137.179c0 .193-.16.349-.359.349a.354.354 0 0 1-.358-.349c0-.192.16-.349.358-.349a.355.355 0 0 1 .359.349ZM241.828 137.179c0 .193-.16.349-.358.349a.354.354 0 0 1-.359-.349c0-.192.16-.349.359-.349a.355.355 0 0 1 .358.349ZM242.945 137.179c0 .193-.16.349-.358.349a.353.353 0 0 1-.358-.349c0-.192.159-.349.358-.349a.355.355 0 0 1 .358.349ZM244.064 137.179c0 .193-.16.349-.358.349a.353.353 0 0 1-.358-.349c0-.192.16-.349.358-.349a.355.355 0 0 1 .358.349ZM245.181 137.179c0 .193-.16.349-.358.349a.354.354 0 0 1-.358-.349c0-.192.16-.349.358-.349a.355.355 0 0 1 .358.349ZM246.299 137.179c0 .193-.16.349-.359.349a.354.354 0 0 1-.358-.349c0-.192.16-.349.358-.349a.355.355 0 0 1 .359.349ZM247.418 137.179c0 .193-.16.349-.359.349a.354.354 0 0 1-.358-.349c0-.192.16-.349.358-.349a.355.355 0 0 1 .359.349ZM248.537 137.179c0 .193-.16.349-.358.349a.354.354 0 0 1-.359-.349c0-.192.16-.349.359-.349a.355.355 0 0 1 .358.349ZM249.652 137.179c0 .193-.16.349-.358.349a.353.353 0 0 1-.358-.349c0-.192.159-.349.358-.349a.355.355 0 0 1 .358.349ZM250.769 137.179c0 .193-.16.349-.358.349a.354.354 0 0 1-.358-.349c0-.192.16-.349.358-.349a.355.355 0 0 1 .358.349ZM251.888 137.179a.353.353 0 0 1-.358.349.354.354 0 0 1-.358-.349c0-.192.16-.349.358-.349a.355.355 0 0 1 .358.349ZM253.008 137.179c0 .193-.16.349-.359.349a.354.354 0 0 1-.358-.349c0-.192.16-.349.358-.349a.355.355 0 0 1 .359.349ZM254.125 137.179c0 .193-.16.349-.359.349a.354.354 0 0 1-.358-.349c0-.192.16-.349.358-.349a.355.355 0 0 1 .359.349ZM235.12 138.269c0 .192-.16.349-.359.349-.197 0-.193-.197-.193-.39 0-.192-.005-.308.193-.308.199 0 .359.156.359.349ZM237.355 138.269c0 .192-.16.349-.358.349a.353.353 0 0 1-.358-.349c0-.192.16-.349.358-.349.197 0 .358.156.358.349ZM236.24 138.269c0 .192-.16.349-.358.349a.354.354 0 0 1-.359-.349c0-.192.16-.349.359-.349.197 0 .358.156.358.349ZM238.474 138.269c0 .192-.16.349-.358.349a.354.354 0 0 1-.358-.349c0-.192.16-.349.358-.349.198 0 .358.156.358.349ZM239.592 138.269c0 .192-.16.349-.359.349a.354.354 0 0 1-.358-.349c0-.192.16-.349.358-.349.199 0 .359.156.359.349ZM240.711 138.269c0 .192-.16.349-.359.349a.354.354 0 0 1-.358-.349c0-.192.16-.349.358-.349.198 0 .359.156.359.349ZM241.828 138.269c0 .192-.16.349-.358.349a.354.354 0 0 1-.359-.349c0-.192.16-.349.359-.349.198 0 .358.156.358.349ZM242.945 138.269c0 .192-.16.349-.358.349a.353.353 0 0 1-.358-.349c0-.192.159-.349.358-.349.198 0 .358.156.358.349ZM245.181 138.269c0 .192-.16.349-.358.349a.354.354 0 0 1-.358-.349c0-.192.16-.349.358-.349.198 0 .358.156.358.349ZM244.064 138.269c0 .192-.16.349-.358.349a.353.353 0 0 1-.358-.349c0-.192.16-.349.358-.349.197 0 .358.156.358.349ZM246.299 138.269c0 .192-.16.349-.359.349a.354.354 0 0 1-.358-.349c0-.192.16-.349.358-.349.199 0 .359.156.359.349ZM247.418 138.269c0 .192-.16.349-.359.349a.354.354 0 0 1-.358-.349c0-.192.16-.349.358-.349.199 0 .359.156.359.349ZM248.537 138.269c0 .192-.16.349-.358.349a.354.354 0 0 1-.359-.349c0-.192.16-.349.359-.349.197 0 .358.156.358.349ZM249.652 138.269c0 .192-.16.349-.358.349a.353.353 0 0 1-.358-.349c0-.192.159-.349.358-.349.198 0 .358.156.358.349ZM250.769 138.269c0 .192-.16.349-.358.349a.354.354 0 0 1-.358-.349c0-.192.16-.349.358-.349.198 0 .358.156.358.349ZM251.888 138.269a.353.353 0 0 1-.358.349.354.354 0 0 1-.358-.349c0-.192.16-.349.358-.349.198 0 .358.156.358.349ZM253.008 138.269c0 .192-.16.349-.359.349a.354.354 0 0 1-.358-.349c0-.192.16-.349.358-.349.198 0 .359.156.359.349ZM254.125 138.269c0 .192-.16.349-.359.349a.354.354 0 0 1-.358-.349c0-.192.16-.349.358-.349.199 0 .359.156.359.349ZM240.711 137.179c0 .193-.16.349-.359.349a.354.354 0 0 1-.358-.349c0-.192.16-.349.358-.349a.355.355 0 0 1 .359.349Z" fill="#3136BD"/><path d="M250.769 138.27c0 .192-.16.349-.358.349a.354.354 0 0 1-.358-.349c0-.193.16-.35.358-.35.197 0 .358.157.358.35ZM253.006 138.27c0 .192-.16.349-.359.349a.354.354 0 0 1-.358-.349c0-.193.16-.35.358-.35.199 0 .359.157.359.35ZM251.886 138.27a.353.353 0 0 1-.358.349.354.354 0 0 1-.358-.349c0-.193.16-.35.358-.35.198 0 .358.157.358.35ZM254.125 138.27c0 .192-.16.349-.359.349a.354.354 0 0 1-.358-.349c0-.193.16-.35.358-.35.199 0 .359.157.359.35ZM256.359 138.27c0 .192-.16.349-.358.349a.353.353 0 0 1-.358-.349c0-.193.16-.35.358-.35.198 0 .358.157.358.35ZM255.24 138.27c0 .192-.16.349-.358.349a.354.354 0 0 1-.359-.349c0-.193.16-.35.359-.35.197 0 .358.157.358.35ZM257.478 138.27c0 .192-.16.349-.358.349a.354.354 0 0 1-.358-.349c0-.193.16-.35.358-.35.198 0 .358.157.358.35ZM258.595 138.27a.353.353 0 0 1-.358.349.354.354 0 0 1-.358-.349c0-.193.16-.35.358-.35.198 0 .358.157.358.35ZM259.713 138.27c0 .192-.16.349-.359.349a.354.354 0 0 1-.358-.349c0-.193.16-.35.358-.35.198 0 .359.157.359.35ZM260.828 138.27c0 .192-.16.349-.358.349a.354.354 0 0 1-.359-.349c0-.193.16-.35.359-.35.198 0 .358.157.358.35ZM263.066 138.27c0 .192-.16.349-.358.349a.353.353 0 0 1-.358-.349c0-.193.16-.35.358-.35.197 0 .358.157.358.35ZM261.947 138.27c0 .192-.16.349-.358.349a.354.354 0 0 1-.359-.349c0-.193.16-.35.359-.35.198 0 .358.157.358.35ZM264.183 138.27c0 .192-.16.349-.358.349a.354.354 0 0 1-.358-.349c0-.193.16-.35.358-.35.198 0 .358.157.358.35ZM265.304 138.27a.353.353 0 0 1-.358.349.354.354 0 0 1-.358-.349c0-.193.16-.35.358-.35.199 0 .358.157.358.35ZM266.42 138.27c0 .192-.16.349-.359.349a.354.354 0 0 1-.358-.349c0-.193.16-.35.358-.35.199 0 .359.157.359.35ZM267.539 138.27c0 .192-.16.349-.358.349a.354.354 0 0 1-.359-.349c0-.193.16-.35.359-.35.197 0 .358.157.358.35ZM268.656 138.27c0 .192-.16.349-.358.349a.354.354 0 0 1-.359-.349c0-.193.16-.35.359-.35.198 0 .358.157.358.35ZM269.775 138.27c0 .192-.16.349-.358.349a.353.353 0 0 1-.358-.349c0-.193.16-.35.358-.35.198 0 .358.157.358.35ZM251.886 139.358a.353.353 0 0 1-.358.349.353.353 0 0 1-.358-.349c0-.192.16-.349.358-.349a.355.355 0 0 1 .358.349ZM254.125 139.358c0 .193-.16.349-.359.349a.353.353 0 0 1-.358-.349c0-.192.16-.349.358-.349a.355.355 0 0 1 .359.349ZM255.24 139.358c0 .193-.16.349-.358.349a.353.353 0 0 1-.359-.349c0-.192.16-.349.359-.349a.355.355 0 0 1 .358.349ZM256.359 139.358c0 .193-.16.349-.358.349a.353.353 0 0 1-.358-.349c0-.192.16-.349.358-.349a.355.355 0 0 1 .358.349ZM258.595 139.358a.353.353 0 0 1-.358.349.353.353 0 0 1-.358-.349c0-.192.16-.349.358-.349a.355.355 0 0 1 .358.349ZM260.828 139.358c0 .193-.16.349-.358.349a.353.353 0 0 1-.359-.349c0-.192.16-.349.359-.349a.355.355 0 0 1 .358.349ZM257.478 139.358c0 .193-.16.349-.358.349a.353.353 0 0 1-.358-.349c0-.192.16-.349.358-.349a.355.355 0 0 1 .358.349ZM259.713 139.358c0 .193-.16.349-.359.349a.353.353 0 0 1-.358-.349c0-.192.16-.349.358-.349a.355.355 0 0 1 .359.349ZM261.947 139.358c0 .193-.16.349-.358.349a.353.353 0 0 1-.359-.349c0-.192.16-.349.359-.349a.355.355 0 0 1 .358.349ZM263.066 139.358c0 .193-.16.349-.358.349a.353.353 0 0 1-.358-.349c0-.192.16-.349.358-.349a.355.355 0 0 1 .358.349ZM264.183 139.358c0 .193-.16.349-.358.349a.353.353 0 0 1-.358-.349c0-.192.16-.349.358-.349a.355.355 0 0 1 .358.349ZM265.304 139.358a.353.353 0 0 1-.358.349.353.353 0 0 1-.358-.349c0-.192.16-.349.358-.349a.354.354 0 0 1 .358.349ZM266.42 139.358c0 .193-.16.349-.359.349a.353.353 0 0 1-.358-.349c0-.192.16-.349.358-.349a.355.355 0 0 1 .359.349ZM267.539 139.358c0 .193-.16.349-.358.349a.353.353 0 0 1-.359-.349c0-.192.16-.349.359-.349a.355.355 0 0 1 .358.349ZM268.656 139.358c0 .193-.16.349-.358.349a.353.353 0 0 1-.359-.349c0-.192.16-.349.359-.349a.355.355 0 0 1 .358.349ZM269.683 139.317c0 .192-.068.39-.266.39a.353.353 0 0 1-.358-.349c0-.192.16-.349.358-.349.198.001.266.115.266.308ZM251.886 140.448c0 .193-.159.35-.358.35a.354.354 0 0 1-.358-.35c0-.192.16-.349.358-.349.198 0 .358.156.358.349ZM250.769 139.358c0 .193-.16.349-.358.349a.353.353 0 0 1-.358-.349c0-.192.16-.349.358-.349a.355.355 0 0 1 .358.349ZM250.769 140.448c0 .193-.16.35-.358.35a.354.354 0 0 1-.358-.35c0-.192.16-.349.358-.349.197 0 .358.156.358.349ZM254.125 140.448c0 .193-.16.35-.359.35a.354.354 0 0 1-.358-.35c0-.192.16-.349.358-.349.199 0 .359.156.359.349ZM253.006 139.358c0 .193-.16.349-.359.349a.353.353 0 0 1-.358-.349c0-.192.16-.349.358-.349a.355.355 0 0 1 .359.349ZM253.006 140.448c0 .193-.16.35-.359.35a.354.354 0 0 1-.358-.35c0-.192.16-.349.358-.349.199 0 .359.156.359.349ZM255.24 140.448c0 .193-.16.35-.358.35a.354.354 0 0 1-.359-.35c0-.192.16-.349.359-.349.197 0 .358.156.358.349ZM256.359 140.448c0 .193-.16.35-.358.35a.353.353 0 0 1-.358-.35c0-.192.16-.349.358-.349.198 0 .358.156.358.349ZM257.478 140.448c0 .193-.16.35-.358.35a.354.354 0 0 1-.358-.35c0-.192.16-.349.358-.349.198 0 .358.156.358.349ZM258.595 140.448c0 .193-.159.35-.358.35a.354.354 0 0 1-.358-.35c0-.192.16-.349.358-.349.198 0 .358.156.358.349ZM259.713 140.448c0 .193-.16.35-.359.35a.354.354 0 0 1-.358-.35c0-.192.16-.349.358-.349.198 0 .359.156.359.349ZM260.828 140.448c0 .193-.16.35-.358.35a.354.354 0 0 1-.359-.35c0-.192.16-.349.359-.349.198 0 .358.156.358.349ZM261.947 140.448c0 .193-.16.35-.358.35a.354.354 0 0 1-.359-.35c0-.192.16-.349.359-.349.198 0 .358.156.358.349ZM263.066 140.448c0 .193-.16.35-.358.35a.353.353 0 0 1-.358-.35c0-.192.16-.349.358-.349.197 0 .358.156.358.349ZM264.183 140.448c0 .193-.16.35-.358.35a.354.354 0 0 1-.358-.35c0-.192.16-.349.358-.349.198 0 .358.156.358.349ZM265.304 140.448c0 .193-.159.35-.358.35a.354.354 0 0 1-.358-.35c0-.192.16-.349.358-.349.199 0 .358.156.358.349ZM266.42 140.448c0 .193-.16.35-.359.35a.354.354 0 0 1-.358-.35c0-.192.16-.349.358-.349.199 0 .359.156.359.349ZM267.539 140.448c0 .193-.16.35-.358.35a.354.354 0 0 1-.359-.35c0-.192.16-.349.359-.349.197 0 .358.156.358.349ZM268.656 140.448c0 .193-.16.35-.358.35a.354.354 0 0 1-.359-.35c0-.192.16-.349.359-.349.198 0 .358.156.358.349ZM250.769 141.538c0 .192-.16.349-.358.349a.354.354 0 0 1-.358-.349c0-.193.16-.349.358-.349.197 0 .358.156.358.349ZM251.886 141.538a.353.353 0 0 1-.358.349.354.354 0 0 1-.358-.349c0-.193.16-.35.358-.35.198 0 .358.157.358.35ZM253.006 141.538c0 .192-.16.349-.359.349a.354.354 0 0 1-.358-.349c0-.193.16-.35.358-.35.199 0 .359.157.359.35ZM254.125 141.538c0 .192-.16.349-.359.349a.354.354 0 0 1-.358-.349c0-.193.16-.349.358-.349.199 0 .359.156.359.349ZM257.478 141.538c0 .192-.16.349-.358.349a.354.354 0 0 1-.358-.349c0-.193.16-.35.358-.35.198 0 .358.157.358.35ZM258.595 141.538a.353.353 0 0 1-.358.349.354.354 0 0 1-.358-.349c0-.193.16-.35.358-.35.198 0 .358.157.358.35ZM259.713 141.538c0 .192-.16.349-.359.349a.354.354 0 0 1-.358-.349c0-.193.16-.35.358-.35.198 0 .359.157.359.35ZM260.828 141.538c0 .192-.16.349-.358.349a.354.354 0 0 1-.359-.349c0-.193.16-.35.359-.35.198 0 .358.157.358.35ZM261.947 141.538c0 .192-.16.349-.358.349a.354.354 0 0 1-.359-.349c0-.193.16-.35.359-.35.198 0 .358.157.358.35ZM263.066 141.538c0 .192-.16.349-.358.349a.353.353 0 0 1-.358-.349c0-.193.16-.35.358-.35.197 0 .358.157.358.35ZM264.183 141.538c0 .192-.16.349-.358.349a.354.354 0 0 1-.358-.349c0-.193.16-.35.358-.35.198 0 .358.157.358.35ZM265.304 141.538a.353.353 0 0 1-.358.349.354.354 0 0 1-.358-.349c0-.193.16-.35.358-.35.199 0 .358.157.358.35ZM266.42 141.538c0 .192-.16.349-.359.349a.354.354 0 0 1-.358-.349c0-.193.16-.35.358-.35.199 0 .359.157.359.35ZM267.539 141.538c0 .192-.16.349-.358.349a.354.354 0 0 1-.359-.349c0-.193.16-.35.359-.35.197 0 .358.157.358.35ZM268.656 141.538c0 .192-.16.349-.358.349a.354.354 0 0 1-.359-.349c0-.193.16-.35.359-.35.198 0 .358.157.358.35ZM250.769 142.627c0 .192-.16.349-.358.349a.354.354 0 0 1-.358-.349c0-.193.16-.35.358-.35a.355.355 0 0 1 .358.35ZM251.886 142.627a.353.353 0 0 1-.358.349.354.354 0 0 1-.358-.349c0-.193.16-.349.358-.349.198 0 .358.156.358.349ZM255.24 142.627c0 .192-.16.349-.358.349a.354.354 0 0 1-.359-.349c0-.193.16-.349.359-.349.197 0 .358.156.358.349ZM256.359 142.627c0 .192-.16.349-.358.349a.353.353 0 0 1-.358-.349c0-.193.16-.349.358-.349.198 0 .358.156.358.349ZM255.24 141.538c0 .192-.16.349-.358.349a.354.354 0 0 1-.359-.349c0-.193.16-.35.359-.35.197 0 .358.157.358.35ZM256.359 141.538c0 .192-.16.349-.358.349a.353.353 0 0 1-.358-.349c0-.193.16-.35.358-.35.198 0 .358.157.358.35ZM253.006 142.627c0 .192-.16.349-.359.349a.354.354 0 0 1-.358-.349c0-.193.16-.349.358-.349.199 0 .359.156.359.349ZM254.125 142.627c0 .192-.16.349-.359.349a.354.354 0 0 1-.358-.349c0-.193.16-.35.358-.35a.355.355 0 0 1 .359.35ZM257.478 142.627c0 .192-.16.349-.358.349a.354.354 0 0 1-.358-.349c0-.193.16-.349.358-.349.198 0 .358.156.358.349ZM258.595 142.627a.353.353 0 0 1-.358.349.354.354 0 0 1-.358-.349c0-.193.16-.349.358-.349.198 0 .358.156.358.349ZM259.713 142.627c0 .192-.16.349-.359.349a.354.354 0 0 1-.358-.349c0-.193.16-.349.358-.349.198 0 .359.156.359.349ZM260.828 142.627c0 .192-.16.349-.358.349a.354.354 0 0 1-.359-.349c0-.193.16-.349.359-.349.198 0 .358.156.358.349ZM261.947 142.627c0 .192-.16.349-.358.349a.354.354 0 0 1-.359-.349c0-.193.16-.349.359-.349.198 0 .358.156.358.349ZM264.183 142.627c0 .192-.16.349-.358.349a.354.354 0 0 1-.358-.349c0-.193.16-.349.358-.349.198 0 .358.156.358.349ZM263.066 142.627c0 .192-.16.349-.358.349a.353.353 0 0 1-.358-.349c0-.193.16-.349.358-.349.197 0 .358.156.358.349ZM265.304 142.627a.353.353 0 0 1-.358.349.354.354 0 0 1-.358-.349c0-.193.16-.349.358-.349.199 0 .358.156.358.349ZM266.42 142.627c0 .192-.16.349-.359.349a.354.354 0 0 1-.358-.349c0-.193.16-.349.358-.349.199 0 .359.156.359.349ZM267.539 142.627c0 .192-.16.349-.358.349a.354.354 0 0 1-.359-.349c0-.193.16-.349.359-.349.197 0 .358.156.358.349ZM268.431 142.538c0 .192.065.438-.133.438a.354.354 0 0 1-.359-.349c0-.193.16-.349.359-.349.198 0 .133.067.133.26ZM250.769 143.717c0 .192-.16.349-.358.349a.354.354 0 0 1-.358-.349c0-.193.16-.349.358-.349.197 0 .358.156.358.349ZM251.886 143.717a.353.353 0 0 1-.358.349.354.354 0 0 1-.358-.349c0-.193.16-.349.358-.349.198 0 .358.156.358.349ZM253.006 143.717c0 .192-.16.349-.359.349a.354.354 0 0 1-.358-.349c0-.193.16-.349.358-.349.199 0 .359.156.359.349ZM254.125 143.717c0 .192-.16.349-.359.349a.354.354 0 0 1-.358-.349c0-.193.16-.349.358-.349.199 0 .359.156.359.349ZM255.24 143.717c0 .192-.16.349-.358.349a.354.354 0 0 1-.359-.349c0-.193.16-.349.359-.349.197 0 .358.156.358.349ZM258.595 143.717a.353.353 0 0 1-.358.349.354.354 0 0 1-.358-.349c0-.193.16-.349.358-.349.198 0 .358.156.358.349ZM259.713 143.717c0 .192-.16.349-.359.349a.354.354 0 0 1-.358-.349c0-.193.16-.349.358-.349.198 0 .359.156.359.349ZM256.359 143.717c0 .192-.16.349-.358.349a.353.353 0 0 1-.358-.349c0-.193.16-.349.358-.349.198 0 .358.156.358.349ZM257.478 143.717c0 .192-.16.349-.358.349a.354.354 0 0 1-.358-.349c0-.193.16-.349.358-.349.198 0 .358.156.358.349ZM261.947 143.717c0 .192-.16.349-.358.349a.354.354 0 0 1-.359-.349c0-.193.16-.349.359-.349.198 0 .358.156.358.349ZM260.828 143.717c0 .192-.16.349-.358.349a.354.354 0 0 1-.359-.349c0-.193.16-.349.359-.349.198 0 .358.156.358.349ZM263.066 143.717c0 .192-.16.349-.358.349a.353.353 0 0 1-.358-.349c0-.193.16-.349.358-.349.197 0 .358.156.358.349ZM264.183 143.717c0 .192-.16.349-.358.349a.354.354 0 0 1-.358-.349c0-.193.16-.349.358-.349.198 0 .358.156.358.349ZM265.304 143.717a.353.353 0 0 1-.358.349.354.354 0 0 1-.358-.349c0-.193.16-.349.358-.349.199 0 .358.156.358.349ZM266.42 143.717c0 .192-.16.349-.359.349a.354.354 0 0 1-.358-.349c0-.193.16-.349.358-.349.199 0 .359.156.359.349ZM267.539 143.717c0 .192-.16.349-.358.349a.354.354 0 0 1-.359-.349c0-.193.16-.349.359-.349.197 0 .358.156.358.349ZM251.886 144.806a.353.353 0 0 1-.358.349.354.354 0 0 1-.358-.349c0-.193.16-.349.358-.349.198 0 .358.156.358.349ZM254.125 144.806c0 .192-.16.349-.359.349a.354.354 0 0 1-.358-.349c0-.193.16-.349.358-.349.199 0 .359.156.359.349ZM253.006 144.806c0 .192-.16.349-.359.349a.354.354 0 0 1-.358-.349c0-.193.16-.349.358-.349.199 0 .359.156.359.349ZM255.24 144.806c0 .192-.16.349-.358.349a.354.354 0 0 1-.359-.349c0-.193.16-.349.359-.349.197 0 .358.156.358.349ZM256.359 144.806c0 .192-.16.349-.358.349a.353.353 0 0 1-.358-.349c0-.193.16-.349.358-.349.198 0 .358.156.358.349ZM257.478 144.806c0 .192-.16.349-.358.349a.354.354 0 0 1-.358-.349c0-.193.16-.349.358-.349.198 0 .358.156.358.349ZM258.595 144.806a.353.353 0 0 1-.358.349.354.354 0 0 1-.358-.349c0-.193.16-.349.358-.349.198 0 .358.156.358.349ZM259.713 144.806c0 .192-.16.349-.359.349a.354.354 0 0 1-.358-.349c0-.193.16-.349.358-.349.198 0 .359.156.359.349ZM260.828 144.806c0 .192-.16.349-.358.349a.354.354 0 0 1-.359-.349c0-.193.16-.349.359-.349.198 0 .358.156.358.349ZM261.947 144.806c0 .192-.16.349-.358.349a.354.354 0 0 1-.359-.349c0-.193.16-.349.359-.349.198 0 .358.156.358.349ZM263.066 144.806c0 .192-.16.349-.358.349a.353.353 0 0 1-.358-.349c0-.193.16-.349.358-.349.197 0 .358.156.358.349ZM264.183 144.806c0 .192-.16.349-.358.349a.354.354 0 0 1-.358-.349c0-.193.16-.349.358-.349.198 0 .358.156.358.349ZM265.304 144.806a.353.353 0 0 1-.358.349.354.354 0 0 1-.358-.349c0-.193.16-.349.358-.349.199 0 .358.156.358.349ZM266.42 144.806c0 .192-.16.349-.359.349a.354.354 0 0 1-.358-.349c0-.193.16-.349.358-.349.199 0 .359.156.359.349ZM267.539 144.806c0 .192-.16.349-.358.349a.354.354 0 0 1-.359-.349c0-.193.16-.349.359-.349.197 0 .358.156.358.349ZM250.769 145.895c0 .192-.16.349-.358.349a.354.354 0 0 1-.358-.349c0-.193.16-.349.358-.349.197 0 .358.156.358.349ZM251.886 145.895a.353.353 0 0 1-.358.349.354.354 0 0 1-.358-.349c0-.192.16-.349.358-.349.198 0 .358.157.358.349ZM253.006 145.895c0 .192-.16.349-.359.349a.354.354 0 0 1-.358-.349c0-.192.16-.349.358-.349.199 0 .359.157.359.349ZM255.24 145.895c0 .192-.16.349-.358.349a.354.354 0 0 1-.359-.349c0-.192.16-.349.359-.349.197 0 .358.157.358.349ZM254.125 145.895c0 .192-.16.349-.359.349a.354.354 0 0 1-.358-.349c0-.193.16-.349.358-.349.199 0 .359.156.359.349ZM257.478 145.895c0 .192-.16.349-.358.349a.354.354 0 0 1-.358-.349c0-.192.16-.349.358-.349.198 0 .358.157.358.349ZM259.713 145.895c0 .192-.16.349-.359.349a.354.354 0 0 1-.358-.349c0-.192.16-.349.358-.349.198 0 .359.157.359.349ZM260.828 145.895c0 .192-.16.349-.358.349a.354.354 0 0 1-.359-.349c0-.192.16-.349.359-.349.198 0 .358.157.358.349ZM261.947 145.895c0 .192-.16.349-.358.349a.354.354 0 0 1-.359-.349c0-.192.16-.349.359-.349.198 0 .358.157.358.349ZM256.359 145.895c0 .192-.16.349-.358.349a.353.353 0 0 1-.358-.349c0-.192.16-.349.358-.349.198 0 .358.157.358.349ZM258.595 145.895a.353.353 0 0 1-.358.349.354.354 0 0 1-.358-.349c0-.192.16-.349.358-.349.198 0 .358.157.358.349ZM263.066 145.895c0 .192-.16.349-.358.349a.353.353 0 0 1-.358-.349c0-.192.16-.349.358-.349.197 0 .358.157.358.349ZM264.183 145.895c0 .192-.16.349-.358.349a.354.354 0 0 1-.358-.349c0-.192.16-.349.358-.349.198 0 .358.157.358.349ZM265.304 145.895a.353.353 0 0 1-.358.349.354.354 0 0 1-.358-.349c0-.192.16-.349.358-.349.199 0 .358.157.358.349ZM266.42 145.895c0 .192-.16.349-.359.349a.354.354 0 0 1-.358-.349c0-.192.16-.349.358-.349.199 0 .359.157.359.349ZM251.886 146.984a.353.353 0 0 1-.358.349.354.354 0 0 1-.358-.349c0-.193.16-.349.358-.349a.354.354 0 0 1 .358.349ZM250.769 144.806c0 .192-.16.349-.358.349a.354.354 0 0 1-.358-.349c0-.193.16-.349.358-.349.197 0 .358.156.358.349ZM250.769 146.984c0 .192-.16.349-.358.349a.354.354 0 0 1-.358-.349c0-.193.16-.349.358-.349a.355.355 0 0 1 .358.349ZM253.006 146.984c0 .192-.16.349-.359.349a.354.354 0 0 1-.358-.349c0-.193.16-.349.358-.349a.354.354 0 0 1 .359.349ZM254.125 146.984c0 .192-.16.349-.359.349a.354.354 0 0 1-.358-.349c0-.193.16-.349.358-.349a.354.354 0 0 1 .359.349ZM256.359 146.984c0 .192-.16.349-.358.349a.353.353 0 0 1-.358-.349c0-.193.16-.349.358-.349a.354.354 0 0 1 .358.349ZM257.478 146.984c0 .192-.16.349-.358.349a.354.354 0 0 1-.358-.349c0-.193.16-.349.358-.349a.354.354 0 0 1 .358.349ZM258.595 146.984a.353.353 0 0 1-.358.349.354.354 0 0 1-.358-.349c0-.193.16-.349.358-.349a.353.353 0 0 1 .358.349ZM259.713 146.984c0 .192-.16.349-.359.349a.354.354 0 0 1-.358-.349c0-.193.16-.349.358-.349a.355.355 0 0 1 .359.349ZM261.947 146.984c0 .192-.16.349-.358.349a.354.354 0 0 1-.359-.349c0-.193.16-.349.359-.349a.354.354 0 0 1 .358.349ZM264.183 146.984c0 .192-.16.349-.358.349a.354.354 0 0 1-.358-.349c0-.193.16-.349.358-.349a.354.354 0 0 1 .358.349ZM260.828 146.984c0 .192-.16.349-.358.349a.354.354 0 0 1-.359-.349c0-.193.16-.349.359-.349a.354.354 0 0 1 .358.349ZM263.066 146.984c0 .192-.16.349-.358.349a.353.353 0 0 1-.358-.349c0-.193.16-.349.358-.349a.355.355 0 0 1 .358.349ZM265.304 146.984a.353.353 0 0 1-.358.349.354.354 0 0 1-.358-.349c0-.193.16-.349.358-.349a.353.353 0 0 1 .358.349ZM266.376 146.934c0 .193-.116.399-.315.399a.354.354 0 0 1-.358-.349c0-.193.16-.349.358-.349.199.001.315.107.315.299ZM250.769 148.074c0 .192-.16.349-.358.349a.354.354 0 0 1-.358-.349c0-.192.16-.349.358-.349.197 0 .358.156.358.349ZM251.886 148.074a.353.353 0 0 1-.358.349.354.354 0 0 1-.358-.349c0-.192.16-.349.358-.349.198 0 .358.156.358.349ZM253.006 148.074c0 .192-.16.349-.359.349a.354.354 0 0 1-.358-.349c0-.192.16-.349.358-.349.199 0 .359.156.359.349ZM254.125 148.074c0 .192-.16.349-.359.349a.354.354 0 0 1-.358-.349c0-.192.16-.349.358-.349.199 0 .359.156.359.349ZM255.24 148.074c0 .192-.16.349-.358.349a.354.354 0 0 1-.359-.349c0-.192.16-.349.359-.349.197 0 .358.156.358.349ZM256.359 148.074c0 .192-.16.349-.358.349a.353.353 0 0 1-.358-.349c0-.192.16-.349.358-.349.198 0 .358.156.358.349ZM257.478 148.074c0 .192-.16.349-.358.349a.354.354 0 0 1-.358-.349c0-.192.16-.349.358-.349.198 0 .358.156.358.349ZM258.595 148.074a.353.353 0 0 1-.358.349.354.354 0 0 1-.358-.349c0-.192.16-.349.358-.349.199 0 .358.156.358.349ZM259.713 148.074c0 .192-.16.349-.359.349a.354.354 0 0 1-.358-.349c0-.192.16-.349.358-.349.198 0 .359.156.359.349ZM260.828 148.074c0 .192-.16.349-.358.349a.354.354 0 0 1-.359-.349c0-.192.16-.349.359-.349.198 0 .358.156.358.349ZM261.947 148.074c0 .192-.16.349-.358.349a.354.354 0 0 1-.359-.349c0-.192.16-.349.359-.349.198 0 .358.156.358.349ZM263.066 148.074c0 .192-.16.349-.358.349a.353.353 0 0 1-.358-.349c0-.192.16-.349.358-.349.197 0 .358.156.358.349ZM264.183 148.074c0 .192-.16.349-.358.349a.354.354 0 0 1-.358-.349c0-.192.16-.349.358-.349.198 0 .358.156.358.349ZM265.304 148.074a.353.353 0 0 1-.358.349.354.354 0 0 1-.358-.349c0-.192.16-.349.358-.349.199 0 .358.156.358.349ZM250.769 149.163c0 .192-.16.349-.358.349a.354.354 0 0 1-.358-.349c0-.193.16-.349.358-.349.197 0 .358.156.358.349ZM253.006 149.163c0 .192-.16.349-.359.349a.354.354 0 0 1-.358-.349c0-.193.16-.349.358-.349.199 0 .359.156.359.349ZM254.125 149.163c0 .192-.16.349-.359.349a.354.354 0 0 1-.358-.349c0-.193.16-.349.358-.349.199 0 .359.156.359.349ZM255.24 149.163c0 .192-.16.349-.358.349a.354.354 0 0 1-.359-.349c0-.193.16-.349.359-.349.197 0 .358.156.358.349ZM256.359 149.163c0 .192-.16.349-.358.349a.353.353 0 0 1-.358-.349c0-.193.16-.349.358-.349.198 0 .358.156.358.349ZM258.595 149.163a.353.353 0 0 1-.358.349.354.354 0 0 1-.358-.349c0-.193.16-.349.358-.349.199 0 .358.156.358.349ZM260.828 149.163c0 .192-.16.349-.358.349a.354.354 0 0 1-.359-.349c0-.193.16-.349.359-.349.198 0 .358.156.358.349ZM257.478 149.163c0 .192-.16.349-.358.349a.354.354 0 0 1-.358-.349c0-.193.16-.349.358-.349.198 0 .358.156.358.349ZM259.713 149.163c0 .192-.16.349-.359.349a.354.354 0 0 1-.358-.349c0-.193.16-.349.358-.349.198 0 .359.156.359.349ZM261.947 149.163c0 .192-.16.349-.358.349a.354.354 0 0 1-.359-.349c0-.193.16-.349.359-.349.198 0 .358.156.358.349ZM263.066 149.163c0 .192-.16.349-.358.349a.353.353 0 0 1-.358-.349c0-.193.16-.349.358-.349.197 0 .358.156.358.349ZM264.183 149.163c0 .192-.16.349-.358.349a.354.354 0 0 1-.358-.349c0-.193.16-.349.358-.349.198 0 .358.156.358.349ZM250.769 150.252c0 .192-.16.349-.358.349a.354.354 0 0 1-.358-.349c0-.192.16-.349.358-.349a.355.355 0 0 1 .358.349ZM253.006 150.252c0 .192-.16.349-.359.349a.354.354 0 0 1-.358-.349c0-.192.16-.349.358-.349a.355.355 0 0 1 .359.349ZM251.886 149.163a.353.353 0 0 1-.358.349.354.354 0 0 1-.358-.349c0-.193.16-.349.358-.349.198 0 .358.156.358.349ZM251.886 150.252a.353.353 0 0 1-.358.349.354.354 0 0 1-.358-.349c0-.192.16-.349.358-.349a.355.355 0 0 1 .358.349ZM254.125 150.252c0 .192-.16.349-.359.349a.354.354 0 0 1-.358-.349c0-.192.16-.349.358-.349a.355.355 0 0 1 .359.349ZM256.359 150.252c0 .192-.16.349-.358.349a.353.353 0 0 1-.358-.349c0-.192.16-.349.358-.349a.355.355 0 0 1 .358.349ZM255.24 146.984c0 .192-.16.349-.358.349a.354.354 0 0 1-.359-.349c0-.193.16-.349.359-.349a.355.355 0 0 1 .358.349ZM255.24 150.252c0 .192-.16.349-.358.349a.354.354 0 0 1-.359-.349c0-.192.16-.349.359-.349a.355.355 0 0 1 .358.349ZM257.478 150.252c0 .192-.16.349-.358.349a.354.354 0 0 1-.358-.349c0-.192.16-.349.358-.349a.355.355 0 0 1 .358.349ZM258.595 150.252a.353.353 0 0 1-.358.349.354.354 0 0 1-.358-.349c0-.192.16-.349.358-.349a.354.354 0 0 1 .358.349ZM259.713 150.252c0 .192-.16.349-.359.349a.354.354 0 0 1-.358-.349c0-.192.16-.349.358-.349a.355.355 0 0 1 .359.349ZM260.828 150.252c0 .192-.16.349-.358.349a.354.354 0 0 1-.359-.349c0-.192.16-.349.359-.349a.355.355 0 0 1 .358.349ZM263.066 150.252c0 .192-.16.349-.358.349a.353.353 0 0 1-.358-.349c0-.192.16-.349.358-.349a.355.355 0 0 1 .358.349ZM261.947 150.252c0 .192-.16.349-.358.349a.354.354 0 0 1-.359-.349c0-.192.16-.349.359-.349a.355.355 0 0 1 .358.349ZM264.183 150.252c0 .192-.16.349-.358.349a.354.354 0 0 1-.358-.349c0-.192.16-.349.358-.349a.355.355 0 0 1 .358.349ZM250.769 151.342c0 .192-.16.349-.358.349a.354.354 0 0 1-.358-.349c0-.192.16-.349.358-.349.197 0 .358.156.358.349ZM251.886 151.342a.353.353 0 0 1-.358.349.354.354 0 0 1-.358-.349c0-.193.16-.349.358-.349.198 0 .358.156.358.349ZM253.006 151.342c0 .192-.16.349-.359.349a.354.354 0 0 1-.358-.349c0-.193.16-.349.358-.349.199 0 .359.156.359.349ZM254.125 151.342c0 .192-.16.349-.359.349a.354.354 0 0 1-.358-.349c0-.192.16-.349.358-.349.199 0 .359.156.359.349ZM255.24 151.342c0 .192-.16.349-.358.349a.354.354 0 0 1-.359-.349c0-.193.16-.349.359-.349.197 0 .358.156.358.349ZM258.595 151.342a.353.353 0 0 1-.358.349.354.354 0 0 1-.358-.349c0-.193.16-.349.358-.349.199 0 .358.156.358.349ZM260.828 151.342c0 .192-.16.349-.358.349a.354.354 0 0 1-.359-.349c0-.193.16-.349.359-.349.198 0 .358.156.358.349ZM261.947 151.342c0 .192-.16.349-.358.349a.354.354 0 0 1-.359-.349c0-.193.16-.349.359-.349.198 0 .358.156.358.349ZM263.066 151.342c0 .192-.16.349-.358.349a.353.353 0 0 1-.358-.349c0-.193.16-.349.358-.349.197 0 .358.156.358.349ZM250.769 152.431c0 .192-.16.349-.358.349a.354.354 0 0 1-.358-.349c0-.193.16-.349.358-.349.197 0 .358.156.358.349ZM251.886 152.431a.353.353 0 0 1-.358.349.354.354 0 0 1-.358-.349c0-.193.16-.349.358-.349.198 0 .358.156.358.349ZM254.125 152.431c0 .192-.16.349-.359.349a.354.354 0 0 1-.358-.349c0-.193.16-.349.358-.349.199 0 .359.156.359.349ZM253.006 152.431c0 .192-.16.349-.359.349a.354.354 0 0 1-.358-.349c0-.193.16-.349.358-.349.199 0 .359.156.359.349ZM255.24 152.431c0 .192-.16.349-.358.349a.354.354 0 0 1-.359-.349c0-.193.16-.349.359-.349.197 0 .358.156.358.349ZM256.359 152.431c0 .192-.16.349-.358.349a.353.353 0 0 1-.358-.349c0-.193.16-.349.358-.349.198 0 .358.156.358.349ZM258.595 152.431a.353.353 0 0 1-.358.349.354.354 0 0 1-.358-.349c0-.193.16-.349.358-.349.199 0 .358.156.358.349ZM259.713 152.431c0 .192-.16.349-.359.349a.354.354 0 0 1-.358-.349c0-.193.16-.349.358-.349.198 0 .359.156.359.349ZM260.828 152.431c0 .192-.16.349-.358.349a.354.354 0 0 1-.359-.349c0-.193.16-.349.359-.349.198 0 .358.156.358.349ZM261.947 152.431c0 .192-.16.349-.358.349a.354.354 0 0 1-.359-.349c0-.193.16-.349.359-.349.198 0 .358.156.358.349ZM250.769 153.52c0 .192-.16.349-.358.349a.354.354 0 0 1-.358-.349c0-.192.16-.349.358-.349.197 0 .358.157.358.349ZM251.886 153.52a.353.353 0 0 1-.358.349.354.354 0 0 1-.358-.349c0-.192.16-.349.358-.349.198 0 .358.157.358.349ZM253.006 153.52c0 .192-.16.349-.359.349a.354.354 0 0 1-.358-.349c0-.192.16-.349.358-.349.199 0 .359.157.359.349ZM254.125 153.52c0 .192-.16.349-.359.349a.354.354 0 0 1-.358-.349c0-.192.16-.349.358-.349.199 0 .359.157.359.349ZM255.24 153.52c0 .192-.16.349-.358.349a.354.354 0 0 1-.359-.349c0-.192.16-.349.359-.349.197 0 .358.157.358.349ZM256.359 153.52c0 .192-.16.349-.358.349a.353.353 0 0 1-.358-.349c0-.192.16-.349.358-.349.198 0 .358.157.358.349ZM258.595 153.52a.353.353 0 0 1-.358.349.354.354 0 0 1-.358-.349c0-.192.16-.349.358-.349.199 0 .358.157.358.349ZM257.478 151.342c0 .192-.16.349-.358.349a.354.354 0 0 1-.358-.349c0-.193.16-.349.358-.349.198 0 .358.156.358.349ZM256.359 151.342c0 .192-.16.349-.358.349a.353.353 0 0 1-.358-.349c0-.193.16-.349.358-.349.198 0 .358.156.358.349ZM257.478 152.431c0 .192-.16.349-.358.349a.354.354 0 0 1-.358-.349c0-.193.16-.349.358-.349.198 0 .358.156.358.349ZM257.478 153.52c0 .192-.16.349-.358.349a.354.354 0 0 1-.358-.349c0-.192.16-.349.358-.349.198 0 .358.157.358.349ZM260.828 153.52c0 .192-.16.349-.358.349a.354.354 0 0 1-.359-.349c0-.192.16-.349.359-.349.198 0 .358.157.358.349ZM259.713 151.342c0 .192-.16.349-.359.349a.354.354 0 0 1-.358-.349c0-.193.16-.349.358-.349.198 0 .359.156.359.349ZM259.713 153.52c0 .192-.16.349-.359.349a.354.354 0 0 1-.358-.349c0-.192.16-.349.358-.349.198 0 .359.157.359.349ZM251.886 154.609a.353.353 0 0 1-.358.349.354.354 0 0 1-.358-.349c0-.192.16-.349.358-.349a.355.355 0 0 1 .358.349ZM253.006 154.609c0 .192-.16.349-.359.349a.354.354 0 0 1-.358-.349c0-.192.16-.349.358-.349a.355.355 0 0 1 .359.349ZM254.125 154.609c0 .192-.16.349-.359.349a.354.354 0 0 1-.358-.349c0-.192.16-.349.358-.349a.355.355 0 0 1 .359.349ZM255.24 154.609c0 .192-.16.349-.358.349a.354.354 0 0 1-.359-.349c0-.192.16-.349.359-.349a.355.355 0 0 1 .358.349ZM257.478 154.609c0 .192-.16.349-.358.349a.354.354 0 0 1-.358-.349c0-.192.16-.349.358-.349a.355.355 0 0 1 .358.349ZM256.359 154.609c0 .192-.16.349-.358.349a.353.353 0 0 1-.358-.349c0-.192.16-.349.358-.349a.355.355 0 0 1 .358.349ZM258.595 154.609a.353.353 0 0 1-.358.349.354.354 0 0 1-.358-.349c0-.192.16-.349.358-.349a.354.354 0 0 1 .358.349ZM259.713 154.609c0 .192-.16.349-.359.349a.354.354 0 0 1-.358-.349c0-.192.16-.349.358-.349a.355.355 0 0 1 .359.349ZM250.769 155.699c0 .192-.16.349-.358.349a.354.354 0 0 1-.358-.349c0-.192.16-.349.358-.349.197 0 .358.156.358.349ZM253.006 155.699c0 .193-.16.349-.359.349a.354.354 0 0 1-.358-.349c0-.192.16-.349.358-.349.199 0 .359.156.359.349ZM251.886 155.699a.353.353 0 0 1-.358.349.354.354 0 0 1-.358-.349c0-.192.16-.349.358-.349.198 0 .358.156.358.349ZM256.359 155.699c0 .193-.16.349-.358.349a.353.353 0 0 1-.358-.349c0-.192.16-.349.358-.349.198 0 .358.156.358.349ZM257.478 155.699c0 .193-.16.349-.358.349a.354.354 0 0 1-.358-.349c0-.192.16-.349.358-.349.198 0 .358.156.358.349ZM258.595 155.699a.353.353 0 0 1-.358.349.354.354 0 0 1-.358-.349c0-.192.16-.349.358-.349.199 0 .358.156.358.349ZM250.769 156.788c0 .193-.16.349-.358.349a.353.353 0 0 1-.358-.349c0-.192.16-.349.358-.349.197 0 .358.157.358.349ZM251.886 156.788a.353.353 0 0 1-.358.349.353.353 0 0 1-.358-.349c0-.192.16-.349.358-.349.198 0 .358.157.358.349ZM256.359 156.788c0 .193-.16.349-.358.349a.353.353 0 0 1-.358-.349c0-.192.16-.349.358-.349.198 0 .358.157.358.349ZM255.24 155.699c0 .193-.16.349-.358.349a.354.354 0 0 1-.359-.349c0-.192.16-.349.359-.349.197 0 .358.156.358.349ZM255.24 156.788c0 .193-.16.349-.358.349a.353.353 0 0 1-.359-.349c0-.192.16-.349.359-.349.197 0 .358.157.358.349ZM254.125 155.699c0 .192-.16.349-.359.349a.354.354 0 0 1-.358-.349c0-.192.16-.349.358-.349.199 0 .359.156.359.349ZM254.125 156.788c0 .193-.16.349-.359.349a.353.353 0 0 1-.358-.349c0-.192.16-.349.358-.349.199 0 .359.157.359.349ZM250.769 157.877c0 .193-.16.349-.358.349a.354.354 0 0 1-.358-.349c0-.192.16-.349.358-.349a.355.355 0 0 1 .358.349ZM251.886 157.877a.353.353 0 0 1-.358.349.354.354 0 0 1-.358-.349c0-.192.16-.349.358-.349a.355.355 0 0 1 .358.349ZM254.125 157.877c0 .193-.16.349-.359.349a.354.354 0 0 1-.358-.349c0-.192.16-.349.358-.349a.355.355 0 0 1 .359.349ZM253.006 156.788c0 .193-.16.349-.359.349a.353.353 0 0 1-.358-.349c0-.192.16-.349.358-.349.199 0 .359.157.359.349ZM253.006 157.877c0 .193-.16.349-.359.349a.354.354 0 0 1-.358-.349c0-.192.16-.349.358-.349a.355.355 0 0 1 .359.349ZM255.24 157.877c0 .193-.16.349-.358.349a.354.354 0 0 1-.359-.349c0-.192.16-.349.359-.349a.355.355 0 0 1 .358.349ZM257.486 156.685c0 .192-.427.391-.625.391s-.101-.094-.101-.288c0-.192.16-.349.358-.349.198 0 .368.053.368.246ZM251.886 158.967c0 .193-.144.025-.342.025-.197 0-.179-.025-.374-.025 0-.192.16-.349.358-.349.198 0 .358.156.358.349ZM253.006 158.967c0 .193-.16.155-.359.155-.197 0-.358.039-.358-.155 0-.192.16-.349.358-.349.199 0 .359.156.359.349ZM250.769 154.609c0 .192-.16.349-.358.349a.354.354 0 0 1-.358-.349c0-.192.16-.349.358-.349a.355.355 0 0 1 .358.349Z" fill="#3136BD"/><path d="M252.525 172.333c20.673 0 37.433-16.232 37.433-36.256 0-20.023-16.76-36.256-37.433-36.256-20.674 0-37.433 16.233-37.433 36.256 0 20.024 16.759 36.256 37.433 36.256Z" stroke="url(#m)" stroke-width="1.061" stroke-miterlimit="10"/></g></g><defs><linearGradient id="b" x1="-213.858" y1="345.843" x2="553.095" y2="2.956" gradientUnits="userSpaceOnUse"><stop offset=".325" stop-color="#F8F8FE"/><stop offset="1" stop-color="#494FE1" stop-opacity=".93"/></linearGradient><linearGradient id="f" x1="212.588" y1="103.862" x2="285.074" y2="166.252" gradientUnits="userSpaceOnUse"><stop offset="0" stop-color="#3D4FC7"/><stop offset=".254" stop-color="#3D4FC7" stop-opacity=".72"/><stop offset=".391" stop-color="#3D4FC7" stop-opacity=".64"/><stop offset=".501" stop-color="#3D4FC7" stop-opacity=".48"/><stop offset=".595" stop-color="#3D4FC7" stop-opacity=".4"/><stop offset=".68" stop-color="#3D4FC7" stop-opacity=".32"/><stop offset=".759" stop-color="#3D4FC7" stop-opacity=".24"/><stop offset=".832" stop-color="#6266C6" stop-opacity=".16"/><stop offset=".901" stop-color="#6266C6" stop-opacity=".1"/><stop offset=".965" stop-color="#6266C6" stop-opacity=".03"/><stop offset="1" stop-opacity="0"/><stop offset="1" stop-color="#EFF0F8"/></linearGradient><linearGradient id="g" x1="293.9" y1="166.422" x2="222.387" y2="102.919" gradientUnits="userSpaceOnUse"><stop offset="0" stop-color="#3D4FC7"/><stop offset=".254" stop-color="#3D4FC7" stop-opacity=".72"/><stop offset=".391" stop-color="#3D4FC7" stop-opacity=".6"/><stop offset=".501" stop-color="#3D4FC7" stop-opacity=".5"/><stop offset=".595" stop-color="#3D4FC7" stop-opacity=".4"/><stop offset=".68" stop-color="#3D4FC7" stop-opacity=".32"/><stop offset=".759" stop-color="#3D4FC7" stop-opacity=".24"/><stop offset=".832" stop-color="#3D4FC7" stop-opacity=".16"/><stop offset=".901" stop-color="#3D4FC7" stop-opacity=".08"/><stop offset=".94" stop-color="#6266C6" stop-opacity=".04"/><stop offset=".965" stop-color="#3D4FC7" stop-opacity=".04"/><stop offset="1" stop-color="#3D4FC7" stop-opacity=".02"/></linearGradient><linearGradient id="h" x1="293.9" y1="166.422" x2="222.387" y2="102.919" gradientUnits="userSpaceOnUse"><stop offset="0" stop-color="#3D4FC7"/><stop offset=".254" stop-color="#3D4FC7" stop-opacity=".72"/><stop offset=".391" stop-color="#3D4FC7" stop-opacity=".64"/><stop offset=".501" stop-color="#3D4FC7" stop-opacity=".64"/><stop offset=".595" stop-color="#3D4FC7" stop-opacity=".4"/><stop offset=".68" stop-color="#3D4FC7" stop-opacity=".32"/><stop offset=".759" stop-color="#3D4FC7" stop-opacity=".24"/><stop offset=".832" stop-color="#3D4FC7" stop-opacity=".16"/><stop offset=".901" stop-color="#3D4FC7" stop-opacity=".08"/><stop offset=".965" stop-color="#3D4FC7" stop-opacity=".04"/><stop offset="1" stop-color="#3D4FC7" stop-opacity="0"/></linearGradient><linearGradient id="i" x1="271.934" y1="191.955" x2="199.663" y2="129.317" gradientUnits="userSpaceOnUse"><stop offset="0" stop-color="#3D4FC7"/><stop offset=".254" stop-color="#3D4FC7" stop-opacity=".72"/><stop offset=".391" stop-color="#3D4FC7" stop-opacity=".6"/><stop offset=".501" stop-color="#3D4FC7" stop-opacity=".48"/><stop offset=".595" stop-color="#3D4FC7" stop-opacity=".4"/><stop offset=".68" stop-color="#3D4FC7" stop-opacity=".4"/><stop offset=".759" stop-color="#3D4FC7" stop-opacity=".24"/><stop offset=".832" stop-color="#3D4FC7" stop-opacity=".16"/><stop offset=".901" stop-color="#3D4FC7" stop-opacity=".08"/><stop offset=".965" stop-color="#3D4FC7" stop-opacity=".04"/><stop offset="1" stop-color="#3D4FC7" stop-opacity="0"/></linearGradient><linearGradient id="j" x1="297.069" y1="161.904" x2="222.893" y2="101.535" gradientUnits="userSpaceOnUse"><stop offset="0" stop-color="#3D4FC7"/><stop offset=".122" stop-color="#3D4FC7" stop-opacity=".8"/><stop offset=".254" stop-color="#3D4FC7" stop-opacity=".72"/><stop offset=".391" stop-color="#3D4FC7" stop-opacity=".6"/><stop offset=".501" stop-color="#3D4FC7" stop-opacity=".48"/><stop offset=".595" stop-color="#3D4FC7" stop-opacity=".4"/><stop offset=".68" stop-color="#3D4FC7" stop-opacity=".32"/><stop offset=".759" stop-color="#3D4FC7" stop-opacity=".24"/><stop offset=".832" stop-color="#3D4FC7" stop-opacity=".16"/><stop offset=".865" stop-color="#4E54D1" stop-opacity=".122"/><stop offset=".901" stop-color="#3D4FC7" stop-opacity=".08"/><stop offset=".965" stop-color="#3D4FC7" stop-opacity=".04"/><stop offset="1" stop-opacity="0"/><stop offset="1" stop-color="#6266C6" stop-opacity="0"/><stop offset="1" stop-color="#3D4FC7" stop-opacity="0"/></linearGradient><linearGradient id="k" x1="273.567" y1="135.278" x2="231.307" y2="135.278" gradientUnits="userSpaceOnUse"><stop offset=".443" stop-color="#fff"/><stop offset=".589" stop-color="#A1A1A1"/><stop offset=".732" stop-color="#4A4A4A"/><stop offset=".832" stop-color="#151515"/><stop offset=".88"/></linearGradient><linearGradient id="m" x1="223.806" y1="112.749" x2="279.72" y2="161.165" gradientUnits="userSpaceOnUse"><stop stop-color="#57C3F9" stop-opacity=".2"/><stop offset=".489" stop-color="#57C3F9"/><stop offset=".761" stop-color="#57C3F9"/><stop offset="1" stop-color="#57C3F9" stop-opacity=".5"/></linearGradient><filter id="c" x="97.424" y="-19.731" width="310.674" height="310.673" filterUnits="userSpaceOnUse" color-interpolation-filters="sRGB"><feFlood flood-opacity="0" result="BackgroundImageFix"/><feColorMatrix in="SourceAlpha" values="0 0 0 0 0 0 0 0 0 0 0 0 0 0 0 0 0 0 127 0" result="hardAlpha"/><feOffset/><feGaussianBlur stdDeviation="40"/><feComposite in2="hardAlpha" operator="out"/><feColorMatrix values="0 0 0 0 0.777767 0 0 0 0 0.797986 0 0 0 0 0.865384 0 0 0 0.4 0"/><feBlend in2="BackgroundImageFix" result="effect1_dropShadow_3060_177257"/><feBlend in="SourceGraphic" in2="effect1_dropShadow_3060_177257" result="shape"/></filter><filter id="d" x="101.789" y="20.741" width="326.1" height="291.407" filterUnits="userSpaceOnUse" color-interpolation-filters="sRGB"><feFlood flood-opacity="0" result="BackgroundImageFix"/><feColorMatrix in="SourceAlpha" values="0 0 0 0 0 0 0 0 0 0 0 0 0 0 0 0 0 0 127 0" result="hardAlpha"/><feOffset/><feGaussianBlur stdDeviation="40"/><feComposite in2="hardAlpha" operator="out"/><feColorMatrix values="0 0 0 0 0.777767 0 0 0 0 0.797986 0 0 0 0 0.865384 0 0 0 0.4 0"/><feBlend in2="BackgroundImageFix" result="effect1_dropShadow_3060_177257"/><feBlend in="SourceGraphic" in2="effect1_dropShadow_3060_177257" result="shape"/></filter><filter id="e" x="168.965" y="51.812" width="167.588" height="167.588" filterUnits="userSpaceOnUse" color-interpolation-filters="sRGB"><feFlood flood-opacity="0" result="BackgroundImageFix"/><feColorMatrix in="SourceAlpha" values="0 0 0 0 0 0 0 0 0 0 0 0 0 0 0 0 0 0 127 0" result="hardAlpha"/><feOffset/><feGaussianBlur stdDeviation="16"/><feComposite in2="hardAlpha" operator="out"/><feColorMatrix values="0 0 0 0 0.886275 0 0 0 0 0.894118 0 0 0 0 0.945098 0 0 0 0.6 0"/><feBlend in2="BackgroundImageFix" result="effect1_dropShadow_3060_177257"/><feBlend in="SourceGraphic" in2="effect1_dropShadow_3060_177257" result="shape"/></filter><clipPath id="a"><path fill="#fff" d="M0 0h375v271H0z"/></clipPath></defs></svg>