<svg width="1918" height="658" fill="none" xmlns="http://www.w3.org/2000/svg"><g clip-path="url(#a)"><path fill="#fff" d="M0 0h1918v658H0z"/><path d="M1927.89-42.039c-10.34 122.005-136.16 195.996-239.42 166.446-90.71-25.961-145.76-15.764-183.01 10.492-70.03 49.355-64.6 144.193-171.06 172.073-80.29 21.027-149.92-44.338-224-12.102-74.07 32.236-43.88 93.799-147.292 179.924-103.411 86.125-178.381-8.185-229.559 60.115" stroke="url(#b)"/><g filter="url(#c)"><circle cx="1381.75" cy="278.617" r="180.343" fill="#fff"/></g><g filter="url(#d)"><path d="M1211.86 429.791a225.438 225.438 0 0 0 136.81 77.136 225.414 225.414 0 0 0 153.98-30.93 225.404 225.404 0 0 0 96.41-123.985 225.457 225.457 0 0 0-7.95-156.856l-25.72 11.071a197.456 197.456 0 0 1 6.97 137.374 197.447 197.447 0 0 1-84.44 108.586 197.411 197.411 0 0 1-134.85 27.089 197.417 197.417 0 0 1-119.82-67.556l-21.39 18.071Z" fill="#E2E4F1"/></g><g filter="url(#e)"><circle cx="1381.75" cy="278.617" r="123.986" fill="#fff"/></g><path opacity=".5" d="M1463.46 225.572c-4.49-9.662-11.15-18.514-19.45-25.908-8.31-7.393-18.25-13.322-29.1-17.321-10.84-4.015-22.58-6.066-34.32-6.07-11.74.004-23.48 2.057-34.33 6.07-10.85 3.999-20.79 9.928-29.09 17.321-8.31 7.394-14.96 16.246-19.46 25.908-4.5 9.656-6.81 20.111-6.81 30.565s2.31 20.908 6.81 30.566c4.5 9.662 11.15 18.514 19.46 25.907 8.3 7.394 18.24 13.322 29.09 17.322 10.84 4.015 22.59 6.066 34.33 6.07 11.74-.004 23.48-2.057 34.32-6.07 10.85-4 20.79-9.928 29.1-17.322 8.3-7.393 14.96-16.245 19.45-25.907a72.297 72.297 0 0 0 6.81-30.566c0-10.454-2.3-20.909-6.81-30.565Zm-1.24 60.672c-4.43 9.515-10.98 18.236-19.16 25.517-8.18 7.285-17.97 13.126-28.66 17.063-10.68 3.953-22.24 5.976-33.81 5.98-11.57-.004-23.13-2.027-33.81-5.98-10.69-3.937-20.48-9.778-28.66-17.063-8.18-7.283-14.74-16.002-19.16-25.517a71.402 71.402 0 0 1-6.72-30.109 71.401 71.401 0 0 1 6.72-30.108c4.42-9.515 10.98-18.236 19.16-25.519 8.18-7.283 17.97-13.124 28.66-17.061 10.68-3.953 22.24-5.976 33.81-5.98 11.57.004 23.13 2.027 33.81 5.98 10.69 3.937 20.48 9.778 28.66 17.061 8.18 7.285 14.73 16.004 19.16 25.519 4.44 9.511 6.71 19.807 6.71 30.108 0 10.302-2.27 20.598-6.71 30.109Z" fill="url(#f)"/><path d="M1318.51 194.899c14.02-11.375 32.07-18.678 50.96-20.641l.67 5.97c-17.48 1.84-34.18 8.606-47.14 19.128-13.19 10.601-22.47 24.719-26.24 39.871l-6.58-1.22c4.06-16.392 14.09-31.66 28.33-43.108Z" fill="url(#g)"/><path d="M1290.18 238.007c4.06-16.392 14.08-31.66 28.33-43.108 14.02-11.375 32.07-18.678 50.96-20.641l.67 5.97c-17.48 1.84-34.18 8.606-47.14 19.128-13.19 10.601-22.47 24.719-26.24 39.871l-6.58-1.22Z" fill="url(#h)"/><path d="m1288.42 257.361 6.73.002c.16 9.95 2.57 19.961 6.99 29.029 4.4 9.074 10.93 17.497 18.92 24.432l-4.61 4.364c-8.65-7.491-15.72-16.602-20.49-26.419-4.78-9.813-7.37-20.647-7.54-31.408Z" fill="url(#i)"/><path d="m1423.66 189.851 3.32-5.2c15.53 8.269 28.33 20.773 36.13 35.331 8.02 14.833 10.85 32.055 7.99 48.501-2.81 16.344-11.38 31.929-24.16 43.888-12.45 11.721-28.88 20.026-46.42 23.468l-1.37-5.875c16.22-3.206 31.42-10.895 42.93-21.738 11.85-11.086 19.81-25.537 22.4-40.688 2.66-15.261.03-31.235-7.4-44.971-7.21-13.471-19.05-25.046-33.42-32.716Z" fill="url(#j)"/><path d="M1427.85 222.491c0 73.022-47.23 83.523-47.23 83.523s-47.24-10.501-47.24-83.523c15.75-1.137 31.16-2.729 47.24-15.83 16.07 13.101 31.48 14.693 47.23 15.83Z" stroke="#3136BD" stroke-miterlimit="10"/><path d="M1380.65 206.682c16.07 13.101 31.49 14.693 47.23 15.83 0 73.022-47.23 83.523-47.23 83.523s-47.23-10.501-47.23-83.523c15.74-1.137 31.16-2.729 47.23-15.83Zm0-3.647-2.04 1.662c-3.71 3.023-7.44 5.472-11.4 7.489-3.55 1.805-7.22 3.222-11.2 4.329-7.47 2.078-15.06 2.754-22.83 3.314l-2.78.2v2.479c0 16.96 2.54 32.014 7.55 44.745 4.05 10.291 9.71 19.103 16.83 26.191 12.29 12.229 24.62 15.079 25.14 15.195l.73.162.73-.162c.52-.116 12.85-2.966 25.14-15.195 7.12-7.088 12.78-15.9 16.83-26.191 5.01-12.731 7.55-27.785 7.55-44.745v-2.479l-2.77-.2c-7.77-.56-15.37-1.236-22.84-3.314-3.98-1.107-7.64-2.524-11.19-4.329-3.97-2.017-7.7-4.468-11.41-7.489l-2.04-1.662Z" stroke="#3136BD" stroke-miterlimit="10"/><mask id="l" style="mask-type:alpha" maskUnits="userSpaceOnUse" x="1330" y="201" width="102" height="105"><path d="M1330.4 201.818v104.181h101.17V201.818H1330.4Z" fill="url(#k)"/></mask><g mask="url(#l)"><path d="M1374.31 212.788c0 .421-.38.764-.85.764-.48 0-.86-.341-.86-.764 0-.421.38-.764.86-.764.47 0 .85.343.85.764Zm2.68 0c0 .421-.39.764-.86.764s-.86-.341-.86-.764c0-.421.38-.764.86-.764.47 0 .86.343.86.764Zm0-2.324c0 .421-.39.764-.86.764s-.86-.341-.86-.764c0-.421.38-.763.86-.763.47 0 .86.342.86.763Zm2.68 2.324c0 .421-.39.764-.86.764s-.86-.341-.86-.764c0-.421.38-.764.86-.764.47 0 .86.343.86.764Zm0-2.324c0 .421-.39.764-.86.764s-.86-.341-.86-.764c0-.421.38-.763.86-.763.47 0 .86.342.86.763Zm0-2.285c0 .421-.38.764-.86.764-.47 0-.4-.223-.4-.645 0-.421.57-.479.86-.764.47 0 .4.224.4.645Zm2.68 4.609c0 .421-.39.764-.86.764s-.86-.341-.86-.764c0-.421.38-.764.86-.764.47 0 .86.343.86.764Zm0-2.324c0 .421-.39.764-.86.764s-.86-.341-.86-.764c0-.421.38-.763.86-.763.47 0 .86.342.86.763Zm0-2.285c0 .421-.39.764-.86.764s-.86-.341-.86-.764c0-.421.38-.764.86-.764.47 0 .86.343.86.764Zm2.67 4.609c0 .421-.38.764-.86.764-.47 0-.86-.341-.86-.764 0-.421.39-.764.86-.764.48 0 .86.343.86.764Zm0-2.324c0 .421-.38.764-.86.764-.47 0-.86-.341-.86-.764 0-.421.39-.763.86-.763.48 0 .86.342.86.763Zm-16.06 4.707c0 .42-.38.763-.85.763-.48 0-.86-.341-.86-.763 0-.421.38-.764.86-.764.47.002.85.343.85.764Zm2.68 0c0 .42-.38.763-.86.763-.47 0-.86-.341-.86-.763 0-.421.39-.764.86-.764.47.002.86.343.86.764Zm2.67 0c0 .42-.38.763-.85.763-.48 0-.86-.341-.86-.763 0-.421.38-.764.86-.764.47.002.85.343.85.764Zm2.68 0c0 .42-.39.763-.86.763s-.86-.341-.86-.763c0-.421.38-.764.86-.764.47.002.86.343.86.764Zm2.68 0c0 .42-.39.763-.86.763s-.86-.341-.86-.763c0-.421.38-.764.86-.764.47.002.86.343.86.764Zm2.68 0c0 .42-.39.763-.86.763s-.86-.341-.86-.763c0-.421.38-.764.86-.764.47.002.86.343.86.764Zm2.67 0c0 .42-.38.763-.86.763-.47 0-.86-.341-.86-.763 0-.421.39-.764.86-.764.48.002.86.343.86.764Zm-21.41 2.384c0 .421-.38.764-.86.764-.47 0-.86-.341-.86-.764 0-.421.39-.764.86-.764s.86.341.86.764Zm2.67 0c0 .421-.38.764-.85.764-.48 0-.86-.341-.86-.764 0-.421.38-.764.86-.764.47 0 .85.341.85.764Zm2.68 0c0 .421-.38.764-.85.764-.48 0-.86-.341-.86-.764 0-.421.38-.764.86-.764.47 0 .85.341.85.764Zm2.68 0c0 .421-.38.764-.86.764-.47 0-.86-.341-.86-.764 0-.421.39-.764.86-.764s.86.341.86.764Zm2.67 0c0 .421-.38.764-.85.764-.48 0-.86-.341-.86-.764 0-.421.38-.764.86-.764.47 0 .85.341.85.764Zm2.68 0c0 .421-.39.764-.86.764s-.86-.341-.86-.764c0-.421.38-.764.86-.764.47 0 .86.341.86.764Zm2.68 0c0 .421-.39.764-.86.764s-.86-.341-.86-.764c0-.421.38-.764.86-.764.47 0 .86.341.86.764Zm2.68 0c0 .421-.39.764-.86.764s-.86-.341-.86-.764c0-.421.38-.764.86-.764.47 0 .86.341.86.764Zm2.67 0c0 .421-.38.764-.86.764-.47 0-.86-.341-.86-.764 0-.421.39-.764.86-.764.48 0 .86.341.86.764Zm-29.44 2.383c0 .421-.38.764-.86.764-.47 0-.85-.341-.85-.764 0-.421.38-.764.85-.764.48 0 .86.343.86.764Zm2.68 0c0 .421-.39.764-.86.764s-.86-.341-.86-.764c0-.421.38-.764.86-.764.47 0 .86.343.86.764Zm2.68 0c0 .421-.39.764-.86.764s-.86-.341-.86-.764c0-.421.38-.764.86-.764.47 0 .86.343.86.764Zm2.67 0c0 .421-.38.764-.86.764-.47 0-.86-.341-.86-.764 0-.421.39-.764.86-.764s.86.343.86.764Zm2.67 0c0 .421-.38.764-.85.764-.48 0-.86-.341-.86-.764 0-.421.38-.764.86-.764.47 0 .85.343.85.764Zm2.68 0c0 .421-.38.764-.85.764-.48 0-.86-.341-.86-.764 0-.421.38-.764.86-.764.47 0 .85.343.85.764Zm2.68 0c0 .421-.38.764-.86.764-.47 0-.86-.341-.86-.764 0-.421.39-.764.86-.764s.86.343.86.764Zm2.67 0c0 .421-.38.764-.85.764-.48 0-.86-.341-.86-.764 0-.421.38-.764.86-.764.47 0 .85.343.85.764Zm2.68 0c0 .421-.39.764-.86.764s-.86-.341-.86-.764c0-.421.38-.764.86-.764.47 0 .86.343.86.764Zm2.68 0c0 .421-.39.764-.86.764s-.86-.341-.86-.764c0-.421.38-.764.86-.764.47 0 .86.343.86.764Zm2.68 0c0 .421-.39.764-.86.764s-.86-.341-.86-.764c0-.421.38-.764.86-.764.47 0 .86.343.86.764Zm2.67 0c0 .421-.38.764-.86.764-.47 0-.86-.341-.86-.764 0-.421.39-.764.86-.764.48 0 .86.343.86.764Zm-48.17 2.382c0 .421-.39.764-.86.764s-.86-.341-.86-.764c0-.421.35-.335.83-.335.47 0 .89-.086.89.335Zm8.03 0c0 .421-.39.764-.86.764s-.86-.341-.86-.764c0-.421.38-.764.86-.764.47 0 .86.343.86.764Zm2.67 0c0 .421-.38.764-.85.764-.48 0-.86-.341-.86-.764 0-.421.38-.764.86-.764.47 0 .85.343.85.764Zm-8.03 0c0 .421-.38.764-.86.764-.47 0-.85-.341-.85-.764 0-.421.38-.525.85-.525.48 0 .86.104.86.525Zm2.69 0c0 .421-.39.764-.86.764s-.86-.341-.86-.764c0-.421.38-.764.86-.764.47 0 .86.343.86.764Zm8.02 0c0 .421-.38.764-.86.764-.47 0-.86-.341-.86-.764 0-.421.39-.764.86-.764.48 0 .86.343.86.764Zm2.67 0c0 .421-.38.764-.85.764-.48 0-.86-.341-.86-.764 0-.421.38-.764.86-.764.47 0 .85.343.85.764Zm2.68 0c0 .421-.38.764-.86.764-.47 0-.85-.341-.85-.764 0-.421.38-.764.85-.764.48 0 .86.343.86.764Zm2.68 0c0 .421-.39.764-.86.764s-.86-.341-.86-.764c0-.421.38-.764.86-.764.47 0 .86.343.86.764Zm2.68 0c0 .421-.39.764-.86.764s-.86-.341-.86-.764c0-.421.38-.764.86-.764.47 0 .86.343.86.764Zm5.34 0c0 .421-.38.764-.85.764-.48 0-.86-.341-.86-.764 0-.421.38-.764.86-.764.47 0 .85.343.85.764Zm-2.67 0c0 .421-.38.764-.86.764-.47 0-.86-.341-.86-.764 0-.421.39-.764.86-.764s.86.343.86.764Zm5.35 0c0 .421-.38.764-.85.764-.48 0-.86-.341-.86-.764 0-.421.38-.764.86-.764.47 0 .85.343.85.764Zm2.68 0c0 .421-.38.764-.86.764-.47 0-.86-.341-.86-.764 0-.421.39-.764.86-.764s.86.343.86.764Zm2.67 0c0 .421-.38.764-.85.764-.48 0-.86-.341-.86-.764 0-.421.38-.764.86-.764.47 0 .85.343.85.764Zm2.68 0c0 .421-.39.764-.86.764s-.86-.341-.86-.764c0-.421.38-.764.86-.764.47 0 .86.343.86.764Zm2.68 0c0 .421-.39.764-.86.764s-.86-.341-.86-.764c0-.421.38-.764.86-.764.47 0 .86.343.86.764Zm2.68 0c0 .421-.39.764-.86.764s-.86-.341-.86-.764c0-.421.38-.764.86-.764.47 0 .86.343.86.764Zm2.67 0c0 .421-.38.764-.86.764-.47 0-.86-.341-.86-.764 0-.421.39-.764.86-.764.48 0 .86.343.86.764Zm-50.85 2.382c0 .421-.38.764-.86.764-.47 0-.24-.392-.24-.815 0-.421-.23-.712.24-.712.48.002.86.343.86.763Zm2.68.001c0 .421-.39.763-.86.763s-.86-.341-.86-.763c0-.421.38-.764.86-.764.47.002.86.343.86.764Zm2.67 0c0 .421-.38.763-.86.763-.47 0-.85-.341-.85-.763 0-.421.38-.764.85-.764.48.002.86.343.86.764Zm2.69 0c0 .421-.39.763-.86.763s-.86-.341-.86-.763c0-.421.38-.764.86-.764.47.002.86.343.86.764Zm2.67 0c0 .421-.39.763-.86.763s-.86-.341-.86-.763c0-.421.38-.764.86-.764.47.002.86.343.86.764Zm8.02 0c0 .421-.38.763-.85.763-.48 0-.86-.341-.86-.763 0-.421.38-.764.86-.764.47.002.85.343.85.764Zm2.68 0c0 .421-.38.763-.86.763-.47 0-.85-.341-.85-.763 0-.421.38-.764.85-.764.48.002.86.343.86.764Zm-8.03 0c0 .421-.38.763-.85.763-.48 0-.86-.341-.86-.763 0-.421.38-.764.86-.764.47.002.85.343.85.764Zm2.68 0c0 .421-.38.763-.86.763-.47 0-.86-.341-.86-.763 0-.421.39-.764.86-.764.48.002.86.343.86.764Zm10.71 0c0 .421-.39.763-.86.763s-.86-.341-.86-.763c0-.421.38-.764.86-.764.47.002.86.343.86.764Zm-2.68 0c0 .421-.39.763-.86.763s-.86-.341-.86-.763c0-.421.38-.764.86-.764.47.002.86.343.86.764Zm5.35 0c0 .421-.38.763-.86.763-.47 0-.86-.341-.86-.763 0-.421.39-.764.86-.764.47.002.86.343.86.764Zm2.67 0c0 .421-.38.763-.85.763-.48 0-.86-.341-.86-.763 0-.421.38-.764.86-.764.47.002.85.343.85.764Zm2.68 0c0 .421-.38.763-.85.763-.48 0-.86-.341-.86-.763 0-.421.38-.764.86-.764.47.002.85.343.85.764Zm2.68 0c0 .421-.38.763-.86.763-.47 0-.86-.341-.86-.763 0-.421.39-.764.86-.764.47.002.86.343.86.764Zm2.67 0c0 .421-.38.763-.85.763-.48 0-.86-.341-.86-.763 0-.421.38-.764.86-.764.47.002.85.343.85.764Zm2.68 0c0 .421-.39.763-.86.763s-.86-.341-.86-.763c0-.421.38-.764.86-.764.47.002.86.343.86.764Zm2.68 0c0 .421-.39.763-.86.763s-.86-.341-.86-.763c0-.421.38-.764.86-.764.47.002.86.343.86.764Zm2.68 0c0 .421-.39.763-.86.763s-.86-.341-.86-.763c0-.421.38-.764.86-.764.47.002.86.343.86.764Zm2.67 0c0 .421-.38.763-.86.763-.47 0-.86-.341-.86-.763 0-.421.39-.764.86-.764.48.002.86.343.86.764Zm-48.17 2.384c0 .421-.39.764-.86.764s-.86-.341-.86-.764c0-.421.38-.764.86-.764.47 0 .86.341.86.764Zm5.36 0c0 .421-.39.764-.86.764s-.86-.341-.86-.764c0-.421.38-.764.86-.764.47 0 .86.341.86.764Zm-2.69 0c0 .421-.38.764-.86.764-.47 0-.85-.341-.85-.764 0-.421.38-.764.85-.764.48 0 .86.341.86.764Zm5.36 0c0 .421-.39.764-.86.764s-.86-.341-.86-.764c0-.421.38-.764.86-.764.47 0 .86.341.86.764Zm2.67 0c0 .421-.38.764-.85.764-.48 0-.86-.341-.86-.764 0-.421.38-.764.86-.764.47 0 .85.341.85.764Zm2.68 0c0 .421-.38.764-.86.764-.47 0-.86-.341-.86-.764 0-.421.39-.764.86-.764.48 0 .86.341.86.764Zm2.67 0c0 .421-.38.764-.85.764-.48 0-.86-.341-.86-.764 0-.421.38-.764.86-.764.47 0 .85.341.85.764Zm2.68 0c0 .421-.38.764-.86.764-.47 0-.85-.341-.85-.764 0-.421.38-.764.85-.764.48 0 .86.341.86.764Zm2.68 0c0 .421-.39.764-.86.764s-.86-.341-.86-.764c0-.421.38-.764.86-.764.47 0 .86.341.86.764Zm2.68 0c0 .421-.39.764-.86.764s-.86-.341-.86-.764c0-.421.38-.764.86-.764.47 0 .86.341.86.764Zm2.67 0c0 .421-.38.764-.86.764-.47 0-.86-.341-.86-.764 0-.421.39-.764.86-.764s.86.341.86.764Zm2.67 0c0 .421-.38.764-.85.764-.48 0-.86-.341-.86-.764 0-.421.38-.764.86-.764.47 0 .85.341.85.764Zm2.68 0c0 .421-.38.764-.85.764-.48 0-.86-.341-.86-.764 0-.421.38-.764.86-.764.47 0 .85.341.85.764Zm2.68 0c0 .421-.38.764-.86.764-.47 0-.86-.341-.86-.764 0-.421.39-.764.86-.764s.86.341.86.764Zm2.67 0c0 .421-.38.764-.85.764-.48 0-.86-.341-.86-.764 0-.421.38-.764.86-.764.47 0 .85.341.85.764Zm2.68 0c0 .421-.39.764-.86.764s-.86-.341-.86-.764c0-.421.38-.764.86-.764.47 0 .86.341.86.764Zm2.68 0c0 .421-.39.764-.86.764s-.86-.341-.86-.764c0-.421.38-.764.86-.764.47 0 .86.341.86.764Zm2.68 0c0 .421-.39.764-.86.764s-.86-.341-.86-.764c0-.421.38-.764.86-.764.47 0 .86.341.86.764Zm2.67 0c0 .421-.38.764-.86.764-.47 0-.86-.341-.86-.764 0-.421.39-.764.86-.764.48 0 .86.341.86.764Zm-50.85 2.383c0 .421-.38.763-.86.763-.47 0-.21-.34-.21-.763 0-.421-.26-.764.21-.764s.86.343.86.764Zm2.68 0c0 .421-.39.763-.86.763s-.86-.34-.86-.763c0-.421.38-.764.86-.764.47 0 .86.343.86.764Zm2.67 0c0 .421-.38.763-.86.763-.47 0-.85-.34-.85-.763 0-.421.38-.764.85-.764.48 0 .86.343.86.764Zm5.36 0c0 .421-.39.763-.86.763s-.86-.34-.86-.763c0-.421.38-.764.86-.764.47 0 .86.343.86.764Zm-2.67 0c0 .421-.39.763-.86.763s-.86-.34-.86-.763c0-.421.38-.764.86-.764.47 0 .86.343.86.764Zm8.02 0c0 .421-.38.763-.86.763-.47 0-.86-.34-.86-.763 0-.421.39-.764.86-.764.48 0 .86.343.86.764Zm5.35 0c0 .421-.38.763-.86.763-.47 0-.85-.34-.85-.763 0-.421.38-.764.85-.764.48 0 .86.343.86.764Zm2.68 0c0 .421-.39.763-.86.763s-.86-.34-.86-.763c0-.421.38-.764.86-.764.47 0 .86.343.86.764Zm2.68 0c0 .421-.39.763-.86.763s-.86-.34-.86-.763c0-.421.38-.764.86-.764.47 0 .86.343.86.764Zm-13.39 0c0 .421-.38.763-.85.763-.48 0-.86-.34-.86-.763 0-.421.38-.764.86-.764.47 0 .85.343.85.764Zm5.35 0c0 .421-.38.763-.85.763-.48 0-.86-.34-.86-.763 0-.421.38-.764.86-.764.47 0 .85.343.85.764Zm10.71 0c0 .421-.38.763-.86.763-.47 0-.86-.34-.86-.763 0-.421.39-.764.86-.764s.86.343.86.764Zm2.67 0c0 .421-.38.763-.85.763-.48 0-.86-.34-.86-.763 0-.421.38-.764.86-.764.47 0 .85.343.85.764Zm2.68 0c0 .421-.38.763-.85.763-.48 0-.86-.34-.86-.763 0-.421.38-.764.86-.764.47 0 .85.343.85.764Zm2.68 0c0 .421-.38.763-.86.763-.47 0-.86-.34-.86-.763 0-.421.39-.764.86-.764s.86.343.86.764Zm2.67 0c0 .421-.38.763-.85.763-.48 0-.86-.34-.86-.763 0-.421.38-.764.86-.764.47 0 .85.343.85.764Zm2.68 0c0 .421-.39.763-.86.763s-.86-.34-.86-.763c0-.421.38-.764.86-.764.47 0 .86.343.86.764Zm2.68 0c0 .421-.39.763-.86.763s-.86-.34-.86-.763c0-.421.38-.764.86-.764.47 0 .86.343.86.764Zm2.68 0c0 .421-.39.763-.86.763s-.86-.34-.86-.763c0-.421.38-.764.86-.764.47 0 .86.343.86.764Zm2.67 0c0 .421-.38.763-.86.763-.47 0-.86-.34-.86-.763 0-.421.39-.764.86-.764.48 0 .86.343.86.764Zm-48.17 2.382c0 .421-.39.764-.86.764s-.86-.341-.86-.764c0-.421.38-.764.86-.764.47.002.86.343.86.764Zm-2.68-4.765c0 .421-.38.764-.86.764-.47 0-.24-.341-.24-.764 0-.421-.23-.764.24-.764.48 0 .86.341.86.764Zm5.35 4.765c0 .421-.38.764-.86.764-.47 0-.85-.341-.85-.764 0-.421.38-.764.85-.764.48.002.86.343.86.764Zm2.69 0c0 .421-.39.764-.86.764s-.86-.341-.86-.764c0-.421.38-.764.86-.764.47.002.86.343.86.764Zm5.34 0c0 .421-.38.764-.85.764-.48 0-.86-.341-.86-.764 0-.421.38-.764.86-.764.47.002.85.343.85.764Zm2.68 0c0 .421-.38.764-.86.764-.47 0-.86-.341-.86-.764 0-.421.39-.764.86-.764.48.002.86.343.86.764Zm2.67 0c0 .421-.38.764-.85.764-.48 0-.86-.341-.86-.764 0-.421.38-.764.86-.764.47.002.85.343.85.764Zm2.68 0c0 .421-.38.764-.86.764-.47 0-.85-.341-.85-.764 0-.421.38-.764.85-.764.48.002.86.343.86.764Zm5.36 0c0 .421-.39.764-.86.764s-.86-.341-.86-.764c0-.421.38-.764.86-.764.47.002.86.343.86.764Zm5.34 0c0 .421-.38.764-.85.764-.48 0-.86-.341-.86-.764 0-.421.38-.764.86-.764.47.002.85.343.85.764Zm-8.02 0c0 .421-.39.764-.86.764s-.86-.341-.86-.764c0-.421.38-.764.86-.764.47.002.86.343.86.764Zm5.35 0c0 .421-.38.764-.86.764-.47 0-.86-.341-.86-.764 0-.421.39-.764.86-.764.47.002.86.343.86.764Zm5.35 0c0 .421-.38.764-.85.764-.48 0-.86-.341-.86-.764 0-.421.38-.764.86-.764.47.002.85.343.85.764Zm2.68 0c0 .421-.38.764-.86.764-.47 0-.86-.341-.86-.764 0-.421.39-.764.86-.764.47.002.86.343.86.764Zm2.67 0c0 .421-.38.764-.85.764-.48 0-.86-.341-.86-.764 0-.421.38-.764.86-.764.47.002.85.343.85.764Zm2.68 0c0 .421-.39.764-.86.764s-.86-.341-.86-.764c0-.421.38-.764.86-.764.47.002.86.343.86.764Zm2.68 0c0 .421-.39.764-.86.764s-.86-.341-.86-.764c0-.421.38-.764.86-.764.47.002.86.343.86.764Zm2.68 0c0 .421-.39.764-.86.764s-.86-.341-.86-.764c0-.421.38-.764.86-.764.47.002.86.343.86.764Zm2.67 0c0 .421-.38.764-.86.764-.47 0-.86-.341-.86-.764 0-.421.39-.764.86-.764.48.002.86.343.86.764Zm-48.17 2.385c0 .421-.39.763-.86.763s-.86-.341-.86-.763c0-.421.38-.764.86-.764.47 0 .86.341.86.764Zm2.67 0c0 .421-.38.763-.86.763-.47 0-.85-.341-.85-.763 0-.421.38-.764.85-.764.48 0 .86.341.86.764Zm2.69 0c0 .421-.39.763-.86.763s-.86-.341-.86-.763c0-.421.38-.764.86-.764.47 0 .86.341.86.764Zm2.67 0c0 .421-.39.763-.86.763s-.86-.341-.86-.763c0-.421.38-.764.86-.764.47 0 .86.341.86.764Zm2.67 0c0 .421-.38.763-.85.763-.48 0-.86-.341-.86-.763 0-.421.38-.764.86-.764.47 0 .85.341.85.764Zm2.68 0c0 .421-.38.763-.86.763-.47 0-.86-.341-.86-.763 0-.421.39-.764.86-.764.48 0 .86.341.86.764Zm2.67 0c0 .421-.38.763-.85.763-.48 0-.86-.341-.86-.763 0-.421.38-.764.86-.764.47 0 .85.341.85.764Zm2.68 0c0 .421-.38.763-.86.763-.47 0-.85-.341-.85-.763 0-.421.38-.764.85-.764.48 0 .86.341.86.764Zm2.68 0c0 .421-.39.763-.86.763s-.86-.341-.86-.763c0-.421.38-.764.86-.764.47 0 .86.341.86.764Zm2.68 0c0 .421-.39.763-.86.763s-.86-.341-.86-.763c0-.421.38-.764.86-.764.47 0 .86.341.86.764Zm2.67 0c0 .421-.38.763-.86.763-.47 0-.86-.341-.86-.763 0-.421.39-.764.86-.764s.86.341.86.764Zm2.67 0c0 .421-.38.763-.85.763-.48 0-.86-.341-.86-.763 0-.421.38-.764.86-.764.47 0 .85.341.85.764Zm2.68 0c0 .421-.38.763-.85.763-.48 0-.86-.341-.86-.763 0-.421.38-.764.86-.764.47 0 .85.341.85.764Zm2.68 0c0 .421-.38.763-.86.763-.47 0-.86-.341-.86-.763 0-.421.39-.764.86-.764s.86.341.86.764Zm2.67 0c0 .421-.38.763-.85.763-.48 0-.86-.341-.86-.763 0-.421.38-.764.86-.764.47 0 .85.341.85.764Zm2.68 0c0 .421-.39.763-.86.763s-.86-.341-.86-.763c0-.421.38-.764.86-.764.47 0 .86.341.86.764Zm2.68 0c0 .421-.39.763-.86.763s-.86-.341-.86-.763c0-.421.38-.764.86-.764.47 0 .86.341.86.764Zm2.68 0c0 .421-.39.763-.86.763s-.86-.341-.86-.763c0-.421.38-.764.86-.764.47 0 .86.341.86.764Zm2.67 0c0 .421-.38.763-.86.763-.47 0-.86-.341-.86-.763 0-.421.39-.764.86-.764.48 0 .86.341.86.764Zm-45.5 2.382c0 .421-.38.764-.86.764-.47 0-.85-.341-.85-.764 0-.421.38-.764.85-.764.48 0 .86.343.86.764Zm2.69 0c0 .421-.39.764-.86.764s-.86-.341-.86-.764c0-.421.38-.764.86-.764.47 0 .86.343.86.764Zm2.67 0c0 .421-.39.764-.86.764s-.86-.341-.86-.764c0-.421.38-.764.86-.764.47 0 .86.343.86.764Zm2.67 0c0 .421-.38.764-.85.764-.48 0-.86-.341-.86-.764 0-.421.38-.764.86-.764.47 0 .85.343.85.764Zm5.35 0c0 .421-.38.764-.85.764-.48 0-.86-.341-.86-.764 0-.421.38-.764.86-.764.47 0 .85.343.85.764Zm5.36 0c0 .421-.39.764-.86.764s-.86-.341-.86-.764c0-.421.38-.764.86-.764.47 0 .86.343.86.764Zm-8.03 0c0 .421-.38.764-.86.764-.47 0-.86-.341-.86-.764 0-.421.39-.764.86-.764.48 0 .86.343.86.764Zm5.35 0c0 .421-.38.764-.86.764-.47 0-.85-.341-.85-.764 0-.421.38-.764.85-.764.48 0 .86.343.86.764Zm5.36 0c0 .421-.39.764-.86.764s-.86-.341-.86-.764c0-.421.38-.764.86-.764.47 0 .86.343.86.764Zm2.67 0c0 .421-.38.764-.86.764-.47 0-.86-.341-.86-.764 0-.421.39-.764.86-.764s.86.343.86.764Zm2.67 0c0 .421-.38.764-.85.764-.48 0-.86-.341-.86-.764 0-.421.38-.764.86-.764.47 0 .85.343.85.764Zm2.68 0c0 .421-.38.764-.85.764-.48 0-.86-.341-.86-.764 0-.421.38-.764.86-.764.47 0 .85.343.85.764Zm2.68 0c0 .421-.38.764-.86.764-.47 0-.86-.341-.86-.764 0-.421.39-.764.86-.764s.86.343.86.764Zm2.67 0c0 .421-.38.764-.85.764-.48 0-.86-.341-.86-.764 0-.421.38-.764.86-.764.47 0 .85.343.85.764Zm2.68 0c0 .421-.39.764-.86.764s-.86-.341-.86-.764c0-.421.38-.764.86-.764.47 0 .86.343.86.764Zm2.68 0c0 .421-.39.764-.86.764s-.86-.341-.86-.764c0-.421.38-.764.86-.764.47 0 .86.343.86.764Zm2.68 0c0 .421-.39.764-.86.764s-.86-.341-.86-.764c0-.421.38-.764.86-.764.47 0 .86.343.86.764Zm2.67 0c0 .421-.38.764-.86.764-.47 0-.86-.341-.86-.764 0-.421.39-.764.86-.764.48 0 .86.343.86.764Zm-45.5 2.383c0 .421-.38.764-.86.764-.47 0-.85-.341-.85-.764 0-.421.38-.764.85-.764.48 0 .86.343.86.764Zm-2.67-2.383c0 .421-.39.764-.86.764s-.86-.341-.86-.764c0-.421.38-.764.86-.764.47 0 .86.343.86.764Zm0 2.383c0 .421-.39.764-.86.764s-.86-.341-.86-.764c0-.421.38-.764.86-.764.47 0 .86.343.86.764Zm5.36 0c0 .421-.39.764-.86.764s-.86-.341-.86-.764c0-.421.38-.764.86-.764.47 0 .86.343.86.764Zm5.34 0c0 .421-.38.764-.85.764-.48 0-.86-.341-.86-.764 0-.421.38-.764.86-.764.47 0 .85.343.85.764Zm-2.67-7.15c0 .421-.39.764-.86.764s-.86-.341-.86-.764c0-.421.38-.764.86-.764.47.002.86.343.86.764Zm0 7.15c0 .421-.39.764-.86.764s-.86-.341-.86-.764c0-.421.38-.764.86-.764.47 0 .86.343.86.764Zm5.35 0c0 .421-.38.764-.86.764-.47 0-.86-.341-.86-.764 0-.421.39-.764.86-.764.48 0 .86.343.86.764Zm2.67 0c0 .421-.38.764-.85.764-.48 0-.86-.341-.86-.764 0-.421.38-.764.86-.764.47 0 .85.343.85.764Zm2.68 0c0 .421-.38.764-.86.764-.47 0-.85-.341-.85-.764 0-.421.38-.764.85-.764.48 0 .86.343.86.764Zm2.68 0c0 .421-.39.764-.86.764s-.86-.341-.86-.764c0-.421.38-.764.86-.764.47 0 .86.343.86.764Zm5.35 0c0 .421-.38.764-.86.764-.47 0-.86-.341-.86-.764 0-.421.39-.764.86-.764s.86.343.86.764Zm-2.67 0c0 .421-.39.764-.86.764s-.86-.341-.86-.764c0-.421.38-.764.86-.764.47 0 .86.343.86.764Zm5.34 0c0 .421-.38.764-.85.764-.48 0-.86-.341-.86-.764 0-.421.38-.764.86-.764.47 0 .85.343.85.764Zm2.68 0c0 .421-.38.764-.85.764-.48 0-.86-.341-.86-.764 0-.421.38-.764.86-.764.47 0 .85.343.85.764Zm2.68 0c0 .421-.38.764-.86.764-.47 0-.86-.341-.86-.764 0-.421.39-.764.86-.764s.86.343.86.764Zm2.67 0c0 .421-.38.764-.85.764-.48 0-.86-.341-.86-.764 0-.421.38-.764.86-.764.47 0 .85.343.85.764Zm2.68 0c0 .421-.39.764-.86.764s-.86-.341-.86-.764c0-.421.38-.764.86-.764.47 0 .86.343.86.764Zm2.68 0c0 .421-.39.764-.86.764s-.86-.341-.86-.764c0-.421.38-.764.86-.764.47 0 .86.343.86.764Zm2.68 0c0 .421-.39.764-.86.764s-.86-.341-.86-.764c0-.421.38-.764.86-.764.47 0 .86.343.86.764Zm2.67 0c0 .421-.38.764-.86.764-.47 0-.86-.341-.86-.764 0-.421.39-.764.86-.764.48 0 .86.343.86.764Zm-48.17 2.382c0 .421-.39.764-.86.764s-.86-.341-.86-.764c0-.421.38-.764.86-.764.47.002.86.343.86.764Zm2.67 0c0 .421-.38.764-.86.764-.47 0-.85-.341-.85-.764 0-.421.38-.764.85-.764.48.002.86.343.86.764Zm2.69 0c0 .421-.39.764-.86.764s-.86-.341-.86-.764c0-.421.38-.764.86-.764.47.002.86.343.86.764Zm2.67 0c0 .421-.39.764-.86.764s-.86-.341-.86-.764c0-.421.38-.764.86-.764.47.002.86.343.86.764Zm8.02 0c0 .421-.38.764-.85.764-.48 0-.86-.341-.86-.764 0-.421.38-.764.86-.764.47.002.85.343.85.764Zm5.36 0c0 .421-.39.764-.86.764s-.86-.341-.86-.764c0-.421.38-.764.86-.764.47.002.86.343.86.764Zm2.68 0c0 .421-.39.764-.86.764s-.86-.341-.86-.764c0-.421.38-.764.86-.764.47.002.86.343.86.764Zm2.67 0c0 .421-.38.764-.86.764-.47 0-.86-.341-.86-.764 0-.421.39-.764.86-.764.47.002.86.343.86.764Zm2.67 0c0 .421-.38.764-.85.764-.48 0-.86-.341-.86-.764 0-.421.38-.764.86-.764.47.002.85.343.85.764Zm2.68 0c0 .421-.38.764-.85.764-.48 0-.86-.341-.86-.764 0-.421.38-.764.86-.764.47.002.85.343.85.764Zm2.68 0c0 .421-.38.764-.86.764-.47 0-.86-.341-.86-.764 0-.421.39-.764.86-.764.47.002.86.343.86.764Zm2.67 0c0 .421-.38.764-.85.764-.48 0-.86-.341-.86-.764 0-.421.38-.764.86-.764.47.002.85.343.85.764Zm2.68 0c0 .421-.39.764-.86.764s-.86-.341-.86-.764c0-.421.38-.764.86-.764.47.002.86.343.86.764Zm2.68 0c0 .421-.39.764-.86.764s-.86-.341-.86-.764c0-.421.38-.764.86-.764.47.002.86.343.86.764Zm2.68 0c0 .421-.39.764-.86.764s-.86-.341-.86-.764c0-.421.38-.764.86-.764.47.002.86.343.86.764Zm2.67 0c0 .421-.38.764-.86.764-.47 0-.86-.341-.86-.764 0-.421.39-.764.86-.764.48.002.86.343.86.764Zm-48.17 2.385c0 .421-.39.764-.86.764s-.86-.341-.86-.764c0-.421.38-.764.86-.764.47 0 .86.341.86.764Zm5.36 0c0 .421-.39.764-.86.764s-.86-.341-.86-.764c0-.421.38-.764.86-.764.47 0 .86.341.86.764Zm-2.69 0c0 .421-.38.764-.86.764-.47 0-.85-.341-.85-.764 0-.421.38-.764.85-.764.48 0 .86.341.86.764Zm5.36 0c0 .421-.39.764-.86.764s-.86-.341-.86-.764c0-.421.38-.764.86-.764.47 0 .86.341.86.764Zm2.67 0c0 .421-.38.764-.85.764-.48 0-.86-.341-.86-.764 0-.421.38-.764.86-.764.47 0 .85.341.85.764Zm5.35 0c0 .421-.38.764-.85.764-.48 0-.86-.341-.86-.764 0-.421.38-.764.86-.764.47 0 .85.341.85.764Zm2.68 0c0 .421-.38.764-.86.764-.47 0-.85-.341-.85-.764 0-.421.38-.764.85-.764.48 0 .86.341.86.764Zm2.68 0c0 .421-.39.764-.86.764s-.86-.341-.86-.764c0-.421.38-.764.86-.764.47 0 .86.341.86.764Zm2.68 0c0 .421-.39.764-.86.764s-.86-.341-.86-.764c0-.421.38-.764.86-.764.47 0 .86.341.86.764Zm2.67 0c0 .421-.38.764-.86.764-.47 0-.86-.341-.86-.764 0-.421.39-.764.86-.764s.86.341.86.764Zm2.67 0c0 .421-.38.764-.85.764-.48 0-.86-.341-.86-.764 0-.421.38-.764.86-.764.47 0 .85.341.85.764Zm2.68 0c0 .421-.38.764-.85.764-.48 0-.86-.341-.86-.764 0-.421.38-.764.86-.764.47 0 .85.341.85.764Zm2.68 0c0 .421-.38.764-.86.764-.47 0-.86-.341-.86-.764 0-.421.39-.764.86-.764s.86.341.86.764Zm2.67 0c0 .421-.38.764-.85.764-.48 0-.86-.341-.86-.764 0-.421.38-.764.86-.764.47 0 .85.341.85.764Zm2.68 0c0 .421-.39.764-.86.764s-.86-.341-.86-.764c0-.421.38-.764.86-.764.47 0 .86.341.86.764Zm2.68 0c0 .421-.39.764-.86.764s-.86-.341-.86-.764c0-.421.38-.764.86-.764.47 0 .86.341.86.764Zm2.68 0c0 .421-.39.764-.86.764s-.86-.341-.86-.764c0-.421.38-.764.86-.764.47 0 .86.341.86.764Zm2.67 0c0 .421-.38.764-.86.764-.47 0-.86-.341-.86-.764 0-.421.39-.764.86-.764.48 0 .86.341.86.764Zm-48.17 2.382c0 .421-.39.764-.86.764s-.86-.341-.86-.764c0-.421.38-.763.86-.763.47 0 .86.342.86.763Zm2.67 0c0 .421-.38.764-.86.764-.47 0-.85-.341-.85-.764 0-.421.38-.763.85-.763.48 0 .86.342.86.763Zm2.69 0c0 .421-.39.764-.86.764s-.86-.341-.86-.764c0-.421.38-.763.86-.763.47 0 .86.342.86.763Zm2.67 0c0 .421-.39.764-.86.764s-.86-.341-.86-.764c0-.421.38-.763.86-.763.47 0 .86.342.86.763Zm2.67 0c0 .421-.38.764-.85.764-.48 0-.86-.341-.86-.764 0-.421.38-.763.86-.763.47 0 .85.342.85.763Zm5.35 0c0 .421-.38.764-.85.764-.48 0-.86-.341-.86-.764 0-.421.38-.763.86-.763.47 0 .85.342.85.763Zm-2.67-4.767c0 .421-.38.764-.86.764-.47 0-.86-.341-.86-.764 0-.421.39-.764.86-.764.48.002.86.343.86.764Zm-2.68 0c0 .421-.38.764-.85.764-.48 0-.86-.341-.86-.764 0-.421.38-.764.86-.764.47.002.85.343.85.764Zm2.68 2.385c0 .421-.38.764-.86.764-.47 0-.86-.341-.86-.764 0-.421.39-.764.86-.764.48 0 .86.341.86.764Zm0 2.382c0 .421-.38.764-.86.764-.47 0-.86-.341-.86-.764 0-.421.39-.763.86-.763.48 0 .86.342.86.763Zm8.03 0c0 .421-.39.764-.86.764s-.86-.341-.86-.764c0-.421.38-.763.86-.763.47 0 .86.342.86.763Zm-2.68-4.767c0 .421-.38.764-.86.764-.47 0-.85-.341-.85-.764 0-.421.38-.764.85-.764.48.002.86.343.86.764Zm0 4.767c0 .421-.38.764-.86.764-.47 0-.85-.341-.85-.764 0-.421.38-.763.85-.763.48 0 .86.342.86.763Zm5.36 0c0 .421-.39.764-.86.764s-.86-.341-.86-.764c0-.421.38-.763.86-.763.47 0 .86.342.86.763Zm2.67 0c0 .421-.38.764-.86.764-.47 0-.86-.341-.86-.764 0-.421.39-.763.86-.763s.86.342.86.763Zm2.67 0c0 .421-.38.764-.85.764-.48 0-.86-.341-.86-.764 0-.421.38-.763.86-.763.47 0 .85.342.85.763Zm2.68 0c0 .421-.38.764-.85.764-.48 0-.86-.341-.86-.764 0-.421.38-.763.86-.763.47 0 .85.342.85.763Zm2.68 0c0 .421-.38.764-.86.764-.47 0-.86-.341-.86-.764 0-.421.39-.763.86-.763s.86.342.86.763Zm2.67 0c0 .421-.38.764-.85.764-.48 0-.86-.341-.86-.764 0-.421.38-.763.86-.763.47 0 .85.342.85.763Zm2.68 0c0 .421-.39.764-.86.764s-.86-.341-.86-.764c0-.421.38-.763.86-.763.47 0 .86.342.86.763Zm2.68 0c0 .421-.39.764-.86.764s-.86-.341-.86-.764c0-.421.38-.763.86-.763.47 0 .86.342.86.763Zm2.68 0c0 .421-.39.764-.86.764s-.86-.341-.86-.764c0-.421.38-.763.86-.763.47 0 .86.342.86.763Zm2.67 0c0 .421-.38.764-.86.764-.47 0-.86-.341-.86-.764 0-.421.39-.763.86-.763.48 0 .86.342.86.763Zm-48.18 2.383c0 .421-.38.764-.85.764-.48 0-.6-.44-.78-.745 0-.421.3-.783.78-.783.47.002.85.343.85.764Zm2.68 0c0 .421-.38.764-.86.764-.47 0-.85-.341-.85-.764 0-.421.38-.764.85-.764.48.002.86.343.86.764Zm2.69 0c0 .421-.39.764-.86.764s-.86-.341-.86-.764c0-.421.38-.764.86-.764.47.002.86.343.86.764Zm2.67 0c0 .421-.39.764-.86.764s-.86-.341-.86-.764c0-.421.38-.764.86-.764.47.002.86.343.86.764Zm5.35 0c0 .421-.38.764-.86.764-.47 0-.86-.341-.86-.764 0-.421.39-.764.86-.764.48.002.86.343.86.764Zm-2.68 0c0 .421-.38.764-.85.764-.48 0-.86-.341-.86-.764 0-.421.38-.764.86-.764.47.002.85.343.85.764Zm5.35 0c0 .421-.38.764-.85.764-.48 0-.86-.341-.86-.764 0-.421.38-.764.86-.764.47.002.85.343.85.764Zm5.36 0c0 .421-.39.764-.86.764s-.86-.341-.86-.764c0-.421.38-.764.86-.764.47.002.86.343.86.764Zm-2.68 0c0 .421-.38.764-.86.764-.47 0-.85-.341-.85-.764 0-.421.38-.764.85-.764.48.002.86.343.86.764Zm8.03 0c0 .421-.38.764-.86.764-.47 0-.86-.341-.86-.764 0-.421.39-.764.86-.764.47.002.86.343.86.764Zm-2.67 0c0 .421-.39.764-.86.764s-.86-.341-.86-.764c0-.421.38-.764.86-.764.47.002.86.343.86.764Zm5.34 0c0 .421-.38.764-.85.764-.48 0-.86-.341-.86-.764 0-.421.38-.764.86-.764.47.002.85.343.85.764Zm2.68 0c0 .421-.38.764-.85.764-.48 0-.86-.341-.86-.764 0-.421.38-.764.86-.764.47.002.85.343.85.764Zm2.68 0c0 .421-.38.764-.86.764-.47 0-.86-.341-.86-.764 0-.421.39-.764.86-.764.47.002.86.343.86.764Zm2.67 0c0 .421-.38.764-.85.764-.48 0-.86-.341-.86-.764 0-.421.38-.764.86-.764.47.002.85.343.85.764Zm2.68 0c0 .421-.39.764-.86.764s-.86-.341-.86-.764c0-.421.38-.764.86-.764.47.002.86.343.86.764Zm2.68 0c0 .421-.39.764-.86.764s-.86-.341-.86-.764c0-.421.38-.764.86-.764.47.002.86.343.86.764Zm2.68 0c0 .421-.39.764-.86.764s-.86-.341-.86-.764c0-.421.38-.764.86-.764.47.002.86.343.86.764Zm2.67 0c0 .421-.38.764-.86.764-.47 0-.86-.341-.86-.764 0-.421.39-.764.86-.764.48.002.86.343.86.764Zm-45.5 2.384c0 .421-.38.764-.86.764-.47 0-.85-.341-.85-.764 0-.421.38-.763.85-.763.48 0 .86.34.86.763Zm-2.68 0c0 .421-.38.764-.86.764-.47 0-.03-.516-.03-.939 0-.421-.44-.588.03-.588.48 0 .86.34.86.763Zm10.71 0c0 .421-.38.764-.85.764-.48 0-.86-.341-.86-.764 0-.421.38-.763.86-.763.47 0 .85.34.85.763Zm2.68 0c0 .421-.38.764-.86.764-.47 0-.86-.341-.86-.764 0-.421.39-.763.86-.763.48 0 .86.34.86.763Zm2.67 0c0 .421-.38.764-.85.764-.48 0-.86-.341-.86-.764 0-.421.38-.763.86-.763.47 0 .85.34.85.763Zm2.68 0c0 .421-.38.764-.86.764-.47 0-.85-.341-.85-.764 0-.421.38-.763.85-.763.48 0 .86.34.86.763Zm2.68 0c0 .421-.39.764-.86.764s-.86-.341-.86-.764c0-.421.38-.763.86-.763.47 0 .86.34.86.763Zm2.68 0c0 .421-.39.764-.86.764s-.86-.341-.86-.764c0-.421.38-.763.86-.763.47 0 .86.34.86.763Zm2.67 0c0 .421-.38.764-.86.764-.47 0-.86-.341-.86-.764 0-.421.39-.763.86-.763s.86.34.86.763Zm5.35 0c0 .421-.38.764-.85.764-.48 0-.86-.341-.86-.764 0-.421.38-.763.86-.763.47 0 .85.34.85.763Zm-2.68 0c0 .421-.38.764-.85.764-.48 0-.86-.341-.86-.764 0-.421.38-.763.86-.763.47 0 .85.34.85.763Zm5.36 0c0 .421-.38.764-.86.764-.47 0-.86-.341-.86-.764 0-.421.39-.763.86-.763s.86.34.86.763Zm2.67 0c0 .421-.38.764-.85.764-.48 0-.86-.341-.86-.764 0-.421.38-.763.86-.763.47 0 .85.34.85.763Zm2.68 0c0 .421-.39.764-.86.764s-.86-.341-.86-.764c0-.421.38-.763.86-.763.47 0 .86.34.86.763Zm2.68 0c0 .421-.39.764-.86.764s-.86-.341-.86-.764c0-.421.38-.763.86-.763.47 0 .86.34.86.763Zm2.68 0c0 .421-.39.764-.86.764s-.86-.341-.86-.764c0-.421.38-.763.86-.763.47 0 .86.34.86.763Zm2.67 0c0 .421-.38.764-.86.764-.47 0-.86-.341-.86-.764 0-.421.39-.763.86-.763.48 0 .86.34.86.763Zm-37.47 2.383c0 .421-.38.764-.85.764-.48 0-.86-.341-.86-.764 0-.421.38-.764.86-.764.47 0 .85.343.85.764Zm-2.67-2.383c0 .421-.39.764-.86.764s-.86-.341-.86-.764c0-.421.38-.763.86-.763.47 0 .86.34.86.763Zm0 2.383c0 .421-.39.764-.86.764s-.86-.341-.86-.764c0-.421.38-.764.86-.764.47 0 .86.343.86.764Zm-2.67-2.383c0 .421-.39.764-.86.764s-.86-.341-.86-.764c0-.421.38-.763.86-.763.47 0 .86.34.86.763Zm0 2.383c0 .421-.39.764-.86.764s-.86-.341-.86-.764c0-.421.38-.764.86-.764.47 0 .86.343.86.764Zm10.69 0c0 .421-.38.764-.85.764-.48 0-.86-.341-.86-.764 0-.421.38-.764.86-.764.47 0 .85.343.85.764Zm5.36 0c0 .421-.39.764-.86.764s-.86-.341-.86-.764c0-.421.38-.764.86-.764.47 0 .86.343.86.764Zm-2.68 0c0 .421-.38.764-.86.764-.47 0-.85-.341-.85-.764 0-.421.38-.764.85-.764.48 0 .86.343.86.764Zm5.36 0c0 .421-.39.764-.86.764s-.86-.341-.86-.764c0-.421.38-.764.86-.764.47 0 .86.343.86.764Zm2.67 0c0 .421-.38.764-.86.764-.47 0-.86-.341-.86-.764 0-.421.39-.764.86-.764s.86.343.86.764Zm2.67 0c0 .421-.38.764-.85.764-.48 0-.86-.341-.86-.764 0-.421.38-.764.86-.764.47 0 .85.343.85.764Zm2.68 0c0 .421-.38.764-.85.764-.48 0-.86-.341-.86-.764 0-.421.38-.764.86-.764.47 0 .85.343.85.764Zm2.68 0c0 .421-.38.764-.86.764-.47 0-.86-.341-.86-.764 0-.421.39-.764.86-.764s.86.343.86.764Zm2.67 0c0 .421-.38.764-.85.764-.48 0-.86-.341-.86-.764 0-.421.38-.764.86-.764.47 0 .85.343.85.764Zm2.68 0c0 .421-.39.764-.86.764s-.86-.341-.86-.764c0-.421.38-.764.86-.764.47 0 .86.343.86.764Zm2.68 0c0 .421-.39.764-.86.764s-.86-.341-.86-.764c0-.421.38-.764.86-.764.47 0 .86.343.86.764Zm2.68 0c0 .421-.39.764-.86.764s-.86-.341-.86-.764c0-.421.38-.764.86-.764.47 0 .86.343.86.764Zm2.67 0c0 .421-.38.764-.86.764-.47 0-.86-.341-.86-.764 0-.421.39-.764.86-.764.48 0 .86.343.86.764Zm-42.81 2.383c0 .421-.39.763-.86.763s-.86-.34-.86-.763c0-.421.38-.764.86-.764.47 0 .86.343.86.764Zm-2.69-2.383c0 .421-.38.764-.86.764-.47 0-.85-.341-.85-.764 0-.421.38-.764.85-.764.48 0 .86.343.86.764Zm0 2.383c0 .421-.38.763-.86.763-.47 0-.85-.34-.85-.763 0-.421.38-.764.85-.764.48 0 .86.343.86.764Zm5.36 0c0 .421-.39.763-.86.763s-.86-.34-.86-.763c0-.421.38-.764.86-.764.47 0 .86.343.86.764Zm2.67 0c0 .421-.38.763-.85.763-.48 0-.86-.34-.86-.763 0-.421.38-.764.86-.764.47 0 .85.343.85.764Zm5.35 0c0 .421-.38.763-.85.763-.48 0-.86-.34-.86-.763 0-.421.38-.764.86-.764.47 0 .85.343.85.764Zm-2.67-2.383c0 .421-.38.764-.86.764-.47 0-.86-.341-.86-.764 0-.421.39-.764.86-.764.48 0 .86.343.86.764Zm0 2.383c0 .421-.38.763-.86.763-.47 0-.86-.34-.86-.763 0-.421.39-.764.86-.764.48 0 .86.343.86.764Zm5.35 0c0 .421-.38.763-.86.763-.47 0-.85-.34-.85-.763 0-.421.38-.764.85-.764.48 0 .86.343.86.764Zm5.36 0c0 .421-.39.763-.86.763s-.86-.34-.86-.763c0-.421.38-.764.86-.764.47 0 .86.343.86.764Zm-2.68 0c0 .421-.39.763-.86.763s-.86-.34-.86-.763c0-.421.38-.764.86-.764.47 0 .86.343.86.764Zm5.35 0c0 .421-.38.763-.86.763-.47 0-.86-.34-.86-.763 0-.421.39-.764.86-.764s.86.343.86.764Zm2.67 0c0 .421-.38.763-.85.763-.48 0-.86-.34-.86-.763 0-.421.38-.764.86-.764.47 0 .85.343.85.764Zm2.68 0c0 .421-.38.763-.85.763-.48 0-.86-.34-.86-.763 0-.421.38-.764.86-.764.47 0 .85.343.85.764Zm2.68 0c0 .421-.38.763-.86.763-.47 0-.86-.34-.86-.763 0-.421.39-.764.86-.764s.86.343.86.764Zm2.67 0c0 .421-.38.763-.85.763-.48 0-.86-.34-.86-.763 0-.421.38-.764.86-.764.47 0 .85.343.85.764Zm2.68 0c0 .421-.39.763-.86.763s-.86-.34-.86-.763c0-.421.38-.764.86-.764.47 0 .86.343.86.764Zm2.68 0c0 .421-.39.763-.86.763s-.86-.34-.86-.763c0-.421.38-.764.86-.764.47 0 .86.343.86.764Zm2.68 0c0 .421-.39.763-.86.763s-.86-.34-.86-.763c0-.421.38-.764.86-.764.47 0 .86.343.86.764Zm2.67 0c0 .421-.38.763-.86.763-.47 0-.86-.34-.86-.763 0-.421.39-.764.86-.764.48 0 .86.343.86.764Zm-45.5 2.382c0 .421-.38.764-.86.764-.47 0-.85-.341-.85-.764 0-.421.38-.763.85-.763.48.002.86.342.86.763Zm2.69 0c0 .421-.39.764-.86.764s-.86-.341-.86-.764c0-.421.38-.763.86-.763.47.002.86.342.86.763Zm2.67 0c0 .421-.39.764-.86.764s-.86-.341-.86-.764c0-.421.38-.763.86-.763.47.002.86.342.86.763Zm2.67 0c0 .421-.38.764-.85.764-.48 0-.86-.341-.86-.764 0-.421.38-.763.86-.763.47.002.85.342.85.763Zm2.68 0c0 .421-.38.764-.86.764-.47 0-.86-.341-.86-.764 0-.421.39-.763.86-.763.48.002.86.342.86.763Zm5.35 0c0 .421-.38.764-.86.764-.47 0-.85-.341-.85-.764 0-.421.38-.763.85-.763.48.002.86.342.86.763Zm2.68 0c0 .421-.39.764-.86.764s-.86-.341-.86-.764c0-.421.38-.763.86-.763.47.002.86.342.86.763Zm2.68 0c0 .421-.39.764-.86.764s-.86-.341-.86-.764c0-.421.38-.763.86-.763.47.002.86.342.86.763Zm2.67 0c0 .421-.38.764-.86.764-.47 0-.86-.341-.86-.764 0-.421.39-.763.86-.763.47.002.86.342.86.763Zm2.67 0c0 .421-.38.764-.85.764-.48 0-.86-.341-.86-.764 0-.421.38-.763.86-.763.47.002.85.342.85.763Zm2.68 0c0 .421-.38.764-.85.764-.48 0-.86-.341-.86-.764 0-.421.38-.763.86-.763.47.002.85.342.85.763Zm2.68 0c0 .421-.38.764-.86.764-.47 0-.86-.341-.86-.764 0-.421.39-.763.86-.763.47.002.86.342.86.763Zm2.67 0c0 .421-.38.764-.85.764-.48 0-.86-.341-.86-.764 0-.421.38-.763.86-.763.47.002.85.342.85.763Zm2.68 0c0 .421-.39.764-.86.764s-.86-.341-.86-.764c0-.421.38-.763.86-.763.47.002.86.342.86.763Zm2.68 0c0 .421-.39.764-.86.764s-.86-.341-.86-.764c0-.421.38-.763.86-.763.47.002.86.342.86.763Zm2.68 0c0 .421-.39.764-.86.764s-.86-.341-.86-.764c0-.421.38-.763.86-.763.47.002.86.342.86.763Zm2.67 0c0 .421-.38.764-.86.764-.47 0-.86-.341-.86-.764 0-.421.39-.763.86-.763.48.002.86.342.86.763Zm-45.5 2.385c0 .421-.38.763-.86.763-.47 0-.46-.43-.46-.853 0-.421-.01-.674.46-.674.48 0 .86.341.86.764Zm5.36 0c0 .421-.39.763-.86.763s-.86-.341-.86-.763c0-.421.38-.764.86-.764.47 0 .86.341.86.764Zm-2.67 0c0 .421-.39.763-.86.763s-.86-.341-.86-.763c0-.421.38-.764.86-.764.47 0 .86.341.86.764Zm5.34 0c0 .421-.38.763-.85.763-.48 0-.86-.341-.86-.763 0-.421.38-.764.86-.764.47 0 .85.341.85.764Zm2.68 0c0 .421-.38.763-.86.763-.47 0-.86-.341-.86-.763 0-.421.39-.764.86-.764.48 0 .86.341.86.764Zm2.67 0c0 .421-.38.763-.85.763-.48 0-.86-.341-.86-.763 0-.421.38-.764.86-.764.47 0 .85.341.85.764Zm2.68 0c0 .421-.38.763-.86.763-.47 0-.85-.341-.85-.763 0-.421.38-.764.85-.764.48 0 .86.341.86.764Zm2.68 0c0 .421-.39.763-.86.763s-.86-.341-.86-.763c0-.421.38-.764.86-.764.47 0 .86.341.86.764Zm5.35 0c0 .421-.38.763-.86.763-.47 0-.86-.341-.86-.763 0-.421.39-.764.86-.764s.86.341.86.764Zm-2.67 0c0 .421-.39.763-.86.763s-.86-.341-.86-.763c0-.421.38-.764.86-.764.47 0 .86.341.86.764Zm5.34 0c0 .421-.38.763-.85.763-.48 0-.86-.341-.86-.763 0-.421.38-.764.86-.764.47 0 .85.341.85.764Zm2.68 0c0 .421-.38.763-.85.763-.48 0-.86-.341-.86-.763 0-.421.38-.764.86-.764.47 0 .85.341.85.764Zm2.68 0c0 .421-.38.763-.86.763-.47 0-.86-.341-.86-.763 0-.421.39-.764.86-.764s.86.341.86.764Zm2.67 0c0 .421-.38.763-.85.763-.48 0-.86-.341-.86-.763 0-.421.38-.764.86-.764.47 0 .85.341.85.764Zm2.68 0c0 .421-.39.763-.86.763s-.86-.341-.86-.763c0-.421.38-.764.86-.764.47 0 .86.341.86.764Zm2.68 0c0 .421-.39.763-.86.763s-.86-.341-.86-.763c0-.421.38-.764.86-.764.47 0 .86.341.86.764Zm2.68 0c0 .421-.39.763-.86.763s-.86-.341-.86-.763c0-.421.38-.764.86-.764.47 0 .86.341.86.764Zm2.67 0c0 .421-.38.763-.86.763-.47 0-.86-.341-.86-.763 0-.421.39-.764.86-.764.48 0 .86.341.86.764Zm-32.12-2.385c0 .421-.38.764-.85.764-.48 0-.86-.341-.86-.764 0-.421.38-.763.86-.763.47.002.85.342.85.763Z" fill="#3136BD"/><path d="M1376.99 260.451c0 .421-.38.763-.86.763-.47 0-.85-.341-.85-.763 0-.421.38-.764.85-.764.48 0 .86.343.86.764Zm5.36 0c0 .421-.39.763-.86.763s-.86-.341-.86-.763c0-.421.38-.764.86-.764.47 0 .86.343.86.764Zm-2.68 0c0 .421-.39.763-.86.763s-.86-.341-.86-.763c0-.421.38-.764.86-.764.47 0 .86.343.86.764Zm5.35 0c0 .421-.38.763-.86.763-.47 0-.85-.341-.85-.763 0-.421.38-.764.85-.764.48 0 .86.343.86.764Zm5.35 0c0 .421-.38.763-.86.763-.47 0-.86-.341-.86-.763 0-.421.39-.764.86-.764.48 0 .86.343.86.764Zm-2.68 0c0 .421-.38.763-.85.763-.48 0-.86-.341-.86-.763 0-.421.38-.764.86-.764.47 0 .85.343.85.764Zm5.36 0c0 .421-.38.763-.86.763-.47 0-.86-.341-.86-.763 0-.421.39-.764.86-.764.48 0 .86.343.86.764Zm2.67 0c0 .421-.38.763-.85.763-.48 0-.86-.341-.86-.763 0-.421.38-.764.86-.764.47 0 .85.343.85.764Zm2.68 0c0 .421-.39.763-.86.763s-.86-.341-.86-.763c0-.421.38-.764.86-.764.47 0 .86.343.86.764Zm2.67 0c0 .421-.38.763-.85.763-.48 0-.86-.341-.86-.763 0-.421.38-.764.86-.764.47 0 .85.343.85.764Zm5.36 0c0 .421-.38.763-.86.763-.47 0-.86-.341-.86-.763 0-.421.39-.764.86-.764s.86.343.86.764Zm-2.68 0c0 .421-.38.763-.86.763-.47 0-.86-.341-.86-.763 0-.421.39-.764.86-.764.48 0 .86.343.86.764Zm5.35 0c0 .421-.38.763-.85.763-.48 0-.86-.341-.86-.763 0-.421.38-.764.86-.764.47 0 .85.343.85.764Zm2.68 0c0 .421-.38.763-.85.763-.48 0-.86-.341-.86-.763 0-.421.38-.764.86-.764.47 0 .85.343.85.764Zm2.68 0c0 .421-.39.763-.86.763s-.86-.341-.86-.763c0-.421.38-.764.86-.764.47 0 .86.343.86.764Zm2.67 0c0 .421-.38.763-.86.763-.47 0-.85-.341-.85-.763 0-.421.38-.764.85-.764.48 0 .86.343.86.764Zm2.68 0c0 .421-.39.763-.86.763s-.86-.341-.86-.763c0-.421.38-.764.86-.764.47 0 .86.343.86.764Zm2.68 0c0 .421-.39.763-.86.763s-.86-.341-.86-.763c0-.421.38-.764.86-.764.47 0 .86.343.86.764Zm-42.82 2.382c0 .421-.39.764-.86.764s-.86-.341-.86-.764c0-.421.38-.764.86-.764.47.002.86.343.86.764Zm5.35 0c0 .421-.38.764-.86.764-.47 0-.85-.341-.85-.764 0-.421.38-.764.85-.764.48.002.86.343.86.764Zm2.67 0c0 .421-.38.764-.85.764-.48 0-.86-.341-.86-.764 0-.421.38-.764.86-.764.47.002.85.343.85.764Zm2.68 0c0 .421-.38.764-.86.764-.47 0-.86-.341-.86-.764 0-.421.39-.764.86-.764.48.002.86.343.86.764Zm5.36 0c0 .421-.39.764-.86.764-.48 0-.86-.341-.86-.764 0-.421.38-.764.86-.764.47.002.86.343.86.764Zm5.34 0c0 .421-.38.764-.85.764-.48 0-.86-.341-.86-.764 0-.421.38-.764.86-.764.47.002.85.343.85.764Zm-8.02 0c0 .421-.38.764-.86.764-.47 0-.86-.341-.86-.764 0-.421.39-.764.86-.764.48.002.86.343.86.764Zm5.35 0c0 .421-.39.764-.86.764s-.86-.341-.86-.764c0-.421.38-.764.86-.764.47.002.86.343.86.764Zm5.35 0c0 .421-.38.764-.86.764-.47 0-.86-.341-.86-.764 0-.421.39-.764.86-.764.48.002.86.343.86.764Zm2.68 0c0 .421-.38.764-.86.764-.47 0-.86-.341-.86-.764 0-.421.39-.764.86-.764.47.002.86.343.86.764Zm2.67 0c0 .421-.38.764-.85.764-.48 0-.86-.341-.86-.764 0-.421.38-.764.86-.764.47.002.85.343.85.764Zm2.68 0c0 .421-.38.764-.85.764-.48 0-.86-.341-.86-.764 0-.421.38-.764.86-.764.47.002.85.343.85.764Zm2.68 0c0 .421-.39.764-.86.764s-.86-.341-.86-.764c0-.421.38-.764.86-.764.47.002.86.343.86.764Zm2.67 0c0 .421-.38.764-.86.764-.47 0-.85-.341-.85-.764 0-.421.38-.764.85-.764.48.002.86.343.86.764Zm2.68 0c0 .421-.39.764-.86.764s-.86-.341-.86-.764c0-.421.38-.764.86-.764.47.002.86.343.86.764Zm2.46-.091c0 .42-.17.855-.64.855s-.86-.341-.86-.764c0-.421.38-.764.86-.764.47.002.64.252.64.673Zm-42.6 2.476c0 .42-.39.763-.86.763s-.86-.341-.86-.763c0-.421.38-.764.86-.764.47 0 .86.341.86.764Zm-2.68-2.385c0 .421-.38.764-.86.764-.47 0-.85-.341-.85-.764 0-.421.38-.764.85-.764.48.002.86.343.86.764Zm0 2.385c0 .421-.38.763-.86.763-.47 0-.85-.341-.85-.763 0-.421.38-.764.85-.764.48 0 .86.341.86.764Zm8.03 0c0 .42-.38.763-.86.763-.47 0-.85-.341-.85-.763 0-.421.38-.764.85-.764.48 0 .86.341.86.764Zm-2.67-2.385c0 .421-.39.764-.86.764s-.86-.341-.86-.764c0-.421.38-.764.86-.764.47.002.86.343.86.764Zm0 2.385c0 .42-.39.763-.86.763s-.86-.341-.86-.763c0-.421.38-.764.86-.764.47 0 .86.341.86.764Zm5.34 0c0 .42-.38.763-.85.763-.48 0-.86-.341-.86-.763 0-.421.38-.764.86-.764.47 0 .85.341.85.764Zm2.68 0c0 .42-.38.763-.86.763-.47 0-.86-.341-.86-.763 0-.421.39-.764.86-.764.48 0 .86.341.86.764Zm2.68 0c0 .42-.38.763-.86.763-.47 0-.86-.341-.86-.763 0-.421.39-.764.86-.764.48 0 .86.341.86.764Zm2.67 0c0 .421-.38.763-.85.763-.48 0-.86-.341-.86-.763 0-.421.38-.764.86-.764.47 0 .85.341.85.764Zm2.68 0c0 .42-.39.763-.86.763s-.86-.341-.86-.763c0-.421.38-.764.86-.764.47 0 .86.341.86.764Zm2.67 0c0 .42-.38.763-.85.763-.48 0-.86-.341-.86-.763 0-.421.38-.764.86-.764.47 0 .85.341.85.764Zm2.68 0c0 .42-.38.763-.86.763-.47 0-.86-.341-.86-.763 0-.421.39-.764.86-.764.48 0 .86.341.86.764Zm2.68 0c0 .42-.38.763-.86.763-.47 0-.86-.341-.86-.763 0-.421.39-.764.86-.764s.86.341.86.764Zm2.67 0c0 .42-.38.763-.85.763-.48 0-.86-.341-.86-.763 0-.421.38-.764.86-.764.47 0 .85.341.85.764Zm2.68 0c0 .42-.38.763-.85.763-.48 0-.86-.341-.86-.763 0-.421.38-.764.86-.764.47 0 .85.341.85.764Zm2.68 0c0 .42-.39.763-.86.763s-.86-.341-.86-.763c0-.421.38-.764.86-.764.47 0 .86.341.86.764Zm2.67 0c0 .42-.38.763-.86.763-.47 0-.85-.341-.85-.763 0-.421.38-.764.85-.764.48 0 .86.341.86.764Zm2.68 0c0 .42-.39.763-.86.763s-.86-.341-.86-.763c0-.421.38-.764.86-.764.47 0 .86.341.86.764Zm-42.82 2.382c0 .421-.38.764-.86.764-.47 0-.85-.341-.85-.764 0-.421.38-.763.85-.763.48 0 .86.342.86.763Zm2.68 0c0 .421-.39.764-.86.764s-.86-.341-.86-.764c0-.421.38-.763.86-.763.47 0 .86.342.86.763Zm2.68 0c0 .421-.39.764-.86.764s-.86-.341-.86-.764c0-.421.38-.763.86-.763.47 0 .86.342.86.763Zm2.67 0c0 .421-.38.764-.86.764-.47 0-.85-.341-.85-.764 0-.421.38-.763.85-.763.48 0 .86.342.86.763Zm8.03 0c0 .421-.38.764-.86.764-.47 0-.86-.341-.86-.764 0-.421.39-.763.86-.763.48 0 .86.342.86.763Zm2.67 0c0 .421-.38.764-.85.764-.48 0-.86-.341-.86-.764 0-.421.38-.763.86-.763.47 0 .85.342.85.763Zm2.68 0c0 .421-.39.764-.86.764s-.86-.341-.86-.764c0-.421.38-.763.86-.763.47 0 .86.342.86.763Zm2.67 0c0 .421-.38.764-.85.764-.48 0-.86-.341-.86-.764 0-.421.38-.763.86-.763.47 0 .85.342.85.763Zm2.68 0c0 .421-.38.764-.86.764-.47 0-.86-.341-.86-.764 0-.421.39-.763.86-.763.48 0 .86.342.86.763Zm2.68 0c0 .421-.38.764-.86.764-.47 0-.86-.341-.86-.764 0-.421.39-.763.86-.763s.86.342.86.763Zm2.67 0c0 .421-.38.764-.85.764-.48 0-.86-.341-.86-.764 0-.421.38-.763.86-.763.47 0 .85.342.85.763Zm2.68 0c0 .421-.38.764-.85.764-.48 0-.86-.341-.86-.764 0-.421.38-.763.86-.763.47 0 .85.342.85.763Zm2.68 0c0 .421-.39.764-.86.764s-.86-.341-.86-.764c0-.421.38-.763.86-.763.47 0 .86.342.86.763Zm2.67 0c0 .421-.38.764-.86.764-.47 0-.85-.341-.85-.764 0-.421.38-.763.85-.763.48 0 .86.342.86.763Zm2.68 0c0 .421-.39.764-.86.764s-.86-.341-.86-.764c0-.421.38-.763.86-.763.47 0 .86.342.86.763Zm-42.82 2.383c0 .421-.38.763-.86.763-.47 0-.85-.34-.85-.763 0-.421.38-.764.85-.764.48.002.86.343.86.764Zm2.68 0c0 .421-.39.763-.86.763s-.86-.34-.86-.763c0-.421.38-.764.86-.764.47.002.86.343.86.764Zm8.02 0c0 .421-.38.763-.85.763-.48 0-.86-.34-.86-.763 0-.421.38-.764.86-.764.47.002.85.343.85.764Zm2.68 0c0 .421-.38.763-.86.763-.47 0-.86-.34-.86-.763 0-.421.39-.764.86-.764.48.002.86.343.86.764Zm-2.68-2.383c0 .421-.38.764-.85.764-.48 0-.86-.341-.86-.764 0-.421.38-.763.86-.763.47 0 .85.342.85.763Zm2.68 0c0 .421-.38.764-.86.764-.47 0-.86-.341-.86-.764 0-.421.39-.763.86-.763.48 0 .86.342.86.763Zm-8.02 2.383c0 .421-.39.763-.86.763s-.86-.34-.86-.763c0-.421.38-.764.86-.764.47.002.86.343.86.764Zm2.67 0c0 .421-.38.763-.86.763-.47 0-.85-.34-.85-.763 0-.421.38-.764.85-.764.48.002.86.343.86.764Zm8.03 0c0 .421-.38.763-.86.763-.47 0-.86-.34-.86-.763 0-.421.39-.764.86-.764.48.002.86.343.86.764Zm2.67 0c0 .421-.38.763-.85.763-.48 0-.86-.34-.86-.763 0-.421.38-.764.86-.764.47.002.85.343.85.764Zm2.68 0c0 .421-.39.763-.86.763s-.86-.34-.86-.763c0-.421.38-.764.86-.764.47.002.86.343.86.764Zm2.67 0c0 .421-.38.763-.85.763-.48 0-.86-.34-.86-.763 0-.421.38-.764.86-.764.47.002.85.343.85.764Zm2.68 0c0 .421-.38.763-.86.763-.47 0-.86-.34-.86-.763 0-.421.39-.764.86-.764.48.002.86.343.86.764Zm5.35 0c0 .421-.38.763-.85.763-.48 0-.86-.34-.86-.763 0-.421.38-.764.86-.764.47.002.85.343.85.764Zm-2.67 0c0 .421-.38.763-.86.763-.47 0-.86-.34-.86-.763 0-.421.39-.764.86-.764.47.002.86.343.86.764Zm5.35 0c0 .421-.38.763-.85.763-.48 0-.86-.34-.86-.763 0-.421.38-.764.86-.764.47.002.85.343.85.764Zm2.68 0c0 .421-.39.763-.86.763s-.86-.34-.86-.763c0-.421.38-.764.86-.764.47.002.86.343.86.764Zm2.67 0c0 .421-.38.763-.86.763-.47 0-.85-.34-.85-.763 0-.421.38-.764.85-.764.48.002.86.343.86.764Zm2.14-.195c0 .421.15.958-.32.958s-.86-.34-.86-.763c0-.421.38-.764.86-.764.47.002.32.149.32.569Zm-42.28 2.579c0 .421-.38.764-.86.764-.47 0-.85-.341-.85-.764 0-.42.38-.763.85-.763.48 0 .86.341.86.763Zm2.68 0c0 .421-.39.764-.86.764s-.86-.341-.86-.764c0-.42.38-.763.86-.763.47 0 .86.341.86.763Zm2.68 0c0 .421-.39.764-.86.764s-.86-.341-.86-.764c0-.42.38-.763.86-.763.47 0 .86.341.86.763Zm2.67 0c0 .421-.38.764-.86.764-.47 0-.85-.341-.85-.764 0-.42.38-.763.85-.763.48 0 .86.341.86.763Zm2.67 0c0 .421-.38.764-.85.764-.48 0-.86-.341-.86-.764 0-.42.38-.763.86-.763.47 0 .85.341.85.763Zm8.03 0c0 .421-.38.764-.85.764-.48 0-.86-.341-.86-.764 0-.42.38-.763.86-.763.47 0 .85.341.85.763Zm2.68 0c0 .421-.39.764-.86.764s-.86-.341-.86-.764c0-.42.38-.763.86-.763.47 0 .86.341.86.763Zm-8.03 0c0 .421-.38.764-.86.764-.47 0-.86-.341-.86-.764 0-.42.39-.763.86-.763.48 0 .86.341.86.763Zm2.68 0c0 .421-.38.764-.86.764-.47 0-.86-.341-.86-.764 0-.42.39-.763.86-.763.48 0 .86.341.86.763Zm10.7 0c0 .421-.38.764-.86.764-.47 0-.86-.341-.86-.764 0-.42.39-.763.86-.763.48 0 .86.341.86.763Zm-2.68 0c0 .421-.38.764-.85.764-.48 0-.86-.341-.86-.764 0-.42.38-.763.86-.763.47 0 .85.341.85.763Zm5.36 0c0 .421-.38.764-.86.764-.47 0-.86-.341-.86-.764 0-.42.39-.763.86-.763s.86.341.86.763Zm2.67 0c0 .421-.38.764-.85.764-.48 0-.86-.341-.86-.764 0-.42.38-.763.86-.763.47 0 .85.341.85.763Zm2.68 0c0 .421-.38.764-.85.764-.48 0-.86-.341-.86-.764 0-.42.38-.763.86-.763.47 0 .85.341.85.763Zm2.68 0c0 .421-.39.764-.86.764s-.86-.341-.86-.764c0-.42.38-.763.86-.763.47 0 .86.341.86.763Zm2.67 0c0 .421-.38.764-.86.764-.47 0-.85-.341-.85-.764 0-.42.38-.763.85-.763.48 0 .86.341.86.763Zm-37.46 2.383c0 .421-.39.764-.86.764s-.86-.341-.86-.764c0-.421.38-.764.86-.764.47 0 .86.343.86.764Zm5.35 0c0 .421-.38.764-.86.764-.47 0-.85-.341-.85-.764 0-.421.38-.764.85-.764.48 0 .86.343.86.764Zm-2.67 0c0 .421-.39.764-.86.764s-.86-.341-.86-.764c0-.421.38-.764.86-.764.47 0 .86.343.86.764Zm5.34 0c0 .421-.38.764-.85.764-.48 0-.86-.341-.86-.764 0-.421.38-.764.86-.764.47 0 .85.343.85.764Zm2.68 0c0 .421-.38.764-.86.764-.47 0-.86-.341-.86-.764 0-.421.39-.764.86-.764.48 0 .86.343.86.764Zm2.68 0c0 .421-.38.764-.86.764-.47 0-.86-.341-.86-.764 0-.421.39-.764.86-.764.48 0 .86.343.86.764Zm2.67 0c0 .421-.38.764-.85.764-.48 0-.86-.341-.86-.764 0-.421.38-.764.86-.764.47 0 .85.343.85.764Zm2.68 0c0 .421-.39.764-.86.764s-.86-.341-.86-.764c0-.421.38-.764.86-.764.47 0 .86.343.86.764Zm2.67 0c0 .421-.38.764-.85.764-.48 0-.86-.341-.86-.764 0-.421.38-.764.86-.764.47 0 .85.343.85.764Zm2.68 0c0 .421-.38.764-.86.764-.47 0-.86-.341-.86-.764 0-.421.39-.764.86-.764.48 0 .86.343.86.764Zm2.68 0c0 .421-.38.764-.86.764-.47 0-.86-.341-.86-.764 0-.421.39-.764.86-.764s.86.343.86.764Zm2.67 0c0 .421-.38.764-.85.764-.48 0-.86-.341-.86-.764 0-.421.38-.764.86-.764.47 0 .85.343.85.764Zm2.68 0c0 .421-.38.764-.85.764-.48 0-.86-.341-.86-.764 0-.421.38-.764.86-.764.47 0 .85.343.85.764Zm2.68 0c0 .421-.39.764-.86.764s-.86-.341-.86-.764c0-.421.38-.764.86-.764.47 0 .86.343.86.764Zm2.67 0c0 .421-.38.764-.86.764-.47 0-.85-.341-.85-.764 0-.421.38-.764.85-.764.48 0 .86.343.86.764Zm-40.14 2.382c0 .421-.38.764-.86.764-.47 0-.85-.341-.85-.764 0-.421.38-.763.85-.763.48 0 .86.342.86.763Zm2.68 0c0 .421-.39.764-.86.764s-.86-.341-.86-.764c0-.421.38-.763.86-.763.47 0 .86.342.86.763Zm2.68 0c0 .421-.39.764-.86.764s-.86-.341-.86-.764c0-.421.38-.763.86-.763.47 0 .86.342.86.763Zm5.34 0c0 .421-.38.764-.85.764-.48 0-.86-.341-.86-.764 0-.421.38-.763.86-.763.47 0 .85.342.85.763Zm-2.67 0c0 .421-.38.764-.86.764-.47 0-.85-.341-.85-.764 0-.421.38-.763.85-.763.48 0 .86.342.86.763Zm8.03 0c0 .421-.38.764-.86.764-.47 0-.86-.341-.86-.764 0-.421.39-.763.86-.763.48 0 .86.342.86.763Zm5.35 0c0 .421-.39.764-.86.764s-.86-.341-.86-.764c0-.421.38-.763.86-.763.47 0 .86.342.86.763Zm2.67 0c0 .421-.38.764-.85.764-.48 0-.86-.341-.86-.764 0-.421.38-.763.86-.763.47 0 .85.342.85.763Zm2.68 0c0 .421-.38.764-.86.764-.47 0-.86-.341-.86-.764 0-.421.39-.763.86-.763.48 0 .86.342.86.763Zm-13.38 0c0 .421-.38.764-.86.764-.47 0-.86-.341-.86-.764 0-.421.39-.763.86-.763.48 0 .86.342.86.763Zm5.35 0c0 .421-.38.764-.85.764-.48 0-.86-.341-.86-.764 0-.421.38-.763.86-.763.47 0 .85.342.85.763Zm10.71 0c0 .421-.38.764-.86.764-.47 0-.86-.341-.86-.764 0-.421.39-.763.86-.763s.86.342.86.763Zm2.67 0c0 .421-.38.764-.85.764-.48 0-.86-.341-.86-.764 0-.421.38-.763.86-.763.47 0 .85.342.85.763Zm2.68 0c0 .421-.38.764-.85.764-.48 0-.86-.341-.86-.764 0-.421.38-.763.86-.763.47 0 .85.342.85.763Zm2.68 0c0 .421-.39.764-.86.764s-.86-.341-.86-.764c0-.421.38-.763.86-.763.47 0 .86.342.86.763Zm-34.79 2.383c0 .421-.39.764-.86.764s-.86-.341-.86-.764c0-.421.38-.764.86-.764.47.002.86.343.86.764Zm-2.68-4.765c0 .421-.38.764-.86.764-.47 0-.85-.341-.85-.764 0-.421.38-.764.85-.764.48 0 .86.343.86.764Zm0 4.765c0 .421-.38.764-.86.764-.47 0-.85-.341-.85-.764 0-.421.38-.764.85-.764.48.002.86.343.86.764Zm5.36 0c0 .421-.39.764-.86.764s-.86-.341-.86-.764c0-.421.38-.764.86-.764.47.002.86.343.86.764Zm2.67 0c0 .421-.38.764-.86.764-.47 0-.85-.341-.85-.764 0-.421.38-.764.85-.764.48.002.86.343.86.764Zm5.35 0c0 .421-.38.764-.86.764-.47 0-.86-.341-.86-.764 0-.421.39-.764.86-.764.48.002.86.343.86.764Zm2.68 0c0 .421-.38.764-.86.764-.47 0-.86-.341-.86-.764 0-.421.39-.764.86-.764.48.002.86.343.86.764Zm2.67 0c0 .421-.38.764-.85.764-.48 0-.86-.341-.86-.764 0-.421.38-.764.86-.764.47.002.85.343.85.764Zm2.68 0c0 .421-.39.764-.86.764s-.86-.341-.86-.764c0-.421.38-.764.86-.764.47.002.86.343.86.764Zm5.35 0c0 .421-.38.764-.86.764-.47 0-.86-.341-.86-.764 0-.421.39-.764.86-.764.48.002.86.343.86.764Zm5.35 0c0 .421-.38.764-.85.764-.48 0-.86-.341-.86-.764 0-.421.38-.764.86-.764.47.002.85.343.85.764Zm-8.03 0c0 .421-.38.764-.85.764-.48 0-.86-.341-.86-.764 0-.421.38-.764.86-.764.47.002.85.343.85.764Zm5.36 0c0 .421-.38.764-.86.764-.47 0-.86-.341-.86-.764 0-.421.39-.764.86-.764.47.002.86.343.86.764Zm5.35 0c0 .421-.38.764-.85.764-.48 0-.86-.341-.86-.764 0-.421.38-.764.86-.764.47.002.85.343.85.764Zm2.57-.109c0 .421-.28.873-.75.873s-.86-.341-.86-.764c0-.421.38-.764.86-.764.47.002.75.234.75.655Zm-37.36 2.494c0 .42-.38.763-.86.763-.47 0-.85-.341-.85-.763 0-.421.38-.764.85-.764.48 0 .86.341.86.764Zm2.68 0c0 .421-.39.763-.86.763s-.86-.341-.86-.763c0-.421.38-.764.86-.764.47 0 .86.341.86.764Zm2.68 0c0 .421-.39.763-.86.763s-.86-.341-.86-.763c0-.421.38-.764.86-.764.47 0 .86.341.86.764Zm2.67 0c0 .421-.38.763-.86.763-.47 0-.85-.341-.85-.763 0-.421.38-.764.85-.764.48 0 .86.341.86.764Zm2.67 0c0 .421-.38.763-.85.763-.48 0-.86-.341-.86-.763 0-.421.38-.764.86-.764.47 0 .85.341.85.764Zm2.68 0c0 .421-.38.763-.86.763-.47 0-.86-.341-.86-.763 0-.421.39-.764.86-.764.48 0 .86.341.86.764Zm2.68 0c0 .421-.38.763-.86.763-.47 0-.86-.341-.86-.763 0-.421.39-.764.86-.764.48 0 .86.341.86.764Zm2.67 0c0 .42-.38.763-.85.763-.48 0-.86-.341-.86-.763 0-.421.38-.764.86-.764.47 0 .85.341.85.764Zm2.68 0c0 .421-.39.763-.86.763s-.86-.341-.86-.763c0-.421.38-.764.86-.764.47 0 .86.341.86.764Zm2.67 0c0 .421-.38.763-.85.763-.48 0-.86-.341-.86-.763 0-.421.38-.764.86-.764.47 0 .85.341.85.764Zm2.68 0c0 .421-.38.763-.86.763-.47 0-.86-.341-.86-.763 0-.421.39-.764.86-.764.48 0 .86.341.86.764Zm2.68 0c0 .421-.38.763-.86.763-.47 0-.86-.341-.86-.763 0-.421.39-.764.86-.764s.86.341.86.764Zm2.67 0c0 .421-.38.763-.85.763-.48 0-.86-.341-.86-.763 0-.421.38-.764.86-.764.47 0 .85.341.85.764Zm2.68 0c0 .421-.38.763-.85.763-.48 0-.86-.341-.86-.763 0-.421.38-.764.86-.764.47 0 .85.341.85.764Zm-34.79 2.382c0 .421-.38.763-.86.763-.47 0-.85-.34-.85-.763 0-.421.38-.764.85-.764.48 0 .86.343.86.764Zm5.36 0c0 .421-.39.764-.86.764s-.86-.341-.86-.764c0-.421.38-.764.86-.764.47 0 .86.343.86.764Zm2.67 0c0 .421-.38.764-.86.764-.47 0-.85-.341-.85-.764 0-.421.38-.764.85-.764.48 0 .86.343.86.764Zm2.67 0c0 .421-.38.764-.85.764-.48 0-.86-.341-.86-.764 0-.421.38-.764.86-.764.47 0 .85.343.85.764Zm2.68 0c0 .421-.38.764-.86.764-.47 0-.86-.341-.86-.764 0-.421.39-.764.86-.764.48 0 .86.343.86.764Zm5.35 0c0 .421-.38.763-.85.763-.48 0-.86-.34-.86-.763 0-.421.38-.764.86-.764.47 0 .85.343.85.764Zm5.35 0c0 .421-.38.764-.85.764-.48 0-.86-.341-.86-.764 0-.421.38-.764.86-.764.47 0 .85.343.85.764Zm-8.02 0c0 .421-.38.764-.86.764-.47 0-.86-.341-.86-.764 0-.421.39-.764.86-.764.48 0 .86.343.86.764Zm5.35 0c0 .421-.39.764-.86.764s-.86-.341-.86-.764c0-.421.38-.764.86-.764.47 0 .86.343.86.764Zm5.35 0c0 .421-.38.764-.86.764-.47 0-.86-.341-.86-.764 0-.421.39-.764.86-.764.48 0 .86.343.86.764Zm2.68 0c0 .421-.38.764-.86.764-.47 0-.86-.341-.86-.764 0-.421.39-.764.86-.764s.86.343.86.764Zm2.67 0c0 .421-.38.764-.85.764-.48 0-.86-.341-.86-.764 0-.421.38-.764.86-.764.47 0 .85.343.85.764Zm-32.11 2.383c0 .42-.38.763-.86.763-.47 0-.85-.341-.85-.763 0-.421.38-.764.85-.764.48.002.86.343.86.764Zm5.36 0c0 .421-.39.763-.86.763s-.86-.34-.86-.763c0-.421.38-.764.86-.764.47.002.86.343.86.764Zm-2.68-2.383c0 .421-.39.764-.86.764s-.86-.341-.86-.764c0-.421.38-.764.86-.764.47 0 .86.343.86.764Zm0 2.383c0 .421-.39.763-.86.763s-.86-.34-.86-.763c0-.421.38-.764.86-.764.47.002.86.343.86.764Zm5.35 0c0 .421-.38.763-.86.763-.47 0-.85-.34-.85-.763 0-.421.38-.764.85-.764.48.002.86.343.86.764Zm5.35 0c0 .421-.38.763-.86.763-.47 0-.86-.34-.86-.763 0-.421.39-.764.86-.764.48.002.86.343.86.764Zm-2.68-7.15c0 .421-.38.764-.85.764-.48 0-.86-.341-.86-.764 0-.421.38-.764.86-.764.47.002.85.343.85.764Zm0 7.15c0 .421-.38.763-.85.763-.48 0-.86-.34-.86-.763 0-.421.38-.764.86-.764.47.002.85.343.85.764Zm5.36 0c0 .421-.38.763-.86.763-.47 0-.86-.34-.86-.763 0-.421.39-.764.86-.764.48.002.86.343.86.764Zm2.67 0c0 .42-.38.763-.85.763-.48 0-.86-.341-.86-.763 0-.421.38-.764.86-.764.47.002.85.343.85.764Zm2.68 0c0 .421-.39.763-.86.763s-.86-.34-.86-.763c0-.421.38-.764.86-.764.47.002.86.343.86.764Zm2.67 0c0 .421-.38.763-.85.763-.48 0-.86-.34-.86-.763 0-.421.38-.764.86-.764.47.002.85.343.85.764Zm5.36 0c0 .421-.38.763-.86.763-.47 0-.86-.34-.86-.763 0-.421.39-.764.86-.764.47.002.86.343.86.764Zm-2.68 0c0 .421-.38.763-.86.763-.47 0-.86-.34-.86-.763 0-.421.39-.764.86-.764.48.002.86.343.86.764Zm5.35 0c0 .421-.38.763-.85.763-.48 0-.86-.34-.86-.763 0-.421.38-.764.86-.764.47.002.85.343.85.764Zm-32.11 2.384c0 .421-.38.764-.86.764-.47 0-.85-.341-.85-.764 0-.421.38-.764.85-.764.48 0 .86.341.86.764Zm2.68 0c0 .421-.39.764-.86.764s-.86-.341-.86-.764c0-.421.38-.764.86-.764.47 0 .86.341.86.764Zm2.68 0c0 .421-.39.764-.86.764s-.86-.341-.86-.764c0-.421.38-.764.86-.764.47 0 .86.341.86.764Zm2.67 0c0 .421-.38.764-.86.764-.47 0-.85-.341-.85-.764 0-.421.38-.764.85-.764.48 0 .86.341.86.764Zm2.67 0c0 .421-.38.764-.85.764-.48 0-.86-.341-.86-.764 0-.421.38-.764.86-.764.47 0 .85.341.85.764Zm8.03 0c0 .421-.38.764-.85.764-.48 0-.86-.341-.86-.764 0-.421.38-.764.86-.764.47 0 .85.341.85.764Zm5.35 0c0 .421-.38.764-.85.764-.48 0-.86-.341-.86-.764 0-.421.38-.764.86-.764.47 0 .85.341.85.764Zm2.68 0c0 .421-.38.764-.86.764-.47 0-.86-.341-.86-.764 0-.421.39-.764.86-.764.48 0 .86.341.86.764Zm2.68 0c0 .421-.38.764-.86.764-.47 0-.86-.341-.86-.764 0-.421.39-.764.86-.764s.86.341.86.764Zm-29.44 2.382c0 .421-.38.764-.86.764-.47 0-.85-.341-.85-.764 0-.42.38-.763.85-.763.48 0 .86.343.86.763Zm2.68.001c0 .421-.39.763-.86.763s-.86-.341-.86-.763c0-.421.38-.764.86-.764.47 0 .86.343.86.764Zm5.35 0c0 .421-.38.763-.86.763-.47 0-.85-.341-.85-.763 0-.421.38-.764.85-.764.48 0 .86.343.86.764Zm-2.67 0c0 .421-.39.763-.86.763s-.86-.341-.86-.763c0-.421.38-.764.86-.764.47 0 .86.343.86.764Zm5.34 0c0 .421-.38.763-.85.763-.48 0-.86-.341-.86-.763 0-.421.38-.764.86-.764.47 0 .85.343.85.764Zm2.68 0c0 .421-.38.763-.86.763-.47 0-.86-.341-.86-.763 0-.421.39-.764.86-.764.48 0 .86.343.86.764Zm5.35-.001c0 .421-.38.764-.85.764-.48 0-.86-.341-.86-.764 0-.42.38-.763.86-.763.47 0 .85.343.85.763Zm2.68.001c0 .421-.39.763-.86.763s-.86-.341-.86-.763c0-.421.38-.764.86-.764.47 0 .86.343.86.764Zm2.67 0c0 .421-.38.763-.85.763-.48 0-.86-.341-.86-.763 0-.421.38-.764.86-.764.47 0 .85.343.85.764Zm2.68 0c0 .421-.38.763-.86.763-.47 0-.86-.341-.86-.763 0-.421.39-.764.86-.764.48 0 .86.343.86.764Zm-26.76 2.382c0 .421-.38.764-.86.764-.47 0-.85-.341-.85-.764 0-.421.38-.764.85-.764.48 0 .86.343.86.764Zm2.68 0c0 .421-.39.763-.86.763s-.86-.34-.86-.763c0-.421.38-.764.86-.764.47 0 .86.343.86.764Zm2.68 0c0 .421-.39.763-.86.763s-.86-.34-.86-.763c0-.421.38-.764.86-.764.47 0 .86.343.86.764Zm2.67 0c0 .421-.38.763-.86.763-.47 0-.85-.34-.85-.763 0-.421.38-.764.85-.764.48 0 .86.343.86.764Zm2.67 0c0 .421-.38.763-.85.763-.48 0-.86-.34-.86-.763 0-.421.38-.764.86-.764.47 0 .85.343.85.764Zm2.68 0c0 .421-.38.763-.86.763-.47 0-.86-.34-.86-.763 0-.421.39-.764.86-.764.48 0 .86.343.86.764Zm5.35 0c0 .421-.38.764-.85.764-.48 0-.86-.341-.86-.764 0-.421.38-.764.86-.764.47 0 .85.343.85.764Zm-2.67-4.765c0 .421-.38.764-.86.764-.47 0-.86-.341-.86-.764 0-.421.39-.764.86-.764.48 0 .86.341.86.764Zm-2.68 0c0 .421-.38.764-.86.764-.47 0-.86-.341-.86-.764 0-.421.39-.764.86-.764.48 0 .86.341.86.764Zm2.68 2.383c0 .421-.38.763-.86.763-.47 0-.86-.341-.86-.763 0-.421.39-.764.86-.764.48 0 .86.343.86.764Zm0 2.382c0 .421-.38.763-.86.763-.47 0-.86-.34-.86-.763 0-.421.39-.764.86-.764.48 0 .86.343.86.764Zm8.02 0c0 .421-.38.763-.85.763-.48 0-.86-.34-.86-.763 0-.421.38-.764.86-.764.47 0 .85.343.85.764Zm-2.67-4.765c0 .421-.39.764-.86.764s-.86-.341-.86-.764c0-.421.38-.764.86-.764.47 0 .86.341.86.764Zm0 4.765c0 .421-.39.763-.86.763s-.86-.34-.86-.763c0-.421.38-.764.86-.764.47 0 .86.343.86.764Zm-18.73 2.383c0 .421-.39.763-.86.763s-.86-.34-.86-.763c0-.421.38-.764.86-.764.47.002.86.343.86.764Zm2.68 0c0 .421-.39.763-.86.763s-.86-.34-.86-.763c0-.421.38-.764.86-.764.47.002.86.343.86.764Zm2.67 0c0 .421-.38.763-.86.763-.47 0-.85-.34-.85-.763 0-.421.38-.764.85-.764.48.002.86.343.86.764Zm2.67 0c0 .421-.38.763-.85.763-.48 0-.86-.34-.86-.763 0-.421.38-.764.86-.764.47.002.85.343.85.764Zm5.36 0c0 .421-.38.763-.86.763-.47 0-.86-.34-.86-.763 0-.421.39-.764.86-.764.48.002.86.343.86.764Zm-2.68 0c0 .421-.38.763-.86.763-.47 0-.86-.34-.86-.763 0-.421.39-.764.86-.764.48.002.86.343.86.764Zm5.35 0c0 .421-.38.763-.85.763-.48 0-.86-.341-.86-.763 0-.421.38-.764.86-.764.47.002.85.343.85.764Zm2.68 0c0 .421-.39.763-.86.763s-.86-.34-.86-.763c0-.421.38-.764.86-.764.47.002.86.343.86.764Zm-21.41 2.384c0 .421-.38.764-.86.764-.47 0-.85-.341-.85-.764 0-.421.38-.763.85-.763.48 0 .86.34.86.763Zm5.36 0c0 .421-.39.764-.86.764s-.86-.341-.86-.764c0-.421.38-.763.86-.763.47 0 .86.34.86.763Zm-2.68 0c0 .421-.39.764-.86.764s-.86-.341-.86-.764c0-.421.38-.763.86-.763.47 0 .86.34.86.763Zm10.7 0c0 .421-.38.764-.86.764-.47 0-.86-.341-.86-.764 0-.421.39-.763.86-.763.48 0 .86.34.86.763Zm2.68 0c0 .421-.38.764-.86.764-.47 0-.86-.341-.86-.764 0-.421.39-.763.86-.763.48 0 .86.34.86.763Zm2.68 0c0 .421-.39.764-.86.764-.48 0-.86-.341-.86-.764 0-.421.38-.763.86-.763.47 0 .86.34.86.763Zm-18.74 2.383c0 .421-.38.763-.86.763-.47 0-.85-.341-.85-.763 0-.421.38-.764.85-.764.48 0 .86.343.86.764Zm2.68 0c0 .421-.39.763-.86.763s-.86-.341-.86-.763c0-.421.38-.764.86-.764.47 0 .86.343.86.764Zm10.7 0c0 .421-.38.763-.86.763-.47 0-.86-.341-.86-.763 0-.421.39-.764.86-.764.48 0 .86.343.86.764Zm-2.68-2.383c0 .421-.38.764-.85.764-.48 0-.86-.341-.86-.764 0-.421.38-.763.86-.763.47 0 .85.34.85.763Zm0 2.383c0 .421-.38.763-.85.763-.48 0-.86-.341-.86-.763 0-.421.38-.764.86-.764.47 0 .85.343.85.764Zm-2.67-2.383c0 .421-.38.764-.86.764-.47 0-.85-.341-.85-.764 0-.421.38-.763.85-.763.48 0 .86.34.86.763Zm0 2.383c0 .421-.38.763-.86.763-.47 0-.85-.341-.85-.763 0-.421.38-.764.85-.764.48 0 .86.343.86.764Zm-8.03 2.382c0 .421-.38.764-.86.764-.47 0-.85-.341-.85-.764 0-.421.38-.763.85-.763.48.001.86.342.86.763Zm2.68 0c0 .421-.39.764-.86.764s-.86-.341-.86-.764c0-.421.38-.764.86-.764.47.002.86.343.86.764Zm5.35 0c0 .421-.38.764-.86.764-.47 0-.85-.341-.85-.764 0-.421.38-.764.85-.764.48.002.86.343.86.764Zm-2.67-2.382c0 .421-.39.763-.86.763s-.86-.341-.86-.763c0-.421.38-.764.86-.764.47 0 .86.343.86.764Zm0 2.382c0 .421-.39.764-.86.764s-.86-.341-.86-.764c0-.421.38-.764.86-.764.47.002.86.343.86.764Zm5.34 0c0 .421-.38.764-.85.764-.48 0-.86-.341-.86-.764 0-.421.38-.764.86-.764.47.002.85.343.85.764Zm5.38-2.609c0 .421-1.02.857-1.5.857-.47 0-.24-.208-.24-.63 0-.421.38-.764.86-.764.47 0 .88.116.88.537Zm-13.4 4.994c0 .421-.35.053-.82.053-.48 0-.43-.053-.9-.053 0-.421.38-.764.86-.764.47 0 .86.341.86.764Zm2.68 0c0 .421-.39.339-.86.339s-.86.084-.86-.339c0-.421.38-.764.86-.764.47 0 .86.341.86.764Zm-5.36-9.534c0 .421-.38.763-.86.763-.47 0-.85-.341-.85-.763 0-.421.38-.764.85-.764.48.002.86.343.86.764Z" fill="#3136BD"/><path d="M1381.19 334.971c49.49 0 89.61-35.511 89.61-79.316s-40.12-79.316-89.61-79.316-89.61 35.511-89.61 79.316 40.12 79.316 89.61 79.316Z" stroke="url(#m)" stroke-width="1.061" stroke-miterlimit="10"/></g></g><defs><linearGradient id="b" x1="264.757" y1="714.558" x2="2042.27" y2="-155.01" gradientUnits="userSpaceOnUse"><stop offset=".325" stop-color="#F8F8FE"/><stop offset="1" stop-color="#494FE1" stop-opacity=".93"/></linearGradient><linearGradient id="f" x1="1285.57" y1="185.179" x2="1445.65" y2="335.942" gradientUnits="userSpaceOnUse"><stop offset="0" stop-color="#3D4FC7"/><stop offset=".254" stop-color="#3D4FC7" stop-opacity=".72"/><stop offset=".391" stop-color="#3D4FC7" stop-opacity=".64"/><stop offset=".501" stop-color="#3D4FC7" stop-opacity=".48"/><stop offset=".595" stop-color="#3D4FC7" stop-opacity=".4"/><stop offset=".68" stop-color="#3D4FC7" stop-opacity=".32"/><stop offset=".759" stop-color="#3D4FC7" stop-opacity=".24"/><stop offset=".832" stop-color="#6266C6" stop-opacity=".16"/><stop offset=".901" stop-color="#6266C6" stop-opacity=".1"/><stop offset=".965" stop-color="#6266C6" stop-opacity=".03"/><stop offset="1" stop-opacity="0"/><stop offset="1" stop-color="#EFF0F8"/></linearGradient><linearGradient id="g" x1="1479.85" y1="322.023" x2="1322.4" y2="169.385" gradientUnits="userSpaceOnUse"><stop offset="0" stop-color="#3D4FC7"/><stop offset=".254" stop-color="#3D4FC7" stop-opacity=".72"/><stop offset=".391" stop-color="#3D4FC7" stop-opacity=".6"/><stop offset=".501" stop-color="#3D4FC7" stop-opacity=".5"/><stop offset=".595" stop-color="#3D4FC7" stop-opacity=".4"/><stop offset=".68" stop-color="#3D4FC7" stop-opacity=".32"/><stop offset=".759" stop-color="#3D4FC7" stop-opacity=".24"/><stop offset=".832" stop-color="#3D4FC7" stop-opacity=".16"/><stop offset=".901" stop-color="#3D4FC7" stop-opacity=".08"/><stop offset=".94" stop-color="#6266C6" stop-opacity=".04"/><stop offset=".965" stop-color="#3D4FC7" stop-opacity=".04"/><stop offset="1" stop-color="#3D4FC7" stop-opacity=".02"/></linearGradient><linearGradient id="h" x1="1479.85" y1="322.023" x2="1322.4" y2="169.385" gradientUnits="userSpaceOnUse"><stop offset="0" stop-color="#3D4FC7"/><stop offset=".254" stop-color="#3D4FC7" stop-opacity=".72"/><stop offset=".391" stop-color="#3D4FC7" stop-opacity=".64"/><stop offset=".501" stop-color="#3D4FC7" stop-opacity=".64"/><stop offset=".595" stop-color="#3D4FC7" stop-opacity=".4"/><stop offset=".68" stop-color="#3D4FC7" stop-opacity=".32"/><stop offset=".759" stop-color="#3D4FC7" stop-opacity=".24"/><stop offset=".832" stop-color="#3D4FC7" stop-opacity=".16"/><stop offset=".901" stop-color="#3D4FC7" stop-opacity=".08"/><stop offset=".965" stop-color="#3D4FC7" stop-opacity=".04"/><stop offset="1" stop-color="#3D4FC7" stop-opacity="0"/></linearGradient><linearGradient id="i" x1="1427.53" y1="377.88" x2="1268.07" y2="226.747" gradientUnits="userSpaceOnUse"><stop offset="0" stop-color="#3D4FC7"/><stop offset=".254" stop-color="#3D4FC7" stop-opacity=".72"/><stop offset=".391" stop-color="#3D4FC7" stop-opacity=".6"/><stop offset=".501" stop-color="#3D4FC7" stop-opacity=".48"/><stop offset=".595" stop-color="#3D4FC7" stop-opacity=".4"/><stop offset=".68" stop-color="#3D4FC7" stop-opacity=".4"/><stop offset=".759" stop-color="#3D4FC7" stop-opacity=".24"/><stop offset=".832" stop-color="#3D4FC7" stop-opacity=".16"/><stop offset=".901" stop-color="#3D4FC7" stop-opacity=".08"/><stop offset=".965" stop-color="#3D4FC7" stop-opacity=".04"/><stop offset="1" stop-color="#3D4FC7" stop-opacity="0"/></linearGradient><linearGradient id="j" x1="1487.68" y1="312.329" x2="1322.51" y2="166.321" gradientUnits="userSpaceOnUse"><stop offset="0" stop-color="#3D4FC7"/><stop offset=".122" stop-color="#3D4FC7" stop-opacity=".8"/><stop offset=".254" stop-color="#3D4FC7" stop-opacity=".72"/><stop offset=".391" stop-color="#3D4FC7" stop-opacity=".6"/><stop offset=".501" stop-color="#3D4FC7" stop-opacity=".48"/><stop offset=".595" stop-color="#3D4FC7" stop-opacity=".4"/><stop offset=".68" stop-color="#3D4FC7" stop-opacity=".32"/><stop offset=".759" stop-color="#3D4FC7" stop-opacity=".24"/><stop offset=".832" stop-color="#3D4FC7" stop-opacity=".16"/><stop offset=".865" stop-color="#4E54D1" stop-opacity=".122"/><stop offset=".901" stop-color="#3D4FC7" stop-opacity=".08"/><stop offset=".965" stop-color="#3D4FC7" stop-opacity=".04"/><stop offset="1" stop-opacity="0"/><stop offset="1" stop-color="#6266C6" stop-opacity="0"/><stop offset="1" stop-color="#3D4FC7" stop-opacity="0"/></linearGradient><linearGradient id="k" x1="1431.56" y1="253.908" x2="1330.4" y2="253.908" gradientUnits="userSpaceOnUse"><stop offset=".443" stop-color="#fff"/><stop offset=".589" stop-color="#A1A1A1"/><stop offset=".732" stop-color="#4A4A4A"/><stop offset=".832" stop-color="#151515"/><stop offset=".88"/></linearGradient><linearGradient id="m" x1="1312.44" y1="204.621" x2="1435.86" y2="321.552" gradientUnits="userSpaceOnUse"><stop stop-color="#57C3F9" stop-opacity=".2"/><stop offset=".489" stop-color="#57C3F9"/><stop offset=".761" stop-color="#57C3F9"/><stop offset="1" stop-color="#57C3F9" stop-opacity=".5"/></linearGradient><filter id="c" x="1121.41" y="18.274" width="520.686" height="520.685" filterUnits="userSpaceOnUse" color-interpolation-filters="sRGB"><feFlood flood-opacity="0" result="BackgroundImageFix"/><feColorMatrix in="SourceAlpha" values="0 0 0 0 0 0 0 0 0 0 0 0 0 0 0 0 0 0 127 0" result="hardAlpha"/><feOffset/><feGaussianBlur stdDeviation="40"/><feComposite in2="hardAlpha" operator="out"/><feColorMatrix values="0 0 0 0 0.777767 0 0 0 0 0.797986 0 0 0 0 0.865384 0 0 0 0.4 0"/><feBlend in2="BackgroundImageFix" result="effect1_dropShadow_3031_173718"/><feBlend in="SourceGraphic" in2="effect1_dropShadow_3031_173718" result="shape"/></filter><filter id="d" x="1131.86" y="115.156" width="557.615" height="474.565" filterUnits="userSpaceOnUse" color-interpolation-filters="sRGB"><feFlood flood-opacity="0" result="BackgroundImageFix"/><feColorMatrix in="SourceAlpha" values="0 0 0 0 0 0 0 0 0 0 0 0 0 0 0 0 0 0 127 0" result="hardAlpha"/><feOffset/><feGaussianBlur stdDeviation="40"/><feComposite in2="hardAlpha" operator="out"/><feColorMatrix values="0 0 0 0 0.777767 0 0 0 0 0.797986 0 0 0 0 0.865384 0 0 0 0.4 0"/><feBlend in2="BackgroundImageFix" result="effect1_dropShadow_3031_173718"/><feBlend in="SourceGraphic" in2="effect1_dropShadow_3031_173718" result="shape"/></filter><filter id="e" x="1225.77" y="122.631" width="311.971" height="311.971" filterUnits="userSpaceOnUse" color-interpolation-filters="sRGB"><feFlood flood-opacity="0" result="BackgroundImageFix"/><feColorMatrix in="SourceAlpha" values="0 0 0 0 0 0 0 0 0 0 0 0 0 0 0 0 0 0 127 0" result="hardAlpha"/><feOffset/><feGaussianBlur stdDeviation="16"/><feComposite in2="hardAlpha" operator="out"/><feColorMatrix values="0 0 0 0 0.886275 0 0 0 0 0.894118 0 0 0 0 0.945098 0 0 0 0.6 0"/><feBlend in2="BackgroundImageFix" result="effect1_dropShadow_3031_173718"/><feBlend in="SourceGraphic" in2="effect1_dropShadow_3031_173718" result="shape"/></filter><clipPath id="a"><path fill="#fff" d="M0 0h1918v658H0z"/></clipPath></defs></svg>