<svg width="375" height="271" fill="none" xmlns="http://www.w3.org/2000/svg"><g clip-path="url(#a)"><path d="M480.904 0c-4.322 55.769-56.882 89.59-100.016 76.083-37.895-11.867-60.892-7.206-76.453 4.796-29.254 22.56-26.983 65.911-71.457 78.655-33.543 9.612-62.629-20.267-93.573-5.532-30.944 14.735-18.333 42.876-61.532 82.244s-74.517-3.741-95.896 27.479" stroke="url(#b)"/><g filter="url(#c)"><circle cx="252.761" cy="135.606" r="75.337" fill="#fff"/></g><g filter="url(#d)"><path d="M181.788 198.758a94.174 94.174 0 0 0 121.476 19.302 94.168 94.168 0 0 0 36.95-117.319l-10.743 4.625a82.48 82.48 0 0 1-32.36 102.748 82.477 82.477 0 0 1-106.389-16.905l-8.934 7.549Z" fill="#E2E4F1"/></g><g filter="url(#e)"><circle cx="252.759" cy="135.606" r="51.794" fill="#fff"/></g><path opacity=".5" d="M286.898 122.325a36.565 36.565 0 0 0-8.126-11.842 37.642 37.642 0 0 0-12.154-7.918c-4.53-1.835-9.435-2.772-14.339-2.774-4.904.002-9.808.94-14.339 2.774a37.642 37.642 0 0 0-12.154 7.918 36.565 36.565 0 0 0-8.126 11.842 35.719 35.719 0 0 0-2.848 13.972 35.719 35.719 0 0 0 2.848 13.972 36.554 36.554 0 0 0 8.126 11.842 37.626 37.626 0 0 0 12.154 7.918 38.34 38.34 0 0 0 14.339 2.774 38.363 38.363 0 0 0 14.339-2.774 37.626 37.626 0 0 0 12.154-7.918 36.554 36.554 0 0 0 8.126-11.842 35.733 35.733 0 0 0 2.848-13.972 35.737 35.737 0 0 0-2.848-13.972Zm-.518 27.734a35.998 35.998 0 0 1-8.005 11.664c-3.416 3.33-7.507 6-11.97 7.799-4.462 1.808-9.292 2.732-14.125 2.734-4.833-.002-9.663-.926-14.125-2.734a37.031 37.031 0 0 1-11.971-7.799 35.99 35.99 0 0 1-8.004-11.664 35.191 35.191 0 0 1-2.806-13.763 35.191 35.191 0 0 1 2.806-13.763 35.99 35.99 0 0 1 8.004-11.664 37.075 37.075 0 0 1 11.971-7.799 37.77 37.77 0 0 1 14.125-2.733 37.77 37.77 0 0 1 14.125 2.733 37.06 37.06 0 0 1 11.97 7.799 36.02 36.02 0 0 1 8.005 11.664 35.172 35.172 0 0 1 0 27.526Z" fill="url(#f)"/><path d="M226.332 108.306c5.855-5.184 13.4-8.508 21.3-9.393l.285 2.725c-7.311.83-14.289 3.909-19.705 8.705-5.507 4.831-9.38 11.27-10.95 18.184l-2.752-.561c1.689-7.48 5.872-14.443 11.822-19.66Z" fill="url(#g)"/><path d="M214.51 127.966c1.689-7.48 5.871-14.443 11.822-19.66 5.855-5.184 13.4-8.508 21.3-9.393l.285 2.725c-7.311.83-14.289 3.909-19.705 8.705-5.507 4.831-9.38 11.27-10.95 18.184l-2.752-.561Z" fill="url(#h)"/><path d="m213.771 136.856 2.81.002a34.1 34.1 0 0 0 2.927 13.268c1.841 4.148 4.572 7.998 7.915 11.169l-1.927 1.994c-3.619-3.425-6.576-7.59-8.568-12.077a36.782 36.782 0 0 1-3.157-14.356Z" fill="url(#i)"/><path d="m270.334 106.041 1.399-2.378c6.512 3.76 11.871 9.457 15.128 16.097 3.35 6.765 4.521 14.626 3.298 22.139-1.196 7.467-4.816 14.592-10.196 20.066-5.238 5.364-12.15 9.173-19.517 10.763l-.568-2.682c6.812-1.48 13.204-5.007 18.051-9.969 4.988-5.075 8.346-11.682 9.453-18.603 1.135-6.971.049-14.263-3.057-20.528-3.012-6.144-7.967-11.417-13.991-14.905Z" fill="url(#j)"/><path d="M272.015 120.918c0 33.378-19.73 38.179-19.73 38.179s-19.73-4.801-19.73-38.179c6.576-.52 13.017-1.247 19.73-7.236 6.714 5.989 13.154 6.716 19.73 7.236Z" stroke="#3136BD" stroke-miterlimit="10"/><path d="M252.299 113.692c6.713 5.988 13.153 6.716 19.73 7.236 0 33.378-19.73 38.178-19.73 38.178s-19.731-4.8-19.731-38.178c6.577-.52 13.017-1.248 19.731-7.236Zm0-1.668-.853.76c-1.548 1.382-3.106 2.502-4.764 3.423a23.597 23.597 0 0 1-4.676 1.979c-3.122.95-6.294 1.259-9.54 1.515l-1.159.091v1.134c0 7.752 1.061 14.633 3.154 20.453 1.691 4.704 4.058 8.732 7.032 11.972 5.132 5.59 10.283 6.892 10.5 6.945l.306.074.305-.074c.217-.053 5.368-1.355 10.5-6.945 2.975-3.24 5.341-7.268 7.033-11.972 2.092-5.82 3.154-12.701 3.154-20.453v-1.134l-1.16-.091c-3.246-.256-6.418-.565-9.54-1.515a23.622 23.622 0 0 1-4.676-1.979c-1.657-.921-3.216-2.042-4.764-3.423l-.852-.76Z" stroke="#3136BD" stroke-miterlimit="10"/><mask id="l" style="mask-type:alpha" maskUnits="userSpaceOnUse" x="231" y="111" width="43" height="49"><path d="M231.307 111.468v47.621h42.26v-47.621h-42.26Z" fill="url(#k)"/></mask><g mask="url(#l)"><path d="M249.652 116.482c0 .193-.16.349-.358.349a.353.353 0 0 1-.358-.349c0-.192.159-.349.358-.349.198 0 .358.157.358.349Zm1.117 0c0 .193-.16.349-.358.349a.354.354 0 0 1-.358-.349c0-.192.16-.349.358-.349.198 0 .358.157.358.349Zm0-1.062c0 .193-.16.349-.358.349a.354.354 0 0 1-.358-.349c0-.192.16-.349.358-.349.198 0 .358.157.358.349Zm1.119 1.062a.353.353 0 0 1-.358.349.354.354 0 0 1-.358-.349c0-.192.16-.349.358-.349.198 0 .358.157.358.349Zm0-1.062a.353.353 0 0 1-.358.349.354.354 0 0 1-.358-.349c0-.192.16-.349.358-.349.198 0 .358.157.358.349Zm.002-1.044c0 .192-.16.349-.358.349-.198 0-.167-.102-.167-.295s.237-.219.358-.349c.198 0 .167.102.167.295Zm1.118 2.106c0 .193-.16.349-.359.349a.354.354 0 0 1-.358-.349c0-.192.16-.349.358-.349.198 0 .359.157.359.349Zm0-1.062c0 .193-.16.349-.359.349a.354.354 0 0 1-.358-.349c0-.192.16-.349.358-.349.198 0 .359.157.359.349Zm0-1.045c0 .193-.16.35-.359.35a.354.354 0 0 1-.358-.35c0-.192.16-.349.358-.349.198 0 .359.157.359.349Zm1.117 2.107c0 .193-.16.349-.359.349a.354.354 0 0 1-.358-.349c0-.192.16-.349.358-.349.199 0 .359.157.359.349Zm0-1.062c0 .193-.16.349-.359.349a.354.354 0 0 1-.358-.349c0-.192.16-.349.358-.349.199 0 .359.157.359.349Zm-6.707 2.151c0 .193-.16.349-.359.349a.353.353 0 0 1-.358-.349c0-.192.16-.349.358-.349a.355.355 0 0 1 .359.349Zm1.119 0c0 .193-.16.349-.358.349a.353.353 0 0 1-.359-.349c0-.192.16-.349.359-.349a.355.355 0 0 1 .358.349Zm1.115 0c0 .193-.16.349-.358.349a.353.353 0 0 1-.358-.349c0-.192.159-.349.358-.349a.355.355 0 0 1 .358.349Zm1.117 0c0 .193-.16.349-.358.349a.353.353 0 0 1-.358-.349c0-.192.16-.349.358-.349a.355.355 0 0 1 .358.349Zm1.119 0a.353.353 0 0 1-.358.349.353.353 0 0 1-.358-.349c0-.192.16-.349.358-.349a.355.355 0 0 1 .358.349Zm1.12 0c0 .193-.16.349-.359.349a.353.353 0 0 1-.358-.349c0-.192.16-.349.358-.349a.355.355 0 0 1 .359.349Zm1.117 0c0 .193-.16.349-.359.349a.353.353 0 0 1-.358-.349c0-.192.16-.349.358-.349a.355.355 0 0 1 .359.349Zm-8.944 1.09c0 .193-.16.349-.358.349a.354.354 0 0 1-.358-.349c0-.192.16-.349.358-.349.198 0 .358.156.358.349Zm1.118 0c0 .193-.16.349-.359.349a.354.354 0 0 1-.358-.349c0-.192.16-.349.358-.349.199 0 .359.156.359.349Zm1.119 0c0 .193-.16.349-.359.349a.354.354 0 0 1-.358-.349c0-.192.16-.349.358-.349.199 0 .359.156.359.349Zm1.119 0c0 .193-.16.349-.358.349a.354.354 0 0 1-.359-.349c0-.192.16-.349.359-.349.197 0 .358.156.358.349Zm1.115 0c0 .193-.16.349-.358.349a.353.353 0 0 1-.358-.349c0-.192.159-.349.358-.349.198 0 .358.156.358.349Zm1.117 0c0 .193-.16.349-.358.349a.354.354 0 0 1-.358-.349c0-.192.16-.349.358-.349.198 0 .358.156.358.349Zm1.119 0a.353.353 0 0 1-.358.349.354.354 0 0 1-.358-.349c0-.192.16-.349.358-.349.198 0 .358.156.358.349Zm1.12 0c0 .193-.16.349-.359.349a.354.354 0 0 1-.358-.349c0-.192.16-.349.358-.349.198 0 .359.156.359.349Zm1.117 0c0 .193-.16.349-.359.349a.354.354 0 0 1-.358-.349c0-.192.16-.349.358-.349.199 0 .359.156.359.349Zm-12.297 1.089c0 .193-.16.35-.358.35a.354.354 0 0 1-.359-.35c0-.192.16-.349.359-.349.198 0 .358.157.358.349Zm1.117 0c0 .193-.16.35-.358.35a.353.353 0 0 1-.358-.35c0-.192.159-.349.358-.349.198 0 .358.157.358.349Zm1.119 0c0 .193-.16.35-.358.35a.353.353 0 0 1-.358-.35c0-.192.16-.349.358-.349.197 0 .358.157.358.349Zm1.117 0c0 .193-.16.349-.358.349a.353.353 0 0 1-.358-.349c0-.192.16-.349.358-.349.198 0 .358.157.358.349Zm1.118 0c0 .193-.16.35-.359.35a.354.354 0 0 1-.358-.35c0-.192.16-.349.358-.349.199 0 .359.157.359.349Zm1.119 0c0 .193-.16.349-.359.349a.353.353 0 0 1-.358-.349c0-.192.16-.349.358-.349.199 0 .359.157.359.349Zm1.119 0c0 .193-.16.35-.358.35a.354.354 0 0 1-.359-.35c0-.192.16-.349.359-.349.197 0 .358.157.358.349Zm1.115 0c0 .193-.16.35-.358.35a.353.353 0 0 1-.358-.35c0-.192.159-.349.358-.349.198 0 .358.157.358.349Zm1.117 0c0 .193-.16.35-.358.35a.354.354 0 0 1-.358-.35c0-.192.16-.349.358-.349.198 0 .358.157.358.349Zm1.119 0c0 .193-.159.35-.358.35a.354.354 0 0 1-.358-.35c0-.192.16-.349.358-.349.198 0 .358.157.358.349Zm1.12 0c0 .193-.16.35-.359.35a.354.354 0 0 1-.358-.35c0-.192.16-.349.358-.349.198 0 .359.157.359.349Zm1.117 0c0 .193-.16.35-.359.35a.354.354 0 0 1-.358-.35c0-.192.16-.349.358-.349.199 0 .359.157.359.349Zm-20.123 1.089c0 .193-.16.349-.359.349a.353.353 0 0 1-.358-.349c0-.192.147-.153.345-.153.199 0 .372-.039.372.153Zm3.353 0c0 .193-.16.349-.358.349a.353.353 0 0 1-.358-.349c0-.192.16-.349.358-.349.197 0 .358.157.358.349Zm1.119 0c0 .193-.16.349-.358.349a.353.353 0 0 1-.358-.349c0-.192.16-.349.358-.349.198 0 .358.157.358.349Zm-3.355 0c0 .193-.16.349-.358.349a.353.353 0 0 1-.359-.349c0-.192.16-.24.359-.24.198 0 .358.048.358.24Zm1.121 0c0 .193-.16.349-.358.349a.353.353 0 0 1-.359-.349c0-.192.16-.349.359-.349.197 0 .358.157.358.349Zm3.352 0c0 .193-.16.349-.359.349a.353.353 0 0 1-.358-.349c0-.192.16-.349.358-.349.199 0 .359.157.359.349Zm1.119 0c0 .193-.16.349-.359.349a.353.353 0 0 1-.358-.349c0-.192.16-.349.358-.349.198 0 .359.157.359.349Zm1.117 0c0 .193-.16.349-.358.349a.353.353 0 0 1-.359-.349c0-.192.16-.349.359-.349.198 0 .358.157.358.349Zm1.117 0c0 .193-.16.349-.358.349a.353.353 0 0 1-.358-.349c0-.192.159-.349.358-.349.198 0 .358.157.358.349Zm1.119 0c0 .193-.16.349-.358.349a.353.353 0 0 1-.358-.349c0-.192.16-.349.358-.349.197 0 .358.157.358.349Zm2.235 0c0 .193-.16.349-.359.349a.353.353 0 0 1-.358-.349c0-.192.16-.349.358-.349.199 0 .359.157.359.349Zm-1.118 0c0 .193-.16.349-.358.349a.353.353 0 0 1-.358-.349c0-.192.16-.349.358-.349.198 0 .358.157.358.349Zm2.237 0c0 .193-.16.349-.359.349a.353.353 0 0 1-.358-.349c0-.192.16-.349.358-.349.199 0 .359.157.359.349Zm1.119 0c0 .193-.16.349-.358.349a.353.353 0 0 1-.359-.349c0-.192.16-.349.359-.349.197 0 .358.157.358.349Zm1.115 0c0 .193-.16.349-.358.349a.353.353 0 0 1-.358-.349c0-.192.159-.349.358-.349.198 0 .358.157.358.349Zm1.117 0c0 .193-.16.349-.358.349a.353.353 0 0 1-.358-.349c0-.192.16-.349.358-.349.198 0 .358.157.358.349Zm1.119 0a.353.353 0 0 1-.358.349.353.353 0 0 1-.358-.349c0-.192.16-.349.358-.349.198 0 .358.157.358.349Zm1.12 0c0 .193-.16.349-.359.349a.353.353 0 0 1-.358-.349c0-.192.16-.349.358-.349.198 0 .359.157.359.349Zm1.117 0c0 .193-.16.349-.359.349a.353.353 0 0 1-.358-.349c0-.192.16-.349.358-.349.199 0 .359.157.359.349Zm-21.241 1.089c0 .193-.16.35-.358.35-.198 0-.102-.18-.102-.373 0-.192-.097-.326.102-.326a.355.355 0 0 1 .358.349Zm1.118 0c0 .193-.16.35-.359.35a.354.354 0 0 1-.358-.35c0-.192.16-.349.358-.349a.355.355 0 0 1 .359.349Zm1.117 0c0 .193-.16.35-.358.35a.354.354 0 0 1-.359-.35c0-.192.16-.349.359-.349a.355.355 0 0 1 .358.349Zm1.121 0c0 .193-.16.35-.358.35a.354.354 0 0 1-.359-.35c0-.192.16-.349.359-.349a.355.355 0 0 1 .358.349Zm1.115 0c0 .193-.16.35-.358.35a.353.353 0 0 1-.358-.35c0-.192.16-.349.358-.349a.355.355 0 0 1 .358.349Zm3.356 0c0 .193-.16.35-.359.35a.354.354 0 0 1-.358-.35c0-.192.16-.349.358-.349a.355.355 0 0 1 .359.349Zm1.117 0c0 .193-.16.35-.358.35a.354.354 0 0 1-.359-.35c0-.192.16-.349.359-.349a.355.355 0 0 1 .358.349Zm-3.354 0c0 .193-.16.35-.358.35a.354.354 0 0 1-.358-.35c0-.192.16-.349.358-.349a.355.355 0 0 1 .358.349Zm1.118 0c0 .193-.16.35-.359.35a.354.354 0 0 1-.358-.35c0-.192.16-.349.358-.349a.355.355 0 0 1 .359.349Zm4.472 0c0 .193-.16.35-.358.35a.353.353 0 0 1-.358-.35c0-.192.16-.349.358-.349a.355.355 0 0 1 .358.349Zm-1.119 0c0 .193-.16.35-.358.35a.353.353 0 0 1-.358-.35c0-.192.159-.349.358-.349a.355.355 0 0 1 .358.349Zm2.236 0c0 .193-.16.35-.358.35a.354.354 0 0 1-.358-.35c0-.192.16-.349.358-.349a.355.355 0 0 1 .358.349Zm1.118 0c0 .193-.16.35-.359.35a.354.354 0 0 1-.358-.35c0-.192.16-.349.358-.349a.355.355 0 0 1 .359.349Zm1.119 0c0 .193-.16.35-.359.35a.354.354 0 0 1-.358-.35c0-.192.16-.349.358-.349a.355.355 0 0 1 .359.349Zm1.119 0c0 .193-.16.35-.358.35a.354.354 0 0 1-.359-.35c0-.192.16-.349.359-.349a.355.355 0 0 1 .358.349Zm1.115 0c0 .193-.16.35-.358.35a.353.353 0 0 1-.358-.35c0-.192.159-.349.358-.349a.355.355 0 0 1 .358.349Zm1.117 0c0 .193-.16.35-.358.35a.354.354 0 0 1-.358-.35c0-.192.16-.349.358-.349a.355.355 0 0 1 .358.349Zm1.119 0c0 .193-.159.35-.358.35a.354.354 0 0 1-.358-.35c0-.192.16-.349.358-.349a.355.355 0 0 1 .358.349Zm1.12 0c0 .193-.16.35-.359.35a.354.354 0 0 1-.358-.35c0-.192.16-.349.358-.349a.355.355 0 0 1 .359.349Zm1.117 0c0 .193-.16.35-.359.35a.354.354 0 0 1-.358-.35c0-.192.16-.349.358-.349a.355.355 0 0 1 .359.349Zm-20.123 1.09c0 .193-.16.349-.359.349a.353.353 0 0 1-.358-.349c0-.192.16-.349.358-.349.199 0 .359.156.359.349Zm2.238 0c0 .193-.16.349-.358.349a.353.353 0 0 1-.359-.349c0-.192.16-.349.359-.349.197 0 .358.156.358.349Zm-1.121 0c0 .193-.16.349-.358.349a.353.353 0 0 1-.359-.349c0-.192.16-.349.359-.349.198 0 .358.156.358.349Zm2.236 0c0 .193-.16.349-.358.349a.353.353 0 0 1-.358-.349c0-.192.16-.349.358-.349.197 0 .358.156.358.349Zm1.119 0c0 .193-.16.349-.358.349a.353.353 0 0 1-.358-.349c0-.192.16-.349.358-.349.198 0 .358.156.358.349Zm1.118 0c0 .193-.16.349-.359.349a.353.353 0 0 1-.358-.349c0-.192.16-.349.358-.349.199 0 .359.156.359.349Zm1.119 0c0 .193-.16.349-.359.349a.353.353 0 0 1-.358-.349c0-.192.16-.349.358-.349.198 0 .359.156.359.349Zm1.117 0c0 .193-.16.349-.358.349a.353.353 0 0 1-.359-.349c0-.192.16-.349.359-.349.198 0 .358.156.358.349Zm1.117 0c0 .193-.16.349-.358.349a.353.353 0 0 1-.358-.349c0-.192.159-.349.358-.349.198 0 .358.156.358.349Zm1.119 0c0 .193-.16.349-.358.349a.353.353 0 0 1-.358-.349c0-.192.16-.349.358-.349.197 0 .358.156.358.349Zm1.117 0c0 .193-.16.349-.358.349a.353.353 0 0 1-.358-.349c0-.192.16-.349.358-.349.198 0 .358.156.358.349Zm1.118 0c0 .193-.16.349-.359.349a.353.353 0 0 1-.358-.349c0-.192.16-.349.358-.349.199 0 .359.156.359.349Zm1.119 0c0 .193-.16.349-.359.349a.353.353 0 0 1-.358-.349c0-.192.16-.349.358-.349.199 0 .359.156.359.349Zm1.119 0c0 .193-.16.349-.358.349a.353.353 0 0 1-.359-.349c0-.192.16-.349.359-.349.197 0 .358.156.358.349Zm1.115 0c0 .193-.16.349-.358.349a.353.353 0 0 1-.358-.349c0-.192.159-.349.358-.349.198 0 .358.156.358.349Zm1.117 0c0 .193-.16.349-.358.349a.353.353 0 0 1-.358-.349c0-.192.16-.349.358-.349.198 0 .358.156.358.349Zm1.119 0a.353.353 0 0 1-.358.349.353.353 0 0 1-.358-.349c0-.192.16-.349.358-.349.198 0 .358.156.358.349Zm1.12 0c0 .193-.16.349-.359.349a.353.353 0 0 1-.358-.349c0-.192.16-.349.358-.349.198 0 .359.156.359.349Zm1.117 0c0 .193-.16.349-.359.349a.353.353 0 0 1-.358-.349c0-.192.16-.349.358-.349.199 0 .359.156.359.349Zm-21.241 1.089c0 .193-.16.349-.358.349-.198 0-.09-.155-.09-.349 0-.192-.109-.349.09-.349.197 0 .358.157.358.349Zm1.118.001c0 .192-.16.349-.359.349a.354.354 0 0 1-.358-.349c0-.193.16-.35.358-.35.199 0 .359.157.359.35Zm1.117-.001c0 .193-.16.349-.358.349a.353.353 0 0 1-.359-.349c0-.192.16-.349.359-.349.198 0 .358.157.358.349Zm2.236 0c0 .193-.16.349-.358.349a.353.353 0 0 1-.358-.349c0-.192.16-.349.358-.349.197 0 .358.157.358.349Zm-1.115 0c0 .193-.16.349-.358.349a.353.353 0 0 1-.359-.349c0-.192.16-.349.359-.349.197 0 .358.157.358.349Zm3.352 0c0 .193-.16.349-.359.349a.353.353 0 0 1-.358-.349c0-.192.16-.349.358-.349.199 0 .359.157.359.349Zm2.236 0c0 .193-.16.349-.358.349a.353.353 0 0 1-.359-.349c0-.192.16-.349.359-.349.198 0 .358.157.358.349Zm1.117 0c0 .193-.16.349-.358.349a.353.353 0 0 1-.358-.349c0-.192.159-.349.358-.349.198 0 .358.157.358.349Zm1.119 0c0 .193-.16.349-.358.349a.353.353 0 0 1-.358-.349c0-.192.16-.349.358-.349.197 0 .358.157.358.349Zm-5.59 0c0 .193-.16.349-.358.349a.353.353 0 0 1-.358-.349c0-.192.16-.349.358-.349.198 0 .358.157.358.349Zm2.237 0c0 .193-.16.349-.359.349a.353.353 0 0 1-.358-.349c0-.192.16-.349.358-.349.198 0 .359.157.359.349Zm4.47.001c0 .192-.16.349-.358.349a.354.354 0 0 1-.358-.349c0-.193.16-.35.358-.35.198 0 .358.157.358.35Zm1.118-.001c0 .193-.16.349-.359.349a.353.353 0 0 1-.358-.349c0-.192.16-.349.358-.349.199 0 .359.157.359.349Zm1.119.001c0 .192-.16.349-.359.349a.354.354 0 0 1-.358-.349c0-.193.16-.35.358-.35.199 0 .359.157.359.35Zm1.119-.001c0 .193-.16.349-.358.349a.353.353 0 0 1-.359-.349c0-.192.16-.349.359-.349.197 0 .358.157.358.349Zm1.115 0c0 .193-.16.349-.358.349a.353.353 0 0 1-.358-.349c0-.192.159-.349.358-.349.198 0 .358.157.358.349Zm1.117 0c0 .193-.16.349-.358.349a.353.353 0 0 1-.358-.349c0-.192.16-.349.358-.349.198 0 .358.157.358.349Zm1.119 0a.353.353 0 0 1-.358.349.353.353 0 0 1-.358-.349c0-.192.16-.349.358-.349.198 0 .358.157.358.349Zm1.12 0c0 .193-.16.349-.359.349a.353.353 0 0 1-.358-.349c0-.192.16-.349.358-.349.198 0 .359.157.359.349Zm1.117 0c0 .193-.16.349-.359.349a.353.353 0 0 1-.358-.349c0-.192.16-.349.358-.349.199 0 .359.157.359.349Zm-20.123 1.09c0 .192-.16.349-.359.349a.354.354 0 0 1-.358-.349c0-.193.16-.35.358-.35a.355.355 0 0 1 .359.35Zm-1.118-2.179c0 .193-.16.349-.358.349-.198 0-.102-.155-.102-.349 0-.192-.097-.349.102-.349.197 0 .358.156.358.349Zm2.235 2.179c0 .192-.16.349-.358.349a.354.354 0 0 1-.359-.349c0-.193.16-.35.359-.35a.355.355 0 0 1 .358.35Zm1.121 0c0 .192-.16.349-.358.349a.354.354 0 0 1-.359-.349c0-.193.16-.35.359-.35a.355.355 0 0 1 .358.35Zm2.234 0c0 .192-.16.349-.358.349a.354.354 0 0 1-.358-.349c0-.193.16-.35.358-.35a.355.355 0 0 1 .358.35Zm1.118 0c0 .192-.16.349-.359.349a.354.354 0 0 1-.358-.349c0-.193.16-.35.358-.35a.355.355 0 0 1 .359.35Zm1.119 0c0 .192-.16.349-.359.349a.354.354 0 0 1-.358-.349c0-.193.16-.35.358-.35a.356.356 0 0 1 .359.35Zm1.117 0c0 .192-.16.349-.358.349a.354.354 0 0 1-.359-.349c0-.193.16-.35.359-.35a.355.355 0 0 1 .358.35Zm2.236 0c0 .192-.16.349-.358.349a.353.353 0 0 1-.358-.349c0-.193.16-.35.358-.35a.355.355 0 0 1 .358.35Zm2.235 0c0 .192-.16.349-.359.349a.354.354 0 0 1-.358-.349c0-.193.16-.35.358-.35a.355.355 0 0 1 .359.35Zm-3.354 0c0 .192-.16.349-.358.349a.353.353 0 0 1-.358-.349c0-.193.159-.35.358-.35a.355.355 0 0 1 .358.35Zm2.236 0c0 .192-.16.349-.358.349a.354.354 0 0 1-.358-.349c0-.193.16-.35.358-.35a.355.355 0 0 1 .358.35Zm2.237 0c0 .192-.16.349-.359.349a.354.354 0 0 1-.358-.349c0-.193.16-.35.358-.35a.355.355 0 0 1 .359.35Zm1.119 0c0 .192-.16.349-.358.349a.354.354 0 0 1-.359-.349c0-.193.16-.35.359-.35a.355.355 0 0 1 .358.35Zm1.115 0c0 .192-.16.349-.358.349a.353.353 0 0 1-.358-.349c0-.193.159-.35.358-.35a.355.355 0 0 1 .358.35Zm1.117 0c0 .192-.16.349-.358.349a.354.354 0 0 1-.358-.349c0-.193.16-.35.358-.35a.355.355 0 0 1 .358.35Zm1.119 0a.353.353 0 0 1-.358.349.354.354 0 0 1-.358-.349c0-.193.16-.35.358-.35a.355.355 0 0 1 .358.35Zm1.12 0c0 .192-.16.349-.359.349a.354.354 0 0 1-.358-.349c0-.193.16-.35.358-.35a.356.356 0 0 1 .359.35Zm1.117 0c0 .192-.16.349-.359.349a.354.354 0 0 1-.358-.349c0-.193.16-.35.358-.35a.355.355 0 0 1 .359.35Zm-20.123 1.09c0 .192-.16.349-.359.349a.354.354 0 0 1-.358-.349c0-.193.16-.349.358-.349.199 0 .359.155.359.349Zm1.117 0c0 .192-.16.349-.358.349a.354.354 0 0 1-.359-.349c0-.193.16-.349.359-.349.198 0 .358.155.358.349Zm1.121 0c0 .192-.16.349-.358.349a.354.354 0 0 1-.359-.349c0-.193.16-.349.359-.349.197 0 .358.155.358.349Zm1.115 0c0 .192-.16.349-.358.349a.353.353 0 0 1-.358-.349c0-.193.16-.349.358-.349.197 0 .358.155.358.349Zm1.119 0c0 .192-.16.349-.358.349a.354.354 0 0 1-.358-.349c0-.193.16-.349.358-.349.198 0 .358.155.358.349Zm1.118 0c0 .192-.16.349-.359.349a.354.354 0 0 1-.358-.349c0-.193.16-.349.358-.349.199 0 .359.155.359.349Zm1.119 0c0 .192-.16.349-.359.349a.354.354 0 0 1-.358-.349c0-.193.16-.349.358-.349.198 0 .359.155.359.349Zm1.117 0c0 .192-.16.349-.358.349a.354.354 0 0 1-.359-.349c0-.193.16-.349.359-.349.198 0 .358.155.358.349Zm1.117 0c0 .192-.16.349-.358.349a.353.353 0 0 1-.358-.349c0-.193.159-.349.358-.349.198 0 .358.155.358.349Zm1.119 0c0 .192-.16.349-.358.349a.353.353 0 0 1-.358-.349c0-.193.16-.349.358-.349.197 0 .358.155.358.349Zm1.117 0c0 .192-.16.349-.358.349a.354.354 0 0 1-.358-.349c0-.193.16-.349.358-.349.198 0 .358.155.358.349Zm1.118 0c0 .192-.16.349-.359.349a.354.354 0 0 1-.358-.349c0-.193.16-.349.358-.349.199 0 .359.155.359.349Zm1.119 0c0 .192-.16.349-.359.349a.354.354 0 0 1-.358-.349c0-.193.16-.349.358-.349.199 0 .359.155.359.349Zm1.119 0c0 .192-.16.349-.358.349a.354.354 0 0 1-.359-.349c0-.193.16-.349.359-.349.197 0 .358.155.358.349Zm1.115 0c0 .192-.16.349-.358.349a.353.353 0 0 1-.358-.349c0-.193.159-.349.358-.349.198 0 .358.155.358.349Zm1.117 0c0 .192-.16.349-.358.349a.354.354 0 0 1-.358-.349c0-.193.16-.349.358-.349.198 0 .358.155.358.349Zm1.119 0a.353.353 0 0 1-.358.349.354.354 0 0 1-.358-.349c0-.193.16-.349.358-.349.198 0 .358.155.358.349Zm1.12 0c0 .192-.16.349-.359.349a.354.354 0 0 1-.358-.349c0-.193.16-.349.358-.349.198 0 .359.155.359.349Zm1.117 0c0 .192-.16.349-.359.349a.354.354 0 0 1-.358-.349c0-.193.16-.349.358-.349.199 0 .359.155.359.349Zm-19.006 1.089c0 .192-.16.349-.358.349a.354.354 0 0 1-.359-.349c0-.193.16-.349.359-.349.198 0 .358.156.358.349Zm1.121 0c0 .192-.16.349-.358.349a.354.354 0 0 1-.359-.349c0-.193.16-.349.359-.349.197 0 .358.156.358.349Zm1.115 0c0 .192-.16.349-.358.349a.353.353 0 0 1-.358-.349c0-.193.16-.349.358-.349.197 0 .358.156.358.349Zm1.119 0c0 .192-.16.349-.358.349a.354.354 0 0 1-.358-.349c0-.193.16-.349.358-.349.198 0 .358.156.358.349Zm2.237 0c0 .192-.16.349-.359.349a.354.354 0 0 1-.358-.349c0-.193.16-.349.358-.349.198 0 .359.156.359.349Zm2.234 0c0 .192-.16.349-.358.349a.353.353 0 0 1-.358-.349c0-.193.159-.349.358-.349.198 0 .358.156.358.349Zm-3.353 0c0 .192-.16.349-.359.349a.354.354 0 0 1-.358-.349c0-.193.16-.349.358-.349.199 0 .359.156.359.349Zm2.236 0c0 .192-.16.349-.358.349a.354.354 0 0 1-.359-.349c0-.193.16-.349.359-.349.198 0 .358.156.358.349Zm2.236 0c0 .192-.16.349-.358.349a.353.353 0 0 1-.358-.349c0-.193.16-.349.358-.349.197 0 .358.156.358.349Zm1.117 0c0 .192-.16.349-.358.349a.354.354 0 0 1-.358-.349c0-.193.16-.349.358-.349.198 0 .358.156.358.349Zm1.118 0c0 .192-.16.349-.359.349a.354.354 0 0 1-.358-.349c0-.193.16-.349.358-.349.199 0 .359.156.359.349Zm1.119 0c0 .192-.16.349-.359.349a.354.354 0 0 1-.358-.349c0-.193.16-.349.358-.349.199 0 .359.156.359.349Zm1.119 0c0 .192-.16.349-.358.349a.354.354 0 0 1-.359-.349c0-.193.16-.349.359-.349.197 0 .358.156.358.349Zm1.115 0c0 .192-.16.349-.358.349a.353.353 0 0 1-.358-.349c0-.193.159-.349.358-.349.198 0 .358.156.358.349Zm1.117 0c0 .192-.16.349-.358.349a.354.354 0 0 1-.358-.349c0-.193.16-.349.358-.349.198 0 .358.156.358.349Zm1.119 0a.353.353 0 0 1-.358.349.354.354 0 0 1-.358-.349c0-.193.16-.349.358-.349.198 0 .358.156.358.349Zm1.12 0c0 .192-.16.349-.359.349a.354.354 0 0 1-.358-.349c0-.193.16-.349.358-.349.198 0 .359.156.359.349Zm1.117 0c0 .192-.16.349-.359.349a.354.354 0 0 1-.358-.349c0-.193.16-.349.358-.349.199 0 .359.156.359.349Zm-19.006 1.089c0 .192-.16.349-.358.349a.354.354 0 0 1-.359-.349c0-.193.16-.349.359-.349.198 0 .358.156.358.349Zm-1.117-1.089c0 .192-.16.349-.359.349a.354.354 0 0 1-.358-.349c0-.193.16-.349.358-.349.199 0 .359.156.359.349Zm0 1.089c0 .192-.16.349-.359.349a.354.354 0 0 1-.358-.349c0-.192.16-.349.358-.349.199 0 .359.157.359.349Zm2.238 0c0 .192-.16.349-.358.349a.354.354 0 0 1-.359-.349c0-.193.16-.349.359-.349.197 0 .358.156.358.349Zm2.234 0c0 .192-.16.349-.358.349a.354.354 0 0 1-.358-.349c0-.193.16-.349.358-.349.198 0 .358.156.358.349Zm-1.119-3.268c0 .192-.16.349-.358.349a.353.353 0 0 1-.358-.349c0-.193.16-.35.358-.35a.355.355 0 0 1 .358.35Zm0 3.268c0 .192-.16.349-.358.349a.353.353 0 0 1-.358-.349c0-.193.16-.349.358-.349.197 0 .358.156.358.349Zm2.237 0c0 .192-.16.349-.359.349a.354.354 0 0 1-.358-.349c0-.193.16-.349.358-.349.199 0 .359.156.359.349Zm1.119 0c0 .192-.16.349-.359.349a.354.354 0 0 1-.358-.349c0-.193.16-.349.358-.349.198 0 .359.156.359.349Zm1.117 0c0 .192-.16.349-.358.349a.354.354 0 0 1-.359-.349c0-.193.16-.349.359-.349.198 0 .358.156.358.349Zm1.117 0c0 .192-.16.349-.358.349a.353.353 0 0 1-.358-.349c0-.193.159-.349.358-.349.198 0 .358.156.358.349Zm2.236 0c0 .192-.16.349-.358.349a.354.354 0 0 1-.358-.349c0-.192.16-.349.358-.349.198 0 .358.157.358.349Zm-1.117 0c0 .192-.16.349-.358.349a.353.353 0 0 1-.358-.349c0-.193.16-.349.358-.349.197 0 .358.156.358.349Zm2.235 0c0 .192-.16.349-.359.349a.354.354 0 0 1-.358-.349c0-.193.16-.349.358-.349.199 0 .359.156.359.349Zm1.119 0c0 .192-.16.349-.359.349a.354.354 0 0 1-.358-.349c0-.192.16-.349.358-.349.199 0 .359.157.359.349Zm1.119 0c0 .192-.16.349-.358.349a.354.354 0 0 1-.359-.349c0-.193.16-.349.359-.349.197 0 .358.156.358.349Zm1.115 0c0 .192-.16.349-.358.349a.353.353 0 0 1-.358-.349c0-.193.159-.349.358-.349.198 0 .358.156.358.349Zm1.117 0c0 .192-.16.349-.358.349a.354.354 0 0 1-.358-.349c0-.193.16-.349.358-.349.198 0 .358.156.358.349Zm1.119 0a.353.353 0 0 1-.358.349.354.354 0 0 1-.358-.349c0-.193.16-.349.358-.349.198 0 .358.156.358.349Zm1.12 0c0 .192-.16.349-.359.349a.354.354 0 0 1-.358-.349c0-.193.16-.349.358-.349.198 0 .359.156.359.349Zm1.117 0c0 .192-.16.349-.359.349a.354.354 0 0 1-.358-.349c0-.193.16-.349.358-.349.199 0 .359.156.359.349Zm-20.123 1.089c0 .192-.16.349-.359.349a.354.354 0 0 1-.358-.349c0-.193.16-.349.358-.349.199 0 .359.156.359.349Zm1.117 0c0 .192-.16.349-.358.349a.354.354 0 0 1-.359-.349c0-.193.16-.349.359-.349.198 0 .358.156.358.349Zm1.121 0c0 .192-.16.349-.358.349a.354.354 0 0 1-.359-.349c0-.193.16-.349.359-.349.197 0 .358.156.358.349Zm1.115 0c0 .192-.16.349-.358.349a.353.353 0 0 1-.358-.349c0-.193.16-.349.358-.349.197 0 .358.156.358.349Zm3.356 0c0 .192-.16.349-.359.349a.354.354 0 0 1-.358-.349c0-.193.16-.349.358-.349.198 0 .359.156.359.349Zm2.234 0c0 .192-.16.349-.358.349a.353.353 0 0 1-.358-.349c0-.193.159-.349.358-.349.198 0 .358.156.358.349Zm1.119 0c0 .192-.16.349-.358.349a.353.353 0 0 1-.358-.349c0-.193.16-.349.358-.349.197 0 .358.156.358.349Zm1.117 0c0 .192-.16.349-.358.349a.354.354 0 0 1-.358-.349c0-.193.16-.349.358-.349.198 0 .358.156.358.349Zm1.118 0c0 .192-.16.349-.359.349a.354.354 0 0 1-.358-.349c0-.193.16-.349.358-.349.199 0 .359.156.359.349Zm1.119 0c0 .192-.16.349-.359.349a.354.354 0 0 1-.358-.349c0-.193.16-.349.358-.349.199 0 .359.156.359.349Zm1.119 0c0 .192-.16.349-.358.349a.354.354 0 0 1-.359-.349c0-.193.16-.349.359-.349.197 0 .358.156.358.349Zm1.115 0c0 .192-.16.349-.358.349a.353.353 0 0 1-.358-.349c0-.193.159-.349.358-.349.198 0 .358.156.358.349Zm1.117 0c0 .192-.16.349-.358.349a.354.354 0 0 1-.358-.349c0-.193.16-.349.358-.349.198 0 .358.156.358.349Zm1.119 0a.353.353 0 0 1-.358.349.354.354 0 0 1-.358-.349c0-.193.16-.349.358-.349.198 0 .358.156.358.349Zm1.12 0c0 .192-.16.349-.359.349a.354.354 0 0 1-.358-.349c0-.193.16-.349.358-.349.198 0 .359.156.359.349Zm1.117 0c0 .192-.16.349-.359.349a.354.354 0 0 1-.358-.349c0-.193.16-.349.358-.349.199 0 .359.156.359.349Zm-20.123 1.09c0 .192-.16.349-.359.349a.354.354 0 0 1-.358-.349c0-.193.16-.349.358-.349.199 0 .359.156.359.349Zm2.238 0c0 .192-.16.349-.358.349a.354.354 0 0 1-.359-.349c0-.193.16-.349.359-.349.197 0 .358.156.358.349Zm-1.121 0c0 .192-.16.349-.358.349a.354.354 0 0 1-.359-.349c0-.193.16-.349.359-.349.198 0 .358.156.358.349Zm2.236 0c0 .192-.16.349-.358.349a.353.353 0 0 1-.358-.349c0-.193.16-.349.358-.349.197 0 .358.156.358.349Zm1.119 0c0 .192-.16.349-.358.349a.354.354 0 0 1-.358-.349c0-.193.16-.349.358-.349.198 0 .358.156.358.349Zm2.237 0c0 .192-.16.349-.359.349a.354.354 0 0 1-.358-.349c0-.193.16-.349.358-.349.198 0 .359.156.359.349Zm1.117 0c0 .192-.16.349-.358.349a.354.354 0 0 1-.359-.349c0-.193.16-.349.359-.349.198 0 .358.156.358.349Zm1.117 0c0 .192-.16.349-.358.349a.353.353 0 0 1-.358-.349c0-.193.159-.349.358-.349.198 0 .358.156.358.349Zm1.119 0c0 .192-.16.349-.358.349a.353.353 0 0 1-.358-.349c0-.193.16-.349.358-.349.197 0 .358.156.358.349Zm1.117 0c0 .192-.16.349-.358.349a.354.354 0 0 1-.358-.349c0-.193.16-.349.358-.349.198 0 .358.156.358.349Zm1.118 0c0 .192-.16.349-.359.349a.354.354 0 0 1-.358-.349c0-.193.16-.349.358-.349.199 0 .359.156.359.349Zm1.119 0c0 .192-.16.349-.359.349a.354.354 0 0 1-.358-.349c0-.193.16-.349.358-.349.199 0 .359.156.359.349Zm1.119 0c0 .192-.16.349-.358.349a.354.354 0 0 1-.359-.349c0-.193.16-.349.359-.349.197 0 .358.156.358.349Zm1.115 0c0 .192-.16.349-.358.349a.353.353 0 0 1-.358-.349c0-.193.159-.349.358-.349.198 0 .358.156.358.349Zm1.117 0c0 .192-.16.349-.358.349a.354.354 0 0 1-.358-.349c0-.193.16-.349.358-.349.198 0 .358.156.358.349Zm1.119 0a.353.353 0 0 1-.358.349.354.354 0 0 1-.358-.349c0-.193.16-.349.358-.349.198 0 .358.156.358.349Zm1.12 0c0 .192-.16.349-.359.349a.354.354 0 0 1-.358-.349c0-.193.16-.349.358-.349.198 0 .359.156.359.349Zm1.117 0c0 .192-.16.349-.359.349a.354.354 0 0 1-.358-.349c0-.193.16-.349.358-.349.199 0 .359.156.359.349Zm-20.123 1.089c0 .192-.16.349-.359.349a.354.354 0 0 1-.358-.349c0-.193.16-.349.358-.349.199 0 .359.156.359.349Zm1.117 0c0 .192-.16.349-.358.349a.354.354 0 0 1-.359-.349c0-.193.16-.349.359-.349.198 0 .358.156.358.349Zm1.121 0c0 .192-.16.349-.358.349a.354.354 0 0 1-.359-.349c0-.193.16-.349.359-.349.197 0 .358.156.358.349Zm1.115 0c0 .192-.16.349-.358.349a.353.353 0 0 1-.358-.349c0-.193.16-.349.358-.349.197 0 .358.156.358.349Zm1.119 0c0 .192-.16.349-.358.349a.354.354 0 0 1-.358-.349c0-.193.16-.349.358-.349.198 0 .358.156.358.349Zm2.237 0c0 .192-.16.349-.359.349a.354.354 0 0 1-.358-.349c0-.193.16-.349.358-.349.198 0 .359.156.359.349Zm-1.119-2.179c0 .192-.16.349-.359.349a.354.354 0 0 1-.358-.349c0-.193.16-.349.358-.349.199 0 .359.156.359.349Zm-1.118 0c0 .192-.16.349-.358.349a.354.354 0 0 1-.358-.349c0-.193.16-.349.358-.349.198 0 .358.156.358.349Zm1.118 1.09c0 .192-.16.349-.359.349a.354.354 0 0 1-.358-.349c0-.193.16-.349.358-.349.199 0 .359.156.359.349Zm0 1.089c0 .192-.16.349-.359.349a.354.354 0 0 1-.358-.349c0-.193.16-.349.358-.349.199 0 .359.156.359.349Zm3.353 0c0 .192-.16.349-.358.349a.353.353 0 0 1-.358-.349c0-.193.159-.349.358-.349.198 0 .358.156.358.349Zm-1.117-2.179c0 .192-.16.349-.358.349a.354.354 0 0 1-.359-.349c0-.193.16-.349.359-.349.198 0 .358.156.358.349Zm0 2.179c0 .192-.16.349-.358.349a.354.354 0 0 1-.359-.349c0-.193.16-.349.359-.349.198 0 .358.156.358.349Zm2.236 0c0 .192-.16.349-.358.349a.353.353 0 0 1-.358-.349c0-.193.16-.349.358-.349.197 0 .358.156.358.349Zm1.117 0c0 .192-.16.349-.358.349a.354.354 0 0 1-.358-.349c0-.193.16-.349.358-.349.198 0 .358.156.358.349Zm1.118 0c0 .192-.16.349-.359.349a.354.354 0 0 1-.358-.349c0-.193.16-.349.358-.349.199 0 .359.156.359.349Zm1.119 0c0 .192-.16.349-.359.349a.354.354 0 0 1-.358-.349c0-.193.16-.349.358-.349.199 0 .359.156.359.349Zm1.119 0c0 .192-.16.349-.358.349a.354.354 0 0 1-.359-.349c0-.193.16-.349.359-.349.197 0 .358.156.358.349Zm1.115 0c0 .192-.16.349-.358.349a.353.353 0 0 1-.358-.349c0-.193.159-.349.358-.349.198 0 .358.156.358.349Zm1.117 0c0 .192-.16.349-.358.349a.354.354 0 0 1-.358-.349c0-.193.16-.349.358-.349.198 0 .358.156.358.349Zm1.119 0a.353.353 0 0 1-.358.349.354.354 0 0 1-.358-.349c0-.193.16-.349.358-.349.198 0 .358.156.358.349Zm1.12 0c0 .192-.16.349-.359.349a.354.354 0 0 1-.358-.349c0-.193.16-.349.358-.349.198 0 .359.156.359.349Zm1.117 0c0 .192-.16.349-.359.349a.354.354 0 0 1-.358-.349c0-.193.16-.349.358-.349.199 0 .359.156.359.349Zm-20.124 1.089c0 .192-.16.349-.358.349-.198 0-.25-.201-.327-.341 0-.192.128-.357.327-.357a.354.354 0 0 1 .358.349Zm1.118 0c0 .192-.16.349-.358.349a.354.354 0 0 1-.359-.349c0-.193.16-.349.359-.349a.354.354 0 0 1 .358.349Zm1.121 0c0 .192-.16.349-.358.349a.354.354 0 0 1-.359-.349c0-.193.16-.349.359-.349a.355.355 0 0 1 .358.349Zm1.115 0c0 .192-.16.349-.358.349a.353.353 0 0 1-.358-.349c0-.193.16-.349.358-.349a.355.355 0 0 1 .358.349Zm2.237 0c0 .192-.16.349-.359.349a.354.354 0 0 1-.358-.349c0-.193.16-.349.358-.349a.354.354 0 0 1 .359.349Zm-1.118 0c0 .192-.16.349-.358.349a.354.354 0 0 1-.358-.349c0-.193.16-.349.358-.349a.354.354 0 0 1 .358.349Zm2.237 0c0 .192-.16.349-.359.349a.354.354 0 0 1-.358-.349c0-.193.16-.349.358-.349a.355.355 0 0 1 .359.349Zm2.234 0c0 .192-.16.349-.358.349a.353.353 0 0 1-.358-.349c0-.193.159-.349.358-.349a.354.354 0 0 1 .358.349Zm-1.117 0c0 .192-.16.349-.358.349a.354.354 0 0 1-.359-.349c0-.193.16-.349.359-.349a.354.354 0 0 1 .358.349Zm3.353 0c0 .192-.16.349-.358.349a.354.354 0 0 1-.358-.349c0-.193.16-.349.358-.349a.354.354 0 0 1 .358.349Zm-1.117 0c0 .192-.16.349-.358.349a.353.353 0 0 1-.358-.349c0-.193.16-.349.358-.349a.355.355 0 0 1 .358.349Zm2.235 0c0 .192-.16.349-.359.349a.354.354 0 0 1-.358-.349c0-.193.16-.349.358-.349a.354.354 0 0 1 .359.349Zm1.119 0c0 .192-.16.349-.359.349a.354.354 0 0 1-.358-.349c0-.193.16-.349.358-.349a.354.354 0 0 1 .359.349Zm1.119 0c0 .192-.16.349-.358.349a.354.354 0 0 1-.359-.349c0-.193.16-.349.359-.349a.355.355 0 0 1 .358.349Zm1.115 0c0 .192-.16.349-.358.349a.353.353 0 0 1-.358-.349c0-.193.159-.349.358-.349a.354.354 0 0 1 .358.349Zm1.117 0c0 .192-.16.349-.358.349a.354.354 0 0 1-.358-.349c0-.193.16-.349.358-.349a.354.354 0 0 1 .358.349Zm1.119 0a.353.353 0 0 1-.358.349.354.354 0 0 1-.358-.349c0-.193.16-.349.358-.349a.354.354 0 0 1 .358.349Zm1.12 0c0 .192-.16.349-.359.349a.354.354 0 0 1-.358-.349c0-.193.16-.349.358-.349a.355.355 0 0 1 .359.349Zm1.117 0c0 .192-.16.349-.359.349a.354.354 0 0 1-.358-.349c0-.193.16-.349.358-.349a.354.354 0 0 1 .359.349Zm-19.006 1.09c0 .192-.16.349-.358.349a.354.354 0 0 1-.359-.349c0-.193.16-.35.359-.35.198 0 .358.156.358.35Zm-1.12 0c0 .192-.16.349-.358.349-.198 0-.014-.236-.014-.429s-.185-.269.014-.269c.198 0 .358.155.358.349Zm4.475 0c0 .192-.16.349-.358.349a.354.354 0 0 1-.358-.349c0-.193.16-.35.358-.35.198 0 .358.156.358.35Zm1.118 0c0 .192-.16.349-.359.349a.354.354 0 0 1-.358-.349c0-.193.16-.35.358-.35.199 0 .359.156.359.35Zm1.119 0c0 .192-.16.349-.359.349a.354.354 0 0 1-.358-.349c0-.193.16-.35.358-.35.198 0 .359.156.359.35Zm1.117 0c0 .192-.16.349-.358.349a.354.354 0 0 1-.359-.349c0-.193.16-.35.359-.35.198 0 .358.156.358.35Zm1.117 0c0 .192-.16.349-.358.349a.353.353 0 0 1-.358-.349c0-.193.159-.35.358-.35.198 0 .358.156.358.35Zm1.119 0c0 .192-.16.349-.358.349a.353.353 0 0 1-.358-.349c0-.193.16-.35.358-.35.197 0 .358.156.358.35Zm1.117 0c0 .192-.16.349-.358.349a.354.354 0 0 1-.358-.349c0-.193.16-.349.358-.349.198 0 .358.155.358.349Zm2.237 0c0 .192-.16.349-.359.349a.354.354 0 0 1-.358-.349c0-.193.16-.349.358-.349.199 0 .359.155.359.349Zm-1.119 0c0 .192-.16.349-.359.349a.354.354 0 0 1-.358-.349c0-.193.16-.35.358-.35.199 0 .359.156.359.35Zm2.238 0c0 .192-.16.349-.358.349a.354.354 0 0 1-.359-.349c0-.193.16-.35.359-.35.197 0 .358.156.358.35Zm1.115 0c0 .192-.16.349-.358.349a.353.353 0 0 1-.358-.349c0-.193.159-.35.358-.35.198 0 .358.156.358.35Zm1.117 0c0 .192-.16.349-.358.349a.354.354 0 0 1-.358-.349c0-.193.16-.35.358-.35.198 0 .358.156.358.35Zm1.119 0a.353.353 0 0 1-.358.349.354.354 0 0 1-.358-.349c0-.193.16-.35.358-.35.198 0 .358.156.358.35Zm1.12 0c0 .192-.16.349-.359.349a.354.354 0 0 1-.358-.349c0-.193.16-.35.358-.35.198 0 .359.156.359.35Zm1.117 0c0 .192-.16.349-.359.349a.354.354 0 0 1-.358-.349c0-.193.16-.35.358-.35.199 0 .359.156.359.35Zm-15.651 1.089c0 .192-.16.349-.358.349a.354.354 0 0 1-.358-.349c0-.192.16-.349.358-.349.198 0 .358.157.358.349Zm-1.119-1.089c0 .192-.16.349-.358.349a.353.353 0 0 1-.358-.349c0-.193.16-.35.358-.35.197 0 .358.156.358.35Zm0 1.089c0 .192-.16.349-.358.349a.353.353 0 0 1-.358-.349c0-.192.16-.349.358-.349.197 0 .358.157.358.349Zm-1.115-1.089c0 .192-.16.349-.358.349a.354.354 0 0 1-.359-.349c0-.193.16-.35.359-.35.197 0 .358.156.358.35Zm0 1.089c0 .192-.16.349-.358.349a.354.354 0 0 1-.359-.349c0-.192.16-.349.359-.349.197 0 .358.157.358.349Zm4.471 0c0 .192-.16.349-.359.349a.354.354 0 0 1-.358-.349c0-.192.16-.349.358-.349.198 0 .359.157.359.349Zm2.234 0c0 .192-.16.349-.358.349a.353.353 0 0 1-.358-.349c0-.192.159-.349.358-.349.198 0 .358.157.358.349Zm-1.117 0c0 .192-.16.349-.358.349a.354.354 0 0 1-.359-.349c0-.192.16-.349.359-.349.198 0 .358.157.358.349Zm2.236 0c0 .192-.16.349-.358.349a.353.353 0 0 1-.358-.349c0-.192.16-.349.358-.349.197 0 .358.157.358.349Zm1.117 0c0 .192-.16.349-.358.349a.354.354 0 0 1-.358-.349c0-.192.16-.349.358-.349.198 0 .358.157.358.349Zm1.118 0c0 .192-.16.349-.359.349a.354.354 0 0 1-.358-.349c0-.192.16-.349.358-.349.199 0 .359.157.359.349Zm1.119 0c0 .192-.16.349-.359.349a.354.354 0 0 1-.358-.349c0-.192.16-.349.358-.349.199 0 .359.157.359.349Zm1.119 0c0 .192-.16.349-.358.349a.354.354 0 0 1-.359-.349c0-.192.16-.349.359-.349.197 0 .358.157.358.349Zm1.115 0c0 .192-.16.349-.358.349a.353.353 0 0 1-.358-.349c0-.192.159-.349.358-.349.198 0 .358.157.358.349Zm1.117 0c0 .192-.16.349-.358.349a.354.354 0 0 1-.358-.349c0-.192.16-.349.358-.349.198 0 .358.157.358.349Zm1.119 0a.353.353 0 0 1-.358.349.354.354 0 0 1-.358-.349c0-.192.16-.349.358-.349.198 0 .358.157.358.349Zm1.12 0c0 .192-.16.349-.359.349a.354.354 0 0 1-.358-.349c0-.192.16-.349.358-.349.198 0 .359.157.359.349Zm1.117 0c0 .192-.16.349-.359.349a.354.354 0 0 1-.358-.349c0-.192.16-.349.358-.349.199 0 .359.157.359.349Zm-17.885 1.089c0 .192-.16.349-.358.349a.354.354 0 0 1-.359-.349c0-.192.16-.349.359-.349.197 0 .358.157.358.349Zm-1.121-1.089c0 .192-.16.349-.358.349a.354.354 0 0 1-.359-.349c0-.192.16-.349.359-.349.198 0 .358.157.358.349Zm0 1.089c0 .192-.16.349-.358.349a.354.354 0 0 1-.359-.349c0-.192.16-.349.359-.349.198 0 .358.157.358.349Zm2.236 0c0 .192-.16.349-.358.349a.353.353 0 0 1-.358-.349c0-.192.16-.349.358-.349.197 0 .358.157.358.349Zm1.119 0c0 .192-.16.349-.358.349a.354.354 0 0 1-.358-.349c0-.192.16-.349.358-.349.198 0 .358.157.358.349Zm2.237 0c0 .192-.16.349-.359.349a.354.354 0 0 1-.358-.349c0-.192.16-.349.358-.349.198 0 .359.157.359.349Zm-1.119-1.089c0 .192-.16.349-.359.349a.354.354 0 0 1-.358-.349c0-.192.16-.349.358-.349.199 0 .359.157.359.349Zm0 1.089c0 .192-.16.349-.359.349a.354.354 0 0 1-.358-.349c0-.192.16-.349.358-.349.199 0 .359.157.359.349Zm2.236 0c0 .192-.16.349-.358.349a.354.354 0 0 1-.359-.349c0-.192.16-.349.359-.349.198 0 .358.157.358.349Zm2.236 0c0 .192-.16.349-.358.349a.353.353 0 0 1-.358-.349c0-.192.16-.349.358-.349.197 0 .358.157.358.349Zm-1.119 0c0 .192-.16.349-.358.349a.353.353 0 0 1-.358-.349c0-.192.159-.349.358-.349.198 0 .358.157.358.349Zm2.236 0c0 .192-.16.349-.358.349a.354.354 0 0 1-.358-.349c0-.192.16-.349.358-.349.198 0 .358.157.358.349Zm1.118 0c0 .192-.16.349-.359.349a.354.354 0 0 1-.358-.349c0-.192.16-.349.358-.349.199 0 .359.157.359.349Zm1.119 0c0 .192-.16.349-.359.349a.354.354 0 0 1-.358-.349c0-.192.16-.349.358-.349.199 0 .359.157.359.349Zm1.119 0c0 .192-.16.349-.358.349a.354.354 0 0 1-.359-.349c0-.192.16-.349.359-.349.197 0 .358.157.358.349Zm1.115 0c0 .192-.16.349-.358.349a.353.353 0 0 1-.358-.349c0-.192.159-.349.358-.349.198 0 .358.157.358.349Zm1.117 0c0 .192-.16.349-.358.349a.354.354 0 0 1-.358-.349c0-.192.16-.349.358-.349.198 0 .358.157.358.349Zm1.119 0a.353.353 0 0 1-.358.349.354.354 0 0 1-.358-.349c0-.192.16-.349.358-.349.198 0 .358.157.358.349Zm1.12 0c0 .192-.16.349-.359.349a.354.354 0 0 1-.358-.349c0-.192.16-.349.358-.349.198 0 .359.157.359.349Zm1.117 0c0 .192-.16.349-.359.349a.354.354 0 0 1-.358-.349c0-.192.16-.349.358-.349.199 0 .359.157.359.349Zm-19.006 1.089c0 .193-.16.349-.358.349a.354.354 0 0 1-.359-.349c0-.192.16-.349.359-.349a.355.355 0 0 1 .358.349Zm1.121 0c0 .193-.16.349-.358.349a.354.354 0 0 1-.359-.349c0-.192.16-.349.359-.349a.355.355 0 0 1 .358.349Zm1.115 0c0 .193-.16.349-.358.349a.353.353 0 0 1-.358-.349c0-.192.16-.349.358-.349a.355.355 0 0 1 .358.349Zm1.119 0c0 .193-.16.349-.358.349a.354.354 0 0 1-.358-.349c0-.192.16-.349.358-.349a.355.355 0 0 1 .358.349Zm1.118 0c0 .193-.16.349-.359.349a.354.354 0 0 1-.358-.349c0-.192.16-.349.358-.349a.355.355 0 0 1 .359.349Zm2.236 0c0 .193-.16.349-.358.349a.354.354 0 0 1-.359-.349c0-.192.16-.349.359-.349a.355.355 0 0 1 .358.349Zm1.117 0c0 .193-.16.349-.358.349a.353.353 0 0 1-.358-.349c0-.192.159-.349.358-.349a.355.355 0 0 1 .358.349Zm1.119 0c0 .193-.16.349-.358.349a.353.353 0 0 1-.358-.349c0-.192.16-.349.358-.349a.355.355 0 0 1 .358.349Zm1.117 0c0 .193-.16.349-.358.349a.354.354 0 0 1-.358-.349c0-.192.16-.349.358-.349a.355.355 0 0 1 .358.349Zm1.118 0c0 .193-.16.349-.359.349a.354.354 0 0 1-.358-.349c0-.192.16-.349.358-.349a.355.355 0 0 1 .359.349Zm1.119 0c0 .193-.16.349-.359.349a.354.354 0 0 1-.358-.349c0-.192.16-.349.358-.349a.355.355 0 0 1 .359.349Zm1.119 0c0 .193-.16.349-.358.349a.354.354 0 0 1-.359-.349c0-.192.16-.349.359-.349a.355.355 0 0 1 .358.349Zm1.115 0c0 .193-.16.349-.358.349a.353.353 0 0 1-.358-.349c0-.192.159-.349.358-.349a.355.355 0 0 1 .358.349Zm1.117 0c0 .193-.16.349-.358.349a.354.354 0 0 1-.358-.349c0-.192.16-.349.358-.349a.355.355 0 0 1 .358.349Zm1.119 0a.353.353 0 0 1-.358.349.354.354 0 0 1-.358-.349c0-.192.16-.349.358-.349a.355.355 0 0 1 .358.349Zm1.12 0c0 .193-.16.349-.359.349a.354.354 0 0 1-.358-.349c0-.192.16-.349.358-.349a.355.355 0 0 1 .359.349Zm1.117 0c0 .193-.16.349-.359.349a.354.354 0 0 1-.358-.349c0-.192.16-.349.358-.349a.355.355 0 0 1 .359.349Zm-19.005 1.09c0 .192-.16.349-.359.349-.197 0-.193-.197-.193-.39 0-.192-.005-.308.193-.308.199 0 .359.156.359.349Zm2.235 0c0 .192-.16.349-.358.349a.353.353 0 0 1-.358-.349c0-.192.16-.349.358-.349.197 0 .358.156.358.349Zm-1.115 0c0 .192-.16.349-.358.349a.354.354 0 0 1-.359-.349c0-.192.16-.349.359-.349.197 0 .358.156.358.349Zm2.234 0c0 .192-.16.349-.358.349a.354.354 0 0 1-.358-.349c0-.192.16-.349.358-.349.198 0 .358.156.358.349Zm1.118 0c0 .192-.16.349-.359.349a.354.354 0 0 1-.358-.349c0-.192.16-.349.358-.349.199 0 .359.156.359.349Zm1.119 0c0 .192-.16.349-.359.349a.354.354 0 0 1-.358-.349c0-.192.16-.349.358-.349.198 0 .359.156.359.349Zm1.117 0c0 .192-.16.349-.358.349a.354.354 0 0 1-.359-.349c0-.192.16-.349.359-.349.198 0 .358.156.358.349Zm1.117 0c0 .192-.16.349-.358.349a.353.353 0 0 1-.358-.349c0-.192.159-.349.358-.349.198 0 .358.156.358.349Zm2.236 0c0 .192-.16.349-.358.349a.354.354 0 0 1-.358-.349c0-.192.16-.349.358-.349.198 0 .358.156.358.349Zm-1.117 0c0 .192-.16.349-.358.349a.353.353 0 0 1-.358-.349c0-.192.16-.349.358-.349.197 0 .358.156.358.349Zm2.235 0c0 .192-.16.349-.359.349a.354.354 0 0 1-.358-.349c0-.192.16-.349.358-.349.199 0 .359.156.359.349Zm1.119 0c0 .192-.16.349-.359.349a.354.354 0 0 1-.358-.349c0-.192.16-.349.358-.349.199 0 .359.156.359.349Zm1.119 0c0 .192-.16.349-.358.349a.354.354 0 0 1-.359-.349c0-.192.16-.349.359-.349.197 0 .358.156.358.349Zm1.115 0c0 .192-.16.349-.358.349a.353.353 0 0 1-.358-.349c0-.192.159-.349.358-.349.198 0 .358.156.358.349Zm1.117 0c0 .192-.16.349-.358.349a.354.354 0 0 1-.358-.349c0-.192.16-.349.358-.349.198 0 .358.156.358.349Zm1.119 0a.353.353 0 0 1-.358.349.354.354 0 0 1-.358-.349c0-.192.16-.349.358-.349.198 0 .358.156.358.349Zm1.12 0c0 .192-.16.349-.359.349a.354.354 0 0 1-.358-.349c0-.192.16-.349.358-.349.198 0 .359.156.359.349Zm1.117 0c0 .192-.16.349-.359.349a.354.354 0 0 1-.358-.349c0-.192.16-.349.358-.349.199 0 .359.156.359.349Zm-13.414-1.09c0 .193-.16.349-.359.349a.354.354 0 0 1-.358-.349c0-.192.16-.349.358-.349a.355.355 0 0 1 .359.349Z" fill="#3136BD"/><path d="M250.769 138.27c0 .192-.16.349-.358.349a.354.354 0 0 1-.358-.349c0-.193.16-.35.358-.35.197 0 .358.157.358.35Zm2.237 0c0 .192-.16.349-.359.349a.354.354 0 0 1-.358-.349c0-.193.16-.35.358-.35.199 0 .359.157.359.35Zm-1.12 0a.353.353 0 0 1-.358.349.354.354 0 0 1-.358-.349c0-.193.16-.35.358-.35.198 0 .358.157.358.35Zm2.239 0c0 .192-.16.349-.359.349a.354.354 0 0 1-.358-.349c0-.193.16-.35.358-.35.199 0 .359.157.359.35Zm2.234 0c0 .192-.16.349-.358.349a.353.353 0 0 1-.358-.349c0-.193.16-.35.358-.35.198 0 .358.157.358.35Zm-1.119 0c0 .192-.16.349-.358.349a.354.354 0 0 1-.359-.349c0-.193.16-.35.359-.35.197 0 .358.157.358.35Zm2.238 0c0 .192-.16.349-.358.349a.354.354 0 0 1-.358-.349c0-.193.16-.35.358-.35.198 0 .358.157.358.35Zm1.117 0a.353.353 0 0 1-.358.349.354.354 0 0 1-.358-.349c0-.193.16-.35.358-.35.198 0 .358.157.358.35Zm1.118 0c0 .192-.16.349-.359.349a.354.354 0 0 1-.358-.349c0-.193.16-.35.358-.35.198 0 .359.157.359.35Zm1.115 0c0 .192-.16.349-.358.349a.354.354 0 0 1-.359-.349c0-.193.16-.35.359-.35.198 0 .358.157.358.35Zm2.238 0c0 .192-.16.349-.358.349a.353.353 0 0 1-.358-.349c0-.193.16-.35.358-.35.197 0 .358.157.358.35Zm-1.119 0c0 .192-.16.349-.358.349a.354.354 0 0 1-.359-.349c0-.193.16-.35.359-.35.198 0 .358.157.358.35Zm2.236 0c0 .192-.16.349-.358.349a.354.354 0 0 1-.358-.349c0-.193.16-.35.358-.35.198 0 .358.157.358.35Zm1.121 0a.353.353 0 0 1-.358.349.354.354 0 0 1-.358-.349c0-.193.16-.35.358-.35.199 0 .358.157.358.35Zm1.116 0c0 .192-.16.349-.359.349a.354.354 0 0 1-.358-.349c0-.193.16-.35.358-.35.199 0 .359.157.359.35Zm1.119 0c0 .192-.16.349-.358.349a.354.354 0 0 1-.359-.349c0-.193.16-.35.359-.35.197 0 .358.157.358.35Zm1.117 0c0 .192-.16.349-.358.349a.354.354 0 0 1-.359-.349c0-.193.16-.35.359-.35.198 0 .358.157.358.35Zm1.119 0c0 .192-.16.349-.358.349a.353.353 0 0 1-.358-.349c0-.193.16-.35.358-.35.198 0 .358.157.358.35Zm-17.889 1.088a.353.353 0 0 1-.358.349.353.353 0 0 1-.358-.349c0-.192.16-.349.358-.349a.355.355 0 0 1 .358.349Zm2.239 0c0 .193-.16.349-.359.349a.353.353 0 0 1-.358-.349c0-.192.16-.349.358-.349a.355.355 0 0 1 .359.349Zm1.115 0c0 .193-.16.349-.358.349a.353.353 0 0 1-.359-.349c0-.192.16-.349.359-.349a.355.355 0 0 1 .358.349Zm1.119 0c0 .193-.16.349-.358.349a.353.353 0 0 1-.358-.349c0-.192.16-.349.358-.349a.355.355 0 0 1 .358.349Zm2.236 0a.353.353 0 0 1-.358.349.353.353 0 0 1-.358-.349c0-.192.16-.349.358-.349a.355.355 0 0 1 .358.349Zm2.233 0c0 .193-.16.349-.358.349a.353.353 0 0 1-.359-.349c0-.192.16-.349.359-.349a.355.355 0 0 1 .358.349Zm-3.35 0c0 .193-.16.349-.358.349a.353.353 0 0 1-.358-.349c0-.192.16-.349.358-.349a.355.355 0 0 1 .358.349Zm2.235 0c0 .193-.16.349-.359.349a.353.353 0 0 1-.358-.349c0-.192.16-.349.358-.349a.355.355 0 0 1 .359.349Zm2.234 0c0 .193-.16.349-.358.349a.353.353 0 0 1-.359-.349c0-.192.16-.349.359-.349a.355.355 0 0 1 .358.349Zm1.119 0c0 .193-.16.349-.358.349a.353.353 0 0 1-.358-.349c0-.192.16-.349.358-.349a.355.355 0 0 1 .358.349Zm1.117 0c0 .193-.16.349-.358.349a.353.353 0 0 1-.358-.349c0-.192.16-.349.358-.349a.355.355 0 0 1 .358.349Zm1.121 0a.353.353 0 0 1-.358.349.353.353 0 0 1-.358-.349c0-.192.16-.349.358-.349a.354.354 0 0 1 .358.349Zm1.116 0c0 .193-.16.349-.359.349a.353.353 0 0 1-.358-.349c0-.192.16-.349.358-.349a.355.355 0 0 1 .359.349Zm1.119 0c0 .193-.16.349-.358.349a.353.353 0 0 1-.359-.349c0-.192.16-.349.359-.349a.355.355 0 0 1 .358.349Zm1.117 0c0 .193-.16.349-.358.349a.353.353 0 0 1-.359-.349c0-.192.16-.349.359-.349a.355.355 0 0 1 .358.349Zm1.027-.041c0 .192-.068.39-.266.39a.353.353 0 0 1-.358-.349c0-.192.16-.349.358-.349.198.001.266.115.266.308Zm-17.797 1.131c0 .193-.159.35-.358.35a.354.354 0 0 1-.358-.35c0-.192.16-.349.358-.349.198 0 .358.156.358.349Zm-1.117-1.09c0 .193-.16.349-.358.349a.353.353 0 0 1-.358-.349c0-.192.16-.349.358-.349a.355.355 0 0 1 .358.349Zm0 1.09c0 .193-.16.35-.358.35a.354.354 0 0 1-.358-.35c0-.192.16-.349.358-.349.197 0 .358.156.358.349Zm3.356 0c0 .193-.16.35-.359.35a.354.354 0 0 1-.358-.35c0-.192.16-.349.358-.349.199 0 .359.156.359.349Zm-1.119-1.09c0 .193-.16.349-.359.349a.353.353 0 0 1-.358-.349c0-.192.16-.349.358-.349a.355.355 0 0 1 .359.349Zm0 1.09c0 .193-.16.35-.359.35a.354.354 0 0 1-.358-.35c0-.192.16-.349.358-.349.199 0 .359.156.359.349Zm2.234 0c0 .193-.16.35-.358.35a.354.354 0 0 1-.359-.35c0-.192.16-.349.359-.349.197 0 .358.156.358.349Zm1.119 0c0 .193-.16.35-.358.35a.353.353 0 0 1-.358-.35c0-.192.16-.349.358-.349.198 0 .358.156.358.349Zm1.119 0c0 .193-.16.35-.358.35a.354.354 0 0 1-.358-.35c0-.192.16-.349.358-.349.198 0 .358.156.358.349Zm1.117 0c0 .193-.159.35-.358.35a.354.354 0 0 1-.358-.35c0-.192.16-.349.358-.349.198 0 .358.156.358.349Zm1.118 0c0 .193-.16.35-.359.35a.354.354 0 0 1-.358-.35c0-.192.16-.349.358-.349.198 0 .359.156.359.349Zm1.115 0c0 .193-.16.35-.358.35a.354.354 0 0 1-.359-.35c0-.192.16-.349.359-.349.198 0 .358.156.358.349Zm1.119 0c0 .193-.16.35-.358.35a.354.354 0 0 1-.359-.35c0-.192.16-.349.359-.349.198 0 .358.156.358.349Zm1.119 0c0 .193-.16.35-.358.35a.353.353 0 0 1-.358-.35c0-.192.16-.349.358-.349.197 0 .358.156.358.349Zm1.117 0c0 .193-.16.35-.358.35a.354.354 0 0 1-.358-.35c0-.192.16-.349.358-.349.198 0 .358.156.358.349Zm1.121 0c0 .193-.159.35-.358.35a.354.354 0 0 1-.358-.35c0-.192.16-.349.358-.349.199 0 .358.156.358.349Zm1.116 0c0 .193-.16.35-.359.35a.354.354 0 0 1-.358-.35c0-.192.16-.349.358-.349.199 0 .359.156.359.349Zm1.119 0c0 .193-.16.35-.358.35a.354.354 0 0 1-.359-.35c0-.192.16-.349.359-.349.197 0 .358.156.358.349Zm1.117 0c0 .193-.16.35-.358.35a.354.354 0 0 1-.359-.35c0-.192.16-.349.359-.349.198 0 .358.156.358.349Zm-17.887 1.09c0 .192-.16.349-.358.349a.354.354 0 0 1-.358-.349c0-.193.16-.349.358-.349.197 0 .358.156.358.349Zm1.117 0a.353.353 0 0 1-.358.349.354.354 0 0 1-.358-.349c0-.193.16-.35.358-.35.198 0 .358.157.358.35Zm1.12 0c0 .192-.16.349-.359.349a.354.354 0 0 1-.358-.349c0-.193.16-.35.358-.35.199 0 .359.157.359.35Zm1.119 0c0 .192-.16.349-.359.349a.354.354 0 0 1-.358-.349c0-.193.16-.349.358-.349.199 0 .359.156.359.349Zm3.353 0c0 .192-.16.349-.358.349a.354.354 0 0 1-.358-.349c0-.193.16-.35.358-.35.198 0 .358.157.358.35Zm1.117 0a.353.353 0 0 1-.358.349.354.354 0 0 1-.358-.349c0-.193.16-.35.358-.35.198 0 .358.157.358.35Zm1.118 0c0 .192-.16.349-.359.349a.354.354 0 0 1-.358-.349c0-.193.16-.35.358-.35.198 0 .359.157.359.35Zm1.115 0c0 .192-.16.349-.358.349a.354.354 0 0 1-.359-.349c0-.193.16-.35.359-.35.198 0 .358.157.358.35Zm1.119 0c0 .192-.16.349-.358.349a.354.354 0 0 1-.359-.349c0-.193.16-.35.359-.35.198 0 .358.157.358.35Zm1.119 0c0 .192-.16.349-.358.349a.353.353 0 0 1-.358-.349c0-.193.16-.35.358-.35.197 0 .358.157.358.35Zm1.117 0c0 .192-.16.349-.358.349a.354.354 0 0 1-.358-.349c0-.193.16-.35.358-.35.198 0 .358.157.358.35Zm1.121 0a.353.353 0 0 1-.358.349.354.354 0 0 1-.358-.349c0-.193.16-.35.358-.35.199 0 .358.157.358.35Zm1.116 0c0 .192-.16.349-.359.349a.354.354 0 0 1-.358-.349c0-.193.16-.35.358-.35.199 0 .359.157.359.35Zm1.119 0c0 .192-.16.349-.358.349a.354.354 0 0 1-.359-.349c0-.193.16-.35.359-.35.197 0 .358.157.358.35Zm1.117 0c0 .192-.16.349-.358.349a.354.354 0 0 1-.359-.349c0-.193.16-.35.359-.35.198 0 .358.157.358.35Zm-17.887 1.089c0 .192-.16.349-.358.349a.354.354 0 0 1-.358-.349c0-.193.16-.35.358-.35a.355.355 0 0 1 .358.35Zm1.117 0a.353.353 0 0 1-.358.349.354.354 0 0 1-.358-.349c0-.193.16-.349.358-.349.198 0 .358.156.358.349Zm3.354 0c0 .192-.16.349-.358.349a.354.354 0 0 1-.359-.349c0-.193.16-.349.359-.349.197 0 .358.156.358.349Zm1.119 0c0 .192-.16.349-.358.349a.353.353 0 0 1-.358-.349c0-.193.16-.349.358-.349.198 0 .358.156.358.349Zm-1.119-1.089c0 .192-.16.349-.358.349a.354.354 0 0 1-.359-.349c0-.193.16-.35.359-.35.197 0 .358.157.358.35Zm1.119 0c0 .192-.16.349-.358.349a.353.353 0 0 1-.358-.349c0-.193.16-.35.358-.35.198 0 .358.157.358.35Zm-3.353 1.089c0 .192-.16.349-.359.349a.354.354 0 0 1-.358-.349c0-.193.16-.349.358-.349.199 0 .359.156.359.349Zm1.119 0c0 .192-.16.349-.359.349a.354.354 0 0 1-.358-.349c0-.193.16-.35.358-.35a.355.355 0 0 1 .359.35Zm3.353 0c0 .192-.16.349-.358.349a.354.354 0 0 1-.358-.349c0-.193.16-.349.358-.349.198 0 .358.156.358.349Zm1.117 0a.353.353 0 0 1-.358.349.354.354 0 0 1-.358-.349c0-.193.16-.349.358-.349.198 0 .358.156.358.349Zm1.118 0c0 .192-.16.349-.359.349a.354.354 0 0 1-.358-.349c0-.193.16-.349.358-.349.198 0 .359.156.359.349Zm1.115 0c0 .192-.16.349-.358.349a.354.354 0 0 1-.359-.349c0-.193.16-.349.359-.349.198 0 .358.156.358.349Zm1.119 0c0 .192-.16.349-.358.349a.354.354 0 0 1-.359-.349c0-.193.16-.349.359-.349.198 0 .358.156.358.349Zm2.236 0c0 .192-.16.349-.358.349a.354.354 0 0 1-.358-.349c0-.193.16-.349.358-.349.198 0 .358.156.358.349Zm-1.117 0c0 .192-.16.349-.358.349a.353.353 0 0 1-.358-.349c0-.193.16-.349.358-.349.197 0 .358.156.358.349Zm2.238 0a.353.353 0 0 1-.358.349.354.354 0 0 1-.358-.349c0-.193.16-.349.358-.349.199 0 .358.156.358.349Zm1.116 0c0 .192-.16.349-.359.349a.354.354 0 0 1-.358-.349c0-.193.16-.349.358-.349.199 0 .359.156.359.349Zm1.119 0c0 .192-.16.349-.358.349a.354.354 0 0 1-.359-.349c0-.193.16-.349.359-.349.197 0 .358.156.358.349Zm.892-.089c0 .192.065.438-.133.438a.354.354 0 0 1-.359-.349c0-.193.16-.349.359-.349.198 0 .133.067.133.26Zm-17.662 1.179c0 .192-.16.349-.358.349a.354.354 0 0 1-.358-.349c0-.193.16-.349.358-.349.197 0 .358.156.358.349Zm1.117 0a.353.353 0 0 1-.358.349.354.354 0 0 1-.358-.349c0-.193.16-.349.358-.349.198 0 .358.156.358.349Zm1.12 0c0 .192-.16.349-.359.349a.354.354 0 0 1-.358-.349c0-.193.16-.349.358-.349.199 0 .359.156.359.349Zm1.119 0c0 .192-.16.349-.359.349a.354.354 0 0 1-.358-.349c0-.193.16-.349.358-.349.199 0 .359.156.359.349Zm1.115 0c0 .192-.16.349-.358.349a.354.354 0 0 1-.359-.349c0-.193.16-.349.359-.349.197 0 .358.156.358.349Zm3.355 0a.353.353 0 0 1-.358.349.354.354 0 0 1-.358-.349c0-.193.16-.349.358-.349.198 0 .358.156.358.349Zm1.118 0c0 .192-.16.349-.359.349a.354.354 0 0 1-.358-.349c0-.193.16-.349.358-.349.198 0 .359.156.359.349Zm-3.354 0c0 .192-.16.349-.358.349a.353.353 0 0 1-.358-.349c0-.193.16-.349.358-.349.198 0 .358.156.358.349Zm1.119 0c0 .192-.16.349-.358.349a.354.354 0 0 1-.358-.349c0-.193.16-.349.358-.349.198 0 .358.156.358.349Zm4.469 0c0 .192-.16.349-.358.349a.354.354 0 0 1-.359-.349c0-.193.16-.349.359-.349.198 0 .358.156.358.349Zm-1.119 0c0 .192-.16.349-.358.349a.354.354 0 0 1-.359-.349c0-.193.16-.349.359-.349.198 0 .358.156.358.349Zm2.238 0c0 .192-.16.349-.358.349a.353.353 0 0 1-.358-.349c0-.193.16-.349.358-.349.197 0 .358.156.358.349Zm1.117 0c0 .192-.16.349-.358.349a.354.354 0 0 1-.358-.349c0-.193.16-.349.358-.349.198 0 .358.156.358.349Zm1.121 0a.353.353 0 0 1-.358.349.354.354 0 0 1-.358-.349c0-.193.16-.349.358-.349.199 0 .358.156.358.349Zm1.116 0c0 .192-.16.349-.359.349a.354.354 0 0 1-.358-.349c0-.193.16-.349.358-.349.199 0 .359.156.359.349Zm1.119 0c0 .192-.16.349-.358.349a.354.354 0 0 1-.359-.349c0-.193.16-.349.359-.349.197 0 .358.156.358.349Zm-15.653 1.089a.353.353 0 0 1-.358.349.354.354 0 0 1-.358-.349c0-.193.16-.349.358-.349.198 0 .358.156.358.349Zm2.239 0c0 .192-.16.349-.359.349a.354.354 0 0 1-.358-.349c0-.193.16-.349.358-.349.199 0 .359.156.359.349Zm-1.119 0c0 .192-.16.349-.359.349a.354.354 0 0 1-.358-.349c0-.193.16-.349.358-.349.199 0 .359.156.359.349Zm2.234 0c0 .192-.16.349-.358.349a.354.354 0 0 1-.359-.349c0-.193.16-.349.359-.349.197 0 .358.156.358.349Zm1.119 0c0 .192-.16.349-.358.349a.353.353 0 0 1-.358-.349c0-.193.16-.349.358-.349.198 0 .358.156.358.349Zm1.119 0c0 .192-.16.349-.358.349a.354.354 0 0 1-.358-.349c0-.193.16-.349.358-.349.198 0 .358.156.358.349Zm1.117 0a.353.353 0 0 1-.358.349.354.354 0 0 1-.358-.349c0-.193.16-.349.358-.349.198 0 .358.156.358.349Zm1.118 0c0 .192-.16.349-.359.349a.354.354 0 0 1-.358-.349c0-.193.16-.349.358-.349.198 0 .359.156.359.349Zm1.115 0c0 .192-.16.349-.358.349a.354.354 0 0 1-.359-.349c0-.193.16-.349.359-.349.198 0 .358.156.358.349Zm1.119 0c0 .192-.16.349-.358.349a.354.354 0 0 1-.359-.349c0-.193.16-.349.359-.349.198 0 .358.156.358.349Zm1.119 0c0 .192-.16.349-.358.349a.353.353 0 0 1-.358-.349c0-.193.16-.349.358-.349.197 0 .358.156.358.349Zm1.117 0c0 .192-.16.349-.358.349a.354.354 0 0 1-.358-.349c0-.193.16-.349.358-.349.198 0 .358.156.358.349Zm1.121 0a.353.353 0 0 1-.358.349.354.354 0 0 1-.358-.349c0-.193.16-.349.358-.349.199 0 .358.156.358.349Zm1.116 0c0 .192-.16.349-.359.349a.354.354 0 0 1-.358-.349c0-.193.16-.349.358-.349.199 0 .359.156.359.349Zm1.119 0c0 .192-.16.349-.358.349a.354.354 0 0 1-.359-.349c0-.193.16-.349.359-.349.197 0 .358.156.358.349Zm-16.77 1.089c0 .192-.16.349-.358.349a.354.354 0 0 1-.358-.349c0-.193.16-.349.358-.349.197 0 .358.156.358.349Zm1.117 0a.353.353 0 0 1-.358.349.354.354 0 0 1-.358-.349c0-.192.16-.349.358-.349.198 0 .358.157.358.349Zm1.12 0c0 .192-.16.349-.359.349a.354.354 0 0 1-.358-.349c0-.192.16-.349.358-.349.199 0 .359.157.359.349Zm2.234 0c0 .192-.16.349-.358.349a.354.354 0 0 1-.359-.349c0-.192.16-.349.359-.349.197 0 .358.157.358.349Zm-1.115 0c0 .192-.16.349-.359.349a.354.354 0 0 1-.358-.349c0-.193.16-.349.358-.349.199 0 .359.156.359.349Zm3.353 0c0 .192-.16.349-.358.349a.354.354 0 0 1-.358-.349c0-.192.16-.349.358-.349.198 0 .358.157.358.349Zm2.235 0c0 .192-.16.349-.359.349a.354.354 0 0 1-.358-.349c0-.192.16-.349.358-.349.198 0 .359.157.359.349Zm1.115 0c0 .192-.16.349-.358.349a.354.354 0 0 1-.359-.349c0-.192.16-.349.359-.349.198 0 .358.157.358.349Zm1.119 0c0 .192-.16.349-.358.349a.354.354 0 0 1-.359-.349c0-.192.16-.349.359-.349.198 0 .358.157.358.349Zm-5.588 0c0 .192-.16.349-.358.349a.353.353 0 0 1-.358-.349c0-.192.16-.349.358-.349.198 0 .358.157.358.349Zm2.236 0a.353.353 0 0 1-.358.349.354.354 0 0 1-.358-.349c0-.192.16-.349.358-.349.198 0 .358.157.358.349Zm4.471 0c0 .192-.16.349-.358.349a.353.353 0 0 1-.358-.349c0-.192.16-.349.358-.349.197 0 .358.157.358.349Zm1.117 0c0 .192-.16.349-.358.349a.354.354 0 0 1-.358-.349c0-.192.16-.349.358-.349.198 0 .358.157.358.349Zm1.121 0a.353.353 0 0 1-.358.349.354.354 0 0 1-.358-.349c0-.192.16-.349.358-.349.199 0 .358.157.358.349Zm1.116 0c0 .192-.16.349-.359.349a.354.354 0 0 1-.358-.349c0-.192.16-.349.358-.349.199 0 .359.157.359.349Zm-14.534 1.089a.353.353 0 0 1-.358.349.354.354 0 0 1-.358-.349c0-.193.16-.349.358-.349a.354.354 0 0 1 .358.349Zm-1.117-2.178c0 .192-.16.349-.358.349a.354.354 0 0 1-.358-.349c0-.193.16-.349.358-.349.197 0 .358.156.358.349Zm0 2.178c0 .192-.16.349-.358.349a.354.354 0 0 1-.358-.349c0-.193.16-.349.358-.349a.355.355 0 0 1 .358.349Zm2.237 0c0 .192-.16.349-.359.349a.354.354 0 0 1-.358-.349c0-.193.16-.349.358-.349a.354.354 0 0 1 .359.349Zm1.119 0c0 .192-.16.349-.359.349a.354.354 0 0 1-.358-.349c0-.193.16-.349.358-.349a.354.354 0 0 1 .359.349Zm2.234 0c0 .192-.16.349-.358.349a.353.353 0 0 1-.358-.349c0-.193.16-.349.358-.349a.354.354 0 0 1 .358.349Zm1.119 0c0 .192-.16.349-.358.349a.354.354 0 0 1-.358-.349c0-.193.16-.349.358-.349a.354.354 0 0 1 .358.349Zm1.117 0a.353.353 0 0 1-.358.349.354.354 0 0 1-.358-.349c0-.193.16-.349.358-.349a.353.353 0 0 1 .358.349Zm1.118 0c0 .192-.16.349-.359.349a.354.354 0 0 1-.358-.349c0-.193.16-.349.358-.349a.355.355 0 0 1 .359.349Zm2.234 0c0 .192-.16.349-.358.349a.354.354 0 0 1-.359-.349c0-.193.16-.349.359-.349a.354.354 0 0 1 .358.349Zm2.236 0c0 .192-.16.349-.358.349a.354.354 0 0 1-.358-.349c0-.193.16-.349.358-.349a.354.354 0 0 1 .358.349Zm-3.355 0c0 .192-.16.349-.358.349a.354.354 0 0 1-.359-.349c0-.193.16-.349.359-.349a.354.354 0 0 1 .358.349Zm2.238 0c0 .192-.16.349-.358.349a.353.353 0 0 1-.358-.349c0-.193.16-.349.358-.349a.355.355 0 0 1 .358.349Zm2.238 0a.353.353 0 0 1-.358.349.354.354 0 0 1-.358-.349c0-.193.16-.349.358-.349a.353.353 0 0 1 .358.349Zm1.072-.05c0 .193-.116.399-.315.399a.354.354 0 0 1-.358-.349c0-.193.16-.349.358-.349.199.001.315.107.315.299Zm-15.607 1.14c0 .192-.16.349-.358.349a.354.354 0 0 1-.358-.349c0-.192.16-.349.358-.349.197 0 .358.156.358.349Zm1.117 0a.353.353 0 0 1-.358.349.354.354 0 0 1-.358-.349c0-.192.16-.349.358-.349.198 0 .358.156.358.349Zm1.12 0c0 .192-.16.349-.359.349a.354.354 0 0 1-.358-.349c0-.192.16-.349.358-.349.199 0 .359.156.359.349Zm1.119 0c0 .192-.16.349-.359.349a.354.354 0 0 1-.358-.349c0-.192.16-.349.358-.349.199 0 .359.156.359.349Zm1.115 0c0 .192-.16.349-.358.349a.354.354 0 0 1-.359-.349c0-.192.16-.349.359-.349.197 0 .358.156.358.349Zm1.119 0c0 .192-.16.349-.358.349a.353.353 0 0 1-.358-.349c0-.192.16-.349.358-.349.198 0 .358.156.358.349Zm1.119 0c0 .192-.16.349-.358.349a.354.354 0 0 1-.358-.349c0-.192.16-.349.358-.349.198 0 .358.156.358.349Zm1.117 0a.353.353 0 0 1-.358.349.354.354 0 0 1-.358-.349c0-.192.16-.349.358-.349.199 0 .358.156.358.349Zm1.118 0c0 .192-.16.349-.359.349a.354.354 0 0 1-.358-.349c0-.192.16-.349.358-.349.198 0 .359.156.359.349Zm1.115 0c0 .192-.16.349-.358.349a.354.354 0 0 1-.359-.349c0-.192.16-.349.359-.349.198 0 .358.156.358.349Zm1.119 0c0 .192-.16.349-.358.349a.354.354 0 0 1-.359-.349c0-.192.16-.349.359-.349.198 0 .358.156.358.349Zm1.119 0c0 .192-.16.349-.358.349a.353.353 0 0 1-.358-.349c0-.192.16-.349.358-.349.197 0 .358.156.358.349Zm1.117 0c0 .192-.16.349-.358.349a.354.354 0 0 1-.358-.349c0-.192.16-.349.358-.349.198 0 .358.156.358.349Zm1.121 0a.353.353 0 0 1-.358.349.354.354 0 0 1-.358-.349c0-.192.16-.349.358-.349.199 0 .358.156.358.349Zm-14.535 1.089c0 .192-.16.349-.358.349a.354.354 0 0 1-.358-.349c0-.193.16-.349.358-.349.197 0 .358.156.358.349Zm2.237 0c0 .192-.16.349-.359.349a.354.354 0 0 1-.358-.349c0-.193.16-.349.358-.349.199 0 .359.156.359.349Zm1.119 0c0 .192-.16.349-.359.349a.354.354 0 0 1-.358-.349c0-.193.16-.349.358-.349.199 0 .359.156.359.349Zm1.115 0c0 .192-.16.349-.358.349a.354.354 0 0 1-.359-.349c0-.193.16-.349.359-.349.197 0 .358.156.358.349Zm1.119 0c0 .192-.16.349-.358.349a.353.353 0 0 1-.358-.349c0-.193.16-.349.358-.349.198 0 .358.156.358.349Zm2.236 0a.353.353 0 0 1-.358.349.354.354 0 0 1-.358-.349c0-.193.16-.349.358-.349.199 0 .358.156.358.349Zm2.233 0c0 .192-.16.349-.358.349a.354.354 0 0 1-.359-.349c0-.193.16-.349.359-.349.198 0 .358.156.358.349Zm-3.35 0c0 .192-.16.349-.358.349a.354.354 0 0 1-.358-.349c0-.193.16-.349.358-.349.198 0 .358.156.358.349Zm2.235 0c0 .192-.16.349-.359.349a.354.354 0 0 1-.358-.349c0-.193.16-.349.358-.349.198 0 .359.156.359.349Zm2.234 0c0 .192-.16.349-.358.349a.354.354 0 0 1-.359-.349c0-.193.16-.349.359-.349.198 0 .358.156.358.349Zm1.119 0c0 .192-.16.349-.358.349a.353.353 0 0 1-.358-.349c0-.193.16-.349.358-.349.197 0 .358.156.358.349Zm1.117 0c0 .192-.16.349-.358.349a.354.354 0 0 1-.358-.349c0-.193.16-.349.358-.349.198 0 .358.156.358.349Zm-13.414 1.089c0 .192-.16.349-.358.349a.354.354 0 0 1-.358-.349c0-.192.16-.349.358-.349a.355.355 0 0 1 .358.349Zm2.237 0c0 .192-.16.349-.359.349a.354.354 0 0 1-.358-.349c0-.192.16-.349.358-.349a.355.355 0 0 1 .359.349Zm-1.12-1.089a.353.353 0 0 1-.358.349.354.354 0 0 1-.358-.349c0-.193.16-.349.358-.349.198 0 .358.156.358.349Zm0 1.089a.353.353 0 0 1-.358.349.354.354 0 0 1-.358-.349c0-.192.16-.349.358-.349a.355.355 0 0 1 .358.349Zm2.239 0c0 .192-.16.349-.359.349a.354.354 0 0 1-.358-.349c0-.192.16-.349.358-.349a.355.355 0 0 1 .359.349Zm2.234 0c0 .192-.16.349-.358.349a.353.353 0 0 1-.358-.349c0-.192.16-.349.358-.349a.355.355 0 0 1 .358.349Zm-1.119-3.268c0 .192-.16.349-.358.349a.354.354 0 0 1-.359-.349c0-.193.16-.349.359-.349a.355.355 0 0 1 .358.349Zm0 3.268c0 .192-.16.349-.358.349a.354.354 0 0 1-.359-.349c0-.192.16-.349.359-.349a.355.355 0 0 1 .358.349Zm2.238 0c0 .192-.16.349-.358.349a.354.354 0 0 1-.358-.349c0-.192.16-.349.358-.349a.355.355 0 0 1 .358.349Zm1.117 0a.353.353 0 0 1-.358.349.354.354 0 0 1-.358-.349c0-.192.16-.349.358-.349a.354.354 0 0 1 .358.349Zm1.118 0c0 .192-.16.349-.359.349a.354.354 0 0 1-.358-.349c0-.192.16-.349.358-.349a.355.355 0 0 1 .359.349Zm1.115 0c0 .192-.16.349-.358.349a.354.354 0 0 1-.359-.349c0-.192.16-.349.359-.349a.355.355 0 0 1 .358.349Zm2.238 0c0 .192-.16.349-.358.349a.353.353 0 0 1-.358-.349c0-.192.16-.349.358-.349a.355.355 0 0 1 .358.349Zm-1.119 0c0 .192-.16.349-.358.349a.354.354 0 0 1-.359-.349c0-.192.16-.349.359-.349a.355.355 0 0 1 .358.349Zm2.236 0c0 .192-.16.349-.358.349a.354.354 0 0 1-.358-.349c0-.192.16-.349.358-.349a.355.355 0 0 1 .358.349Zm-13.414 1.09c0 .192-.16.349-.358.349a.354.354 0 0 1-.358-.349c0-.192.16-.349.358-.349.197 0 .358.156.358.349Zm1.117 0a.353.353 0 0 1-.358.349.354.354 0 0 1-.358-.349c0-.193.16-.349.358-.349.198 0 .358.156.358.349Zm1.12 0c0 .192-.16.349-.359.349a.354.354 0 0 1-.358-.349c0-.193.16-.349.358-.349.199 0 .359.156.359.349Zm1.119 0c0 .192-.16.349-.359.349a.354.354 0 0 1-.358-.349c0-.192.16-.349.358-.349.199 0 .359.156.359.349Zm1.115 0c0 .192-.16.349-.358.349a.354.354 0 0 1-.359-.349c0-.193.16-.349.359-.349.197 0 .358.156.358.349Zm3.355 0a.353.353 0 0 1-.358.349.354.354 0 0 1-.358-.349c0-.193.16-.349.358-.349.199 0 .358.156.358.349Zm2.233 0c0 .192-.16.349-.358.349a.354.354 0 0 1-.359-.349c0-.193.16-.349.359-.349.198 0 .358.156.358.349Zm1.119 0c0 .192-.16.349-.358.349a.354.354 0 0 1-.359-.349c0-.193.16-.349.359-.349.198 0 .358.156.358.349Zm1.119 0c0 .192-.16.349-.358.349a.353.353 0 0 1-.358-.349c0-.193.16-.349.358-.349.197 0 .358.156.358.349Zm-12.297 1.089c0 .192-.16.349-.358.349a.354.354 0 0 1-.358-.349c0-.193.16-.349.358-.349.197 0 .358.156.358.349Zm1.117 0a.353.353 0 0 1-.358.349.354.354 0 0 1-.358-.349c0-.193.16-.349.358-.349.198 0 .358.156.358.349Zm2.239 0c0 .192-.16.349-.359.349a.354.354 0 0 1-.358-.349c0-.193.16-.349.358-.349.199 0 .359.156.359.349Zm-1.119 0c0 .192-.16.349-.359.349a.354.354 0 0 1-.358-.349c0-.193.16-.349.358-.349.199 0 .359.156.359.349Zm2.234 0c0 .192-.16.349-.358.349a.354.354 0 0 1-.359-.349c0-.193.16-.349.359-.349.197 0 .358.156.358.349Zm1.119 0c0 .192-.16.349-.358.349a.353.353 0 0 1-.358-.349c0-.193.16-.349.358-.349.198 0 .358.156.358.349Zm2.236 0a.353.353 0 0 1-.358.349.354.354 0 0 1-.358-.349c0-.193.16-.349.358-.349.199 0 .358.156.358.349Zm1.118 0c0 .192-.16.349-.359.349a.354.354 0 0 1-.358-.349c0-.193.16-.349.358-.349.198 0 .359.156.359.349Zm1.115 0c0 .192-.16.349-.358.349a.354.354 0 0 1-.359-.349c0-.193.16-.349.359-.349.198 0 .358.156.358.349Zm1.119 0c0 .192-.16.349-.358.349a.354.354 0 0 1-.359-.349c0-.193.16-.349.359-.349.198 0 .358.156.358.349Zm-11.178 1.089c0 .192-.16.349-.358.349a.354.354 0 0 1-.358-.349c0-.192.16-.349.358-.349.197 0 .358.157.358.349Zm1.117 0a.353.353 0 0 1-.358.349.354.354 0 0 1-.358-.349c0-.192.16-.349.358-.349.198 0 .358.157.358.349Zm1.12 0c0 .192-.16.349-.359.349a.354.354 0 0 1-.358-.349c0-.192.16-.349.358-.349.199 0 .359.157.359.349Zm1.119 0c0 .192-.16.349-.359.349a.354.354 0 0 1-.358-.349c0-.192.16-.349.358-.349.199 0 .359.157.359.349Zm1.115 0c0 .192-.16.349-.358.349a.354.354 0 0 1-.359-.349c0-.192.16-.349.359-.349.197 0 .358.157.358.349Zm1.119 0c0 .192-.16.349-.358.349a.353.353 0 0 1-.358-.349c0-.192.16-.349.358-.349.198 0 .358.157.358.349Zm2.236 0a.353.353 0 0 1-.358.349.354.354 0 0 1-.358-.349c0-.192.16-.349.358-.349.199 0 .358.157.358.349Zm-1.117-2.178c0 .192-.16.349-.358.349a.354.354 0 0 1-.358-.349c0-.193.16-.349.358-.349.198 0 .358.156.358.349Zm-1.119 0c0 .192-.16.349-.358.349a.353.353 0 0 1-.358-.349c0-.193.16-.349.358-.349.198 0 .358.156.358.349Zm1.119 1.089c0 .192-.16.349-.358.349a.354.354 0 0 1-.358-.349c0-.193.16-.349.358-.349.198 0 .358.156.358.349Zm0 1.089c0 .192-.16.349-.358.349a.354.354 0 0 1-.358-.349c0-.192.16-.349.358-.349.198 0 .358.157.358.349Zm3.35 0c0 .192-.16.349-.358.349a.354.354 0 0 1-.359-.349c0-.192.16-.349.359-.349.198 0 .358.157.358.349Zm-1.115-2.178c0 .192-.16.349-.359.349a.354.354 0 0 1-.358-.349c0-.193.16-.349.358-.349.198 0 .359.156.359.349Zm0 2.178c0 .192-.16.349-.359.349a.354.354 0 0 1-.358-.349c0-.192.16-.349.358-.349.198 0 .359.157.359.349Zm-7.827 1.089a.353.353 0 0 1-.358.349.354.354 0 0 1-.358-.349c0-.192.16-.349.358-.349a.355.355 0 0 1 .358.349Zm1.12 0c0 .192-.16.349-.359.349a.354.354 0 0 1-.358-.349c0-.192.16-.349.358-.349a.355.355 0 0 1 .359.349Zm1.119 0c0 .192-.16.349-.359.349a.354.354 0 0 1-.358-.349c0-.192.16-.349.358-.349a.355.355 0 0 1 .359.349Zm1.115 0c0 .192-.16.349-.358.349a.354.354 0 0 1-.359-.349c0-.192.16-.349.359-.349a.355.355 0 0 1 .358.349Zm2.238 0c0 .192-.16.349-.358.349a.354.354 0 0 1-.358-.349c0-.192.16-.349.358-.349a.355.355 0 0 1 .358.349Zm-1.119 0c0 .192-.16.349-.358.349a.353.353 0 0 1-.358-.349c0-.192.16-.349.358-.349a.355.355 0 0 1 .358.349Zm2.236 0a.353.353 0 0 1-.358.349.354.354 0 0 1-.358-.349c0-.192.16-.349.358-.349a.354.354 0 0 1 .358.349Zm1.118 0c0 .192-.16.349-.359.349a.354.354 0 0 1-.358-.349c0-.192.16-.349.358-.349a.355.355 0 0 1 .359.349Zm-8.944 1.09c0 .192-.16.349-.358.349a.354.354 0 0 1-.358-.349c0-.192.16-.349.358-.349.197 0 .358.156.358.349Zm2.237 0c0 .193-.16.349-.359.349a.354.354 0 0 1-.358-.349c0-.192.16-.349.358-.349.199 0 .359.156.359.349Zm-1.12 0a.353.353 0 0 1-.358.349.354.354 0 0 1-.358-.349c0-.192.16-.349.358-.349.198 0 .358.156.358.349Zm4.473 0c0 .193-.16.349-.358.349a.353.353 0 0 1-.358-.349c0-.192.16-.349.358-.349.198 0 .358.156.358.349Zm1.119 0c0 .193-.16.349-.358.349a.354.354 0 0 1-.358-.349c0-.192.16-.349.358-.349.198 0 .358.156.358.349Zm1.117 0a.353.353 0 0 1-.358.349.354.354 0 0 1-.358-.349c0-.192.16-.349.358-.349.199 0 .358.156.358.349Zm-7.826 1.089c0 .193-.16.349-.358.349a.353.353 0 0 1-.358-.349c0-.192.16-.349.358-.349.197 0 .358.157.358.349Zm1.117 0a.353.353 0 0 1-.358.349.353.353 0 0 1-.358-.349c0-.192.16-.349.358-.349.198 0 .358.157.358.349Zm4.473 0c0 .193-.16.349-.358.349a.353.353 0 0 1-.358-.349c0-.192.16-.349.358-.349.198 0 .358.157.358.349Zm-1.119-1.089c0 .193-.16.349-.358.349a.354.354 0 0 1-.359-.349c0-.192.16-.349.359-.349.197 0 .358.156.358.349Zm0 1.089c0 .193-.16.349-.358.349a.353.353 0 0 1-.359-.349c0-.192.16-.349.359-.349.197 0 .358.157.358.349Zm-1.115-1.089c0 .192-.16.349-.359.349a.354.354 0 0 1-.358-.349c0-.192.16-.349.358-.349.199 0 .359.156.359.349Zm0 1.089c0 .193-.16.349-.359.349a.353.353 0 0 1-.358-.349c0-.192.16-.349.358-.349.199 0 .359.157.359.349Zm-3.356 1.089c0 .193-.16.349-.358.349a.354.354 0 0 1-.358-.349c0-.192.16-.349.358-.349a.355.355 0 0 1 .358.349Zm1.117 0a.353.353 0 0 1-.358.349.354.354 0 0 1-.358-.349c0-.192.16-.349.358-.349a.355.355 0 0 1 .358.349Zm2.239 0c0 .193-.16.349-.359.349a.354.354 0 0 1-.358-.349c0-.192.16-.349.358-.349a.355.355 0 0 1 .359.349Zm-1.119-1.089c0 .193-.16.349-.359.349a.353.353 0 0 1-.358-.349c0-.192.16-.349.358-.349.199 0 .359.157.359.349Zm0 1.089c0 .193-.16.349-.359.349a.354.354 0 0 1-.358-.349c0-.192.16-.349.358-.349a.355.355 0 0 1 .359.349Zm2.234 0c0 .193-.16.349-.358.349a.354.354 0 0 1-.359-.349c0-.192.16-.349.359-.349a.355.355 0 0 1 .358.349Zm2.246-1.192c0 .192-.427.391-.625.391s-.101-.094-.101-.288c0-.192.16-.349.358-.349.198 0 .368.053.368.246Zm-5.6 2.282c0 .193-.144.025-.342.025-.197 0-.179-.025-.374-.025 0-.192.16-.349.358-.349.198 0 .358.156.358.349Zm1.12 0c0 .193-.16.155-.359.155-.197 0-.358.039-.358-.155 0-.192.16-.349.358-.349.199 0 .359.156.359.349Zm-2.237-4.358c0 .192-.16.349-.358.349a.354.354 0 0 1-.358-.349c0-.192.16-.349.358-.349a.355.355 0 0 1 .358.349Z" fill="#3136BD"/><path d="M252.525 172.333c20.673 0 37.433-16.232 37.433-36.256 0-20.023-16.76-36.256-37.433-36.256-20.674 0-37.433 16.233-37.433 36.256 0 20.024 16.759 36.256 37.433 36.256Z" stroke="url(#m)" stroke-width="1.061" stroke-miterlimit="10"/></g></g><defs><linearGradient id="b" x1="-213.858" y1="345.843" x2="553.095" y2="2.956" gradientUnits="userSpaceOnUse"><stop offset=".325" stop-color="#F8F8FE"/><stop offset="1" stop-color="#494FE1" stop-opacity=".93"/></linearGradient><linearGradient id="f" x1="212.588" y1="103.862" x2="285.074" y2="166.252" gradientUnits="userSpaceOnUse"><stop offset="0" stop-color="#3D4FC7"/><stop offset=".254" stop-color="#3D4FC7" stop-opacity=".72"/><stop offset=".391" stop-color="#3D4FC7" stop-opacity=".64"/><stop offset=".501" stop-color="#3D4FC7" stop-opacity=".48"/><stop offset=".595" stop-color="#3D4FC7" stop-opacity=".4"/><stop offset=".68" stop-color="#3D4FC7" stop-opacity=".32"/><stop offset=".759" stop-color="#3D4FC7" stop-opacity=".24"/><stop offset=".832" stop-color="#6266C6" stop-opacity=".16"/><stop offset=".901" stop-color="#6266C6" stop-opacity=".1"/><stop offset=".965" stop-color="#6266C6" stop-opacity=".03"/><stop offset="1" stop-opacity="0"/><stop offset="1" stop-color="#EFF0F8"/></linearGradient><linearGradient id="g" x1="293.9" y1="166.422" x2="222.387" y2="102.919" gradientUnits="userSpaceOnUse"><stop offset="0" stop-color="#3D4FC7"/><stop offset=".254" stop-color="#3D4FC7" stop-opacity=".72"/><stop offset=".391" stop-color="#3D4FC7" stop-opacity=".6"/><stop offset=".501" stop-color="#3D4FC7" stop-opacity=".5"/><stop offset=".595" stop-color="#3D4FC7" stop-opacity=".4"/><stop offset=".68" stop-color="#3D4FC7" stop-opacity=".32"/><stop offset=".759" stop-color="#3D4FC7" stop-opacity=".24"/><stop offset=".832" stop-color="#3D4FC7" stop-opacity=".16"/><stop offset=".901" stop-color="#3D4FC7" stop-opacity=".08"/><stop offset=".94" stop-color="#6266C6" stop-opacity=".04"/><stop offset=".965" stop-color="#3D4FC7" stop-opacity=".04"/><stop offset="1" stop-color="#3D4FC7" stop-opacity=".02"/></linearGradient><linearGradient id="h" x1="293.9" y1="166.422" x2="222.387" y2="102.919" gradientUnits="userSpaceOnUse"><stop offset="0" stop-color="#3D4FC7"/><stop offset=".254" stop-color="#3D4FC7" stop-opacity=".72"/><stop offset=".391" stop-color="#3D4FC7" stop-opacity=".64"/><stop offset=".501" stop-color="#3D4FC7" stop-opacity=".64"/><stop offset=".595" stop-color="#3D4FC7" stop-opacity=".4"/><stop offset=".68" stop-color="#3D4FC7" stop-opacity=".32"/><stop offset=".759" stop-color="#3D4FC7" stop-opacity=".24"/><stop offset=".832" stop-color="#3D4FC7" stop-opacity=".16"/><stop offset=".901" stop-color="#3D4FC7" stop-opacity=".08"/><stop offset=".965" stop-color="#3D4FC7" stop-opacity=".04"/><stop offset="1" stop-color="#3D4FC7" stop-opacity="0"/></linearGradient><linearGradient id="i" x1="271.934" y1="191.955" x2="199.663" y2="129.317" gradientUnits="userSpaceOnUse"><stop offset="0" stop-color="#3D4FC7"/><stop offset=".254" stop-color="#3D4FC7" stop-opacity=".72"/><stop offset=".391" stop-color="#3D4FC7" stop-opacity=".6"/><stop offset=".501" stop-color="#3D4FC7" stop-opacity=".48"/><stop offset=".595" stop-color="#3D4FC7" stop-opacity=".4"/><stop offset=".68" stop-color="#3D4FC7" stop-opacity=".4"/><stop offset=".759" stop-color="#3D4FC7" stop-opacity=".24"/><stop offset=".832" stop-color="#3D4FC7" stop-opacity=".16"/><stop offset=".901" stop-color="#3D4FC7" stop-opacity=".08"/><stop offset=".965" stop-color="#3D4FC7" stop-opacity=".04"/><stop offset="1" stop-color="#3D4FC7" stop-opacity="0"/></linearGradient><linearGradient id="j" x1="297.069" y1="161.904" x2="222.893" y2="101.535" gradientUnits="userSpaceOnUse"><stop offset="0" stop-color="#3D4FC7"/><stop offset=".122" stop-color="#3D4FC7" stop-opacity=".8"/><stop offset=".254" stop-color="#3D4FC7" stop-opacity=".72"/><stop offset=".391" stop-color="#3D4FC7" stop-opacity=".6"/><stop offset=".501" stop-color="#3D4FC7" stop-opacity=".48"/><stop offset=".595" stop-color="#3D4FC7" stop-opacity=".4"/><stop offset=".68" stop-color="#3D4FC7" stop-opacity=".32"/><stop offset=".759" stop-color="#3D4FC7" stop-opacity=".24"/><stop offset=".832" stop-color="#3D4FC7" stop-opacity=".16"/><stop offset=".865" stop-color="#4E54D1" stop-opacity=".122"/><stop offset=".901" stop-color="#3D4FC7" stop-opacity=".08"/><stop offset=".965" stop-color="#3D4FC7" stop-opacity=".04"/><stop offset="1" stop-opacity="0"/><stop offset="1" stop-color="#6266C6" stop-opacity="0"/><stop offset="1" stop-color="#3D4FC7" stop-opacity="0"/></linearGradient><linearGradient id="k" x1="273.567" y1="135.278" x2="231.307" y2="135.278" gradientUnits="userSpaceOnUse"><stop offset=".443" stop-color="#fff"/><stop offset=".589" stop-color="#A1A1A1"/><stop offset=".732" stop-color="#4A4A4A"/><stop offset=".832" stop-color="#151515"/><stop offset=".88"/></linearGradient><linearGradient id="m" x1="223.806" y1="112.749" x2="279.72" y2="161.165" gradientUnits="userSpaceOnUse"><stop stop-color="#57C3F9" stop-opacity=".2"/><stop offset=".489" stop-color="#57C3F9"/><stop offset=".761" stop-color="#57C3F9"/><stop offset="1" stop-color="#57C3F9" stop-opacity=".5"/></linearGradient><filter id="c" x="97.424" y="-19.731" width="310.674" height="310.673" filterUnits="userSpaceOnUse" color-interpolation-filters="sRGB"><feFlood flood-opacity="0" result="BackgroundImageFix"/><feColorMatrix in="SourceAlpha" values="0 0 0 0 0 0 0 0 0 0 0 0 0 0 0 0 0 0 127 0" result="hardAlpha"/><feOffset/><feGaussianBlur stdDeviation="40"/><feComposite in2="hardAlpha" operator="out"/><feColorMatrix values="0 0 0 0 0.777767 0 0 0 0 0.797986 0 0 0 0 0.865384 0 0 0 0.4 0"/><feBlend in2="BackgroundImageFix" result="effect1_dropShadow_3060_177257"/><feBlend in="SourceGraphic" in2="effect1_dropShadow_3060_177257" result="shape"/></filter><filter id="d" x="101.789" y="20.741" width="326.1" height="291.407" filterUnits="userSpaceOnUse" color-interpolation-filters="sRGB"><feFlood flood-opacity="0" result="BackgroundImageFix"/><feColorMatrix in="SourceAlpha" values="0 0 0 0 0 0 0 0 0 0 0 0 0 0 0 0 0 0 127 0" result="hardAlpha"/><feOffset/><feGaussianBlur stdDeviation="40"/><feComposite in2="hardAlpha" operator="out"/><feColorMatrix values="0 0 0 0 0.777767 0 0 0 0 0.797986 0 0 0 0 0.865384 0 0 0 0.4 0"/><feBlend in2="BackgroundImageFix" result="effect1_dropShadow_3060_177257"/><feBlend in="SourceGraphic" in2="effect1_dropShadow_3060_177257" result="shape"/></filter><filter id="e" x="168.965" y="51.812" width="167.588" height="167.588" filterUnits="userSpaceOnUse" color-interpolation-filters="sRGB"><feFlood flood-opacity="0" result="BackgroundImageFix"/><feColorMatrix in="SourceAlpha" values="0 0 0 0 0 0 0 0 0 0 0 0 0 0 0 0 0 0 127 0" result="hardAlpha"/><feOffset/><feGaussianBlur stdDeviation="16"/><feComposite in2="hardAlpha" operator="out"/><feColorMatrix values="0 0 0 0 0.886275 0 0 0 0 0.894118 0 0 0 0 0.945098 0 0 0 0.6 0"/><feBlend in2="BackgroundImageFix" result="effect1_dropShadow_3060_177257"/><feBlend in="SourceGraphic" in2="effect1_dropShadow_3060_177257" result="shape"/></filter><clipPath id="a"><path fill="#fff" d="M0 0h375v271H0z"/></clipPath></defs></svg>