<svg width="1366" height="603" fill="none" xmlns="http://www.w3.org/2000/svg"><g clip-path="url(#a)"><path fill="#fff" d="M0 0h1366v603H0z"/><path d="M1510.89-46c-10.35 133.5-136.16 214.464-239.42 182.129-90.71-28.407-145.76-17.249-183.02 11.48-70.02 54.006-64.59 157.781-171.051 188.287-80.296 23.008-149.923-48.515-223.997-13.242-74.074 35.273-43.885 102.638-147.296 196.878-103.411 94.239-178.381-8.957-229.559 65.779" stroke="url(#b)"/><g filter="url(#c)"><circle cx="964.753" cy="278.617" r="180.343" fill="#fff"/></g><g filter="url(#d)"><path d="M794.859 429.791a225.432 225.432 0 0 0 290.791 46.206 225.404 225.404 0 0 0 96.41-123.985 225.403 225.403 0 0 0-7.96-156.856l-25.71 11.071a197.456 197.456 0 0 1 6.97 137.374 197.447 197.447 0 0 1-84.44 108.586 197.422 197.422 0 0 1-134.857 27.089 197.423 197.423 0 0 1-119.818-67.556l-21.386 18.071Z" fill="#E2E4F1"/></g><g filter="url(#e)"><circle cx="964.751" cy="278.617" r="123.986" fill="#fff"/></g><path opacity=".5" d="M1046.47 246.826c-4.49-10.572-11.15-20.258-19.45-28.348-8.3-8.09-18.24-14.578-29.094-18.954-10.844-4.393-22.586-6.638-34.326-6.642-11.74.004-23.479 2.251-34.325 6.642-10.85 4.376-20.791 10.864-29.094 18.954s-14.961 17.776-19.453 28.348c-4.508 10.566-6.814 22.007-6.816 33.446.002 11.439 2.31 22.878 6.816 33.445 4.492 10.572 11.15 20.259 19.453 28.349 8.303 8.09 18.244 14.577 29.094 18.954 10.843 4.393 22.585 6.637 34.325 6.641 11.74-.004 23.48-2.25 34.326-6.641 10.854-4.377 20.794-10.864 29.094-18.954s14.96-17.777 19.45-28.349c4.51-10.565 6.81-22.006 6.82-33.445-.01-11.439-2.31-22.88-6.82-33.446Zm-1.24 66.389c-4.42 10.412-10.98 19.954-19.16 27.921a88.7 88.7 0 0 1-28.655 18.671c-10.682 4.326-22.244 6.539-33.813 6.543-11.568-.004-23.131-2.217-33.812-6.543-10.685-4.308-20.479-10.699-28.657-18.671-8.179-7.969-14.739-17.509-19.16-27.921-4.44-10.407-6.711-21.673-6.716-32.945.005-11.273 2.276-22.539 6.716-32.946 4.421-10.412 10.981-19.954 19.16-27.923a88.753 88.753 0 0 1 28.657-18.669c10.681-4.326 22.244-6.539 33.812-6.543 11.569.004 23.131 2.217 33.813 6.543a88.744 88.744 0 0 1 28.655 18.669c8.18 7.971 14.74 17.511 19.16 27.923 4.44 10.407 6.71 21.673 6.72 32.946-.01 11.272-2.28 22.538-6.72 32.945Z" fill="url(#f)"/><path d="M901.487 213.266c14.017-12.41 32.078-20.365 50.99-22.484l.682 6.523c-17.5 1.987-34.205 9.357-47.17 20.837-13.184 11.565-22.455 26.979-26.213 43.53l-6.587-1.342c4.042-17.906 14.056-34.575 28.298-47.064Z" fill="url(#g)"/><path d="M873.187 260.33c4.044-17.906 14.056-34.575 28.3-47.064 14.017-12.41 32.078-20.365 50.99-22.484l.682 6.523c-17.5 1.987-34.205 9.357-47.17 20.837-13.184 11.565-22.455 26.979-26.213 43.53l-6.589-1.342Z" fill="url(#h)"/><path d="m871.417 281.611 6.727.004c.17 10.886 2.579 21.839 7.005 31.761 4.408 9.929 10.944 19.146 18.948 26.736l-4.613 4.774c-8.664-8.199-15.741-18.168-20.511-28.911-4.788-10.737-7.389-22.591-7.556-34.364Z" fill="url(#i)"/><path d="m1006.82 207.844 3.35-5.692c15.59 9.002 28.41 22.639 36.21 38.533 8.02 16.195 10.82 35.014 7.89 52.999-2.86 17.872-11.52 34.929-24.4 48.032-12.54 12.842-29.09 21.96-46.724 25.765l-1.357-6.419c16.306-3.544 31.611-11.985 43.211-23.865 11.94-12.148 19.98-27.963 22.63-44.531 2.71-16.688.11-34.143-7.32-49.141-7.21-14.707-19.07-27.331-33.49-35.681Z" fill="url(#j)"/><path d="M1010.84 243.456c0 79.901-47.226 91.392-47.226 91.392s-47.231-11.491-47.231-91.392c15.743-1.245 31.16-2.987 47.231-17.322 16.073 14.335 31.487 16.077 47.226 17.322Z" stroke="#3136BD" stroke-miterlimit="10"/><path d="M963.649 226.156c16.071 14.336 31.488 16.078 47.231 17.322 0 79.902-47.231 91.393-47.231 91.393s-47.231-11.491-47.231-91.393c15.744-1.244 31.16-2.986 47.231-17.322Zm0-3.99-2.04 1.819c-3.707 3.307-7.437 5.987-11.404 8.194a56.566 56.566 0 0 1-11.195 4.737c-7.472 2.274-15.065 3.013-22.835 3.626l-2.777.219v2.713c0 18.558 2.541 35.03 7.55 48.961 4.049 11.26 9.715 20.903 16.835 28.659 12.285 13.381 24.615 16.499 25.135 16.626l.731.177.732-.177c.52-.127 12.85-3.245 25.135-16.626 7.122-7.756 12.784-17.399 16.834-28.659 5.01-13.931 7.55-30.403 7.55-48.961v-2.713l-2.78-.219c-7.77-.613-15.359-1.352-22.832-3.626a56.582 56.582 0 0 1-11.194-4.737c-3.968-2.207-7.698-4.889-11.404-8.194l-2.041-1.819Z" stroke="#3136BD" stroke-miterlimit="10"/><mask id="l" style="mask-type:alpha" maskUnits="userSpaceOnUse" x="913" y="220" width="102" height="115"><path d="M913.398 220.834v113.998h101.162V220.834H913.398Z" fill="url(#k)"/></mask><g mask="url(#l)"><path d="M957.313 232.838c0 .46-.383.836-.858.836a.847.847 0 0 1-.857-.836c0-.461.383-.836.857-.836.475 0 .858.375.858.836Zm2.672 0c0 .46-.383.836-.858.836a.847.847 0 0 1-.857-.836c0-.461.382-.836.857-.836s.858.375.858.836Zm0-2.543a.847.847 0 0 1-.858.836.847.847 0 0 1-.857-.836c0-.46.382-.835.857-.835s.858.375.858.835Zm2.68 2.543c0 .46-.383.836-.858.836a.847.847 0 0 1-.858-.836c0-.461.383-.836.858-.836.473 0 .858.375.858.836Zm0-2.543a.847.847 0 0 1-.858.836.847.847 0 0 1-.858-.836c0-.46.383-.835.858-.835.473 0 .858.375.858.835Zm.003-2.5c0 .46-.383.835-.858.835-.473 0-.4-.243-.4-.706 0-.46.568-.523.858-.835.473 0 .4.245.4.706Zm2.676 5.043c0 .46-.383.836-.857.836a.847.847 0 0 1-.858-.836c0-.461.383-.836.858-.836.472 0 .857.375.857.836Zm0-2.543a.847.847 0 0 1-.857.836.847.847 0 0 1-.858-.836c0-.46.383-.835.858-.835.472 0 .857.375.857.835Zm0-2.5c0 .46-.383.835-.857.835a.847.847 0 0 1-.858-.835c0-.461.383-.836.858-.836.472 0 .857.375.857.836Zm2.672 5.043c0 .46-.383.836-.858.836a.847.847 0 0 1-.857-.836c0-.461.383-.836.857-.836.475 0 .858.375.858.836Zm0-2.543a.847.847 0 0 1-.858.836.847.847 0 0 1-.857-.836c0-.46.383-.835.857-.835.475 0 .858.375.858.835Zm-16.055 5.15a.846.846 0 0 1-.857.836.847.847 0 0 1-.858-.836c0-.461.383-.836.858-.836a.847.847 0 0 1 .857.836Zm2.676 0a.847.847 0 0 1-.857.836.847.847 0 0 1-.858-.836c0-.461.383-.836.858-.836a.85.85 0 0 1 .857.836Zm2.676 0a.847.847 0 0 1-.858.836.847.847 0 0 1-.857-.836c0-.461.383-.836.857-.836a.848.848 0 0 1 .858.836Zm2.672 0a.847.847 0 0 1-.858.836.847.847 0 0 1-.857-.836c0-.461.382-.836.857-.836a.848.848 0 0 1 .858.836Zm2.68 0a.847.847 0 0 1-.858.836.847.847 0 0 1-.858-.836c0-.461.383-.836.858-.836a.85.85 0 0 1 .858.836Zm2.679 0a.847.847 0 0 1-.857.836.847.847 0 0 1-.858-.836c0-.461.383-.836.858-.836a.85.85 0 0 1 .857.836Zm2.672 0a.847.847 0 0 1-.858.836.847.847 0 0 1-.857-.836c0-.461.383-.836.857-.836a.848.848 0 0 1 .858.836Zm-21.41 2.609c0 .46-.383.836-.858.836a.847.847 0 0 1-.857-.836c0-.461.382-.836.857-.836.473 0 .858.373.858.836Zm2.676 0c0 .46-.383.836-.858.836a.847.847 0 0 1-.858-.836c0-.461.383-.836.858-.836s.858.373.858.836Zm2.679 0c0 .46-.382.836-.857.836a.847.847 0 0 1-.858-.836c0-.461.383-.836.858-.836s.857.373.857.836Zm2.676 0c0 .46-.383.836-.857.836a.847.847 0 0 1-.858-.836c0-.461.383-.836.858-.836.472 0 .857.373.857.836Zm2.676 0c0 .46-.383.836-.858.836a.847.847 0 0 1-.857-.836c0-.461.383-.836.857-.836.475 0 .858.373.858.836Zm2.672 0c0 .46-.383.836-.858.836a.847.847 0 0 1-.857-.836c0-.461.382-.836.857-.836s.858.373.858.836Zm2.68 0c0 .46-.383.836-.858.836a.847.847 0 0 1-.858-.836c0-.461.383-.836.858-.836.473 0 .858.373.858.836Zm2.679 0c0 .46-.383.836-.857.836a.847.847 0 0 1-.858-.836c0-.461.383-.836.858-.836.472 0 .857.373.857.836Zm2.672 0c0 .46-.383.836-.858.836a.847.847 0 0 1-.857-.836c0-.461.383-.836.857-.836.475 0 .858.373.858.836Zm-29.437 2.607a.847.847 0 0 1-.858.836.847.847 0 0 1-.858-.836c0-.46.383-.835.858-.835s.858.375.858.835Zm2.675 0a.846.846 0 0 1-.857.836.847.847 0 0 1-.858-.836c0-.46.383-.835.858-.835s.857.375.857.835Zm2.68 0a.847.847 0 0 1-.858.836.847.847 0 0 1-.857-.836c0-.46.383-.835.857-.835.473 0 .858.375.858.835Zm2.672 0a.847.847 0 0 1-.858.836.847.847 0 0 1-.857-.836c0-.46.382-.835.857-.835.473 0 .858.375.858.835Zm2.676 0a.847.847 0 0 1-.858.836.847.847 0 0 1-.858-.836c0-.46.383-.835.858-.835s.858.375.858.835Zm2.679 0a.846.846 0 0 1-.857.836.847.847 0 0 1-.858-.836c0-.46.383-.835.858-.835s.857.375.857.835Zm2.676 0a.847.847 0 0 1-.857.836.847.847 0 0 1-.858-.836c0-.46.383-.835.858-.835.472 0 .857.375.857.835Zm2.676 0a.847.847 0 0 1-.858.836.847.847 0 0 1-.857-.836c0-.46.383-.835.857-.835.475 0 .858.375.858.835Zm2.672 0a.847.847 0 0 1-.858.836.847.847 0 0 1-.857-.836c0-.46.382-.835.857-.835s.858.375.858.835Zm2.68 0a.847.847 0 0 1-.858.836.847.847 0 0 1-.858-.836c0-.46.383-.835.858-.835.473 0 .858.375.858.835Zm2.679 0a.847.847 0 0 1-.857.836.847.847 0 0 1-.858-.836c0-.46.383-.835.858-.835.472 0 .857.375.857.835Zm2.672 0a.847.847 0 0 1-.858.836.847.847 0 0 1-.857-.836c0-.46.383-.835.857-.835.475 0 .858.375.858.835Zm-48.172 2.607a.847.847 0 0 1-.857.836.847.847 0 0 1-.858-.836c0-.46.351-.367.826-.367s.889-.093.889.367Zm8.031 0a.846.846 0 0 1-.857.836.847.847 0 0 1-.858-.836c0-.461.383-.836.858-.836.472 0 .857.375.857.836Zm2.676 0a.847.847 0 0 1-.857.836.847.847 0 0 1-.858-.836c0-.461.383-.836.858-.836.474 0 .857.375.857.836Zm-8.031 0a.847.847 0 0 1-.858.836.847.847 0 0 1-.857-.836c0-.46.383-.575.857-.575.475 0 .858.115.858.575Zm2.684 0a.847.847 0 0 1-.858.836.847.847 0 0 1-.858-.836c0-.461.383-.836.858-.836.473 0 .858.375.858.836Zm8.023 0a.847.847 0 0 1-.858.836.847.847 0 0 1-.857-.836c0-.461.383-.836.857-.836.475 0 .858.375.858.836Zm2.676 0a.847.847 0 0 1-.858.836.846.846 0 0 1-.857-.836c0-.461.382-.836.857-.836.473 0 .858.375.858.836Zm2.676 0a.847.847 0 0 1-.858.836.847.847 0 0 1-.858-.836c0-.461.383-.836.858-.836s.858.375.858.836Zm2.675 0a.846.846 0 0 1-.857.836.847.847 0 0 1-.858-.836c0-.461.383-.836.858-.836s.857.375.857.836Zm2.68 0a.847.847 0 0 1-.858.836.847.847 0 0 1-.857-.836c0-.461.383-.836.857-.836.473 0 .858.375.858.836Zm5.348 0a.847.847 0 0 1-.858.836.847.847 0 0 1-.858-.836c0-.461.383-.836.858-.836s.858.375.858.836Zm-2.676 0a.847.847 0 0 1-.858.836.847.847 0 0 1-.857-.836c0-.461.382-.836.857-.836.473 0 .858.375.858.836Zm5.355 0a.846.846 0 0 1-.857.836.847.847 0 0 1-.858-.836c0-.461.383-.836.858-.836s.857.375.857.836Zm2.676 0a.847.847 0 0 1-.857.836.847.847 0 0 1-.858-.836c0-.461.383-.836.858-.836.472 0 .857.375.857.836Zm2.676 0a.847.847 0 0 1-.858.836.847.847 0 0 1-.857-.836c0-.461.383-.836.857-.836.475 0 .858.375.858.836Zm2.672 0a.847.847 0 0 1-.858.836.847.847 0 0 1-.857-.836c0-.461.382-.836.857-.836s.858.375.858.836Zm2.68 0a.847.847 0 0 1-.858.836.847.847 0 0 1-.858-.836c0-.461.383-.836.858-.836.473 0 .858.375.858.836Zm2.679 0a.847.847 0 0 1-.857.836.847.847 0 0 1-.858-.836c0-.461.383-.836.858-.836.472 0 .857.375.857.836Zm2.672 0a.847.847 0 0 1-.858.836.847.847 0 0 1-.857-.836c0-.461.383-.836.857-.836.475 0 .858.375.858.836Zm-50.847 2.607a.847.847 0 0 1-.857.836c-.473 0-.244-.429-.244-.892 0-.461-.231-.78.244-.78.472.003.857.376.857.836Zm2.675 0a.847.847 0 0 1-.857.836.847.847 0 0 1-.858-.836c0-.46.383-.835.858-.835a.848.848 0 0 1 .857.835Zm2.676 0a.847.847 0 0 1-.858.836.847.847 0 0 1-.857-.836c0-.46.383-.835.857-.835a.848.848 0 0 1 .858.835Zm2.684 0a.847.847 0 0 1-.858.836.847.847 0 0 1-.858-.836c0-.46.383-.835.858-.835a.85.85 0 0 1 .858.835Zm2.671 0a.846.846 0 0 1-.857.836.847.847 0 0 1-.858-.836c0-.46.383-.835.858-.835a.85.85 0 0 1 .857.835Zm8.028 0a.847.847 0 0 1-.858.836.846.846 0 0 1-.857-.836c0-.46.382-.835.857-.835a.85.85 0 0 1 .858.835Zm2.676 0a.847.847 0 0 1-.858.836.847.847 0 0 1-.858-.836c0-.46.383-.835.858-.835a.848.848 0 0 1 .858.835Zm-8.028 0a.847.847 0 0 1-.857.836.847.847 0 0 1-.858-.836c0-.46.383-.835.858-.835a.848.848 0 0 1 .857.835Zm2.676 0a.847.847 0 0 1-.858.836.847.847 0 0 1-.857-.836c0-.46.383-.835.857-.835a.848.848 0 0 1 .858.835Zm10.707 0a.847.847 0 0 1-.858.836.847.847 0 0 1-.857-.836c0-.46.383-.835.857-.835a.85.85 0 0 1 .858.835Zm-2.68 0a.846.846 0 0 1-.857.836.847.847 0 0 1-.858-.836c0-.46.383-.835.858-.835a.847.847 0 0 1 .857.835Zm5.352 0a.847.847 0 0 1-.858.836.847.847 0 0 1-.857-.836c0-.46.382-.835.857-.835a.85.85 0 0 1 .858.835Zm2.676 0a.847.847 0 0 1-.858.836.847.847 0 0 1-.858-.836c0-.46.383-.835.858-.835a.848.848 0 0 1 .858.835Zm2.679 0a.846.846 0 0 1-.857.836.847.847 0 0 1-.858-.836c0-.46.383-.835.858-.835a.847.847 0 0 1 .857.835Zm2.676 0a.847.847 0 0 1-.857.836.847.847 0 0 1-.858-.836c0-.46.383-.835.858-.835a.85.85 0 0 1 .857.835Zm2.676 0a.847.847 0 0 1-.858.836.847.847 0 0 1-.857-.836c0-.46.383-.835.857-.835a.848.848 0 0 1 .858.835Zm2.672 0a.847.847 0 0 1-.858.836.847.847 0 0 1-.857-.836c0-.46.382-.835.857-.835a.848.848 0 0 1 .858.835Zm2.68 0a.847.847 0 0 1-.858.836.847.847 0 0 1-.858-.836c0-.46.383-.835.858-.835a.85.85 0 0 1 .858.835Zm2.679 0a.847.847 0 0 1-.857.836.847.847 0 0 1-.858-.836c0-.46.383-.835.858-.835a.85.85 0 0 1 .857.835Zm2.672 0a.847.847 0 0 1-.858.836.847.847 0 0 1-.857-.836c0-.46.383-.835.857-.835a.848.848 0 0 1 .858.835Zm-48.172 2.609a.847.847 0 0 1-.857.836.847.847 0 0 1-.858-.836c0-.46.383-.836.858-.836.474 0 .857.373.857.836Zm5.36 0a.847.847 0 0 1-.858.836.847.847 0 0 1-.858-.836c0-.46.383-.836.858-.836.473 0 .858.373.858.836Zm-2.684 0a.847.847 0 0 1-.858.836.847.847 0 0 1-.857-.836c0-.46.383-.836.857-.836.475 0 .858.373.858.836Zm5.355 0a.846.846 0 0 1-.857.836.847.847 0 0 1-.858-.836c0-.46.383-.836.858-.836.472 0 .857.373.857.836Zm2.676 0a.847.847 0 0 1-.857.836.847.847 0 0 1-.858-.836c0-.46.383-.836.858-.836.474 0 .857.373.857.836Zm2.676 0a.847.847 0 0 1-.858.836.847.847 0 0 1-.857-.836c0-.46.383-.836.857-.836.475 0 .858.373.858.836Zm2.676 0a.847.847 0 0 1-.858.836.846.846 0 0 1-.857-.836c0-.46.382-.836.857-.836.473 0 .858.373.858.836Zm2.676 0a.847.847 0 0 1-.858.836.847.847 0 0 1-.858-.836c0-.46.383-.836.858-.836s.858.373.858.836Zm2.675 0a.846.846 0 0 1-.857.836.847.847 0 0 1-.858-.836c0-.46.383-.836.858-.836s.857.373.857.836Zm2.68 0a.847.847 0 0 1-.858.836.847.847 0 0 1-.857-.836c0-.46.383-.836.857-.836.473 0 .858.373.858.836Zm2.672 0a.847.847 0 0 1-.858.836.847.847 0 0 1-.857-.836c0-.46.382-.836.857-.836.473 0 .858.373.858.836Zm2.676 0a.847.847 0 0 1-.858.836.847.847 0 0 1-.858-.836c0-.46.383-.836.858-.836s.858.373.858.836Zm2.679 0a.846.846 0 0 1-.857.836.847.847 0 0 1-.858-.836c0-.46.383-.836.858-.836s.857.373.857.836Zm2.676 0a.847.847 0 0 1-.857.836.847.847 0 0 1-.858-.836c0-.46.383-.836.858-.836.472 0 .857.373.857.836Zm2.676 0a.847.847 0 0 1-.858.836.847.847 0 0 1-.857-.836c0-.46.383-.836.857-.836.475 0 .858.373.858.836Zm2.672 0a.847.847 0 0 1-.858.836.847.847 0 0 1-.857-.836c0-.46.382-.836.857-.836s.858.373.858.836Zm2.68 0a.847.847 0 0 1-.858.836.847.847 0 0 1-.858-.836c0-.46.383-.836.858-.836.473 0 .858.373.858.836Zm2.679 0a.847.847 0 0 1-.857.836.847.847 0 0 1-.858-.836c0-.46.383-.836.858-.836.472 0 .857.373.857.836Zm2.672 0a.847.847 0 0 1-.858.836.847.847 0 0 1-.857-.836c0-.46.383-.836.857-.836.475 0 .858.373.858.836Zm-50.849 2.608c0 .46-.383.835-.858.835-.472 0-.214-.373-.214-.835 0-.461-.261-.836.214-.836.473 0 .858.375.858.836Zm2.677 0c0 .46-.383.835-.857.835a.847.847 0 0 1-.858-.835c0-.461.383-.836.858-.836.474 0 .857.375.857.836Zm2.676 0c0 .46-.383.835-.858.835a.847.847 0 0 1-.857-.835c0-.461.383-.836.857-.836.475 0 .858.375.858.836Zm5.355 0c0 .46-.382.835-.857.835a.847.847 0 0 1-.858-.835c0-.461.383-.836.858-.836.472 0 .857.375.857.836Zm-2.671 0c0 .46-.383.835-.858.835a.847.847 0 0 1-.858-.835c0-.461.383-.836.858-.836.473 0 .858.375.858.836Zm8.023 0c0 .46-.383.835-.858.835a.847.847 0 0 1-.857-.835c0-.461.383-.836.857-.836.475 0 .858.375.858.836Zm5.352 0c0 .46-.383.835-.858.835a.847.847 0 0 1-.858-.835c0-.461.383-.836.858-.836s.858.375.858.836Zm2.675 0c0 .46-.382.835-.857.835a.847.847 0 0 1-.858-.835c0-.461.383-.836.858-.836s.857.375.857.836Zm2.68 0c0 .46-.383.835-.858.835a.847.847 0 0 1-.857-.835c0-.461.383-.836.857-.836.473 0 .858.375.858.836Zm-13.383 0c0 .46-.383.835-.857.835a.847.847 0 0 1-.858-.835c0-.461.383-.836.858-.836.474 0 .857.375.857.836Zm5.352 0c0 .46-.383.835-.858.835a.846.846 0 0 1-.857-.835c0-.461.382-.836.857-.836.473 0 .858.375.858.836Zm10.703 0c0 .46-.383.835-.858.835a.847.847 0 0 1-.857-.835c0-.461.382-.836.857-.836.473 0 .858.375.858.836Zm2.676 0c0 .46-.383.835-.858.835a.847.847 0 0 1-.858-.835c0-.461.383-.836.858-.836s.858.375.858.836Zm2.679 0c0 .46-.382.835-.857.835a.847.847 0 0 1-.858-.835c0-.461.383-.836.858-.836s.857.375.857.836Zm2.676 0c0 .46-.383.835-.857.835a.847.847 0 0 1-.858-.835c0-.461.383-.836.858-.836.472 0 .857.375.857.836Zm2.676 0c0 .46-.383.835-.858.835a.847.847 0 0 1-.857-.835c0-.461.383-.836.857-.836.475 0 .858.375.858.836Zm2.672 0c0 .46-.383.835-.858.835a.847.847 0 0 1-.857-.835c0-.461.382-.836.857-.836s.858.375.858.836Zm2.68 0c0 .46-.383.835-.858.835a.847.847 0 0 1-.858-.835c0-.461.383-.836.858-.836.473 0 .858.375.858.836Zm2.679 0c0 .46-.383.835-.857.835a.847.847 0 0 1-.858-.835c0-.461.383-.836.858-.836.472 0 .857.375.857.836Zm2.672 0c0 .46-.383.835-.858.835a.847.847 0 0 1-.857-.835c0-.461.383-.836.857-.836.475 0 .858.375.858.836Zm-48.172 2.606a.847.847 0 0 1-.857.836.847.847 0 0 1-.858-.836c0-.46.383-.835.858-.835a.848.848 0 0 1 .857.835Zm-2.675-5.214a.846.846 0 0 1-.857.836c-.473 0-.244-.373-.244-.836 0-.46-.231-.836.244-.836.472 0 .857.374.857.836Zm5.351 5.214a.847.847 0 0 1-.858.836.847.847 0 0 1-.857-.836c0-.46.383-.835.857-.835a.848.848 0 0 1 .858.835Zm2.684 0a.847.847 0 0 1-.858.836.847.847 0 0 1-.858-.836c0-.46.383-.835.858-.835a.85.85 0 0 1 .858.835Zm5.347 0a.847.847 0 0 1-.857.836.847.847 0 0 1-.858-.836c0-.46.383-.835.858-.835a.848.848 0 0 1 .857.835Zm2.676 0a.847.847 0 0 1-.858.836.847.847 0 0 1-.857-.836c0-.46.383-.835.857-.835a.848.848 0 0 1 .858.835Zm2.676 0a.847.847 0 0 1-.858.836.846.846 0 0 1-.857-.836c0-.46.382-.835.857-.835a.85.85 0 0 1 .858.835Zm2.676 0a.847.847 0 0 1-.858.836.847.847 0 0 1-.858-.836c0-.46.383-.835.858-.835a.848.848 0 0 1 .858.835Zm5.355 0a.847.847 0 0 1-.858.836.847.847 0 0 1-.857-.836c0-.46.383-.835.857-.835a.85.85 0 0 1 .858.835Zm5.348 0a.847.847 0 0 1-.858.836.847.847 0 0 1-.858-.836c0-.46.383-.835.858-.835a.848.848 0 0 1 .858.835Zm-8.028 0a.846.846 0 0 1-.857.836.847.847 0 0 1-.858-.836c0-.46.383-.835.858-.835a.847.847 0 0 1 .857.835Zm5.352 0a.847.847 0 0 1-.858.836.847.847 0 0 1-.857-.836c0-.46.382-.835.857-.835a.85.85 0 0 1 .858.835Zm5.355 0a.846.846 0 0 1-.857.836.847.847 0 0 1-.858-.836c0-.46.383-.835.858-.835a.847.847 0 0 1 .857.835Zm2.676 0a.847.847 0 0 1-.857.836.847.847 0 0 1-.858-.836c0-.46.383-.835.858-.835a.85.85 0 0 1 .857.835Zm2.676 0a.847.847 0 0 1-.858.836.847.847 0 0 1-.857-.836c0-.46.383-.835.857-.835a.848.848 0 0 1 .858.835Zm2.672 0a.847.847 0 0 1-.858.836.847.847 0 0 1-.857-.836c0-.46.382-.835.857-.835a.848.848 0 0 1 .858.835Zm2.68 0a.847.847 0 0 1-.858.836.847.847 0 0 1-.858-.836c0-.46.383-.835.858-.835a.85.85 0 0 1 .858.835Zm2.679 0a.847.847 0 0 1-.857.836.847.847 0 0 1-.858-.836c0-.46.383-.835.858-.835a.85.85 0 0 1 .857.835Zm2.672 0a.847.847 0 0 1-.858.836.847.847 0 0 1-.857-.836c0-.46.383-.835.857-.835a.848.848 0 0 1 .858.835Zm-48.172 2.61c0 .46-.383.835-.857.835a.847.847 0 0 1-.858-.835c0-.461.383-.836.858-.836.474 0 .857.373.857.836Zm2.676 0c0 .46-.383.835-.858.835a.847.847 0 0 1-.857-.835c0-.461.383-.836.857-.836.475 0 .858.373.858.836Zm2.684 0c0 .46-.383.835-.858.835a.847.847 0 0 1-.858-.835c0-.461.383-.836.858-.836.473 0 .858.373.858.836Zm2.671 0c0 .46-.382.835-.857.835a.847.847 0 0 1-.858-.835c0-.461.383-.836.858-.836.472 0 .857.373.857.836Zm2.676 0c0 .46-.383.835-.857.835a.847.847 0 0 1-.858-.835c0-.461.383-.836.858-.836.474 0 .857.373.857.836Zm2.676 0c0 .46-.383.835-.858.835a.847.847 0 0 1-.857-.835c0-.461.383-.836.857-.836.475 0 .858.373.858.836Zm2.676 0c0 .46-.383.835-.858.835a.846.846 0 0 1-.857-.835c0-.461.382-.836.857-.836.473 0 .858.373.858.836Zm2.676 0c0 .46-.383.835-.858.835a.847.847 0 0 1-.858-.835c0-.461.383-.836.858-.836s.858.373.858.836Zm2.675 0c0 .46-.382.835-.857.835a.847.847 0 0 1-.858-.835c0-.461.383-.836.858-.836s.857.373.857.836Zm2.68 0c0 .46-.383.835-.858.835a.847.847 0 0 1-.857-.835c0-.461.383-.836.857-.836.473 0 .858.373.858.836Zm2.672 0c0 .46-.383.835-.858.835a.847.847 0 0 1-.857-.835c0-.461.382-.836.857-.836.473 0 .858.373.858.836Zm2.676 0c0 .46-.383.835-.858.835a.847.847 0 0 1-.858-.835c0-.461.383-.836.858-.836s.858.373.858.836Zm2.679 0c0 .46-.382.835-.857.835a.847.847 0 0 1-.858-.835c0-.461.383-.836.858-.836s.857.373.857.836Zm2.676 0c0 .46-.383.835-.857.835a.847.847 0 0 1-.858-.835c0-.461.383-.836.858-.836.472 0 .857.373.857.836Zm2.676 0c0 .46-.383.835-.858.835a.847.847 0 0 1-.857-.835c0-.461.383-.836.857-.836.475 0 .858.373.858.836Zm2.672 0c0 .46-.383.835-.858.835a.847.847 0 0 1-.857-.835c0-.461.382-.836.857-.836s.858.373.858.836Zm2.68 0c0 .46-.383.835-.858.835a.847.847 0 0 1-.858-.835c0-.461.383-.836.858-.836.473 0 .858.373.858.836Zm2.679 0c0 .46-.383.835-.857.835a.847.847 0 0 1-.858-.835c0-.461.383-.836.858-.836.472 0 .857.373.857.836Zm2.672 0c0 .46-.383.835-.858.835a.847.847 0 0 1-.857-.835c0-.461.383-.836.857-.836.475 0 .858.373.858.836Zm-45.496 2.607c0 .46-.383.835-.858.835a.847.847 0 0 1-.857-.835c0-.461.383-.836.857-.836.475 0 .858.375.858.836Zm2.684 0c0 .46-.383.835-.858.835a.847.847 0 0 1-.858-.835c0-.461.383-.836.858-.836.473 0 .858.375.858.836Zm2.671 0c0 .46-.382.835-.857.835a.847.847 0 0 1-.858-.835c0-.461.383-.836.858-.836.472 0 .857.375.857.836Zm2.676 0c0 .46-.383.835-.857.835a.847.847 0 0 1-.858-.835c0-.461.383-.836.858-.836.474 0 .857.375.857.836Zm5.352 0c0 .46-.383.835-.858.835a.846.846 0 0 1-.857-.835c0-.461.382-.836.857-.836.473 0 .858.375.858.836Zm5.351 0c0 .46-.382.835-.857.835a.847.847 0 0 1-.858-.835c0-.461.383-.836.858-.836s.857.375.857.836Zm-8.027 0c0 .46-.383.835-.858.835a.847.847 0 0 1-.857-.835c0-.461.383-.836.857-.836.475 0 .858.375.858.836Zm5.352 0c0 .46-.383.835-.858.835a.847.847 0 0 1-.858-.835c0-.461.383-.836.858-.836s.858.375.858.836Zm5.355 0c0 .46-.383.835-.858.835a.847.847 0 0 1-.857-.835c0-.461.383-.836.857-.836.473 0 .858.375.858.836Zm2.672 0c0 .46-.383.835-.858.835a.847.847 0 0 1-.857-.835c0-.461.382-.836.857-.836.473 0 .858.375.858.836Zm2.676 0c0 .46-.383.835-.858.835a.847.847 0 0 1-.858-.835c0-.461.383-.836.858-.836s.858.375.858.836Zm2.679 0c0 .46-.382.835-.857.835a.847.847 0 0 1-.858-.835c0-.461.383-.836.858-.836s.857.375.857.836Zm2.676 0c0 .46-.383.835-.857.835a.847.847 0 0 1-.858-.835c0-.461.383-.836.858-.836.472 0 .857.375.857.836Zm2.676 0c0 .46-.383.835-.858.835a.847.847 0 0 1-.857-.835c0-.461.383-.836.857-.836.475 0 .858.375.858.836Zm2.672 0c0 .46-.383.835-.858.835a.847.847 0 0 1-.857-.835c0-.461.382-.836.857-.836s.858.375.858.836Zm2.68 0c0 .46-.383.835-.858.835a.847.847 0 0 1-.858-.835c0-.461.383-.836.858-.836.473 0 .858.375.858.836Zm2.679 0c0 .46-.383.835-.857.835a.847.847 0 0 1-.858-.835c0-.461.383-.836.858-.836.472 0 .857.375.857.836Zm2.672 0c0 .46-.383.835-.858.835a.847.847 0 0 1-.857-.835c0-.461.383-.836.857-.836.475 0 .858.375.858.836Zm-45.496 2.607a.847.847 0 0 1-.858.836.847.847 0 0 1-.857-.836c0-.461.383-.836.857-.836.475 0 .858.375.858.836Zm-2.676-2.607c0 .46-.383.835-.857.835a.847.847 0 0 1-.858-.835c0-.461.383-.836.858-.836.474 0 .857.375.857.836Zm0 2.607a.847.847 0 0 1-.857.836.847.847 0 0 1-.858-.836c0-.461.383-.836.858-.836.474 0 .857.375.857.836Zm5.36 0a.847.847 0 0 1-.858.836.847.847 0 0 1-.858-.836c0-.461.383-.836.858-.836.473 0 .858.375.858.836Zm5.347 0a.847.847 0 0 1-.857.836.847.847 0 0 1-.858-.836c0-.461.383-.836.858-.836.474 0 .857.375.857.836Zm-2.676-7.824a.846.846 0 0 1-.857.836.847.847 0 0 1-.858-.836c0-.46.383-.835.858-.835a.85.85 0 0 1 .857.835Zm0 7.824a.846.846 0 0 1-.857.836.847.847 0 0 1-.858-.836c0-.461.383-.836.858-.836.472 0 .857.375.857.836Zm5.352 0a.847.847 0 0 1-.858.836.847.847 0 0 1-.857-.836c0-.461.383-.836.857-.836.475 0 .858.375.858.836Zm2.676 0a.847.847 0 0 1-.858.836.846.846 0 0 1-.857-.836c0-.461.382-.836.857-.836.473 0 .858.375.858.836Zm2.676 0a.847.847 0 0 1-.858.836.847.847 0 0 1-.858-.836c0-.461.383-.836.858-.836s.858.375.858.836Zm2.675 0a.846.846 0 0 1-.857.836.847.847 0 0 1-.858-.836c0-.461.383-.836.858-.836s.857.375.857.836Zm5.352 0a.847.847 0 0 1-.858.836.847.847 0 0 1-.857-.836c0-.461.382-.836.857-.836.473 0 .858.375.858.836Zm-2.672 0a.847.847 0 0 1-.858.836.847.847 0 0 1-.857-.836c0-.461.383-.836.857-.836.473 0 .858.375.858.836Zm5.348 0a.847.847 0 0 1-.858.836.847.847 0 0 1-.858-.836c0-.461.383-.836.858-.836s.858.375.858.836Zm2.679 0a.846.846 0 0 1-.857.836.847.847 0 0 1-.858-.836c0-.461.383-.836.858-.836s.857.375.857.836Zm2.676 0a.847.847 0 0 1-.857.836.847.847 0 0 1-.858-.836c0-.461.383-.836.858-.836.472 0 .857.375.857.836Zm2.676 0a.847.847 0 0 1-.858.836.847.847 0 0 1-.857-.836c0-.461.383-.836.857-.836.475 0 .858.375.858.836Zm2.672 0a.847.847 0 0 1-.858.836.847.847 0 0 1-.857-.836c0-.461.382-.836.857-.836s.858.375.858.836Zm2.68 0a.847.847 0 0 1-.858.836.847.847 0 0 1-.858-.836c0-.461.383-.836.858-.836.473 0 .858.375.858.836Zm2.679 0a.847.847 0 0 1-.857.836.847.847 0 0 1-.858-.836c0-.461.383-.836.858-.836.472 0 .857.375.857.836Zm2.672 0a.847.847 0 0 1-.858.836.847.847 0 0 1-.857-.836c0-.461.383-.836.857-.836.475 0 .858.375.858.836Zm-48.172 2.607c0 .46-.383.835-.857.835a.847.847 0 0 1-.858-.835c0-.461.383-.836.858-.836a.848.848 0 0 1 .857.836Zm2.676 0c0 .46-.383.835-.858.835a.847.847 0 0 1-.857-.835c0-.461.383-.836.857-.836a.848.848 0 0 1 .858.836Zm2.684 0c0 .46-.383.835-.858.835a.847.847 0 0 1-.858-.835c0-.461.383-.836.858-.836a.85.85 0 0 1 .858.836Zm2.671 0c0 .46-.382.835-.857.835a.847.847 0 0 1-.858-.835c0-.461.383-.836.858-.836a.85.85 0 0 1 .857.836Zm8.028 0c0 .46-.383.835-.858.835a.846.846 0 0 1-.857-.835c0-.461.382-.836.857-.836a.85.85 0 0 1 .858.836Zm5.351 0c0 .46-.382.835-.857.835a.847.847 0 0 1-.858-.835c0-.461.383-.836.858-.836a.847.847 0 0 1 .857.836Zm2.68 0c0 .46-.383.835-.858.835a.847.847 0 0 1-.857-.835c0-.461.383-.836.857-.836a.85.85 0 0 1 .858.836Zm2.672 0c0 .46-.383.835-.858.835a.847.847 0 0 1-.857-.835c0-.461.382-.836.857-.836a.85.85 0 0 1 .858.836Zm2.676 0c0 .46-.383.835-.858.835a.847.847 0 0 1-.858-.835c0-.461.383-.836.858-.836a.848.848 0 0 1 .858.836Zm2.679 0c0 .46-.382.835-.857.835a.847.847 0 0 1-.858-.835c0-.461.383-.836.858-.836a.847.847 0 0 1 .857.836Zm2.676 0c0 .46-.383.835-.857.835a.847.847 0 0 1-.858-.835c0-.461.383-.836.858-.836a.85.85 0 0 1 .857.836Zm2.676 0c0 .46-.383.835-.858.835a.847.847 0 0 1-.857-.835c0-.461.383-.836.857-.836a.848.848 0 0 1 .858.836Zm2.672 0c0 .46-.383.835-.858.835a.847.847 0 0 1-.857-.835c0-.461.382-.836.857-.836a.848.848 0 0 1 .858.836Zm2.68 0c0 .46-.383.835-.858.835a.847.847 0 0 1-.858-.835c0-.461.383-.836.858-.836a.85.85 0 0 1 .858.836Zm2.679 0c0 .46-.383.835-.857.835a.847.847 0 0 1-.858-.835c0-.461.383-.836.858-.836a.85.85 0 0 1 .857.836Zm2.672 0c0 .46-.383.835-.858.835a.847.847 0 0 1-.857-.835c0-.461.383-.836.857-.836a.848.848 0 0 1 .858.836Zm-48.172 2.609a.847.847 0 0 1-.857.836.847.847 0 0 1-.858-.836c0-.461.383-.836.858-.836.474 0 .857.373.857.836Zm5.36 0a.847.847 0 0 1-.858.836.847.847 0 0 1-.858-.836c0-.461.383-.836.858-.836.473 0 .858.373.858.836Zm-2.684 0a.847.847 0 0 1-.858.836.847.847 0 0 1-.857-.836c0-.461.383-.836.857-.836.475 0 .858.373.858.836Zm5.355 0a.846.846 0 0 1-.857.836.847.847 0 0 1-.858-.836c0-.461.383-.836.858-.836.472 0 .857.373.857.836Zm2.676 0a.847.847 0 0 1-.857.836.847.847 0 0 1-.858-.836c0-.461.383-.836.858-.836.474 0 .857.373.857.836Zm5.352 0a.847.847 0 0 1-.858.836.846.846 0 0 1-.857-.836c0-.461.382-.836.857-.836.473 0 .858.373.858.836Zm2.676 0a.847.847 0 0 1-.858.836.847.847 0 0 1-.858-.836c0-.461.383-.836.858-.836s.858.373.858.836Zm2.675 0a.846.846 0 0 1-.857.836.847.847 0 0 1-.858-.836c0-.461.383-.836.858-.836s.857.373.857.836Zm2.68 0a.847.847 0 0 1-.858.836.847.847 0 0 1-.857-.836c0-.461.383-.836.857-.836.473 0 .858.373.858.836Zm2.672 0a.847.847 0 0 1-.858.836.847.847 0 0 1-.857-.836c0-.461.382-.836.857-.836.473 0 .858.373.858.836Zm2.676 0a.847.847 0 0 1-.858.836.847.847 0 0 1-.858-.836c0-.461.383-.836.858-.836s.858.373.858.836Zm2.679 0a.846.846 0 0 1-.857.836.847.847 0 0 1-.858-.836c0-.461.383-.836.858-.836s.857.373.857.836Zm2.676 0a.847.847 0 0 1-.857.836.847.847 0 0 1-.858-.836c0-.461.383-.836.858-.836.472 0 .857.373.857.836Zm2.676 0a.847.847 0 0 1-.858.836.847.847 0 0 1-.857-.836c0-.461.383-.836.857-.836.475 0 .858.373.858.836Zm2.672 0a.847.847 0 0 1-.858.836.847.847 0 0 1-.857-.836c0-.461.382-.836.857-.836s.858.373.858.836Zm2.68 0a.847.847 0 0 1-.858.836.847.847 0 0 1-.858-.836c0-.461.383-.836.858-.836.473 0 .858.373.858.836Zm2.679 0a.847.847 0 0 1-.857.836.847.847 0 0 1-.858-.836c0-.461.383-.836.858-.836.472 0 .857.373.857.836Zm2.672 0a.847.847 0 0 1-.858.836.847.847 0 0 1-.857-.836c0-.461.383-.836.857-.836.475 0 .858.373.858.836Zm-48.172 2.607a.847.847 0 0 1-.857.836.847.847 0 0 1-.858-.836c0-.461.383-.836.858-.836.474 0 .857.375.857.836Zm2.676 0a.847.847 0 0 1-.858.836.847.847 0 0 1-.857-.836c0-.461.383-.836.857-.836.475 0 .858.375.858.836Zm2.684 0a.847.847 0 0 1-.858.836.847.847 0 0 1-.858-.836c0-.461.383-.836.858-.836.473 0 .858.375.858.836Zm2.671 0a.846.846 0 0 1-.857.836.847.847 0 0 1-.858-.836c0-.461.383-.836.858-.836.472 0 .857.375.857.836Zm2.676 0a.847.847 0 0 1-.857.836.847.847 0 0 1-.858-.836c0-.461.383-.836.858-.836.474 0 .857.375.857.836Zm5.352 0a.847.847 0 0 1-.858.836.846.846 0 0 1-.857-.836c0-.461.382-.836.857-.836.473 0 .858.375.858.836Zm-2.676-5.216c0 .46-.383.835-.858.835a.847.847 0 0 1-.857-.835c0-.461.383-.836.857-.836a.848.848 0 0 1 .858.836Zm-2.676 0c0 .46-.383.835-.857.835a.847.847 0 0 1-.858-.835c0-.461.383-.836.858-.836a.848.848 0 0 1 .857.836Zm2.676 2.609a.847.847 0 0 1-.858.836.847.847 0 0 1-.857-.836c0-.461.383-.836.857-.836.475 0 .858.373.858.836Zm0 2.607a.847.847 0 0 1-.858.836.847.847 0 0 1-.857-.836c0-.461.383-.836.857-.836.475 0 .858.375.858.836Zm8.027 0a.846.846 0 0 1-.857.836.847.847 0 0 1-.858-.836c0-.461.383-.836.858-.836s.857.375.857.836Zm-2.675-5.216c0 .46-.383.835-.858.835a.847.847 0 0 1-.858-.835c0-.461.383-.836.858-.836a.848.848 0 0 1 .858.836Zm0 5.216a.847.847 0 0 1-.858.836.847.847 0 0 1-.858-.836c0-.461.383-.836.858-.836s.858.375.858.836Zm5.355 0a.847.847 0 0 1-.858.836.847.847 0 0 1-.857-.836c0-.461.383-.836.857-.836.473 0 .858.375.858.836Zm2.672 0a.847.847 0 0 1-.858.836.847.847 0 0 1-.857-.836c0-.461.382-.836.857-.836.473 0 .858.375.858.836Zm2.676 0a.847.847 0 0 1-.858.836.847.847 0 0 1-.858-.836c0-.461.383-.836.858-.836s.858.375.858.836Zm2.679 0a.846.846 0 0 1-.857.836.847.847 0 0 1-.858-.836c0-.461.383-.836.858-.836s.857.375.857.836Zm2.676 0a.847.847 0 0 1-.857.836.847.847 0 0 1-.858-.836c0-.461.383-.836.858-.836.472 0 .857.375.857.836Zm2.676 0a.847.847 0 0 1-.858.836.847.847 0 0 1-.857-.836c0-.461.383-.836.857-.836.475 0 .858.375.858.836Zm2.672 0a.847.847 0 0 1-.858.836.847.847 0 0 1-.857-.836c0-.461.382-.836.857-.836s.858.375.858.836Zm2.68 0a.847.847 0 0 1-.858.836.847.847 0 0 1-.858-.836c0-.461.383-.836.858-.836.473 0 .858.375.858.836Zm2.679 0a.847.847 0 0 1-.857.836.847.847 0 0 1-.858-.836c0-.461.383-.836.858-.836.472 0 .857.375.857.836Zm2.672 0a.847.847 0 0 1-.858.836.847.847 0 0 1-.857-.836c0-.461.383-.836.857-.836.475 0 .858.375.858.836Zm-48.174 2.607a.847.847 0 0 1-.858.836c-.473 0-.597-.482-.781-.815 0-.461.306-.857.781-.857a.85.85 0 0 1 .858.836Zm2.678 0a.847.847 0 0 1-.858.836.847.847 0 0 1-.857-.836c0-.46.383-.836.857-.836a.85.85 0 0 1 .858.836Zm2.684 0a.847.847 0 0 1-.858.836.847.847 0 0 1-.858-.836c0-.46.383-.836.858-.836.473.003.858.376.858.836Zm2.671 0a.846.846 0 0 1-.857.836.847.847 0 0 1-.858-.836c0-.46.383-.836.858-.836.472.003.857.376.857.836Zm5.352 0a.847.847 0 0 1-.858.836.847.847 0 0 1-.857-.836c0-.46.383-.836.857-.836a.85.85 0 0 1 .858.836Zm-2.676 0a.847.847 0 0 1-.857.836.847.847 0 0 1-.858-.836c0-.46.383-.836.858-.836a.85.85 0 0 1 .857.836Zm5.352 0a.847.847 0 0 1-.858.836.846.846 0 0 1-.857-.836c0-.46.382-.836.857-.836.473.003.858.376.858.836Zm5.351 0a.846.846 0 0 1-.857.836.847.847 0 0 1-.858-.836c0-.46.383-.836.858-.836a.849.849 0 0 1 .857.836Zm-2.675 0a.847.847 0 0 1-.858.836.847.847 0 0 1-.858-.836c0-.46.383-.836.858-.836a.85.85 0 0 1 .858.836Zm8.027 0a.847.847 0 0 1-.858.836.847.847 0 0 1-.857-.836c0-.46.382-.836.857-.836.473.003.858.376.858.836Zm-2.672 0a.847.847 0 0 1-.858.836.847.847 0 0 1-.857-.836c0-.46.383-.836.857-.836.473.003.858.376.858.836Zm5.348 0a.847.847 0 0 1-.858.836.847.847 0 0 1-.858-.836c0-.46.383-.836.858-.836a.85.85 0 0 1 .858.836Zm2.679 0a.846.846 0 0 1-.857.836.847.847 0 0 1-.858-.836c0-.46.383-.836.858-.836a.849.849 0 0 1 .857.836Zm2.676 0a.847.847 0 0 1-.857.836.847.847 0 0 1-.858-.836c0-.46.383-.836.858-.836.472.003.857.376.857.836Zm2.676 0a.847.847 0 0 1-.858.836.847.847 0 0 1-.857-.836c0-.46.383-.836.857-.836a.85.85 0 0 1 .858.836Zm2.672 0a.847.847 0 0 1-.858.836.847.847 0 0 1-.857-.836c0-.46.382-.836.857-.836a.85.85 0 0 1 .858.836Zm2.68 0a.847.847 0 0 1-.858.836.847.847 0 0 1-.858-.836c0-.46.383-.836.858-.836.473.003.858.376.858.836Zm2.679 0a.847.847 0 0 1-.857.836.847.847 0 0 1-.858-.836c0-.46.383-.836.858-.836.472.003.857.376.857.836Zm2.672 0a.847.847 0 0 1-.858.836.847.847 0 0 1-.857-.836c0-.46.383-.836.857-.836a.85.85 0 0 1 .858.836Zm-45.496 2.609a.847.847 0 0 1-.858.836.847.847 0 0 1-.857-.836c0-.461.383-.836.857-.836.475 0 .858.373.858.836Zm-2.681 0a.847.847 0 0 1-.858.836c-.472 0-.031-.565-.031-1.028 0-.46-.444-.644.031-.644s.858.373.858.836Zm10.712 0a.847.847 0 0 1-.857.836.847.847 0 0 1-.858-.836c0-.461.383-.836.858-.836.474 0 .857.373.857.836Zm2.676 0a.847.847 0 0 1-.858.836.847.847 0 0 1-.857-.836c0-.461.383-.836.857-.836.475 0 .858.373.858.836Zm2.676 0a.847.847 0 0 1-.858.836.846.846 0 0 1-.857-.836c0-.461.382-.836.857-.836.473 0 .858.373.858.836Zm2.676 0a.847.847 0 0 1-.858.836.847.847 0 0 1-.858-.836c0-.461.383-.836.858-.836s.858.373.858.836Zm2.675 0a.846.846 0 0 1-.857.836.847.847 0 0 1-.858-.836c0-.461.383-.836.858-.836s.857.373.857.836Zm2.68 0a.847.847 0 0 1-.858.836.847.847 0 0 1-.857-.836c0-.461.383-.836.857-.836.473 0 .858.373.858.836Zm2.672 0a.847.847 0 0 1-.858.836.847.847 0 0 1-.857-.836c0-.461.382-.836.857-.836.473 0 .858.373.858.836Zm5.355 0a.846.846 0 0 1-.857.836.847.847 0 0 1-.858-.836c0-.461.383-.836.858-.836s.857.373.857.836Zm-2.679 0a.847.847 0 0 1-.858.836.847.847 0 0 1-.858-.836c0-.461.383-.836.858-.836s.858.373.858.836Zm5.355 0a.847.847 0 0 1-.857.836.847.847 0 0 1-.858-.836c0-.461.383-.836.858-.836.472 0 .857.373.857.836Zm2.676 0a.847.847 0 0 1-.858.836.847.847 0 0 1-.857-.836c0-.461.383-.836.857-.836.475 0 .858.373.858.836Zm2.672 0a.847.847 0 0 1-.858.836.847.847 0 0 1-.857-.836c0-.461.382-.836.857-.836s.858.373.858.836Zm2.68 0a.847.847 0 0 1-.858.836.847.847 0 0 1-.858-.836c0-.461.383-.836.858-.836.473 0 .858.373.858.836Zm2.679 0a.847.847 0 0 1-.857.836.847.847 0 0 1-.858-.836c0-.461.383-.836.858-.836.472 0 .857.373.857.836Zm2.672 0a.847.847 0 0 1-.858.836.847.847 0 0 1-.857-.836c0-.461.383-.836.857-.836.475 0 .858.373.858.836Zm-37.465 2.607a.847.847 0 0 1-.857.836.847.847 0 0 1-.858-.836c0-.46.383-.835.858-.835.474 0 .857.375.857.835Zm-2.676-2.607a.846.846 0 0 1-.857.836.847.847 0 0 1-.858-.836c0-.461.383-.836.858-.836.472 0 .857.373.857.836Zm0 2.607a.846.846 0 0 1-.857.836.847.847 0 0 1-.858-.836c0-.46.383-.835.858-.835.472 0 .857.375.857.835Zm-2.671-2.607a.847.847 0 0 1-.858.836.847.847 0 0 1-.858-.836c0-.461.383-.836.858-.836.473 0 .858.373.858.836Zm0 2.607a.847.847 0 0 1-.858.836.847.847 0 0 1-.858-.836c0-.46.383-.835.858-.835.473 0 .858.375.858.835Zm10.699 0a.847.847 0 0 1-.858.836.846.846 0 0 1-.857-.836c0-.46.382-.835.857-.835.473 0 .858.375.858.835Zm5.351 0a.846.846 0 0 1-.857.836.847.847 0 0 1-.858-.836c0-.46.383-.835.858-.835s.857.375.857.835Zm-2.675 0a.847.847 0 0 1-.858.836.847.847 0 0 1-.858-.836c0-.46.383-.835.858-.835s.858.375.858.835Zm5.355 0a.847.847 0 0 1-.858.836.847.847 0 0 1-.857-.836c0-.46.383-.835.857-.835.473 0 .858.375.858.835Zm2.672 0a.847.847 0 0 1-.858.836.847.847 0 0 1-.857-.836c0-.46.382-.835.857-.835.473 0 .858.375.858.835Zm2.676 0a.847.847 0 0 1-.858.836.847.847 0 0 1-.858-.836c0-.46.383-.835.858-.835s.858.375.858.835Zm2.679 0a.846.846 0 0 1-.857.836.847.847 0 0 1-.858-.836c0-.46.383-.835.858-.835s.857.375.857.835Zm2.676 0a.847.847 0 0 1-.857.836.847.847 0 0 1-.858-.836c0-.46.383-.835.858-.835.472 0 .857.375.857.835Zm2.676 0a.847.847 0 0 1-.858.836.847.847 0 0 1-.857-.836c0-.46.383-.835.857-.835.475 0 .858.375.858.835Zm2.672 0a.847.847 0 0 1-.858.836.847.847 0 0 1-.857-.836c0-.46.382-.835.857-.835s.858.375.858.835Zm2.68 0a.847.847 0 0 1-.858.836.847.847 0 0 1-.858-.836c0-.46.383-.835.858-.835.473 0 .858.375.858.835Zm2.679 0a.847.847 0 0 1-.857.836.847.847 0 0 1-.858-.836c0-.46.383-.835.858-.835.472 0 .857.375.857.835Zm2.672 0a.847.847 0 0 1-.858.836.847.847 0 0 1-.857-.836c0-.46.383-.835.857-.835.475 0 .858.375.858.835Zm-42.812 2.608c0 .46-.383.835-.858.835a.847.847 0 0 1-.858-.835c0-.461.383-.836.858-.836.473 0 .858.375.858.836Zm-2.684-2.608a.847.847 0 0 1-.858.836.847.847 0 0 1-.857-.836c0-.46.383-.835.857-.835.475 0 .858.375.858.835Zm0 2.608c0 .46-.383.835-.858.835a.847.847 0 0 1-.857-.835c0-.461.383-.836.857-.836.475 0 .858.375.858.836Zm5.355 0c0 .46-.382.835-.857.835a.847.847 0 0 1-.858-.835c0-.461.383-.836.858-.836.472 0 .857.375.857.836Zm2.676 0c0 .46-.383.835-.857.835a.847.847 0 0 1-.858-.835c0-.461.383-.836.858-.836.474 0 .857.375.857.836Zm5.352 0c0 .46-.383.835-.858.835a.846.846 0 0 1-.857-.835c0-.461.382-.836.857-.836.473 0 .858.375.858.836Zm-2.676-2.608a.847.847 0 0 1-.858.836.847.847 0 0 1-.857-.836c0-.46.383-.835.857-.835.475 0 .858.375.858.835Zm0 2.608c0 .46-.383.835-.858.835a.847.847 0 0 1-.857-.835c0-.461.383-.836.857-.836.475 0 .858.375.858.836Zm5.352 0c0 .46-.383.835-.858.835a.847.847 0 0 1-.858-.835c0-.461.383-.836.858-.836s.858.375.858.836Zm5.355 0c0 .46-.383.835-.858.835a.847.847 0 0 1-.857-.835c0-.461.383-.836.857-.836.473 0 .858.375.858.836Zm-2.68 0c0 .46-.382.835-.857.835a.847.847 0 0 1-.858-.835c0-.461.383-.836.858-.836s.857.375.857.836Zm5.352 0c0 .46-.383.835-.858.835a.847.847 0 0 1-.857-.835c0-.461.382-.836.857-.836.473 0 .858.375.858.836Zm2.676 0c0 .46-.383.835-.858.835a.847.847 0 0 1-.858-.835c0-.461.383-.836.858-.836s.858.375.858.836Zm2.679 0c0 .46-.382.835-.857.835a.847.847 0 0 1-.858-.835c0-.461.383-.836.858-.836s.857.375.857.836Zm2.676 0c0 .46-.383.835-.857.835a.847.847 0 0 1-.858-.835c0-.461.383-.836.858-.836.472 0 .857.375.857.836Zm2.676 0c0 .46-.383.835-.858.835a.847.847 0 0 1-.857-.835c0-.461.383-.836.857-.836.475 0 .858.375.858.836Zm2.672 0c0 .46-.383.835-.858.835a.847.847 0 0 1-.857-.835c0-.461.382-.836.857-.836s.858.375.858.836Zm2.68 0c0 .46-.383.835-.858.835a.847.847 0 0 1-.858-.835c0-.461.383-.836.858-.836.473 0 .858.375.858.836Zm2.679 0c0 .46-.383.835-.857.835a.847.847 0 0 1-.858-.835c0-.461.383-.836.858-.836.472 0 .857.375.857.836Zm2.672 0c0 .46-.383.835-.858.835a.847.847 0 0 1-.857-.835c0-.461.383-.836.857-.836.475 0 .858.375.858.836Zm-45.496 2.607c0 .46-.383.835-.858.835a.847.847 0 0 1-.857-.835c0-.461.383-.836.857-.836a.848.848 0 0 1 .858.836Zm2.684 0c0 .46-.383.835-.858.835a.847.847 0 0 1-.858-.835c0-.461.383-.836.858-.836a.85.85 0 0 1 .858.836Zm2.671 0c0 .46-.382.835-.857.835a.847.847 0 0 1-.858-.835c0-.461.383-.836.858-.836a.85.85 0 0 1 .857.836Zm2.676 0c0 .46-.383.835-.857.835a.847.847 0 0 1-.858-.835c0-.461.383-.836.858-.836a.848.848 0 0 1 .857.836Zm2.676 0c0 .46-.383.835-.858.835a.847.847 0 0 1-.857-.835c0-.461.383-.836.857-.836a.848.848 0 0 1 .858.836Zm5.352 0c0 .46-.383.835-.858.835a.847.847 0 0 1-.858-.835c0-.461.383-.836.858-.836a.848.848 0 0 1 .858.836Zm2.675 0c0 .46-.382.835-.857.835a.847.847 0 0 1-.858-.835c0-.461.383-.836.858-.836a.847.847 0 0 1 .857.836Zm2.68 0c0 .46-.383.835-.858.835a.847.847 0 0 1-.857-.835c0-.461.383-.836.857-.836a.85.85 0 0 1 .858.836Zm2.672 0c0 .46-.383.835-.858.835a.847.847 0 0 1-.857-.835c0-.461.382-.836.857-.836a.85.85 0 0 1 .858.836Zm2.676 0c0 .46-.383.835-.858.835a.847.847 0 0 1-.858-.835c0-.461.383-.836.858-.836a.848.848 0 0 1 .858.836Zm2.679 0c0 .46-.382.835-.857.835a.847.847 0 0 1-.858-.835c0-.461.383-.836.858-.836a.847.847 0 0 1 .857.836Zm2.676 0c0 .46-.383.835-.857.835a.847.847 0 0 1-.858-.835c0-.461.383-.836.858-.836a.85.85 0 0 1 .857.836Zm2.676 0c0 .46-.383.835-.858.835a.847.847 0 0 1-.857-.835c0-.461.383-.836.857-.836a.848.848 0 0 1 .858.836Zm2.672 0c0 .46-.383.835-.858.835a.847.847 0 0 1-.857-.835c0-.461.382-.836.857-.836a.848.848 0 0 1 .858.836Zm2.68 0c0 .46-.383.835-.858.835a.847.847 0 0 1-.858-.835c0-.461.383-.836.858-.836a.85.85 0 0 1 .858.836Zm2.679 0c0 .46-.383.835-.857.835a.847.847 0 0 1-.858-.835c0-.461.383-.836.858-.836a.85.85 0 0 1 .857.836Zm2.672 0c0 .46-.383.835-.858.835a.847.847 0 0 1-.857-.835c0-.461.383-.836.857-.836a.848.848 0 0 1 .858.836Zm-45.497 2.609c0 .46-.383.835-.858.835-.472 0-.462-.471-.462-.933 0-.461-.013-.738.462-.738.475 0 .858.373.858.836Zm5.356 0c0 .46-.382.835-.857.835a.847.847 0 0 1-.858-.835c0-.461.383-.836.858-.836.472 0 .857.373.857.836Zm-2.671 0c0 .46-.383.835-.858.835a.847.847 0 0 1-.858-.835c0-.461.383-.836.858-.836.473 0 .858.373.858.836Zm5.347 0c0 .46-.383.835-.857.835a.847.847 0 0 1-.858-.835c0-.461.383-.836.858-.836.474 0 .857.373.857.836Zm2.676 0c0 .46-.383.835-.858.835a.847.847 0 0 1-.857-.835c0-.461.383-.836.857-.836.475 0 .858.373.858.836Zm2.676 0c0 .46-.383.835-.858.835a.846.846 0 0 1-.857-.835c0-.461.382-.836.857-.836.473 0 .858.373.858.836Zm2.676 0c0 .46-.383.835-.858.835a.847.847 0 0 1-.858-.835c0-.461.383-.836.858-.836s.858.373.858.836Zm2.675 0c0 .46-.382.835-.857.835a.847.847 0 0 1-.858-.835c0-.461.383-.836.858-.836s.857.373.857.836Zm5.352 0c0 .46-.383.835-.858.835a.847.847 0 0 1-.857-.835c0-.461.382-.836.857-.836.473 0 .858.373.858.836Zm-2.672 0c0 .46-.383.835-.858.835a.847.847 0 0 1-.857-.835c0-.461.383-.836.857-.836.473 0 .858.373.858.836Zm5.348 0c0 .46-.383.835-.858.835a.847.847 0 0 1-.858-.835c0-.461.383-.836.858-.836s.858.373.858.836Zm2.679 0c0 .46-.382.835-.857.835a.847.847 0 0 1-.858-.835c0-.461.383-.836.858-.836s.857.373.857.836Zm2.676 0c0 .46-.383.835-.857.835a.847.847 0 0 1-.858-.835c0-.461.383-.836.858-.836.472 0 .857.373.857.836Zm2.676 0c0 .46-.383.835-.858.835a.847.847 0 0 1-.857-.835c0-.461.383-.836.857-.836.475 0 .858.373.858.836Zm2.672 0c0 .46-.383.835-.858.835a.847.847 0 0 1-.857-.835c0-.461.382-.836.857-.836s.858.373.858.836Zm2.68 0c0 .46-.383.835-.858.835a.847.847 0 0 1-.858-.835c0-.461.383-.836.858-.836.473 0 .858.373.858.836Zm2.679 0c0 .46-.383.835-.857.835a.847.847 0 0 1-.858-.835c0-.461.383-.836.858-.836.472 0 .857.373.857.836Zm2.672 0c0 .46-.383.835-.858.835a.847.847 0 0 1-.857-.835c0-.461.383-.836.857-.836.475 0 .858.373.858.836Zm-32.113-2.609c0 .46-.383.835-.858.835a.846.846 0 0 1-.857-.835c0-.461.382-.836.857-.836a.85.85 0 0 1 .858.836Z" fill="#3136BD"/><path d="M959.989 284.992c0 .46-.383.835-.858.835a.847.847 0 0 1-.858-.835c0-.461.383-.836.858-.836.473 0 .858.375.858.836Zm5.355 0c0 .46-.383.835-.857.835a.847.847 0 0 1-.858-.835c0-.461.383-.836.858-.836.474 0 .857.375.857.836Zm-2.679 0c0 .46-.383.835-.858.835a.847.847 0 0 1-.858-.835c0-.461.383-.836.858-.836.473 0 .858.375.858.836Zm5.355 0c0 .46-.383.835-.858.835a.847.847 0 0 1-.857-.835c0-.461.383-.836.857-.836.475 0 .858.375.858.836Zm5.348 0c0 .46-.383.835-.858.835a.847.847 0 0 1-.858-.835c0-.461.383-.836.858-.836s.858.375.858.836Zm-2.676 0c0 .46-.383.835-.858.835a.847.847 0 0 1-.857-.835c0-.461.382-.836.857-.836.473 0 .858.375.858.836Zm5.355 0c0 .46-.382.835-.857.835a.847.847 0 0 1-.858-.835c0-.461.383-.836.858-.836s.857.375.857.836Zm2.676 0c0 .46-.383.835-.858.835a.847.847 0 0 1-.857-.835c0-.461.383-.836.857-.836.473 0 .858.375.858.836Zm2.672 0c0 .46-.383.835-.858.835a.847.847 0 0 1-.857-.835c0-.461.383-.836.857-.836.473 0 .858.375.858.836Zm2.676 0c0 .46-.383.835-.858.835a.847.847 0 0 1-.858-.835c0-.461.383-.836.858-.836s.858.375.858.836Zm5.355 0c0 .46-.383.835-.857.835a.847.847 0 0 1-.858-.835c0-.461.383-.836.858-.836.472 0 .857.375.857.836Zm-2.679 0c0 .46-.383.835-.858.835a.847.847 0 0 1-.858-.835c0-.461.383-.836.858-.836s.858.375.858.836Zm5.355 0c0 .46-.383.835-.858.835a.847.847 0 0 1-.857-.835c0-.461.383-.836.857-.836.473 0 .858.375.858.836Zm2.68 0c0 .46-.383.835-.858.835a.847.847 0 0 1-.858-.835c0-.461.383-.836.858-.836s.858.375.858.836Zm2.672 0c0 .46-.383.835-.858.835a.847.847 0 0 1-.858-.835c0-.461.383-.836.858-.836s.858.375.858.836Zm2.676 0c0 .46-.383.835-.858.835a.847.847 0 0 1-.858-.835c0-.461.383-.836.858-.836.472 0 .858.375.858.836Zm2.68 0c0 .46-.39.835-.86.835a.844.844 0 0 1-.86-.835c0-.461.38-.836.86-.836.47 0 .86.375.86.836Zm2.67 0c0 .46-.38.835-.85.835a.844.844 0 0 1-.86-.835c0-.461.38-.836.86-.836.47 0 .85.375.85.836Zm-42.815 2.606a.847.847 0 0 1-.858.836.847.847 0 0 1-.858-.836c0-.46.383-.835.858-.835a.85.85 0 0 1 .858.835Zm5.355 0a.847.847 0 0 1-.858.836.847.847 0 0 1-.857-.836c0-.46.383-.835.857-.835a.848.848 0 0 1 .858.835Zm2.672 0a.847.847 0 0 1-.858.836.847.847 0 0 1-.857-.836c0-.46.382-.835.857-.835a.85.85 0 0 1 .858.835Zm2.676 0a.847.847 0 0 1-.858.836.847.847 0 0 1-.858-.836c0-.46.383-.835.858-.835a.848.848 0 0 1 .858.835Zm5.355 0a.847.847 0 0 1-.858.836.847.847 0 0 1-.857-.836c0-.46.383-.835.857-.835a.85.85 0 0 1 .858.835Zm5.348 0a.847.847 0 0 1-.858.836.847.847 0 0 1-.858-.836c0-.46.383-.835.858-.835a.848.848 0 0 1 .858.835Zm-8.024 0a.846.846 0 0 1-.857.836.847.847 0 0 1-.858-.836c0-.46.383-.835.858-.835a.847.847 0 0 1 .857.835Zm5.348 0a.847.847 0 0 1-.858.836.847.847 0 0 1-.857-.836c0-.46.383-.835.857-.835a.85.85 0 0 1 .858.835Zm5.352 0a.847.847 0 0 1-.858.836.847.847 0 0 1-.858-.836c0-.46.383-.835.858-.835a.848.848 0 0 1 .858.835Zm2.679 0a.847.847 0 0 1-.857.836.847.847 0 0 1-.858-.836c0-.46.383-.835.858-.835a.85.85 0 0 1 .857.835Zm2.676 0a.847.847 0 0 1-.858.836.847.847 0 0 1-.857-.836c0-.46.383-.835.857-.835a.85.85 0 0 1 .858.835Zm2.68 0a.847.847 0 0 1-.858.836.847.847 0 0 1-.858-.836c0-.46.383-.835.858-.835a.848.848 0 0 1 .858.835Zm2.672 0a.847.847 0 0 1-.858.836.847.847 0 0 1-.858-.836c0-.46.383-.835.858-.835a.848.848 0 0 1 .858.835Zm2.676 0a.847.847 0 0 1-.858.836.847.847 0 0 1-.858-.836c0-.46.383-.835.858-.835.472.002.858.375.858.835Zm2.68 0c0 .461-.39.836-.86.836a.844.844 0 0 1-.86-.836c0-.46.38-.835.86-.835.47.002.86.375.86.835Zm2.45-.1c0 .461-.16.936-.63.936a.844.844 0 0 1-.86-.836c0-.46.38-.835.86-.835.47.002.63.275.63.735Zm-42.595 2.71c0 .46-.383.835-.858.835a.847.847 0 0 1-.858-.835c0-.461.383-.836.858-.836.473 0 .858.373.858.836Zm-2.676-2.61a.847.847 0 0 1-.858.836.847.847 0 0 1-.858-.836c0-.46.383-.835.858-.835a.85.85 0 0 1 .858.835Zm0 2.61c0 .46-.383.835-.858.835a.847.847 0 0 1-.858-.835c0-.461.383-.836.858-.836.473 0 .858.373.858.836Zm8.031 0c0 .46-.383.835-.858.835a.847.847 0 0 1-.857-.835c0-.461.383-.836.857-.836.475 0 .858.373.858.836Zm-2.676-2.61a.847.847 0 0 1-.857.836.847.847 0 0 1-.858-.836c0-.46.383-.835.858-.835a.848.848 0 0 1 .857.835Zm0 2.61c0 .46-.383.835-.857.835a.847.847 0 0 1-.858-.835c0-.461.383-.836.858-.836.474 0 .857.373.857.836Zm5.348 0c0 .46-.383.835-.858.835a.847.847 0 0 1-.857-.835c0-.461.382-.836.857-.836.473 0 .858.373.858.836Zm2.676 0c0 .46-.383.835-.858.835a.847.847 0 0 1-.858-.835c0-.461.383-.836.858-.836s.858.373.858.836Zm2.679 0c0 .46-.382.835-.857.835a.847.847 0 0 1-.858-.835c0-.461.383-.836.858-.836s.857.373.857.836Zm2.676 0c0 .46-.383.835-.858.835a.847.847 0 0 1-.857-.835c0-.461.383-.836.857-.836.473 0 .858.373.858.836Zm2.672 0c0 .46-.383.835-.858.835a.847.847 0 0 1-.857-.835c0-.461.383-.836.857-.836.473 0 .858.373.858.836Zm2.676 0c0 .46-.383.835-.858.835a.847.847 0 0 1-.858-.835c0-.461.383-.836.858-.836s.858.373.858.836Zm2.676 0c0 .46-.383.835-.858.835a.847.847 0 0 1-.858-.835c0-.461.383-.836.858-.836s.858.373.858.836Zm2.679 0c0 .46-.383.835-.857.835a.847.847 0 0 1-.858-.835c0-.461.383-.836.858-.836.472 0 .857.373.857.836Zm2.676 0c0 .46-.383.835-.858.835a.847.847 0 0 1-.857-.835c0-.461.383-.836.857-.836.473 0 .858.373.858.836Zm2.68 0c0 .46-.383.835-.858.835a.847.847 0 0 1-.858-.835c0-.461.383-.836.858-.836s.858.373.858.836Zm2.672 0c0 .46-.383.835-.858.835a.847.847 0 0 1-.858-.835c0-.461.383-.836.858-.836s.858.373.858.836Zm2.676 0c0 .46-.383.835-.858.835a.847.847 0 0 1-.858-.835c0-.461.383-.836.858-.836.472 0 .858.373.858.836Zm2.68 0c0 .46-.39.835-.86.835a.844.844 0 0 1-.86-.835c0-.461.38-.836.86-.836.47 0 .86.373.86.836Zm-42.821 2.607a.847.847 0 0 1-.858.836.847.847 0 0 1-.858-.836c0-.46.383-.836.858-.836.473 0 .858.376.858.836Zm2.676 0a.847.847 0 0 1-.858.836.847.847 0 0 1-.858-.836c0-.46.383-.836.858-.836.473 0 .858.376.858.836Zm2.679 0a.847.847 0 0 1-.857.836.847.847 0 0 1-.858-.836c0-.46.383-.836.858-.836.474 0 .857.376.857.836Zm2.676 0a.847.847 0 0 1-.858.836.847.847 0 0 1-.857-.836c0-.46.383-.836.857-.836.475 0 .858.376.858.836Zm8.027 0a.846.846 0 0 1-.857.836.847.847 0 0 1-.858-.836c0-.46.383-.836.858-.836s.857.376.857.836Zm2.676 0a.847.847 0 0 1-.858.836.847.847 0 0 1-.857-.836c0-.46.383-.836.857-.836.473 0 .858.376.858.836Zm2.672 0a.847.847 0 0 1-.858.836.847.847 0 0 1-.857-.836c0-.46.383-.836.857-.836.473 0 .858.376.858.836Zm2.676 0a.847.847 0 0 1-.858.836.847.847 0 0 1-.858-.836c0-.46.383-.836.858-.836s.858.376.858.836Zm2.676 0a.847.847 0 0 1-.858.836.847.847 0 0 1-.858-.836c0-.46.383-.836.858-.836s.858.376.858.836Zm2.679 0a.847.847 0 0 1-.857.836.847.847 0 0 1-.858-.836c0-.46.383-.836.858-.836.472 0 .857.376.857.836Zm2.676 0a.847.847 0 0 1-.858.836.847.847 0 0 1-.857-.836c0-.46.383-.836.857-.836.473 0 .858.376.858.836Zm2.68 0a.847.847 0 0 1-.858.836.847.847 0 0 1-.858-.836c0-.46.383-.836.858-.836s.858.376.858.836Zm2.672 0a.847.847 0 0 1-.858.836.847.847 0 0 1-.858-.836c0-.46.383-.836.858-.836s.858.376.858.836Zm2.676 0a.847.847 0 0 1-.858.836.847.847 0 0 1-.858-.836c0-.46.383-.836.858-.836a.85.85 0 0 1 .858.836Zm2.68 0c0 .461-.39.836-.86.836a.844.844 0 0 1-.86-.836c0-.46.38-.836.86-.836.47 0 .86.376.86.836Zm-42.821 2.607c0 .46-.383.836-.858.836a.847.847 0 0 1-.858-.836c0-.461.383-.836.858-.836a.85.85 0 0 1 .858.836Zm2.676 0c0 .46-.383.836-.858.836a.847.847 0 0 1-.858-.836c0-.461.383-.836.858-.836a.85.85 0 0 1 .858.836Zm8.027 0c0 .46-.383.836-.858.836a.847.847 0 0 1-.857-.836c0-.461.382-.836.857-.836a.85.85 0 0 1 .858.836Zm2.676 0c0 .46-.383.836-.858.836a.847.847 0 0 1-.858-.836c0-.461.383-.836.858-.836a.848.848 0 0 1 .858.836Zm-2.676-2.607a.847.847 0 0 1-.858.836.847.847 0 0 1-.857-.836c0-.46.382-.836.857-.836.473 0 .858.376.858.836Zm2.676 0a.847.847 0 0 1-.858.836.847.847 0 0 1-.858-.836c0-.46.383-.836.858-.836s.858.376.858.836Zm-8.024 2.607c0 .46-.383.836-.857.836a.847.847 0 0 1-.858-.836c0-.461.383-.836.858-.836a.848.848 0 0 1 .857.836Zm2.676 0c0 .46-.383.836-.858.836a.847.847 0 0 1-.857-.836c0-.461.383-.836.857-.836a.848.848 0 0 1 .858.836Zm8.027 0c0 .46-.382.836-.857.836a.847.847 0 0 1-.858-.836c0-.461.383-.836.858-.836a.847.847 0 0 1 .857.836Zm2.676 0c0 .46-.383.836-.858.836a.847.847 0 0 1-.857-.836c0-.461.383-.836.857-.836a.85.85 0 0 1 .858.836Zm2.672 0c0 .46-.383.836-.858.836a.847.847 0 0 1-.857-.836c0-.461.383-.836.857-.836a.85.85 0 0 1 .858.836Zm2.676 0c0 .46-.383.836-.858.836a.847.847 0 0 1-.858-.836c0-.461.383-.836.858-.836a.848.848 0 0 1 .858.836Zm2.676 0c0 .46-.383.836-.858.836a.847.847 0 0 1-.858-.836c0-.461.383-.836.858-.836a.848.848 0 0 1 .858.836Zm5.355 0c0 .46-.383.836-.858.836a.847.847 0 0 1-.857-.836c0-.461.383-.836.857-.836a.85.85 0 0 1 .858.836Zm-2.676 0c0 .46-.383.836-.857.836a.847.847 0 0 1-.858-.836c0-.461.383-.836.858-.836a.85.85 0 0 1 .857.836Zm5.356 0c0 .46-.383.836-.858.836a.847.847 0 0 1-.858-.836c0-.461.383-.836.858-.836a.848.848 0 0 1 .858.836Zm2.672 0c0 .46-.383.836-.858.836a.847.847 0 0 1-.858-.836c0-.461.383-.836.858-.836a.848.848 0 0 1 .858.836Zm2.676 0c0 .46-.383.836-.858.836a.847.847 0 0 1-.858-.836c0-.461.383-.836.858-.836a.85.85 0 0 1 .858.836Zm2.14-.213c0 .461.15 1.049-.32 1.049a.844.844 0 0 1-.86-.836c0-.461.38-.836.86-.836.47.002.32.163.32.623Zm-42.281 2.822a.847.847 0 0 1-.858.836.847.847 0 0 1-.858-.836c0-.46.383-.835.858-.835.473 0 .858.373.858.835Zm2.676 0a.847.847 0 0 1-.858.836.847.847 0 0 1-.858-.836c0-.46.383-.835.858-.835.473 0 .858.373.858.835Zm2.679 0a.847.847 0 0 1-.857.836.847.847 0 0 1-.858-.836c0-.46.383-.835.858-.835.474 0 .857.373.857.835Zm2.676 0a.847.847 0 0 1-.858.836.847.847 0 0 1-.857-.836c0-.46.383-.835.857-.835.475 0 .858.373.858.835Zm2.672 0a.847.847 0 0 1-.858.836.847.847 0 0 1-.857-.836c0-.46.382-.835.857-.835.473 0 .858.373.858.835Zm8.031 0a.847.847 0 0 1-.858.836.847.847 0 0 1-.857-.836c0-.46.383-.835.857-.835.473 0 .858.373.858.835Zm2.672 0a.847.847 0 0 1-.858.836.847.847 0 0 1-.857-.836c0-.46.383-.835.857-.835.473 0 .858.373.858.835Zm-8.027 0a.847.847 0 0 1-.858.836.847.847 0 0 1-.858-.836c0-.46.383-.835.858-.835s.858.373.858.835Zm2.679 0a.846.846 0 0 1-.857.836.847.847 0 0 1-.858-.836c0-.46.383-.835.858-.835s.857.373.857.835Zm10.7 0a.847.847 0 0 1-.858.836.847.847 0 0 1-.858-.836c0-.46.383-.835.858-.835s.858.373.858.835Zm-2.676 0a.847.847 0 0 1-.858.836.847.847 0 0 1-.858-.836c0-.46.383-.835.858-.835s.858.373.858.835Zm5.355 0a.847.847 0 0 1-.857.836.847.847 0 0 1-.858-.836c0-.46.383-.835.858-.835.472 0 .857.373.857.835Zm2.676 0a.847.847 0 0 1-.858.836.847.847 0 0 1-.857-.836c0-.46.383-.835.857-.835.473 0 .858.373.858.835Zm2.68 0a.847.847 0 0 1-.858.836.847.847 0 0 1-.858-.836c0-.46.383-.835.858-.835s.858.373.858.835Zm2.672 0a.847.847 0 0 1-.858.836.847.847 0 0 1-.858-.836c0-.46.383-.835.858-.835s.858.373.858.835Zm2.676 0a.847.847 0 0 1-.858.836.847.847 0 0 1-.858-.836c0-.46.383-.835.858-.835.472 0 .858.373.858.835Zm-37.465 2.607a.847.847 0 0 1-.858.836.847.847 0 0 1-.858-.836c0-.46.383-.836.858-.836.473 0 .858.376.858.836Zm5.355 0a.847.847 0 0 1-.858.836.847.847 0 0 1-.857-.836c0-.46.383-.836.857-.836.475 0 .858.376.858.836Zm-2.676 0a.847.847 0 0 1-.857.836.847.847 0 0 1-.858-.836c0-.46.383-.836.858-.836.474 0 .857.376.857.836Zm5.348 0a.847.847 0 0 1-.858.836.847.847 0 0 1-.857-.836c0-.46.382-.836.857-.836.473 0 .858.376.858.836Zm2.676 0a.847.847 0 0 1-.858.836.847.847 0 0 1-.858-.836c0-.46.383-.836.858-.836s.858.376.858.836Zm2.679 0a.846.846 0 0 1-.857.836.847.847 0 0 1-.858-.836c0-.46.383-.836.858-.836s.857.376.857.836Zm2.676 0a.847.847 0 0 1-.858.836.847.847 0 0 1-.857-.836c0-.46.383-.835.857-.835.473 0 .858.375.858.835Zm2.672 0a.847.847 0 0 1-.858.836.847.847 0 0 1-.857-.836c0-.46.383-.836.857-.836.473 0 .858.376.858.836Zm2.676 0a.847.847 0 0 1-.858.836.847.847 0 0 1-.858-.836c0-.46.383-.836.858-.836s.858.376.858.836Zm2.676 0a.847.847 0 0 1-.858.836.847.847 0 0 1-.858-.836c0-.46.383-.836.858-.836s.858.376.858.836Zm2.679 0a.847.847 0 0 1-.857.836.847.847 0 0 1-.858-.836c0-.46.383-.836.858-.836.472 0 .857.376.857.836Zm2.676 0a.847.847 0 0 1-.858.836.847.847 0 0 1-.857-.836c0-.46.383-.836.857-.836.473 0 .858.376.858.836Zm2.68 0a.847.847 0 0 1-.858.836.847.847 0 0 1-.858-.836c0-.46.383-.836.858-.836s.858.376.858.836Zm2.672 0a.847.847 0 0 1-.858.836.847.847 0 0 1-.858-.836c0-.46.383-.836.858-.836s.858.376.858.836Zm2.676 0a.847.847 0 0 1-.858.836.847.847 0 0 1-.858-.836c0-.46.383-.836.858-.836a.85.85 0 0 1 .858.836Zm-40.141 2.607a.847.847 0 0 1-.858.836.847.847 0 0 1-.858-.836c0-.46.383-.835.858-.835.473 0 .858.375.858.835Zm2.676 0a.847.847 0 0 1-.858.836.847.847 0 0 1-.858-.836c0-.46.383-.835.858-.835.473 0 .858.375.858.835Zm2.679 0a.847.847 0 0 1-.857.836.847.847 0 0 1-.858-.836c0-.46.383-.835.858-.835.474 0 .857.375.857.835Zm5.348 0a.847.847 0 0 1-.858.836.847.847 0 0 1-.857-.836c0-.46.382-.835.857-.835.473 0 .858.375.858.835Zm-2.672 0a.847.847 0 0 1-.858.836.847.847 0 0 1-.857-.836c0-.46.383-.835.857-.835.475 0 .858.375.858.835Zm8.027 0a.846.846 0 0 1-.857.836.847.847 0 0 1-.858-.836c0-.46.383-.835.858-.835s.857.375.857.835Zm5.348 0a.847.847 0 0 1-.858.836.847.847 0 0 1-.857-.836c0-.46.383-.835.857-.835.473 0 .858.375.858.835Zm2.676 0a.847.847 0 0 1-.858.836.847.847 0 0 1-.858-.836c0-.46.383-.835.858-.835s.858.375.858.835Zm2.676 0a.847.847 0 0 1-.858.836.847.847 0 0 1-.858-.836c0-.46.383-.835.858-.835s.858.375.858.835Zm-13.379 0a.847.847 0 0 1-.858.836.847.847 0 0 1-.858-.836c0-.46.383-.835.858-.835s.858.375.858.835Zm5.355 0a.847.847 0 0 1-.858.836.847.847 0 0 1-.857-.836c0-.46.383-.835.857-.835.473 0 .858.375.858.835Zm10.703 0a.847.847 0 0 1-.857.836.847.847 0 0 1-.858-.836c0-.46.383-.835.858-.835.472 0 .857.375.857.835Zm2.676 0a.847.847 0 0 1-.858.836.847.847 0 0 1-.857-.836c0-.46.383-.835.857-.835.473 0 .858.375.858.835Zm2.68 0a.847.847 0 0 1-.858.836.847.847 0 0 1-.858-.836c0-.46.383-.835.858-.835s.858.375.858.835Zm2.672 0a.847.847 0 0 1-.858.836.847.847 0 0 1-.858-.836c0-.46.383-.835.858-.835s.858.375.858.835Zm-34.789 2.607a.847.847 0 0 1-.858.836.847.847 0 0 1-.858-.836c0-.46.383-.835.858-.835a.85.85 0 0 1 .858.835Zm-2.676-5.214a.847.847 0 0 1-.858.836.847.847 0 0 1-.858-.836c0-.46.383-.835.858-.835.473 0 .858.375.858.835Zm0 5.214a.847.847 0 0 1-.858.836.847.847 0 0 1-.858-.836c0-.46.383-.835.858-.835a.85.85 0 0 1 .858.835Zm5.355 0a.847.847 0 0 1-.857.836.847.847 0 0 1-.858-.836c0-.46.383-.835.858-.835a.848.848 0 0 1 .857.835Zm2.676 0a.847.847 0 0 1-.858.836.847.847 0 0 1-.857-.836c0-.46.383-.835.857-.835a.848.848 0 0 1 .858.835Zm5.348 0a.847.847 0 0 1-.858.836.847.847 0 0 1-.858-.836c0-.46.383-.835.858-.835a.848.848 0 0 1 .858.835Zm2.679 0a.846.846 0 0 1-.857.836.847.847 0 0 1-.858-.836c0-.46.383-.835.858-.835a.847.847 0 0 1 .857.835Zm2.676 0a.847.847 0 0 1-.858.836.847.847 0 0 1-.857-.836c0-.46.383-.835.857-.835a.848.848 0 0 1 .858.835Zm2.672 0a.847.847 0 0 1-.858.836.847.847 0 0 1-.857-.836c0-.46.383-.835.857-.835a.85.85 0 0 1 .858.835Zm5.352 0a.847.847 0 0 1-.858.836.847.847 0 0 1-.858-.836c0-.46.383-.835.858-.835a.848.848 0 0 1 .858.835Zm5.355 0a.847.847 0 0 1-.858.836.847.847 0 0 1-.857-.836c0-.46.383-.835.857-.835a.85.85 0 0 1 .858.835Zm-8.031 0a.847.847 0 0 1-.858.836.847.847 0 0 1-.858-.836c0-.46.383-.835.858-.835a.848.848 0 0 1 .858.835Zm5.355 0a.847.847 0 0 1-.857.836.847.847 0 0 1-.858-.836c0-.46.383-.835.858-.835a.85.85 0 0 1 .857.835Zm5.356 0a.847.847 0 0 1-.858.836.847.847 0 0 1-.858-.836c0-.46.383-.835.858-.835a.848.848 0 0 1 .858.835Zm2.566-.119c0 .461-.277.955-.752.955a.847.847 0 0 1-.858-.836c0-.46.383-.835.858-.835.475.002.752.256.752.716Zm-37.359 2.729c0 .46-.383.835-.858.835a.847.847 0 0 1-.858-.835c0-.461.383-.836.858-.836.473 0 .858.373.858.836Zm2.676 0c0 .46-.383.835-.858.835a.847.847 0 0 1-.858-.835c0-.461.383-.836.858-.836.473 0 .858.373.858.836Zm2.679 0c0 .46-.383.835-.857.835a.847.847 0 0 1-.858-.835c0-.461.383-.836.858-.836.474 0 .857.373.857.836Zm2.676 0c0 .46-.383.835-.858.835a.847.847 0 0 1-.857-.835c0-.461.383-.836.857-.836.475 0 .858.373.858.836Zm2.672 0c0 .46-.383.835-.858.835a.847.847 0 0 1-.857-.835c0-.461.382-.836.857-.836.473 0 .858.373.858.836Zm2.676 0c0 .46-.383.835-.858.835a.847.847 0 0 1-.858-.835c0-.461.383-.836.858-.836s.858.373.858.836Zm2.679 0c0 .46-.382.835-.857.835a.847.847 0 0 1-.858-.835c0-.461.383-.836.858-.836s.857.373.857.836Zm2.676 0c0 .46-.383.835-.858.835a.847.847 0 0 1-.857-.835c0-.461.383-.836.857-.836.475 0 .858.373.858.836Zm2.672 0c0 .46-.383.835-.858.835a.847.847 0 0 1-.857-.835c0-.461.383-.836.857-.836.473 0 .858.373.858.836Zm2.676 0c0 .46-.383.835-.858.835a.847.847 0 0 1-.858-.835c0-.461.383-.836.858-.836s.858.373.858.836Zm2.676 0c0 .46-.383.835-.858.835a.847.847 0 0 1-.858-.835c0-.461.383-.836.858-.836s.858.373.858.836Zm2.679 0c0 .46-.383.835-.857.835a.847.847 0 0 1-.858-.835c0-.461.383-.836.858-.836.472 0 .857.373.857.836Zm2.676 0c0 .46-.383.835-.858.835a.847.847 0 0 1-.857-.835c0-.461.383-.836.857-.836.473 0 .858.373.858.836Zm2.68 0c0 .46-.383.835-.858.835a.847.847 0 0 1-.858-.835c0-.461.383-.836.858-.836s.858.373.858.836Zm-34.793 2.606a.847.847 0 0 1-.858.836.847.847 0 0 1-.858-.836c0-.46.383-.835.858-.835.473 0 .858.375.858.835Zm5.355 0a.847.847 0 0 1-.857.836.847.847 0 0 1-.858-.836c0-.46.383-.835.858-.835.474 0 .857.375.857.835Zm2.676 0a.847.847 0 0 1-.858.836.847.847 0 0 1-.857-.836c0-.46.383-.835.857-.835.475 0 .858.375.858.835Zm2.672 0a.847.847 0 0 1-.858.836.847.847 0 0 1-.857-.836c0-.46.382-.835.857-.835.473 0 .858.375.858.835Zm2.676 0a.847.847 0 0 1-.858.836.847.847 0 0 1-.858-.836c0-.46.383-.835.858-.835s.858.375.858.835Zm5.355 0a.847.847 0 0 1-.858.836.847.847 0 0 1-.857-.836c0-.46.383-.835.857-.835.475 0 .858.375.858.835Zm5.348 0a.847.847 0 0 1-.858.836.847.847 0 0 1-.858-.836c0-.46.383-.835.858-.835s.858.375.858.835Zm-8.024 0a.846.846 0 0 1-.857.836.847.847 0 0 1-.858-.836c0-.46.383-.835.858-.835s.857.375.857.835Zm5.348 0a.847.847 0 0 1-.858.836.847.847 0 0 1-.857-.836c0-.46.383-.835.857-.835.473 0 .858.375.858.835Zm5.352 0a.847.847 0 0 1-.858.836.847.847 0 0 1-.858-.836c0-.46.383-.835.858-.835s.858.375.858.835Zm2.679 0a.847.847 0 0 1-.857.836.847.847 0 0 1-.858-.836c0-.46.383-.835.858-.835.472 0 .857.375.857.835Zm2.676 0a.847.847 0 0 1-.858.836.847.847 0 0 1-.857-.836c0-.46.383-.835.857-.835.473 0 .858.375.858.835Zm-32.113 2.608c0 .46-.383.835-.858.835a.847.847 0 0 1-.858-.835c0-.461.383-.836.858-.836a.85.85 0 0 1 .858.836Zm5.355 0c0 .46-.383.835-.857.835a.847.847 0 0 1-.858-.835c0-.461.383-.836.858-.836a.848.848 0 0 1 .857.836Zm-2.679-2.608a.847.847 0 0 1-.858.836.847.847 0 0 1-.858-.836c0-.46.383-.835.858-.835.473 0 .858.375.858.835Zm0 2.608c0 .46-.383.835-.858.835a.847.847 0 0 1-.858-.835c0-.461.383-.836.858-.836a.85.85 0 0 1 .858.836Zm5.355 0c0 .46-.383.835-.858.835a.847.847 0 0 1-.857-.835c0-.461.383-.836.857-.836a.848.848 0 0 1 .858.836Zm5.348 0c0 .46-.383.835-.858.835a.847.847 0 0 1-.858-.835c0-.461.383-.836.858-.836a.848.848 0 0 1 .858.836Zm-2.676-7.824a.847.847 0 0 1-.858.836.847.847 0 0 1-.857-.836c0-.46.382-.835.857-.835a.85.85 0 0 1 .858.835Zm0 7.824c0 .46-.383.835-.858.835a.847.847 0 0 1-.857-.835c0-.461.382-.836.857-.836a.85.85 0 0 1 .858.836Zm5.355 0c0 .46-.382.835-.857.835a.847.847 0 0 1-.858-.835c0-.461.383-.836.858-.836a.847.847 0 0 1 .857.836Zm2.676 0c0 .46-.383.835-.858.835a.847.847 0 0 1-.857-.835c0-.461.383-.836.857-.836a.848.848 0 0 1 .858.836Zm2.672 0c0 .46-.383.835-.858.835a.847.847 0 0 1-.857-.835c0-.461.383-.836.857-.836a.85.85 0 0 1 .858.836Zm2.676 0c0 .46-.383.835-.858.835a.847.847 0 0 1-.858-.835c0-.461.383-.836.858-.836a.848.848 0 0 1 .858.836Zm5.355 0c0 .46-.383.835-.857.835a.847.847 0 0 1-.858-.835c0-.461.383-.836.858-.836a.85.85 0 0 1 .857.836Zm-2.679 0c0 .46-.383.835-.858.835a.847.847 0 0 1-.858-.835c0-.461.383-.836.858-.836a.848.848 0 0 1 .858.836Zm5.355 0c0 .46-.383.835-.858.835a.847.847 0 0 1-.857-.835c0-.461.383-.836.857-.836a.85.85 0 0 1 .858.836Zm-32.113 2.609c0 .46-.383.835-.858.835a.847.847 0 0 1-.858-.835c0-.461.383-.836.858-.836.473 0 .858.373.858.836Zm2.676 0c0 .46-.383.835-.858.835a.847.847 0 0 1-.858-.835c0-.461.383-.836.858-.836.473 0 .858.373.858.836Zm2.679 0c0 .46-.383.835-.857.835a.847.847 0 0 1-.858-.835c0-.461.383-.836.858-.836.474 0 .857.373.857.836Zm2.676 0c0 .46-.383.835-.858.835a.847.847 0 0 1-.857-.835c0-.461.383-.836.857-.836.475 0 .858.373.858.836Zm2.672 0c0 .46-.383.835-.858.835a.847.847 0 0 1-.857-.835c0-.461.382-.836.857-.836.473 0 .858.373.858.836Zm8.031 0c0 .46-.383.835-.858.835a.847.847 0 0 1-.857-.835c0-.461.383-.836.857-.836.475 0 .858.373.858.836Zm5.348 0c0 .46-.383.835-.858.835a.847.847 0 0 1-.858-.835c0-.461.383-.836.858-.836s.858.373.858.836Zm2.676 0c0 .46-.383.835-.858.835a.847.847 0 0 1-.858-.835c0-.461.383-.836.858-.836s.858.373.858.836Zm2.679 0c0 .46-.383.835-.857.835a.847.847 0 0 1-.858-.835c0-.461.383-.836.858-.836.472 0 .857.373.857.836Zm-29.437 2.607c0 .46-.383.835-.858.835a.847.847 0 0 1-.858-.835c0-.461.383-.836.858-.836.473 0 .858.375.858.836Zm2.676 0c0 .46-.383.836-.858.836a.848.848 0 0 1-.858-.836c0-.461.383-.836.858-.836.473 0 .858.375.858.836Zm5.355 0c0 .46-.383.836-.858.836a.847.847 0 0 1-.857-.836c0-.461.383-.836.857-.836.475 0 .858.375.858.836Zm-2.676 0c0 .46-.383.836-.857.836a.848.848 0 0 1-.858-.836c0-.461.383-.836.858-.836.474 0 .857.375.857.836Zm5.348 0c0 .46-.383.836-.858.836a.847.847 0 0 1-.857-.836c0-.461.382-.836.857-.836.473 0 .858.375.858.836Zm2.676 0c0 .46-.383.836-.858.836a.848.848 0 0 1-.858-.836c0-.461.383-.836.858-.836s.858.375.858.836Zm5.355 0c0 .46-.383.835-.858.835a.847.847 0 0 1-.857-.835c0-.461.383-.836.857-.836.475 0 .858.375.858.836Zm2.672 0c0 .46-.383.836-.858.836a.847.847 0 0 1-.857-.836c0-.461.383-.836.857-.836.473 0 .858.375.858.836Zm2.676 0c0 .46-.383.836-.858.836a.848.848 0 0 1-.858-.836c0-.461.383-.836.858-.836s.858.375.858.836Zm2.676 0c0 .46-.383.836-.858.836a.848.848 0 0 1-.858-.836c0-.461.383-.836.858-.836s.858.375.858.836Zm-26.758 2.607c0 .46-.383.835-.858.835a.847.847 0 0 1-.858-.835c0-.461.383-.836.858-.836.473 0 .858.375.858.836Zm2.676 0c0 .46-.383.835-.858.835a.847.847 0 0 1-.858-.835c0-.461.383-.836.858-.836.473 0 .858.375.858.836Zm2.679 0c0 .46-.383.835-.857.835a.847.847 0 0 1-.858-.835c0-.461.383-.836.858-.836.474 0 .857.375.857.836Zm2.676 0c0 .46-.383.835-.858.835a.847.847 0 0 1-.857-.835c0-.461.383-.836.857-.836.475 0 .858.375.858.836Zm2.672 0c0 .46-.383.835-.858.835a.847.847 0 0 1-.857-.835c0-.461.382-.836.857-.836.473 0 .858.375.858.836Zm2.676 0c0 .46-.383.835-.858.835a.847.847 0 0 1-.858-.835c0-.461.383-.836.858-.836s.858.375.858.836Zm5.355 0c0 .46-.383.835-.858.835a.847.847 0 0 1-.857-.835c0-.461.383-.836.857-.836.475 0 .858.375.858.836Zm-2.676-5.214c0 .46-.382.835-.857.835a.847.847 0 0 1-.858-.835c0-.461.383-.836.858-.836s.857.373.857.836Zm-2.679 0c0 .46-.383.835-.858.835a.847.847 0 0 1-.858-.835c0-.461.383-.836.858-.836s.858.373.858.836Zm2.679 2.607c0 .46-.382.836-.857.836a.848.848 0 0 1-.858-.836c0-.461.383-.836.858-.836s.857.375.857.836Zm0 2.607c0 .46-.382.835-.857.835a.847.847 0 0 1-.858-.835c0-.461.383-.836.858-.836s.857.375.857.836Zm8.024 0c0 .46-.383.835-.858.835a.847.847 0 0 1-.858-.835c0-.461.383-.836.858-.836s.858.375.858.836Zm-2.676-5.214c0 .46-.383.835-.858.835a.847.847 0 0 1-.857-.835c0-.461.383-.836.857-.836.473 0 .858.373.858.836Zm0 5.214c0 .46-.383.835-.858.835a.847.847 0 0 1-.857-.835c0-.461.383-.836.857-.836.473 0 .858.375.858.836Zm-18.73 2.607c0 .46-.383.836-.858.836a.847.847 0 0 1-.858-.836c0-.461.383-.836.858-.836a.85.85 0 0 1 .858.836Zm2.679 0c0 .46-.383.836-.857.836a.847.847 0 0 1-.858-.836c0-.461.383-.836.858-.836a.848.848 0 0 1 .857.836Zm2.676 0c0 .46-.383.836-.858.836a.847.847 0 0 1-.857-.836c0-.461.383-.836.857-.836a.848.848 0 0 1 .858.836Zm2.672 0c0 .46-.383.836-.858.836a.847.847 0 0 1-.857-.836c0-.461.382-.836.857-.836a.85.85 0 0 1 .858.836Zm5.355 0c0 .46-.382.836-.857.836a.847.847 0 0 1-.858-.836c0-.461.383-.836.858-.836a.847.847 0 0 1 .857.836Zm-2.679 0c0 .46-.383.836-.858.836a.847.847 0 0 1-.858-.836c0-.461.383-.836.858-.836a.848.848 0 0 1 .858.836Zm5.355 0c0 .46-.383.836-.858.836a.847.847 0 0 1-.857-.836c0-.461.383-.836.857-.836a.848.848 0 0 1 .858.836Zm2.672 0c0 .46-.383.836-.858.836a.847.847 0 0 1-.857-.836c0-.461.383-.836.857-.836a.85.85 0 0 1 .858.836Zm-21.406 2.609a.847.847 0 0 1-.858.836.847.847 0 0 1-.858-.836c0-.46.383-.836.858-.836.473 0 .858.373.858.836Zm5.355 0a.847.847 0 0 1-.857.836.847.847 0 0 1-.858-.836c0-.46.383-.836.858-.836.474 0 .857.373.857.836Zm-2.679 0a.847.847 0 0 1-.858.836.847.847 0 0 1-.858-.836c0-.46.383-.836.858-.836.473 0 .858.373.858.836Zm10.703 0a.847.847 0 0 1-.858.836.847.847 0 0 1-.858-.836c0-.46.383-.836.858-.836s.858.373.858.836Zm2.679 0a.846.846 0 0 1-.857.836.847.847 0 0 1-.858-.836c0-.46.383-.836.858-.836s.857.373.857.836Zm2.676 0a.847.847 0 0 1-.858.836.847.847 0 0 1-.857-.836c0-.46.383-.836.857-.836.475 0 .858.373.858.836Zm-18.734 2.607a.847.847 0 0 1-.858.836.847.847 0 0 1-.858-.836c0-.461.383-.836.858-.836.473 0 .858.375.858.836Zm2.676 0a.847.847 0 0 1-.858.836.847.847 0 0 1-.858-.836c0-.461.383-.836.858-.836.473 0 .858.375.858.836Zm10.703 0a.847.847 0 0 1-.858.836.847.847 0 0 1-.858-.836c0-.461.383-.836.858-.836s.858.375.858.836Zm-2.676-2.607a.847.847 0 0 1-.858.836.847.847 0 0 1-.857-.836c0-.46.382-.836.857-.836.473 0 .858.373.858.836Zm0 2.607a.847.847 0 0 1-.858.836.847.847 0 0 1-.857-.836c0-.461.382-.836.857-.836.473 0 .858.375.858.836Zm-2.672-2.607a.847.847 0 0 1-.858.836.847.847 0 0 1-.857-.836c0-.46.383-.836.857-.836.475 0 .858.373.858.836Zm0 2.607a.847.847 0 0 1-.858.836.847.847 0 0 1-.857-.836c0-.461.383-.836.857-.836.475 0 .858.375.858.836Zm-8.031 2.607a.847.847 0 0 1-.858.836.847.847 0 0 1-.858-.836c0-.461.383-.836.858-.836a.85.85 0 0 1 .858.836Zm2.676 0c0 .46-.383.836-.858.836a.847.847 0 0 1-.858-.836c0-.461.383-.836.858-.836a.85.85 0 0 1 .858.836Zm5.355 0c0 .46-.383.836-.858.836a.847.847 0 0 1-.857-.836c0-.461.383-.836.857-.836a.848.848 0 0 1 .858.836Zm-2.676-2.607a.847.847 0 0 1-.857.836.847.847 0 0 1-.858-.836c0-.461.383-.836.858-.836.474 0 .857.375.857.836Zm0 2.607c0 .46-.383.836-.857.836a.847.847 0 0 1-.858-.836c0-.461.383-.836.858-.836a.848.848 0 0 1 .857.836Zm5.348 0c0 .46-.383.836-.858.836a.847.847 0 0 1-.857-.836c0-.461.382-.836.857-.836a.85.85 0 0 1 .858.836Zm5.376-2.855c0 .461-1.022.938-1.496.938-.473 0-.242-.227-.242-.69 0-.461.383-.836.857-.836.475 0 .881.127.881.588Zm-13.403 5.464c0 .461-.345.059-.82.059-.473 0-.428-.059-.896-.059 0-.46.383-.835.858-.835.473 0 .858.373.858.835Zm2.679 0c0 .461-.383.371-.857.371-.473 0-.858.092-.858-.371 0-.46.383-.835.858-.835.474 0 .857.373.857.835Zm-5.355-10.432c0 .46-.383.836-.858.836a.847.847 0 0 1-.858-.836c0-.461.383-.836.858-.836a.85.85 0 0 1 .858.836Z" fill="#3136BD"/><path d="M964.19 366.534c49.49 0 89.61-38.857 89.61-86.79 0-47.933-40.12-86.79-89.61-86.79-49.489 0-89.608 38.857-89.608 86.79 0 47.933 40.119 86.79 89.608 86.79Z" stroke="url(#m)" stroke-width="1.061" stroke-miterlimit="10"/></g></g><defs><linearGradient id="b" x1="-152.245" y1="781.888" x2="1683.7" y2="-38.924" gradientUnits="userSpaceOnUse"><stop offset=".325" stop-color="#F8F8FE"/><stop offset="1" stop-color="#494FE1" stop-opacity=".93"/></linearGradient><linearGradient id="f" x1="868.588" y1="202.627" x2="1042.11" y2="351.978" gradientUnits="userSpaceOnUse"><stop offset="0" stop-color="#3D4FC7"/><stop offset=".254" stop-color="#3D4FC7" stop-opacity=".72"/><stop offset=".391" stop-color="#3D4FC7" stop-opacity=".64"/><stop offset=".501" stop-color="#3D4FC7" stop-opacity=".48"/><stop offset=".595" stop-color="#3D4FC7" stop-opacity=".4"/><stop offset=".68" stop-color="#3D4FC7" stop-opacity=".32"/><stop offset=".759" stop-color="#3D4FC7" stop-opacity=".24"/><stop offset=".832" stop-color="#6266C6" stop-opacity=".16"/><stop offset=".901" stop-color="#6266C6" stop-opacity=".1"/><stop offset=".965" stop-color="#6266C6" stop-opacity=".03"/><stop offset="1" stop-opacity="0"/><stop offset="1" stop-color="#EFF0F8"/></linearGradient><linearGradient id="g" x1="1063.23" y1="352.386" x2="892.046" y2="200.372" gradientUnits="userSpaceOnUse"><stop offset="0" stop-color="#3D4FC7"/><stop offset=".254" stop-color="#3D4FC7" stop-opacity=".72"/><stop offset=".391" stop-color="#3D4FC7" stop-opacity=".6"/><stop offset=".501" stop-color="#3D4FC7" stop-opacity=".5"/><stop offset=".595" stop-color="#3D4FC7" stop-opacity=".4"/><stop offset=".68" stop-color="#3D4FC7" stop-opacity=".32"/><stop offset=".759" stop-color="#3D4FC7" stop-opacity=".24"/><stop offset=".832" stop-color="#3D4FC7" stop-opacity=".16"/><stop offset=".901" stop-color="#3D4FC7" stop-opacity=".08"/><stop offset=".94" stop-color="#6266C6" stop-opacity=".04"/><stop offset=".965" stop-color="#3D4FC7" stop-opacity=".04"/><stop offset="1" stop-color="#3D4FC7" stop-opacity=".02"/></linearGradient><linearGradient id="h" x1="1063.23" y1="352.386" x2="892.046" y2="200.372" gradientUnits="userSpaceOnUse"><stop offset="0" stop-color="#3D4FC7"/><stop offset=".254" stop-color="#3D4FC7" stop-opacity=".72"/><stop offset=".391" stop-color="#3D4FC7" stop-opacity=".64"/><stop offset=".501" stop-color="#3D4FC7" stop-opacity=".64"/><stop offset=".595" stop-color="#3D4FC7" stop-opacity=".4"/><stop offset=".68" stop-color="#3D4FC7" stop-opacity=".32"/><stop offset=".759" stop-color="#3D4FC7" stop-opacity=".24"/><stop offset=".832" stop-color="#3D4FC7" stop-opacity=".16"/><stop offset=".901" stop-color="#3D4FC7" stop-opacity=".08"/><stop offset=".965" stop-color="#3D4FC7" stop-opacity=".04"/><stop offset="1" stop-color="#3D4FC7" stop-opacity="0"/></linearGradient><linearGradient id="i" x1="1010.65" y1="413.507" x2="837.645" y2="263.563" gradientUnits="userSpaceOnUse"><stop offset="0" stop-color="#3D4FC7"/><stop offset=".254" stop-color="#3D4FC7" stop-opacity=".72"/><stop offset=".391" stop-color="#3D4FC7" stop-opacity=".6"/><stop offset=".501" stop-color="#3D4FC7" stop-opacity=".48"/><stop offset=".595" stop-color="#3D4FC7" stop-opacity=".4"/><stop offset=".68" stop-color="#3D4FC7" stop-opacity=".4"/><stop offset=".759" stop-color="#3D4FC7" stop-opacity=".24"/><stop offset=".832" stop-color="#3D4FC7" stop-opacity=".16"/><stop offset=".901" stop-color="#3D4FC7" stop-opacity=".08"/><stop offset=".965" stop-color="#3D4FC7" stop-opacity=".04"/><stop offset="1" stop-color="#3D4FC7" stop-opacity="0"/></linearGradient><linearGradient id="j" x1="1070.82" y1="341.571" x2="893.251" y2="197.058" gradientUnits="userSpaceOnUse"><stop offset="0" stop-color="#3D4FC7"/><stop offset=".122" stop-color="#3D4FC7" stop-opacity=".8"/><stop offset=".254" stop-color="#3D4FC7" stop-opacity=".72"/><stop offset=".391" stop-color="#3D4FC7" stop-opacity=".6"/><stop offset=".501" stop-color="#3D4FC7" stop-opacity=".48"/><stop offset=".595" stop-color="#3D4FC7" stop-opacity=".4"/><stop offset=".68" stop-color="#3D4FC7" stop-opacity=".32"/><stop offset=".759" stop-color="#3D4FC7" stop-opacity=".24"/><stop offset=".832" stop-color="#3D4FC7" stop-opacity=".16"/><stop offset=".865" stop-color="#4E54D1" stop-opacity=".122"/><stop offset=".901" stop-color="#3D4FC7" stop-opacity=".08"/><stop offset=".965" stop-color="#3D4FC7" stop-opacity=".04"/><stop offset="1" stop-opacity="0"/><stop offset="1" stop-color="#6266C6" stop-opacity="0"/><stop offset="1" stop-color="#3D4FC7" stop-opacity="0"/></linearGradient><linearGradient id="k" x1="1014.56" y1="277.833" x2="913.399" y2="277.833" gradientUnits="userSpaceOnUse"><stop offset=".443" stop-color="#fff"/><stop offset=".589" stop-color="#A1A1A1"/><stop offset=".732" stop-color="#4A4A4A"/><stop offset=".832" stop-color="#151515"/><stop offset=".88"/></linearGradient><linearGradient id="m" x1="895.442" y1="223.901" x2="1029.29" y2="339.799" gradientUnits="userSpaceOnUse"><stop stop-color="#57C3F9" stop-opacity=".2"/><stop offset=".489" stop-color="#57C3F9"/><stop offset=".761" stop-color="#57C3F9"/><stop offset="1" stop-color="#57C3F9" stop-opacity=".5"/></linearGradient><filter id="c" x="704.41" y="18.274" width="520.686" height="520.685" filterUnits="userSpaceOnUse" color-interpolation-filters="sRGB"><feFlood flood-opacity="0" result="BackgroundImageFix"/><feColorMatrix in="SourceAlpha" values="0 0 0 0 0 0 0 0 0 0 0 0 0 0 0 0 0 0 127 0" result="hardAlpha"/><feOffset/><feGaussianBlur stdDeviation="40"/><feComposite in2="hardAlpha" operator="out"/><feColorMatrix values="0 0 0 0 0.777767 0 0 0 0 0.797986 0 0 0 0 0.865384 0 0 0 0.4 0"/><feBlend in2="BackgroundImageFix" result="effect1_dropShadow_3031_173720"/><feBlend in="SourceGraphic" in2="effect1_dropShadow_3031_173720" result="shape"/></filter><filter id="d" x="714.859" y="115.156" width="557.615" height="474.565" filterUnits="userSpaceOnUse" color-interpolation-filters="sRGB"><feFlood flood-opacity="0" result="BackgroundImageFix"/><feColorMatrix in="SourceAlpha" values="0 0 0 0 0 0 0 0 0 0 0 0 0 0 0 0 0 0 127 0" result="hardAlpha"/><feOffset/><feGaussianBlur stdDeviation="40"/><feComposite in2="hardAlpha" operator="out"/><feColorMatrix values="0 0 0 0 0.777767 0 0 0 0 0.797986 0 0 0 0 0.865384 0 0 0 0.4 0"/><feBlend in2="BackgroundImageFix" result="effect1_dropShadow_3031_173720"/><feBlend in="SourceGraphic" in2="effect1_dropShadow_3031_173720" result="shape"/></filter><filter id="e" x="808.766" y="122.631" width="311.971" height="311.971" filterUnits="userSpaceOnUse" color-interpolation-filters="sRGB"><feFlood flood-opacity="0" result="BackgroundImageFix"/><feColorMatrix in="SourceAlpha" values="0 0 0 0 0 0 0 0 0 0 0 0 0 0 0 0 0 0 127 0" result="hardAlpha"/><feOffset/><feGaussianBlur stdDeviation="16"/><feComposite in2="hardAlpha" operator="out"/><feColorMatrix values="0 0 0 0 0.886275 0 0 0 0 0.894118 0 0 0 0 0.945098 0 0 0 0.6 0"/><feBlend in2="BackgroundImageFix" result="effect1_dropShadow_3031_173720"/><feBlend in="SourceGraphic" in2="effect1_dropShadow_3031_173720" result="shape"/></filter><clipPath id="a"><path fill="#fff" d="M0 0h1366v603H0z"/></clipPath></defs></svg>