<svg width="744" height="361" fill="none" xmlns="http://www.w3.org/2000/svg"><g clip-path="url(#a)"><path fill="#fff" d="M0 0h744v361H0z"/><path fill="#fff" d="M0-199h744v560H0z"/><path d="M795.508-47c-6.021 77.681-79.232 124.793-139.315 105.977-52.785-16.53-84.817-10.036-106.493 6.68-40.748 31.426-37.585 91.81-99.534 109.561-46.722 13.388-87.238-28.23-130.34-7.705-43.102 20.525-25.535 59.723-85.708 114.559-60.173 54.837-103.797-5.212-133.577 38.276" stroke="url(#b)"/><g filter="url(#c)"><circle cx="477.721" cy="141.888" r="104.938" fill="#fff"/></g><g filter="url(#d)"><path d="M378.863 229.854a131.173 131.173 0 0 0 220.675-136.53l-14.964 6.442a114.883 114.883 0 0 1-123.547 158.883 114.884 114.884 0 0 1-69.72-39.31l-12.444 10.515Z" fill="#E2E4F1"/></g><g filter="url(#e)"><circle cx="477.719" cy="141.888" r="72.145" fill="#fff"/></g><path opacity=".5" d="M525.271 123.39c-2.614-6.152-6.488-11.788-11.319-16.496a52.443 52.443 0 0 0-16.929-11.028c-6.31-2.557-13.143-3.863-19.974-3.865-6.831.002-13.662 1.31-19.973 3.865a52.432 52.432 0 0 0-16.929 11.028c-4.832 4.708-8.706 10.344-11.319 16.496a49.736 49.736 0 0 0 0 38.923c2.613 6.151 6.487 11.788 11.319 16.495a52.409 52.409 0 0 0 16.929 11.029c6.31 2.556 13.142 3.862 19.973 3.865 6.831-.003 13.663-1.31 19.974-3.865a52.42 52.42 0 0 0 16.929-11.029c4.831-4.707 8.705-10.344 11.319-16.495a49.758 49.758 0 0 0 3.966-19.462 49.753 49.753 0 0 0-3.966-19.461Zm-.722 38.631c-2.574 6.058-6.391 11.611-11.15 16.246a51.582 51.582 0 0 1-16.674 10.864c-6.215 2.518-12.943 3.806-19.675 3.808-6.731-.002-13.459-1.29-19.674-3.808a51.59 51.59 0 0 1-16.676-10.864c-4.759-4.637-8.576-10.188-11.148-16.246a49.02 49.02 0 0 1-3.908-19.171 49.015 49.015 0 0 1 3.908-19.17c2.572-6.059 6.389-11.611 11.148-16.248a51.652 51.652 0 0 1 16.676-10.863c6.215-2.517 12.943-3.805 19.674-3.808 6.732.003 13.46 1.29 19.675 3.808a51.611 51.611 0 0 1 16.674 10.863c4.759 4.638 8.576 10.189 11.15 16.248a49.015 49.015 0 0 1 3.908 19.17 49.056 49.056 0 0 1-3.908 19.171Z" fill="url(#f)"/><path d="M440.905 103.862c8.156-7.221 18.665-11.85 29.67-13.083l.397 3.796c-10.183 1.156-19.903 5.444-27.447 12.124-7.672 6.73-13.067 15.699-15.253 25.329l-3.833-.78c2.352-10.419 8.179-20.119 16.466-27.386Z" fill="url(#g)"/><path d="M424.438 131.248c2.353-10.419 8.179-20.119 16.467-27.386 8.156-7.221 18.665-11.85 29.67-13.083l.397 3.796c-10.183 1.156-19.903 5.444-27.447 12.124-7.672 6.73-13.067 15.699-15.253 25.329l-3.834-.78Z" fill="url(#h)"/><path d="m423.412 143.631 3.914.002a47.503 47.503 0 0 0 4.076 18.481c2.565 5.778 6.369 11.141 11.026 15.557l-2.685 2.778c-5.041-4.771-9.159-10.572-11.934-16.823a51.215 51.215 0 0 1-4.397-19.995Z" fill="url(#i)"/><path d="m502.197 100.707 1.95-3.312c9.071 5.238 16.535 13.173 21.072 22.422 4.665 9.423 6.297 20.373 4.593 30.838-1.665 10.4-6.708 20.325-14.202 27.949-7.296 7.473-16.923 12.779-27.186 14.993l-.79-3.736c9.489-2.061 18.392-6.973 25.143-13.886 6.948-7.069 11.625-16.271 13.167-25.912 1.581-9.71.069-19.867-4.258-28.594-4.195-8.558-11.098-15.903-19.489-20.762Z" fill="url(#j)"/><path d="M504.54 121.429c0 46.493-27.483 53.18-27.483 53.18s-27.483-6.687-27.483-53.18c9.161-.724 18.132-1.738 27.483-10.079 9.353 8.341 18.322 9.355 27.483 10.079Z" stroke="#3136BD" stroke-miterlimit="10"/><path d="M477.078 111.363c9.351 8.342 18.322 9.355 27.483 10.079 0 46.494-27.483 53.18-27.483 53.18s-27.483-6.686-27.483-53.18c9.161-.724 18.132-1.737 27.483-10.079Zm0-2.322-1.187 1.058c-2.157 1.925-4.328 3.484-6.636 4.768a32.948 32.948 0 0 1-6.514 2.757c-4.348 1.323-8.766 1.753-13.288 2.11l-1.615.127v1.579c0 10.798 1.478 20.383 4.393 28.489 2.356 6.552 5.653 12.163 9.796 16.676 7.148 7.787 14.323 9.601 14.625 9.675l.426.103.426-.103c.302-.074 7.477-1.888 14.625-9.675 4.145-4.513 7.44-10.124 9.796-16.676 2.915-8.106 4.393-17.691 4.393-28.489v-1.579l-1.615-.127c-4.522-.357-8.94-.787-13.288-2.11a32.948 32.948 0 0 1-6.514-2.757c-2.309-1.284-4.479-2.844-6.636-4.768l-1.187-1.058Z" stroke="#3136BD" stroke-miterlimit="10"/><mask id="l" style="mask-type:alpha" maskUnits="userSpaceOnUse" x="447" y="108" width="60" height="67"><path d="M447.838 108.266v66.333h58.866v-66.333h-58.866Z" fill="url(#k)"/></mask><g mask="url(#l)"><path d="M473.391 115.251a.493.493 0 0 1-.499.486.493.493 0 0 1-.499-.486c0-.268.222-.487.499-.487.276 0 .499.219.499.487Zm1.554 0a.492.492 0 0 1-.499.486.493.493 0 0 1-.499-.486c0-.268.223-.487.499-.487.277 0 .499.219.499.487Zm0-1.48a.492.492 0 0 1-.499.486.493.493 0 0 1-.499-.486c0-.268.223-.486.499-.486.277 0 .499.218.499.486Zm1.561 1.48a.493.493 0 0 1-.499.486.493.493 0 0 1-.499-.486c0-.268.223-.487.499-.487.275 0 .499.219.499.487Zm0-1.48a.493.493 0 0 1-.499.486.493.493 0 0 1-.499-.486c0-.268.223-.486.499-.486.275 0 .499.218.499.486Zm.001-1.455a.492.492 0 0 1-.499.486c-.275 0-.232-.141-.232-.41 0-.268.33-.305.499-.487.275 0 .232.143.232.411Zm1.558 2.935a.493.493 0 0 1-.5.486.493.493 0 0 1-.499-.486c0-.268.223-.487.499-.487s.5.219.5.487Zm0-1.48a.493.493 0 0 1-.5.486.493.493 0 0 1-.499-.486c0-.268.223-.486.499-.486s.5.218.5.486Zm0-1.455a.493.493 0 0 1-.5.486.493.493 0 0 1-.499-.486c0-.268.223-.486.499-.486s.5.218.5.486Zm1.554 2.935a.493.493 0 0 1-.499.486.493.493 0 0 1-.499-.486c0-.268.223-.487.499-.487s.499.219.499.487Zm0-1.48a.493.493 0 0 1-.499.486.493.493 0 0 1-.499-.486c0-.268.223-.486.499-.486s.499.218.499.486Zm-9.342 2.997a.492.492 0 0 1-.499.486.493.493 0 0 1-.499-.486c0-.268.223-.487.499-.487a.494.494 0 0 1 .499.487Zm1.559 0a.493.493 0 0 1-.499.486.493.493 0 0 1-.499-.486c0-.268.223-.487.499-.487a.495.495 0 0 1 .499.487Zm1.555 0a.493.493 0 0 1-.499.486.493.493 0 0 1-.499-.486c0-.268.222-.487.499-.487a.495.495 0 0 1 .499.487Zm1.554 0a.492.492 0 0 1-.499.486.493.493 0 0 1-.499-.486c0-.268.223-.487.499-.487a.494.494 0 0 1 .499.487Zm1.561 0a.493.493 0 0 1-.499.486.493.493 0 0 1-.499-.486c0-.268.223-.487.499-.487a.495.495 0 0 1 .499.487Zm1.559 0a.493.493 0 0 1-.5.486.493.493 0 0 1-.499-.486c0-.268.223-.487.499-.487.276.002.5.219.5.487Zm1.554 0a.493.493 0 0 1-.499.486.493.493 0 0 1-.499-.486c0-.268.223-.487.499-.487a.495.495 0 0 1 .499.487Zm-12.457 1.518a.493.493 0 0 1-.499.486.493.493 0 0 1-.499-.486c0-.268.223-.486.499-.486.275 0 .499.217.499.486Zm1.557 0a.493.493 0 0 1-.499.486.493.493 0 0 1-.499-.486c0-.268.222-.486.499-.486.276 0 .499.217.499.486Zm1.558 0a.492.492 0 0 1-.499.486.493.493 0 0 1-.499-.486c0-.268.223-.486.499-.486.277 0 .499.217.499.486Zm1.559 0a.493.493 0 0 1-.499.486.493.493 0 0 1-.499-.486c0-.268.223-.486.499-.486.275 0 .499.217.499.486Zm1.555 0a.493.493 0 0 1-.499.486.493.493 0 0 1-.499-.486c0-.268.222-.486.499-.486.276 0 .499.217.499.486Zm1.554 0a.492.492 0 0 1-.499.486.493.493 0 0 1-.499-.486c0-.268.223-.486.499-.486.277 0 .499.217.499.486Zm1.561 0a.493.493 0 0 1-.499.486.493.493 0 0 1-.499-.486c0-.268.223-.486.499-.486.275 0 .499.217.499.486Zm1.559 0a.493.493 0 0 1-.5.486.493.493 0 0 1-.499-.486c0-.268.223-.486.499-.486s.5.217.5.486Zm1.554 0a.493.493 0 0 1-.499.486.493.493 0 0 1-.499-.486c0-.268.223-.486.499-.486s.499.217.499.486Zm-17.129 1.517a.492.492 0 0 1-.499.486.493.493 0 0 1-.499-.486c0-.268.223-.486.499-.486.277 0 .499.218.499.486Zm1.557 0a.493.493 0 0 1-.499.486.493.493 0 0 1-.499-.486c0-.268.223-.486.499-.486s.499.218.499.486Zm1.56 0a.492.492 0 0 1-.499.486.493.493 0 0 1-.499-.486c0-.268.223-.486.499-.486.275 0 .499.218.499.486Zm1.555 0a.493.493 0 0 1-.499.486.493.493 0 0 1-.499-.486c0-.268.223-.486.499-.486.275 0 .499.218.499.486Zm1.557 0a.493.493 0 0 1-.499.486.493.493 0 0 1-.499-.486c0-.268.222-.486.499-.486.276 0 .499.218.499.486Zm1.558 0a.492.492 0 0 1-.499.486.493.493 0 0 1-.499-.486c0-.268.223-.486.499-.486.277 0 .499.218.499.486Zm1.559 0a.493.493 0 0 1-.499.486.493.493 0 0 1-.499-.486c0-.268.223-.486.499-.486.275 0 .499.218.499.486Zm1.555 0a.493.493 0 0 1-.499.486.493.493 0 0 1-.499-.486c0-.268.222-.486.499-.486.276 0 .499.218.499.486Zm1.554 0a.492.492 0 0 1-.499.486.493.493 0 0 1-.499-.486c0-.268.223-.486.499-.486.277 0 .499.218.499.486Zm1.561 0a.493.493 0 0 1-.499.486.493.493 0 0 1-.499-.486c0-.268.223-.486.499-.486.275 0 .499.218.499.486Zm1.559 0a.493.493 0 0 1-.5.486.493.493 0 0 1-.499-.486c0-.268.223-.486.499-.486s.5.218.5.486Zm1.554 0a.493.493 0 0 1-.499.486.493.493 0 0 1-.499-.486c0-.268.223-.486.499-.486s.499.218.499.486Zm-28.029 1.517a.493.493 0 0 1-.499.486.493.493 0 0 1-.499-.486c0-.268.204-.214.481-.214.276 0 .517-.054.517.214Zm4.672 0a.493.493 0 0 1-.499.486.493.493 0 0 1-.499-.486c0-.268.222-.487.499-.487.275 0 .499.219.499.487Zm1.558 0a.492.492 0 0 1-.499.486.493.493 0 0 1-.499-.486c0-.268.223-.487.499-.487.277 0 .499.219.499.487Zm-4.673 0a.493.493 0 0 1-.5.486.493.493 0 0 1-.499-.486c0-.268.223-.335.499-.335.277 0 .5.067.5.335Zm1.56 0a.493.493 0 0 1-.499.486.493.493 0 0 1-.499-.486c0-.268.223-.487.499-.487.275 0 .499.219.499.487Zm4.668 0a.493.493 0 0 1-.499.486.493.493 0 0 1-.499-.486c0-.268.223-.487.499-.487s.499.219.499.487Zm1.559 0a.493.493 0 0 1-.499.486.493.493 0 0 1-.499-.486c0-.268.222-.487.499-.487.275 0 .499.219.499.487Zm1.556 0a.492.492 0 0 1-.499.486.493.493 0 0 1-.499-.486c0-.268.223-.487.499-.487.277 0 .499.219.499.487Zm1.557 0a.493.493 0 0 1-.499.486.493.493 0 0 1-.499-.486c0-.268.223-.487.499-.487s.499.219.499.487Zm1.56 0a.492.492 0 0 1-.499.486.493.493 0 0 1-.499-.486c0-.268.223-.487.499-.487.275 0 .499.219.499.487Zm3.112 0a.493.493 0 0 1-.499.486.493.493 0 0 1-.499-.486c0-.268.222-.487.499-.487.276 0 .499.219.499.487Zm-1.557 0a.493.493 0 0 1-.499.486.493.493 0 0 1-.499-.486c0-.268.223-.487.499-.487.275 0 .499.219.499.487Zm3.115 0a.492.492 0 0 1-.499.486.493.493 0 0 1-.499-.486c0-.268.223-.487.499-.487.277 0 .499.219.499.487Zm1.559 0a.493.493 0 0 1-.499.486.493.493 0 0 1-.499-.486c0-.268.223-.487.499-.487.275 0 .499.219.499.487Zm1.555 0a.493.493 0 0 1-.499.486.493.493 0 0 1-.499-.486c0-.268.222-.487.499-.487.276 0 .499.219.499.487Zm1.554 0a.492.492 0 0 1-.499.486.493.493 0 0 1-.499-.486c0-.268.223-.487.499-.487.277 0 .499.219.499.487Zm1.561 0a.493.493 0 0 1-.499.486.493.493 0 0 1-.499-.486c0-.268.223-.487.499-.487.275 0 .499.219.499.487Zm1.559 0a.493.493 0 0 1-.5.486.493.493 0 0 1-.499-.486c0-.268.223-.487.499-.487s.5.219.5.487Zm1.554 0a.493.493 0 0 1-.499.486.493.493 0 0 1-.499-.486c0-.268.223-.487.499-.487s.499.219.499.487Zm-29.586 1.517a.493.493 0 0 1-.499.486c-.275 0-.142-.25-.142-.519 0-.268-.134-.454.142-.454a.495.495 0 0 1 .499.487Zm1.557 0a.493.493 0 0 1-.499.486.493.493 0 0 1-.499-.486c0-.268.223-.487.499-.487a.495.495 0 0 1 .499.487Zm1.557 0a.493.493 0 0 1-.5.486.493.493 0 0 1-.499-.486c0-.268.223-.486.499-.486.277.001.5.218.5.486Zm1.56 0a.493.493 0 0 1-.499.486.493.493 0 0 1-.499-.486c0-.268.223-.486.499-.486a.494.494 0 0 1 .499.486Zm1.555 0a.493.493 0 0 1-.499.486.493.493 0 0 1-.499-.486c0-.268.222-.487.499-.487a.495.495 0 0 1 .499.487Zm4.672 0a.493.493 0 0 1-.499.486.493.493 0 0 1-.499-.486c0-.268.222-.486.499-.486a.494.494 0 0 1 .499.486Zm1.556 0a.492.492 0 0 1-.499.486.493.493 0 0 1-.499-.486c0-.268.223-.486.499-.486a.493.493 0 0 1 .499.486Zm-4.67 0a.492.492 0 0 1-.499.486.493.493 0 0 1-.499-.486c0-.268.223-.486.499-.486a.493.493 0 0 1 .499.486Zm1.555 0a.493.493 0 0 1-.499.486.493.493 0 0 1-.499-.486c0-.268.223-.486.499-.486a.493.493 0 0 1 .499.486Zm6.232 0a.492.492 0 0 1-.499.486.493.493 0 0 1-.499-.486c0-.268.223-.487.499-.487a.495.495 0 0 1 .499.487Zm-1.56 0a.493.493 0 0 1-.499.486.493.493 0 0 1-.499-.486c0-.268.223-.486.499-.486a.493.493 0 0 1 .499.486Zm3.115 0a.493.493 0 0 1-.499.486.493.493 0 0 1-.499-.486c0-.268.223-.486.499-.486a.494.494 0 0 1 .499.486Zm1.557 0a.493.493 0 0 1-.499.486.493.493 0 0 1-.499-.486c0-.268.222-.486.499-.486a.493.493 0 0 1 .499.486Zm1.558 0a.492.492 0 0 1-.499.486.493.493 0 0 1-.499-.486c0-.268.223-.486.499-.486a.493.493 0 0 1 .499.486Zm1.559 0a.493.493 0 0 1-.499.486.493.493 0 0 1-.499-.486c0-.268.223-.486.499-.486a.494.494 0 0 1 .499.486Zm1.555 0a.493.493 0 0 1-.499.486.493.493 0 0 1-.499-.486c0-.268.222-.486.499-.486a.493.493 0 0 1 .499.486Zm1.554 0a.492.492 0 0 1-.499.486.493.493 0 0 1-.499-.486c0-.268.223-.486.499-.486a.493.493 0 0 1 .499.486Zm1.561 0a.493.493 0 0 1-.499.486.493.493 0 0 1-.499-.486c0-.268.223-.486.499-.486a.494.494 0 0 1 .499.486Zm1.559 0a.493.493 0 0 1-.5.486.493.493 0 0 1-.499-.486c0-.268.223-.486.499-.486.276.001.5.218.5.486Zm1.554 0a.493.493 0 0 1-.499.486.493.493 0 0 1-.499-.486c0-.268.223-.486.499-.486a.493.493 0 0 1 .499.486Zm-28.029 1.518a.493.493 0 0 1-.499.486.493.493 0 0 1-.499-.486c0-.268.223-.486.499-.486s.499.217.499.486Zm3.117 0a.493.493 0 0 1-.499.486.493.493 0 0 1-.499-.486c0-.268.223-.486.499-.486.275 0 .499.217.499.486Zm-1.56 0a.493.493 0 0 1-.5.486.493.493 0 0 1-.499-.486c0-.268.223-.486.499-.486.277 0 .5.217.5.486Zm3.115 0a.493.493 0 0 1-.499.486.493.493 0 0 1-.499-.486c0-.268.222-.486.499-.486.275 0 .499.217.499.486Zm1.558 0a.492.492 0 0 1-.499.486.493.493 0 0 1-.499-.486c0-.268.223-.486.499-.486.277 0 .499.217.499.486Zm1.555 0a.493.493 0 0 1-.499.486.493.493 0 0 1-.499-.486c0-.268.223-.486.499-.486s.499.217.499.486Zm1.559 0a.493.493 0 0 1-.499.486.493.493 0 0 1-.499-.486c0-.268.222-.486.499-.486.275 0 .499.217.499.486Zm1.556 0a.492.492 0 0 1-.499.486.493.493 0 0 1-.499-.486c0-.268.223-.486.499-.486.277 0 .499.217.499.486Zm1.557 0a.493.493 0 0 1-.499.486.493.493 0 0 1-.499-.486c0-.268.223-.486.499-.486s.499.217.499.486Zm1.56 0a.492.492 0 0 1-.499.486.493.493 0 0 1-.499-.486c0-.268.223-.486.499-.486.275 0 .499.217.499.486Zm1.555 0a.493.493 0 0 1-.499.486.493.493 0 0 1-.499-.486c0-.268.223-.486.499-.486.275 0 .499.217.499.486Zm1.557 0a.493.493 0 0 1-.499.486.493.493 0 0 1-.499-.486c0-.268.222-.486.499-.486.276 0 .499.217.499.486Zm1.558 0a.492.492 0 0 1-.499.486.493.493 0 0 1-.499-.486c0-.268.223-.486.499-.486.277 0 .499.217.499.486Zm1.559 0a.493.493 0 0 1-.499.486.493.493 0 0 1-.499-.486c0-.268.223-.486.499-.486.275 0 .499.217.499.486Zm1.555 0a.493.493 0 0 1-.499.486.493.493 0 0 1-.499-.486c0-.268.222-.486.499-.486.276 0 .499.217.499.486Zm1.554 0a.492.492 0 0 1-.499.486.493.493 0 0 1-.499-.486c0-.268.223-.486.499-.486.277 0 .499.217.499.486Zm1.561 0a.493.493 0 0 1-.499.486.493.493 0 0 1-.499-.486c0-.268.223-.486.499-.486.275 0 .499.217.499.486Zm1.559 0a.493.493 0 0 1-.5.486.493.493 0 0 1-.499-.486c0-.268.223-.486.499-.486s.5.217.5.486Zm1.554 0a.493.493 0 0 1-.499.486.493.493 0 0 1-.499-.486c0-.268.223-.486.499-.486s.499.217.499.486Zm-29.586 1.517a.493.493 0 0 1-.5.486c-.275 0-.124-.217-.124-.486 0-.268-.152-.486.124-.486.275 0 .5.218.5.486Zm1.557 0a.493.493 0 0 1-.499.486.493.493 0 0 1-.499-.486c0-.268.223-.486.499-.486s.499.218.499.486Zm1.557 0a.493.493 0 0 1-.5.486.493.493 0 0 1-.499-.486c0-.268.223-.486.499-.486.277 0 .5.218.5.486Zm3.115 0a.493.493 0 0 1-.499.486.493.493 0 0 1-.499-.486c0-.268.222-.486.499-.486.275 0 .499.218.499.486Zm-1.555 0a.493.493 0 0 1-.499.486.493.493 0 0 1-.499-.486c0-.268.223-.486.499-.486.275 0 .499.218.499.486Zm4.668 0a.493.493 0 0 1-.499.486.493.493 0 0 1-.499-.486c0-.268.223-.486.499-.486s.499.218.499.486Zm3.115 0a.492.492 0 0 1-.499.486.493.493 0 0 1-.499-.486c0-.268.223-.486.499-.486.277 0 .499.218.499.486Zm1.557 0a.493.493 0 0 1-.499.486.493.493 0 0 1-.499-.486c0-.268.223-.486.499-.486s.499.218.499.486Zm1.56 0a.492.492 0 0 1-.499.486.493.493 0 0 1-.499-.486c0-.268.223-.486.499-.486.275 0 .499.218.499.486Zm-7.787 0a.492.492 0 0 1-.499.486.493.493 0 0 1-.499-.486c0-.268.223-.486.499-.486.277 0 .499.218.499.486Zm3.114 0a.493.493 0 0 1-.499.486.493.493 0 0 1-.499-.486c0-.268.222-.486.499-.486.275 0 .499.218.499.486Zm6.228 0a.493.493 0 0 1-.499.486.493.493 0 0 1-.499-.486c0-.268.223-.486.499-.486.275 0 .499.218.499.486Zm1.557 0a.493.493 0 0 1-.499.486.493.493 0 0 1-.499-.486c0-.268.222-.486.499-.486.276 0 .499.218.499.486Zm1.558 0a.492.492 0 0 1-.499.486.493.493 0 0 1-.499-.486c0-.268.223-.486.499-.486.277 0 .499.218.499.486Zm1.559 0a.493.493 0 0 1-.499.486.493.493 0 0 1-.499-.486c0-.268.223-.486.499-.486.275 0 .499.218.499.486Zm1.555 0a.493.493 0 0 1-.499.486.493.493 0 0 1-.499-.486c0-.268.222-.486.499-.486.276 0 .499.218.499.486Zm1.554 0a.492.492 0 0 1-.499.486.493.493 0 0 1-.499-.486c0-.268.223-.486.499-.486.277 0 .499.218.499.486Zm1.561 0a.493.493 0 0 1-.499.486.493.493 0 0 1-.499-.486c0-.268.223-.486.499-.486.275 0 .499.218.499.486Zm1.559 0a.493.493 0 0 1-.5.486.493.493 0 0 1-.499-.486c0-.268.223-.486.499-.486s.5.218.5.486Zm1.554 0a.493.493 0 0 1-.499.486.493.493 0 0 1-.499-.486c0-.268.223-.486.499-.486s.499.218.499.486Zm-28.029 1.517a.493.493 0 0 1-.499.486.493.493 0 0 1-.499-.486c0-.268.223-.486.499-.486a.493.493 0 0 1 .499.486Zm-1.557-3.034a.493.493 0 0 1-.499.486c-.275 0-.142-.217-.142-.486 0-.268-.134-.486.142-.486.275 0 .499.217.499.486Zm3.114 3.034a.493.493 0 0 1-.5.486.493.493 0 0 1-.499-.486c0-.268.223-.486.499-.486.277.001.5.218.5.486Zm1.56 0a.493.493 0 0 1-.499.486.493.493 0 0 1-.499-.486c0-.268.223-.486.499-.486a.494.494 0 0 1 .499.486Zm3.113 0a.492.492 0 0 1-.499.486.493.493 0 0 1-.499-.486c0-.268.223-.486.499-.486a.493.493 0 0 1 .499.486Zm1.555 0a.493.493 0 0 1-.499.486.493.493 0 0 1-.499-.486c0-.268.223-.486.499-.486a.493.493 0 0 1 .499.486Zm1.559 0a.493.493 0 0 1-.499.486.493.493 0 0 1-.499-.486c0-.268.222-.486.499-.486a.494.494 0 0 1 .499.486Zm1.556 0a.492.492 0 0 1-.499.486.493.493 0 0 1-.499-.486c0-.268.223-.486.499-.486a.493.493 0 0 1 .499.486Zm3.117 0a.492.492 0 0 1-.499.486.493.493 0 0 1-.499-.486c0-.268.223-.486.499-.486a.494.494 0 0 1 .499.486Zm3.112 0a.493.493 0 0 1-.499.486.493.493 0 0 1-.499-.486c0-.268.222-.486.499-.486a.493.493 0 0 1 .499.486Zm-4.672 0a.493.493 0 0 1-.499.486.493.493 0 0 1-.499-.486c0-.268.223-.486.499-.486a.493.493 0 0 1 .499.486Zm3.115 0a.493.493 0 0 1-.499.486.493.493 0 0 1-.499-.486c0-.268.223-.486.499-.486a.494.494 0 0 1 .499.486Zm3.115 0a.492.492 0 0 1-.499.486.493.493 0 0 1-.499-.486c0-.268.223-.486.499-.486a.493.493 0 0 1 .499.486Zm1.559 0a.493.493 0 0 1-.499.486.493.493 0 0 1-.499-.486c0-.268.223-.486.499-.486a.494.494 0 0 1 .499.486Zm1.555 0a.493.493 0 0 1-.499.486.493.493 0 0 1-.499-.486c0-.268.222-.486.499-.486a.493.493 0 0 1 .499.486Zm1.554 0a.492.492 0 0 1-.499.486.493.493 0 0 1-.499-.486c0-.268.223-.486.499-.486a.493.493 0 0 1 .499.486Zm1.561 0a.493.493 0 0 1-.499.486.493.493 0 0 1-.499-.486c0-.268.223-.486.499-.486a.494.494 0 0 1 .499.486Zm1.559 0a.493.493 0 0 1-.5.486.493.493 0 0 1-.499-.486c0-.268.223-.486.499-.486.276.001.5.218.5.486Zm1.554 0a.493.493 0 0 1-.499.486.493.493 0 0 1-.499-.486c0-.268.223-.486.499-.486a.493.493 0 0 1 .499.486Zm-28.029 1.518a.493.493 0 0 1-.499.487.493.493 0 0 1-.499-.487c0-.268.223-.486.499-.486s.499.217.499.486Zm1.557 0a.494.494 0 0 1-.5.487.493.493 0 0 1-.499-.487c0-.268.223-.486.499-.486.277 0 .5.217.5.486Zm1.56 0a.493.493 0 0 1-.499.487.493.493 0 0 1-.499-.487c0-.268.223-.486.499-.486.275 0 .499.217.499.486Zm1.555 0a.493.493 0 0 1-.499.487.493.493 0 0 1-.499-.487c0-.268.222-.486.499-.486.275 0 .499.217.499.486Zm1.558 0a.493.493 0 0 1-.499.487.493.493 0 0 1-.499-.487c0-.268.223-.486.499-.486.277 0 .499.217.499.486Zm1.555 0a.493.493 0 0 1-.499.487.493.493 0 0 1-.499-.487c0-.268.223-.486.499-.486s.499.217.499.486Zm1.559 0a.493.493 0 0 1-.499.487.493.493 0 0 1-.499-.487c0-.268.222-.486.499-.486.275 0 .499.217.499.486Zm1.556 0a.493.493 0 0 1-.499.487.493.493 0 0 1-.499-.487c0-.268.223-.486.499-.486.277 0 .499.217.499.486Zm1.557 0a.493.493 0 0 1-.499.487.493.493 0 0 1-.499-.487c0-.268.223-.486.499-.486s.499.217.499.486Zm1.56 0a.493.493 0 0 1-.499.487.493.493 0 0 1-.499-.487c0-.268.223-.486.499-.486.275 0 .499.217.499.486Zm1.555 0a.493.493 0 0 1-.499.487.493.493 0 0 1-.499-.487c0-.268.223-.486.499-.486.275 0 .499.217.499.486Zm1.557 0a.493.493 0 0 1-.499.487.493.493 0 0 1-.499-.487c0-.268.222-.486.499-.486.276 0 .499.217.499.486Zm1.558 0a.493.493 0 0 1-.499.487.493.493 0 0 1-.499-.487c0-.268.223-.486.499-.486.277 0 .499.217.499.486Zm1.559 0a.493.493 0 0 1-.499.487.493.493 0 0 1-.499-.487c0-.268.223-.486.499-.486.275 0 .499.217.499.486Zm1.555 0a.493.493 0 0 1-.499.487.493.493 0 0 1-.499-.487c0-.268.222-.486.499-.486.276 0 .499.217.499.486Zm1.554 0a.493.493 0 0 1-.499.487.493.493 0 0 1-.499-.487c0-.268.223-.486.499-.486.277 0 .499.217.499.486Zm1.561 0a.493.493 0 0 1-.499.487.493.493 0 0 1-.499-.487c0-.268.223-.486.499-.486.275 0 .499.217.499.486Zm1.559 0a.494.494 0 0 1-.5.487.493.493 0 0 1-.499-.487c0-.268.223-.486.499-.486s.5.217.5.486Zm1.554 0a.493.493 0 0 1-.499.487.493.493 0 0 1-.499-.487c0-.268.223-.486.499-.486s.499.217.499.486Zm-26.472 1.517a.494.494 0 0 1-.5.487.493.493 0 0 1-.499-.487c0-.268.223-.486.499-.486.277 0 .5.218.5.486Zm1.56 0a.493.493 0 0 1-.499.487.493.493 0 0 1-.499-.487c0-.268.223-.486.499-.486.275 0 .499.218.499.486Zm1.555 0a.493.493 0 0 1-.499.487.493.493 0 0 1-.499-.487c0-.268.222-.486.499-.486.275 0 .499.218.499.486Zm1.558 0a.493.493 0 0 1-.499.487.493.493 0 0 1-.499-.487c0-.268.223-.486.499-.486.277 0 .499.218.499.486Zm3.114 0a.493.493 0 0 1-.499.487.493.493 0 0 1-.499-.487c0-.268.222-.486.499-.486.275 0 .499.218.499.486Zm3.113 0a.493.493 0 0 1-.499.487.493.493 0 0 1-.499-.487c0-.268.223-.486.499-.486s.499.218.499.486Zm-4.672 0a.493.493 0 0 1-.499.487.493.493 0 0 1-.499-.487c0-.268.223-.486.499-.486s.499.218.499.486Zm3.115 0a.493.493 0 0 1-.499.487.493.493 0 0 1-.499-.487c0-.268.223-.486.499-.486.277 0 .499.218.499.486Zm3.117 0a.493.493 0 0 1-.499.487.493.493 0 0 1-.499-.487c0-.268.223-.486.499-.486.275 0 .499.218.499.486Zm1.555 0a.493.493 0 0 1-.499.487.493.493 0 0 1-.499-.487c0-.268.223-.486.499-.486.275 0 .499.218.499.486Zm1.557 0a.493.493 0 0 1-.499.487.493.493 0 0 1-.499-.487c0-.268.222-.486.499-.486.276 0 .499.218.499.486Zm1.558 0a.493.493 0 0 1-.499.487.493.493 0 0 1-.499-.487c0-.268.223-.486.499-.486.277 0 .499.218.499.486Zm1.559 0a.493.493 0 0 1-.499.487.493.493 0 0 1-.499-.487c0-.268.223-.486.499-.486.275 0 .499.218.499.486Zm1.555 0a.493.493 0 0 1-.499.487.493.493 0 0 1-.499-.487c0-.268.222-.486.499-.486.276 0 .499.218.499.486Zm1.554 0a.493.493 0 0 1-.499.487.493.493 0 0 1-.499-.487c0-.268.223-.486.499-.486.277 0 .499.218.499.486Zm1.561 0a.493.493 0 0 1-.499.487.493.493 0 0 1-.499-.487c0-.268.223-.486.499-.486.275 0 .499.218.499.486Zm1.559 0a.494.494 0 0 1-.5.487.493.493 0 0 1-.499-.487c0-.268.223-.486.499-.486s.5.218.5.486Zm1.554 0a.493.493 0 0 1-.499.487.493.493 0 0 1-.499-.487c0-.268.223-.486.499-.486s.499.218.499.486Zm-26.472 1.518a.493.493 0 0 1-.5.486.493.493 0 0 1-.499-.486c0-.268.223-.487.499-.487.277 0 .5.219.5.487Zm-1.557-1.518a.493.493 0 0 1-.499.487.493.493 0 0 1-.499-.487c0-.268.223-.486.499-.486s.499.218.499.486Zm0 1.517a.493.493 0 0 1-.499.487.493.493 0 0 1-.499-.487c0-.268.223-.486.499-.486s.499.218.499.486Zm3.117.001a.493.493 0 0 1-.499.486.493.493 0 0 1-.499-.486c0-.268.223-.487.499-.487.275 0 .499.219.499.487Zm3.113 0a.492.492 0 0 1-.499.486.493.493 0 0 1-.499-.486c0-.268.223-.487.499-.487.277 0 .499.219.499.487Zm-1.558-4.553a.493.493 0 0 1-.499.486.493.493 0 0 1-.499-.486c0-.268.222-.486.499-.486a.494.494 0 0 1 .499.486Zm0 4.552a.493.493 0 0 1-.499.487.493.493 0 0 1-.499-.487c0-.268.222-.486.499-.486.275 0 .499.218.499.486Zm3.113.001a.493.493 0 0 1-.499.486.493.493 0 0 1-.499-.486c0-.268.223-.487.499-.487s.499.219.499.487Zm1.559 0a.493.493 0 0 1-.499.486.493.493 0 0 1-.499-.486c0-.268.222-.487.499-.487.275 0 .499.219.499.487Zm1.556 0a.492.492 0 0 1-.499.486.493.493 0 0 1-.499-.486c0-.268.223-.487.499-.487.277 0 .499.219.499.487Zm1.557 0a.493.493 0 0 1-.499.486.493.493 0 0 1-.499-.486c0-.268.223-.487.499-.487s.499.219.499.487Zm3.115 0a.493.493 0 0 1-.499.486.493.493 0 0 1-.499-.486c0-.268.223-.487.499-.487.275 0 .499.219.499.487Zm-1.555-.001a.493.493 0 0 1-.499.487.493.493 0 0 1-.499-.487c0-.268.223-.486.499-.486.275 0 .499.218.499.486Zm3.112.001a.493.493 0 0 1-.499.486.493.493 0 0 1-.499-.486c0-.268.222-.487.499-.487.276 0 .499.219.499.487Zm1.558 0a.492.492 0 0 1-.499.486.493.493 0 0 1-.499-.486c0-.268.223-.487.499-.487.277 0 .499.219.499.487Zm1.559 0a.493.493 0 0 1-.499.486.493.493 0 0 1-.499-.486c0-.268.223-.487.499-.487.275 0 .499.219.499.487Zm1.555 0a.493.493 0 0 1-.499.486.493.493 0 0 1-.499-.486c0-.268.222-.487.499-.487.276 0 .499.219.499.487Zm1.554 0a.492.492 0 0 1-.499.486.493.493 0 0 1-.499-.486c0-.268.223-.487.499-.487.277 0 .499.219.499.487Zm1.561 0a.493.493 0 0 1-.499.486.493.493 0 0 1-.499-.486c0-.268.223-.487.499-.487.275 0 .499.219.499.487Zm1.559 0a.493.493 0 0 1-.5.486.493.493 0 0 1-.499-.486c0-.268.223-.487.499-.487s.5.219.5.487Zm1.554 0a.493.493 0 0 1-.499.486.493.493 0 0 1-.499-.486c0-.268.223-.487.499-.487s.499.219.499.487Zm-28.029 1.516a.493.493 0 0 1-.499.487.493.493 0 0 1-.499-.487c0-.268.223-.486.499-.486a.493.493 0 0 1 .499.486Zm1.557 0a.493.493 0 0 1-.5.486.493.493 0 0 1-.499-.486c0-.268.223-.486.499-.486.277.001.5.218.5.486Zm1.56 0a.493.493 0 0 1-.499.486.493.493 0 0 1-.499-.486c0-.268.223-.486.499-.486a.494.494 0 0 1 .499.486Zm1.555 0a.493.493 0 0 1-.499.487.493.493 0 0 1-.499-.487c0-.268.222-.486.499-.486a.494.494 0 0 1 .499.486Zm4.672 0a.493.493 0 0 1-.499.486.493.493 0 0 1-.499-.486c0-.268.222-.486.499-.486a.494.494 0 0 1 .499.486Zm3.113 0a.493.493 0 0 1-.499.486.493.493 0 0 1-.499-.486c0-.268.223-.486.499-.486a.493.493 0 0 1 .499.486Zm1.56 0a.493.493 0 0 1-.499.487.493.493 0 0 1-.499-.487c0-.268.223-.486.499-.486a.494.494 0 0 1 .499.486Zm1.555 0a.493.493 0 0 1-.499.486.493.493 0 0 1-.499-.486c0-.268.223-.486.499-.486a.494.494 0 0 1 .499.486Zm1.557 0a.493.493 0 0 1-.499.486.493.493 0 0 1-.499-.486c0-.268.222-.486.499-.486a.493.493 0 0 1 .499.486Zm1.558 0a.492.492 0 0 1-.499.486.493.493 0 0 1-.499-.486c0-.268.223-.486.499-.486a.493.493 0 0 1 .499.486Zm1.559 0a.493.493 0 0 1-.499.486.493.493 0 0 1-.499-.486c0-.268.223-.486.499-.486a.494.494 0 0 1 .499.486Zm1.555 0a.493.493 0 0 1-.499.486.493.493 0 0 1-.499-.486c0-.268.222-.486.499-.486a.493.493 0 0 1 .499.486Zm1.554 0a.492.492 0 0 1-.499.486.493.493 0 0 1-.499-.486c0-.268.223-.486.499-.486a.493.493 0 0 1 .499.486Zm1.561 0a.493.493 0 0 1-.499.486.493.493 0 0 1-.499-.486c0-.268.223-.486.499-.486a.494.494 0 0 1 .499.486Zm1.559 0a.493.493 0 0 1-.5.486.493.493 0 0 1-.499-.486c0-.268.223-.486.499-.486.276.001.5.218.5.486Zm1.554 0a.493.493 0 0 1-.499.486.493.493 0 0 1-.499-.486c0-.268.223-.486.499-.486a.493.493 0 0 1 .499.486Zm-28.029 1.518a.493.493 0 0 1-.499.487.493.493 0 0 1-.499-.487c0-.267.223-.486.499-.486s.499.217.499.486Zm3.117 0a.493.493 0 0 1-.499.487.493.493 0 0 1-.499-.487c0-.267.223-.486.499-.486.275 0 .499.217.499.486Zm-1.56 0a.494.494 0 0 1-.5.487.493.493 0 0 1-.499-.487c0-.267.223-.486.499-.486.277 0 .5.217.5.486Zm3.115 0a.493.493 0 0 1-.499.487.493.493 0 0 1-.499-.487c0-.267.222-.486.499-.486.275 0 .499.217.499.486Zm1.558 0a.493.493 0 0 1-.499.487.493.493 0 0 1-.499-.487c0-.267.223-.486.499-.486.277 0 .499.217.499.486Zm3.114 0a.493.493 0 0 1-.499.487.493.493 0 0 1-.499-.487c0-.267.222-.486.499-.486.275 0 .499.217.499.486Zm1.556 0a.493.493 0 0 1-.499.487.493.493 0 0 1-.499-.487c0-.267.223-.486.499-.486.277 0 .499.217.499.486Zm1.557 0a.493.493 0 0 1-.499.487.493.493 0 0 1-.499-.487c0-.267.223-.486.499-.486s.499.217.499.486Zm1.56 0a.493.493 0 0 1-.499.487.493.493 0 0 1-.499-.487c0-.267.223-.486.499-.486.275 0 .499.217.499.486Zm1.555 0a.493.493 0 0 1-.499.487.493.493 0 0 1-.499-.487c0-.267.223-.486.499-.486.275 0 .499.217.499.486Zm1.557 0a.493.493 0 0 1-.499.487.493.493 0 0 1-.499-.487c0-.267.222-.486.499-.486.276 0 .499.217.499.486Zm1.558 0a.493.493 0 0 1-.499.487.493.493 0 0 1-.499-.487c0-.267.223-.486.499-.486.277 0 .499.217.499.486Zm1.559 0a.493.493 0 0 1-.499.487.493.493 0 0 1-.499-.487c0-.267.223-.486.499-.486.275 0 .499.217.499.486Zm1.555 0a.493.493 0 0 1-.499.487.493.493 0 0 1-.499-.487c0-.267.222-.486.499-.486.276 0 .499.217.499.486Zm1.554 0a.493.493 0 0 1-.499.487.493.493 0 0 1-.499-.487c0-.267.223-.486.499-.486.277 0 .499.217.499.486Zm1.561 0a.493.493 0 0 1-.499.487.493.493 0 0 1-.499-.487c0-.267.223-.486.499-.486.275 0 .499.217.499.486Zm1.559 0a.494.494 0 0 1-.5.487.493.493 0 0 1-.499-.487c0-.267.223-.486.499-.486s.5.217.5.486Zm1.554 0a.493.493 0 0 1-.499.487.493.493 0 0 1-.499-.487c0-.267.223-.486.499-.486s.499.217.499.486Zm-28.029 1.518a.493.493 0 0 1-.499.486.493.493 0 0 1-.499-.486c0-.268.223-.487.499-.487s.499.219.499.487Zm1.557 0a.493.493 0 0 1-.5.486.493.493 0 0 1-.499-.486c0-.268.223-.487.499-.487.277 0 .5.219.5.487Zm1.56 0a.493.493 0 0 1-.499.486.493.493 0 0 1-.499-.486c0-.268.223-.487.499-.487.275 0 .499.219.499.487Zm1.555 0a.493.493 0 0 1-.499.486.493.493 0 0 1-.499-.486c0-.268.222-.487.499-.487.275 0 .499.219.499.487Zm1.558 0a.492.492 0 0 1-.499.486.493.493 0 0 1-.499-.486c0-.268.223-.487.499-.487.277 0 .499.219.499.487Zm3.114 0a.493.493 0 0 1-.499.486.493.493 0 0 1-.499-.486c0-.268.222-.487.499-.487.275 0 .499.219.499.487Zm-1.559-3.036a.493.493 0 0 1-.499.486.493.493 0 0 1-.499-.486c0-.268.223-.486.499-.486a.493.493 0 0 1 .499.486Zm-1.555 0a.492.492 0 0 1-.499.486.493.493 0 0 1-.499-.486c0-.268.223-.486.499-.486a.493.493 0 0 1 .499.486Zm1.555 1.518a.493.493 0 0 1-.499.487.493.493 0 0 1-.499-.487c0-.267.223-.486.499-.486s.499.217.499.486Zm0 1.518a.493.493 0 0 1-.499.486.493.493 0 0 1-.499-.486c0-.268.223-.487.499-.487s.499.219.499.487Zm4.672 0a.493.493 0 0 1-.499.486.493.493 0 0 1-.499-.486c0-.268.223-.487.499-.487s.499.219.499.487Zm-1.557-3.036a.492.492 0 0 1-.499.486.493.493 0 0 1-.499-.486c0-.268.223-.486.499-.486a.493.493 0 0 1 .499.486Zm0 3.036a.492.492 0 0 1-.499.486.493.493 0 0 1-.499-.486c0-.268.223-.487.499-.487.277 0 .499.219.499.487Zm3.117 0a.492.492 0 0 1-.499.486.493.493 0 0 1-.499-.486c0-.268.223-.487.499-.487.275 0 .499.219.499.487Zm1.555 0a.493.493 0 0 1-.499.486.493.493 0 0 1-.499-.486c0-.268.223-.487.499-.487.275 0 .499.219.499.487Zm1.557 0a.493.493 0 0 1-.499.486.493.493 0 0 1-.499-.486c0-.268.222-.487.499-.487.276 0 .499.219.499.487Zm1.558 0a.492.492 0 0 1-.499.486.493.493 0 0 1-.499-.486c0-.268.223-.487.499-.487.277 0 .499.219.499.487Zm1.559 0a.493.493 0 0 1-.499.486.493.493 0 0 1-.499-.486c0-.268.223-.487.499-.487.275 0 .499.219.499.487Zm1.555 0a.493.493 0 0 1-.499.486.493.493 0 0 1-.499-.486c0-.268.222-.487.499-.487.276 0 .499.219.499.487Zm1.554 0a.492.492 0 0 1-.499.486.493.493 0 0 1-.499-.486c0-.268.223-.487.499-.487.277 0 .499.219.499.487Zm1.561 0a.493.493 0 0 1-.499.486.493.493 0 0 1-.499-.486c0-.268.223-.487.499-.487.275 0 .499.219.499.487Zm1.559 0a.493.493 0 0 1-.5.486.493.493 0 0 1-.499-.486c0-.268.223-.487.499-.487s.5.219.5.487Zm1.554 0a.493.493 0 0 1-.499.486.493.493 0 0 1-.499-.486c0-.268.223-.487.499-.487s.499.219.499.487Zm-28.031 1.516a.493.493 0 0 1-.499.487c-.275 0-.347-.28-.454-.474 0-.268.178-.499.454-.499a.493.493 0 0 1 .499.486Zm1.559 0a.494.494 0 0 1-.5.487.493.493 0 0 1-.499-.487c0-.268.223-.486.499-.486.277.001.5.218.5.486Zm1.56 0a.493.493 0 0 1-.499.487.493.493 0 0 1-.499-.487c0-.268.223-.486.499-.486a.494.494 0 0 1 .499.486Zm1.555.001a.493.493 0 0 1-.499.486.493.493 0 0 1-.499-.486c0-.268.222-.487.499-.487a.495.495 0 0 1 .499.487Zm3.113-.001a.493.493 0 0 1-.499.487.493.493 0 0 1-.499-.487c0-.268.223-.486.499-.486a.493.493 0 0 1 .499.486Zm-1.555 0a.493.493 0 0 1-.499.487.493.493 0 0 1-.499-.487c0-.268.223-.486.499-.486a.493.493 0 0 1 .499.486Zm3.114 0a.493.493 0 0 1-.499.487.493.493 0 0 1-.499-.487c0-.268.222-.486.499-.486a.494.494 0 0 1 .499.486Zm3.113 0a.493.493 0 0 1-.499.487.493.493 0 0 1-.499-.487c0-.268.223-.486.499-.486a.493.493 0 0 1 .499.486Zm-1.557 0a.493.493 0 0 1-.499.487.493.493 0 0 1-.499-.487c0-.268.223-.486.499-.486a.493.493 0 0 1 .499.486Zm4.672 0a.493.493 0 0 1-.499.487.493.493 0 0 1-.499-.487c0-.268.223-.486.499-.486a.494.494 0 0 1 .499.486Zm-1.555.001a.492.492 0 0 1-.499.486.493.493 0 0 1-.499-.486c0-.268.223-.487.499-.487a.495.495 0 0 1 .499.487Zm3.112-.001a.493.493 0 0 1-.499.487.493.493 0 0 1-.499-.487c0-.268.222-.486.499-.486a.493.493 0 0 1 .499.486Zm1.558 0a.493.493 0 0 1-.499.487.493.493 0 0 1-.499-.487c0-.268.223-.486.499-.486a.493.493 0 0 1 .499.486Zm1.559 0a.493.493 0 0 1-.499.487.493.493 0 0 1-.499-.487c0-.268.223-.486.499-.486a.494.494 0 0 1 .499.486Zm1.555 0a.493.493 0 0 1-.499.487.493.493 0 0 1-.499-.487c0-.268.222-.486.499-.486a.493.493 0 0 1 .499.486Zm1.554 0a.493.493 0 0 1-.499.487.493.493 0 0 1-.499-.487c0-.268.223-.486.499-.486a.493.493 0 0 1 .499.486Zm1.561 0a.493.493 0 0 1-.499.487.493.493 0 0 1-.499-.487c0-.268.223-.486.499-.486a.494.494 0 0 1 .499.486Zm1.559 0a.494.494 0 0 1-.5.487.493.493 0 0 1-.499-.487c0-.268.223-.486.499-.486.276.001.5.218.5.486Zm1.554 0a.493.493 0 0 1-.499.487.493.493 0 0 1-.499-.487c0-.268.223-.486.499-.486a.493.493 0 0 1 .499.486Zm-26.472 1.519a.494.494 0 0 1-.5.486.493.493 0 0 1-.499-.486c0-.268.223-.487.499-.487.277 0 .5.217.5.487Zm-1.561 0a.493.493 0 0 1-.499.486c-.275 0-.019-.329-.019-.598 0-.268-.258-.375.019-.375.276 0 .499.217.499.487Zm6.234 0a.493.493 0 0 1-.499.486.493.493 0 0 1-.499-.486c0-.268.223-.487.499-.487.277 0 .499.217.499.487Zm1.555 0a.493.493 0 0 1-.499.486.493.493 0 0 1-.499-.486c0-.268.223-.487.499-.487s.499.217.499.487Zm1.559 0a.493.493 0 0 1-.499.486.493.493 0 0 1-.499-.486c0-.268.222-.487.499-.487.275 0 .499.217.499.487Zm1.556 0a.493.493 0 0 1-.499.486.493.493 0 0 1-.499-.486c0-.268.223-.487.499-.487.277 0 .499.217.499.487Zm1.557 0a.493.493 0 0 1-.499.486.493.493 0 0 1-.499-.486c0-.268.223-.487.499-.487s.499.217.499.487Zm1.56 0a.493.493 0 0 1-.499.486.493.493 0 0 1-.499-.486c0-.268.223-.487.499-.487.275 0 .499.217.499.487Zm1.555 0a.493.493 0 0 1-.499.486.493.493 0 0 1-.499-.486c0-.268.223-.487.499-.487.275 0 .499.217.499.487Zm3.115 0a.493.493 0 0 1-.499.486.493.493 0 0 1-.499-.486c0-.268.223-.487.499-.487.277 0 .499.217.499.487Zm-1.558 0a.493.493 0 0 1-.499.486.493.493 0 0 1-.499-.486c0-.268.222-.487.499-.487.276 0 .499.217.499.487Zm3.117 0a.493.493 0 0 1-.499.486.493.493 0 0 1-.499-.486c0-.268.223-.487.499-.487.275 0 .499.217.499.487Zm1.555 0a.493.493 0 0 1-.499.486.493.493 0 0 1-.499-.486c0-.268.222-.487.499-.487.276 0 .499.217.499.487Zm1.554 0a.493.493 0 0 1-.499.486.493.493 0 0 1-.499-.486c0-.268.223-.487.499-.487.277 0 .499.217.499.487Zm1.561 0a.493.493 0 0 1-.499.486.493.493 0 0 1-.499-.486c0-.268.223-.487.499-.487.275 0 .499.217.499.487Zm1.559 0a.494.494 0 0 1-.5.486.493.493 0 0 1-.499-.486c0-.268.223-.487.499-.487s.5.217.5.487Zm1.554 0a.493.493 0 0 1-.499.486.493.493 0 0 1-.499-.486c0-.268.223-.487.499-.487s.499.217.499.487Zm-21.799 1.517a.492.492 0 0 1-.499.486.493.493 0 0 1-.499-.486c0-.268.223-.487.499-.487.277 0 .499.219.499.487Zm-1.558-1.517a.493.493 0 0 1-.499.486.493.493 0 0 1-.499-.486c0-.268.222-.487.499-.487.275 0 .499.217.499.487Zm0 1.517a.493.493 0 0 1-.499.486.493.493 0 0 1-.499-.486c0-.268.222-.487.499-.487.275 0 .499.219.499.487Zm-1.555-1.517a.493.493 0 0 1-.499.486.493.493 0 0 1-.499-.486c0-.268.223-.487.499-.487.275 0 .499.217.499.487Zm0 1.517a.493.493 0 0 1-.499.486.493.493 0 0 1-.499-.486c0-.268.223-.487.499-.487.275 0 .499.219.499.487Zm6.227 0a.493.493 0 0 1-.499.486.493.493 0 0 1-.499-.486c0-.268.222-.487.499-.487.275 0 .499.219.499.487Zm3.113 0a.493.493 0 0 1-.499.486.493.493 0 0 1-.499-.486c0-.268.223-.487.499-.487s.499.219.499.487Zm-1.557 0a.492.492 0 0 1-.499.486.493.493 0 0 1-.499-.486c0-.268.223-.487.499-.487.277 0 .499.219.499.487Zm3.117 0a.492.492 0 0 1-.499.486.493.493 0 0 1-.499-.486c0-.268.223-.487.499-.487.275 0 .499.219.499.487Zm1.555 0a.493.493 0 0 1-.499.486.493.493 0 0 1-.499-.486c0-.268.223-.487.499-.487.275 0 .499.219.499.487Zm1.557 0a.493.493 0 0 1-.499.486.493.493 0 0 1-.499-.486c0-.268.222-.487.499-.487.276 0 .499.219.499.487Zm1.558 0a.492.492 0 0 1-.499.486.493.493 0 0 1-.499-.486c0-.268.223-.487.499-.487.277 0 .499.219.499.487Zm1.559 0a.493.493 0 0 1-.499.486.493.493 0 0 1-.499-.486c0-.268.223-.487.499-.487.275 0 .499.219.499.487Zm1.555 0a.493.493 0 0 1-.499.486.493.493 0 0 1-.499-.486c0-.268.222-.487.499-.487.276 0 .499.219.499.487Zm1.554 0a.492.492 0 0 1-.499.486.493.493 0 0 1-.499-.486c0-.268.223-.487.499-.487.277 0 .499.219.499.487Zm1.561 0a.493.493 0 0 1-.499.486.493.493 0 0 1-.499-.486c0-.268.223-.487.499-.487.275 0 .499.219.499.487Zm1.559 0a.493.493 0 0 1-.5.486.493.493 0 0 1-.499-.486c0-.268.223-.487.499-.487s.5.219.5.487Zm1.554 0a.493.493 0 0 1-.499.486.493.493 0 0 1-.499-.486c0-.268.223-.487.499-.487s.499.219.499.487Zm-24.912 1.517a.493.493 0 0 1-.499.486.493.493 0 0 1-.499-.486c0-.268.223-.487.499-.487.275 0 .499.219.499.487Zm-1.56-1.517a.493.493 0 0 1-.5.486.493.493 0 0 1-.499-.486c0-.268.223-.487.499-.487.277 0 .5.219.5.487Zm0 1.517a.493.493 0 0 1-.5.486.493.493 0 0 1-.499-.486c0-.268.223-.487.499-.487.277 0 .5.219.5.487Zm3.115 0a.493.493 0 0 1-.499.486.493.493 0 0 1-.499-.486c0-.268.222-.487.499-.487.275 0 .499.219.499.487Zm1.558 0a.492.492 0 0 1-.499.486.493.493 0 0 1-.499-.486c0-.268.223-.487.499-.487.277 0 .499.219.499.487Zm3.114 0a.493.493 0 0 1-.499.486.493.493 0 0 1-.499-.486c0-.268.222-.487.499-.487.275 0 .499.219.499.487Zm-1.559-1.517a.493.493 0 0 1-.499.486.493.493 0 0 1-.499-.486c0-.268.223-.487.499-.487s.499.219.499.487Zm0 1.517a.493.493 0 0 1-.499.486.493.493 0 0 1-.499-.486c0-.268.223-.487.499-.487s.499.219.499.487Zm3.115 0a.492.492 0 0 1-.499.486.493.493 0 0 1-.499-.486c0-.268.223-.487.499-.487.277 0 .499.219.499.487Zm3.117 0a.492.492 0 0 1-.499.486.493.493 0 0 1-.499-.486c0-.268.223-.487.499-.487.275 0 .499.219.499.487Zm-1.56 0a.493.493 0 0 1-.499.486.493.493 0 0 1-.499-.486c0-.268.223-.487.499-.487s.499.219.499.487Zm3.115 0a.493.493 0 0 1-.499.486.493.493 0 0 1-.499-.486c0-.268.223-.487.499-.487.275 0 .499.219.499.487Zm1.557 0a.493.493 0 0 1-.499.486.493.493 0 0 1-.499-.486c0-.268.222-.487.499-.487.276 0 .499.219.499.487Zm1.558 0a.492.492 0 0 1-.499.486.493.493 0 0 1-.499-.486c0-.268.223-.487.499-.487.277 0 .499.219.499.487Zm1.559 0a.493.493 0 0 1-.499.486.493.493 0 0 1-.499-.486c0-.268.223-.487.499-.487.275 0 .499.219.499.487Zm1.555 0a.493.493 0 0 1-.499.486.493.493 0 0 1-.499-.486c0-.268.222-.487.499-.487.276 0 .499.219.499.487Zm1.554 0a.492.492 0 0 1-.499.486.493.493 0 0 1-.499-.486c0-.268.223-.487.499-.487.277 0 .499.219.499.487Zm1.561 0a.493.493 0 0 1-.499.486.493.493 0 0 1-.499-.486c0-.268.223-.487.499-.487.275 0 .499.219.499.487Zm1.559 0a.493.493 0 0 1-.5.486.493.493 0 0 1-.499-.486c0-.268.223-.487.499-.487s.5.219.5.487Zm1.554 0a.493.493 0 0 1-.499.486.493.493 0 0 1-.499-.486c0-.268.223-.487.499-.487s.499.219.499.487Zm-26.472 1.517a.493.493 0 0 1-.5.486.493.493 0 0 1-.499-.486c0-.268.223-.486.499-.486.277.001.5.218.5.486Zm1.56 0a.493.493 0 0 1-.499.486.493.493 0 0 1-.499-.486c0-.268.223-.486.499-.486a.494.494 0 0 1 .499.486Zm1.555 0a.493.493 0 0 1-.499.486.493.493 0 0 1-.499-.486c0-.268.222-.486.499-.486a.494.494 0 0 1 .499.486Zm1.558 0a.492.492 0 0 1-.499.486.493.493 0 0 1-.499-.486c0-.268.223-.486.499-.486a.493.493 0 0 1 .499.486Zm1.555 0a.493.493 0 0 1-.499.486.493.493 0 0 1-.499-.486c0-.268.223-.486.499-.486a.493.493 0 0 1 .499.486Zm3.115 0a.492.492 0 0 1-.499.486.493.493 0 0 1-.499-.486c0-.268.223-.486.499-.486a.493.493 0 0 1 .499.486Zm1.557 0a.493.493 0 0 1-.499.486.493.493 0 0 1-.499-.486c0-.268.223-.486.499-.486a.493.493 0 0 1 .499.486Zm1.56 0a.492.492 0 0 1-.499.486.493.493 0 0 1-.499-.486c0-.268.223-.486.499-.486a.494.494 0 0 1 .499.486Zm1.555 0a.493.493 0 0 1-.499.486.493.493 0 0 1-.499-.486c0-.268.223-.486.499-.486a.494.494 0 0 1 .499.486Zm1.557 0a.493.493 0 0 1-.499.486.493.493 0 0 1-.499-.486c0-.268.222-.486.499-.486a.493.493 0 0 1 .499.486Zm1.558 0a.492.492 0 0 1-.499.486.493.493 0 0 1-.499-.486c0-.268.223-.486.499-.486a.493.493 0 0 1 .499.486Zm1.559 0a.493.493 0 0 1-.499.486.493.493 0 0 1-.499-.486c0-.268.223-.486.499-.486a.494.494 0 0 1 .499.486Zm1.555 0a.493.493 0 0 1-.499.486.493.493 0 0 1-.499-.486c0-.268.222-.486.499-.486a.493.493 0 0 1 .499.486Zm1.554 0a.492.492 0 0 1-.499.486.493.493 0 0 1-.499-.486c0-.268.223-.486.499-.486a.493.493 0 0 1 .499.486Zm1.561 0a.493.493 0 0 1-.499.486.493.493 0 0 1-.499-.486c0-.268.223-.486.499-.486a.494.494 0 0 1 .499.486Zm1.559 0a.493.493 0 0 1-.5.486.493.493 0 0 1-.499-.486c0-.268.223-.486.499-.486.276.001.5.218.5.486Zm1.554 0a.493.493 0 0 1-.499.486.493.493 0 0 1-.499-.486c0-.268.223-.486.499-.486a.493.493 0 0 1 .499.486Zm-26.472 1.518a.493.493 0 0 1-.499.486c-.275 0-.269-.274-.269-.543 0-.268-.008-.429.269-.429.276 0 .499.217.499.486Zm3.115 0a.493.493 0 0 1-.499.486.493.493 0 0 1-.499-.486c0-.268.222-.486.499-.486.275 0 .499.217.499.486Zm-1.555 0a.493.493 0 0 1-.499.486.493.493 0 0 1-.499-.486c0-.268.223-.486.499-.486.275 0 .499.217.499.486Zm3.113 0a.492.492 0 0 1-.499.486.493.493 0 0 1-.499-.486c0-.268.223-.486.499-.486.277 0 .499.217.499.486Zm1.555 0a.493.493 0 0 1-.499.486.493.493 0 0 1-.499-.486c0-.268.223-.486.499-.486s.499.217.499.486Zm1.559 0a.493.493 0 0 1-.499.486.493.493 0 0 1-.499-.486c0-.268.222-.486.499-.486.275 0 .499.217.499.486Zm1.556 0a.492.492 0 0 1-.499.486.493.493 0 0 1-.499-.486c0-.268.223-.486.499-.486.277 0 .499.217.499.486Zm1.557 0a.493.493 0 0 1-.499.486.493.493 0 0 1-.499-.486c0-.268.223-.486.499-.486s.499.217.499.486Zm3.115 0a.493.493 0 0 1-.499.486.493.493 0 0 1-.499-.486c0-.268.223-.486.499-.486.275 0 .499.217.499.486Zm-1.555 0a.492.492 0 0 1-.499.486.493.493 0 0 1-.499-.486c0-.268.223-.486.499-.486.275 0 .499.217.499.486Zm3.112 0a.493.493 0 0 1-.499.486.493.493 0 0 1-.499-.486c0-.268.222-.486.499-.486.276 0 .499.217.499.486Zm1.558 0a.492.492 0 0 1-.499.486.493.493 0 0 1-.499-.486c0-.268.223-.486.499-.486.277 0 .499.217.499.486Zm1.559 0a.493.493 0 0 1-.499.486.493.493 0 0 1-.499-.486c0-.268.223-.486.499-.486.275 0 .499.217.499.486Zm1.555 0a.493.493 0 0 1-.499.486.493.493 0 0 1-.499-.486c0-.268.222-.486.499-.486.276 0 .499.217.499.486Zm1.554 0a.492.492 0 0 1-.499.486.493.493 0 0 1-.499-.486c0-.268.223-.486.499-.486.277 0 .499.217.499.486Zm1.561 0a.493.493 0 0 1-.499.486.493.493 0 0 1-.499-.486c0-.268.223-.486.499-.486.275 0 .499.217.499.486Zm1.559 0a.493.493 0 0 1-.5.486.493.493 0 0 1-.499-.486c0-.268.223-.486.499-.486s.5.217.5.486Zm1.554 0a.493.493 0 0 1-.499.486.493.493 0 0 1-.499-.486c0-.268.223-.486.499-.486s.499.217.499.486Zm-18.685-1.518a.493.493 0 0 1-.499.486.493.493 0 0 1-.499-.486c0-.268.222-.486.499-.486a.494.494 0 0 1 .499.486Z" fill="#3136BD"/><path d="M474.949 145.598a.492.492 0 0 1-.499.486.493.493 0 0 1-.499-.486c0-.268.223-.486.499-.486.275 0 .499.218.499.486Zm3.116 0a.493.493 0 0 1-.5.486.493.493 0 0 1-.499-.486c0-.268.223-.486.499-.486.277 0 .5.218.5.486Zm-1.559 0a.493.493 0 0 1-.499.486.493.493 0 0 1-.499-.486c0-.268.223-.486.499-.486.275 0 .499.218.499.486Zm3.117 0a.493.493 0 0 1-.499.486.493.493 0 0 1-.499-.486c0-.268.223-.486.499-.486s.499.218.499.486Zm3.111 0a.492.492 0 0 1-.499.486.493.493 0 0 1-.499-.486c0-.268.223-.486.499-.486.277 0 .499.218.499.486Zm-1.556 0a.493.493 0 0 1-.499.486.493.493 0 0 1-.499-.486c0-.268.222-.486.499-.486.275 0 .499.218.499.486Zm3.115 0a.493.493 0 0 1-.499.486.493.493 0 0 1-.499-.486c0-.268.223-.486.499-.486s.499.218.499.486Zm1.559 0a.493.493 0 0 1-.499.486.493.493 0 0 1-.499-.486c0-.268.222-.486.499-.486.275 0 .499.218.499.486Zm1.554 0a.492.492 0 0 1-.499.486.493.493 0 0 1-.499-.486c0-.268.223-.486.499-.486.275 0 .499.218.499.486Zm1.555 0a.493.493 0 0 1-.499.486.493.493 0 0 1-.499-.486c0-.268.223-.486.499-.486s.499.218.499.486Zm3.117 0a.493.493 0 0 1-.499.486.493.493 0 0 1-.499-.486c0-.268.223-.486.499-.486.275 0 .499.218.499.486Zm-1.558 0a.493.493 0 0 1-.499.486.493.493 0 0 1-.5-.486c0-.268.223-.486.5-.486.276 0 .499.218.499.486Zm3.115 0a.493.493 0 0 1-.499.486.493.493 0 0 1-.499-.486c0-.268.222-.486.499-.486.275 0 .499.218.499.486Zm1.56 0a.492.492 0 0 1-.499.486.493.493 0 0 1-.499-.486c0-.268.223-.486.499-.486.277 0 .499.218.499.486Zm1.555 0a.493.493 0 0 1-.499.486.493.493 0 0 1-.499-.486c0-.268.223-.486.499-.486s.499.218.499.486Zm1.557 0a.493.493 0 0 1-.499.486.493.493 0 0 1-.499-.486c0-.268.222-.486.499-.486.275 0 .499.218.499.486Zm1.556 0a.492.492 0 0 1-.499.486.493.493 0 0 1-.499-.486c0-.268.223-.486.499-.486.277 0 .499.218.499.486Zm1.559 0a.493.493 0 0 1-.499.486.493.493 0 0 1-.499-.486c0-.268.223-.486.499-.486s.499.218.499.486Zm-24.916 1.517a.493.493 0 0 1-.499.486.493.493 0 0 1-.499-.486c0-.268.223-.486.499-.486a.494.494 0 0 1 .499.486Zm3.117 0a.493.493 0 0 1-.499.486.493.493 0 0 1-.499-.486c0-.268.223-.486.499-.486a.493.493 0 0 1 .499.486Zm1.555 0a.493.493 0 0 1-.499.486.493.493 0 0 1-.499-.486c0-.268.222-.486.499-.486a.494.494 0 0 1 .499.486Zm1.556 0a.492.492 0 0 1-.499.486.493.493 0 0 1-.499-.486c0-.268.223-.486.499-.486a.493.493 0 0 1 .499.486Zm3.118 0a.493.493 0 0 1-.499.486.493.493 0 0 1-.499-.486c0-.268.222-.486.499-.486a.494.494 0 0 1 .499.486Zm3.109 0a.493.493 0 0 1-.499.486.493.493 0 0 1-.499-.486c0-.268.223-.486.499-.486a.493.493 0 0 1 .499.486Zm-4.668 0a.493.493 0 0 1-.499.486.493.493 0 0 1-.499-.486c0-.268.223-.486.499-.486a.493.493 0 0 1 .499.486Zm3.113 0a.492.492 0 0 1-.499.486.493.493 0 0 1-.499-.486c0-.268.223-.486.499-.486a.494.494 0 0 1 .499.486Zm3.114 0a.493.493 0 0 1-.499.486.493.493 0 0 1-.5-.486c0-.268.223-.486.5-.486a.493.493 0 0 1 .499.486Zm1.558 0a.493.493 0 0 1-.499.486.493.493 0 0 1-.499-.486c0-.268.223-.486.499-.486a.494.494 0 0 1 .499.486Zm1.557 0a.493.493 0 0 1-.499.486.493.493 0 0 1-.499-.486c0-.268.222-.486.499-.486a.494.494 0 0 1 .499.486Zm1.56 0a.492.492 0 0 1-.499.486.493.493 0 0 1-.499-.486c0-.268.223-.486.499-.486a.493.493 0 0 1 .499.486Zm1.555 0a.493.493 0 0 1-.499.486.493.493 0 0 1-.499-.486c0-.268.223-.486.499-.486a.493.493 0 0 1 .499.486Zm1.557 0a.493.493 0 0 1-.499.486.493.493 0 0 1-.499-.486c0-.268.222-.486.499-.486a.494.494 0 0 1 .499.486Zm1.556 0a.492.492 0 0 1-.499.486.493.493 0 0 1-.499-.486c0-.268.223-.486.499-.486a.493.493 0 0 1 .499.486Zm1.431-.058c0 .268-.095.544-.371.544a.493.493 0 0 1-.499-.486c0-.268.223-.486.499-.486.276.001.371.16.371.428Zm-24.788 1.576a.493.493 0 0 1-.499.487.493.493 0 0 1-.499-.487c0-.268.223-.486.499-.486.275 0 .499.217.499.486Zm-1.557-1.518a.492.492 0 0 1-.499.486.493.493 0 0 1-.499-.486c0-.268.223-.486.499-.486a.494.494 0 0 1 .499.486Zm0 1.518a.493.493 0 0 1-.499.487.493.493 0 0 1-.499-.487c0-.268.223-.486.499-.486.275 0 .499.217.499.486Zm4.674 0a.493.493 0 0 1-.499.487.493.493 0 0 1-.499-.487c0-.268.223-.486.499-.486s.499.217.499.486Zm-1.558-1.518a.493.493 0 0 1-.5.486.493.493 0 0 1-.499-.486c0-.268.223-.486.499-.486.277.001.5.218.5.486Zm0 1.518a.494.494 0 0 1-.5.487.493.493 0 0 1-.499-.487c0-.268.223-.486.499-.486.277 0 .5.217.5.486Zm3.113 0a.493.493 0 0 1-.499.487.493.493 0 0 1-.499-.487c0-.268.222-.486.499-.486.275 0 .499.217.499.486Zm1.556 0a.493.493 0 0 1-.499.487.493.493 0 0 1-.499-.487c0-.268.223-.486.499-.486.277 0 .499.217.499.486Zm1.559 0a.493.493 0 0 1-.499.487.493.493 0 0 1-.499-.487c0-.268.223-.486.499-.486s.499.217.499.486Zm1.559 0a.493.493 0 0 1-.499.487.493.493 0 0 1-.499-.487c0-.268.222-.486.499-.486.275 0 .499.217.499.486Zm1.554 0a.493.493 0 0 1-.499.487.493.493 0 0 1-.499-.487c0-.268.223-.486.499-.486.275 0 .499.217.499.486Zm1.555 0a.493.493 0 0 1-.499.487.493.493 0 0 1-.499-.487c0-.268.223-.486.499-.486s.499.217.499.486Zm1.559 0a.493.493 0 0 1-.499.487.494.494 0 0 1-.5-.487c0-.268.223-.486.5-.486.276 0 .499.217.499.486Zm1.558 0a.493.493 0 0 1-.499.487.493.493 0 0 1-.499-.487c0-.268.223-.486.499-.486.275 0 .499.217.499.486Zm1.557 0a.493.493 0 0 1-.499.487.493.493 0 0 1-.499-.487c0-.268.222-.486.499-.486.275 0 .499.217.499.486Zm1.56 0a.493.493 0 0 1-.499.487.493.493 0 0 1-.499-.487c0-.268.223-.486.499-.486.277 0 .499.217.499.486Zm1.555 0a.493.493 0 0 1-.499.487.493.493 0 0 1-.499-.487c0-.268.223-.486.499-.486s.499.217.499.486Zm1.557 0a.493.493 0 0 1-.499.487.493.493 0 0 1-.499-.487c0-.268.222-.486.499-.486.275 0 .499.217.499.486Zm1.556 0a.493.493 0 0 1-.499.487.493.493 0 0 1-.499-.487c0-.268.223-.486.499-.486.277 0 .499.217.499.486Zm-24.914 1.517a.493.493 0 0 1-.499.487.493.493 0 0 1-.499-.487c0-.268.223-.486.499-.486.275 0 .499.218.499.486Zm1.557 0a.493.493 0 0 1-.499.487.493.493 0 0 1-.499-.487c0-.268.223-.486.499-.486.275 0 .499.218.499.486Zm1.559 0a.494.494 0 0 1-.5.487.493.493 0 0 1-.499-.487c0-.268.223-.486.499-.486.277 0 .5.218.5.486Zm1.558 0a.493.493 0 0 1-.499.487.493.493 0 0 1-.499-.487c0-.268.223-.486.499-.486s.499.218.499.486Zm4.67 0a.493.493 0 0 1-.499.487.493.493 0 0 1-.499-.487c0-.268.223-.486.499-.486s.499.218.499.486Zm1.559 0a.493.493 0 0 1-.499.487.493.493 0 0 1-.499-.487c0-.268.222-.486.499-.486.275 0 .499.218.499.486Zm1.554 0a.493.493 0 0 1-.499.487.493.493 0 0 1-.499-.487c0-.268.223-.486.499-.486.275 0 .499.218.499.486Zm1.555 0a.493.493 0 0 1-.499.487.493.493 0 0 1-.499-.487c0-.268.223-.486.499-.486s.499.218.499.486Zm1.559 0a.493.493 0 0 1-.499.487.493.493 0 0 1-.5-.487c0-.268.223-.486.5-.486.276 0 .499.218.499.486Zm1.558 0a.493.493 0 0 1-.499.487.493.493 0 0 1-.499-.487c0-.268.223-.486.499-.486.275 0 .499.218.499.486Zm1.557 0a.493.493 0 0 1-.499.487.493.493 0 0 1-.499-.487c0-.268.222-.486.499-.486.275 0 .499.218.499.486Zm1.56 0a.493.493 0 0 1-.499.487.493.493 0 0 1-.499-.487c0-.268.223-.486.499-.486.277 0 .499.218.499.486Zm1.555 0a.493.493 0 0 1-.499.487.493.493 0 0 1-.499-.487c0-.268.223-.486.499-.486s.499.218.499.486Zm1.557 0a.493.493 0 0 1-.499.487.493.493 0 0 1-.499-.487c0-.268.222-.486.499-.486.275 0 .499.218.499.486Zm1.556 0a.493.493 0 0 1-.499.487.493.493 0 0 1-.499-.487c0-.268.223-.486.499-.486.277 0 .499.218.499.486Zm-24.914 1.517a.492.492 0 0 1-.499.486.493.493 0 0 1-.499-.486c0-.268.223-.486.499-.486a.494.494 0 0 1 .499.486Zm1.557 0a.493.493 0 0 1-.499.486.493.493 0 0 1-.499-.486c0-.268.223-.486.499-.486a.494.494 0 0 1 .499.486Zm4.672 0a.493.493 0 0 1-.499.486.493.493 0 0 1-.499-.486c0-.268.222-.486.499-.486a.494.494 0 0 1 .499.486Zm1.556 0a.492.492 0 0 1-.499.486.493.493 0 0 1-.499-.486c0-.268.223-.486.499-.486a.493.493 0 0 1 .499.486Zm-1.556-1.517a.493.493 0 0 1-.499.487.493.493 0 0 1-.499-.487c0-.268.222-.486.499-.486.275 0 .499.218.499.486Zm1.556 0a.493.493 0 0 1-.499.487.493.493 0 0 1-.499-.487c0-.268.223-.486.499-.486.277 0 .499.218.499.486Zm-4.669 1.517a.493.493 0 0 1-.5.486.493.493 0 0 1-.499-.486c0-.268.223-.486.499-.486.277.001.5.218.5.486Zm1.558 0a.493.493 0 0 1-.499.486.493.493 0 0 1-.499-.486c0-.268.223-.486.499-.486a.493.493 0 0 1 .499.486Zm4.67 0a.493.493 0 0 1-.499.486.493.493 0 0 1-.499-.486c0-.268.223-.486.499-.486a.493.493 0 0 1 .499.486Zm1.559 0a.493.493 0 0 1-.499.486.493.493 0 0 1-.499-.486c0-.268.222-.486.499-.486a.494.494 0 0 1 .499.486Zm1.554 0a.492.492 0 0 1-.499.486.493.493 0 0 1-.499-.486c0-.268.223-.486.499-.486a.494.494 0 0 1 .499.486Zm1.555 0a.493.493 0 0 1-.499.486.493.493 0 0 1-.499-.486c0-.268.223-.486.499-.486a.493.493 0 0 1 .499.486Zm1.559 0a.493.493 0 0 1-.499.486.493.493 0 0 1-.5-.486c0-.268.223-.486.5-.486a.493.493 0 0 1 .499.486Zm3.115 0a.493.493 0 0 1-.499.486.493.493 0 0 1-.499-.486c0-.268.222-.486.499-.486a.494.494 0 0 1 .499.486Zm-1.557 0a.493.493 0 0 1-.499.486.493.493 0 0 1-.499-.486c0-.268.223-.486.499-.486a.494.494 0 0 1 .499.486Zm3.117 0a.492.492 0 0 1-.499.486.493.493 0 0 1-.499-.486c0-.268.223-.486.499-.486a.493.493 0 0 1 .499.486Zm1.555 0a.493.493 0 0 1-.499.486.493.493 0 0 1-.499-.486c0-.268.223-.486.499-.486a.493.493 0 0 1 .499.486Zm1.557 0a.493.493 0 0 1-.499.486.493.493 0 0 1-.499-.486c0-.268.222-.486.499-.486a.494.494 0 0 1 .499.486Zm1.243-.124c0 .268.091.61-.186.61a.493.493 0 0 1-.499-.486c0-.268.223-.486.499-.486.277.001.186.094.186.362Zm-24.601 1.643a.492.492 0 0 1-.499.486.493.493 0 0 1-.499-.486c0-.268.223-.487.499-.487.275 0 .499.218.499.487Zm1.557 0a.493.493 0 0 1-.499.486.493.493 0 0 1-.499-.486c0-.268.223-.487.499-.487.275 0 .499.218.499.487Zm1.559 0a.493.493 0 0 1-.5.486.493.493 0 0 1-.499-.486c0-.268.223-.487.499-.487.277 0 .5.218.5.487Zm1.558 0a.493.493 0 0 1-.499.486.493.493 0 0 1-.499-.486c0-.268.223-.487.499-.487s.499.218.499.487Zm1.555 0a.493.493 0 0 1-.499.486.493.493 0 0 1-.499-.486c0-.268.222-.487.499-.487.275 0 .499.218.499.487Zm4.674 0a.493.493 0 0 1-.499.486.493.493 0 0 1-.499-.486c0-.268.222-.487.499-.487.275 0 .499.218.499.487Zm1.554 0a.492.492 0 0 1-.499.486.493.493 0 0 1-.499-.486c0-.268.223-.487.499-.487.275 0 .499.218.499.487Zm-4.672 0a.492.492 0 0 1-.499.486.493.493 0 0 1-.499-.486c0-.268.223-.487.499-.487.277 0 .499.218.499.487Zm1.559 0a.493.493 0 0 1-.499.486.493.493 0 0 1-.499-.486c0-.268.223-.487.499-.487s.499.218.499.487Zm6.227 0a.493.493 0 0 1-.499.486.493.493 0 0 1-.5-.486c0-.268.223-.487.5-.487.276 0 .499.218.499.487Zm-1.559 0a.493.493 0 0 1-.499.486.493.493 0 0 1-.499-.486c0-.268.223-.487.499-.487s.499.218.499.487Zm3.117 0a.493.493 0 0 1-.499.486.493.493 0 0 1-.499-.486c0-.268.223-.487.499-.487.275 0 .499.218.499.487Zm1.557 0a.493.493 0 0 1-.499.486.493.493 0 0 1-.499-.486c0-.268.222-.487.499-.487.275 0 .499.218.499.487Zm1.56 0a.492.492 0 0 1-.499.486.493.493 0 0 1-.499-.486c0-.268.223-.487.499-.487.277 0 .499.218.499.487Zm1.555 0a.493.493 0 0 1-.499.486.493.493 0 0 1-.499-.486c0-.268.223-.487.499-.487s.499.218.499.487Zm1.557 0a.493.493 0 0 1-.499.486.493.493 0 0 1-.499-.486c0-.268.222-.487.499-.487.275 0 .499.218.499.487Zm-21.801 1.516a.493.493 0 0 1-.499.487.493.493 0 0 1-.499-.487c0-.268.223-.486.499-.486.275 0 .499.218.499.486Zm3.117 0a.493.493 0 0 1-.499.487.493.493 0 0 1-.499-.487c0-.268.223-.486.499-.486s.499.218.499.486Zm-1.558 0a.494.494 0 0 1-.5.487.493.493 0 0 1-.499-.487c0-.268.223-.486.499-.486.277 0 .5.218.5.486Zm3.113 0a.493.493 0 0 1-.499.487.493.493 0 0 1-.499-.487c0-.268.222-.486.499-.486.275 0 .499.218.499.486Zm1.556 0a.493.493 0 0 1-.499.487.493.493 0 0 1-.499-.487c0-.268.223-.486.499-.486.277 0 .499.218.499.486Zm1.559 0a.493.493 0 0 1-.499.487.493.493 0 0 1-.499-.487c0-.268.223-.486.499-.486s.499.218.499.486Zm1.559 0a.493.493 0 0 1-.499.487.493.493 0 0 1-.499-.487c0-.268.222-.486.499-.486.275 0 .499.218.499.486Zm1.554 0a.493.493 0 0 1-.499.487.493.493 0 0 1-.499-.487c0-.268.223-.486.499-.486.275 0 .499.218.499.486Zm1.555 0a.493.493 0 0 1-.499.487.493.493 0 0 1-.499-.487c0-.268.223-.486.499-.486s.499.218.499.486Zm1.559 0a.493.493 0 0 1-.499.487.493.493 0 0 1-.5-.487c0-.268.223-.486.5-.486.276 0 .499.218.499.486Zm1.558 0a.493.493 0 0 1-.499.487.493.493 0 0 1-.499-.487c0-.268.223-.486.499-.486.275 0 .499.218.499.486Zm1.557 0a.493.493 0 0 1-.499.487.493.493 0 0 1-.499-.487c0-.268.222-.486.499-.486.275 0 .499.218.499.486Zm1.56 0a.493.493 0 0 1-.499.487.493.493 0 0 1-.499-.487c0-.268.223-.486.499-.486.277 0 .499.218.499.486Zm1.555 0a.493.493 0 0 1-.499.487.493.493 0 0 1-.499-.487c0-.268.223-.486.499-.486s.499.218.499.486Zm1.557 0a.493.493 0 0 1-.499.487.493.493 0 0 1-.499-.487c0-.268.222-.486.499-.486.275 0 .499.218.499.486Zm-23.358 1.518a.492.492 0 0 1-.499.486.493.493 0 0 1-.499-.486c0-.268.223-.487.499-.487.275 0 .499.219.499.487Zm1.557 0a.493.493 0 0 1-.499.486.493.493 0 0 1-.499-.486c0-.268.223-.487.499-.487.275 0 .499.219.499.487Zm1.559 0a.493.493 0 0 1-.5.486.493.493 0 0 1-.499-.486c0-.268.223-.487.499-.487.277 0 .5.219.5.487Zm3.113 0a.493.493 0 0 1-.499.486.493.493 0 0 1-.499-.486c0-.268.222-.487.499-.487.275 0 .499.219.499.487Zm-1.555 0a.493.493 0 0 1-.499.486.493.493 0 0 1-.499-.486c0-.268.223-.487.499-.487s.499.219.499.487Zm4.67 0a.493.493 0 0 1-.499.486.493.493 0 0 1-.499-.486c0-.268.223-.487.499-.487s.499.219.499.487Zm3.113 0a.492.492 0 0 1-.499.486.493.493 0 0 1-.499-.486c0-.268.223-.487.499-.487.275 0 .499.219.499.487Zm1.555 0a.493.493 0 0 1-.499.486.493.493 0 0 1-.499-.486c0-.268.223-.487.499-.487s.499.219.499.487Zm1.559 0a.493.493 0 0 1-.499.486.493.493 0 0 1-.5-.486c0-.268.223-.487.5-.487.276 0 .499.219.499.487Zm-7.786 0a.492.492 0 0 1-.499.486.493.493 0 0 1-.499-.486c0-.268.223-.487.499-.487.277 0 .499.219.499.487Zm3.118 0a.493.493 0 0 1-.499.486.493.493 0 0 1-.499-.486c0-.268.222-.487.499-.487.275 0 .499.219.499.487Zm6.226 0a.493.493 0 0 1-.499.486.493.493 0 0 1-.499-.486c0-.268.223-.487.499-.487.275 0 .499.219.499.487Zm1.557 0a.493.493 0 0 1-.499.486.493.493 0 0 1-.499-.486c0-.268.222-.487.499-.487.275 0 .499.219.499.487Zm1.56 0a.492.492 0 0 1-.499.486.493.493 0 0 1-.499-.486c0-.268.223-.487.499-.487.277 0 .499.219.499.487Zm1.555 0a.493.493 0 0 1-.499.486.493.493 0 0 1-.499-.486c0-.268.223-.487.499-.487s.499.219.499.487Zm-20.244 1.517a.493.493 0 0 1-.499.486.493.493 0 0 1-.499-.486c0-.268.223-.487.499-.487a.495.495 0 0 1 .499.487Zm-1.557-3.035a.493.493 0 0 1-.499.487.493.493 0 0 1-.499-.487c0-.268.223-.486.499-.486.275 0 .499.218.499.486Zm0 3.035a.492.492 0 0 1-.499.486.493.493 0 0 1-.499-.486c0-.268.223-.487.499-.487a.495.495 0 0 1 .499.487Zm3.116 0a.493.493 0 0 1-.5.486.493.493 0 0 1-.499-.486c0-.268.223-.487.499-.487.277.001.5.219.5.487Zm1.558 0a.493.493 0 0 1-.499.486.493.493 0 0 1-.499-.486c0-.268.223-.487.499-.487a.494.494 0 0 1 .499.487Zm3.111 0a.492.492 0 0 1-.499.486.493.493 0 0 1-.499-.486c0-.268.223-.487.499-.487a.493.493 0 0 1 .499.487Zm1.559 0a.493.493 0 0 1-.499.486.493.493 0 0 1-.499-.486c0-.268.223-.487.499-.487a.495.495 0 0 1 .499.487Zm1.559 0a.493.493 0 0 1-.499.486.493.493 0 0 1-.499-.486c0-.268.222-.487.499-.487a.494.494 0 0 1 .499.487Zm1.554 0a.492.492 0 0 1-.499.486.493.493 0 0 1-.499-.486c0-.268.223-.487.499-.487a.495.495 0 0 1 .499.487Zm3.114 0a.493.493 0 0 1-.499.486.493.493 0 0 1-.5-.486c0-.268.223-.487.5-.487a.494.494 0 0 1 .499.487Zm3.115 0a.493.493 0 0 1-.499.486.493.493 0 0 1-.499-.486c0-.268.222-.487.499-.487a.495.495 0 0 1 .499.487Zm-4.674 0a.493.493 0 0 1-.499.486.493.493 0 0 1-.499-.486c0-.268.223-.487.499-.487a.494.494 0 0 1 .499.487Zm3.117 0a.493.493 0 0 1-.499.486.493.493 0 0 1-.499-.486c0-.268.223-.487.499-.487a.495.495 0 0 1 .499.487Zm3.117 0a.492.492 0 0 1-.499.486.493.493 0 0 1-.499-.486c0-.268.223-.487.499-.487a.493.493 0 0 1 .499.487Zm1.494-.07c0 .268-.162.556-.438.556a.493.493 0 0 1-.499-.486c0-.268.223-.487.499-.487.276.001.438.149.438.417Zm-21.74 1.588a.492.492 0 0 1-.499.486.493.493 0 0 1-.499-.486c0-.268.223-.486.499-.486.275 0 .499.217.499.486Zm1.557 0a.493.493 0 0 1-.499.486.493.493 0 0 1-.499-.486c0-.268.223-.486.499-.486.275 0 .499.217.499.486Zm1.559 0a.493.493 0 0 1-.5.486.493.493 0 0 1-.499-.486c0-.268.223-.486.499-.486.277 0 .5.217.5.486Zm1.558 0a.493.493 0 0 1-.499.486.493.493 0 0 1-.499-.486c0-.268.223-.486.499-.486s.499.217.499.486Zm1.555 0a.493.493 0 0 1-.499.486.493.493 0 0 1-.499-.486c0-.268.222-.486.499-.486.275 0 .499.217.499.486Zm1.556 0a.492.492 0 0 1-.499.486.493.493 0 0 1-.499-.486c0-.268.223-.486.499-.486.277 0 .499.217.499.486Zm1.559 0a.493.493 0 0 1-.499.486.493.493 0 0 1-.499-.486c0-.268.223-.486.499-.486s.499.217.499.486Zm1.559 0a.493.493 0 0 1-.499.486.493.493 0 0 1-.499-.486c0-.268.222-.486.499-.486.276 0 .499.217.499.486Zm1.554 0a.492.492 0 0 1-.499.486.493.493 0 0 1-.499-.486c0-.268.223-.486.499-.486.275 0 .499.217.499.486Zm1.555 0a.493.493 0 0 1-.499.486.493.493 0 0 1-.499-.486c0-.268.223-.486.499-.486s.499.217.499.486Zm1.559 0a.493.493 0 0 1-.499.486.493.493 0 0 1-.5-.486c0-.268.223-.486.5-.486.276 0 .499.217.499.486Zm1.558 0a.493.493 0 0 1-.499.486.493.493 0 0 1-.499-.486c0-.268.223-.486.499-.486.275 0 .499.217.499.486Zm1.557 0a.493.493 0 0 1-.499.486.493.493 0 0 1-.499-.486c0-.268.222-.486.499-.486.275 0 .499.217.499.486Zm1.56 0a.492.492 0 0 1-.499.486.493.493 0 0 1-.499-.486c0-.268.223-.486.499-.486.277 0 .499.217.499.486Zm-20.246 1.517a.492.492 0 0 1-.499.486.493.493 0 0 1-.499-.486c0-.268.223-.487.499-.487.275 0 .499.219.499.487Zm3.116 0a.493.493 0 0 1-.5.486.493.493 0 0 1-.499-.486c0-.268.223-.487.499-.487.277 0 .5.219.5.487Zm1.558 0a.493.493 0 0 1-.499.486.493.493 0 0 1-.499-.486c0-.268.223-.487.499-.487s.499.219.499.487Zm1.555 0a.493.493 0 0 1-.499.486.493.493 0 0 1-.499-.486c0-.268.222-.487.499-.487.275 0 .499.219.499.487Zm1.556 0a.492.492 0 0 1-.499.486.493.493 0 0 1-.499-.486c0-.268.223-.487.499-.487.277 0 .499.219.499.487Zm3.118 0a.493.493 0 0 1-.499.486.493.493 0 0 1-.499-.486c0-.268.222-.487.499-.487.276 0 .499.219.499.487Zm3.109 0a.493.493 0 0 1-.499.486.493.493 0 0 1-.499-.486c0-.268.223-.487.499-.487s.499.219.499.487Zm-4.668 0a.493.493 0 0 1-.499.486.493.493 0 0 1-.499-.486c0-.268.223-.487.499-.487s.499.219.499.487Zm3.113 0a.492.492 0 0 1-.499.486.493.493 0 0 1-.499-.486c0-.268.223-.487.499-.487.275 0 .499.219.499.487Zm3.114 0a.493.493 0 0 1-.499.486.493.493 0 0 1-.5-.486c0-.268.223-.487.5-.487.276 0 .499.219.499.487Zm1.558 0a.493.493 0 0 1-.499.486.493.493 0 0 1-.499-.486c0-.268.223-.487.499-.487.275 0 .499.219.499.487Zm1.557 0a.493.493 0 0 1-.499.486.493.493 0 0 1-.499-.486c0-.268.222-.487.499-.487.275 0 .499.219.499.487Zm-18.686 1.517a.492.492 0 0 1-.499.486.493.493 0 0 1-.499-.486c0-.268.223-.486.499-.486a.494.494 0 0 1 .499.486Zm3.116 0a.493.493 0 0 1-.5.486.493.493 0 0 1-.499-.486c0-.268.223-.487.499-.487.277.002.5.219.5.487Zm-1.559-1.517a.493.493 0 0 1-.499.486.493.493 0 0 1-.499-.486c0-.268.223-.487.499-.487.275 0 .499.219.499.487Zm0 1.517a.493.493 0 0 1-.499.486.493.493 0 0 1-.499-.486c0-.268.223-.487.499-.487a.495.495 0 0 1 .499.487Zm3.117 0a.493.493 0 0 1-.499.486.493.493 0 0 1-.499-.486c0-.268.223-.487.499-.487a.495.495 0 0 1 .499.487Zm3.111 0a.492.492 0 0 1-.499.486.493.493 0 0 1-.499-.486c0-.268.223-.487.499-.487a.494.494 0 0 1 .499.487Zm-1.556-4.552a.493.493 0 0 1-.499.486.493.493 0 0 1-.499-.486c0-.268.222-.487.499-.487a.495.495 0 0 1 .499.487Zm0 4.552a.493.493 0 0 1-.499.486.493.493 0 0 1-.499-.486c0-.268.222-.487.499-.487a.495.495 0 0 1 .499.487Zm3.115 0a.493.493 0 0 1-.499.486.493.493 0 0 1-.499-.486c0-.268.223-.486.499-.486a.493.493 0 0 1 .499.486Zm1.559 0a.493.493 0 0 1-.499.486.493.493 0 0 1-.499-.486c0-.268.222-.487.499-.487a.495.495 0 0 1 .499.487Zm1.554 0a.492.492 0 0 1-.499.486.493.493 0 0 1-.499-.486c0-.268.223-.487.499-.487a.495.495 0 0 1 .499.487Zm1.555 0a.493.493 0 0 1-.499.486.493.493 0 0 1-.499-.486c0-.268.223-.487.499-.487a.495.495 0 0 1 .499.487Zm3.117 0a.493.493 0 0 1-.499.486.493.493 0 0 1-.499-.486c0-.268.223-.487.499-.487a.495.495 0 0 1 .499.487Zm-1.558 0a.493.493 0 0 1-.499.486.493.493 0 0 1-.5-.486c0-.268.223-.487.5-.487a.495.495 0 0 1 .499.487Zm3.115 0a.493.493 0 0 1-.499.486.493.493 0 0 1-.499-.486c0-.268.222-.487.499-.487a.495.495 0 0 1 .499.487Zm-18.686 1.518a.492.492 0 0 1-.499.486.493.493 0 0 1-.499-.486c0-.268.223-.486.499-.486.275 0 .499.217.499.486Zm1.557 0a.493.493 0 0 1-.499.486.493.493 0 0 1-.499-.486c0-.268.223-.486.499-.486.275 0 .499.217.499.486Zm1.559 0a.493.493 0 0 1-.5.486.493.493 0 0 1-.499-.486c0-.268.223-.486.499-.486.277 0 .5.217.5.486Zm1.558 0a.493.493 0 0 1-.499.486.493.493 0 0 1-.499-.486c0-.268.223-.486.499-.486s.499.217.499.486Zm1.555 0a.493.493 0 0 1-.499.486.493.493 0 0 1-.499-.486c0-.268.222-.486.499-.486.275 0 .499.217.499.486Zm4.674 0a.493.493 0 0 1-.499.486.493.493 0 0 1-.499-.486c0-.268.222-.486.499-.486.276 0 .499.217.499.486Zm3.109 0a.493.493 0 0 1-.499.486.493.493 0 0 1-.499-.486c0-.268.223-.486.499-.486s.499.217.499.486Zm1.559 0a.493.493 0 0 1-.499.486.493.493 0 0 1-.5-.486c0-.268.223-.486.5-.486.276 0 .499.217.499.486Zm1.558 0a.493.493 0 0 1-.499.486.493.493 0 0 1-.499-.486c0-.268.223-.486.499-.486.275 0 .499.217.499.486Zm-17.129 1.517a.492.492 0 0 1-.499.486.493.493 0 0 1-.499-.486c0-.268.223-.486.499-.486.275 0 .499.218.499.486Zm1.557 0a.493.493 0 0 1-.499.486.493.493 0 0 1-.499-.486c0-.268.223-.486.499-.486.275 0 .499.218.499.486Zm3.117 0a.493.493 0 0 1-.499.486.493.493 0 0 1-.499-.486c0-.268.223-.486.499-.486s.499.218.499.486Zm-1.558 0a.493.493 0 0 1-.5.486.493.493 0 0 1-.499-.486c0-.268.223-.486.499-.486.277 0 .5.218.5.486Zm3.113 0a.493.493 0 0 1-.499.486.493.493 0 0 1-.499-.486c0-.268.222-.486.499-.486.275 0 .499.218.499.486Zm1.556 0a.492.492 0 0 1-.499.486.493.493 0 0 1-.499-.486c0-.268.223-.486.499-.486.277 0 .499.218.499.486Zm3.118 0a.493.493 0 0 1-.499.486.493.493 0 0 1-.499-.486c0-.268.222-.486.499-.486.276 0 .499.218.499.486Zm1.554 0a.492.492 0 0 1-.499.486.493.493 0 0 1-.499-.486c0-.268.223-.486.499-.486.275 0 .499.218.499.486Zm1.555 0a.493.493 0 0 1-.499.486.493.493 0 0 1-.499-.486c0-.268.223-.486.499-.486s.499.218.499.486Zm1.559 0a.493.493 0 0 1-.499.486.493.493 0 0 1-.5-.486c0-.268.223-.486.5-.486.276 0 .499.218.499.486Zm-15.571 1.517a.492.492 0 0 1-.499.486.493.493 0 0 1-.499-.486c0-.268.223-.487.499-.487.275 0 .499.219.499.487Zm1.557 0a.493.493 0 0 1-.499.486.493.493 0 0 1-.499-.486c0-.268.223-.487.499-.487.275 0 .499.219.499.487Zm1.559 0a.493.493 0 0 1-.5.486.493.493 0 0 1-.499-.486c0-.268.223-.487.499-.487.277 0 .5.219.5.487Zm1.558 0a.493.493 0 0 1-.499.486.493.493 0 0 1-.499-.486c0-.268.223-.487.499-.487s.499.219.499.487Zm1.555 0a.493.493 0 0 1-.499.486.493.493 0 0 1-.499-.486c0-.268.222-.487.499-.487.275 0 .499.219.499.487Zm1.556 0a.492.492 0 0 1-.499.486.493.493 0 0 1-.499-.486c0-.268.223-.487.499-.487.277 0 .499.219.499.487Zm3.118 0a.493.493 0 0 1-.499.486.493.493 0 0 1-.499-.486c0-.268.222-.487.499-.487.276 0 .499.219.499.487Zm-1.559-3.034a.493.493 0 0 1-.499.486.493.493 0 0 1-.499-.486c0-.268.223-.486.499-.486s.499.217.499.486Zm-1.559 0a.492.492 0 0 1-.499.486.493.493 0 0 1-.499-.486c0-.268.223-.486.499-.486.277 0 .499.217.499.486Zm1.559 1.517a.493.493 0 0 1-.499.486.493.493 0 0 1-.499-.486c0-.268.223-.486.499-.486s.499.218.499.486Zm0 1.517a.493.493 0 0 1-.499.486.493.493 0 0 1-.499-.486c0-.268.223-.487.499-.487s.499.219.499.487Zm4.668 0a.493.493 0 0 1-.499.486.493.493 0 0 1-.499-.486c0-.268.223-.487.499-.487s.499.219.499.487Zm-1.555-3.034a.492.492 0 0 1-.499.486.493.493 0 0 1-.499-.486c0-.268.223-.486.499-.486.275 0 .499.217.499.486Zm0 3.034a.492.492 0 0 1-.499.486.493.493 0 0 1-.499-.486c0-.268.223-.487.499-.487.275 0 .499.219.499.487Zm-10.9 1.517a.493.493 0 0 1-.499.486.493.493 0 0 1-.499-.486c0-.268.223-.486.499-.486a.494.494 0 0 1 .499.486Zm1.559 0a.493.493 0 0 1-.5.486.493.493 0 0 1-.499-.486c0-.268.223-.486.499-.486.277.001.5.218.5.486Zm1.558 0a.493.493 0 0 1-.499.486.493.493 0 0 1-.499-.486c0-.268.223-.486.499-.486a.493.493 0 0 1 .499.486Zm1.555 0a.493.493 0 0 1-.499.486.493.493 0 0 1-.499-.486c0-.268.222-.486.499-.486a.494.494 0 0 1 .499.486Zm3.115 0a.493.493 0 0 1-.499.486.493.493 0 0 1-.499-.486c0-.268.223-.486.499-.486a.493.493 0 0 1 .499.486Zm-1.559 0a.492.492 0 0 1-.499.486.493.493 0 0 1-.499-.486c0-.268.223-.486.499-.486a.493.493 0 0 1 .499.486Zm3.118 0a.493.493 0 0 1-.499.486.493.493 0 0 1-.499-.486c0-.268.222-.486.499-.486a.493.493 0 0 1 .499.486Zm1.554 0a.492.492 0 0 1-.499.486.493.493 0 0 1-.499-.486c0-.268.223-.486.499-.486a.494.494 0 0 1 .499.486Zm-12.457 1.518a.492.492 0 0 1-.499.486.493.493 0 0 1-.499-.486c0-.268.223-.486.499-.486.275 0 .499.217.499.486Zm3.116 0a.493.493 0 0 1-.5.486.493.493 0 0 1-.499-.486c0-.268.223-.486.499-.486.277 0 .5.217.5.486Zm-1.559 0a.493.493 0 0 1-.499.486.493.493 0 0 1-.499-.486c0-.268.223-.486.499-.486.275 0 .499.217.499.486Zm6.228 0a.492.492 0 0 1-.499.486.493.493 0 0 1-.499-.486c0-.268.223-.486.499-.486.277 0 .499.217.499.486Zm1.559 0a.493.493 0 0 1-.499.486.493.493 0 0 1-.499-.486c0-.268.223-.486.499-.486s.499.217.499.486Zm1.559 0a.493.493 0 0 1-.499.486.493.493 0 0 1-.499-.486c0-.268.222-.486.499-.486.276 0 .499.217.499.486Zm-10.903 1.517a.493.493 0 0 1-.499.487.493.493 0 0 1-.499-.487c0-.268.223-.486.499-.486.275 0 .499.218.499.486Zm1.557 0a.493.493 0 0 1-.499.487.493.493 0 0 1-.499-.487c0-.268.223-.486.499-.486.275 0 .499.218.499.486Zm6.228 0a.493.493 0 0 1-.499.487.493.493 0 0 1-.499-.487c0-.268.223-.486.499-.486.277 0 .499.218.499.486Zm-1.556-1.517a.493.493 0 0 1-.499.486.493.493 0 0 1-.499-.486c0-.268.222-.486.499-.486.275 0 .499.217.499.486Zm0 1.517a.493.493 0 0 1-.499.487.493.493 0 0 1-.499-.487c0-.268.222-.486.499-.486.275 0 .499.218.499.486Zm-1.555-1.517a.493.493 0 0 1-.499.486.493.493 0 0 1-.499-.486c0-.268.223-.486.499-.486s.499.217.499.486Zm0 1.517a.493.493 0 0 1-.499.487.493.493 0 0 1-.499-.487c0-.268.223-.486.499-.486s.499.218.499.486Zm-4.674 1.517a.492.492 0 0 1-.499.486.493.493 0 0 1-.499-.486c0-.268.223-.486.499-.486a.494.494 0 0 1 .499.486Zm1.557 0a.493.493 0 0 1-.499.486.493.493 0 0 1-.499-.486c0-.268.223-.486.499-.486a.494.494 0 0 1 .499.486Zm3.117 0a.493.493 0 0 1-.499.486.493.493 0 0 1-.499-.486c0-.268.223-.486.499-.486a.493.493 0 0 1 .499.486Zm-1.558-1.517a.494.494 0 0 1-.5.487.493.493 0 0 1-.499-.487c0-.268.223-.486.499-.486.277 0 .5.218.5.486Zm0 1.517a.493.493 0 0 1-.5.486.493.493 0 0 1-.499-.486c0-.268.223-.486.499-.486.277.001.5.218.5.486Zm3.113 0a.493.493 0 0 1-.499.486.493.493 0 0 1-.499-.486c0-.268.222-.486.499-.486a.494.494 0 0 1 .499.486Zm3.128-1.661c0 .268-.594.546-.871.546-.275 0-.141-.133-.141-.402 0-.268.223-.486.5-.486.276 0 .512.074.512.342Zm-7.8 3.179c0 .268-.201.034-.477.034-.275 0-.249-.034-.521-.034 0-.268.223-.486.499-.486.275 0 .499.217.499.486Zm1.559 0c0 .268-.223.216-.5.216-.275 0-.499.054-.499-.216 0-.268.223-.486.499-.486.277 0 .5.217.5.486Zm-3.116-6.07a.492.492 0 0 1-.499.486.493.493 0 0 1-.499-.486c0-.268.223-.486.499-.486a.494.494 0 0 1 .499.486Z" fill="#3136BD"/><path d="M477.393 193.046c28.797 0 52.141-22.61 52.141-50.502 0-27.891-23.344-50.501-52.141-50.501-28.797 0-52.141 22.61-52.141 50.501 0 27.892 23.344 50.502 52.141 50.502Z" stroke="url(#m)" stroke-width="1.061" stroke-miterlimit="10"/></g></g><defs><linearGradient id="b" x1="-172.24" y1="434.732" x2="896.063" y2="-42.883" gradientUnits="userSpaceOnUse"><stop offset=".325" stop-color="#F8F8FE"/><stop offset="1" stop-color="#494FE1" stop-opacity=".93"/></linearGradient><linearGradient id="f" x1="421.763" y1="97.672" x2="522.73" y2="184.576" gradientUnits="userSpaceOnUse"><stop offset="0" stop-color="#3D4FC7"/><stop offset=".254" stop-color="#3D4FC7" stop-opacity=".72"/><stop offset=".391" stop-color="#3D4FC7" stop-opacity=".64"/><stop offset=".501" stop-color="#3D4FC7" stop-opacity=".48"/><stop offset=".595" stop-color="#3D4FC7" stop-opacity=".4"/><stop offset=".68" stop-color="#3D4FC7" stop-opacity=".32"/><stop offset=".759" stop-color="#3D4FC7" stop-opacity=".24"/><stop offset=".832" stop-color="#6266C6" stop-opacity=".16"/><stop offset=".901" stop-color="#6266C6" stop-opacity=".1"/><stop offset=".965" stop-color="#6266C6" stop-opacity=".03"/><stop offset="1" stop-opacity="0"/><stop offset="1" stop-color="#EFF0F8"/></linearGradient><linearGradient id="g" x1="535.022" y1="184.813" x2="435.411" y2="96.359" gradientUnits="userSpaceOnUse"><stop offset="0" stop-color="#3D4FC7"/><stop offset=".254" stop-color="#3D4FC7" stop-opacity=".72"/><stop offset=".391" stop-color="#3D4FC7" stop-opacity=".6"/><stop offset=".501" stop-color="#3D4FC7" stop-opacity=".5"/><stop offset=".595" stop-color="#3D4FC7" stop-opacity=".4"/><stop offset=".68" stop-color="#3D4FC7" stop-opacity=".32"/><stop offset=".759" stop-color="#3D4FC7" stop-opacity=".24"/><stop offset=".832" stop-color="#3D4FC7" stop-opacity=".16"/><stop offset=".901" stop-color="#3D4FC7" stop-opacity=".08"/><stop offset=".94" stop-color="#6266C6" stop-opacity=".04"/><stop offset=".965" stop-color="#3D4FC7" stop-opacity=".04"/><stop offset="1" stop-color="#3D4FC7" stop-opacity=".02"/></linearGradient><linearGradient id="h" x1="535.022" y1="184.813" x2="435.411" y2="96.359" gradientUnits="userSpaceOnUse"><stop offset="0" stop-color="#3D4FC7"/><stop offset=".254" stop-color="#3D4FC7" stop-opacity=".72"/><stop offset=".391" stop-color="#3D4FC7" stop-opacity=".64"/><stop offset=".501" stop-color="#3D4FC7" stop-opacity=".64"/><stop offset=".595" stop-color="#3D4FC7" stop-opacity=".4"/><stop offset=".68" stop-color="#3D4FC7" stop-opacity=".32"/><stop offset=".759" stop-color="#3D4FC7" stop-opacity=".24"/><stop offset=".832" stop-color="#3D4FC7" stop-opacity=".16"/><stop offset=".901" stop-color="#3D4FC7" stop-opacity=".08"/><stop offset=".965" stop-color="#3D4FC7" stop-opacity=".04"/><stop offset="1" stop-color="#3D4FC7" stop-opacity="0"/></linearGradient><linearGradient id="i" x1="504.428" y1="220.378" x2="403.76" y2="133.128" gradientUnits="userSpaceOnUse"><stop offset="0" stop-color="#3D4FC7"/><stop offset=".254" stop-color="#3D4FC7" stop-opacity=".72"/><stop offset=".391" stop-color="#3D4FC7" stop-opacity=".6"/><stop offset=".501" stop-color="#3D4FC7" stop-opacity=".48"/><stop offset=".595" stop-color="#3D4FC7" stop-opacity=".4"/><stop offset=".68" stop-color="#3D4FC7" stop-opacity=".4"/><stop offset=".759" stop-color="#3D4FC7" stop-opacity=".24"/><stop offset=".832" stop-color="#3D4FC7" stop-opacity=".16"/><stop offset=".901" stop-color="#3D4FC7" stop-opacity=".08"/><stop offset=".965" stop-color="#3D4FC7" stop-opacity=".04"/><stop offset="1" stop-color="#3D4FC7" stop-opacity="0"/></linearGradient><linearGradient id="j" x1="539.438" y1="178.52" x2="436.116" y2="94.43" gradientUnits="userSpaceOnUse"><stop offset="0" stop-color="#3D4FC7"/><stop offset=".122" stop-color="#3D4FC7" stop-opacity=".8"/><stop offset=".254" stop-color="#3D4FC7" stop-opacity=".72"/><stop offset=".391" stop-color="#3D4FC7" stop-opacity=".6"/><stop offset=".501" stop-color="#3D4FC7" stop-opacity=".48"/><stop offset=".595" stop-color="#3D4FC7" stop-opacity=".4"/><stop offset=".68" stop-color="#3D4FC7" stop-opacity=".32"/><stop offset=".759" stop-color="#3D4FC7" stop-opacity=".24"/><stop offset=".832" stop-color="#3D4FC7" stop-opacity=".16"/><stop offset=".865" stop-color="#4E54D1" stop-opacity=".122"/><stop offset=".901" stop-color="#3D4FC7" stop-opacity=".08"/><stop offset=".965" stop-color="#3D4FC7" stop-opacity=".04"/><stop offset="1" stop-opacity="0"/><stop offset="1" stop-color="#6266C6" stop-opacity="0"/><stop offset="1" stop-color="#3D4FC7" stop-opacity="0"/></linearGradient><linearGradient id="k" x1="506.704" y1="141.432" x2="447.838" y2="141.432" gradientUnits="userSpaceOnUse"><stop offset=".443" stop-color="#fff"/><stop offset=".589" stop-color="#A1A1A1"/><stop offset=".732" stop-color="#4A4A4A"/><stop offset=".832" stop-color="#151515"/><stop offset=".88"/></linearGradient><linearGradient id="m" x1="437.39" y1="110.05" x2="515.274" y2="177.489" gradientUnits="userSpaceOnUse"><stop stop-color="#57C3F9" stop-opacity=".2"/><stop offset=".489" stop-color="#57C3F9"/><stop offset=".761" stop-color="#57C3F9"/><stop offset="1" stop-color="#57C3F9" stop-opacity=".5"/></linearGradient><filter id="c" x="292.783" y="-43.05" width="369.877" height="369.876" filterUnits="userSpaceOnUse" color-interpolation-filters="sRGB"><feFlood flood-opacity="0" result="BackgroundImageFix"/><feColorMatrix in="SourceAlpha" values="0 0 0 0 0 0 0 0 0 0 0 0 0 0 0 0 0 0 127 0" result="hardAlpha"/><feOffset/><feGaussianBlur stdDeviation="40"/><feComposite in2="hardAlpha" operator="out"/><feColorMatrix values="0 0 0 0 0.777767 0 0 0 0 0.797986 0 0 0 0 0.865384 0 0 0 0.4 0"/><feBlend in2="BackgroundImageFix" result="effect1_dropShadow_3059_174694"/><feBlend in="SourceGraphic" in2="effect1_dropShadow_3059_174694" result="shape"/></filter><filter id="d" x="298.863" y="13.324" width="391.363" height="343.04" filterUnits="userSpaceOnUse" color-interpolation-filters="sRGB"><feFlood flood-opacity="0" result="BackgroundImageFix"/><feColorMatrix in="SourceAlpha" values="0 0 0 0 0 0 0 0 0 0 0 0 0 0 0 0 0 0 127 0" result="hardAlpha"/><feOffset/><feGaussianBlur stdDeviation="40"/><feComposite in2="hardAlpha" operator="out"/><feColorMatrix values="0 0 0 0 0.777767 0 0 0 0 0.797986 0 0 0 0 0.865384 0 0 0 0.4 0"/><feBlend in2="BackgroundImageFix" result="effect1_dropShadow_3059_174694"/><feBlend in="SourceGraphic" in2="effect1_dropShadow_3059_174694" result="shape"/></filter><filter id="e" x="373.574" y="37.743" width="208.289" height="208.29" filterUnits="userSpaceOnUse" color-interpolation-filters="sRGB"><feFlood flood-opacity="0" result="BackgroundImageFix"/><feColorMatrix in="SourceAlpha" values="0 0 0 0 0 0 0 0 0 0 0 0 0 0 0 0 0 0 127 0" result="hardAlpha"/><feOffset/><feGaussianBlur stdDeviation="16"/><feComposite in2="hardAlpha" operator="out"/><feColorMatrix values="0 0 0 0 0.886275 0 0 0 0 0.894118 0 0 0 0 0.945098 0 0 0 0.6 0"/><feBlend in2="BackgroundImageFix" result="effect1_dropShadow_3059_174694"/><feBlend in="SourceGraphic" in2="effect1_dropShadow_3059_174694" result="shape"/></filter><clipPath id="a"><path fill="#fff" d="M0 0h744v361H0z"/></clipPath></defs></svg>