<svg width="1366" height="603" fill="none" xmlns="http://www.w3.org/2000/svg"><g clip-path="url(#a)"><path fill="#fff" d="M0 0h1366v603H0z"/><path d="M1510.89-46c-10.35 133.5-136.16 214.464-239.42 182.129-90.71-28.407-145.76-17.249-183.02 11.48-70.02 54.006-64.59 157.781-171.051 188.287-80.296 23.008-149.923-48.515-223.997-13.242-74.074 35.273-43.885 102.638-147.296 196.878-103.411 94.239-178.381-8.957-229.559 65.779" stroke="url(#b)"/><g filter="url(#c)"><circle cx="964.753" cy="278.617" r="180.343" fill="#fff"/></g><g filter="url(#d)"><path d="M794.859 429.791a225.432 225.432 0 0 0 290.791 46.206 225.404 225.404 0 0 0 96.41-123.985 225.403 225.403 0 0 0-7.96-156.856l-25.71 11.071a197.456 197.456 0 0 1 6.97 137.374 197.447 197.447 0 0 1-84.44 108.586 197.422 197.422 0 0 1-134.857 27.089 197.423 197.423 0 0 1-119.818-67.556l-21.386 18.071Z" fill="#E2E4F1"/></g><g filter="url(#e)"><circle cx="964.751" cy="278.617" r="123.986" fill="#fff"/></g><path opacity=".5" d="M1046.47 246.826c-4.49-10.572-11.15-20.258-19.45-28.348-8.3-8.09-18.24-14.578-29.094-18.954-10.844-4.393-22.586-6.638-34.326-6.642-11.74.004-23.479 2.251-34.325 6.642-10.85 4.376-20.791 10.864-29.094 18.954s-14.961 17.776-19.453 28.348c-4.508 10.566-6.814 22.007-6.816 33.446.002 11.439 2.31 22.878 6.816 33.445 4.492 10.572 11.15 20.259 19.453 28.349 8.303 8.09 18.244 14.577 29.094 18.954 10.843 4.393 22.585 6.637 34.325 6.641 11.74-.004 23.48-2.25 34.326-6.641 10.854-4.377 20.794-10.864 29.094-18.954s14.96-17.777 19.45-28.349c4.51-10.565 6.81-22.006 6.82-33.445-.01-11.439-2.31-22.88-6.82-33.446Zm-1.24 66.389c-4.42 10.412-10.98 19.954-19.16 27.921a88.7 88.7 0 0 1-28.655 18.671c-10.682 4.326-22.244 6.539-33.813 6.543-11.568-.004-23.131-2.217-33.812-6.543-10.685-4.308-20.479-10.699-28.657-18.671-8.179-7.969-14.739-17.509-19.16-27.921-4.44-10.407-6.711-21.673-6.716-32.945.005-11.273 2.276-22.539 6.716-32.946 4.421-10.412 10.981-19.954 19.16-27.923a88.753 88.753 0 0 1 28.657-18.669c10.681-4.326 22.244-6.539 33.812-6.543 11.569.004 23.131 2.217 33.813 6.543a88.744 88.744 0 0 1 28.655 18.669c8.18 7.971 14.74 17.511 19.16 27.923 4.44 10.407 6.71 21.673 6.72 32.946-.01 11.272-2.28 22.538-6.72 32.945Z" fill="url(#f)"/><path d="M901.487 213.266c14.017-12.41 32.078-20.365 50.99-22.484l.682 6.523c-17.5 1.987-34.205 9.357-47.17 20.837-13.184 11.565-22.455 26.979-26.213 43.53l-6.587-1.342c4.042-17.906 14.056-34.575 28.298-47.064Z" fill="url(#g)"/><path d="M873.187 260.33c4.044-17.906 14.056-34.575 28.3-47.064 14.017-12.41 32.078-20.365 50.99-22.484l.682 6.523c-17.5 1.987-34.205 9.357-47.17 20.837-13.184 11.565-22.455 26.979-26.213 43.53l-6.589-1.342Z" fill="url(#h)"/><path d="m871.417 281.611 6.727.004c.17 10.886 2.579 21.839 7.005 31.761 4.408 9.929 10.944 19.146 18.948 26.736l-4.613 4.774c-8.664-8.199-15.741-18.168-20.511-28.911-4.788-10.737-7.389-22.591-7.556-34.364Z" fill="url(#i)"/><path d="m1006.82 207.844 3.35-5.692c15.59 9.002 28.41 22.639 36.21 38.533 8.02 16.195 10.82 35.014 7.89 52.999-2.86 17.872-11.52 34.929-24.4 48.032-12.54 12.842-29.09 21.96-46.724 25.765l-1.357-6.419c16.306-3.544 31.611-11.985 43.211-23.865 11.94-12.148 19.98-27.963 22.63-44.531 2.71-16.688.11-34.143-7.32-49.141-7.21-14.707-19.07-27.331-33.49-35.681Z" fill="url(#j)"/><path d="M1010.84 243.456c0 79.901-47.226 91.392-47.226 91.392s-47.231-11.491-47.231-91.392c15.743-1.245 31.16-2.987 47.231-17.322 16.073 14.335 31.487 16.077 47.226 17.322Z" stroke="#3136BD" stroke-miterlimit="10"/><path d="M963.649 226.156c16.071 14.336 31.488 16.078 47.231 17.322 0 79.902-47.231 91.393-47.231 91.393s-47.231-11.491-47.231-91.393c15.744-1.244 31.16-2.986 47.231-17.322Zm0-3.99-2.04 1.819c-3.707 3.307-7.437 5.987-11.404 8.194a56.566 56.566 0 0 1-11.195 4.737c-7.472 2.274-15.065 3.013-22.835 3.626l-2.777.219v2.713c0 18.558 2.541 35.03 7.55 48.961 4.049 11.26 9.715 20.903 16.835 28.659 12.285 13.381 24.615 16.499 25.135 16.626l.731.177.732-.177c.52-.127 12.85-3.245 25.135-16.626 7.122-7.756 12.784-17.399 16.834-28.659 5.01-13.931 7.55-30.403 7.55-48.961v-2.713l-2.78-.219c-7.77-.613-15.359-1.352-22.832-3.626a56.582 56.582 0 0 1-11.194-4.737c-3.968-2.207-7.698-4.889-11.404-8.194l-2.041-1.819Z" stroke="#3136BD" stroke-miterlimit="10"/><mask id="l" style="mask-type:alpha" maskUnits="userSpaceOnUse" x="913" y="220" width="102" height="115"><path d="M913.398 220.834v113.998h101.162V220.834H913.398Z" fill="url(#k)"/></mask><g mask="url(#l)"><path d="M957.313 232.838c0 .46-.383.836-.858.836a.847.847 0 0 1-.857-.836c0-.461.383-.836.857-.836.475 0 .858.375.858.836ZM959.985 232.838c0 .46-.383.836-.858.836a.847.847 0 0 1-.857-.836c0-.461.382-.836.857-.836s.858.375.858.836ZM959.985 230.295a.847.847 0 0 1-.858.836.847.847 0 0 1-.857-.836c0-.46.382-.835.857-.835s.858.375.858.835ZM962.665 232.838c0 .46-.383.836-.858.836a.847.847 0 0 1-.858-.836c0-.461.383-.836.858-.836.473 0 .858.375.858.836ZM962.665 230.295a.847.847 0 0 1-.858.836.847.847 0 0 1-.858-.836c0-.46.383-.835.858-.835.473 0 .858.375.858.835ZM962.668 227.795c0 .46-.383.835-.858.835-.473 0-.4-.243-.4-.706 0-.46.568-.523.858-.835.473 0 .4.245.4.706ZM965.344 232.838c0 .46-.383.836-.857.836a.847.847 0 0 1-.858-.836c0-.461.383-.836.858-.836.472 0 .857.375.857.836ZM965.344 230.295a.847.847 0 0 1-.857.836.847.847 0 0 1-.858-.836c0-.46.383-.835.858-.835.472 0 .857.375.857.835ZM965.344 227.795c0 .46-.383.835-.857.835a.847.847 0 0 1-.858-.835c0-.461.383-.836.858-.836.472 0 .857.375.857.836ZM968.016 232.838c0 .46-.383.836-.858.836a.847.847 0 0 1-.857-.836c0-.461.383-.836.857-.836.475 0 .858.375.858.836ZM968.016 230.295a.847.847 0 0 1-.858.836.847.847 0 0 1-.857-.836c0-.46.383-.835.857-.835.475 0 .858.375.858.835ZM951.961 235.445a.846.846 0 0 1-.857.836.847.847 0 0 1-.858-.836c0-.461.383-.836.858-.836a.847.847 0 0 1 .857.836ZM954.637 235.445a.847.847 0 0 1-.857.836.847.847 0 0 1-.858-.836c0-.461.383-.836.858-.836a.85.85 0 0 1 .857.836ZM957.313 235.445a.847.847 0 0 1-.858.836.847.847 0 0 1-.857-.836c0-.461.383-.836.857-.836a.848.848 0 0 1 .858.836ZM959.985 235.445a.847.847 0 0 1-.858.836.847.847 0 0 1-.857-.836c0-.461.382-.836.857-.836a.848.848 0 0 1 .858.836ZM962.665 235.445a.847.847 0 0 1-.858.836.847.847 0 0 1-.858-.836c0-.461.383-.836.858-.836a.85.85 0 0 1 .858.836ZM965.344 235.445a.847.847 0 0 1-.857.836.847.847 0 0 1-.858-.836c0-.461.383-.836.858-.836a.85.85 0 0 1 .857.836ZM968.016 235.445a.847.847 0 0 1-.858.836.847.847 0 0 1-.857-.836c0-.461.383-.836.857-.836a.848.848 0 0 1 .858.836ZM946.606 238.054c0 .46-.383.836-.858.836a.847.847 0 0 1-.857-.836c0-.461.382-.836.857-.836.473 0 .858.373.858.836ZM949.282 238.054c0 .46-.383.836-.858.836a.847.847 0 0 1-.858-.836c0-.461.383-.836.858-.836s.858.373.858.836ZM951.961 238.054c0 .46-.382.836-.857.836a.847.847 0 0 1-.858-.836c0-.461.383-.836.858-.836s.857.373.857.836ZM954.637 238.054c0 .46-.383.836-.857.836a.847.847 0 0 1-.858-.836c0-.461.383-.836.858-.836.472 0 .857.373.857.836ZM957.313 238.054c0 .46-.383.836-.858.836a.847.847 0 0 1-.857-.836c0-.461.383-.836.857-.836.475 0 .858.373.858.836ZM959.985 238.054c0 .46-.383.836-.858.836a.847.847 0 0 1-.857-.836c0-.461.382-.836.857-.836s.858.373.858.836ZM962.665 238.054c0 .46-.383.836-.858.836a.847.847 0 0 1-.858-.836c0-.461.383-.836.858-.836.473 0 .858.373.858.836ZM965.344 238.054c0 .46-.383.836-.857.836a.847.847 0 0 1-.858-.836c0-.461.383-.836.858-.836.472 0 .857.373.857.836ZM968.016 238.054c0 .46-.383.836-.858.836a.847.847 0 0 1-.857-.836c0-.461.383-.836.857-.836.475 0 .858.373.858.836ZM938.579 240.661a.847.847 0 0 1-.858.836.847.847 0 0 1-.858-.836c0-.46.383-.835.858-.835s.858.375.858.835ZM941.254 240.661a.846.846 0 0 1-.857.836.847.847 0 0 1-.858-.836c0-.46.383-.835.858-.835s.857.375.857.835ZM943.934 240.661a.847.847 0 0 1-.858.836.847.847 0 0 1-.857-.836c0-.46.383-.835.857-.835.473 0 .858.375.858.835ZM946.606 240.661a.847.847 0 0 1-.858.836.847.847 0 0 1-.857-.836c0-.46.382-.835.857-.835.473 0 .858.375.858.835ZM949.282 240.661a.847.847 0 0 1-.858.836.847.847 0 0 1-.858-.836c0-.46.383-.835.858-.835s.858.375.858.835ZM951.961 240.661a.846.846 0 0 1-.857.836.847.847 0 0 1-.858-.836c0-.46.383-.835.858-.835s.857.375.857.835ZM954.637 240.661a.847.847 0 0 1-.857.836.847.847 0 0 1-.858-.836c0-.46.383-.835.858-.835.472 0 .857.375.857.835ZM957.313 240.661a.847.847 0 0 1-.858.836.847.847 0 0 1-.857-.836c0-.46.383-.835.857-.835.475 0 .858.375.858.835ZM959.985 240.661a.847.847 0 0 1-.858.836.847.847 0 0 1-.857-.836c0-.46.382-.835.857-.835s.858.375.858.835ZM962.665 240.661a.847.847 0 0 1-.858.836.847.847 0 0 1-.858-.836c0-.46.383-.835.858-.835.473 0 .858.375.858.835ZM965.344 240.661a.847.847 0 0 1-.857.836.847.847 0 0 1-.858-.836c0-.46.383-.835.858-.835.472 0 .857.375.857.835ZM968.016 240.661a.847.847 0 0 1-.858.836.847.847 0 0 1-.857-.836c0-.46.383-.835.857-.835.475 0 .858.375.858.835ZM919.844 243.268a.847.847 0 0 1-.857.836.847.847 0 0 1-.858-.836c0-.46.351-.367.826-.367s.889-.093.889.367ZM927.875 243.268a.846.846 0 0 1-.857.836.847.847 0 0 1-.858-.836c0-.461.383-.836.858-.836.472 0 .857.375.857.836ZM930.551 243.268a.847.847 0 0 1-.857.836.847.847 0 0 1-.858-.836c0-.461.383-.836.858-.836.474 0 .857.375.857.836ZM922.52 243.268a.847.847 0 0 1-.858.836.847.847 0 0 1-.857-.836c0-.46.383-.575.857-.575.475 0 .858.115.858.575ZM925.204 243.268a.847.847 0 0 1-.858.836.847.847 0 0 1-.858-.836c0-.461.383-.836.858-.836.473 0 .858.375.858.836ZM933.227 243.268a.847.847 0 0 1-.858.836.847.847 0 0 1-.857-.836c0-.461.383-.836.857-.836.475 0 .858.375.858.836ZM935.903 243.268a.847.847 0 0 1-.858.836.846.846 0 0 1-.857-.836c0-.461.382-.836.857-.836.473 0 .858.375.858.836ZM938.579 243.268a.847.847 0 0 1-.858.836.847.847 0 0 1-.858-.836c0-.461.383-.836.858-.836s.858.375.858.836ZM941.254 243.268a.846.846 0 0 1-.857.836.847.847 0 0 1-.858-.836c0-.461.383-.836.858-.836s.857.375.857.836ZM943.934 243.268a.847.847 0 0 1-.858.836.847.847 0 0 1-.857-.836c0-.461.383-.836.857-.836.473 0 .858.375.858.836ZM949.282 243.268a.847.847 0 0 1-.858.836.847.847 0 0 1-.858-.836c0-.461.383-.836.858-.836s.858.375.858.836ZM946.606 243.268a.847.847 0 0 1-.858.836.847.847 0 0 1-.857-.836c0-.461.382-.836.857-.836.473 0 .858.375.858.836ZM951.961 243.268a.846.846 0 0 1-.857.836.847.847 0 0 1-.858-.836c0-.461.383-.836.858-.836s.857.375.857.836ZM954.637 243.268a.847.847 0 0 1-.857.836.847.847 0 0 1-.858-.836c0-.461.383-.836.858-.836.472 0 .857.375.857.836ZM957.313 243.268a.847.847 0 0 1-.858.836.847.847 0 0 1-.857-.836c0-.461.383-.836.857-.836.475 0 .858.375.858.836ZM959.985 243.268a.847.847 0 0 1-.858.836.847.847 0 0 1-.857-.836c0-.461.382-.836.857-.836s.858.375.858.836ZM962.665 243.268a.847.847 0 0 1-.858.836.847.847 0 0 1-.858-.836c0-.461.383-.836.858-.836.473 0 .858.375.858.836ZM965.344 243.268a.847.847 0 0 1-.857.836.847.847 0 0 1-.858-.836c0-.461.383-.836.858-.836.472 0 .857.375.857.836ZM968.016 243.268a.847.847 0 0 1-.858.836.847.847 0 0 1-.857-.836c0-.461.383-.836.857-.836.475 0 .858.375.858.836ZM917.169 245.875a.847.847 0 0 1-.857.836c-.473 0-.244-.429-.244-.892 0-.461-.231-.78.244-.78.472.003.857.376.857.836ZM919.844 245.875a.847.847 0 0 1-.857.836.847.847 0 0 1-.858-.836c0-.46.383-.835.858-.835a.848.848 0 0 1 .857.835ZM922.52 245.875a.847.847 0 0 1-.858.836.847.847 0 0 1-.857-.836c0-.46.383-.835.857-.835a.848.848 0 0 1 .858.835ZM925.204 245.875a.847.847 0 0 1-.858.836.847.847 0 0 1-.858-.836c0-.46.383-.835.858-.835a.85.85 0 0 1 .858.835ZM927.875 245.875a.846.846 0 0 1-.857.836.847.847 0 0 1-.858-.836c0-.46.383-.835.858-.835a.85.85 0 0 1 .857.835ZM935.903 245.875a.847.847 0 0 1-.858.836.846.846 0 0 1-.857-.836c0-.46.382-.835.857-.835a.85.85 0 0 1 .858.835ZM938.579 245.875a.847.847 0 0 1-.858.836.847.847 0 0 1-.858-.836c0-.46.383-.835.858-.835a.848.848 0 0 1 .858.835ZM930.551 245.875a.847.847 0 0 1-.857.836.847.847 0 0 1-.858-.836c0-.46.383-.835.858-.835a.848.848 0 0 1 .857.835ZM933.227 245.875a.847.847 0 0 1-.858.836.847.847 0 0 1-.857-.836c0-.46.383-.835.857-.835a.848.848 0 0 1 .858.835ZM943.934 245.875a.847.847 0 0 1-.858.836.847.847 0 0 1-.857-.836c0-.46.383-.835.857-.835a.85.85 0 0 1 .858.835ZM941.254 245.875a.846.846 0 0 1-.857.836.847.847 0 0 1-.858-.836c0-.46.383-.835.858-.835a.847.847 0 0 1 .857.835ZM946.606 245.875a.847.847 0 0 1-.858.836.847.847 0 0 1-.857-.836c0-.46.382-.835.857-.835a.85.85 0 0 1 .858.835ZM949.282 245.875a.847.847 0 0 1-.858.836.847.847 0 0 1-.858-.836c0-.46.383-.835.858-.835a.848.848 0 0 1 .858.835ZM951.961 245.875a.846.846 0 0 1-.857.836.847.847 0 0 1-.858-.836c0-.46.383-.835.858-.835a.847.847 0 0 1 .857.835ZM954.637 245.875a.847.847 0 0 1-.857.836.847.847 0 0 1-.858-.836c0-.46.383-.835.858-.835a.85.85 0 0 1 .857.835ZM957.313 245.875a.847.847 0 0 1-.858.836.847.847 0 0 1-.857-.836c0-.46.383-.835.857-.835a.848.848 0 0 1 .858.835ZM959.985 245.875a.847.847 0 0 1-.858.836.847.847 0 0 1-.857-.836c0-.46.382-.835.857-.835a.848.848 0 0 1 .858.835ZM962.665 245.875a.847.847 0 0 1-.858.836.847.847 0 0 1-.858-.836c0-.46.383-.835.858-.835a.85.85 0 0 1 .858.835ZM965.344 245.875a.847.847 0 0 1-.857.836.847.847 0 0 1-.858-.836c0-.46.383-.835.858-.835a.85.85 0 0 1 .857.835ZM968.016 245.875a.847.847 0 0 1-.858.836.847.847 0 0 1-.857-.836c0-.46.383-.835.857-.835a.848.848 0 0 1 .858.835ZM919.844 248.484a.847.847 0 0 1-.857.836.847.847 0 0 1-.858-.836c0-.46.383-.836.858-.836.474 0 .857.373.857.836ZM925.204 248.484a.847.847 0 0 1-.858.836.847.847 0 0 1-.858-.836c0-.46.383-.836.858-.836.473 0 .858.373.858.836ZM922.52 248.484a.847.847 0 0 1-.858.836.847.847 0 0 1-.857-.836c0-.46.383-.836.857-.836.475 0 .858.373.858.836ZM927.875 248.484a.846.846 0 0 1-.857.836.847.847 0 0 1-.858-.836c0-.46.383-.836.858-.836.472 0 .857.373.857.836ZM930.551 248.484a.847.847 0 0 1-.857.836.847.847 0 0 1-.858-.836c0-.46.383-.836.858-.836.474 0 .857.373.857.836ZM933.227 248.484a.847.847 0 0 1-.858.836.847.847 0 0 1-.857-.836c0-.46.383-.836.857-.836.475 0 .858.373.858.836ZM935.903 248.484a.847.847 0 0 1-.858.836.846.846 0 0 1-.857-.836c0-.46.382-.836.857-.836.473 0 .858.373.858.836ZM938.579 248.484a.847.847 0 0 1-.858.836.847.847 0 0 1-.858-.836c0-.46.383-.836.858-.836s.858.373.858.836ZM941.254 248.484a.846.846 0 0 1-.857.836.847.847 0 0 1-.858-.836c0-.46.383-.836.858-.836s.857.373.857.836ZM943.934 248.484a.847.847 0 0 1-.858.836.847.847 0 0 1-.857-.836c0-.46.383-.836.857-.836.473 0 .858.373.858.836ZM946.606 248.484a.847.847 0 0 1-.858.836.847.847 0 0 1-.857-.836c0-.46.382-.836.857-.836.473 0 .858.373.858.836ZM949.282 248.484a.847.847 0 0 1-.858.836.847.847 0 0 1-.858-.836c0-.46.383-.836.858-.836s.858.373.858.836ZM951.961 248.484a.846.846 0 0 1-.857.836.847.847 0 0 1-.858-.836c0-.46.383-.836.858-.836s.857.373.857.836ZM954.637 248.484a.847.847 0 0 1-.857.836.847.847 0 0 1-.858-.836c0-.46.383-.836.858-.836.472 0 .857.373.857.836ZM957.313 248.484a.847.847 0 0 1-.858.836.847.847 0 0 1-.857-.836c0-.46.383-.836.857-.836.475 0 .858.373.858.836ZM959.985 248.484a.847.847 0 0 1-.858.836.847.847 0 0 1-.857-.836c0-.46.382-.836.857-.836s.858.373.858.836ZM962.665 248.484a.847.847 0 0 1-.858.836.847.847 0 0 1-.858-.836c0-.46.383-.836.858-.836.473 0 .858.373.858.836ZM965.344 248.484a.847.847 0 0 1-.857.836.847.847 0 0 1-.858-.836c0-.46.383-.836.858-.836.472 0 .857.373.857.836ZM968.016 248.484a.847.847 0 0 1-.858.836.847.847 0 0 1-.857-.836c0-.46.383-.836.857-.836.475 0 .858.373.858.836ZM917.167 251.092c0 .46-.383.835-.858.835-.472 0-.214-.373-.214-.835 0-.461-.261-.836.214-.836.473 0 .858.375.858.836ZM919.844 251.092c0 .46-.383.835-.857.835a.847.847 0 0 1-.858-.835c0-.461.383-.836.858-.836.474 0 .857.375.857.836ZM922.52 251.092c0 .46-.383.835-.858.835a.847.847 0 0 1-.857-.835c0-.461.383-.836.857-.836.475 0 .858.375.858.836ZM927.875 251.092c0 .46-.382.835-.857.835a.847.847 0 0 1-.858-.835c0-.461.383-.836.858-.836.472 0 .857.375.857.836ZM925.204 251.092c0 .46-.383.835-.858.835a.847.847 0 0 1-.858-.835c0-.461.383-.836.858-.836.473 0 .858.375.858.836ZM933.227 251.092c0 .46-.383.835-.858.835a.847.847 0 0 1-.857-.835c0-.461.383-.836.857-.836.475 0 .858.375.858.836ZM938.579 251.092c0 .46-.383.835-.858.835a.847.847 0 0 1-.858-.835c0-.461.383-.836.858-.836s.858.375.858.836ZM941.254 251.092c0 .46-.382.835-.857.835a.847.847 0 0 1-.858-.835c0-.461.383-.836.858-.836s.857.375.857.836ZM943.934 251.092c0 .46-.383.835-.858.835a.847.847 0 0 1-.857-.835c0-.461.383-.836.857-.836.473 0 .858.375.858.836ZM930.551 251.092c0 .46-.383.835-.857.835a.847.847 0 0 1-.858-.835c0-.461.383-.836.858-.836.474 0 .857.375.857.836ZM935.903 251.092c0 .46-.383.835-.858.835a.846.846 0 0 1-.857-.835c0-.461.382-.836.857-.836.473 0 .858.375.858.836ZM946.606 251.092c0 .46-.383.835-.858.835a.847.847 0 0 1-.857-.835c0-.461.382-.836.857-.836.473 0 .858.375.858.836ZM949.282 251.092c0 .46-.383.835-.858.835a.847.847 0 0 1-.858-.835c0-.461.383-.836.858-.836s.858.375.858.836ZM951.961 251.092c0 .46-.382.835-.857.835a.847.847 0 0 1-.858-.835c0-.461.383-.836.858-.836s.857.375.857.836ZM954.637 251.092c0 .46-.383.835-.857.835a.847.847 0 0 1-.858-.835c0-.461.383-.836.858-.836.472 0 .857.375.857.836ZM957.313 251.092c0 .46-.383.835-.858.835a.847.847 0 0 1-.857-.835c0-.461.383-.836.857-.836.475 0 .858.375.858.836ZM959.985 251.092c0 .46-.383.835-.858.835a.847.847 0 0 1-.857-.835c0-.461.382-.836.857-.836s.858.375.858.836ZM962.665 251.092c0 .46-.383.835-.858.835a.847.847 0 0 1-.858-.835c0-.461.383-.836.858-.836.473 0 .858.375.858.836ZM965.344 251.092c0 .46-.383.835-.857.835a.847.847 0 0 1-.858-.835c0-.461.383-.836.858-.836.472 0 .857.375.857.836ZM968.016 251.092c0 .46-.383.835-.858.835a.847.847 0 0 1-.857-.835c0-.461.383-.836.857-.836.475 0 .858.375.858.836ZM919.844 253.698a.847.847 0 0 1-.857.836.847.847 0 0 1-.858-.836c0-.46.383-.835.858-.835a.848.848 0 0 1 .857.835ZM917.169 248.484a.846.846 0 0 1-.857.836c-.473 0-.244-.373-.244-.836 0-.46-.231-.836.244-.836.472 0 .857.374.857.836ZM922.52 253.698a.847.847 0 0 1-.858.836.847.847 0 0 1-.857-.836c0-.46.383-.835.857-.835a.848.848 0 0 1 .858.835ZM925.204 253.698a.847.847 0 0 1-.858.836.847.847 0 0 1-.858-.836c0-.46.383-.835.858-.835a.85.85 0 0 1 .858.835ZM930.551 253.698a.847.847 0 0 1-.857.836.847.847 0 0 1-.858-.836c0-.46.383-.835.858-.835a.848.848 0 0 1 .857.835ZM933.227 253.698a.847.847 0 0 1-.858.836.847.847 0 0 1-.857-.836c0-.46.383-.835.857-.835a.848.848 0 0 1 .858.835ZM935.903 253.698a.847.847 0 0 1-.858.836.846.846 0 0 1-.857-.836c0-.46.382-.835.857-.835a.85.85 0 0 1 .858.835ZM938.579 253.698a.847.847 0 0 1-.858.836.847.847 0 0 1-.858-.836c0-.46.383-.835.858-.835a.848.848 0 0 1 .858.835ZM943.934 253.698a.847.847 0 0 1-.858.836.847.847 0 0 1-.857-.836c0-.46.383-.835.857-.835a.85.85 0 0 1 .858.835ZM949.282 253.698a.847.847 0 0 1-.858.836.847.847 0 0 1-.858-.836c0-.46.383-.835.858-.835a.848.848 0 0 1 .858.835ZM941.254 253.698a.846.846 0 0 1-.857.836.847.847 0 0 1-.858-.836c0-.46.383-.835.858-.835a.847.847 0 0 1 .857.835ZM946.606 253.698a.847.847 0 0 1-.858.836.847.847 0 0 1-.857-.836c0-.46.382-.835.857-.835a.85.85 0 0 1 .858.835ZM951.961 253.698a.846.846 0 0 1-.857.836.847.847 0 0 1-.858-.836c0-.46.383-.835.858-.835a.847.847 0 0 1 .857.835ZM954.637 253.698a.847.847 0 0 1-.857.836.847.847 0 0 1-.858-.836c0-.46.383-.835.858-.835a.85.85 0 0 1 .857.835ZM957.313 253.698a.847.847 0 0 1-.858.836.847.847 0 0 1-.857-.836c0-.46.383-.835.857-.835a.848.848 0 0 1 .858.835ZM959.985 253.698a.847.847 0 0 1-.858.836.847.847 0 0 1-.857-.836c0-.46.382-.835.857-.835a.848.848 0 0 1 .858.835ZM962.665 253.698a.847.847 0 0 1-.858.836.847.847 0 0 1-.858-.836c0-.46.383-.835.858-.835a.85.85 0 0 1 .858.835ZM965.344 253.698a.847.847 0 0 1-.857.836.847.847 0 0 1-.858-.836c0-.46.383-.835.858-.835a.85.85 0 0 1 .857.835ZM968.016 253.698a.847.847 0 0 1-.858.836.847.847 0 0 1-.857-.836c0-.46.383-.835.857-.835a.848.848 0 0 1 .858.835ZM919.844 256.308c0 .46-.383.835-.857.835a.847.847 0 0 1-.858-.835c0-.461.383-.836.858-.836.474 0 .857.373.857.836ZM922.52 256.308c0 .46-.383.835-.858.835a.847.847 0 0 1-.857-.835c0-.461.383-.836.857-.836.475 0 .858.373.858.836ZM925.204 256.308c0 .46-.383.835-.858.835a.847.847 0 0 1-.858-.835c0-.461.383-.836.858-.836.473 0 .858.373.858.836ZM927.875 256.308c0 .46-.382.835-.857.835a.847.847 0 0 1-.858-.835c0-.461.383-.836.858-.836.472 0 .857.373.857.836ZM930.551 256.308c0 .46-.383.835-.857.835a.847.847 0 0 1-.858-.835c0-.461.383-.836.858-.836.474 0 .857.373.857.836ZM933.227 256.308c0 .46-.383.835-.858.835a.847.847 0 0 1-.857-.835c0-.461.383-.836.857-.836.475 0 .858.373.858.836ZM935.903 256.308c0 .46-.383.835-.858.835a.846.846 0 0 1-.857-.835c0-.461.382-.836.857-.836.473 0 .858.373.858.836ZM938.579 256.308c0 .46-.383.835-.858.835a.847.847 0 0 1-.858-.835c0-.461.383-.836.858-.836s.858.373.858.836ZM941.254 256.308c0 .46-.382.835-.857.835a.847.847 0 0 1-.858-.835c0-.461.383-.836.858-.836s.857.373.857.836ZM943.934 256.308c0 .46-.383.835-.858.835a.847.847 0 0 1-.857-.835c0-.461.383-.836.857-.836.473 0 .858.373.858.836ZM946.606 256.308c0 .46-.383.835-.858.835a.847.847 0 0 1-.857-.835c0-.461.382-.836.857-.836.473 0 .858.373.858.836ZM949.282 256.308c0 .46-.383.835-.858.835a.847.847 0 0 1-.858-.835c0-.461.383-.836.858-.836s.858.373.858.836ZM951.961 256.308c0 .46-.382.835-.857.835a.847.847 0 0 1-.858-.835c0-.461.383-.836.858-.836s.857.373.857.836ZM954.637 256.308c0 .46-.383.835-.857.835a.847.847 0 0 1-.858-.835c0-.461.383-.836.858-.836.472 0 .857.373.857.836ZM957.313 256.308c0 .46-.383.835-.858.835a.847.847 0 0 1-.857-.835c0-.461.383-.836.857-.836.475 0 .858.373.858.836ZM959.985 256.308c0 .46-.383.835-.858.835a.847.847 0 0 1-.857-.835c0-.461.382-.836.857-.836s.858.373.858.836ZM962.665 256.308c0 .46-.383.835-.858.835a.847.847 0 0 1-.858-.835c0-.461.383-.836.858-.836.473 0 .858.373.858.836ZM965.344 256.308c0 .46-.383.835-.857.835a.847.847 0 0 1-.858-.835c0-.461.383-.836.858-.836.472 0 .857.373.857.836ZM968.016 256.308c0 .46-.383.835-.858.835a.847.847 0 0 1-.857-.835c0-.461.383-.836.857-.836.475 0 .858.373.858.836ZM922.52 258.915c0 .46-.383.835-.858.835a.847.847 0 0 1-.857-.835c0-.461.383-.836.857-.836.475 0 .858.375.858.836ZM925.204 258.915c0 .46-.383.835-.858.835a.847.847 0 0 1-.858-.835c0-.461.383-.836.858-.836.473 0 .858.375.858.836ZM927.875 258.915c0 .46-.382.835-.857.835a.847.847 0 0 1-.858-.835c0-.461.383-.836.858-.836.472 0 .857.375.857.836ZM930.551 258.915c0 .46-.383.835-.857.835a.847.847 0 0 1-.858-.835c0-.461.383-.836.858-.836.474 0 .857.375.857.836ZM935.903 258.915c0 .46-.383.835-.858.835a.846.846 0 0 1-.857-.835c0-.461.382-.836.857-.836.473 0 .858.375.858.836ZM941.254 258.915c0 .46-.382.835-.857.835a.847.847 0 0 1-.858-.835c0-.461.383-.836.858-.836s.857.375.857.836ZM933.227 258.915c0 .46-.383.835-.858.835a.847.847 0 0 1-.857-.835c0-.461.383-.836.857-.836.475 0 .858.375.858.836ZM938.579 258.915c0 .46-.383.835-.858.835a.847.847 0 0 1-.858-.835c0-.461.383-.836.858-.836s.858.375.858.836ZM943.934 258.915c0 .46-.383.835-.858.835a.847.847 0 0 1-.857-.835c0-.461.383-.836.857-.836.473 0 .858.375.858.836ZM946.606 258.915c0 .46-.383.835-.858.835a.847.847 0 0 1-.857-.835c0-.461.382-.836.857-.836.473 0 .858.375.858.836ZM949.282 258.915c0 .46-.383.835-.858.835a.847.847 0 0 1-.858-.835c0-.461.383-.836.858-.836s.858.375.858.836ZM951.961 258.915c0 .46-.382.835-.857.835a.847.847 0 0 1-.858-.835c0-.461.383-.836.858-.836s.857.375.857.836ZM954.637 258.915c0 .46-.383.835-.857.835a.847.847 0 0 1-.858-.835c0-.461.383-.836.858-.836.472 0 .857.375.857.836ZM957.313 258.915c0 .46-.383.835-.858.835a.847.847 0 0 1-.857-.835c0-.461.383-.836.857-.836.475 0 .858.375.858.836ZM959.985 258.915c0 .46-.383.835-.858.835a.847.847 0 0 1-.857-.835c0-.461.382-.836.857-.836s.858.375.858.836ZM962.665 258.915c0 .46-.383.835-.858.835a.847.847 0 0 1-.858-.835c0-.461.383-.836.858-.836.473 0 .858.375.858.836ZM965.344 258.915c0 .46-.383.835-.857.835a.847.847 0 0 1-.858-.835c0-.461.383-.836.858-.836.472 0 .857.375.857.836ZM968.016 258.915c0 .46-.383.835-.858.835a.847.847 0 0 1-.857-.835c0-.461.383-.836.857-.836.475 0 .858.375.858.836ZM922.52 261.522a.847.847 0 0 1-.858.836.847.847 0 0 1-.857-.836c0-.461.383-.836.857-.836.475 0 .858.375.858.836ZM919.844 258.915c0 .46-.383.835-.857.835a.847.847 0 0 1-.858-.835c0-.461.383-.836.858-.836.474 0 .857.375.857.836ZM919.844 261.522a.847.847 0 0 1-.857.836.847.847 0 0 1-.858-.836c0-.461.383-.836.858-.836.474 0 .857.375.857.836ZM925.204 261.522a.847.847 0 0 1-.858.836.847.847 0 0 1-.858-.836c0-.461.383-.836.858-.836.473 0 .858.375.858.836ZM930.551 261.522a.847.847 0 0 1-.857.836.847.847 0 0 1-.858-.836c0-.461.383-.836.858-.836.474 0 .857.375.857.836ZM927.875 253.698a.846.846 0 0 1-.857.836.847.847 0 0 1-.858-.836c0-.46.383-.835.858-.835a.85.85 0 0 1 .857.835ZM927.875 261.522a.846.846 0 0 1-.857.836.847.847 0 0 1-.858-.836c0-.461.383-.836.858-.836.472 0 .857.375.857.836ZM933.227 261.522a.847.847 0 0 1-.858.836.847.847 0 0 1-.857-.836c0-.461.383-.836.857-.836.475 0 .858.375.858.836ZM935.903 261.522a.847.847 0 0 1-.858.836.846.846 0 0 1-.857-.836c0-.461.382-.836.857-.836.473 0 .858.375.858.836ZM938.579 261.522a.847.847 0 0 1-.858.836.847.847 0 0 1-.858-.836c0-.461.383-.836.858-.836s.858.375.858.836ZM941.254 261.522a.846.846 0 0 1-.857.836.847.847 0 0 1-.858-.836c0-.461.383-.836.858-.836s.857.375.857.836ZM946.606 261.522a.847.847 0 0 1-.858.836.847.847 0 0 1-.857-.836c0-.461.382-.836.857-.836.473 0 .858.375.858.836ZM943.934 261.522a.847.847 0 0 1-.858.836.847.847 0 0 1-.857-.836c0-.461.383-.836.857-.836.473 0 .858.375.858.836ZM949.282 261.522a.847.847 0 0 1-.858.836.847.847 0 0 1-.858-.836c0-.461.383-.836.858-.836s.858.375.858.836ZM951.961 261.522a.846.846 0 0 1-.857.836.847.847 0 0 1-.858-.836c0-.461.383-.836.858-.836s.857.375.857.836ZM954.637 261.522a.847.847 0 0 1-.857.836.847.847 0 0 1-.858-.836c0-.461.383-.836.858-.836.472 0 .857.375.857.836ZM957.313 261.522a.847.847 0 0 1-.858.836.847.847 0 0 1-.857-.836c0-.461.383-.836.857-.836.475 0 .858.375.858.836ZM959.985 261.522a.847.847 0 0 1-.858.836.847.847 0 0 1-.857-.836c0-.461.382-.836.857-.836s.858.375.858.836ZM962.665 261.522a.847.847 0 0 1-.858.836.847.847 0 0 1-.858-.836c0-.461.383-.836.858-.836.473 0 .858.375.858.836ZM965.344 261.522a.847.847 0 0 1-.857.836.847.847 0 0 1-.858-.836c0-.461.383-.836.858-.836.472 0 .857.375.857.836ZM968.016 261.522a.847.847 0 0 1-.858.836.847.847 0 0 1-.857-.836c0-.461.383-.836.857-.836.475 0 .858.375.858.836ZM919.844 264.129c0 .46-.383.835-.857.835a.847.847 0 0 1-.858-.835c0-.461.383-.836.858-.836a.848.848 0 0 1 .857.836ZM922.52 264.129c0 .46-.383.835-.858.835a.847.847 0 0 1-.857-.835c0-.461.383-.836.857-.836a.848.848 0 0 1 .858.836ZM925.204 264.129c0 .46-.383.835-.858.835a.847.847 0 0 1-.858-.835c0-.461.383-.836.858-.836a.85.85 0 0 1 .858.836ZM927.875 264.129c0 .46-.382.835-.857.835a.847.847 0 0 1-.858-.835c0-.461.383-.836.858-.836a.85.85 0 0 1 .857.836ZM935.903 264.129c0 .46-.383.835-.858.835a.846.846 0 0 1-.857-.835c0-.461.382-.836.857-.836a.85.85 0 0 1 .858.836ZM941.254 264.129c0 .46-.382.835-.857.835a.847.847 0 0 1-.858-.835c0-.461.383-.836.858-.836a.847.847 0 0 1 .857.836ZM943.934 264.129c0 .46-.383.835-.858.835a.847.847 0 0 1-.857-.835c0-.461.383-.836.857-.836a.85.85 0 0 1 .858.836ZM946.606 264.129c0 .46-.383.835-.858.835a.847.847 0 0 1-.857-.835c0-.461.382-.836.857-.836a.85.85 0 0 1 .858.836ZM949.282 264.129c0 .46-.383.835-.858.835a.847.847 0 0 1-.858-.835c0-.461.383-.836.858-.836a.848.848 0 0 1 .858.836ZM951.961 264.129c0 .46-.382.835-.857.835a.847.847 0 0 1-.858-.835c0-.461.383-.836.858-.836a.847.847 0 0 1 .857.836ZM954.637 264.129c0 .46-.383.835-.857.835a.847.847 0 0 1-.858-.835c0-.461.383-.836.858-.836a.85.85 0 0 1 .857.836ZM957.313 264.129c0 .46-.383.835-.858.835a.847.847 0 0 1-.857-.835c0-.461.383-.836.857-.836a.848.848 0 0 1 .858.836ZM959.985 264.129c0 .46-.383.835-.858.835a.847.847 0 0 1-.857-.835c0-.461.382-.836.857-.836a.848.848 0 0 1 .858.836ZM962.665 264.129c0 .46-.383.835-.858.835a.847.847 0 0 1-.858-.835c0-.461.383-.836.858-.836a.85.85 0 0 1 .858.836ZM965.344 264.129c0 .46-.383.835-.857.835a.847.847 0 0 1-.858-.835c0-.461.383-.836.858-.836a.85.85 0 0 1 .857.836ZM968.016 264.129c0 .46-.383.835-.858.835a.847.847 0 0 1-.857-.835c0-.461.383-.836.857-.836a.848.848 0 0 1 .858.836ZM919.844 266.738a.847.847 0 0 1-.857.836.847.847 0 0 1-.858-.836c0-.461.383-.836.858-.836.474 0 .857.373.857.836ZM925.204 266.738a.847.847 0 0 1-.858.836.847.847 0 0 1-.858-.836c0-.461.383-.836.858-.836.473 0 .858.373.858.836ZM922.52 266.738a.847.847 0 0 1-.858.836.847.847 0 0 1-.857-.836c0-.461.383-.836.857-.836.475 0 .858.373.858.836ZM927.875 266.738a.846.846 0 0 1-.857.836.847.847 0 0 1-.858-.836c0-.461.383-.836.858-.836.472 0 .857.373.857.836ZM930.551 266.738a.847.847 0 0 1-.857.836.847.847 0 0 1-.858-.836c0-.461.383-.836.858-.836.474 0 .857.373.857.836ZM935.903 266.738a.847.847 0 0 1-.858.836.846.846 0 0 1-.857-.836c0-.461.382-.836.857-.836.473 0 .858.373.858.836ZM938.579 266.738a.847.847 0 0 1-.858.836.847.847 0 0 1-.858-.836c0-.461.383-.836.858-.836s.858.373.858.836ZM941.254 266.738a.846.846 0 0 1-.857.836.847.847 0 0 1-.858-.836c0-.461.383-.836.858-.836s.857.373.857.836ZM943.934 266.738a.847.847 0 0 1-.858.836.847.847 0 0 1-.857-.836c0-.461.383-.836.857-.836.473 0 .858.373.858.836ZM946.606 266.738a.847.847 0 0 1-.858.836.847.847 0 0 1-.857-.836c0-.461.382-.836.857-.836.473 0 .858.373.858.836ZM949.282 266.738a.847.847 0 0 1-.858.836.847.847 0 0 1-.858-.836c0-.461.383-.836.858-.836s.858.373.858.836ZM951.961 266.738a.846.846 0 0 1-.857.836.847.847 0 0 1-.858-.836c0-.461.383-.836.858-.836s.857.373.857.836ZM954.637 266.738a.847.847 0 0 1-.857.836.847.847 0 0 1-.858-.836c0-.461.383-.836.858-.836.472 0 .857.373.857.836ZM957.313 266.738a.847.847 0 0 1-.858.836.847.847 0 0 1-.857-.836c0-.461.383-.836.857-.836.475 0 .858.373.858.836ZM959.985 266.738a.847.847 0 0 1-.858.836.847.847 0 0 1-.857-.836c0-.461.382-.836.857-.836s.858.373.858.836ZM962.665 266.738a.847.847 0 0 1-.858.836.847.847 0 0 1-.858-.836c0-.461.383-.836.858-.836.473 0 .858.373.858.836ZM965.344 266.738a.847.847 0 0 1-.857.836.847.847 0 0 1-.858-.836c0-.461.383-.836.858-.836.472 0 .857.373.857.836ZM968.016 266.738a.847.847 0 0 1-.858.836.847.847 0 0 1-.857-.836c0-.461.383-.836.857-.836.475 0 .858.373.858.836ZM919.844 269.345a.847.847 0 0 1-.857.836.847.847 0 0 1-.858-.836c0-.461.383-.836.858-.836.474 0 .857.375.857.836ZM922.52 269.345a.847.847 0 0 1-.858.836.847.847 0 0 1-.857-.836c0-.461.383-.836.857-.836.475 0 .858.375.858.836ZM925.204 269.345a.847.847 0 0 1-.858.836.847.847 0 0 1-.858-.836c0-.461.383-.836.858-.836.473 0 .858.375.858.836ZM927.875 269.345a.846.846 0 0 1-.857.836.847.847 0 0 1-.858-.836c0-.461.383-.836.858-.836.472 0 .857.375.857.836ZM930.551 269.345a.847.847 0 0 1-.857.836.847.847 0 0 1-.858-.836c0-.461.383-.836.858-.836.474 0 .857.375.857.836ZM935.903 269.345a.847.847 0 0 1-.858.836.846.846 0 0 1-.857-.836c0-.461.382-.836.857-.836.473 0 .858.375.858.836ZM933.227 264.129c0 .46-.383.835-.858.835a.847.847 0 0 1-.857-.835c0-.461.383-.836.857-.836a.848.848 0 0 1 .858.836ZM930.551 264.129c0 .46-.383.835-.857.835a.847.847 0 0 1-.858-.835c0-.461.383-.836.858-.836a.848.848 0 0 1 .857.836ZM933.227 266.738a.847.847 0 0 1-.858.836.847.847 0 0 1-.857-.836c0-.461.383-.836.857-.836.475 0 .858.373.858.836ZM933.227 269.345a.847.847 0 0 1-.858.836.847.847 0 0 1-.857-.836c0-.461.383-.836.857-.836.475 0 .858.375.858.836ZM941.254 269.345a.846.846 0 0 1-.857.836.847.847 0 0 1-.858-.836c0-.461.383-.836.858-.836s.857.375.857.836ZM938.579 264.129c0 .46-.383.835-.858.835a.847.847 0 0 1-.858-.835c0-.461.383-.836.858-.836a.848.848 0 0 1 .858.836ZM938.579 269.345a.847.847 0 0 1-.858.836.847.847 0 0 1-.858-.836c0-.461.383-.836.858-.836s.858.375.858.836ZM943.934 269.345a.847.847 0 0 1-.858.836.847.847 0 0 1-.857-.836c0-.461.383-.836.857-.836.473 0 .858.375.858.836ZM946.606 269.345a.847.847 0 0 1-.858.836.847.847 0 0 1-.857-.836c0-.461.382-.836.857-.836.473 0 .858.375.858.836ZM949.282 269.345a.847.847 0 0 1-.858.836.847.847 0 0 1-.858-.836c0-.461.383-.836.858-.836s.858.375.858.836ZM951.961 269.345a.846.846 0 0 1-.857.836.847.847 0 0 1-.858-.836c0-.461.383-.836.858-.836s.857.375.857.836ZM954.637 269.345a.847.847 0 0 1-.857.836.847.847 0 0 1-.858-.836c0-.461.383-.836.858-.836.472 0 .857.375.857.836ZM957.313 269.345a.847.847 0 0 1-.858.836.847.847 0 0 1-.857-.836c0-.461.383-.836.857-.836.475 0 .858.375.858.836ZM959.985 269.345a.847.847 0 0 1-.858.836.847.847 0 0 1-.857-.836c0-.461.382-.836.857-.836s.858.375.858.836ZM962.665 269.345a.847.847 0 0 1-.858.836.847.847 0 0 1-.858-.836c0-.461.383-.836.858-.836.473 0 .858.375.858.836ZM965.344 269.345a.847.847 0 0 1-.857.836.847.847 0 0 1-.858-.836c0-.461.383-.836.858-.836.472 0 .857.375.857.836ZM968.016 269.345a.847.847 0 0 1-.858.836.847.847 0 0 1-.857-.836c0-.461.383-.836.857-.836.475 0 .858.375.858.836ZM919.842 271.952a.847.847 0 0 1-.858.836c-.473 0-.597-.482-.781-.815 0-.461.306-.857.781-.857a.85.85 0 0 1 .858.836ZM922.52 271.952a.847.847 0 0 1-.858.836.847.847 0 0 1-.857-.836c0-.46.383-.836.857-.836a.85.85 0 0 1 .858.836ZM925.204 271.952a.847.847 0 0 1-.858.836.847.847 0 0 1-.858-.836c0-.46.383-.836.858-.836.473.003.858.376.858.836ZM927.875 271.952a.846.846 0 0 1-.857.836.847.847 0 0 1-.858-.836c0-.46.383-.836.858-.836.472.003.857.376.857.836ZM933.227 271.952a.847.847 0 0 1-.858.836.847.847 0 0 1-.857-.836c0-.46.383-.836.857-.836a.85.85 0 0 1 .858.836ZM930.551 271.952a.847.847 0 0 1-.857.836.847.847 0 0 1-.858-.836c0-.46.383-.836.858-.836a.85.85 0 0 1 .857.836ZM935.903 271.952a.847.847 0 0 1-.858.836.846.846 0 0 1-.857-.836c0-.46.382-.836.857-.836.473.003.858.376.858.836ZM941.254 271.952a.846.846 0 0 1-.857.836.847.847 0 0 1-.858-.836c0-.46.383-.836.858-.836a.849.849 0 0 1 .857.836ZM938.579 271.952a.847.847 0 0 1-.858.836.847.847 0 0 1-.858-.836c0-.46.383-.836.858-.836a.85.85 0 0 1 .858.836ZM946.606 271.952a.847.847 0 0 1-.858.836.847.847 0 0 1-.857-.836c0-.46.382-.836.857-.836.473.003.858.376.858.836ZM943.934 271.952a.847.847 0 0 1-.858.836.847.847 0 0 1-.857-.836c0-.46.383-.836.857-.836.473.003.858.376.858.836ZM949.282 271.952a.847.847 0 0 1-.858.836.847.847 0 0 1-.858-.836c0-.46.383-.836.858-.836a.85.85 0 0 1 .858.836ZM951.961 271.952a.846.846 0 0 1-.857.836.847.847 0 0 1-.858-.836c0-.46.383-.836.858-.836a.849.849 0 0 1 .857.836ZM954.637 271.952a.847.847 0 0 1-.857.836.847.847 0 0 1-.858-.836c0-.46.383-.836.858-.836.472.003.857.376.857.836ZM957.313 271.952a.847.847 0 0 1-.858.836.847.847 0 0 1-.857-.836c0-.46.383-.836.857-.836a.85.85 0 0 1 .858.836ZM959.985 271.952a.847.847 0 0 1-.858.836.847.847 0 0 1-.857-.836c0-.46.382-.836.857-.836a.85.85 0 0 1 .858.836ZM962.665 271.952a.847.847 0 0 1-.858.836.847.847 0 0 1-.858-.836c0-.46.383-.836.858-.836.473.003.858.376.858.836ZM965.344 271.952a.847.847 0 0 1-.857.836.847.847 0 0 1-.858-.836c0-.46.383-.836.858-.836.472.003.857.376.857.836ZM968.016 271.952a.847.847 0 0 1-.858.836.847.847 0 0 1-.857-.836c0-.46.383-.836.857-.836a.85.85 0 0 1 .858.836ZM922.52 274.561a.847.847 0 0 1-.858.836.847.847 0 0 1-.857-.836c0-.461.383-.836.857-.836.475 0 .858.373.858.836ZM919.839 274.561a.847.847 0 0 1-.858.836c-.472 0-.031-.565-.031-1.028 0-.46-.444-.644.031-.644s.858.373.858.836ZM930.551 274.561a.847.847 0 0 1-.857.836.847.847 0 0 1-.858-.836c0-.461.383-.836.858-.836.474 0 .857.373.857.836ZM933.227 274.561a.847.847 0 0 1-.858.836.847.847 0 0 1-.857-.836c0-.461.383-.836.857-.836.475 0 .858.373.858.836ZM935.903 274.561a.847.847 0 0 1-.858.836.846.846 0 0 1-.857-.836c0-.461.382-.836.857-.836.473 0 .858.373.858.836ZM938.579 274.561a.847.847 0 0 1-.858.836.847.847 0 0 1-.858-.836c0-.461.383-.836.858-.836s.858.373.858.836ZM941.254 274.561a.846.846 0 0 1-.857.836.847.847 0 0 1-.858-.836c0-.461.383-.836.858-.836s.857.373.857.836ZM943.934 274.561a.847.847 0 0 1-.858.836.847.847 0 0 1-.857-.836c0-.461.383-.836.857-.836.473 0 .858.373.858.836ZM946.606 274.561a.847.847 0 0 1-.858.836.847.847 0 0 1-.857-.836c0-.461.382-.836.857-.836.473 0 .858.373.858.836ZM951.961 274.561a.846.846 0 0 1-.857.836.847.847 0 0 1-.858-.836c0-.461.383-.836.858-.836s.857.373.857.836ZM949.282 274.561a.847.847 0 0 1-.858.836.847.847 0 0 1-.858-.836c0-.461.383-.836.858-.836s.858.373.858.836ZM954.637 274.561a.847.847 0 0 1-.857.836.847.847 0 0 1-.858-.836c0-.461.383-.836.858-.836.472 0 .857.373.857.836ZM957.313 274.561a.847.847 0 0 1-.858.836.847.847 0 0 1-.857-.836c0-.461.383-.836.857-.836.475 0 .858.373.858.836ZM959.985 274.561a.847.847 0 0 1-.858.836.847.847 0 0 1-.857-.836c0-.461.382-.836.857-.836s.858.373.858.836ZM962.665 274.561a.847.847 0 0 1-.858.836.847.847 0 0 1-.858-.836c0-.461.383-.836.858-.836.473 0 .858.373.858.836ZM965.344 274.561a.847.847 0 0 1-.857.836.847.847 0 0 1-.858-.836c0-.461.383-.836.858-.836.472 0 .857.373.857.836ZM968.016 274.561a.847.847 0 0 1-.858.836.847.847 0 0 1-.857-.836c0-.461.383-.836.857-.836.475 0 .858.373.858.836ZM930.551 277.168a.847.847 0 0 1-.857.836.847.847 0 0 1-.858-.836c0-.46.383-.835.858-.835.474 0 .857.375.857.835ZM927.875 274.561a.846.846 0 0 1-.857.836.847.847 0 0 1-.858-.836c0-.461.383-.836.858-.836.472 0 .857.373.857.836ZM927.875 277.168a.846.846 0 0 1-.857.836.847.847 0 0 1-.858-.836c0-.46.383-.835.858-.835.472 0 .857.375.857.835ZM925.204 274.561a.847.847 0 0 1-.858.836.847.847 0 0 1-.858-.836c0-.461.383-.836.858-.836.473 0 .858.373.858.836ZM925.204 277.168a.847.847 0 0 1-.858.836.847.847 0 0 1-.858-.836c0-.46.383-.835.858-.835.473 0 .858.375.858.835ZM935.903 277.168a.847.847 0 0 1-.858.836.846.846 0 0 1-.857-.836c0-.46.382-.835.857-.835.473 0 .858.375.858.835ZM941.254 277.168a.846.846 0 0 1-.857.836.847.847 0 0 1-.858-.836c0-.46.383-.835.858-.835s.857.375.857.835ZM938.579 277.168a.847.847 0 0 1-.858.836.847.847 0 0 1-.858-.836c0-.46.383-.835.858-.835s.858.375.858.835ZM943.934 277.168a.847.847 0 0 1-.858.836.847.847 0 0 1-.857-.836c0-.46.383-.835.857-.835.473 0 .858.375.858.835ZM946.606 277.168a.847.847 0 0 1-.858.836.847.847 0 0 1-.857-.836c0-.46.382-.835.857-.835.473 0 .858.375.858.835ZM949.282 277.168a.847.847 0 0 1-.858.836.847.847 0 0 1-.858-.836c0-.46.383-.835.858-.835s.858.375.858.835ZM951.961 277.168a.846.846 0 0 1-.857.836.847.847 0 0 1-.858-.836c0-.46.383-.835.858-.835s.857.375.857.835ZM954.637 277.168a.847.847 0 0 1-.857.836.847.847 0 0 1-.858-.836c0-.46.383-.835.858-.835.472 0 .857.375.857.835ZM957.313 277.168a.847.847 0 0 1-.858.836.847.847 0 0 1-.857-.836c0-.46.383-.835.857-.835.475 0 .858.375.858.835ZM959.985 277.168a.847.847 0 0 1-.858.836.847.847 0 0 1-.857-.836c0-.46.382-.835.857-.835s.858.375.858.835ZM962.665 277.168a.847.847 0 0 1-.858.836.847.847 0 0 1-.858-.836c0-.46.383-.835.858-.835.473 0 .858.375.858.835ZM965.344 277.168a.847.847 0 0 1-.857.836.847.847 0 0 1-.858-.836c0-.46.383-.835.858-.835.472 0 .857.375.857.835ZM968.016 277.168a.847.847 0 0 1-.858.836.847.847 0 0 1-.857-.836c0-.46.383-.835.857-.835.475 0 .858.375.858.835ZM925.204 279.776c0 .46-.383.835-.858.835a.847.847 0 0 1-.858-.835c0-.461.383-.836.858-.836.473 0 .858.375.858.836ZM922.52 277.168a.847.847 0 0 1-.858.836.847.847 0 0 1-.857-.836c0-.46.383-.835.857-.835.475 0 .858.375.858.835ZM922.52 279.776c0 .46-.383.835-.858.835a.847.847 0 0 1-.857-.835c0-.461.383-.836.857-.836.475 0 .858.375.858.836ZM927.875 279.776c0 .46-.382.835-.857.835a.847.847 0 0 1-.858-.835c0-.461.383-.836.858-.836.472 0 .857.375.857.836ZM930.551 279.776c0 .46-.383.835-.857.835a.847.847 0 0 1-.858-.835c0-.461.383-.836.858-.836.474 0 .857.375.857.836ZM935.903 279.776c0 .46-.383.835-.858.835a.846.846 0 0 1-.857-.835c0-.461.382-.836.857-.836.473 0 .858.375.858.836ZM933.227 277.168a.847.847 0 0 1-.858.836.847.847 0 0 1-.857-.836c0-.46.383-.835.857-.835.475 0 .858.375.858.835ZM933.227 279.776c0 .46-.383.835-.858.835a.847.847 0 0 1-.857-.835c0-.461.383-.836.857-.836.475 0 .858.375.858.836ZM938.579 279.776c0 .46-.383.835-.858.835a.847.847 0 0 1-.858-.835c0-.461.383-.836.858-.836s.858.375.858.836ZM943.934 279.776c0 .46-.383.835-.858.835a.847.847 0 0 1-.857-.835c0-.461.383-.836.857-.836.473 0 .858.375.858.836ZM941.254 279.776c0 .46-.382.835-.857.835a.847.847 0 0 1-.858-.835c0-.461.383-.836.858-.836s.857.375.857.836ZM946.606 279.776c0 .46-.383.835-.858.835a.847.847 0 0 1-.857-.835c0-.461.382-.836.857-.836.473 0 .858.375.858.836ZM949.282 279.776c0 .46-.383.835-.858.835a.847.847 0 0 1-.858-.835c0-.461.383-.836.858-.836s.858.375.858.836ZM951.961 279.776c0 .46-.382.835-.857.835a.847.847 0 0 1-.858-.835c0-.461.383-.836.858-.836s.857.375.857.836ZM954.637 279.776c0 .46-.383.835-.857.835a.847.847 0 0 1-.858-.835c0-.461.383-.836.858-.836.472 0 .857.375.857.836ZM957.313 279.776c0 .46-.383.835-.858.835a.847.847 0 0 1-.857-.835c0-.461.383-.836.857-.836.475 0 .858.375.858.836ZM959.985 279.776c0 .46-.383.835-.858.835a.847.847 0 0 1-.857-.835c0-.461.382-.836.857-.836s.858.375.858.836ZM962.665 279.776c0 .46-.383.835-.858.835a.847.847 0 0 1-.858-.835c0-.461.383-.836.858-.836.473 0 .858.375.858.836ZM965.344 279.776c0 .46-.383.835-.857.835a.847.847 0 0 1-.858-.835c0-.461.383-.836.858-.836.472 0 .857.375.857.836ZM968.016 279.776c0 .46-.383.835-.858.835a.847.847 0 0 1-.857-.835c0-.461.383-.836.857-.836.475 0 .858.375.858.836ZM922.52 282.383c0 .46-.383.835-.858.835a.847.847 0 0 1-.857-.835c0-.461.383-.836.857-.836a.848.848 0 0 1 .858.836ZM925.204 282.383c0 .46-.383.835-.858.835a.847.847 0 0 1-.858-.835c0-.461.383-.836.858-.836a.85.85 0 0 1 .858.836ZM927.875 282.383c0 .46-.382.835-.857.835a.847.847 0 0 1-.858-.835c0-.461.383-.836.858-.836a.85.85 0 0 1 .857.836ZM930.551 282.383c0 .46-.383.835-.857.835a.847.847 0 0 1-.858-.835c0-.461.383-.836.858-.836a.848.848 0 0 1 .857.836ZM933.227 282.383c0 .46-.383.835-.858.835a.847.847 0 0 1-.857-.835c0-.461.383-.836.857-.836a.848.848 0 0 1 .858.836ZM938.579 282.383c0 .46-.383.835-.858.835a.847.847 0 0 1-.858-.835c0-.461.383-.836.858-.836a.848.848 0 0 1 .858.836ZM941.254 282.383c0 .46-.382.835-.857.835a.847.847 0 0 1-.858-.835c0-.461.383-.836.858-.836a.847.847 0 0 1 .857.836ZM943.934 282.383c0 .46-.383.835-.858.835a.847.847 0 0 1-.857-.835c0-.461.383-.836.857-.836a.85.85 0 0 1 .858.836ZM946.606 282.383c0 .46-.383.835-.858.835a.847.847 0 0 1-.857-.835c0-.461.382-.836.857-.836a.85.85 0 0 1 .858.836ZM949.282 282.383c0 .46-.383.835-.858.835a.847.847 0 0 1-.858-.835c0-.461.383-.836.858-.836a.848.848 0 0 1 .858.836ZM951.961 282.383c0 .46-.382.835-.857.835a.847.847 0 0 1-.858-.835c0-.461.383-.836.858-.836a.847.847 0 0 1 .857.836ZM954.637 282.383c0 .46-.383.835-.857.835a.847.847 0 0 1-.858-.835c0-.461.383-.836.858-.836a.85.85 0 0 1 .857.836ZM957.313 282.383c0 .46-.383.835-.858.835a.847.847 0 0 1-.857-.835c0-.461.383-.836.857-.836a.848.848 0 0 1 .858.836ZM959.985 282.383c0 .46-.383.835-.858.835a.847.847 0 0 1-.857-.835c0-.461.382-.836.857-.836a.848.848 0 0 1 .858.836ZM962.665 282.383c0 .46-.383.835-.858.835a.847.847 0 0 1-.858-.835c0-.461.383-.836.858-.836a.85.85 0 0 1 .858.836ZM965.344 282.383c0 .46-.383.835-.857.835a.847.847 0 0 1-.858-.835c0-.461.383-.836.858-.836a.85.85 0 0 1 .857.836ZM968.016 282.383c0 .46-.383.835-.858.835a.847.847 0 0 1-.857-.835c0-.461.383-.836.857-.836a.848.848 0 0 1 .858.836ZM922.519 284.992c0 .46-.383.835-.858.835-.472 0-.462-.471-.462-.933 0-.461-.013-.738.462-.738.475 0 .858.373.858.836ZM927.875 284.992c0 .46-.382.835-.857.835a.847.847 0 0 1-.858-.835c0-.461.383-.836.858-.836.472 0 .857.373.857.836ZM925.204 284.992c0 .46-.383.835-.858.835a.847.847 0 0 1-.858-.835c0-.461.383-.836.858-.836.473 0 .858.373.858.836ZM930.551 284.992c0 .46-.383.835-.857.835a.847.847 0 0 1-.858-.835c0-.461.383-.836.858-.836.474 0 .857.373.857.836ZM933.227 284.992c0 .46-.383.835-.858.835a.847.847 0 0 1-.857-.835c0-.461.383-.836.857-.836.475 0 .858.373.858.836ZM935.903 284.992c0 .46-.383.835-.858.835a.846.846 0 0 1-.857-.835c0-.461.382-.836.857-.836.473 0 .858.373.858.836ZM938.579 284.992c0 .46-.383.835-.858.835a.847.847 0 0 1-.858-.835c0-.461.383-.836.858-.836s.858.373.858.836ZM941.254 284.992c0 .46-.382.835-.857.835a.847.847 0 0 1-.858-.835c0-.461.383-.836.858-.836s.857.373.857.836ZM946.606 284.992c0 .46-.383.835-.858.835a.847.847 0 0 1-.857-.835c0-.461.382-.836.857-.836.473 0 .858.373.858.836ZM943.934 284.992c0 .46-.383.835-.858.835a.847.847 0 0 1-.857-.835c0-.461.383-.836.857-.836.473 0 .858.373.858.836ZM949.282 284.992c0 .46-.383.835-.858.835a.847.847 0 0 1-.858-.835c0-.461.383-.836.858-.836s.858.373.858.836ZM951.961 284.992c0 .46-.382.835-.857.835a.847.847 0 0 1-.858-.835c0-.461.383-.836.858-.836s.857.373.857.836ZM954.637 284.992c0 .46-.383.835-.857.835a.847.847 0 0 1-.858-.835c0-.461.383-.836.858-.836.472 0 .857.373.857.836ZM957.313 284.992c0 .46-.383.835-.858.835a.847.847 0 0 1-.857-.835c0-.461.383-.836.857-.836.475 0 .858.373.858.836ZM959.985 284.992c0 .46-.383.835-.858.835a.847.847 0 0 1-.857-.835c0-.461.382-.836.857-.836s.858.373.858.836ZM962.665 284.992c0 .46-.383.835-.858.835a.847.847 0 0 1-.858-.835c0-.461.383-.836.858-.836.473 0 .858.373.858.836ZM965.344 284.992c0 .46-.383.835-.857.835a.847.847 0 0 1-.858-.835c0-.461.383-.836.858-.836.472 0 .857.373.857.836ZM968.016 284.992c0 .46-.383.835-.858.835a.847.847 0 0 1-.857-.835c0-.461.383-.836.857-.836.475 0 .858.373.858.836ZM935.903 282.383c0 .46-.383.835-.858.835a.846.846 0 0 1-.857-.835c0-.461.382-.836.857-.836a.85.85 0 0 1 .858.836Z" fill="#3136BD"/><path d="M959.989 284.992c0 .46-.383.835-.858.835a.847.847 0 0 1-.858-.835c0-.461.383-.836.858-.836.473 0 .858.375.858.836ZM965.344 284.992c0 .46-.383.835-.857.835a.847.847 0 0 1-.858-.835c0-.461.383-.836.858-.836.474 0 .857.375.857.836ZM962.665 284.992c0 .46-.383.835-.858.835a.847.847 0 0 1-.858-.835c0-.461.383-.836.858-.836.473 0 .858.375.858.836ZM968.02 284.992c0 .46-.383.835-.858.835a.847.847 0 0 1-.857-.835c0-.461.383-.836.857-.836.475 0 .858.375.858.836ZM973.368 284.992c0 .46-.383.835-.858.835a.847.847 0 0 1-.858-.835c0-.461.383-.836.858-.836s.858.375.858.836ZM970.692 284.992c0 .46-.383.835-.858.835a.847.847 0 0 1-.857-.835c0-.461.382-.836.857-.836.473 0 .858.375.858.836ZM976.047 284.992c0 .46-.382.835-.857.835a.847.847 0 0 1-.858-.835c0-.461.383-.836.858-.836s.857.375.857.836ZM978.723 284.992c0 .46-.383.835-.858.835a.847.847 0 0 1-.857-.835c0-.461.383-.836.857-.836.473 0 .858.375.858.836ZM981.395 284.992c0 .46-.383.835-.858.835a.847.847 0 0 1-.857-.835c0-.461.383-.836.857-.836.473 0 .858.375.858.836ZM984.071 284.992c0 .46-.383.835-.858.835a.847.847 0 0 1-.858-.835c0-.461.383-.836.858-.836s.858.375.858.836ZM989.426 284.992c0 .46-.383.835-.857.835a.847.847 0 0 1-.858-.835c0-.461.383-.836.858-.836.472 0 .857.375.857.836ZM986.747 284.992c0 .46-.383.835-.858.835a.847.847 0 0 1-.858-.835c0-.461.383-.836.858-.836s.858.375.858.836ZM992.102 284.992c0 .46-.383.835-.858.835a.847.847 0 0 1-.857-.835c0-.461.383-.836.857-.836.473 0 .858.375.858.836ZM994.782 284.992c0 .46-.383.835-.858.835a.847.847 0 0 1-.858-.835c0-.461.383-.836.858-.836s.858.375.858.836ZM997.454 284.992c0 .46-.383.835-.858.835a.847.847 0 0 1-.858-.835c0-.461.383-.836.858-.836s.858.375.858.836ZM1000.13 284.992c0 .46-.383.835-.858.835a.847.847 0 0 1-.858-.835c0-.461.383-.836.858-.836.472 0 .858.375.858.836ZM1002.81 284.992c0 .46-.39.835-.86.835a.844.844 0 0 1-.86-.835c0-.461.38-.836.86-.836.47 0 .86.375.86.836ZM1005.48 284.992c0 .46-.38.835-.85.835a.844.844 0 0 1-.86-.835c0-.461.38-.836.86-.836.47 0 .85.375.85.836ZM962.665 287.598a.847.847 0 0 1-.858.836.847.847 0 0 1-.858-.836c0-.46.383-.835.858-.835a.85.85 0 0 1 .858.835ZM968.02 287.598a.847.847 0 0 1-.858.836.847.847 0 0 1-.857-.836c0-.46.383-.835.857-.835a.848.848 0 0 1 .858.835ZM970.692 287.598a.847.847 0 0 1-.858.836.847.847 0 0 1-.857-.836c0-.46.382-.835.857-.835a.85.85 0 0 1 .858.835ZM973.368 287.598a.847.847 0 0 1-.858.836.847.847 0 0 1-.858-.836c0-.46.383-.835.858-.835a.848.848 0 0 1 .858.835ZM978.723 287.598a.847.847 0 0 1-.858.836.847.847 0 0 1-.857-.836c0-.46.383-.835.857-.835a.85.85 0 0 1 .858.835ZM984.071 287.598a.847.847 0 0 1-.858.836.847.847 0 0 1-.858-.836c0-.46.383-.835.858-.835a.848.848 0 0 1 .858.835ZM976.047 287.598a.846.846 0 0 1-.857.836.847.847 0 0 1-.858-.836c0-.46.383-.835.858-.835a.847.847 0 0 1 .857.835ZM981.395 287.598a.847.847 0 0 1-.858.836.847.847 0 0 1-.857-.836c0-.46.383-.835.857-.835a.85.85 0 0 1 .858.835ZM986.747 287.598a.847.847 0 0 1-.858.836.847.847 0 0 1-.858-.836c0-.46.383-.835.858-.835a.848.848 0 0 1 .858.835ZM989.426 287.598a.847.847 0 0 1-.857.836.847.847 0 0 1-.858-.836c0-.46.383-.835.858-.835a.85.85 0 0 1 .857.835ZM992.102 287.598a.847.847 0 0 1-.858.836.847.847 0 0 1-.857-.836c0-.46.383-.835.857-.835a.85.85 0 0 1 .858.835ZM994.782 287.598a.847.847 0 0 1-.858.836.847.847 0 0 1-.858-.836c0-.46.383-.835.858-.835a.848.848 0 0 1 .858.835ZM997.454 287.598a.847.847 0 0 1-.858.836.847.847 0 0 1-.858-.836c0-.46.383-.835.858-.835a.848.848 0 0 1 .858.835ZM1000.13 287.598a.847.847 0 0 1-.858.836.847.847 0 0 1-.858-.836c0-.46.383-.835.858-.835.472.002.858.375.858.835ZM1002.81 287.598c0 .461-.39.836-.86.836a.844.844 0 0 1-.86-.836c0-.46.38-.835.86-.835.47.002.86.375.86.835ZM1005.26 287.498c0 .461-.16.936-.63.936a.844.844 0 0 1-.86-.836c0-.46.38-.835.86-.835.47.002.63.275.63.735ZM962.665 290.208c0 .46-.383.835-.858.835a.847.847 0 0 1-.858-.835c0-.461.383-.836.858-.836.473 0 .858.373.858.836ZM959.989 287.598a.847.847 0 0 1-.858.836.847.847 0 0 1-.858-.836c0-.46.383-.835.858-.835a.85.85 0 0 1 .858.835ZM959.989 290.208c0 .46-.383.835-.858.835a.847.847 0 0 1-.858-.835c0-.461.383-.836.858-.836.473 0 .858.373.858.836ZM968.02 290.208c0 .46-.383.835-.858.835a.847.847 0 0 1-.857-.835c0-.461.383-.836.857-.836.475 0 .858.373.858.836ZM965.344 287.598a.847.847 0 0 1-.857.836.847.847 0 0 1-.858-.836c0-.46.383-.835.858-.835a.848.848 0 0 1 .857.835ZM965.344 290.208c0 .46-.383.835-.857.835a.847.847 0 0 1-.858-.835c0-.461.383-.836.858-.836.474 0 .857.373.857.836ZM970.692 290.208c0 .46-.383.835-.858.835a.847.847 0 0 1-.857-.835c0-.461.382-.836.857-.836.473 0 .858.373.858.836ZM973.368 290.208c0 .46-.383.835-.858.835a.847.847 0 0 1-.858-.835c0-.461.383-.836.858-.836s.858.373.858.836ZM976.047 290.208c0 .46-.382.835-.857.835a.847.847 0 0 1-.858-.835c0-.461.383-.836.858-.836s.857.373.857.836ZM978.723 290.208c0 .46-.383.835-.858.835a.847.847 0 0 1-.857-.835c0-.461.383-.836.857-.836.473 0 .858.373.858.836ZM981.395 290.208c0 .46-.383.835-.858.835a.847.847 0 0 1-.857-.835c0-.461.383-.836.857-.836.473 0 .858.373.858.836ZM984.071 290.208c0 .46-.383.835-.858.835a.847.847 0 0 1-.858-.835c0-.461.383-.836.858-.836s.858.373.858.836ZM986.747 290.208c0 .46-.383.835-.858.835a.847.847 0 0 1-.858-.835c0-.461.383-.836.858-.836s.858.373.858.836ZM989.426 290.208c0 .46-.383.835-.857.835a.847.847 0 0 1-.858-.835c0-.461.383-.836.858-.836.472 0 .857.373.857.836ZM992.102 290.208c0 .46-.383.835-.858.835a.847.847 0 0 1-.857-.835c0-.461.383-.836.857-.836.473 0 .858.373.858.836ZM994.782 290.208c0 .46-.383.835-.858.835a.847.847 0 0 1-.858-.835c0-.461.383-.836.858-.836s.858.373.858.836ZM997.454 290.208c0 .46-.383.835-.858.835a.847.847 0 0 1-.858-.835c0-.461.383-.836.858-.836s.858.373.858.836ZM1000.13 290.208c0 .46-.383.835-.858.835a.847.847 0 0 1-.858-.835c0-.461.383-.836.858-.836.472 0 .858.373.858.836ZM1002.81 290.208c0 .46-.39.835-.86.835a.844.844 0 0 1-.86-.835c0-.461.38-.836.86-.836.47 0 .86.373.86.836ZM959.989 292.815a.847.847 0 0 1-.858.836.847.847 0 0 1-.858-.836c0-.46.383-.836.858-.836.473 0 .858.376.858.836ZM962.665 292.815a.847.847 0 0 1-.858.836.847.847 0 0 1-.858-.836c0-.46.383-.836.858-.836.473 0 .858.376.858.836ZM965.344 292.815a.847.847 0 0 1-.857.836.847.847 0 0 1-.858-.836c0-.46.383-.836.858-.836.474 0 .857.376.857.836ZM968.02 292.815a.847.847 0 0 1-.858.836.847.847 0 0 1-.857-.836c0-.46.383-.836.857-.836.475 0 .858.376.858.836ZM976.047 292.815a.846.846 0 0 1-.857.836.847.847 0 0 1-.858-.836c0-.46.383-.836.858-.836s.857.376.857.836ZM978.723 292.815a.847.847 0 0 1-.858.836.847.847 0 0 1-.857-.836c0-.46.383-.836.857-.836.473 0 .858.376.858.836ZM981.395 292.815a.847.847 0 0 1-.858.836.847.847 0 0 1-.857-.836c0-.46.383-.836.857-.836.473 0 .858.376.858.836ZM984.071 292.815a.847.847 0 0 1-.858.836.847.847 0 0 1-.858-.836c0-.46.383-.836.858-.836s.858.376.858.836ZM986.747 292.815a.847.847 0 0 1-.858.836.847.847 0 0 1-.858-.836c0-.46.383-.836.858-.836s.858.376.858.836ZM989.426 292.815a.847.847 0 0 1-.857.836.847.847 0 0 1-.858-.836c0-.46.383-.836.858-.836.472 0 .857.376.857.836ZM992.102 292.815a.847.847 0 0 1-.858.836.847.847 0 0 1-.857-.836c0-.46.383-.836.857-.836.473 0 .858.376.858.836ZM994.782 292.815a.847.847 0 0 1-.858.836.847.847 0 0 1-.858-.836c0-.46.383-.836.858-.836s.858.376.858.836ZM997.454 292.815a.847.847 0 0 1-.858.836.847.847 0 0 1-.858-.836c0-.46.383-.836.858-.836s.858.376.858.836ZM1000.13 292.815a.847.847 0 0 1-.858.836.847.847 0 0 1-.858-.836c0-.46.383-.836.858-.836a.85.85 0 0 1 .858.836ZM1002.81 292.815c0 .461-.39.836-.86.836a.844.844 0 0 1-.86-.836c0-.46.38-.836.86-.836.47 0 .86.376.86.836ZM959.989 295.422c0 .46-.383.836-.858.836a.847.847 0 0 1-.858-.836c0-.461.383-.836.858-.836a.85.85 0 0 1 .858.836ZM962.665 295.422c0 .46-.383.836-.858.836a.847.847 0 0 1-.858-.836c0-.461.383-.836.858-.836a.85.85 0 0 1 .858.836ZM970.692 295.422c0 .46-.383.836-.858.836a.847.847 0 0 1-.857-.836c0-.461.382-.836.857-.836a.85.85 0 0 1 .858.836ZM973.368 295.422c0 .46-.383.836-.858.836a.847.847 0 0 1-.858-.836c0-.461.383-.836.858-.836a.848.848 0 0 1 .858.836ZM970.692 292.815a.847.847 0 0 1-.858.836.847.847 0 0 1-.857-.836c0-.46.382-.836.857-.836.473 0 .858.376.858.836ZM973.368 292.815a.847.847 0 0 1-.858.836.847.847 0 0 1-.858-.836c0-.46.383-.836.858-.836s.858.376.858.836ZM965.344 295.422c0 .46-.383.836-.857.836a.847.847 0 0 1-.858-.836c0-.461.383-.836.858-.836a.848.848 0 0 1 .857.836ZM968.02 295.422c0 .46-.383.836-.858.836a.847.847 0 0 1-.857-.836c0-.461.383-.836.857-.836a.848.848 0 0 1 .858.836ZM976.047 295.422c0 .46-.382.836-.857.836a.847.847 0 0 1-.858-.836c0-.461.383-.836.858-.836a.847.847 0 0 1 .857.836ZM978.723 295.422c0 .46-.383.836-.858.836a.847.847 0 0 1-.857-.836c0-.461.383-.836.857-.836a.85.85 0 0 1 .858.836ZM981.395 295.422c0 .46-.383.836-.858.836a.847.847 0 0 1-.857-.836c0-.461.383-.836.857-.836a.85.85 0 0 1 .858.836ZM984.071 295.422c0 .46-.383.836-.858.836a.847.847 0 0 1-.858-.836c0-.461.383-.836.858-.836a.848.848 0 0 1 .858.836ZM986.747 295.422c0 .46-.383.836-.858.836a.847.847 0 0 1-.858-.836c0-.461.383-.836.858-.836a.848.848 0 0 1 .858.836ZM992.102 295.422c0 .46-.383.836-.858.836a.847.847 0 0 1-.857-.836c0-.461.383-.836.857-.836a.85.85 0 0 1 .858.836ZM989.426 295.422c0 .46-.383.836-.857.836a.847.847 0 0 1-.858-.836c0-.461.383-.836.858-.836a.85.85 0 0 1 .857.836ZM994.782 295.422c0 .46-.383.836-.858.836a.847.847 0 0 1-.858-.836c0-.461.383-.836.858-.836a.848.848 0 0 1 .858.836ZM997.454 295.422c0 .46-.383.836-.858.836a.847.847 0 0 1-.858-.836c0-.461.383-.836.858-.836a.848.848 0 0 1 .858.836ZM1000.13 295.422c0 .46-.383.836-.858.836a.847.847 0 0 1-.858-.836c0-.461.383-.836.858-.836a.85.85 0 0 1 .858.836ZM1002.27 295.209c0 .461.15 1.049-.32 1.049a.844.844 0 0 1-.86-.836c0-.461.38-.836.86-.836.47.002.32.163.32.623ZM959.989 298.031a.847.847 0 0 1-.858.836.847.847 0 0 1-.858-.836c0-.46.383-.835.858-.835.473 0 .858.373.858.835ZM962.665 298.031a.847.847 0 0 1-.858.836.847.847 0 0 1-.858-.836c0-.46.383-.835.858-.835.473 0 .858.373.858.835ZM965.344 298.031a.847.847 0 0 1-.857.836.847.847 0 0 1-.858-.836c0-.46.383-.835.858-.835.474 0 .857.373.857.835ZM968.02 298.031a.847.847 0 0 1-.858.836.847.847 0 0 1-.857-.836c0-.46.383-.835.857-.835.475 0 .858.373.858.835ZM970.692 298.031a.847.847 0 0 1-.858.836.847.847 0 0 1-.857-.836c0-.46.382-.835.857-.835.473 0 .858.373.858.835ZM978.723 298.031a.847.847 0 0 1-.858.836.847.847 0 0 1-.857-.836c0-.46.383-.835.857-.835.473 0 .858.373.858.835ZM981.395 298.031a.847.847 0 0 1-.858.836.847.847 0 0 1-.857-.836c0-.46.383-.835.857-.835.473 0 .858.373.858.835ZM973.368 298.031a.847.847 0 0 1-.858.836.847.847 0 0 1-.858-.836c0-.46.383-.835.858-.835s.858.373.858.835ZM976.047 298.031a.846.846 0 0 1-.857.836.847.847 0 0 1-.858-.836c0-.46.383-.835.858-.835s.857.373.857.835ZM986.747 298.031a.847.847 0 0 1-.858.836.847.847 0 0 1-.858-.836c0-.46.383-.835.858-.835s.858.373.858.835ZM984.071 298.031a.847.847 0 0 1-.858.836.847.847 0 0 1-.858-.836c0-.46.383-.835.858-.835s.858.373.858.835ZM989.426 298.031a.847.847 0 0 1-.857.836.847.847 0 0 1-.858-.836c0-.46.383-.835.858-.835.472 0 .857.373.857.835ZM992.102 298.031a.847.847 0 0 1-.858.836.847.847 0 0 1-.857-.836c0-.46.383-.835.857-.835.473 0 .858.373.858.835ZM994.782 298.031a.847.847 0 0 1-.858.836.847.847 0 0 1-.858-.836c0-.46.383-.835.858-.835s.858.373.858.835ZM997.454 298.031a.847.847 0 0 1-.858.836.847.847 0 0 1-.858-.836c0-.46.383-.835.858-.835s.858.373.858.835ZM1000.13 298.031a.847.847 0 0 1-.858.836.847.847 0 0 1-.858-.836c0-.46.383-.835.858-.835.472 0 .858.373.858.835ZM962.665 300.638a.847.847 0 0 1-.858.836.847.847 0 0 1-.858-.836c0-.46.383-.836.858-.836.473 0 .858.376.858.836ZM968.02 300.638a.847.847 0 0 1-.858.836.847.847 0 0 1-.857-.836c0-.46.383-.836.857-.836.475 0 .858.376.858.836ZM965.344 300.638a.847.847 0 0 1-.857.836.847.847 0 0 1-.858-.836c0-.46.383-.836.858-.836.474 0 .857.376.857.836ZM970.692 300.638a.847.847 0 0 1-.858.836.847.847 0 0 1-.857-.836c0-.46.382-.836.857-.836.473 0 .858.376.858.836ZM973.368 300.638a.847.847 0 0 1-.858.836.847.847 0 0 1-.858-.836c0-.46.383-.836.858-.836s.858.376.858.836ZM976.047 300.638a.846.846 0 0 1-.857.836.847.847 0 0 1-.858-.836c0-.46.383-.836.858-.836s.857.376.857.836ZM978.723 300.638a.847.847 0 0 1-.858.836.847.847 0 0 1-.857-.836c0-.46.383-.835.857-.835.473 0 .858.375.858.835ZM981.395 300.638a.847.847 0 0 1-.858.836.847.847 0 0 1-.857-.836c0-.46.383-.836.857-.836.473 0 .858.376.858.836ZM984.071 300.638a.847.847 0 0 1-.858.836.847.847 0 0 1-.858-.836c0-.46.383-.836.858-.836s.858.376.858.836ZM986.747 300.638a.847.847 0 0 1-.858.836.847.847 0 0 1-.858-.836c0-.46.383-.836.858-.836s.858.376.858.836ZM989.426 300.638a.847.847 0 0 1-.857.836.847.847 0 0 1-.858-.836c0-.46.383-.836.858-.836.472 0 .857.376.857.836ZM992.102 300.638a.847.847 0 0 1-.858.836.847.847 0 0 1-.857-.836c0-.46.383-.836.857-.836.473 0 .858.376.858.836ZM994.782 300.638a.847.847 0 0 1-.858.836.847.847 0 0 1-.858-.836c0-.46.383-.836.858-.836s.858.376.858.836ZM997.454 300.638a.847.847 0 0 1-.858.836.847.847 0 0 1-.858-.836c0-.46.383-.836.858-.836s.858.376.858.836ZM1000.13 300.638a.847.847 0 0 1-.858.836.847.847 0 0 1-.858-.836c0-.46.383-.836.858-.836a.85.85 0 0 1 .858.836ZM959.989 303.245a.847.847 0 0 1-.858.836.847.847 0 0 1-.858-.836c0-.46.383-.835.858-.835.473 0 .858.375.858.835ZM962.665 303.245a.847.847 0 0 1-.858.836.847.847 0 0 1-.858-.836c0-.46.383-.835.858-.835.473 0 .858.375.858.835ZM965.344 303.245a.847.847 0 0 1-.857.836.847.847 0 0 1-.858-.836c0-.46.383-.835.858-.835.474 0 .857.375.857.835ZM970.692 303.245a.847.847 0 0 1-.858.836.847.847 0 0 1-.857-.836c0-.46.382-.835.857-.835.473 0 .858.375.858.835ZM968.02 303.245a.847.847 0 0 1-.858.836.847.847 0 0 1-.857-.836c0-.46.383-.835.857-.835.475 0 .858.375.858.835ZM976.047 303.245a.846.846 0 0 1-.857.836.847.847 0 0 1-.858-.836c0-.46.383-.835.858-.835s.857.375.857.835ZM981.395 303.245a.847.847 0 0 1-.858.836.847.847 0 0 1-.857-.836c0-.46.383-.835.857-.835.473 0 .858.375.858.835ZM984.071 303.245a.847.847 0 0 1-.858.836.847.847 0 0 1-.858-.836c0-.46.383-.835.858-.835s.858.375.858.835ZM986.747 303.245a.847.847 0 0 1-.858.836.847.847 0 0 1-.858-.836c0-.46.383-.835.858-.835s.858.375.858.835ZM973.368 303.245a.847.847 0 0 1-.858.836.847.847 0 0 1-.858-.836c0-.46.383-.835.858-.835s.858.375.858.835ZM978.723 303.245a.847.847 0 0 1-.858.836.847.847 0 0 1-.857-.836c0-.46.383-.835.857-.835.473 0 .858.375.858.835ZM989.426 303.245a.847.847 0 0 1-.857.836.847.847 0 0 1-.858-.836c0-.46.383-.835.858-.835.472 0 .857.375.857.835ZM992.102 303.245a.847.847 0 0 1-.858.836.847.847 0 0 1-.857-.836c0-.46.383-.835.857-.835.473 0 .858.375.858.835ZM994.782 303.245a.847.847 0 0 1-.858.836.847.847 0 0 1-.858-.836c0-.46.383-.835.858-.835s.858.375.858.835ZM997.454 303.245a.847.847 0 0 1-.858.836.847.847 0 0 1-.858-.836c0-.46.383-.835.858-.835s.858.375.858.835ZM962.665 305.852a.847.847 0 0 1-.858.836.847.847 0 0 1-.858-.836c0-.46.383-.835.858-.835a.85.85 0 0 1 .858.835ZM959.989 300.638a.847.847 0 0 1-.858.836.847.847 0 0 1-.858-.836c0-.46.383-.835.858-.835.473 0 .858.375.858.835ZM959.989 305.852a.847.847 0 0 1-.858.836.847.847 0 0 1-.858-.836c0-.46.383-.835.858-.835a.85.85 0 0 1 .858.835ZM965.344 305.852a.847.847 0 0 1-.857.836.847.847 0 0 1-.858-.836c0-.46.383-.835.858-.835a.848.848 0 0 1 .857.835ZM968.02 305.852a.847.847 0 0 1-.858.836.847.847 0 0 1-.857-.836c0-.46.383-.835.857-.835a.848.848 0 0 1 .858.835ZM973.368 305.852a.847.847 0 0 1-.858.836.847.847 0 0 1-.858-.836c0-.46.383-.835.858-.835a.848.848 0 0 1 .858.835ZM976.047 305.852a.846.846 0 0 1-.857.836.847.847 0 0 1-.858-.836c0-.46.383-.835.858-.835a.847.847 0 0 1 .857.835ZM978.723 305.852a.847.847 0 0 1-.858.836.847.847 0 0 1-.857-.836c0-.46.383-.835.857-.835a.848.848 0 0 1 .858.835ZM981.395 305.852a.847.847 0 0 1-.858.836.847.847 0 0 1-.857-.836c0-.46.383-.835.857-.835a.85.85 0 0 1 .858.835ZM986.747 305.852a.847.847 0 0 1-.858.836.847.847 0 0 1-.858-.836c0-.46.383-.835.858-.835a.848.848 0 0 1 .858.835ZM992.102 305.852a.847.847 0 0 1-.858.836.847.847 0 0 1-.857-.836c0-.46.383-.835.857-.835a.85.85 0 0 1 .858.835ZM984.071 305.852a.847.847 0 0 1-.858.836.847.847 0 0 1-.858-.836c0-.46.383-.835.858-.835a.848.848 0 0 1 .858.835ZM989.426 305.852a.847.847 0 0 1-.857.836.847.847 0 0 1-.858-.836c0-.46.383-.835.858-.835a.85.85 0 0 1 .857.835ZM994.782 305.852a.847.847 0 0 1-.858.836.847.847 0 0 1-.858-.836c0-.46.383-.835.858-.835a.848.848 0 0 1 .858.835ZM997.348 305.733c0 .461-.277.955-.752.955a.847.847 0 0 1-.858-.836c0-.46.383-.835.858-.835.475.002.752.256.752.716ZM959.989 308.462c0 .46-.383.835-.858.835a.847.847 0 0 1-.858-.835c0-.461.383-.836.858-.836.473 0 .858.373.858.836ZM962.665 308.462c0 .46-.383.835-.858.835a.847.847 0 0 1-.858-.835c0-.461.383-.836.858-.836.473 0 .858.373.858.836ZM965.344 308.462c0 .46-.383.835-.857.835a.847.847 0 0 1-.858-.835c0-.461.383-.836.858-.836.474 0 .857.373.857.836ZM968.02 308.462c0 .46-.383.835-.858.835a.847.847 0 0 1-.857-.835c0-.461.383-.836.857-.836.475 0 .858.373.858.836ZM970.692 308.462c0 .46-.383.835-.858.835a.847.847 0 0 1-.857-.835c0-.461.382-.836.857-.836.473 0 .858.373.858.836ZM973.368 308.462c0 .46-.383.835-.858.835a.847.847 0 0 1-.858-.835c0-.461.383-.836.858-.836s.858.373.858.836ZM976.047 308.462c0 .46-.382.835-.857.835a.847.847 0 0 1-.858-.835c0-.461.383-.836.858-.836s.857.373.857.836ZM978.723 308.462c0 .46-.383.835-.858.835a.847.847 0 0 1-.857-.835c0-.461.383-.836.857-.836.475 0 .858.373.858.836ZM981.395 308.462c0 .46-.383.835-.858.835a.847.847 0 0 1-.857-.835c0-.461.383-.836.857-.836.473 0 .858.373.858.836ZM984.071 308.462c0 .46-.383.835-.858.835a.847.847 0 0 1-.858-.835c0-.461.383-.836.858-.836s.858.373.858.836ZM986.747 308.462c0 .46-.383.835-.858.835a.847.847 0 0 1-.858-.835c0-.461.383-.836.858-.836s.858.373.858.836ZM989.426 308.462c0 .46-.383.835-.857.835a.847.847 0 0 1-.858-.835c0-.461.383-.836.858-.836.472 0 .857.373.857.836ZM992.102 308.462c0 .46-.383.835-.858.835a.847.847 0 0 1-.857-.835c0-.461.383-.836.857-.836.473 0 .858.373.858.836ZM994.782 308.462c0 .46-.383.835-.858.835a.847.847 0 0 1-.858-.835c0-.461.383-.836.858-.836s.858.373.858.836ZM959.989 311.068a.847.847 0 0 1-.858.836.847.847 0 0 1-.858-.836c0-.46.383-.835.858-.835.473 0 .858.375.858.835ZM965.344 311.068a.847.847 0 0 1-.857.836.847.847 0 0 1-.858-.836c0-.46.383-.835.858-.835.474 0 .857.375.857.835ZM968.02 311.068a.847.847 0 0 1-.858.836.847.847 0 0 1-.857-.836c0-.46.383-.835.857-.835.475 0 .858.375.858.835ZM970.692 311.068a.847.847 0 0 1-.858.836.847.847 0 0 1-.857-.836c0-.46.382-.835.857-.835.473 0 .858.375.858.835ZM973.368 311.068a.847.847 0 0 1-.858.836.847.847 0 0 1-.858-.836c0-.46.383-.835.858-.835s.858.375.858.835ZM978.723 311.068a.847.847 0 0 1-.858.836.847.847 0 0 1-.857-.836c0-.46.383-.835.857-.835.475 0 .858.375.858.835ZM984.071 311.068a.847.847 0 0 1-.858.836.847.847 0 0 1-.858-.836c0-.46.383-.835.858-.835s.858.375.858.835ZM976.047 311.068a.846.846 0 0 1-.857.836.847.847 0 0 1-.858-.836c0-.46.383-.835.858-.835s.857.375.857.835ZM981.395 311.068a.847.847 0 0 1-.858.836.847.847 0 0 1-.857-.836c0-.46.383-.835.857-.835.473 0 .858.375.858.835ZM986.747 311.068a.847.847 0 0 1-.858.836.847.847 0 0 1-.858-.836c0-.46.383-.835.858-.835s.858.375.858.835ZM989.426 311.068a.847.847 0 0 1-.857.836.847.847 0 0 1-.858-.836c0-.46.383-.835.858-.835.472 0 .857.375.857.835ZM992.102 311.068a.847.847 0 0 1-.858.836.847.847 0 0 1-.857-.836c0-.46.383-.835.857-.835.473 0 .858.375.858.835ZM959.989 313.676c0 .46-.383.835-.858.835a.847.847 0 0 1-.858-.835c0-.461.383-.836.858-.836a.85.85 0 0 1 .858.836ZM965.344 313.676c0 .46-.383.835-.857.835a.847.847 0 0 1-.858-.835c0-.461.383-.836.858-.836a.848.848 0 0 1 .857.836ZM962.665 311.068a.847.847 0 0 1-.858.836.847.847 0 0 1-.858-.836c0-.46.383-.835.858-.835.473 0 .858.375.858.835ZM962.665 313.676c0 .46-.383.835-.858.835a.847.847 0 0 1-.858-.835c0-.461.383-.836.858-.836a.85.85 0 0 1 .858.836ZM968.02 313.676c0 .46-.383.835-.858.835a.847.847 0 0 1-.857-.835c0-.461.383-.836.857-.836a.848.848 0 0 1 .858.836ZM973.368 313.676c0 .46-.383.835-.858.835a.847.847 0 0 1-.858-.835c0-.461.383-.836.858-.836a.848.848 0 0 1 .858.836ZM970.692 305.852a.847.847 0 0 1-.858.836.847.847 0 0 1-.857-.836c0-.46.382-.835.857-.835a.85.85 0 0 1 .858.835ZM970.692 313.676c0 .46-.383.835-.858.835a.847.847 0 0 1-.857-.835c0-.461.382-.836.857-.836a.85.85 0 0 1 .858.836ZM976.047 313.676c0 .46-.382.835-.857.835a.847.847 0 0 1-.858-.835c0-.461.383-.836.858-.836a.847.847 0 0 1 .857.836ZM978.723 313.676c0 .46-.383.835-.858.835a.847.847 0 0 1-.857-.835c0-.461.383-.836.857-.836a.848.848 0 0 1 .858.836ZM981.395 313.676c0 .46-.383.835-.858.835a.847.847 0 0 1-.857-.835c0-.461.383-.836.857-.836a.85.85 0 0 1 .858.836ZM984.071 313.676c0 .46-.383.835-.858.835a.847.847 0 0 1-.858-.835c0-.461.383-.836.858-.836a.848.848 0 0 1 .858.836ZM989.426 313.676c0 .46-.383.835-.857.835a.847.847 0 0 1-.858-.835c0-.461.383-.836.858-.836a.85.85 0 0 1 .857.836ZM986.747 313.676c0 .46-.383.835-.858.835a.847.847 0 0 1-.858-.835c0-.461.383-.836.858-.836a.848.848 0 0 1 .858.836ZM992.102 313.676c0 .46-.383.835-.858.835a.847.847 0 0 1-.857-.835c0-.461.383-.836.857-.836a.85.85 0 0 1 .858.836ZM959.989 316.285c0 .46-.383.835-.858.835a.847.847 0 0 1-.858-.835c0-.461.383-.836.858-.836.473 0 .858.373.858.836ZM962.665 316.285c0 .46-.383.835-.858.835a.847.847 0 0 1-.858-.835c0-.461.383-.836.858-.836.473 0 .858.373.858.836ZM965.344 316.285c0 .46-.383.835-.857.835a.847.847 0 0 1-.858-.835c0-.461.383-.836.858-.836.474 0 .857.373.857.836ZM968.02 316.285c0 .46-.383.835-.858.835a.847.847 0 0 1-.857-.835c0-.461.383-.836.857-.836.475 0 .858.373.858.836ZM970.692 316.285c0 .46-.383.835-.858.835a.847.847 0 0 1-.857-.835c0-.461.382-.836.857-.836.473 0 .858.373.858.836ZM978.723 316.285c0 .46-.383.835-.858.835a.847.847 0 0 1-.857-.835c0-.461.383-.836.857-.836.475 0 .858.373.858.836ZM984.071 316.285c0 .46-.383.835-.858.835a.847.847 0 0 1-.858-.835c0-.461.383-.836.858-.836s.858.373.858.836ZM986.747 316.285c0 .46-.383.835-.858.835a.847.847 0 0 1-.858-.835c0-.461.383-.836.858-.836s.858.373.858.836ZM989.426 316.285c0 .46-.383.835-.857.835a.847.847 0 0 1-.858-.835c0-.461.383-.836.858-.836.472 0 .857.373.857.836ZM959.989 318.892c0 .46-.383.835-.858.835a.847.847 0 0 1-.858-.835c0-.461.383-.836.858-.836.473 0 .858.375.858.836ZM962.665 318.892c0 .46-.383.836-.858.836a.848.848 0 0 1-.858-.836c0-.461.383-.836.858-.836.473 0 .858.375.858.836ZM968.02 318.892c0 .46-.383.836-.858.836a.847.847 0 0 1-.857-.836c0-.461.383-.836.857-.836.475 0 .858.375.858.836ZM965.344 318.892c0 .46-.383.836-.857.836a.848.848 0 0 1-.858-.836c0-.461.383-.836.858-.836.474 0 .857.375.857.836ZM970.692 318.892c0 .46-.383.836-.858.836a.847.847 0 0 1-.857-.836c0-.461.382-.836.857-.836.473 0 .858.375.858.836ZM973.368 318.892c0 .46-.383.836-.858.836a.848.848 0 0 1-.858-.836c0-.461.383-.836.858-.836s.858.375.858.836ZM978.723 318.892c0 .46-.383.835-.858.835a.847.847 0 0 1-.857-.835c0-.461.383-.836.857-.836.475 0 .858.375.858.836ZM981.395 318.892c0 .46-.383.836-.858.836a.847.847 0 0 1-.857-.836c0-.461.383-.836.857-.836.473 0 .858.375.858.836ZM984.071 318.892c0 .46-.383.836-.858.836a.848.848 0 0 1-.858-.836c0-.461.383-.836.858-.836s.858.375.858.836ZM986.747 318.892c0 .46-.383.836-.858.836a.848.848 0 0 1-.858-.836c0-.461.383-.836.858-.836s.858.375.858.836ZM959.989 321.499c0 .46-.383.835-.858.835a.847.847 0 0 1-.858-.835c0-.461.383-.836.858-.836.473 0 .858.375.858.836ZM962.665 321.499c0 .46-.383.835-.858.835a.847.847 0 0 1-.858-.835c0-.461.383-.836.858-.836.473 0 .858.375.858.836ZM965.344 321.499c0 .46-.383.835-.857.835a.847.847 0 0 1-.858-.835c0-.461.383-.836.858-.836.474 0 .857.375.857.836ZM968.02 321.499c0 .46-.383.835-.858.835a.847.847 0 0 1-.857-.835c0-.461.383-.836.857-.836.475 0 .858.375.858.836ZM970.692 321.499c0 .46-.383.835-.858.835a.847.847 0 0 1-.857-.835c0-.461.382-.836.857-.836.473 0 .858.375.858.836ZM973.368 321.499c0 .46-.383.835-.858.835a.847.847 0 0 1-.858-.835c0-.461.383-.836.858-.836s.858.375.858.836ZM978.723 321.499c0 .46-.383.835-.858.835a.847.847 0 0 1-.857-.835c0-.461.383-.836.857-.836.475 0 .858.375.858.836ZM976.047 316.285c0 .46-.382.835-.857.835a.847.847 0 0 1-.858-.835c0-.461.383-.836.858-.836s.857.373.857.836ZM973.368 316.285c0 .46-.383.835-.858.835a.847.847 0 0 1-.858-.835c0-.461.383-.836.858-.836s.858.373.858.836ZM976.047 318.892c0 .46-.382.836-.857.836a.848.848 0 0 1-.858-.836c0-.461.383-.836.858-.836s.857.375.857.836ZM976.047 321.499c0 .46-.382.835-.857.835a.847.847 0 0 1-.858-.835c0-.461.383-.836.858-.836s.857.375.857.836ZM984.071 321.499c0 .46-.383.835-.858.835a.847.847 0 0 1-.858-.835c0-.461.383-.836.858-.836s.858.375.858.836ZM981.395 316.285c0 .46-.383.835-.858.835a.847.847 0 0 1-.857-.835c0-.461.383-.836.857-.836.473 0 .858.373.858.836ZM981.395 321.499c0 .46-.383.835-.858.835a.847.847 0 0 1-.857-.835c0-.461.383-.836.857-.836.473 0 .858.375.858.836ZM962.665 324.106c0 .46-.383.836-.858.836a.847.847 0 0 1-.858-.836c0-.461.383-.836.858-.836a.85.85 0 0 1 .858.836ZM965.344 324.106c0 .46-.383.836-.857.836a.847.847 0 0 1-.858-.836c0-.461.383-.836.858-.836a.848.848 0 0 1 .857.836ZM968.02 324.106c0 .46-.383.836-.858.836a.847.847 0 0 1-.857-.836c0-.461.383-.836.857-.836a.848.848 0 0 1 .858.836ZM970.692 324.106c0 .46-.383.836-.858.836a.847.847 0 0 1-.857-.836c0-.461.382-.836.857-.836a.85.85 0 0 1 .858.836ZM976.047 324.106c0 .46-.382.836-.857.836a.847.847 0 0 1-.858-.836c0-.461.383-.836.858-.836a.847.847 0 0 1 .857.836ZM973.368 324.106c0 .46-.383.836-.858.836a.847.847 0 0 1-.858-.836c0-.461.383-.836.858-.836a.848.848 0 0 1 .858.836ZM978.723 324.106c0 .46-.383.836-.858.836a.847.847 0 0 1-.857-.836c0-.461.383-.836.857-.836a.848.848 0 0 1 .858.836ZM981.395 324.106c0 .46-.383.836-.858.836a.847.847 0 0 1-.857-.836c0-.461.383-.836.857-.836a.85.85 0 0 1 .858.836ZM959.989 326.715a.847.847 0 0 1-.858.836.847.847 0 0 1-.858-.836c0-.46.383-.836.858-.836.473 0 .858.373.858.836ZM965.344 326.715a.847.847 0 0 1-.857.836.847.847 0 0 1-.858-.836c0-.46.383-.836.858-.836.474 0 .857.373.857.836ZM962.665 326.715a.847.847 0 0 1-.858.836.847.847 0 0 1-.858-.836c0-.46.383-.836.858-.836.473 0 .858.373.858.836ZM973.368 326.715a.847.847 0 0 1-.858.836.847.847 0 0 1-.858-.836c0-.46.383-.836.858-.836s.858.373.858.836ZM976.047 326.715a.846.846 0 0 1-.857.836.847.847 0 0 1-.858-.836c0-.46.383-.836.858-.836s.857.373.857.836ZM978.723 326.715a.847.847 0 0 1-.858.836.847.847 0 0 1-.857-.836c0-.46.383-.836.857-.836.475 0 .858.373.858.836ZM959.989 329.322a.847.847 0 0 1-.858.836.847.847 0 0 1-.858-.836c0-.461.383-.836.858-.836.473 0 .858.375.858.836ZM962.665 329.322a.847.847 0 0 1-.858.836.847.847 0 0 1-.858-.836c0-.461.383-.836.858-.836.473 0 .858.375.858.836ZM973.368 329.322a.847.847 0 0 1-.858.836.847.847 0 0 1-.858-.836c0-.461.383-.836.858-.836s.858.375.858.836ZM970.692 326.715a.847.847 0 0 1-.858.836.847.847 0 0 1-.857-.836c0-.46.382-.836.857-.836.473 0 .858.373.858.836ZM970.692 329.322a.847.847 0 0 1-.858.836.847.847 0 0 1-.857-.836c0-.461.382-.836.857-.836.473 0 .858.375.858.836ZM968.02 326.715a.847.847 0 0 1-.858.836.847.847 0 0 1-.857-.836c0-.46.383-.836.857-.836.475 0 .858.373.858.836ZM968.02 329.322a.847.847 0 0 1-.858.836.847.847 0 0 1-.857-.836c0-.461.383-.836.857-.836.475 0 .858.375.858.836ZM959.989 331.929a.847.847 0 0 1-.858.836.847.847 0 0 1-.858-.836c0-.461.383-.836.858-.836a.85.85 0 0 1 .858.836ZM962.665 331.929c0 .46-.383.836-.858.836a.847.847 0 0 1-.858-.836c0-.461.383-.836.858-.836a.85.85 0 0 1 .858.836ZM968.02 331.929c0 .46-.383.836-.858.836a.847.847 0 0 1-.857-.836c0-.461.383-.836.857-.836a.848.848 0 0 1 .858.836ZM965.344 329.322a.847.847 0 0 1-.857.836.847.847 0 0 1-.858-.836c0-.461.383-.836.858-.836.474 0 .857.375.857.836ZM965.344 331.929c0 .46-.383.836-.857.836a.847.847 0 0 1-.858-.836c0-.461.383-.836.858-.836a.848.848 0 0 1 .857.836ZM970.692 331.929c0 .46-.383.836-.858.836a.847.847 0 0 1-.857-.836c0-.461.382-.836.857-.836a.85.85 0 0 1 .858.836ZM976.068 329.074c0 .461-1.022.938-1.496.938-.473 0-.242-.227-.242-.69 0-.461.383-.836.857-.836.475 0 .881.127.881.588ZM962.665 334.538c0 .461-.345.059-.82.059-.473 0-.428-.059-.896-.059 0-.46.383-.835.858-.835.473 0 .858.373.858.835ZM965.344 334.538c0 .461-.383.371-.857.371-.473 0-.858.092-.858-.371 0-.46.383-.835.858-.835.474 0 .857.373.857.835ZM959.989 324.106c0 .46-.383.836-.858.836a.847.847 0 0 1-.858-.836c0-.461.383-.836.858-.836a.85.85 0 0 1 .858.836Z" fill="#3136BD"/><path d="M964.19 366.534c49.49 0 89.61-38.857 89.61-86.79 0-47.933-40.12-86.79-89.61-86.79-49.489 0-89.608 38.857-89.608 86.79 0 47.933 40.119 86.79 89.608 86.79Z" stroke="url(#m)" stroke-width="1.061" stroke-miterlimit="10"/></g></g><defs><linearGradient id="b" x1="-152.245" y1="781.888" x2="1683.7" y2="-38.924" gradientUnits="userSpaceOnUse"><stop offset=".325" stop-color="#F8F8FE"/><stop offset="1" stop-color="#494FE1" stop-opacity=".93"/></linearGradient><linearGradient id="f" x1="868.588" y1="202.627" x2="1042.11" y2="351.978" gradientUnits="userSpaceOnUse"><stop offset="0" stop-color="#3D4FC7"/><stop offset=".254" stop-color="#3D4FC7" stop-opacity=".72"/><stop offset=".391" stop-color="#3D4FC7" stop-opacity=".64"/><stop offset=".501" stop-color="#3D4FC7" stop-opacity=".48"/><stop offset=".595" stop-color="#3D4FC7" stop-opacity=".4"/><stop offset=".68" stop-color="#3D4FC7" stop-opacity=".32"/><stop offset=".759" stop-color="#3D4FC7" stop-opacity=".24"/><stop offset=".832" stop-color="#6266C6" stop-opacity=".16"/><stop offset=".901" stop-color="#6266C6" stop-opacity=".1"/><stop offset=".965" stop-color="#6266C6" stop-opacity=".03"/><stop offset="1" stop-opacity="0"/><stop offset="1" stop-color="#EFF0F8"/></linearGradient><linearGradient id="g" x1="1063.23" y1="352.386" x2="892.046" y2="200.372" gradientUnits="userSpaceOnUse"><stop offset="0" stop-color="#3D4FC7"/><stop offset=".254" stop-color="#3D4FC7" stop-opacity=".72"/><stop offset=".391" stop-color="#3D4FC7" stop-opacity=".6"/><stop offset=".501" stop-color="#3D4FC7" stop-opacity=".5"/><stop offset=".595" stop-color="#3D4FC7" stop-opacity=".4"/><stop offset=".68" stop-color="#3D4FC7" stop-opacity=".32"/><stop offset=".759" stop-color="#3D4FC7" stop-opacity=".24"/><stop offset=".832" stop-color="#3D4FC7" stop-opacity=".16"/><stop offset=".901" stop-color="#3D4FC7" stop-opacity=".08"/><stop offset=".94" stop-color="#6266C6" stop-opacity=".04"/><stop offset=".965" stop-color="#3D4FC7" stop-opacity=".04"/><stop offset="1" stop-color="#3D4FC7" stop-opacity=".02"/></linearGradient><linearGradient id="h" x1="1063.23" y1="352.386" x2="892.046" y2="200.372" gradientUnits="userSpaceOnUse"><stop offset="0" stop-color="#3D4FC7"/><stop offset=".254" stop-color="#3D4FC7" stop-opacity=".72"/><stop offset=".391" stop-color="#3D4FC7" stop-opacity=".64"/><stop offset=".501" stop-color="#3D4FC7" stop-opacity=".64"/><stop offset=".595" stop-color="#3D4FC7" stop-opacity=".4"/><stop offset=".68" stop-color="#3D4FC7" stop-opacity=".32"/><stop offset=".759" stop-color="#3D4FC7" stop-opacity=".24"/><stop offset=".832" stop-color="#3D4FC7" stop-opacity=".16"/><stop offset=".901" stop-color="#3D4FC7" stop-opacity=".08"/><stop offset=".965" stop-color="#3D4FC7" stop-opacity=".04"/><stop offset="1" stop-color="#3D4FC7" stop-opacity="0"/></linearGradient><linearGradient id="i" x1="1010.65" y1="413.507" x2="837.645" y2="263.563" gradientUnits="userSpaceOnUse"><stop offset="0" stop-color="#3D4FC7"/><stop offset=".254" stop-color="#3D4FC7" stop-opacity=".72"/><stop offset=".391" stop-color="#3D4FC7" stop-opacity=".6"/><stop offset=".501" stop-color="#3D4FC7" stop-opacity=".48"/><stop offset=".595" stop-color="#3D4FC7" stop-opacity=".4"/><stop offset=".68" stop-color="#3D4FC7" stop-opacity=".4"/><stop offset=".759" stop-color="#3D4FC7" stop-opacity=".24"/><stop offset=".832" stop-color="#3D4FC7" stop-opacity=".16"/><stop offset=".901" stop-color="#3D4FC7" stop-opacity=".08"/><stop offset=".965" stop-color="#3D4FC7" stop-opacity=".04"/><stop offset="1" stop-color="#3D4FC7" stop-opacity="0"/></linearGradient><linearGradient id="j" x1="1070.82" y1="341.571" x2="893.251" y2="197.058" gradientUnits="userSpaceOnUse"><stop offset="0" stop-color="#3D4FC7"/><stop offset=".122" stop-color="#3D4FC7" stop-opacity=".8"/><stop offset=".254" stop-color="#3D4FC7" stop-opacity=".72"/><stop offset=".391" stop-color="#3D4FC7" stop-opacity=".6"/><stop offset=".501" stop-color="#3D4FC7" stop-opacity=".48"/><stop offset=".595" stop-color="#3D4FC7" stop-opacity=".4"/><stop offset=".68" stop-color="#3D4FC7" stop-opacity=".32"/><stop offset=".759" stop-color="#3D4FC7" stop-opacity=".24"/><stop offset=".832" stop-color="#3D4FC7" stop-opacity=".16"/><stop offset=".865" stop-color="#4E54D1" stop-opacity=".122"/><stop offset=".901" stop-color="#3D4FC7" stop-opacity=".08"/><stop offset=".965" stop-color="#3D4FC7" stop-opacity=".04"/><stop offset="1" stop-opacity="0"/><stop offset="1" stop-color="#6266C6" stop-opacity="0"/><stop offset="1" stop-color="#3D4FC7" stop-opacity="0"/></linearGradient><linearGradient id="k" x1="1014.56" y1="277.833" x2="913.399" y2="277.833" gradientUnits="userSpaceOnUse"><stop offset=".443" stop-color="#fff"/><stop offset=".589" stop-color="#A1A1A1"/><stop offset=".732" stop-color="#4A4A4A"/><stop offset=".832" stop-color="#151515"/><stop offset=".88"/></linearGradient><linearGradient id="m" x1="895.442" y1="223.901" x2="1029.29" y2="339.799" gradientUnits="userSpaceOnUse"><stop stop-color="#57C3F9" stop-opacity=".2"/><stop offset=".489" stop-color="#57C3F9"/><stop offset=".761" stop-color="#57C3F9"/><stop offset="1" stop-color="#57C3F9" stop-opacity=".5"/></linearGradient><filter id="c" x="704.41" y="18.274" width="520.686" height="520.685" filterUnits="userSpaceOnUse" color-interpolation-filters="sRGB"><feFlood flood-opacity="0" result="BackgroundImageFix"/><feColorMatrix in="SourceAlpha" values="0 0 0 0 0 0 0 0 0 0 0 0 0 0 0 0 0 0 127 0" result="hardAlpha"/><feOffset/><feGaussianBlur stdDeviation="40"/><feComposite in2="hardAlpha" operator="out"/><feColorMatrix values="0 0 0 0 0.777767 0 0 0 0 0.797986 0 0 0 0 0.865384 0 0 0 0.4 0"/><feBlend in2="BackgroundImageFix" result="effect1_dropShadow_3031_173720"/><feBlend in="SourceGraphic" in2="effect1_dropShadow_3031_173720" result="shape"/></filter><filter id="d" x="714.859" y="115.156" width="557.615" height="474.565" filterUnits="userSpaceOnUse" color-interpolation-filters="sRGB"><feFlood flood-opacity="0" result="BackgroundImageFix"/><feColorMatrix in="SourceAlpha" values="0 0 0 0 0 0 0 0 0 0 0 0 0 0 0 0 0 0 127 0" result="hardAlpha"/><feOffset/><feGaussianBlur stdDeviation="40"/><feComposite in2="hardAlpha" operator="out"/><feColorMatrix values="0 0 0 0 0.777767 0 0 0 0 0.797986 0 0 0 0 0.865384 0 0 0 0.4 0"/><feBlend in2="BackgroundImageFix" result="effect1_dropShadow_3031_173720"/><feBlend in="SourceGraphic" in2="effect1_dropShadow_3031_173720" result="shape"/></filter><filter id="e" x="808.766" y="122.631" width="311.971" height="311.971" filterUnits="userSpaceOnUse" color-interpolation-filters="sRGB"><feFlood flood-opacity="0" result="BackgroundImageFix"/><feColorMatrix in="SourceAlpha" values="0 0 0 0 0 0 0 0 0 0 0 0 0 0 0 0 0 0 127 0" result="hardAlpha"/><feOffset/><feGaussianBlur stdDeviation="16"/><feComposite in2="hardAlpha" operator="out"/><feColorMatrix values="0 0 0 0 0.886275 0 0 0 0 0.894118 0 0 0 0 0.945098 0 0 0 0.6 0"/><feBlend in2="BackgroundImageFix" result="effect1_dropShadow_3031_173720"/><feBlend in="SourceGraphic" in2="effect1_dropShadow_3031_173720" result="shape"/></filter><clipPath id="a"><path fill="#fff" d="M0 0h1366v603H0z"/></clipPath></defs></svg>