<svg width="1275" height="256" viewBox="0 0 1275 256" fill="none" xmlns="http://www.w3.org/2000/svg">
<path fill-rule="evenodd" clip-rule="evenodd" d="M1164.68 10.4933C1176.2 5.17696 1187.67 0.613602 1202.58 1.59741C1220.43 2.7753 1238.12 14.6218 1251.39 26.2549C1258.01 32.0619 1263.51 37.7961 1267.36 42.0787C1269.28 44.2197 1270.79 45.9972 1271.82 47.2386C1272.33 47.8593 1272.73 48.3459 1272.99 48.6768C1273.12 48.8423 1273.22 48.9689 1273.29 49.0538L1273.37 49.1497L1273.38 49.1736L1273.39 49.1808C1273.39 49.1808 1273.39 49.1812 1273.79 48.8752C1274.18 48.5692 1274.18 48.5685 1274.18 48.5685L1274.17 48.5602L1274.15 48.5348L1274.08 48.4359C1274.01 48.349 1273.91 48.2203 1273.77 48.0527C1273.5 47.7175 1273.11 47.2265 1272.59 46.6011C1271.56 45.3505 1270.04 43.5627 1268.11 41.4105C1264.24 37.1067 1258.71 31.3427 1252.05 25.5029C1238.74 13.8423 1220.84 1.80044 1202.65 0.599585C1187.48 -0.401501 1175.82 4.25457 1164.26 9.58516C1162.97 10.1787 1161.68 10.7805 1160.4 11.3838C1150.1 16.2035 1139.59 21.1213 1126.39 22.7661C1111.99 24.5597 1100.11 21.118 1088.13 17.606L1087.89 17.5369C1076 14.0509 1063.99 10.5296 1049.43 12.1932C1037.14 13.5972 1028.29 17.6423 1021.3 23.1128C1014.33 28.5752 1009.24 35.4429 1004.47 42.4455C1003.67 43.6217 1002.87 44.8016 1002.08 45.9795C993.423 58.8579 984.918 71.5065 966.845 76.7094C947.061 82.4046 930.557 78.3205 913.907 73.0829C912.036 72.4944 910.163 71.8911 908.283 71.2855C893.45 66.5078 878.188 61.592 860.245 62.7213C836.772 64.1986 823.408 71.8104 811.699 81.2009C808.492 83.773 805.419 86.4682 802.302 89.2018C794.033 96.453 785.457 103.974 773.257 110.183C744.851 124.642 720.591 121.431 692.383 117.698C686.497 116.92 680.439 116.118 674.136 115.449C655.812 113.506 642.987 116.911 632.664 123.625C622.366 130.323 614.601 140.292 606.357 151.367C605.729 152.21 605.099 153.06 604.464 153.916C588.411 175.55 569.608 200.89 526.504 215.369C511.184 220.516 493.661 216.362 475.932 210.236C470.932 208.508 465.95 206.637 461.002 204.778C457.166 203.337 453.35 201.903 449.563 200.551C440.927 197.467 432.511 194.831 424.596 193.599C417.477 192.491 409.986 193.338 402.347 195.101C395.325 196.723 388.147 199.127 380.996 201.523C380.37 201.732 379.744 201.942 379.119 202.151C363.526 207.362 348.174 212.177 334.522 208.747C334.254 208.679 333.982 208.842 333.915 209.11C333.848 209.377 334.01 209.649 334.278 209.716C348.265 213.231 363.91 208.288 379.436 203.099C380.059 202.891 380.683 202.682 381.306 202.473C388.467 200.075 395.6 197.685 402.572 196.076C410.149 194.326 417.5 193.507 424.443 194.587C432.26 195.804 440.604 198.413 449.227 201.493C452.971 202.83 456.781 204.261 460.621 205.703C465.591 207.57 470.612 209.455 475.605 211.181C493.335 217.308 511.152 221.581 526.822 216.317C570.227 201.738 589.189 176.18 605.256 154.526C605.895 153.665 606.528 152.811 607.159 151.964C615.414 140.875 623.083 131.05 633.209 124.464C643.31 117.893 655.898 114.521 674.031 116.444C680.281 117.107 686.305 117.905 692.173 118.683C720.402 122.424 745.006 125.685 773.711 111.075C786.031 104.804 794.745 97.1621 803.041 89.8866C806.138 87.1702 809.178 84.5048 812.325 81.981C823.907 72.6924 837.079 65.1812 860.308 63.7193C878.05 62.6027 893.128 67.4572 907.974 72.237C909.854 72.8422 911.73 73.4463 913.607 74.0368C930.292 79.2857 947.039 83.4516 967.121 77.6704C985.56 72.3625 994.261 59.4136 1002.9 46.558C1003.7 45.3721 1004.49 44.1871 1005.3 43.0089C1010.06 36.018 1015.08 29.261 1021.92 23.9C1028.75 18.5473 1037.43 14.5705 1049.54 13.1867C1063.9 11.5461 1075.74 15.0186 1087.67 18.5138L1087.85 18.5656C1099.82 22.0746 1111.88 25.5807 1126.51 23.7584C1139.88 22.0929 1150.53 17.1061 1160.82 12.2891C1162.11 11.6855 1163.39 11.0846 1164.68 10.4933ZM1274.09 49.2707C1274.31 49.1017 1274.35 48.7869 1274.18 48.5685L1273.79 48.8752L1273.39 49.1808C1273.56 49.3992 1273.87 49.4396 1274.09 49.2707ZM170.036 204.614C173.845 201.135 179.275 199.303 188.021 200.754C188.293 200.799 188.551 200.615 188.596 200.343C188.641 200.07 188.457 199.813 188.184 199.768C179.212 198.279 173.449 200.143 169.361 203.876C165.316 207.57 162.979 213.045 160.719 218.59C160.607 218.864 160.496 219.139 160.384 219.414C158.222 224.732 156.054 230.064 152.489 234.177C148.771 238.466 143.511 241.447 135.057 241.565C121.098 241.76 111.6 244.948 102.319 248.062C101.978 248.177 101.638 248.291 101.297 248.405C91.7011 251.619 82.1613 254.64 67.8732 254.143C57.134 253.769 50.3067 252.199 45.4405 249.94C40.5837 247.685 37.6408 244.726 34.6836 241.479C34.3753 241.141 34.0667 240.799 33.7556 240.454C31.083 237.494 28.2319 234.336 23.8455 231.378C18.9444 228.073 12.1491 225.03 1.55005 222.717C1.28028 222.658 1.01377 222.829 0.954975 223.099C0.896061 223.369 1.06703 223.635 1.3368 223.694C11.8424 225.986 18.513 228.988 23.2864 232.207C27.5666 235.093 30.3394 238.164 33.0141 241.126C33.3248 241.47 33.6341 241.812 33.9444 242.153C36.9261 245.426 39.9779 248.506 45.0194 250.847C50.0512 253.183 57.0253 254.766 67.8384 255.142C82.311 255.645 91.9898 252.577 101.615 249.353L102.62 249.016C111.897 245.903 121.27 242.757 135.07 242.565C143.8 242.443 149.333 239.344 153.245 234.832C156.922 230.59 159.147 225.114 161.29 219.84C161.409 219.548 161.527 219.257 161.645 218.967C163.92 213.386 166.184 208.132 170.036 204.614Z" fill="url(#paint0_linear_3085_175471)"/>
<defs>
<linearGradient id="paint0_linear_3085_175471" x1="1207.35" y1="8.20988" x2="-43.4937" y2="237.164" gradientUnits="userSpaceOnUse">
<stop stop-color="#9EA1DE"/>
<stop offset="0.957515" stop-color="#F8F8FE"/>
</linearGradient>
</defs>
</svg>
