<svg width="25" height="25" viewBox="0 0 25 25" fill="none" xmlns="http://www.w3.org/2000/svg">
<path d="M23.9587 3.12498C22.9611 3.8286 21.8567 4.36676 20.6878 4.71873C20.0605 3.99738 19.2267 3.48611 18.2993 3.25407C17.3719 3.02202 16.3956 3.08039 15.5025 3.42128C14.6094 3.76218 13.8425 4.36915 13.3055 5.1601C12.7686 5.95105 12.4875 6.88783 12.5003 7.84373V8.88539C10.6697 8.93286 8.85582 8.52687 7.22013 7.70357C5.58443 6.88027 4.17774 5.66522 3.12533 4.16664C3.12533 4.16664 -1.04134 13.5416 8.33366 17.7083C6.18837 19.1645 3.63278 19.8947 1.04199 19.7916C10.417 25 21.8753 19.7916 21.8753 7.81248C21.8744 7.52233 21.8465 7.23289 21.792 6.94789C22.8551 5.89945 23.6054 4.57572 23.9587 3.12498V3.12498Z" stroke="#F8F9FB" stroke-width="2" stroke-linecap="round" stroke-linejoin="round"/>
</svg>
