<svg width="20" height="20" viewBox="0 0 20 20" fill="none" xmlns="http://www.w3.org/2000/svg">
    <path fill-rule="evenodd" clip-rule="evenodd" d="M10 0C4.47715 0 0 4.47715 0 10C0 15.5228 4.47715 20 10 20C15.5228 20 20 15.5228 20 10C20 4.47715 15.5228 0 10 0ZM9.90186 8.09268L9.87563 7.66016C9.79694 6.53911 10.4877 5.51517 11.5806 5.11795C11.9828 4.97672 12.6648 4.95906 13.1107 5.08264C13.2856 5.1356 13.6178 5.31215 13.8539 5.47103L14.2823 5.76233L14.7545 5.61227C15.0168 5.53282 15.3665 5.40042 15.5239 5.31215C15.6726 5.2327 15.8037 5.18857 15.8037 5.21505C15.8037 5.36511 15.4802 5.87708 15.2092 6.15955C14.8419 6.55677 14.9469 6.59208 15.69 6.32726C16.136 6.1772 16.1447 6.1772 16.0573 6.34492C16.0048 6.43319 15.7338 6.74214 15.4452 7.0246C14.9556 7.5101 14.9294 7.56306 14.9294 7.96911C14.9294 8.59583 14.6321 9.90224 14.3348 10.6172C13.784 11.959 12.6036 13.3448 11.4232 14.0422C9.76196 15.022 7.54986 15.2691 5.68749 14.6954C5.06671 14.5012 4 14.0068 4 13.9186C4 13.8921 4.32351 13.8568 4.71697 13.848C5.53885 13.8303 6.36074 13.6008 7.06022 13.1948L7.53237 12.9123L6.99027 12.7269C6.22085 12.4621 5.53011 11.853 5.35524 11.2793C5.30278 11.0939 5.32027 11.0851 5.8099 11.0851L6.31703 11.0762L5.88859 10.8732C5.38147 10.6172 4.91807 10.1847 4.69074 9.74335C4.52461 9.42558 4.31477 8.62231 4.37597 8.56052C4.39346 8.53404 4.57707 8.587 4.78691 8.65762C5.39021 8.8783 5.46891 8.82533 5.11917 8.4546C4.46341 7.78374 4.2623 6.78627 4.57707 5.84177L4.72571 5.41807L5.30278 5.99183C6.48315 7.14818 7.87337 7.8367 9.46468 8.03972L9.90186 8.09268Z" fill="white"/>
</svg>
