<svg width="486" height="523" fill="none" xmlns="http://www.w3.org/2000/svg"><g filter="url(#a)"><path d="M261.35 442.512a167.304 167.304 0 0 0 103.945-274.053 167.303 167.303 0 0 0-101.724-56.909l-3.193 20.532a146.522 146.522 0 0 1 87.806 241.217 146.517 146.517 0 0 1-89.751 48.64l2.917 20.573Z" fill="#E2E4F1"/></g><g filter="url(#b)"><circle cx="246.249" cy="269.514" r="100.288" fill="#fff"/></g><g filter="url(#c)"><circle cx="132.288" cy="132.288" r="100.288" fill="#fff"/></g><path d="M132.5 193C99.15 193 72 165.872 72 132.5 72 99.15 99.128 72 132.5 72c33.35 0 60.5 27.15 60.5 60.5 0 33.372-27.15 60.5-60.5 60.5Zm0-119.769c-32.69 0-59.269 26.6-59.269 59.269 0 32.69 26.6 59.269 59.269 59.269 32.69 0 59.269-26.601 59.269-59.269 0-32.69-26.579-59.269-59.269-59.269Z" fill="#E2E4F1"/><path d="M120.868 147.647h23.259a1.914 1.914 0 0 0 1.913-1.912v-18.687a1.914 1.914 0 0 0-1.913-1.912h-17.609v-1.979c0-3.122 2.638-5.65 5.87-5.65 2.572 0 4.88 1.649 5.628 4.023.132.44.461.77.879.946.418.154.901.132 1.275-.088l.77-.44a1.488 1.488 0 0 0 .659-1.759c-1.319-3.869-5.034-6.485-9.211-6.485-5.364 0-9.717 4.243-9.717 9.475v1.979h-1.825a1.913 1.913 0 0 0-1.912 1.912v18.687a1.942 1.942 0 0 0 1.934 1.89Zm9.717-14.113a1.914 1.914 0 0 1 3.825 0v5.694a1.913 1.913 0 0 1-3.825 0v-5.694Z" fill="url(#d)"/><path d="M161.034 104.185a2.19 2.19 0 0 0-.681-.418l-1.099-.44a73.187 73.187 0 0 0-53.488 0l-.263.11c-1.957.77-3.21 2.594-3.21 4.705v41.484a4.59 4.59 0 0 0 2.088 3.869l25.656 17.038a4.379 4.379 0 0 0 2.462.747c.857 0 1.715-.242 2.462-.747l25.568-16.994a4.784 4.784 0 0 0 2.154-4.023v-43.177a2.156 2.156 0 0 0-1.649-2.154Zm-54.3 3.803c0-.176.11-.33.264-.396a70.088 70.088 0 0 1 25.501-4.814c8.64 0 17.279 1.605 25.501 4.814l.264.11v41.792c0 .154-.066.286-.198.352l-25.347 16.839a.477.477 0 0 1-.484 0l-25.347-16.839c-.11-.088-.198-.22-.198-.352v-41.506h.044Z" fill="url(#e)"/><path d="M246.105 329.21c-34.239 0-62.105-27.865-62.105-62.105C184 232.866 211.866 205 246.105 205s62.105 27.866 62.105 62.105c0 34.263-27.866 62.105-62.105 62.105Zm0-122.921c-33.549 0-60.839 27.29-60.839 60.839s27.29 60.84 60.839 60.84 60.839-27.291 60.839-60.84c-.023-33.549-27.313-60.839-60.839-60.839Z" fill="#E2E4F1"/><path d="M253.307 267.933h-2.508c-.276 0-.392-.276-.415-.368a21.361 21.361 0 0 0-.989-2.37c-.092-.161-.069-.368.023-.46l1.818-1.818a3.57 3.57 0 0 0 1.058-2.554c0-.967-.368-1.887-1.058-2.555l-3.935-3.934a3.599 3.599 0 0 0-2.554-1.036c-.967 0-1.887.368-2.554 1.036l-1.841 1.84c-.161.161-.391.046-.46.023a20.154 20.154 0 0 0-2.393-.989c-.092-.023-.346-.138-.346-.391v-2.577a3.618 3.618 0 0 0-3.612-3.613h-5.569a3.618 3.618 0 0 0-3.612 3.613v2.577c0 .253-.253.368-.345.391-.806.276-1.611.621-2.371.989-.069.023-.299.138-.46-.023l-1.841-1.84a3.597 3.597 0 0 0-2.554-1.036c-.966 0-1.887.391-2.554 1.036l-3.935 3.934a3.627 3.627 0 0 0 0 5.109l1.818 1.818c.092.092.115.276.023.46-.391.759-.713 1.564-1.012 2.393-.023.092-.138.368-.414.368h-2.509a3.618 3.618 0 0 0-3.612 3.613v5.568a3.62 3.62 0 0 0 3.612 3.613h2.463c.184 0 .322.092.368.23.299.897.667 1.795 1.104 2.669a.293.293 0 0 1-.092.345l-1.772 1.772a3.626 3.626 0 0 0 0 5.108l3.935 3.935a3.603 3.603 0 0 0 2.554 1.036c.967 0 1.887-.369 2.554-1.036l1.749-1.749a.327.327 0 0 1 .368-.092c.852.437 1.749.806 2.67 1.105.161.046.253.207.253.391v2.416a3.618 3.618 0 0 0 3.612 3.613h5.569a3.618 3.618 0 0 0 3.612-3.613v-2.416c0-.184.093-.345.254-.391.897-.299 1.794-.691 2.669-1.105.115-.046.253-.023.368.092l1.749 1.749a3.601 3.601 0 0 0 2.554 1.036c.966 0 1.887-.369 2.554-1.036l3.935-3.935a3.566 3.566 0 0 0 1.058-2.554c0-.966-.368-1.887-1.058-2.554l-1.772-1.772c-.092-.115-.138-.253-.092-.368.437-.874.805-1.749 1.104-2.669.046-.138.185-.23.369-.23h2.462a3.618 3.618 0 0 0 3.612-3.613v-5.568a3.618 3.618 0 0 0-3.612-3.613Zm-12.449 6.42c0 5.591-4.533 10.124-10.124 10.124-5.592 0-10.125-4.533-10.125-10.124 0-5.592 4.533-10.125 10.125-10.125 5.591 0 10.124 4.533 10.124 10.125Zm44.893-27.129h-1.725c-.184 0-.277-.184-.277-.254a11.198 11.198 0 0 0-.69-1.633.32.32 0 0 1 0-.322l1.243-1.243c.46-.46.736-1.104.736-1.749 0-.667-.253-1.288-.736-1.749l-2.716-2.715a2.49 2.49 0 0 0-1.748-.713c-.668 0-1.312.253-1.749.713l-1.266 1.266c-.092.115-.276.046-.322.023a14.305 14.305 0 0 0-1.633-.667c-.047-.024-.231-.093-.231-.277v-1.771a2.49 2.49 0 0 0-2.485-2.486h-3.819a2.476 2.476 0 0 0-2.486 2.486v1.771c0 .161-.184.253-.23.277-.552.184-1.104.414-1.633.69-.046.023-.207.092-.323-.023l-1.265-1.266a2.493 2.493 0 0 0-1.749-.713c-.667 0-1.312.253-1.749.713l-2.715 2.715c-.966.967-.966 2.532 0 3.521l1.243 1.243c.046.046.069.184.023.322a20.429 20.429 0 0 0-.691 1.633c-.023.07-.092.254-.276.254h-1.726a2.475 2.475 0 0 0-2.485 2.485v3.819a2.476 2.476 0 0 0 2.485 2.486h1.703c.115 0 .23.069.253.161.207.621.461 1.242.76 1.817.046.07.023.185-.046.254l-1.22 1.219a2.501 2.501 0 0 0 0 3.521l2.715 2.715c.461.46 1.105.713 1.749.713.667 0 1.312-.253 1.749-.713l1.196-1.197c.069-.069.185-.092.254-.046.598.3 1.196.553 1.817.76a.31.31 0 0 1 .184.276v1.657a2.476 2.476 0 0 0 2.486 2.485h3.819a2.49 2.49 0 0 0 2.485-2.485v-1.657c0-.138.069-.23.184-.276.622-.207 1.243-.46 1.818-.76.069-.046.184-.023.253.046l1.197 1.197c.46.46 1.104.713 1.749.713.667 0 1.311-.253 1.749-.713l2.715-2.715c.46-.46.736-1.105.736-1.749 0-.667-.253-1.289-.736-1.749l-1.22-1.219a.211.211 0 0 1-.046-.254c.299-.598.552-1.219.76-1.817.023-.092.138-.161.253-.161h1.702a2.476 2.476 0 0 0 2.486-2.486v-3.819c-.023-1.45-1.128-2.554-2.509-2.554Zm-8.536 4.395c0 3.842-3.13 6.949-6.95 6.949-3.842 0-6.949-3.13-6.949-6.949 0-3.843 3.13-6.95 6.949-6.95 3.82-.023 6.95 3.107 6.95 6.95Z" fill="url(#f)"/><defs><linearGradient id="d" x1="133.699" y1="153.613" x2="158.269" y2="152.225" gradientUnits="userSpaceOnUse"><stop stop-color="#5559CC"/><stop offset="1" stop-color="#E3E3F3"/></linearGradient><linearGradient id="e" x1="135.189" y1="184.113" x2="189.917" y2="180.911" gradientUnits="userSpaceOnUse"><stop stop-color="#5559CC"/><stop offset="1" stop-color="#E3E3F3"/></linearGradient><linearGradient id="f" x1="250.169" y1="312.241" x2="325.657" y2="305.558" gradientUnits="userSpaceOnUse"><stop stop-color="#5559CC"/><stop offset="1" stop-color="#E3E3F3"/></linearGradient><filter id="a" x="178.434" y="31.55" width="306.734" height="490.963" filterUnits="userSpaceOnUse" color-interpolation-filters="sRGB"><feFlood flood-opacity="0" result="BackgroundImageFix"/><feColorMatrix in="SourceAlpha" values="0 0 0 0 0 0 0 0 0 0 0 0 0 0 0 0 0 0 127 0" result="hardAlpha"/><feOffset/><feGaussianBlur stdDeviation="40"/><feComposite in2="hardAlpha" operator="out"/><feColorMatrix values="0 0 0 0 0.777767 0 0 0 0 0.797986 0 0 0 0 0.865384 0 0 0 0.4 0"/><feBlend in2="BackgroundImageFix" result="effect1_dropShadow_3146_176182"/><feBlend in="SourceGraphic" in2="effect1_dropShadow_3146_176182" result="shape"/></filter><filter id="b" x="113.961" y="137.227" width="264.574" height="264.575" filterUnits="userSpaceOnUse" color-interpolation-filters="sRGB"><feFlood flood-opacity="0" result="BackgroundImageFix"/><feColorMatrix in="SourceAlpha" values="0 0 0 0 0 0 0 0 0 0 0 0 0 0 0 0 0 0 127 0" result="hardAlpha"/><feOffset/><feGaussianBlur stdDeviation="16"/><feComposite in2="hardAlpha" operator="out"/><feColorMatrix values="0 0 0 0 0.886275 0 0 0 0 0.894118 0 0 0 0 0.945098 0 0 0 0.6 0"/><feBlend in2="BackgroundImageFix" result="effect1_dropShadow_3146_176182"/><feBlend in="SourceGraphic" in2="effect1_dropShadow_3146_176182" result="shape"/></filter><filter id="c" x="0" y="0" width="264.574" height="264.575" filterUnits="userSpaceOnUse" color-interpolation-filters="sRGB"><feFlood flood-opacity="0" result="BackgroundImageFix"/><feColorMatrix in="SourceAlpha" values="0 0 0 0 0 0 0 0 0 0 0 0 0 0 0 0 0 0 127 0" result="hardAlpha"/><feOffset/><feGaussianBlur stdDeviation="16"/><feComposite in2="hardAlpha" operator="out"/><feColorMatrix values="0 0 0 0 0.886275 0 0 0 0 0.894118 0 0 0 0 0.945098 0 0 0 0.6 0"/><feBlend in2="BackgroundImageFix" result="effect1_dropShadow_3146_176182"/><feBlend in="SourceGraphic" in2="effect1_dropShadow_3146_176182" result="shape"/></filter></defs></svg>