<svg width="474" height="503" fill="none" xmlns="http://www.w3.org/2000/svg"><g filter="url(#a)"><path d="M126.632 369.232a151.568 151.568 0 0 0 260.341-52.295 151.569 151.569 0 0 0-5.351-105.465l-17.291 7.444a132.747 132.747 0 0 1-142.758 183.589 132.752 132.752 0 0 1-80.562-45.423l-14.379 12.15Z" fill="#E2E4F1"/></g><g filter="url(#b)"><circle cx="246.249" cy="269.514" r="100.288" fill="#fff"/></g><g filter="url(#c)"><circle cx="132.288" cy="132.288" r="100.288" fill="#fff"/></g><path d="M131.727 195.454C96.594 195.454 68 166.859 68 131.727 68 96.571 96.594 68 131.727 68c35.155 0 63.727 28.594 63.727 63.727.023 35.132-28.572 63.727-63.727 63.727Zm0-126.198c-34.434 0-62.447 28.013-62.447 62.448 0 34.434 28.013 62.447 62.447 62.447s62.447-28.013 62.447-62.447c0-34.435-28.013-62.448-62.447-62.448Z" fill="#E2E4F1"/><path d="m164.154 108.53-6.515-6.514c-2.14-2.141-5.212-3.211-8.446-2.955-3.024.256-5.956 1.652-8.213 3.908l-12.494 12.495a4.284 4.284 0 0 0-.698.907 11.184 11.184 0 0 0-4.141-.442c-3.025.256-5.956 1.652-8.213 3.909l-19.94 19.939c-2.233 2.234-3.63 5.095-3.908 8.05-.326 3.327.72 6.375 2.954 8.586l6.515 6.514c1.931 1.931 4.584 3.001 7.422 3.001.396 0 .768-.023 1.163-.046 2.978-.279 5.84-1.675 8.051-3.909l11.4-11.4a4.736 4.736 0 0 0 1.233-2.164c1.164.419 2.42.651 3.723.651 3.327 0 6.701-1.442 9.213-3.955l19.94-19.939c2.233-2.234 3.606-5.096 3.909-8.051.302-3.303-.745-6.351-2.955-8.585Zm-37.32 24.29c-.232-.232-.209-.698-.186-.884.07-.744.489-1.559 1.14-2.21a4.61 4.61 0 0 0 .675-.838l3.35 3.351c.233.232.21.698.186.884-.069.744-.488 1.559-1.14 2.21a4.755 4.755 0 0 0-.674.861l-3.351-3.374Zm11.75-7.398-3.257-3.258 12.424-12.424c.651-.651 1.442-1.07 2.187-1.14.419-.047.768.023.931.186l6.514 6.515c.233.232.21.698.186.884-.07.744-.488 1.559-1.14 2.21l-14.844 14.844c.093-3.001-.954-5.77-3.001-7.817Zm-16.287 18.427-11.4 11.4c-.652.652-1.466 1.07-2.211 1.14-.395.047-.744-.023-.884-.186l-6.514-6.514c-.233-.233-.21-.699-.186-.885.069-.744.488-1.558 1.14-2.21l14.844-14.844c-.117 3.025.93 5.793 2.978 7.841l3.397 3.397a4.56 4.56 0 0 0-1.164.861Z" fill="url(#d)"/><path opacity=".4" d="m272.355 287.108 2.35 2.443c.442.465 1.233.418 1.605-.117 4.165-6.189 6.305-13.541 6.072-21.172-.651-19.847-17.333-35.482-37.179-34.807a34.499 34.499 0 0 0-4.095.372c-16.496 2.397-29.386 16.194-30.642 32.829-.675 9.051 2.001 17.776 7.352 24.733.396.511 1.187.511 1.605.023l2.164-2.583c.303-.372.326-.884.024-1.279-3.793-5.166-5.887-11.401-5.91-17.985-.07-15.938 12.331-29.409 28.199-30.665 17.543-1.443 32.55 12.168 33.131 29.548a30.552 30.552 0 0 1-4.769 17.426c-.303.349-.256.885.093 1.234Z" fill="url(#e)"/><path opacity=".6" d="m263.883 277.777 2.792 2.908c.582.605 1.583.419 1.908-.326a23.808 23.808 0 0 0 2.234-11.028c-.372-11.517-8.888-21.335-20.242-23.313a24.809 24.809 0 0 0-10.051.326c-11.191 2.722-19.032 13.076-18.66 24.592a23.917 23.917 0 0 0 2.955 10.843c.396.721 1.396.837 1.931.209l2.606-3.094c.303-.349.349-.838.163-1.234a18.07 18.07 0 0 1-1.605-6.91c-.256-7.701 4.397-14.82 11.54-17.705 4.002-1.606 8.539-1.769 12.633-.419 7.329 2.419 12.425 9.213 12.681 16.914a18.866 18.866 0 0 1-1.14 7.004c-.14.442-.047.93.255 1.233Z" fill="url(#f)"/><path d="m267.644 300.648-.326-10.051c-.023-.675-.256-2.979-2.187-3.583-.931-.303-1.815-.14-2.536.209l-.163.023h-.047c-.372-1.256-1.233-2.024-2.489-2.21-1.512-.209-2.513.279-3.141.744-.652-1.302-1.931-1.954-3.606-1.768-1.257.14-2.164.791-2.816 1.629l-.279-8.585c-.046-1.676-.163-3.374-.163-5.049a3.569 3.569 0 0 0-3.536-3.141c-1.047 0-2.071.512-2.746 1.279-.721.815-.767 1.815-.767 2.862v4.118l.023 11.401c-.07.349.139 8.283.139 8.283a62.06 62.06 0 0 1-2.163-2.141c-1.629-1.698-4.537-2.768-6.445-2.931-1.001-.093-1.768.093-2.28.488-.163.14-.326.279-.466.442-.954 1.001-1.652 2.583-.93 3.723.302.489.837.814 1.396 1.14.744.442 1.954.907 2.908 2.047 1.582 1.908 5.258 6.143 7.515 8.4.465.256 1.443 1.186 1.908 1.419 1.396.837 2.536 1.629 2.955 2.047.302.349 2.14 1.187 2.14 1.187 1.489.861 4.142 1.652 7.19 1.536 3.047-.094 5.816 0 7.794-1.862h.116l.047-.139c2.024-1.978 3.21-4.654 3.117-7.562-.046-.814-.139-3.467-.162-3.955Z" fill="url(#g)"/><path d="M246.074 261.095c-4.7.162-8.376 4.071-8.213 8.771.093 2.536 1 4.746 2.675 6.259v-3.583a5.84 5.84 0 0 1 1.28-3.63 5.753 5.753 0 0 1 4.514-2.164c2.722 0 5.002 1.885 5.63 4.421.093.442.163.884.163 1.349l.023 3.723c1.931-1.605 2.816-4.141 2.722-6.957-.162-4.676-4.094-8.352-8.794-8.189Z" fill="url(#h)"/><path d="M245.89 334.78c-35.784 0-64.89-29.106-64.89-64.89S210.106 205 245.89 205s64.89 29.106 64.89 64.89c.024 35.761-29.106 64.89-64.89 64.89Zm0-128.524c-35.086 0-63.61 28.525-63.61 63.611 0 35.062 28.524 63.61 63.61 63.61 35.063 0 63.611-28.524 63.611-63.61 0-35.063-28.525-63.611-63.611-63.611Z" fill="#E2E4F1"/><defs><linearGradient id="d" x1="132.726" y1="177.688" x2="201.064" y2="172.223" gradientUnits="userSpaceOnUse"><stop stop-color="#5559CC"/><stop offset="1" stop-color="#E3E3F3"/></linearGradient><linearGradient id="e" x1="249.604" y1="302.029" x2="314.613" y2="296.352" gradientUnits="userSpaceOnUse"><stop stop-color="#5559CC"/><stop offset="1" stop-color="#E3E3F3"/></linearGradient><linearGradient id="f" x1="248.533" y1="288.855" x2="292.681" y2="284.692" gradientUnits="userSpaceOnUse"><stop stop-color="#5559CC"/><stop offset="1" stop-color="#E3E3F3"/></linearGradient><linearGradient id="g" x1="250.789" y1="322.141" x2="284.673" y2="320.163" gradientUnits="userSpaceOnUse"><stop stop-color="#5559CC"/><stop offset="1" stop-color="#E3E3F3"/></linearGradient><linearGradient id="h" x1="247.127" y1="278.904" x2="262.506" y2="277.682" gradientUnits="userSpaceOnUse"><stop stop-color="#5559CC"/><stop offset="1" stop-color="#E3E3F3"/></linearGradient><filter id="a" x="46.633" y="131.472" width="427.34" height="371.502" filterUnits="userSpaceOnUse" color-interpolation-filters="sRGB"><feFlood flood-opacity="0" result="BackgroundImageFix"/><feColorMatrix in="SourceAlpha" values="0 0 0 0 0 0 0 0 0 0 0 0 0 0 0 0 0 0 127 0" result="hardAlpha"/><feOffset/><feGaussianBlur stdDeviation="40"/><feComposite in2="hardAlpha" operator="out"/><feColorMatrix values="0 0 0 0 0.777767 0 0 0 0 0.797986 0 0 0 0 0.865384 0 0 0 0.4 0"/><feBlend in2="BackgroundImageFix" result="effect1_dropShadow_3146_176137"/><feBlend in="SourceGraphic" in2="effect1_dropShadow_3146_176137" result="shape"/></filter><filter id="b" x="113.961" y="137.226" width="264.574" height="264.576" filterUnits="userSpaceOnUse" color-interpolation-filters="sRGB"><feFlood flood-opacity="0" result="BackgroundImageFix"/><feColorMatrix in="SourceAlpha" values="0 0 0 0 0 0 0 0 0 0 0 0 0 0 0 0 0 0 127 0" result="hardAlpha"/><feOffset/><feGaussianBlur stdDeviation="16"/><feComposite in2="hardAlpha" operator="out"/><feColorMatrix values="0 0 0 0 0.886275 0 0 0 0 0.894118 0 0 0 0 0.945098 0 0 0 0.6 0"/><feBlend in2="BackgroundImageFix" result="effect1_dropShadow_3146_176137"/><feBlend in="SourceGraphic" in2="effect1_dropShadow_3146_176137" result="shape"/></filter><filter id="c" x="0" y="0" width="264.574" height="264.576" filterUnits="userSpaceOnUse" color-interpolation-filters="sRGB"><feFlood flood-opacity="0" result="BackgroundImageFix"/><feColorMatrix in="SourceAlpha" values="0 0 0 0 0 0 0 0 0 0 0 0 0 0 0 0 0 0 127 0" result="hardAlpha"/><feOffset/><feGaussianBlur stdDeviation="16"/><feComposite in2="hardAlpha" operator="out"/><feColorMatrix values="0 0 0 0 0.886275 0 0 0 0 0.894118 0 0 0 0 0.945098 0 0 0 0.6 0"/><feBlend in2="BackgroundImageFix" result="effect1_dropShadow_3146_176137"/><feBlend in="SourceGraphic" in2="effect1_dropShadow_3146_176137" result="shape"/></filter></defs></svg>