<svg width="973" height="524" fill="none" xmlns="http://www.w3.org/2000/svg"><g clip-path="url(#a)"><path fill="#fff" d="M0 0h973v524H0z"/><path d="M1027.98 0c-8.37 107.984-110.135 173.473-193.655 147.318-73.376-22.978-117.904-13.952-148.036 9.286-56.643 43.684-52.246 127.623-138.36 152.299-64.949 18.611-121.268-39.242-181.184-10.711s-35.497 83.02-119.143 159.248c-83.646 76.227-144.286-7.245-185.683 53.206" stroke="url(#b)"/><g filter="url(#c)"><circle cx="586.24" cy="262.572" r="145.873" fill="#fff"/></g><g filter="url(#d)"><path d="M448.821 384.852a182.344 182.344 0 0 0 313.196-62.913 182.344 182.344 0 0 0-6.438-126.875l-20.801 8.954a159.7 159.7 0 0 1-62.66 198.95 159.698 159.698 0 0 1-205.999-32.733l-17.298 14.617Z" fill="#E2E4F1"/></g><g filter="url(#e)"><circle cx="586.241" cy="262.572" r="100.288" fill="#fff"/></g><path opacity=".5" d="M652.336 236.857c-3.633-8.551-9.019-16.386-15.734-22.93a72.885 72.885 0 0 0-23.534-15.331c-8.771-3.554-18.268-5.369-27.764-5.372-9.496.003-18.992 1.82-27.765 5.372a72.892 72.892 0 0 0-23.533 15.331c-6.716 6.544-12.102 14.379-15.735 22.93-3.647 8.546-5.511 17.801-5.513 27.053a69.175 69.175 0 0 0 5.513 27.053c3.633 8.552 9.019 16.387 15.735 22.93a72.895 72.895 0 0 0 23.533 15.332c8.771 3.553 18.269 5.368 27.765 5.372 9.496-.004 18.992-1.821 27.764-5.372a72.888 72.888 0 0 0 23.534-15.332c6.715-6.543 12.101-14.378 15.734-22.93 3.647-8.546 5.51-17.8 5.513-27.053-.003-9.252-1.866-18.507-5.513-27.053Zm-1.004 53.7c-3.577 8.422-8.883 16.14-15.499 22.585a71.735 71.735 0 0 1-23.178 15.101c-8.64 3.5-17.992 5.29-27.35 5.293-9.357-.003-18.71-1.793-27.349-5.293a71.743 71.743 0 0 1-23.18-15.101c-6.616-6.446-11.922-14.163-15.498-22.585a68.134 68.134 0 0 1-5.432-26.649 68.133 68.133 0 0 1 5.432-26.648c3.576-8.422 8.882-16.14 15.498-22.586a71.779 71.779 0 0 1 23.18-15.1c8.639-3.5 17.992-5.29 27.349-5.293 9.358.003 18.71 1.793 27.35 5.293a71.727 71.727 0 0 1 23.178 15.1c6.616 6.447 11.922 14.164 15.499 22.586 3.592 8.418 5.429 17.531 5.433 26.648a68.17 68.17 0 0 1-5.433 26.649Z" fill="url(#f)"/><path d="M535.066 209.711c11.338-10.037 25.947-16.472 41.244-18.186l.552 5.277c-14.156 1.606-27.667 7.568-38.154 16.853-10.664 9.356-18.164 21.823-21.203 35.211l-5.328-1.086c3.269-14.483 11.369-27.966 22.889-38.069Z" fill="url(#g)"/><path d="M512.175 247.78c3.271-14.483 11.369-27.966 22.891-38.069 11.338-10.037 25.947-16.472 41.244-18.186l.552 5.277c-14.156 1.606-27.667 7.568-38.154 16.853-10.664 9.356-18.164 21.823-21.203 35.211l-5.33-1.086Z" fill="url(#h)"/><path d="m510.74 264.994 5.441.003c.138 8.805 2.087 17.665 5.666 25.691 3.566 8.031 8.853 15.486 15.326 21.625l-3.731 3.861c-7.008-6.632-12.732-14.695-16.59-23.385-3.873-8.684-5.976-18.273-6.112-27.795Z" fill="url(#i)"/><path d="m620.263 205.326 2.71-4.604c12.609 7.281 22.986 18.312 29.292 31.168 6.485 13.099 8.753 28.321 6.385 42.869-2.315 14.456-9.325 28.253-19.742 38.851-10.143 10.388-23.525 17.763-37.791 20.841l-1.098-5.192c13.189-2.866 25.566-9.695 34.951-19.304 9.658-9.826 16.159-22.618 18.303-36.019 2.198-13.499.095-27.618-5.919-39.749-5.831-11.896-15.427-22.107-27.091-28.861Z" fill="url(#j)"/><path d="M623.524 234.131c0 64.63-38.203 73.925-38.203 73.925s-38.204-9.295-38.204-73.925c12.735-1.006 25.205-2.416 38.204-14.011 13.001 11.595 25.469 13.005 38.203 14.011Z" stroke="#3136BD" stroke-miterlimit="10"/><path d="M585.349 220.139c13 11.595 25.47 13.005 38.204 14.011 0 64.63-38.204 73.925-38.204 73.925s-38.203-9.295-38.203-73.925c12.734-1.006 25.204-2.416 38.203-14.011Zm0-3.228-1.65 1.471c-2.998 2.675-6.015 4.843-9.224 6.628a45.831 45.831 0 0 1-9.055 3.832c-6.045 1.839-12.186 2.437-18.471 2.933l-2.246.177v2.195c0 15.01 2.055 28.334 6.107 39.602 3.275 9.108 7.858 16.908 13.617 23.182 9.937 10.823 19.91 13.345 20.331 13.448l.591.143.592-.143c.421-.103 10.394-2.625 20.331-13.448 5.761-6.274 10.342-14.074 13.617-23.182 4.052-11.268 6.107-24.592 6.107-39.602v-2.195l-2.246-.177c-6.285-.496-12.426-1.094-18.471-2.933a45.831 45.831 0 0 1-9.055-3.832c-3.209-1.785-6.226-3.954-9.224-6.628l-1.651-1.471Z" stroke="#3136BD" stroke-miterlimit="10"/><mask id="l" style="mask-type:alpha" maskUnits="userSpaceOnUse" x="544" y="215" width="83" height="94"><path d="M544.703 215.833v92.209h81.829v-92.209h-81.829Z" fill="url(#k)"/></mask><g mask="url(#l)"><path d="M580.219 225.543a.685.685 0 0 1-.693.676.685.685 0 0 1-.694-.676c0-.373.31-.676.694-.676.384 0 .693.303.693.676ZM582.384 225.543c0 .372-.31.676-.694.676a.685.685 0 0 1-.694-.676c0-.373.31-.676.694-.676.384 0 .694.303.694.676ZM582.384 223.486c0 .373-.31.676-.694.676a.685.685 0 0 1-.694-.676c0-.373.31-.676.694-.676.384 0 .694.303.694.676ZM584.548 225.543c0 .372-.31.676-.694.676a.686.686 0 0 1-.694-.676c0-.373.31-.676.694-.676.382 0 .694.303.694.676ZM584.548 223.486c0 .373-.31.676-.694.676a.686.686 0 0 1-.694-.676c0-.373.31-.676.694-.676.382 0 .694.303.694.676ZM584.552 221.463c0 .373-.31.676-.694.676-.383 0-.323-.197-.323-.571 0-.372.458-.423.693-.676.383 0 .324.199.324.571ZM586.716 225.543c0 .372-.31.676-.694.676a.686.686 0 0 1-.694-.676c0-.373.31-.676.694-.676.382 0 .694.303.694.676ZM586.716 223.486c0 .373-.31.676-.694.676a.686.686 0 0 1-.694-.676c0-.373.31-.676.694-.676.382 0 .694.303.694.676ZM586.716 221.463c0 .373-.31.676-.694.676a.686.686 0 0 1-.694-.676c0-.372.31-.676.694-.676.382 0 .694.304.694.676ZM588.88 225.543c0 .372-.31.676-.694.676a.686.686 0 0 1-.694-.676c0-.373.31-.676.694-.676.384 0 .694.303.694.676ZM588.88 223.486c0 .373-.31.676-.694.676a.686.686 0 0 1-.694-.676c0-.373.31-.676.694-.676.384 0 .694.303.694.676ZM575.891 227.651a.684.684 0 0 1-.693.676.685.685 0 0 1-.694-.676c0-.372.31-.676.694-.676a.686.686 0 0 1 .693.676ZM578.055 227.651a.684.684 0 0 1-.693.676.685.685 0 0 1-.694-.676c0-.372.31-.676.694-.676a.687.687 0 0 1 .693.676ZM580.219 227.651a.684.684 0 0 1-.693.676.685.685 0 0 1-.694-.676c0-.372.31-.676.694-.676a.686.686 0 0 1 .693.676ZM582.384 227.651c0 .373-.31.676-.694.676a.685.685 0 0 1-.694-.676c0-.372.31-.676.694-.676a.687.687 0 0 1 .694.676ZM584.548 227.651c0 .373-.31.676-.694.676a.686.686 0 0 1-.694-.676c0-.372.31-.676.694-.676a.688.688 0 0 1 .694.676ZM586.716 227.651c0 .373-.31.676-.694.676a.686.686 0 0 1-.694-.676c0-.372.31-.676.694-.676a.688.688 0 0 1 .694.676ZM588.88 227.651c0 .373-.31.676-.694.676a.686.686 0 0 1-.694-.676c0-.372.31-.676.694-.676a.687.687 0 0 1 .694.676ZM571.559 229.761a.684.684 0 0 1-.693.676.684.684 0 0 1-.694-.676c0-.372.31-.676.694-.676.382 0 .693.302.693.676ZM573.723 229.761a.684.684 0 0 1-.693.676.684.684 0 0 1-.694-.676c0-.372.31-.676.694-.676.384 0 .693.302.693.676ZM575.891 229.761a.684.684 0 0 1-.693.676.684.684 0 0 1-.694-.676c0-.372.31-.676.694-.676.384 0 .693.302.693.676ZM578.055 229.761a.684.684 0 0 1-.693.676.684.684 0 0 1-.694-.676c0-.372.31-.676.694-.676.382 0 .693.302.693.676ZM580.219 229.761a.684.684 0 0 1-.693.676.684.684 0 0 1-.694-.676c0-.372.31-.676.694-.676.384 0 .693.302.693.676ZM582.384 229.761c0 .373-.31.676-.694.676a.684.684 0 0 1-.694-.676c0-.372.31-.676.694-.676.384 0 .694.302.694.676ZM584.548 229.761c0 .373-.31.676-.694.676a.685.685 0 0 1-.694-.676c0-.372.31-.676.694-.676.382 0 .694.302.694.676ZM586.716 229.761c0 .373-.31.676-.694.676a.685.685 0 0 1-.694-.676c0-.372.31-.676.694-.676.382 0 .694.302.694.676ZM588.88 229.761c0 .373-.31.676-.694.676a.685.685 0 0 1-.694-.676c0-.372.31-.676.694-.676.384 0 .694.302.694.676ZM565.067 231.87c0 .373-.31.676-.694.676a.684.684 0 0 1-.693-.676c0-.372.309-.676.693-.676.384 0 .694.304.694.676ZM567.231 231.87a.684.684 0 0 1-.694.676.684.684 0 0 1-.693-.676c0-.372.309-.676.693-.676.385 0 .694.304.694.676ZM569.395 231.87a.684.684 0 0 1-.693.676.684.684 0 0 1-.694-.676c0-.372.309-.676.694-.676.382 0 .693.304.693.676ZM571.559 231.87a.684.684 0 0 1-.693.676.684.684 0 0 1-.694-.676c0-.372.31-.676.694-.676.382 0 .693.304.693.676ZM573.723 231.87a.684.684 0 0 1-.693.676.684.684 0 0 1-.694-.676c0-.372.31-.676.694-.676.384 0 .693.304.693.676ZM575.891 231.87a.684.684 0 0 1-.693.676.684.684 0 0 1-.694-.676c0-.372.31-.676.694-.676.384 0 .693.304.693.676ZM578.055 231.87a.684.684 0 0 1-.693.676.684.684 0 0 1-.694-.676c0-.372.31-.676.694-.676.382 0 .693.304.693.676ZM580.219 231.87a.684.684 0 0 1-.693.676.684.684 0 0 1-.694-.676c0-.372.31-.676.694-.676.384 0 .693.304.693.676ZM582.384 231.87c0 .373-.31.676-.694.676a.684.684 0 0 1-.694-.676c0-.372.31-.676.694-.676.384 0 .694.304.694.676ZM584.548 231.87c0 .373-.31.676-.694.676a.685.685 0 0 1-.694-.676c0-.372.31-.676.694-.676.382 0 .694.304.694.676ZM586.716 231.87c0 .373-.31.676-.694.676a.685.685 0 0 1-.694-.676c0-.372.31-.676.694-.676.382 0 .694.304.694.676ZM588.88 231.87c0 .373-.31.676-.694.676a.685.685 0 0 1-.694-.676c0-.372.31-.676.694-.676.384 0 .694.304.694.676ZM549.915 233.979c0 .373-.31.676-.694.676a.685.685 0 0 1-.694-.676c0-.372.285-.296.669-.296.384 0 .719-.076.719.296ZM556.407 233.979c0 .373-.31.676-.694.676a.685.685 0 0 1-.693-.676c0-.372.309-.676.693-.676.383 0 .694.304.694.676ZM558.575 233.979c0 .373-.31.676-.694.676a.685.685 0 0 1-.693-.676c0-.372.309-.676.693-.676.384 0 .694.304.694.676ZM552.079 233.979c0 .372-.31.676-.694.676a.686.686 0 0 1-.694-.676c0-.373.31-.465.694-.465.384 0 .694.092.694.465ZM554.247 233.979c0 .373-.31.676-.694.676a.686.686 0 0 1-.694-.676c0-.372.31-.676.694-.676.382 0 .694.304.694.676ZM560.735 233.979c0 .373-.31.676-.694.676a.685.685 0 0 1-.693-.676c0-.372.309-.676.693-.676.384 0 .694.304.694.676ZM562.903 233.979c0 .373-.31.676-.694.676a.685.685 0 0 1-.693-.676c0-.372.309-.676.693-.676.383 0 .694.304.694.676ZM565.067 233.979c0 .373-.31.676-.694.676a.685.685 0 0 1-.693-.676c0-.372.309-.676.693-.676.384 0 .694.304.694.676ZM567.231 233.979a.684.684 0 0 1-.694.676.685.685 0 0 1-.693-.676c0-.372.309-.676.693-.676.385 0 .694.304.694.676ZM569.395 233.979a.684.684 0 0 1-.693.676.685.685 0 0 1-.694-.676c0-.372.309-.676.694-.676.382 0 .693.304.693.676ZM573.723 233.979a.684.684 0 0 1-.693.676.685.685 0 0 1-.694-.676c0-.372.31-.676.694-.676.384 0 .693.304.693.676ZM571.559 233.979a.684.684 0 0 1-.693.676.685.685 0 0 1-.694-.676c0-.372.31-.676.694-.676.382 0 .693.304.693.676ZM575.891 233.979a.684.684 0 0 1-.693.676.685.685 0 0 1-.694-.676c0-.372.31-.676.694-.676.384 0 .693.304.693.676ZM578.055 233.979a.684.684 0 0 1-.693.676.685.685 0 0 1-.694-.676c0-.372.31-.676.694-.676.382 0 .693.304.693.676ZM580.219 233.979a.684.684 0 0 1-.693.676.685.685 0 0 1-.694-.676c0-.372.31-.676.694-.676.384 0 .693.304.693.676ZM582.384 233.979c0 .373-.31.676-.694.676a.685.685 0 0 1-.694-.676c0-.372.31-.676.694-.676.384 0 .694.304.694.676ZM584.548 233.979c0 .373-.31.676-.694.676a.686.686 0 0 1-.694-.676c0-.372.31-.676.694-.676.382 0 .694.304.694.676ZM586.716 233.979c0 .373-.31.676-.694.676a.686.686 0 0 1-.694-.676c0-.372.31-.676.694-.676.382 0 .694.304.694.676ZM588.88 233.979c0 .373-.31.676-.694.676a.686.686 0 0 1-.694-.676c0-.372.31-.676.694-.676.384 0 .694.304.694.676ZM547.749 236.088c0 .372-.31.676-.694.676-.382 0-.197-.348-.197-.722 0-.372-.187-.63.197-.63a.687.687 0 0 1 .694.676ZM549.915 236.088c0 .372-.31.676-.694.676a.686.686 0 0 1-.694-.676c0-.373.31-.676.694-.676a.686.686 0 0 1 .694.676ZM552.079 236.088c0 .372-.31.676-.694.676a.686.686 0 0 1-.694-.676c0-.373.31-.676.694-.676a.686.686 0 0 1 .694.676ZM554.247 236.088c0 .372-.31.676-.694.676a.686.686 0 0 1-.694-.676c0-.373.31-.676.694-.676a.687.687 0 0 1 .694.676ZM556.407 236.088c0 .372-.31.676-.694.676a.685.685 0 0 1-.693-.676c0-.373.309-.676.693-.676a.686.686 0 0 1 .694.676ZM562.903 236.088c0 .372-.31.676-.694.676a.685.685 0 0 1-.693-.676c0-.373.309-.676.693-.676a.686.686 0 0 1 .694.676ZM565.067 236.088c0 .372-.31.676-.694.676a.685.685 0 0 1-.693-.676c0-.373.309-.676.693-.676a.686.686 0 0 1 .694.676ZM558.575 236.088c0 .372-.31.676-.694.676a.685.685 0 0 1-.693-.676c0-.373.309-.676.693-.676a.686.686 0 0 1 .694.676ZM560.735 236.088c0 .372-.31.676-.694.676a.685.685 0 0 1-.693-.676c0-.373.309-.676.693-.676a.686.686 0 0 1 .694.676ZM569.395 236.088a.685.685 0 0 1-.693.676.685.685 0 0 1-.694-.676c0-.373.309-.676.694-.676a.686.686 0 0 1 .693.676ZM567.231 236.088a.685.685 0 0 1-.694.676.685.685 0 0 1-.693-.676c0-.373.309-.676.693-.676a.685.685 0 0 1 .694.676ZM571.559 236.088a.685.685 0 0 1-.693.676.685.685 0 0 1-.694-.676c0-.373.31-.676.694-.676a.686.686 0 0 1 .693.676ZM573.723 236.088a.685.685 0 0 1-.693.676.685.685 0 0 1-.694-.676c0-.373.31-.676.694-.676a.685.685 0 0 1 .693.676ZM575.891 236.088a.685.685 0 0 1-.693.676.685.685 0 0 1-.694-.676c0-.373.31-.676.694-.676a.685.685 0 0 1 .693.676ZM578.055 236.088a.685.685 0 0 1-.693.676.685.685 0 0 1-.694-.676c0-.373.31-.676.694-.676a.686.686 0 0 1 .693.676ZM580.219 236.088a.685.685 0 0 1-.693.676.685.685 0 0 1-.694-.676c0-.373.31-.676.694-.676a.685.685 0 0 1 .693.676ZM582.384 236.088c0 .372-.31.676-.694.676a.685.685 0 0 1-.694-.676c0-.373.31-.676.694-.676a.686.686 0 0 1 .694.676ZM584.548 236.088c0 .372-.31.676-.694.676a.686.686 0 0 1-.694-.676c0-.373.31-.676.694-.676a.687.687 0 0 1 .694.676ZM586.716 236.088c0 .372-.31.676-.694.676a.686.686 0 0 1-.694-.676c0-.373.31-.676.694-.676a.687.687 0 0 1 .694.676ZM588.88 236.088c0 .372-.31.676-.694.676a.686.686 0 0 1-.694-.676c0-.373.31-.676.694-.676a.686.686 0 0 1 .694.676ZM549.915 238.198c0 .372-.31.676-.694.676a.686.686 0 0 1-.694-.676c0-.373.31-.676.694-.676.384 0 .694.302.694.676ZM554.247 238.198c0 .372-.31.676-.694.676a.686.686 0 0 1-.694-.676c0-.373.31-.676.694-.676.382 0 .694.302.694.676ZM552.079 238.198c0 .372-.31.676-.694.676a.686.686 0 0 1-.694-.676c0-.373.31-.676.694-.676.384 0 .694.302.694.676ZM556.407 238.198c0 .372-.31.676-.694.676a.685.685 0 0 1-.693-.676c0-.373.309-.676.693-.676.383 0 .694.302.694.676ZM558.575 238.198c0 .372-.31.676-.694.676a.685.685 0 0 1-.693-.676c0-.373.309-.676.693-.676.384 0 .694.302.694.676ZM560.735 238.198c0 .372-.31.676-.694.676a.685.685 0 0 1-.693-.676c0-.373.309-.676.693-.676.384 0 .694.302.694.676ZM562.903 238.198c0 .372-.31.676-.694.676a.685.685 0 0 1-.693-.676c0-.373.309-.676.693-.676.383 0 .694.302.694.676ZM565.067 238.198c0 .372-.31.676-.694.676a.685.685 0 0 1-.693-.676c0-.373.309-.676.693-.676.384 0 .694.302.694.676ZM567.231 238.198a.685.685 0 0 1-.694.676.685.685 0 0 1-.693-.676c0-.373.309-.676.693-.676.385 0 .694.302.694.676ZM569.395 238.198a.685.685 0 0 1-.693.676.685.685 0 0 1-.694-.676c0-.373.309-.676.694-.676.382 0 .693.302.693.676ZM571.559 238.198a.685.685 0 0 1-.693.676.685.685 0 0 1-.694-.676c0-.373.31-.676.694-.676.382 0 .693.302.693.676ZM573.723 238.198a.685.685 0 0 1-.693.676.685.685 0 0 1-.694-.676c0-.373.31-.676.694-.676.384 0 .693.302.693.676ZM575.891 238.198a.685.685 0 0 1-.693.676.685.685 0 0 1-.694-.676c0-.373.31-.676.694-.676.384 0 .693.302.693.676ZM578.055 238.198a.685.685 0 0 1-.693.676.685.685 0 0 1-.694-.676c0-.373.31-.676.694-.676.382 0 .693.302.693.676ZM580.219 238.198a.685.685 0 0 1-.693.676.685.685 0 0 1-.694-.676c0-.373.31-.676.694-.676.384 0 .693.302.693.676ZM582.384 238.198c0 .372-.31.676-.694.676a.685.685 0 0 1-.694-.676c0-.373.31-.676.694-.676.384 0 .694.302.694.676ZM584.548 238.198c0 .372-.31.676-.694.676a.686.686 0 0 1-.694-.676c0-.373.31-.676.694-.676.382 0 .694.302.694.676ZM586.716 238.198c0 .372-.31.676-.694.676a.686.686 0 0 1-.694-.676c0-.373.31-.676.694-.676.382 0 .694.302.694.676ZM588.88 238.198c0 .372-.31.676-.694.676a.686.686 0 0 1-.694-.676c0-.373.31-.676.694-.676.384 0 .694.302.694.676ZM547.749 240.307c0 .373-.31.676-.694.676-.382 0-.173-.301-.173-.676 0-.372-.211-.676.173-.676.383 0 .694.304.694.676ZM549.915 240.307c0 .373-.31.676-.694.676a.685.685 0 0 1-.694-.676c0-.372.31-.676.694-.676.384 0 .694.304.694.676ZM552.079 240.307c0 .373-.31.676-.694.676a.685.685 0 0 1-.694-.676c0-.372.31-.676.694-.676.384 0 .694.304.694.676ZM556.407 240.307c0 .373-.31.676-.694.676a.684.684 0 0 1-.693-.676c0-.372.309-.676.693-.676.383 0 .694.304.694.676ZM554.247 240.307c0 .373-.31.676-.694.676a.685.685 0 0 1-.694-.676c0-.372.31-.676.694-.676.382 0 .694.304.694.676ZM560.735 240.307c0 .373-.31.676-.694.676a.684.684 0 0 1-.693-.676c0-.372.309-.676.693-.676.384 0 .694.304.694.676ZM565.067 240.307c0 .373-.31.676-.694.676a.684.684 0 0 1-.693-.676c0-.372.309-.676.693-.676.384 0 .694.304.694.676ZM567.231 240.307a.684.684 0 0 1-.694.676.684.684 0 0 1-.693-.676c0-.372.309-.676.693-.676.385 0 .694.304.694.676ZM569.395 240.307a.684.684 0 0 1-.693.676.684.684 0 0 1-.694-.676c0-.372.309-.676.694-.676.382 0 .693.304.693.676ZM558.575 240.307c0 .373-.31.676-.694.676a.684.684 0 0 1-.693-.676c0-.372.309-.676.693-.676.384 0 .694.304.694.676ZM562.903 240.307c0 .373-.31.676-.694.676a.684.684 0 0 1-.693-.676c0-.372.309-.676.693-.676.383 0 .694.304.694.676ZM571.559 240.307a.684.684 0 0 1-.693.676.684.684 0 0 1-.694-.676c0-.372.31-.676.694-.676.382 0 .693.304.693.676ZM573.723 240.307a.684.684 0 0 1-.693.676.684.684 0 0 1-.694-.676c0-.372.31-.676.694-.676.384 0 .693.304.693.676ZM575.891 240.307a.684.684 0 0 1-.693.676.684.684 0 0 1-.694-.676c0-.372.31-.676.694-.676.384 0 .693.304.693.676ZM578.055 240.307a.684.684 0 0 1-.693.676.684.684 0 0 1-.694-.676c0-.372.31-.676.694-.676.382 0 .693.304.693.676ZM580.219 240.307a.684.684 0 0 1-.693.676.684.684 0 0 1-.694-.676c0-.372.31-.676.694-.676.384 0 .693.304.693.676ZM582.384 240.307c0 .373-.31.676-.694.676a.684.684 0 0 1-.694-.676c0-.372.31-.676.694-.676.384 0 .694.304.694.676ZM584.548 240.307c0 .373-.31.676-.694.676a.685.685 0 0 1-.694-.676c0-.372.31-.676.694-.676.382 0 .694.304.694.676ZM586.716 240.307c0 .373-.31.676-.694.676a.685.685 0 0 1-.694-.676c0-.372.31-.676.694-.676.382 0 .694.304.694.676ZM588.88 240.307c0 .373-.31.676-.694.676a.685.685 0 0 1-.694-.676c0-.372.31-.676.694-.676.384 0 .694.304.694.676ZM549.915 242.415c0 .373-.31.676-.694.676a.686.686 0 0 1-.694-.676c0-.372.31-.676.694-.676a.687.687 0 0 1 .694.676ZM547.749 238.198c0 .372-.31.676-.694.676-.382 0-.197-.302-.197-.676 0-.373-.187-.676.197-.676.383 0 .694.302.694.676ZM552.079 242.415c0 .373-.31.676-.694.676a.686.686 0 0 1-.694-.676c0-.372.31-.676.694-.676a.687.687 0 0 1 .694.676ZM554.247 242.415c0 .373-.31.676-.694.676a.686.686 0 0 1-.694-.676c0-.372.31-.676.694-.676a.688.688 0 0 1 .694.676ZM558.575 242.415c0 .373-.31.676-.694.676a.685.685 0 0 1-.693-.676c0-.372.309-.676.693-.676a.687.687 0 0 1 .694.676ZM560.735 242.415c0 .373-.31.676-.694.676a.685.685 0 0 1-.693-.676c0-.372.309-.676.693-.676a.687.687 0 0 1 .694.676ZM562.903 242.415c0 .373-.31.676-.694.676a.685.685 0 0 1-.693-.676c0-.372.309-.676.693-.676a.688.688 0 0 1 .694.676ZM565.067 242.415c0 .373-.31.676-.694.676a.685.685 0 0 1-.693-.676c0-.372.309-.676.693-.676a.687.687 0 0 1 .694.676ZM569.395 242.415a.684.684 0 0 1-.693.676.685.685 0 0 1-.694-.676c0-.372.309-.676.694-.676a.687.687 0 0 1 .693.676ZM573.723 242.415a.684.684 0 0 1-.693.676.685.685 0 0 1-.694-.676c0-.372.31-.676.694-.676a.686.686 0 0 1 .693.676ZM567.231 242.415a.684.684 0 0 1-.694.676.685.685 0 0 1-.693-.676c0-.372.309-.676.693-.676a.686.686 0 0 1 .694.676ZM571.559 242.415a.684.684 0 0 1-.693.676.685.685 0 0 1-.694-.676c0-.372.31-.676.694-.676a.687.687 0 0 1 .693.676ZM575.891 242.415a.684.684 0 0 1-.693.676.685.685 0 0 1-.694-.676c0-.372.31-.676.694-.676a.686.686 0 0 1 .693.676ZM578.055 242.415a.684.684 0 0 1-.693.676.685.685 0 0 1-.694-.676c0-.372.31-.676.694-.676a.687.687 0 0 1 .693.676ZM580.219 242.415a.684.684 0 0 1-.693.676.685.685 0 0 1-.694-.676c0-.372.31-.676.694-.676a.686.686 0 0 1 .693.676ZM582.384 242.415c0 .373-.31.676-.694.676a.685.685 0 0 1-.694-.676c0-.372.31-.676.694-.676a.687.687 0 0 1 .694.676ZM584.548 242.415c0 .373-.31.676-.694.676a.686.686 0 0 1-.694-.676c0-.372.31-.676.694-.676a.688.688 0 0 1 .694.676ZM586.716 242.415c0 .373-.31.676-.694.676a.686.686 0 0 1-.694-.676c0-.372.31-.676.694-.676a.688.688 0 0 1 .694.676ZM588.88 242.415c0 .373-.31.676-.694.676a.686.686 0 0 1-.694-.676c0-.372.31-.676.694-.676a.687.687 0 0 1 .694.676ZM549.915 244.527c0 .372-.31.675-.694.675a.685.685 0 0 1-.694-.675c0-.373.31-.676.694-.676.384 0 .694.301.694.676ZM552.079 244.527c0 .372-.31.675-.694.675a.685.685 0 0 1-.694-.675c0-.373.31-.676.694-.676.384 0 .694.301.694.676ZM554.247 244.527c0 .372-.31.675-.694.675a.685.685 0 0 1-.694-.675c0-.373.31-.676.694-.676.382 0 .694.301.694.676ZM556.407 244.527c0 .372-.31.675-.694.675a.684.684 0 0 1-.693-.675c0-.373.309-.676.693-.676.383 0 .694.301.694.676ZM558.575 244.527c0 .372-.31.675-.694.675a.684.684 0 0 1-.693-.675c0-.373.309-.676.693-.676.384 0 .694.301.694.676ZM560.735 244.527c0 .372-.31.675-.694.675a.684.684 0 0 1-.693-.675c0-.373.309-.676.693-.676.384 0 .694.301.694.676ZM562.903 244.527c0 .372-.31.675-.694.675a.684.684 0 0 1-.693-.675c0-.373.309-.676.693-.676.383 0 .694.301.694.676ZM565.067 244.527c0 .372-.31.675-.694.675a.684.684 0 0 1-.693-.675c0-.373.309-.676.693-.676.384 0 .694.301.694.676ZM567.231 244.527a.684.684 0 0 1-.694.675.684.684 0 0 1-.693-.675c0-.373.309-.676.693-.676.385 0 .694.301.694.676ZM569.395 244.527a.684.684 0 0 1-.693.675.684.684 0 0 1-.694-.675c0-.373.309-.676.694-.676.382 0 .693.301.693.676ZM571.559 244.527a.684.684 0 0 1-.693.675.684.684 0 0 1-.694-.675c0-.373.31-.676.694-.676.382 0 .693.301.693.676ZM573.723 244.527a.684.684 0 0 1-.693.675.684.684 0 0 1-.694-.675c0-.373.31-.676.694-.676.384 0 .693.301.693.676ZM575.891 244.527a.684.684 0 0 1-.693.675.684.684 0 0 1-.694-.675c0-.373.31-.676.694-.676.384 0 .693.301.693.676ZM578.055 244.527a.684.684 0 0 1-.693.675.684.684 0 0 1-.694-.675c0-.373.31-.676.694-.676.382 0 .693.301.693.676ZM580.219 244.527a.684.684 0 0 1-.693.675.684.684 0 0 1-.694-.675c0-.373.31-.676.694-.676.384 0 .693.301.693.676ZM582.384 244.527c0 .372-.31.675-.694.675a.684.684 0 0 1-.694-.675c0-.373.31-.676.694-.676.384 0 .694.301.694.676ZM584.548 244.527c0 .372-.31.675-.694.675a.685.685 0 0 1-.694-.675c0-.373.31-.676.694-.676.382 0 .694.301.694.676ZM586.716 244.527c0 .372-.31.675-.694.675a.685.685 0 0 1-.694-.675c0-.373.31-.676.694-.676.382 0 .694.301.694.676ZM588.88 244.527c0 .372-.31.675-.694.675a.685.685 0 0 1-.694-.675c0-.373.31-.676.694-.676.384 0 .694.301.694.676ZM552.079 246.635c0 .372-.31.676-.694.676a.686.686 0 0 1-.694-.676c0-.373.31-.676.694-.676.384 0 .694.303.694.676ZM554.247 246.635c0 .372-.31.676-.694.676a.686.686 0 0 1-.694-.676c0-.373.31-.676.694-.676.382 0 .694.303.694.676ZM556.407 246.635c0 .372-.31.676-.694.676a.685.685 0 0 1-.693-.676c0-.373.309-.676.693-.676.383 0 .694.303.694.676ZM558.575 246.635c0 .372-.31.676-.694.676a.685.685 0 0 1-.693-.676c0-.373.309-.676.693-.676.384 0 .694.303.694.676ZM562.903 246.635c0 .372-.31.676-.694.676a.685.685 0 0 1-.693-.676c0-.373.309-.676.693-.676.383 0 .694.303.694.676ZM567.231 246.635a.685.685 0 0 1-.694.676.685.685 0 0 1-.693-.676c0-.373.309-.676.693-.676.385 0 .694.303.694.676ZM560.735 246.635c0 .372-.31.676-.694.676a.685.685 0 0 1-.693-.676c0-.373.309-.676.693-.676.384 0 .694.303.694.676ZM565.067 246.635c0 .372-.31.676-.694.676a.685.685 0 0 1-.693-.676c0-.373.309-.676.693-.676.384 0 .694.303.694.676ZM569.395 246.635a.685.685 0 0 1-.693.676.685.685 0 0 1-.694-.676c0-.373.309-.676.694-.676.382 0 .693.303.693.676ZM571.559 246.635a.685.685 0 0 1-.693.676.685.685 0 0 1-.694-.676c0-.373.31-.676.694-.676.382 0 .693.303.693.676ZM573.723 246.635a.685.685 0 0 1-.693.676.685.685 0 0 1-.694-.676c0-.373.31-.676.694-.676.384 0 .693.303.693.676ZM575.891 246.635a.685.685 0 0 1-.693.676.685.685 0 0 1-.694-.676c0-.373.31-.676.694-.676.384 0 .693.303.693.676ZM578.055 246.635a.685.685 0 0 1-.693.676.685.685 0 0 1-.694-.676c0-.373.31-.676.694-.676.382 0 .693.303.693.676ZM580.219 246.635a.685.685 0 0 1-.693.676.685.685 0 0 1-.694-.676c0-.373.31-.676.694-.676.384 0 .693.303.693.676ZM582.384 246.635c0 .372-.31.676-.694.676a.685.685 0 0 1-.694-.676c0-.373.31-.676.694-.676.384 0 .694.303.694.676ZM584.548 246.635c0 .372-.31.676-.694.676a.686.686 0 0 1-.694-.676c0-.373.31-.676.694-.676.382 0 .694.303.694.676ZM586.716 246.635c0 .372-.31.676-.694.676a.686.686 0 0 1-.694-.676c0-.373.31-.676.694-.676.382 0 .694.303.694.676ZM588.88 246.635c0 .372-.31.676-.694.676a.686.686 0 0 1-.694-.676c0-.373.31-.676.694-.676.384 0 .694.303.694.676ZM552.079 248.744c0 .372-.31.676-.694.676a.686.686 0 0 1-.694-.676c0-.373.31-.676.694-.676.384 0 .694.303.694.676ZM549.915 246.635c0 .372-.31.676-.694.676a.686.686 0 0 1-.694-.676c0-.373.31-.676.694-.676.384 0 .694.303.694.676ZM549.915 248.744c0 .372-.31.676-.694.676a.686.686 0 0 1-.694-.676c0-.373.31-.676.694-.676.384 0 .694.303.694.676ZM554.247 248.744c0 .372-.31.676-.694.676a.686.686 0 0 1-.694-.676c0-.373.31-.676.694-.676.382 0 .694.303.694.676ZM558.575 248.744c0 .372-.31.676-.694.676a.685.685 0 0 1-.693-.676c0-.373.309-.676.693-.676.384 0 .694.303.694.676ZM556.407 242.415c0 .373-.31.676-.694.676a.685.685 0 0 1-.693-.676c0-.372.309-.676.693-.676a.688.688 0 0 1 .694.676ZM556.407 248.744c0 .372-.31.676-.694.676a.685.685 0 0 1-.693-.676c0-.373.309-.676.693-.676.383 0 .694.303.694.676ZM560.735 248.744c0 .372-.31.676-.694.676a.685.685 0 0 1-.693-.676c0-.373.309-.676.693-.676.384 0 .694.303.694.676ZM562.903 248.744c0 .372-.31.676-.694.676a.685.685 0 0 1-.693-.676c0-.373.309-.676.693-.676.383 0 .694.303.694.676ZM565.067 248.744c0 .372-.31.676-.694.676a.685.685 0 0 1-.693-.676c0-.373.309-.676.693-.676.384 0 .694.303.694.676ZM567.231 248.744a.685.685 0 0 1-.694.676.685.685 0 0 1-.693-.676c0-.373.309-.676.693-.676.385 0 .694.303.694.676ZM571.559 248.744a.685.685 0 0 1-.693.676.685.685 0 0 1-.694-.676c0-.373.31-.676.694-.676.382 0 .693.303.693.676ZM569.395 248.744a.685.685 0 0 1-.693.676.685.685 0 0 1-.694-.676c0-.373.309-.676.694-.676.382 0 .693.303.693.676ZM573.723 248.744a.685.685 0 0 1-.693.676.685.685 0 0 1-.694-.676c0-.373.31-.676.694-.676.384 0 .693.303.693.676ZM575.891 248.744a.685.685 0 0 1-.693.676.685.685 0 0 1-.694-.676c0-.373.31-.676.694-.676.384 0 .693.303.693.676ZM578.055 248.744a.685.685 0 0 1-.693.676.685.685 0 0 1-.694-.676c0-.373.31-.676.694-.676.382 0 .693.303.693.676ZM580.219 248.744a.685.685 0 0 1-.693.676.685.685 0 0 1-.694-.676c0-.373.31-.676.694-.676.384 0 .693.303.693.676ZM582.384 248.744c0 .372-.31.676-.694.676a.685.685 0 0 1-.694-.676c0-.373.31-.676.694-.676.384 0 .694.303.694.676ZM584.548 248.744c0 .372-.31.676-.694.676a.686.686 0 0 1-.694-.676c0-.373.31-.676.694-.676.382 0 .694.303.694.676ZM586.716 248.744c0 .372-.31.676-.694.676a.686.686 0 0 1-.694-.676c0-.373.31-.676.694-.676.382 0 .694.303.694.676ZM588.88 248.744c0 .372-.31.676-.694.676a.686.686 0 0 1-.694-.676c0-.373.31-.676.694-.676.384 0 .694.303.694.676ZM549.915 250.852c0 .373-.31.676-.694.676a.686.686 0 0 1-.694-.676c0-.372.31-.676.694-.676a.687.687 0 0 1 .694.676ZM552.079 250.852c0 .373-.31.676-.694.676a.686.686 0 0 1-.694-.676c0-.372.31-.676.694-.676a.687.687 0 0 1 .694.676ZM554.247 250.852c0 .373-.31.676-.694.676a.686.686 0 0 1-.694-.676c0-.372.31-.676.694-.676a.688.688 0 0 1 .694.676ZM556.407 250.852c0 .373-.31.676-.694.676a.685.685 0 0 1-.693-.676c0-.372.309-.676.693-.676a.688.688 0 0 1 .694.676ZM562.903 250.852c0 .373-.31.676-.694.676a.685.685 0 0 1-.693-.676c0-.372.309-.676.693-.676a.688.688 0 0 1 .694.676ZM567.231 250.852a.684.684 0 0 1-.694.676.685.685 0 0 1-.693-.676c0-.372.309-.676.693-.676a.686.686 0 0 1 .694.676ZM569.395 250.852a.684.684 0 0 1-.693.676.685.685 0 0 1-.694-.676c0-.372.309-.676.694-.676a.687.687 0 0 1 .693.676ZM571.559 250.852a.684.684 0 0 1-.693.676.685.685 0 0 1-.694-.676c0-.372.31-.676.694-.676a.687.687 0 0 1 .693.676ZM573.723 250.852a.684.684 0 0 1-.693.676.685.685 0 0 1-.694-.676c0-.372.31-.676.694-.676a.686.686 0 0 1 .693.676ZM575.891 250.852a.684.684 0 0 1-.693.676.685.685 0 0 1-.694-.676c0-.372.31-.676.694-.676a.686.686 0 0 1 .693.676ZM578.055 250.852a.684.684 0 0 1-.693.676.685.685 0 0 1-.694-.676c0-.372.31-.676.694-.676a.687.687 0 0 1 .693.676ZM580.219 250.852a.684.684 0 0 1-.693.676.685.685 0 0 1-.694-.676c0-.372.31-.676.694-.676a.686.686 0 0 1 .693.676ZM582.384 250.852c0 .373-.31.676-.694.676a.685.685 0 0 1-.694-.676c0-.372.31-.676.694-.676a.687.687 0 0 1 .694.676ZM584.548 250.852c0 .373-.31.676-.694.676a.686.686 0 0 1-.694-.676c0-.372.31-.676.694-.676a.688.688 0 0 1 .694.676ZM586.716 250.852c0 .373-.31.676-.694.676a.686.686 0 0 1-.694-.676c0-.372.31-.676.694-.676a.688.688 0 0 1 .694.676ZM588.88 250.852c0 .373-.31.676-.694.676a.686.686 0 0 1-.694-.676c0-.372.31-.676.694-.676a.687.687 0 0 1 .694.676ZM549.915 252.963c0 .373-.31.676-.694.676a.686.686 0 0 1-.694-.676c0-.372.31-.676.694-.676.384 0 .694.302.694.676ZM554.247 252.963c0 .373-.31.676-.694.676a.686.686 0 0 1-.694-.676c0-.372.31-.676.694-.676.382 0 .694.302.694.676ZM552.079 252.963c0 .373-.31.676-.694.676a.686.686 0 0 1-.694-.676c0-.372.31-.676.694-.676.384 0 .694.302.694.676ZM556.407 252.963c0 .373-.31.676-.694.676a.685.685 0 0 1-.693-.676c0-.372.309-.676.693-.676.383 0 .694.302.694.676ZM558.575 252.963c0 .373-.31.676-.694.676a.685.685 0 0 1-.693-.676c0-.372.309-.676.693-.676.384 0 .694.302.694.676ZM562.903 252.963c0 .373-.31.676-.694.676a.685.685 0 0 1-.693-.676c0-.372.309-.676.693-.676.383 0 .694.302.694.676ZM565.067 252.963c0 .373-.31.676-.694.676a.685.685 0 0 1-.693-.676c0-.372.309-.676.693-.676.384 0 .694.302.694.676ZM567.231 252.963a.684.684 0 0 1-.694.676.685.685 0 0 1-.693-.676c0-.372.309-.676.693-.676.385 0 .694.302.694.676ZM569.395 252.963a.684.684 0 0 1-.693.676.685.685 0 0 1-.694-.676c0-.372.309-.676.694-.676.382 0 .693.302.693.676ZM571.559 252.963a.684.684 0 0 1-.693.676.685.685 0 0 1-.694-.676c0-.372.31-.676.694-.676.382 0 .693.302.693.676ZM573.723 252.963a.684.684 0 0 1-.693.676.685.685 0 0 1-.694-.676c0-.372.31-.676.694-.676.384 0 .693.302.693.676ZM575.891 252.963a.684.684 0 0 1-.693.676.685.685 0 0 1-.694-.676c0-.372.31-.676.694-.676.384 0 .693.302.693.676ZM578.055 252.963a.684.684 0 0 1-.693.676.685.685 0 0 1-.694-.676c0-.372.31-.676.694-.676.382 0 .693.302.693.676ZM580.219 252.963a.684.684 0 0 1-.693.676.685.685 0 0 1-.694-.676c0-.372.31-.676.694-.676.384 0 .693.302.693.676ZM582.384 252.963c0 .373-.31.676-.694.676a.685.685 0 0 1-.694-.676c0-.372.31-.676.694-.676.384 0 .694.302.694.676ZM584.548 252.963c0 .373-.31.676-.694.676a.686.686 0 0 1-.694-.676c0-.372.31-.676.694-.676.382 0 .694.302.694.676ZM586.716 252.963c0 .373-.31.676-.694.676a.686.686 0 0 1-.694-.676c0-.372.31-.676.694-.676.382 0 .694.302.694.676ZM588.88 252.963c0 .373-.31.676-.694.676a.686.686 0 0 1-.694-.676c0-.372.31-.676.694-.676.384 0 .694.302.694.676ZM549.915 255.071c0 .373-.31.676-.694.676a.685.685 0 0 1-.694-.676c0-.372.31-.675.694-.675.384 0 .694.303.694.675ZM552.079 255.071c0 .373-.31.676-.694.676a.685.685 0 0 1-.694-.676c0-.372.31-.675.694-.675.384 0 .694.303.694.675ZM554.247 255.071c0 .373-.31.676-.694.676a.685.685 0 0 1-.694-.676c0-.372.31-.675.694-.675.382 0 .694.303.694.675ZM556.407 255.071c0 .373-.31.676-.694.676a.684.684 0 0 1-.693-.676c0-.372.309-.675.693-.675.383 0 .694.303.694.675ZM558.575 255.071c0 .373-.31.676-.694.676a.684.684 0 0 1-.693-.676c0-.372.309-.675.693-.675.384 0 .694.303.694.675ZM562.903 255.071c0 .373-.31.676-.694.676a.684.684 0 0 1-.693-.676c0-.372.309-.675.693-.675.383 0 .694.303.694.675ZM560.735 250.852c0 .373-.31.676-.694.676a.685.685 0 0 1-.693-.676c0-.372.309-.676.693-.676a.687.687 0 0 1 .694.676ZM558.575 250.852c0 .373-.31.676-.694.676a.685.685 0 0 1-.693-.676c0-.372.309-.676.693-.676a.687.687 0 0 1 .694.676ZM560.735 252.963c0 .373-.31.676-.694.676a.685.685 0 0 1-.693-.676c0-.372.309-.676.693-.676.384 0 .694.302.694.676ZM560.735 255.071c0 .373-.31.676-.694.676a.684.684 0 0 1-.693-.676c0-.372.309-.675.693-.675.384 0 .694.303.694.675ZM567.231 255.071a.684.684 0 0 1-.694.676.684.684 0 0 1-.693-.676c0-.372.309-.675.693-.675.385 0 .694.303.694.675ZM565.067 250.852c0 .373-.31.676-.694.676a.685.685 0 0 1-.693-.676c0-.372.309-.676.693-.676a.687.687 0 0 1 .694.676ZM565.067 255.071c0 .373-.31.676-.694.676a.684.684 0 0 1-.693-.676c0-.372.309-.675.693-.675.384 0 .694.303.694.675ZM569.395 255.071a.684.684 0 0 1-.693.676.684.684 0 0 1-.694-.676c0-.372.309-.675.694-.675.382 0 .693.303.693.675ZM571.559 255.071a.684.684 0 0 1-.693.676.684.684 0 0 1-.694-.676c0-.372.31-.675.694-.675.382 0 .693.303.693.675ZM573.723 255.071a.684.684 0 0 1-.693.676.684.684 0 0 1-.694-.676c0-.372.31-.675.694-.675.384 0 .693.303.693.675ZM575.891 255.071a.684.684 0 0 1-.693.676.684.684 0 0 1-.694-.676c0-.372.31-.675.694-.675.384 0 .693.303.693.675ZM578.055 255.071a.684.684 0 0 1-.693.676.684.684 0 0 1-.694-.676c0-.372.31-.675.694-.675.382 0 .693.303.693.675ZM580.219 255.071a.684.684 0 0 1-.693.676.684.684 0 0 1-.694-.676c0-.372.31-.675.694-.675.384 0 .693.303.693.675ZM582.384 255.071c0 .373-.31.676-.694.676a.684.684 0 0 1-.694-.676c0-.372.31-.675.694-.675.384 0 .694.303.694.675ZM584.548 255.071c0 .373-.31.676-.694.676a.685.685 0 0 1-.694-.676c0-.372.31-.675.694-.675.382 0 .694.303.694.675ZM586.716 255.071c0 .373-.31.676-.694.676a.685.685 0 0 1-.694-.676c0-.372.31-.675.694-.675.382 0 .694.303.694.675ZM588.88 255.071c0 .373-.31.676-.694.676a.685.685 0 0 1-.694-.676c0-.372.31-.675.694-.675.384 0 .694.303.694.675ZM549.911 257.181a.685.685 0 0 1-.694.676c-.382 0-.482-.39-.631-.659 0-.373.247-.693.631-.693a.686.686 0 0 1 .694.676ZM552.079 257.181c0 .372-.31.676-.694.676a.686.686 0 0 1-.694-.676c0-.373.31-.676.694-.676a.686.686 0 0 1 .694.676ZM554.247 257.181c0 .372-.31.676-.694.676a.686.686 0 0 1-.694-.676c0-.373.31-.676.694-.676a.688.688 0 0 1 .694.676ZM556.407 257.181c0 .372-.31.676-.694.676a.685.685 0 0 1-.693-.676c0-.373.309-.676.693-.676a.687.687 0 0 1 .694.676ZM560.735 257.181c0 .372-.31.676-.694.676a.685.685 0 0 1-.693-.676c0-.373.309-.676.693-.676a.686.686 0 0 1 .694.676ZM558.575 257.181c0 .372-.31.676-.694.676a.685.685 0 0 1-.693-.676c0-.373.309-.676.693-.676a.686.686 0 0 1 .694.676ZM562.903 257.181c0 .372-.31.676-.694.676a.685.685 0 0 1-.693-.676c0-.373.309-.676.693-.676a.687.687 0 0 1 .694.676ZM567.231 257.181a.685.685 0 0 1-.694.676.685.685 0 0 1-.693-.676c0-.373.309-.676.693-.676a.686.686 0 0 1 .694.676ZM565.067 257.181c0 .372-.31.676-.694.676a.685.685 0 0 1-.693-.676c0-.373.309-.676.693-.676a.686.686 0 0 1 .694.676ZM571.559 257.181a.685.685 0 0 1-.693.676.685.685 0 0 1-.694-.676c0-.373.31-.676.694-.676a.687.687 0 0 1 .693.676ZM569.395 257.181a.685.685 0 0 1-.693.676.685.685 0 0 1-.694-.676c0-.373.309-.676.694-.676a.687.687 0 0 1 .693.676ZM573.723 257.181a.685.685 0 0 1-.693.676.685.685 0 0 1-.694-.676c0-.373.31-.676.694-.676a.685.685 0 0 1 .693.676ZM575.891 257.181a.685.685 0 0 1-.693.676.685.685 0 0 1-.694-.676c0-.373.31-.676.694-.676a.685.685 0 0 1 .693.676ZM578.055 257.181a.685.685 0 0 1-.693.676.685.685 0 0 1-.694-.676c0-.373.31-.676.694-.676a.687.687 0 0 1 .693.676ZM580.219 257.181a.685.685 0 0 1-.693.676.685.685 0 0 1-.694-.676c0-.373.31-.676.694-.676a.685.685 0 0 1 .693.676ZM582.384 257.181c0 .372-.31.676-.694.676a.685.685 0 0 1-.694-.676c0-.373.31-.676.694-.676a.686.686 0 0 1 .694.676ZM584.548 257.181c0 .372-.31.676-.694.676a.686.686 0 0 1-.694-.676c0-.373.31-.676.694-.676a.688.688 0 0 1 .694.676ZM586.716 257.181c0 .372-.31.676-.694.676a.686.686 0 0 1-.694-.676c0-.373.31-.676.694-.676a.688.688 0 0 1 .694.676ZM588.88 257.181c0 .372-.31.676-.694.676a.686.686 0 0 1-.694-.676c0-.373.31-.676.694-.676a.686.686 0 0 1 .694.676ZM552.079 259.291c0 .372-.31.676-.694.676a.686.686 0 0 1-.694-.676c0-.373.31-.676.694-.676.384 0 .694.301.694.676ZM549.91 259.291a.685.685 0 0 1-.693.676c-.383 0-.026-.457-.026-.831 0-.373-.358-.521.026-.521s.693.301.693.676ZM558.575 259.291c0 .372-.31.676-.694.676a.685.685 0 0 1-.693-.676c0-.373.309-.676.693-.676.384 0 .694.301.694.676ZM560.735 259.291c0 .372-.31.676-.694.676a.685.685 0 0 1-.693-.676c0-.373.309-.676.693-.676.384 0 .694.301.694.676ZM562.903 259.291c0 .372-.31.676-.694.676a.685.685 0 0 1-.693-.676c0-.373.309-.676.693-.676.383 0 .694.301.694.676ZM565.067 259.291c0 .372-.31.676-.694.676a.685.685 0 0 1-.693-.676c0-.373.309-.676.693-.676.384 0 .694.301.694.676ZM567.231 259.291a.685.685 0 0 1-.694.676.685.685 0 0 1-.693-.676c0-.373.309-.676.693-.676.385 0 .694.301.694.676ZM569.395 259.291a.685.685 0 0 1-.693.676.685.685 0 0 1-.694-.676c0-.373.309-.676.694-.676.382 0 .693.301.693.676ZM571.559 259.291a.685.685 0 0 1-.693.676.685.685 0 0 1-.694-.676c0-.373.31-.676.694-.676.382 0 .693.301.693.676ZM575.891 259.291a.685.685 0 0 1-.693.676.685.685 0 0 1-.694-.676c0-.373.31-.676.694-.676.384 0 .693.301.693.676ZM573.723 259.291a.685.685 0 0 1-.693.676.685.685 0 0 1-.694-.676c0-.373.31-.676.694-.676.384 0 .693.301.693.676ZM578.055 259.291a.685.685 0 0 1-.693.676.685.685 0 0 1-.694-.676c0-.373.31-.676.694-.676.382 0 .693.301.693.676ZM580.219 259.291a.685.685 0 0 1-.693.676.685.685 0 0 1-.694-.676c0-.373.31-.676.694-.676.384 0 .693.301.693.676ZM582.384 259.291c0 .372-.31.676-.694.676a.685.685 0 0 1-.694-.676c0-.373.31-.676.694-.676.384 0 .694.301.694.676ZM584.548 259.291c0 .372-.31.676-.694.676a.686.686 0 0 1-.694-.676c0-.373.31-.676.694-.676.382 0 .694.301.694.676ZM586.716 259.291c0 .372-.31.676-.694.676a.686.686 0 0 1-.694-.676c0-.373.31-.676.694-.676.382 0 .694.301.694.676ZM588.88 259.291c0 .372-.31.676-.694.676a.686.686 0 0 1-.694-.676c0-.373.31-.676.694-.676.384 0 .694.301.694.676ZM558.575 261.4c0 .372-.31.676-.694.676a.685.685 0 0 1-.693-.676c0-.373.309-.676.693-.676.384 0 .694.303.694.676ZM556.407 259.291c0 .372-.31.676-.694.676a.685.685 0 0 1-.693-.676c0-.373.309-.676.693-.676.383 0 .694.301.694.676ZM556.407 261.4c0 .372-.31.676-.694.676a.685.685 0 0 1-.693-.676c0-.373.309-.676.693-.676.383 0 .694.303.694.676ZM554.247 259.291c0 .372-.31.676-.694.676a.686.686 0 0 1-.694-.676c0-.373.31-.676.694-.676.382 0 .694.301.694.676ZM554.247 261.4c0 .372-.31.676-.694.676a.686.686 0 0 1-.694-.676c0-.373.31-.676.694-.676.382 0 .694.303.694.676ZM562.903 261.4c0 .372-.31.676-.694.676a.685.685 0 0 1-.693-.676c0-.373.309-.676.693-.676.383 0 .694.303.694.676ZM567.231 261.4a.685.685 0 0 1-.694.676.685.685 0 0 1-.693-.676c0-.373.309-.676.693-.676.385 0 .694.303.694.676ZM565.067 261.4c0 .372-.31.676-.694.676a.685.685 0 0 1-.693-.676c0-.373.309-.676.693-.676.384 0 .694.303.694.676ZM569.395 261.4a.685.685 0 0 1-.693.676.685.685 0 0 1-.694-.676c0-.373.309-.676.694-.676.382 0 .693.303.693.676ZM571.559 261.4a.685.685 0 0 1-.693.676.685.685 0 0 1-.694-.676c0-.373.31-.676.694-.676.382 0 .693.303.693.676ZM573.723 261.4a.685.685 0 0 1-.693.676.685.685 0 0 1-.694-.676c0-.373.31-.676.694-.676.384 0 .693.303.693.676ZM575.891 261.4a.685.685 0 0 1-.693.676.685.685 0 0 1-.694-.676c0-.373.31-.676.694-.676.384 0 .693.303.693.676ZM578.055 261.4a.685.685 0 0 1-.693.676.685.685 0 0 1-.694-.676c0-.373.31-.676.694-.676.382 0 .693.303.693.676ZM580.219 261.4a.685.685 0 0 1-.693.676.685.685 0 0 1-.694-.676c0-.373.31-.676.694-.676.384 0 .693.303.693.676ZM582.384 261.4c0 .372-.31.676-.694.676a.685.685 0 0 1-.694-.676c0-.373.31-.676.694-.676.384 0 .694.303.694.676ZM584.548 261.4c0 .372-.31.676-.694.676a.686.686 0 0 1-.694-.676c0-.373.31-.676.694-.676.382 0 .694.303.694.676ZM586.716 261.4c0 .372-.31.676-.694.676a.686.686 0 0 1-.694-.676c0-.373.31-.676.694-.676.382 0 .694.303.694.676ZM588.88 261.4c0 .372-.31.676-.694.676a.686.686 0 0 1-.694-.676c0-.373.31-.676.694-.676.384 0 .694.303.694.676ZM554.247 263.508c0 .373-.31.676-.694.676a.685.685 0 0 1-.694-.676c0-.372.31-.675.694-.675.382 0 .694.303.694.675ZM552.079 261.4c0 .372-.31.676-.694.676a.686.686 0 0 1-.694-.676c0-.373.31-.676.694-.676.384 0 .694.303.694.676ZM552.079 263.508c0 .373-.31.676-.694.676a.685.685 0 0 1-.694-.676c0-.372.31-.675.694-.675.384 0 .694.303.694.675ZM556.407 263.508c0 .373-.31.676-.694.676a.684.684 0 0 1-.693-.676c0-.372.309-.675.693-.675.383 0 .694.303.694.675ZM558.575 263.508c0 .373-.31.676-.694.676a.684.684 0 0 1-.693-.676c0-.372.309-.675.693-.675.384 0 .694.303.694.675ZM562.903 263.508c0 .373-.31.676-.694.676a.684.684 0 0 1-.693-.676c0-.372.309-.675.693-.675.383 0 .694.303.694.675ZM560.735 261.4c0 .372-.31.676-.694.676a.685.685 0 0 1-.693-.676c0-.373.309-.676.693-.676.384 0 .694.303.694.676ZM560.735 263.508c0 .373-.31.676-.694.676a.684.684 0 0 1-.693-.676c0-.372.309-.675.693-.675.384 0 .694.303.694.675ZM565.067 263.508c0 .373-.31.676-.694.676a.684.684 0 0 1-.693-.676c0-.372.309-.675.693-.675.384 0 .694.303.694.675ZM569.395 263.508a.684.684 0 0 1-.693.676.684.684 0 0 1-.694-.676c0-.372.309-.675.694-.675.382 0 .693.303.693.675ZM567.231 263.508a.684.684 0 0 1-.694.676.684.684 0 0 1-.693-.676c0-.372.309-.675.693-.675.385 0 .694.303.694.675ZM571.559 263.508a.684.684 0 0 1-.693.676.684.684 0 0 1-.694-.676c0-.372.31-.675.694-.675.382 0 .693.303.693.675ZM573.723 263.508a.684.684 0 0 1-.693.676.684.684 0 0 1-.694-.676c0-.372.31-.675.694-.675.384 0 .693.303.693.675ZM575.891 263.508a.684.684 0 0 1-.693.676.684.684 0 0 1-.694-.676c0-.372.31-.675.694-.675.384 0 .693.303.693.675ZM578.055 263.508a.684.684 0 0 1-.693.676.684.684 0 0 1-.694-.676c0-.372.31-.675.694-.675.382 0 .693.303.693.675ZM580.219 263.508a.684.684 0 0 1-.693.676.684.684 0 0 1-.694-.676c0-.372.31-.675.694-.675.384 0 .693.303.693.675ZM582.384 263.508c0 .373-.31.676-.694.676a.684.684 0 0 1-.694-.676c0-.372.31-.675.694-.675.384 0 .694.303.694.675ZM584.548 263.508c0 .373-.31.676-.694.676a.685.685 0 0 1-.694-.676c0-.372.31-.675.694-.675.382 0 .694.303.694.675ZM586.716 263.508c0 .373-.31.676-.694.676a.685.685 0 0 1-.694-.676c0-.372.31-.675.694-.675.382 0 .694.303.694.675ZM588.88 263.508c0 .373-.31.676-.694.676a.685.685 0 0 1-.694-.676c0-.372.31-.675.694-.675.384 0 .694.303.694.675ZM552.079 265.618c0 .372-.31.676-.694.676a.686.686 0 0 1-.694-.676c0-.373.31-.676.694-.676a.686.686 0 0 1 .694.676ZM554.247 265.618c0 .372-.31.676-.694.676a.686.686 0 0 1-.694-.676c0-.373.31-.676.694-.676a.688.688 0 0 1 .694.676ZM556.407 265.618c0 .372-.31.676-.694.676a.685.685 0 0 1-.693-.676c0-.373.309-.676.693-.676a.687.687 0 0 1 .694.676ZM558.575 265.618c0 .372-.31.676-.694.676a.685.685 0 0 1-.693-.676c0-.373.309-.676.693-.676a.686.686 0 0 1 .694.676ZM560.735 265.618c0 .372-.31.676-.694.676a.685.685 0 0 1-.693-.676c0-.373.309-.676.693-.676a.686.686 0 0 1 .694.676ZM565.067 265.618c0 .372-.31.676-.694.676a.685.685 0 0 1-.693-.676c0-.373.309-.676.693-.676a.686.686 0 0 1 .694.676ZM567.231 265.618a.685.685 0 0 1-.694.676.685.685 0 0 1-.693-.676c0-.373.309-.676.693-.676a.686.686 0 0 1 .694.676ZM569.395 265.618a.685.685 0 0 1-.693.676.685.685 0 0 1-.694-.676c0-.373.309-.676.694-.676a.687.687 0 0 1 .693.676ZM571.559 265.618a.685.685 0 0 1-.693.676.685.685 0 0 1-.694-.676c0-.373.31-.676.694-.676a.687.687 0 0 1 .693.676ZM573.723 265.618a.685.685 0 0 1-.693.676.685.685 0 0 1-.694-.676c0-.373.31-.676.694-.676a.685.685 0 0 1 .693.676ZM575.891 265.618a.685.685 0 0 1-.693.676.685.685 0 0 1-.694-.676c0-.373.31-.676.694-.676a.685.685 0 0 1 .693.676ZM578.055 265.618a.685.685 0 0 1-.693.676.685.685 0 0 1-.694-.676c0-.373.31-.676.694-.676a.687.687 0 0 1 .693.676ZM580.219 265.618a.685.685 0 0 1-.693.676.685.685 0 0 1-.694-.676c0-.373.31-.676.694-.676a.685.685 0 0 1 .693.676ZM582.384 265.618c0 .372-.31.676-.694.676a.685.685 0 0 1-.694-.676c0-.373.31-.676.694-.676a.686.686 0 0 1 .694.676ZM584.548 265.618c0 .372-.31.676-.694.676a.686.686 0 0 1-.694-.676c0-.373.31-.676.694-.676a.688.688 0 0 1 .694.676ZM586.716 265.618c0 .372-.31.676-.694.676a.686.686 0 0 1-.694-.676c0-.373.31-.676.694-.676a.688.688 0 0 1 .694.676ZM588.88 265.618c0 .372-.31.676-.694.676a.686.686 0 0 1-.694-.676c0-.373.31-.676.694-.676a.686.686 0 0 1 .694.676ZM552.075 267.728a.685.685 0 0 1-.693.676c-.383 0-.374-.381-.374-.756 0-.372-.011-.596.374-.596.384 0 .693.301.693.676ZM556.407 267.728c0 .372-.31.676-.694.676a.685.685 0 0 1-.693-.676c0-.373.309-.676.693-.676.383 0 .694.301.694.676ZM554.247 267.728c0 .372-.31.676-.694.676a.686.686 0 0 1-.694-.676c0-.373.31-.676.694-.676.382 0 .694.301.694.676ZM558.575 267.728c0 .372-.31.676-.694.676a.685.685 0 0 1-.693-.676c0-.373.309-.676.693-.676.384 0 .694.301.694.676ZM560.735 267.728c0 .372-.31.676-.694.676a.685.685 0 0 1-.693-.676c0-.373.309-.676.693-.676.384 0 .694.301.694.676ZM562.903 267.728c0 .372-.31.676-.694.676a.685.685 0 0 1-.693-.676c0-.373.309-.676.693-.676.383 0 .694.301.694.676ZM565.067 267.728c0 .372-.31.676-.694.676a.685.685 0 0 1-.693-.676c0-.373.309-.676.693-.676.384 0 .694.301.694.676ZM567.231 267.728a.685.685 0 0 1-.694.676.685.685 0 0 1-.693-.676c0-.373.309-.676.693-.676.385 0 .694.301.694.676ZM571.559 267.728a.685.685 0 0 1-.693.676.685.685 0 0 1-.694-.676c0-.373.31-.676.694-.676.382 0 .693.301.693.676ZM569.395 267.728a.685.685 0 0 1-.693.676.685.685 0 0 1-.694-.676c0-.373.309-.676.694-.676.382 0 .693.301.693.676ZM573.723 267.728a.685.685 0 0 1-.693.676.685.685 0 0 1-.694-.676c0-.373.31-.676.694-.676.384 0 .693.301.693.676ZM575.891 267.728a.685.685 0 0 1-.693.676.685.685 0 0 1-.694-.676c0-.373.31-.676.694-.676.384 0 .693.301.693.676ZM578.055 267.728a.685.685 0 0 1-.693.676.685.685 0 0 1-.694-.676c0-.373.31-.676.694-.676.382 0 .693.301.693.676ZM580.219 267.728a.685.685 0 0 1-.693.676.685.685 0 0 1-.694-.676c0-.373.31-.676.694-.676.384 0 .693.301.693.676ZM582.384 267.728c0 .372-.31.676-.694.676a.685.685 0 0 1-.694-.676c0-.373.31-.676.694-.676.384 0 .694.301.694.676ZM584.548 267.728c0 .372-.31.676-.694.676a.686.686 0 0 1-.694-.676c0-.373.31-.676.694-.676.382 0 .694.301.694.676ZM586.716 267.728c0 .372-.31.676-.694.676a.686.686 0 0 1-.694-.676c0-.373.31-.676.694-.676.382 0 .694.301.694.676ZM588.88 267.728c0 .372-.31.676-.694.676a.686.686 0 0 1-.694-.676c0-.373.31-.676.694-.676.384 0 .694.301.694.676ZM562.903 265.618c0 .372-.31.676-.694.676a.685.685 0 0 1-.693-.676c0-.373.309-.676.693-.676a.687.687 0 0 1 .694.676Z" fill="#3136BD"/><path d="M582.387 267.729a.685.685 0 0 1-.693.676.685.685 0 0 1-.694-.676c0-.373.31-.676.694-.676.382 0 .693.303.693.676ZM586.719 267.729a.685.685 0 0 1-.693.676.685.685 0 0 1-.694-.676c0-.373.31-.676.694-.676.384 0 .693.303.693.676ZM584.552 267.729c0 .372-.31.676-.694.676a.685.685 0 0 1-.694-.676c0-.373.31-.676.694-.676.382 0 .694.303.694.676ZM588.884 267.729c0 .372-.31.676-.694.676a.685.685 0 0 1-.694-.676c0-.373.31-.676.694-.676.384 0 .694.303.694.676ZM593.212 267.729c0 .372-.31.676-.694.676a.686.686 0 0 1-.694-.676c0-.373.31-.676.694-.676.384 0 .694.303.694.676ZM591.044 267.729c0 .372-.31.676-.694.676a.686.686 0 0 1-.694-.676c0-.373.31-.676.694-.676.382 0 .694.303.694.676ZM595.376 267.729c0 .372-.31.676-.694.676a.686.686 0 0 1-.694-.676c0-.373.31-.676.694-.676.384 0 .694.303.694.676ZM597.54 267.729c0 .372-.31.676-.694.676a.686.686 0 0 1-.694-.676c0-.373.31-.676.694-.676.382 0 .694.303.694.676ZM599.704 267.729c0 .372-.31.676-.694.676a.686.686 0 0 1-.694-.676c0-.373.31-.676.694-.676.382 0 .694.303.694.676ZM601.868 267.729c0 .372-.31.676-.694.676a.686.686 0 0 1-.694-.676c0-.373.31-.676.694-.676.384 0 .694.303.694.676ZM606.2 267.729c0 .372-.31.676-.694.676a.686.686 0 0 1-.694-.676c0-.373.31-.676.694-.676.383 0 .694.303.694.676ZM604.028 267.729c0 .372-.31.676-.694.676a.685.685 0 0 1-.693-.676c0-.373.309-.676.693-.676.384 0 .694.303.694.676ZM608.364 267.729c0 .372-.31.676-.694.676a.685.685 0 0 1-.693-.676c0-.373.309-.676.693-.676.383 0 .694.303.694.676ZM610.528 267.729c0 .372-.31.676-.694.676a.685.685 0 0 1-.693-.676c0-.373.309-.676.693-.676.384 0 .694.303.694.676ZM612.692 267.729c0 .372-.31.676-.694.676a.685.685 0 0 1-.693-.676c0-.373.309-.676.693-.676.384 0 .694.303.694.676ZM614.856 267.729a.685.685 0 0 1-.694.676.685.685 0 0 1-.693-.676c0-.373.309-.676.693-.676.383 0 .694.303.694.676ZM617.02 267.729a.685.685 0 0 1-.693.676.685.685 0 0 1-.694-.676c0-.373.309-.676.694-.676.384 0 .693.303.693.676ZM619.188 267.729a.685.685 0 0 1-.693.676.685.685 0 0 1-.694-.676c0-.373.309-.676.694-.676.384 0 .693.303.693.676ZM584.552 269.838c0 .372-.31.676-.694.676a.685.685 0 0 1-.694-.676c0-.373.31-.676.694-.676a.687.687 0 0 1 .694.676ZM588.884 269.838c0 .372-.31.676-.694.676a.685.685 0 0 1-.694-.676c0-.373.31-.676.694-.676a.686.686 0 0 1 .694.676ZM591.044 269.838c0 .372-.31.676-.694.676a.686.686 0 0 1-.694-.676c0-.373.31-.676.694-.676a.687.687 0 0 1 .694.676ZM593.212 269.838c0 .372-.31.676-.694.676a.686.686 0 0 1-.694-.676c0-.373.31-.676.694-.676a.686.686 0 0 1 .694.676ZM597.54 269.838c0 .372-.31.676-.694.676a.686.686 0 0 1-.694-.676c0-.373.31-.676.694-.676a.687.687 0 0 1 .694.676ZM601.868 269.838c0 .372-.31.676-.694.676a.686.686 0 0 1-.694-.676c0-.373.31-.676.694-.676a.686.686 0 0 1 .694.676ZM595.376 269.838c0 .372-.31.676-.694.676a.686.686 0 0 1-.694-.676c0-.373.31-.676.694-.676a.686.686 0 0 1 .694.676ZM599.704 269.838c0 .372-.31.676-.694.676a.686.686 0 0 1-.694-.676c0-.373.31-.676.694-.676a.687.687 0 0 1 .694.676ZM604.028 269.838c0 .372-.31.676-.694.676a.685.685 0 0 1-.693-.676c0-.373.309-.676.693-.676a.686.686 0 0 1 .694.676ZM606.2 269.838c0 .372-.31.676-.694.676a.686.686 0 0 1-.694-.676c0-.373.31-.676.694-.676a.686.686 0 0 1 .694.676ZM608.364 269.838c0 .372-.31.676-.694.676a.685.685 0 0 1-.693-.676c0-.373.309-.676.693-.676a.686.686 0 0 1 .694.676ZM610.528 269.838c0 .372-.31.676-.694.676a.685.685 0 0 1-.693-.676c0-.373.309-.676.693-.676a.686.686 0 0 1 .694.676ZM612.692 269.838c0 .372-.31.676-.694.676a.685.685 0 0 1-.693-.676c0-.373.309-.676.693-.676a.686.686 0 0 1 .694.676ZM614.856 269.838a.685.685 0 0 1-.694.676.685.685 0 0 1-.693-.676c0-.373.309-.676.693-.676a.686.686 0 0 1 .694.676ZM617.02 269.838a.685.685 0 0 1-.693.676.685.685 0 0 1-.694-.676c0-.373.309-.676.694-.676a.685.685 0 0 1 .693.676ZM619.01 269.757c0 .372-.131.757-.515.757a.685.685 0 0 1-.694-.676c0-.373.309-.676.694-.676.384.001.515.222.515.595ZM584.552 271.947c0 .373-.31.676-.694.676a.684.684 0 0 1-.694-.676c0-.372.31-.676.694-.676.382 0 .694.302.694.676ZM582.387 269.838a.685.685 0 0 1-.693.676.685.685 0 0 1-.694-.676c0-.373.31-.676.694-.676a.686.686 0 0 1 .693.676ZM582.387 271.947a.684.684 0 0 1-.693.676.684.684 0 0 1-.694-.676c0-.372.31-.676.694-.676.382 0 .693.302.693.676ZM588.884 271.947c0 .373-.31.676-.694.676a.684.684 0 0 1-.694-.676c0-.372.31-.676.694-.676.384 0 .694.302.694.676ZM586.719 269.838a.685.685 0 0 1-.693.676.685.685 0 0 1-.694-.676c0-.373.31-.676.694-.676a.685.685 0 0 1 .693.676ZM586.719 271.947a.684.684 0 0 1-.693.676.684.684 0 0 1-.694-.676c0-.372.31-.676.694-.676.384 0 .693.302.693.676ZM591.044 271.947c0 .373-.31.676-.694.676a.685.685 0 0 1-.694-.676c0-.372.31-.676.694-.676.382 0 .694.302.694.676ZM593.212 271.947c0 .373-.31.676-.694.676a.685.685 0 0 1-.694-.676c0-.372.31-.676.694-.676.384 0 .694.302.694.676ZM595.376 271.947c0 .373-.31.676-.694.676a.685.685 0 0 1-.694-.676c0-.372.31-.676.694-.676.384 0 .694.302.694.676ZM597.54 271.947c0 .373-.31.676-.694.676a.685.685 0 0 1-.694-.676c0-.372.31-.676.694-.676.382 0 .694.302.694.676ZM599.704 271.947c0 .373-.31.676-.694.676a.685.685 0 0 1-.694-.676c0-.372.31-.676.694-.676.382 0 .694.302.694.676ZM601.868 271.947c0 .373-.31.676-.694.676a.685.685 0 0 1-.694-.676c0-.372.31-.676.694-.676.384 0 .694.302.694.676ZM604.028 271.947c0 .373-.31.676-.694.676a.684.684 0 0 1-.693-.676c0-.372.309-.676.693-.676.384 0 .694.302.694.676ZM606.2 271.947c0 .373-.31.676-.694.676a.685.685 0 0 1-.694-.676c0-.372.31-.676.694-.676.383 0 .694.302.694.676ZM608.364 271.947c0 .373-.31.676-.694.676a.684.684 0 0 1-.693-.676c0-.372.309-.676.693-.676.383 0 .694.302.694.676ZM610.528 271.947c0 .373-.31.676-.694.676a.684.684 0 0 1-.693-.676c0-.372.309-.676.693-.676.384 0 .694.302.694.676ZM612.692 271.947c0 .373-.31.676-.694.676a.684.684 0 0 1-.693-.676c0-.372.309-.676.693-.676.384 0 .694.302.694.676ZM614.856 271.947a.684.684 0 0 1-.694.676.684.684 0 0 1-.693-.676c0-.372.309-.676.693-.676.383 0 .694.302.694.676ZM617.02 271.947a.684.684 0 0 1-.693.676.684.684 0 0 1-.694-.676c0-.372.309-.676.694-.676.384 0 .693.302.693.676ZM582.387 274.057a.685.685 0 0 1-.693.676.685.685 0 0 1-.694-.676c0-.373.31-.676.694-.676.382 0 .693.303.693.676ZM584.552 274.057c0 .372-.31.676-.694.676a.685.685 0 0 1-.694-.676c0-.373.31-.676.694-.676.382 0 .694.303.694.676ZM586.719 274.057a.685.685 0 0 1-.693.676.685.685 0 0 1-.694-.676c0-.373.31-.676.694-.676.384 0 .693.303.693.676ZM588.884 274.057c0 .372-.31.676-.694.676a.685.685 0 0 1-.694-.676c0-.373.31-.676.694-.676.384 0 .694.303.694.676ZM595.376 274.057c0 .372-.31.676-.694.676a.686.686 0 0 1-.694-.676c0-.373.31-.676.694-.676.384 0 .694.303.694.676ZM597.54 274.057c0 .372-.31.676-.694.676a.686.686 0 0 1-.694-.676c0-.373.31-.676.694-.676.382 0 .694.303.694.676ZM599.704 274.057c0 .372-.31.676-.694.676a.686.686 0 0 1-.694-.676c0-.373.31-.676.694-.676.382 0 .694.303.694.676ZM601.868 274.057c0 .372-.31.676-.694.676a.686.686 0 0 1-.694-.676c0-.373.31-.676.694-.676.384 0 .694.303.694.676ZM604.028 274.057c0 .372-.31.676-.694.676a.685.685 0 0 1-.693-.676c0-.373.309-.676.693-.676.384 0 .694.303.694.676ZM606.2 274.057c0 .372-.31.676-.694.676a.686.686 0 0 1-.694-.676c0-.373.31-.676.694-.676.383 0 .694.303.694.676ZM608.364 274.057c0 .372-.31.676-.694.676a.685.685 0 0 1-.693-.676c0-.373.309-.676.693-.676.383 0 .694.303.694.676ZM610.528 274.057c0 .372-.31.676-.694.676a.685.685 0 0 1-.693-.676c0-.373.309-.676.693-.676.384 0 .694.303.694.676ZM612.692 274.057c0 .372-.31.676-.694.676a.685.685 0 0 1-.693-.676c0-.373.309-.676.693-.676.384 0 .694.303.694.676ZM614.856 274.057a.685.685 0 0 1-.694.676.685.685 0 0 1-.693-.676c0-.373.309-.676.693-.676.383 0 .694.303.694.676ZM617.02 274.057a.685.685 0 0 1-.693.676.685.685 0 0 1-.694-.676c0-.373.309-.676.694-.676.384 0 .693.303.693.676ZM582.387 276.165a.684.684 0 0 1-.693.676.685.685 0 0 1-.694-.676c0-.372.31-.676.694-.676a.687.687 0 0 1 .693.676ZM584.552 276.165c0 .373-.31.676-.694.676a.685.685 0 0 1-.694-.676c0-.372.31-.676.694-.676a.688.688 0 0 1 .694.676ZM591.044 276.165c0 .373-.31.676-.694.676a.686.686 0 0 1-.694-.676c0-.372.31-.676.694-.676a.688.688 0 0 1 .694.676ZM593.212 276.165c0 .373-.31.676-.694.676a.686.686 0 0 1-.694-.676c0-.372.31-.676.694-.676a.687.687 0 0 1 .694.676ZM591.044 274.057c0 .372-.31.676-.694.676a.686.686 0 0 1-.694-.676c0-.373.31-.676.694-.676.382 0 .694.303.694.676ZM593.212 274.057c0 .372-.31.676-.694.676a.686.686 0 0 1-.694-.676c0-.373.31-.676.694-.676.384 0 .694.303.694.676ZM586.719 276.165a.684.684 0 0 1-.693.676.685.685 0 0 1-.694-.676c0-.372.31-.676.694-.676a.686.686 0 0 1 .693.676ZM588.884 276.165c0 .373-.31.676-.694.676a.685.685 0 0 1-.694-.676c0-.372.31-.676.694-.676a.687.687 0 0 1 .694.676ZM595.376 276.165c0 .373-.31.676-.694.676a.686.686 0 0 1-.694-.676c0-.372.31-.676.694-.676a.687.687 0 0 1 .694.676ZM597.54 276.165c0 .373-.31.676-.694.676a.686.686 0 0 1-.694-.676c0-.372.31-.676.694-.676a.688.688 0 0 1 .694.676ZM599.704 276.165c0 .373-.31.676-.694.676a.686.686 0 0 1-.694-.676c0-.372.31-.676.694-.676a.688.688 0 0 1 .694.676ZM601.868 276.165c0 .373-.31.676-.694.676a.686.686 0 0 1-.694-.676c0-.372.31-.676.694-.676a.687.687 0 0 1 .694.676ZM604.028 276.165c0 .373-.31.676-.694.676a.685.685 0 0 1-.693-.676c0-.372.309-.676.693-.676a.687.687 0 0 1 .694.676ZM608.364 276.165c0 .373-.31.676-.694.676a.685.685 0 0 1-.693-.676c0-.372.309-.676.693-.676a.688.688 0 0 1 .694.676ZM606.2 276.165c0 .373-.31.676-.694.676a.686.686 0 0 1-.694-.676c0-.372.31-.676.694-.676a.688.688 0 0 1 .694.676ZM610.528 276.165c0 .373-.31.676-.694.676a.685.685 0 0 1-.693-.676c0-.372.309-.676.693-.676a.687.687 0 0 1 .694.676ZM612.692 276.165c0 .373-.31.676-.694.676a.685.685 0 0 1-.693-.676c0-.372.309-.676.693-.676a.687.687 0 0 1 .694.676ZM614.856 276.165a.684.684 0 0 1-.694.676.685.685 0 0 1-.693-.676c0-.372.309-.676.693-.676a.688.688 0 0 1 .694.676ZM616.584 275.993c0 .373.127.848-.257.848a.685.685 0 0 1-.694-.676c0-.372.309-.676.694-.676.384.002.257.132.257.504ZM582.387 278.276a.684.684 0 0 1-.693.676.685.685 0 0 1-.694-.676c0-.372.31-.676.694-.676.382 0 .693.302.693.676ZM584.552 278.276c0 .373-.31.676-.694.676a.685.685 0 0 1-.694-.676c0-.372.31-.676.694-.676.382 0 .694.302.694.676ZM586.719 278.276a.684.684 0 0 1-.693.676.685.685 0 0 1-.694-.676c0-.372.31-.676.694-.676.384 0 .693.302.693.676ZM588.884 278.276c0 .373-.31.676-.694.676a.685.685 0 0 1-.694-.676c0-.372.31-.676.694-.676.384 0 .694.302.694.676ZM591.044 278.276c0 .373-.31.676-.694.676a.686.686 0 0 1-.694-.676c0-.372.31-.676.694-.676.382 0 .694.302.694.676ZM597.54 278.276c0 .373-.31.676-.694.676a.686.686 0 0 1-.694-.676c0-.372.31-.676.694-.676.382 0 .694.302.694.676ZM599.704 278.276c0 .373-.31.676-.694.676a.686.686 0 0 1-.694-.676c0-.372.31-.676.694-.676.382 0 .694.302.694.676ZM593.212 278.276c0 .373-.31.676-.694.676a.686.686 0 0 1-.694-.676c0-.372.31-.676.694-.676.384 0 .694.302.694.676ZM595.376 278.276c0 .373-.31.676-.694.676a.686.686 0 0 1-.694-.676c0-.372.31-.676.694-.676.384 0 .694.302.694.676ZM604.028 278.276c0 .373-.31.676-.694.676a.685.685 0 0 1-.693-.676c0-.372.309-.676.693-.676.384 0 .694.302.694.676ZM601.868 278.276c0 .373-.31.676-.694.676a.686.686 0 0 1-.694-.676c0-.372.31-.676.694-.676.384 0 .694.302.694.676ZM606.2 278.276c0 .373-.31.676-.694.676a.686.686 0 0 1-.694-.676c0-.372.31-.676.694-.676.383 0 .694.302.694.676ZM608.364 278.276c0 .373-.31.676-.694.676a.685.685 0 0 1-.693-.676c0-.372.309-.676.693-.676.383 0 .694.302.694.676ZM610.528 278.276c0 .373-.31.676-.694.676a.685.685 0 0 1-.693-.676c0-.372.309-.676.693-.676.384 0 .694.302.694.676ZM612.692 278.276c0 .373-.31.676-.694.676a.685.685 0 0 1-.693-.676c0-.372.309-.676.693-.676.384 0 .694.302.694.676ZM614.856 278.276a.684.684 0 0 1-.694.676.685.685 0 0 1-.693-.676c0-.372.309-.676.693-.676.383 0 .694.302.694.676ZM584.552 280.384c0 .373-.31.676-.694.676a.684.684 0 0 1-.694-.676c0-.372.31-.676.694-.676.382 0 .694.304.694.676ZM588.884 280.384c0 .373-.31.676-.694.676a.684.684 0 0 1-.694-.676c0-.372.31-.676.694-.676.384 0 .694.304.694.676ZM586.719 280.384a.684.684 0 0 1-.693.676.684.684 0 0 1-.694-.676c0-.372.31-.676.694-.676.384 0 .693.304.693.676ZM591.044 280.384c0 .373-.31.676-.694.676a.685.685 0 0 1-.694-.676c0-.372.31-.676.694-.676.382 0 .694.304.694.676ZM593.212 280.384c0 .373-.31.676-.694.676a.685.685 0 0 1-.694-.676c0-.372.31-.676.694-.676.384 0 .694.304.694.676ZM595.376 280.384c0 .373-.31.676-.694.676a.685.685 0 0 1-.694-.676c0-.372.31-.676.694-.676.384 0 .694.304.694.676ZM597.54 280.384c0 .373-.31.676-.694.676a.685.685 0 0 1-.694-.676c0-.372.31-.676.694-.676.382 0 .694.304.694.676ZM599.704 280.384c0 .373-.31.676-.694.676a.685.685 0 0 1-.694-.676c0-.372.31-.676.694-.676.382 0 .694.304.694.676ZM601.868 280.384c0 .373-.31.676-.694.676a.685.685 0 0 1-.694-.676c0-.372.31-.676.694-.676.384 0 .694.304.694.676ZM604.028 280.384c0 .373-.31.676-.694.676a.684.684 0 0 1-.693-.676c0-.372.309-.676.693-.676.384 0 .694.304.694.676ZM606.2 280.384c0 .373-.31.676-.694.676a.685.685 0 0 1-.694-.676c0-.372.31-.676.694-.676.383 0 .694.304.694.676ZM608.364 280.384c0 .373-.31.676-.694.676a.684.684 0 0 1-.693-.676c0-.372.309-.676.693-.676.383 0 .694.304.694.676ZM610.528 280.384c0 .373-.31.676-.694.676a.684.684 0 0 1-.693-.676c0-.372.309-.676.693-.676.384 0 .694.304.694.676ZM612.692 280.384c0 .373-.31.676-.694.676a.684.684 0 0 1-.693-.676c0-.372.309-.676.693-.676.384 0 .694.304.694.676ZM614.856 280.384a.684.684 0 0 1-.694.676.684.684 0 0 1-.693-.676c0-.372.309-.676.693-.676.383 0 .694.304.694.676ZM582.387 282.494a.685.685 0 0 1-.693.676.685.685 0 0 1-.694-.676c0-.373.31-.676.694-.676.382 0 .693.303.693.676ZM584.552 282.494c0 .372-.31.676-.694.676a.685.685 0 0 1-.694-.676c0-.373.31-.676.694-.676.382 0 .694.303.694.676ZM586.719 282.494a.685.685 0 0 1-.693.676.685.685 0 0 1-.694-.676c0-.373.31-.676.694-.676.384 0 .693.303.693.676ZM591.044 282.494c0 .372-.31.676-.694.676a.686.686 0 0 1-.694-.676c0-.373.31-.676.694-.676.382 0 .694.303.694.676ZM588.884 282.494c0 .372-.31.676-.694.676a.685.685 0 0 1-.694-.676c0-.373.31-.676.694-.676.384 0 .694.303.694.676ZM595.376 282.494c0 .372-.31.676-.694.676a.686.686 0 0 1-.694-.676c0-.373.31-.676.694-.676.384 0 .694.303.694.676ZM599.704 282.494c0 .372-.31.676-.694.676a.686.686 0 0 1-.694-.676c0-.373.31-.676.694-.676.382 0 .694.303.694.676ZM601.868 282.494c0 .372-.31.676-.694.676a.686.686 0 0 1-.694-.676c0-.373.31-.676.694-.676.384 0 .694.303.694.676ZM604.028 282.494c0 .372-.31.676-.694.676a.685.685 0 0 1-.693-.676c0-.373.309-.676.693-.676.384 0 .694.303.694.676ZM593.212 282.494c0 .372-.31.676-.694.676a.686.686 0 0 1-.694-.676c0-.373.31-.676.694-.676.384 0 .694.303.694.676ZM597.54 282.494c0 .372-.31.676-.694.676a.686.686 0 0 1-.694-.676c0-.373.31-.676.694-.676.382 0 .694.303.694.676ZM606.2 282.494c0 .372-.31.676-.694.676a.686.686 0 0 1-.694-.676c0-.373.31-.676.694-.676.383 0 .694.303.694.676ZM608.364 282.494c0 .372-.31.676-.694.676a.685.685 0 0 1-.693-.676c0-.373.309-.676.693-.676.383 0 .694.303.694.676ZM610.528 282.494c0 .372-.31.676-.694.676a.685.685 0 0 1-.693-.676c0-.373.309-.676.693-.676.384 0 .694.303.694.676ZM612.692 282.494c0 .372-.31.676-.694.676a.685.685 0 0 1-.693-.676c0-.373.309-.676.693-.676.384 0 .694.303.694.676ZM584.552 284.602c0 .372-.31.676-.694.676a.685.685 0 0 1-.694-.676c0-.373.31-.676.694-.676a.687.687 0 0 1 .694.676ZM582.387 280.384a.684.684 0 0 1-.693.676.684.684 0 0 1-.694-.676c0-.372.31-.676.694-.676.382 0 .693.304.693.676ZM582.387 284.602a.685.685 0 0 1-.693.676.685.685 0 0 1-.694-.676c0-.373.31-.676.694-.676a.686.686 0 0 1 .693.676ZM586.719 284.602a.685.685 0 0 1-.693.676.685.685 0 0 1-.694-.676c0-.373.31-.676.694-.676a.685.685 0 0 1 .693.676ZM588.884 284.602c0 .372-.31.676-.694.676a.685.685 0 0 1-.694-.676c0-.373.31-.676.694-.676a.686.686 0 0 1 .694.676ZM593.212 284.602c0 .372-.31.676-.694.676a.686.686 0 0 1-.694-.676c0-.373.31-.676.694-.676a.686.686 0 0 1 .694.676ZM595.376 284.602c0 .372-.31.676-.694.676a.686.686 0 0 1-.694-.676c0-.373.31-.676.694-.676a.686.686 0 0 1 .694.676ZM597.54 284.602c0 .372-.31.676-.694.676a.686.686 0 0 1-.694-.676c0-.373.31-.676.694-.676a.686.686 0 0 1 .694.676ZM599.704 284.602c0 .372-.31.676-.694.676a.686.686 0 0 1-.694-.676c0-.373.31-.676.694-.676a.687.687 0 0 1 .694.676ZM604.028 284.602c0 .372-.31.676-.694.676a.685.685 0 0 1-.693-.676c0-.373.309-.676.693-.676a.686.686 0 0 1 .694.676ZM608.364 284.602c0 .372-.31.676-.694.676a.685.685 0 0 1-.693-.676c0-.373.309-.676.693-.676a.686.686 0 0 1 .694.676ZM601.868 284.602c0 .372-.31.676-.694.676a.686.686 0 0 1-.694-.676c0-.373.31-.676.694-.676a.686.686 0 0 1 .694.676ZM606.2 284.602c0 .372-.31.676-.694.676a.686.686 0 0 1-.694-.676c0-.373.31-.676.694-.676a.686.686 0 0 1 .694.676ZM610.528 284.602c0 .372-.31.676-.694.676a.685.685 0 0 1-.693-.676c0-.373.309-.676.693-.676a.686.686 0 0 1 .694.676ZM612.607 284.506c0 .372-.225.772-.609.772a.685.685 0 0 1-.693-.676c0-.373.309-.676.693-.676.384.001.609.207.609.58ZM582.387 286.713a.684.684 0 0 1-.693.676.685.685 0 0 1-.694-.676c0-.372.31-.676.694-.676.382 0 .693.302.693.676ZM584.552 286.713c0 .373-.31.676-.694.676a.685.685 0 0 1-.694-.676c0-.372.31-.676.694-.676.382 0 .694.302.694.676ZM586.719 286.713a.684.684 0 0 1-.693.676.685.685 0 0 1-.694-.676c0-.372.31-.676.694-.676.384 0 .693.302.693.676ZM588.884 286.713c0 .373-.31.676-.694.676a.685.685 0 0 1-.694-.676c0-.372.31-.676.694-.676.384 0 .694.302.694.676ZM591.044 286.713c0 .373-.31.676-.694.676a.686.686 0 0 1-.694-.676c0-.372.31-.676.694-.676.382 0 .694.302.694.676ZM593.212 286.713c0 .373-.31.676-.694.676a.686.686 0 0 1-.694-.676c0-.372.31-.676.694-.676.384 0 .694.302.694.676ZM595.376 286.713c0 .373-.31.676-.694.676a.686.686 0 0 1-.694-.676c0-.372.31-.676.694-.676.384 0 .694.302.694.676ZM597.54 286.713c0 .373-.31.676-.694.676a.686.686 0 0 1-.694-.676c0-.372.31-.676.694-.676.384 0 .694.302.694.676ZM599.704 286.713c0 .373-.31.676-.694.676a.686.686 0 0 1-.694-.676c0-.372.31-.676.694-.676.382 0 .694.302.694.676ZM601.868 286.713c0 .373-.31.676-.694.676a.686.686 0 0 1-.694-.676c0-.372.31-.676.694-.676.384 0 .694.302.694.676ZM604.028 286.713c0 .373-.31.676-.694.676a.685.685 0 0 1-.693-.676c0-.372.309-.676.693-.676.384 0 .694.302.694.676ZM606.2 286.713c0 .373-.31.676-.694.676a.686.686 0 0 1-.694-.676c0-.372.31-.676.694-.676.383 0 .694.302.694.676ZM608.364 286.713c0 .373-.31.676-.694.676a.685.685 0 0 1-.693-.676c0-.372.309-.676.693-.676.383 0 .694.302.694.676ZM610.528 286.713c0 .373-.31.676-.694.676a.685.685 0 0 1-.693-.676c0-.372.309-.676.693-.676.384 0 .694.302.694.676ZM582.387 288.821a.684.684 0 0 1-.693.676.684.684 0 0 1-.694-.676c0-.372.31-.675.694-.675.382 0 .693.303.693.675ZM586.719 288.821a.684.684 0 0 1-.693.676.684.684 0 0 1-.694-.676c0-.372.31-.675.694-.675.384 0 .693.303.693.675ZM588.884 288.821c0 .373-.31.676-.694.676a.684.684 0 0 1-.694-.676c0-.372.31-.675.694-.675.384 0 .694.303.694.675ZM591.044 288.821c0 .373-.31.676-.694.676a.685.685 0 0 1-.694-.676c0-.372.31-.675.694-.675.382 0 .694.303.694.675ZM593.212 288.821c0 .373-.31.676-.694.676a.685.685 0 0 1-.694-.676c0-.372.31-.675.694-.675.384 0 .694.303.694.675ZM597.54 288.821c0 .373-.31.676-.694.676a.685.685 0 0 1-.694-.676c0-.372.31-.675.694-.675.384 0 .694.303.694.675ZM601.868 288.821c0 .373-.31.676-.694.676a.685.685 0 0 1-.694-.676c0-.372.31-.675.694-.675.384 0 .694.303.694.675ZM595.376 288.821c0 .373-.31.676-.694.676a.685.685 0 0 1-.694-.676c0-.372.31-.675.694-.675.384 0 .694.303.694.675ZM599.704 288.821c0 .373-.31.676-.694.676a.685.685 0 0 1-.694-.676c0-.372.31-.675.694-.675.382 0 .694.303.694.675ZM604.028 288.821c0 .373-.31.676-.694.676a.684.684 0 0 1-.693-.676c0-.372.309-.675.693-.675.384 0 .694.303.694.675ZM606.2 288.821c0 .373-.31.676-.694.676a.685.685 0 0 1-.694-.676c0-.372.31-.675.694-.675.383 0 .694.303.694.675ZM608.364 288.821c0 .373-.31.676-.694.676a.684.684 0 0 1-.693-.676c0-.372.309-.675.693-.675.383 0 .694.303.694.675ZM582.387 290.93a.684.684 0 0 1-.693.676.684.684 0 0 1-.694-.676c0-.372.31-.676.694-.676a.687.687 0 0 1 .693.676ZM586.719 290.93a.684.684 0 0 1-.693.676.684.684 0 0 1-.694-.676c0-.372.31-.676.694-.676a.686.686 0 0 1 .693.676ZM584.552 288.821c0 .373-.31.676-.694.676a.684.684 0 0 1-.694-.676c0-.372.31-.675.694-.675.382 0 .694.303.694.675ZM584.552 290.93c0 .373-.31.676-.694.676a.684.684 0 0 1-.694-.676c0-.372.31-.676.694-.676a.688.688 0 0 1 .694.676ZM588.884 290.93c0 .373-.31.676-.694.676a.684.684 0 0 1-.694-.676c0-.372.31-.676.694-.676a.687.687 0 0 1 .694.676ZM593.212 290.93c0 .373-.31.676-.694.676a.685.685 0 0 1-.694-.676c0-.372.31-.676.694-.676a.687.687 0 0 1 .694.676ZM591.044 284.602c0 .372-.31.676-.694.676a.686.686 0 0 1-.694-.676c0-.373.31-.676.694-.676a.687.687 0 0 1 .694.676ZM591.044 290.93c0 .373-.31.676-.694.676a.685.685 0 0 1-.694-.676c0-.372.31-.676.694-.676a.688.688 0 0 1 .694.676ZM595.376 290.93c0 .373-.31.676-.694.676a.685.685 0 0 1-.694-.676c0-.372.31-.676.694-.676a.687.687 0 0 1 .694.676ZM597.54 290.93c0 .373-.31.676-.694.676a.685.685 0 0 1-.694-.676c0-.372.31-.676.694-.676a.687.687 0 0 1 .694.676ZM599.704 290.93c0 .373-.31.676-.694.676a.685.685 0 0 1-.694-.676c0-.372.31-.676.694-.676a.688.688 0 0 1 .694.676ZM601.868 290.93c0 .373-.31.676-.694.676a.685.685 0 0 1-.694-.676c0-.372.31-.676.694-.676a.687.687 0 0 1 .694.676ZM606.2 290.93c0 .373-.31.676-.694.676a.685.685 0 0 1-.694-.676c0-.372.31-.676.694-.676a.688.688 0 0 1 .694.676ZM604.028 290.93c0 .373-.31.676-.694.676a.684.684 0 0 1-.693-.676c0-.372.309-.676.693-.676a.687.687 0 0 1 .694.676ZM608.364 290.93c0 .373-.31.676-.694.676a.684.684 0 0 1-.693-.676c0-.372.309-.676.693-.676a.688.688 0 0 1 .694.676ZM582.387 293.041a.685.685 0 0 1-.693.676.685.685 0 0 1-.694-.676c0-.373.31-.676.694-.676.382 0 .693.301.693.676ZM584.552 293.041c0 .372-.31.676-.694.676a.685.685 0 0 1-.694-.676c0-.373.31-.676.694-.676.382 0 .694.301.694.676ZM586.719 293.041a.685.685 0 0 1-.693.676.685.685 0 0 1-.694-.676c0-.373.31-.676.694-.676.384 0 .693.301.693.676ZM588.884 293.041c0 .372-.31.676-.694.676a.685.685 0 0 1-.694-.676c0-.373.31-.676.694-.676.384 0 .694.301.694.676ZM591.044 293.041c0 .372-.31.676-.694.676a.686.686 0 0 1-.694-.676c0-.373.31-.676.694-.676.382 0 .694.301.694.676ZM597.54 293.041c0 .372-.31.676-.694.676a.686.686 0 0 1-.694-.676c0-.373.31-.676.694-.676.384 0 .694.301.694.676ZM601.868 293.041c0 .372-.31.676-.694.676a.686.686 0 0 1-.694-.676c0-.373.31-.676.694-.676.384 0 .694.301.694.676ZM604.028 293.041c0 .372-.31.676-.694.676a.685.685 0 0 1-.693-.676c0-.373.309-.676.693-.676.384 0 .694.301.694.676ZM606.2 293.041c0 .372-.31.676-.694.676a.686.686 0 0 1-.694-.676c0-.373.31-.676.694-.676.383 0 .694.301.694.676ZM582.387 295.15a.685.685 0 0 1-.693.676.685.685 0 0 1-.694-.676c0-.373.31-.676.694-.676.382 0 .693.303.693.676ZM584.552 295.15c0 .372-.31.676-.694.676a.685.685 0 0 1-.694-.676c0-.373.31-.676.694-.676.382 0 .694.303.694.676ZM588.884 295.15c0 .372-.31.676-.694.676a.685.685 0 0 1-.694-.676c0-.373.31-.676.694-.676.384 0 .694.303.694.676ZM586.719 295.15a.685.685 0 0 1-.693.676.685.685 0 0 1-.694-.676c0-.373.31-.676.694-.676.384 0 .693.303.693.676ZM591.044 295.15c0 .372-.31.676-.694.676a.686.686 0 0 1-.694-.676c0-.373.31-.676.694-.676.382 0 .694.303.694.676ZM593.212 295.15c0 .372-.31.676-.694.676a.686.686 0 0 1-.694-.676c0-.373.31-.676.694-.676.384 0 .694.303.694.676ZM597.54 295.15c0 .372-.31.676-.694.676a.686.686 0 0 1-.694-.676c0-.373.31-.676.694-.676.384 0 .694.303.694.676ZM599.704 295.15c0 .372-.31.676-.694.676a.686.686 0 0 1-.694-.676c0-.373.31-.676.694-.676.382 0 .694.303.694.676ZM601.868 295.15c0 .372-.31.676-.694.676a.686.686 0 0 1-.694-.676c0-.373.31-.676.694-.676.384 0 .694.303.694.676ZM604.028 295.15c0 .372-.31.676-.694.676a.685.685 0 0 1-.693-.676c0-.373.309-.676.693-.676.384 0 .694.303.694.676ZM582.387 297.258a.684.684 0 0 1-.693.676.685.685 0 0 1-.694-.676c0-.373.31-.676.694-.676.382 0 .693.303.693.676ZM584.552 297.258c0 .373-.31.676-.694.676a.685.685 0 0 1-.694-.676c0-.373.31-.676.694-.676.382 0 .694.303.694.676ZM586.719 297.258a.684.684 0 0 1-.693.676.685.685 0 0 1-.694-.676c0-.373.31-.676.694-.676.384 0 .693.303.693.676ZM588.884 297.258c0 .373-.31.676-.694.676a.685.685 0 0 1-.694-.676c0-.373.31-.676.694-.676.384 0 .694.303.694.676ZM591.044 297.258c0 .373-.31.676-.694.676a.686.686 0 0 1-.694-.676c0-.373.31-.676.694-.676.382 0 .694.303.694.676ZM593.212 297.258c0 .373-.31.676-.694.676a.686.686 0 0 1-.694-.676c0-.373.31-.676.694-.676.384 0 .694.303.694.676ZM597.54 297.258c0 .373-.31.676-.694.676a.686.686 0 0 1-.694-.676c0-.373.31-.676.694-.676.384 0 .694.303.694.676ZM595.376 293.041c0 .372-.31.676-.694.676a.686.686 0 0 1-.694-.676c0-.373.31-.676.694-.676.384 0 .694.301.694.676ZM593.212 293.041c0 .372-.31.676-.694.676a.686.686 0 0 1-.694-.676c0-.373.31-.676.694-.676.384 0 .694.301.694.676ZM595.376 295.15c0 .372-.31.676-.694.676a.686.686 0 0 1-.694-.676c0-.373.31-.676.694-.676.384 0 .694.303.694.676ZM595.376 297.258c0 .373-.31.676-.694.676a.686.686 0 0 1-.694-.676c0-.373.31-.676.694-.676.384 0 .694.303.694.676ZM601.868 297.258c0 .373-.31.676-.694.676a.686.686 0 0 1-.694-.676c0-.373.31-.676.694-.676.384 0 .694.303.694.676ZM599.704 293.041c0 .372-.31.676-.694.676a.686.686 0 0 1-.694-.676c0-.373.31-.676.694-.676.382 0 .694.301.694.676ZM599.704 297.258c0 .373-.31.676-.694.676a.686.686 0 0 1-.694-.676c0-.373.31-.676.694-.676.382 0 .694.303.694.676ZM584.552 299.367c0 .372-.31.676-.694.676a.685.685 0 0 1-.694-.676c0-.373.31-.676.694-.676a.688.688 0 0 1 .694.676ZM586.719 299.367a.685.685 0 0 1-.693.676.685.685 0 0 1-.694-.676c0-.373.31-.676.694-.676a.685.685 0 0 1 .693.676ZM588.884 299.367c0 .372-.31.676-.694.676a.685.685 0 0 1-.694-.676c0-.373.31-.676.694-.676a.686.686 0 0 1 .694.676ZM591.044 299.367c0 .372-.31.676-.694.676a.686.686 0 0 1-.694-.676c0-.373.31-.676.694-.676a.688.688 0 0 1 .694.676ZM595.376 299.367c0 .372-.31.676-.694.676a.686.686 0 0 1-.694-.676c0-.373.31-.676.694-.676a.686.686 0 0 1 .694.676ZM593.212 299.367c0 .372-.31.676-.694.676a.686.686 0 0 1-.694-.676c0-.373.31-.676.694-.676a.686.686 0 0 1 .694.676ZM597.54 299.367c0 .372-.31.676-.694.676a.686.686 0 0 1-.694-.676c0-.373.31-.676.694-.676a.686.686 0 0 1 .694.676ZM599.704 299.367c0 .372-.31.676-.694.676a.686.686 0 0 1-.694-.676c0-.373.31-.676.694-.676a.688.688 0 0 1 .694.676ZM582.387 301.477a.684.684 0 0 1-.693.676.685.685 0 0 1-.694-.676c0-.372.31-.676.694-.676.382 0 .693.302.693.676ZM586.719 301.477a.684.684 0 0 1-.693.676.685.685 0 0 1-.694-.676c0-.372.31-.676.694-.676.384 0 .693.302.693.676ZM584.552 301.477c0 .373-.31.676-.694.676a.685.685 0 0 1-.694-.676c0-.372.31-.676.694-.676.382 0 .694.302.694.676ZM593.212 301.477c0 .373-.31.676-.694.676a.686.686 0 0 1-.694-.676c0-.372.31-.676.694-.676.384 0 .694.302.694.676ZM595.376 301.477c0 .373-.31.676-.694.676a.686.686 0 0 1-.694-.676c0-.372.31-.676.694-.676.384 0 .694.302.694.676ZM597.54 301.477c0 .373-.31.676-.694.676a.686.686 0 0 1-.694-.676c0-.372.31-.676.694-.676.384 0 .694.302.694.676ZM582.387 303.586a.685.685 0 0 1-.693.676.685.685 0 0 1-.694-.676c0-.373.31-.676.694-.676.382 0 .693.303.693.676ZM584.552 303.586c0 .372-.31.676-.694.676a.685.685 0 0 1-.694-.676c0-.373.31-.676.694-.676.382 0 .694.303.694.676ZM593.212 303.586c0 .372-.31.676-.694.676a.686.686 0 0 1-.694-.676c0-.373.31-.676.694-.676.384 0 .694.303.694.676ZM591.044 301.477c0 .373-.31.676-.694.676a.686.686 0 0 1-.694-.676c0-.372.31-.676.694-.676.382 0 .694.302.694.676ZM591.044 303.586c0 .372-.31.676-.694.676a.686.686 0 0 1-.694-.676c0-.373.31-.676.694-.676.382 0 .694.303.694.676ZM588.884 301.477c0 .373-.31.676-.694.676a.685.685 0 0 1-.694-.676c0-.372.31-.676.694-.676.384 0 .694.302.694.676ZM588.884 303.586c0 .372-.31.676-.694.676a.685.685 0 0 1-.694-.676c0-.373.31-.676.694-.676.384 0 .694.303.694.676ZM582.387 305.695a.684.684 0 0 1-.693.676.685.685 0 0 1-.694-.676c0-.373.31-.676.694-.676a.687.687 0 0 1 .693.676ZM584.552 305.695c0 .373-.31.676-.694.676a.685.685 0 0 1-.694-.676c0-.373.31-.676.694-.676a.688.688 0 0 1 .694.676ZM588.884 305.695c0 .373-.31.676-.694.676a.685.685 0 0 1-.694-.676c0-.373.31-.676.694-.676a.686.686 0 0 1 .694.676ZM586.719 303.586a.685.685 0 0 1-.693.676.685.685 0 0 1-.694-.676c0-.373.31-.676.694-.676.384 0 .693.303.693.676ZM586.719 305.695a.684.684 0 0 1-.693.676.685.685 0 0 1-.694-.676c0-.373.31-.676.694-.676a.685.685 0 0 1 .693.676ZM591.044 305.695c0 .373-.31.676-.694.676a.686.686 0 0 1-.694-.676c0-.373.31-.676.694-.676a.688.688 0 0 1 .694.676ZM595.393 303.385c0 .373-.826.759-1.21.759-.383 0-.196-.184-.196-.558 0-.373.31-.676.694-.676.384 0 .712.102.712.475ZM584.552 307.805c0 .372-.279.047-.664.047-.382 0-.346-.047-.724-.047 0-.373.31-.676.694-.676.382 0 .694.302.694.676ZM586.719 307.805c0 .372-.309.3-.693.3-.383 0-.694.074-.694-.3 0-.373.31-.676.694-.676.384 0 .693.302.693.676ZM582.387 299.367a.685.685 0 0 1-.693.676.685.685 0 0 1-.694-.676c0-.373.31-.676.694-.676a.687.687 0 0 1 .693.676Z" fill="#3136BD"/><path d="M585.785 333.685c40.03 0 72.481-31.43 72.481-70.201 0-38.772-32.451-70.202-72.481-70.202-40.03 0-72.48 31.43-72.48 70.202 0 38.771 32.45 70.201 72.48 70.201Z" stroke="url(#m)" stroke-width="1.061" stroke-miterlimit="10"/></g></g><defs><linearGradient id="b" x1="-317.271" y1="669.651" x2="1167.77" y2="5.724" gradientUnits="userSpaceOnUse"><stop offset=".325" stop-color="#F8F8FE"/><stop offset="1" stop-color="#494FE1" stop-opacity=".93"/></linearGradient><linearGradient id="f" x1="508.451" y1="201.106" x2="648.804" y2="321.911" gradientUnits="userSpaceOnUse"><stop offset="0" stop-color="#3D4FC7"/><stop offset=".254" stop-color="#3D4FC7" stop-opacity=".72"/><stop offset=".391" stop-color="#3D4FC7" stop-opacity=".64"/><stop offset=".501" stop-color="#3D4FC7" stop-opacity=".48"/><stop offset=".595" stop-color="#3D4FC7" stop-opacity=".4"/><stop offset=".68" stop-color="#3D4FC7" stop-opacity=".32"/><stop offset=".759" stop-color="#3D4FC7" stop-opacity=".24"/><stop offset=".832" stop-color="#6266C6" stop-opacity=".16"/><stop offset=".901" stop-color="#6266C6" stop-opacity=".1"/><stop offset=".965" stop-color="#6266C6" stop-opacity=".03"/><stop offset="1" stop-opacity="0"/><stop offset="1" stop-color="#EFF0F8"/></linearGradient><linearGradient id="g" x1="665.898" y1="322.241" x2="527.429" y2="199.282" gradientUnits="userSpaceOnUse"><stop offset="0" stop-color="#3D4FC7"/><stop offset=".254" stop-color="#3D4FC7" stop-opacity=".72"/><stop offset=".391" stop-color="#3D4FC7" stop-opacity=".6"/><stop offset=".501" stop-color="#3D4FC7" stop-opacity=".5"/><stop offset=".595" stop-color="#3D4FC7" stop-opacity=".4"/><stop offset=".68" stop-color="#3D4FC7" stop-opacity=".32"/><stop offset=".759" stop-color="#3D4FC7" stop-opacity=".24"/><stop offset=".832" stop-color="#3D4FC7" stop-opacity=".16"/><stop offset=".901" stop-color="#3D4FC7" stop-opacity=".08"/><stop offset=".94" stop-color="#6266C6" stop-opacity=".04"/><stop offset=".965" stop-color="#3D4FC7" stop-opacity=".04"/><stop offset="1" stop-color="#3D4FC7" stop-opacity=".02"/></linearGradient><linearGradient id="h" x1="665.898" y1="322.241" x2="527.429" y2="199.282" gradientUnits="userSpaceOnUse"><stop offset="0" stop-color="#3D4FC7"/><stop offset=".254" stop-color="#3D4FC7" stop-opacity=".72"/><stop offset=".391" stop-color="#3D4FC7" stop-opacity=".64"/><stop offset=".501" stop-color="#3D4FC7" stop-opacity=".64"/><stop offset=".595" stop-color="#3D4FC7" stop-opacity=".4"/><stop offset=".68" stop-color="#3D4FC7" stop-opacity=".32"/><stop offset=".759" stop-color="#3D4FC7" stop-opacity=".24"/><stop offset=".832" stop-color="#3D4FC7" stop-opacity=".16"/><stop offset=".901" stop-color="#3D4FC7" stop-opacity=".08"/><stop offset=".965" stop-color="#3D4FC7" stop-opacity=".04"/><stop offset="1" stop-color="#3D4FC7" stop-opacity="0"/></linearGradient><linearGradient id="i" x1="623.36" y1="371.68" x2="483.423" y2="250.395" gradientUnits="userSpaceOnUse"><stop offset="0" stop-color="#3D4FC7"/><stop offset=".254" stop-color="#3D4FC7" stop-opacity=".72"/><stop offset=".391" stop-color="#3D4FC7" stop-opacity=".6"/><stop offset=".501" stop-color="#3D4FC7" stop-opacity=".48"/><stop offset=".595" stop-color="#3D4FC7" stop-opacity=".4"/><stop offset=".68" stop-color="#3D4FC7" stop-opacity=".4"/><stop offset=".759" stop-color="#3D4FC7" stop-opacity=".24"/><stop offset=".832" stop-color="#3D4FC7" stop-opacity=".16"/><stop offset=".901" stop-color="#3D4FC7" stop-opacity=".08"/><stop offset=".965" stop-color="#3D4FC7" stop-opacity=".04"/><stop offset="1" stop-color="#3D4FC7" stop-opacity="0"/></linearGradient><linearGradient id="j" x1="672.031" y1="313.493" x2="528.404" y2="196.601" gradientUnits="userSpaceOnUse"><stop offset="0" stop-color="#3D4FC7"/><stop offset=".122" stop-color="#3D4FC7" stop-opacity=".8"/><stop offset=".254" stop-color="#3D4FC7" stop-opacity=".72"/><stop offset=".391" stop-color="#3D4FC7" stop-opacity=".6"/><stop offset=".501" stop-color="#3D4FC7" stop-opacity=".48"/><stop offset=".595" stop-color="#3D4FC7" stop-opacity=".4"/><stop offset=".68" stop-color="#3D4FC7" stop-opacity=".32"/><stop offset=".759" stop-color="#3D4FC7" stop-opacity=".24"/><stop offset=".832" stop-color="#3D4FC7" stop-opacity=".16"/><stop offset=".865" stop-color="#4E54D1" stop-opacity=".122"/><stop offset=".901" stop-color="#3D4FC7" stop-opacity=".08"/><stop offset=".965" stop-color="#3D4FC7" stop-opacity=".04"/><stop offset="1" stop-opacity="0"/><stop offset="1" stop-color="#6266C6" stop-opacity="0"/><stop offset="1" stop-color="#3D4FC7" stop-opacity="0"/></linearGradient><linearGradient id="k" x1="626.532" y1="261.937" x2="544.704" y2="261.937" gradientUnits="userSpaceOnUse"><stop offset=".443" stop-color="#fff"/><stop offset=".589" stop-color="#A1A1A1"/><stop offset=".732" stop-color="#4A4A4A"/><stop offset=".832" stop-color="#151515"/><stop offset=".88"/></linearGradient><linearGradient id="m" x1="530.178" y1="218.314" x2="638.443" y2="312.06" gradientUnits="userSpaceOnUse"><stop stop-color="#57C3F9" stop-opacity=".2"/><stop offset=".489" stop-color="#57C3F9"/><stop offset=".761" stop-color="#57C3F9"/><stop offset="1" stop-color="#57C3F9" stop-opacity=".5"/></linearGradient><filter id="c" x="360.367" y="36.699" width="451.746" height="451.747" filterUnits="userSpaceOnUse" color-interpolation-filters="sRGB"><feFlood flood-opacity="0" result="BackgroundImageFix"/><feColorMatrix in="SourceAlpha" values="0 0 0 0 0 0 0 0 0 0 0 0 0 0 0 0 0 0 127 0" result="hardAlpha"/><feOffset/><feGaussianBlur stdDeviation="40"/><feComposite in2="hardAlpha" operator="out"/><feColorMatrix values="0 0 0 0 0.777767 0 0 0 0 0.797986 0 0 0 0 0.865384 0 0 0 0.4 0"/><feBlend in2="BackgroundImageFix" result="effect1_dropShadow_3145_175495"/><feBlend in="SourceGraphic" in2="effect1_dropShadow_3145_175495" result="shape"/></filter><filter id="d" x="368.82" y="115.063" width="481.617" height="414.441" filterUnits="userSpaceOnUse" color-interpolation-filters="sRGB"><feFlood flood-opacity="0" result="BackgroundImageFix"/><feColorMatrix in="SourceAlpha" values="0 0 0 0 0 0 0 0 0 0 0 0 0 0 0 0 0 0 127 0" result="hardAlpha"/><feOffset/><feGaussianBlur stdDeviation="40"/><feComposite in2="hardAlpha" operator="out"/><feColorMatrix values="0 0 0 0 0.777767 0 0 0 0 0.797986 0 0 0 0 0.865384 0 0 0 0.4 0"/><feBlend in2="BackgroundImageFix" result="effect1_dropShadow_3145_175495"/><feBlend in="SourceGraphic" in2="effect1_dropShadow_3145_175495" result="shape"/></filter><filter id="e" x="453.953" y="130.284" width="264.574" height="264.576" filterUnits="userSpaceOnUse" color-interpolation-filters="sRGB"><feFlood flood-opacity="0" result="BackgroundImageFix"/><feColorMatrix in="SourceAlpha" values="0 0 0 0 0 0 0 0 0 0 0 0 0 0 0 0 0 0 127 0" result="hardAlpha"/><feOffset/><feGaussianBlur stdDeviation="16"/><feComposite in2="hardAlpha" operator="out"/><feColorMatrix values="0 0 0 0 0.886275 0 0 0 0 0.894118 0 0 0 0 0.945098 0 0 0 0.6 0"/><feBlend in2="BackgroundImageFix" result="effect1_dropShadow_3145_175495"/><feBlend in="SourceGraphic" in2="effect1_dropShadow_3145_175495" result="shape"/></filter><clipPath id="a"><path fill="#fff" d="M0 0h973v524H0z"/></clipPath></defs></svg>