<svg width="154" height="155" viewBox="0 0 154 155" fill="none" xmlns="http://www.w3.org/2000/svg">
    <circle cx="73" cy="76" r="49" stroke="#323947" stroke-width="2"/>
    <g filter="url(#filter0_d)">
        <path d="M50.89 75V50.7H56.47C57.57 50.7 58.52 50.82 59.32 51.06C60.14 51.3 60.82 51.67 61.36 52.17C61.9 52.67 62.3 53.31 62.56 54.09C62.82 54.85 62.95 55.75 62.95 56.79C62.95 57.79 62.82 58.66 62.56 59.4C62.32 60.12 61.94 60.69 61.42 61.11C60.92 61.53 60.27 61.8 59.47 61.92C60.45 62.14 61.24 62.52 61.84 63.06C62.44 63.58 62.88 64.26 63.16 65.1C63.46 65.92 63.61 66.91 63.61 68.07C63.61 69.11 63.49 70.06 63.25 70.92C63.01 71.78 62.63 72.51 62.11 73.11C61.61 73.71 60.96 74.18 60.16 74.52C59.38 74.84 58.45 75 57.37 75H50.89ZM54.28 72.57H56.56C58.08 72.57 59.09 72.22 59.59 71.52C60.11 70.8 60.37 69.65 60.37 68.07C60.37 67.05 60.23 66.2 59.95 65.52C59.69 64.82 59.26 64.3 58.66 63.96C58.08 63.6 57.29 63.42 56.29 63.42H54.28V72.57ZM54.28 60.84H56.29C57.25 60.84 58 60.71 58.54 60.45C59.08 60.17 59.46 59.73 59.68 59.13C59.9 58.53 60.01 57.75 60.01 56.79C60.01 55.67 59.84 54.86 59.5 54.36C59.16 53.86 58.63 53.55 57.91 53.43C57.19 53.29 56.25 53.22 55.09 53.22H54.28V60.84ZM71.1524 75.24C69.7924 75.24 68.7424 74.98 68.0024 74.46C67.2624 73.92 66.7424 73.14 66.4424 72.12C66.1624 71.08 66.0224 69.81 66.0224 68.31V64.35C66.0224 62.81 66.1724 61.53 66.4724 60.51C66.7724 59.49 67.2924 58.72 68.0324 58.2C68.7924 57.68 69.8324 57.42 71.1524 57.42C72.6124 57.42 73.6824 57.72 74.3624 58.32C75.0624 58.92 75.5224 59.79 75.7424 60.93C75.9624 62.05 76.0724 63.4 76.0724 64.98V66.39H69.2324V69.87C69.2324 70.57 69.2924 71.14 69.4124 71.58C69.5524 72.02 69.7624 72.35 70.0424 72.57C70.3424 72.77 70.7224 72.87 71.1824 72.87C71.6624 72.87 72.0224 72.76 72.2624 72.54C72.5224 72.3 72.6924 71.97 72.7724 71.55C72.8724 71.11 72.9224 70.6 72.9224 70.02V68.97H76.0424V69.63C76.0424 71.37 75.6724 72.74 74.9324 73.74C74.1924 74.74 72.9324 75.24 71.1524 75.24ZM69.2324 64.65H72.9224V63.09C72.9224 62.37 72.8824 61.77 72.8024 61.29C72.7224 60.79 72.5524 60.42 72.2924 60.18C72.0524 59.92 71.6624 59.79 71.1224 59.79C70.6024 59.79 70.2024 59.91 69.9224 60.15C69.6624 60.39 69.4824 60.8 69.3824 61.38C69.2824 61.94 69.2324 62.72 69.2324 63.72V64.65ZM50.89 105V80.7H55.78C57.4 80.7 58.74 80.92 59.8 81.36C60.86 81.78 61.64 82.47 62.14 83.43C62.66 84.37 62.92 85.61 62.92 87.15C62.92 88.09 62.82 88.95 62.62 89.73C62.42 90.49 62.1 91.14 61.66 91.68C61.22 92.2 60.64 92.58 59.92 92.82L63.37 105H60.1L56.92 93.6H54.28V105H50.89ZM54.28 91.17H55.57C56.53 91.17 57.31 91.05 57.91 90.81C58.51 90.57 58.95 90.16 59.23 89.58C59.51 89 59.65 88.19 59.65 87.15C59.65 85.73 59.39 84.71 58.87 84.09C58.35 83.45 57.32 83.13 55.78 83.13H54.28V91.17ZM66.4466 105V80.7H75.8666V83.22H69.8366V91.26H74.7266V93.66H69.8366V102.57H75.9266V105H66.4466ZM77.3434 105L82.5034 80.7H85.7734L90.9634 105H87.7534L86.6434 98.88H81.6934L80.5234 105H77.3434ZM82.1434 96.45H86.1934L84.1534 85.5L82.1434 96.45ZM93.4291 105V80.7H96.8191V102.57H103.029V105H93.4291Z" fill="#323947"/>
    </g>
    <defs>
        <filter id="filter0_d" x="0.889893" y="0.699951" width="152.139" height="154.3" filterUnits="userSpaceOnUse" color-interpolation-filters="sRGB">
            <feFlood flood-opacity="0" result="BackgroundImageFix"/>
            <feColorMatrix in="SourceAlpha" type="matrix" values="0 0 0 0 0 0 0 0 0 0 0 0 0 0 0 0 0 0 127 0"/>
            <feOffset/>
            <feGaussianBlur stdDeviation="25"/>
            <feColorMatrix type="matrix" values="0 0 0 0 0 0 0 0 0 0 0 0 0 0 0 0 0 0 0.25 0"/>
            <feBlend mode="normal" in2="BackgroundImageFix" result="effect1_dropShadow"/>
            <feBlend mode="normal" in="SourceGraphic" in2="effect1_dropShadow" result="shape"/>
        </filter>
    </defs>
</svg>
