<svg width="100" height="100" viewBox="0 0 100 100" fill="none" xmlns="http://www.w3.org/2000/svg">
    <circle cx="50" cy="50" r="49" stroke="#323947" stroke-width="2"/>
    <path d="M63.5076 63.571L63.5072 63.5697C62.706 60.6473 59.7931 58.6576 56.318 56.8047L63.5076 63.571ZM63.5076 63.571C64.7011 67.9081 62.1765 72.1201 59.9011 74.5206C57.9447 76.5794 55.3937 77.9971 52.3344 78.5H52.3342H52.3262H52.3182H52.3102H52.3023H52.2943H52.2863H52.2783H52.2704H52.2624H52.2544H52.2464H52.2384H52.2305H52.2225H52.2145H52.2065H52.1986H52.1906H52.1826H52.1746H52.1666H52.1587H52.1507H52.1427H52.1347H52.1268H52.1188H52.1108H52.1028H52.0948H52.0869H52.0789H52.0709H52.0629H52.055H52.047H52.039H52.031H52.023H52.0151H52.0071H51.9991H51.9911H51.9832H51.9752H51.9672H51.9592H51.9512H51.9433H51.9353H51.9273H51.9193H51.9113H51.9034H51.8954H51.8874H51.8794H51.8715H51.8635H51.8555H51.8475H51.8395H51.8316H51.8236H51.8156H51.8076H51.7997H51.7917H51.7837H51.7757H51.7677H51.7598H51.7518H51.7438H51.7358H51.7278H51.7199H51.7119H51.7039H51.6959H51.688H51.68H51.672H51.664H51.656H51.6481H51.6401H51.6321H51.6241H51.6161H51.6082H51.6002H51.5922H51.5842H51.5763H51.5683H51.5603H51.5523H51.5443H51.5364H51.5284H51.5204H51.5124H51.5044H51.4965H51.4885H51.4805H51.4725H51.4645H51.4566H51.4486H51.4406H51.4326H51.4247H51.4167H51.4087H51.4007H51.3927H51.3848H51.3768H51.3688H51.3608H51.3528H51.3449H51.3369H51.3289H51.3209H51.3129H51.305H51.297H51.289H51.281H51.273H51.2651H51.2571H51.2491H51.2411H51.2331H51.2252H51.2172H51.2092H51.2012H51.1932H51.1853H51.1773H51.1693H51.1613H51.1533H51.1454H51.1374H51.1294H51.1214H51.1134H51.1055H51.0975H51.0895H51.0815H51.0735H51.0656H51.0576H51.0496H51.0416H51.0336H51.0257H51.0177H51.0097H51.0017H50.9937H50.9858H50.9778H50.9698H50.9618H50.9538H50.9459H50.9379H50.9299H50.9219H50.9139H50.906H50.898H50.89H50.882H50.874H50.866H50.8581H50.8501H50.8421H50.8341H50.8261H50.8182H50.8102H50.8022H50.7942H50.7862H50.7782H50.7703H50.7623H50.7543H50.7463H50.7383H50.7304H50.7224H50.7144H50.7064H50.6984H50.6905H50.6825H50.6745H50.6665H50.6585H50.6505H50.6426H50.6346H50.6266H50.6186H50.6106H50.6026H50.5947H50.5867H50.5787H50.5707H50.5627H50.5548H50.5468H50.5388H50.5308H50.5228H50.5148H50.5069H50.4989H50.4909H50.4829H50.4749H50.4669H50.459H50.451H50.443H50.435H50.427H50.419H50.4111H50.4031H50.3951H50.3871H50.3791H50.3711H50.3632H50.3552H50.3472H50.3392H50.3312H50.3232H50.3153H50.3073H50.2993H50.2913H50.2833H50.2753H50.2673H50.2594H50.2514H50.2434H50.2354H50.2274H50.2194H50.2115H50.2035H50.1955H50.1875H50.1795H50.1715H50.1636H50.1556H50.1476H50.1396H50.1316H50.1236H50.1156H50.1077H50.0997H50.0917H50.0837H50.0757H50.0677H50.0597H50.0518H50.0438H50.0358H50.0278H50.0198H50.0118H50.0038H49.9959H49.9879H49.9799H49.9719H49.9639H49.9559H49.9479H49.94H49.932H49.924H49.916H49.908H49.9H49.892H49.8841H49.8761H49.8681H49.8601H49.8521H49.8441H49.8361H49.8281H49.8202H49.8122H49.8042H49.7962H49.7882H49.7802H49.7722H49.7642H49.7563H49.7483H49.7403H49.7323H49.7243H49.7163H49.7083H49.7003H49.6924H49.6844H49.6764H49.6684H49.6604H49.6524H49.6444H49.6364H49.6284H49.6205H49.6125H49.6045H49.5965H49.5885H49.5805H49.5725H49.5645H49.5565H49.5486H49.5406H49.5326H49.5246H49.5166H49.5086H49.5006H49.4926H49.4846H49.4767H49.4687H49.4607H49.4527H49.4447H49.4367H49.4287H49.4207H49.4127H49.4047H49.3968H49.3888H49.3808H49.3728H49.3648H49.3568H49.3488H49.3408H49.3328H49.3248H49.3168H49.3089H49.3009H49.2929H49.2849H49.2769H49.2689H49.2609H49.2529H49.2449H49.2369H49.2289H49.2209H49.213H49.205H49.197H49.189H49.181H49.173H49.165H49.157H49.149H49.141H49.133H49.125H49.117H49.1091H49.1011H49.0931H49.0851H49.0771H49.0691H49.0611H49.0531H49.0451H49.0371H49.0291H49.0211H49.0131H49.0051H48.9971H48.9892H48.9812H48.9732H48.9652H48.9572H48.9492H48.9412H48.9332H48.9252H48.9172H48.9092H48.9012H48.8932H48.8852H48.8772H48.8692H48.8612H48.8532H48.8453H48.8373H48.8293H48.8213H48.8133H48.8053H48.7973H48.7893H48.7813H48.7733H48.7653H48.7573H48.7493H48.7413H48.7333H48.7253H48.7173H48.7093H48.7013H48.6933H48.6853H48.6773H48.6693H48.6613H48.6533H48.6453H48.6373H48.6293H48.6214H48.6134H48.6054H48.5974H48.5894H48.5814H48.5734H48.5654H48.5574H48.5494H48.5414H48.5334H48.5254H48.5174H48.5094H48.5014H48.4934H48.4854H48.4774H48.4694H48.4614H48.4534H48.4497C40.3732 77.5807 34.063 74.2916 29.7584 69.612C25.3795 64.8461 21.9555 58.7252 21.5 50.5127V50.5096V50.5047V50.4998V50.4949V50.4899V50.485V50.4801V50.4752V50.4703V50.4654V50.4604V50.4555V50.4506V50.4457V50.4408V50.4359V50.431V50.426V50.4211V50.4162V50.4113V50.4064V50.4014V50.3965V50.3916V50.3867V50.3818V50.3769V50.3719V50.367V50.3621V50.3572V50.3523V50.3473V50.3424V50.3375V50.3326V50.3277V50.3227V50.3178V50.3129V50.308V50.3031V50.2981V50.2932V50.2883V50.2834V50.2785V50.2735V50.2686V50.2637V50.2588V50.2538V50.2489V50.244V50.2391V50.2341V50.2292V50.2243V50.2194V50.2145V50.2095V50.2046V50.1997V50.1948V50.1898V50.1849V50.18V50.1751V50.1701V50.1652V50.1603V50.1554V50.1504V50.1455V50.1406V50.1357V50.1307V50.1258V50.1209V50.116V50.111V50.1061V50.1012V50.0963V50.0913V50.0864V50.0815V50.0766V50.0716V50.0667V50.0618V50.0568V50.0519V50.047V50.0421V50.0371V50.0322V50.0273V50.0224V50.0174V50.0125V50.0076V50.0026V49.9977V49.9928V49.9879V49.9829V49.978V49.9731V49.9681V49.9632V49.9583V49.9534V49.9484V49.9435V49.9386V49.9336V49.9287V49.9238V49.9188V49.9139V49.909V49.9041V49.8991V49.8942V49.8893V49.8843V49.8794V49.8745V49.8695V49.8646V49.8597V49.8548V49.8498V49.8449V49.84V49.835V49.8301V49.8252V49.8202V49.8153V49.8104V49.8054V49.8005V49.7956V49.7906V49.7857V49.7808V49.7758V49.7709V49.766V49.7611V49.7561V49.7512V49.7463V49.7413V49.7364V49.7315V49.7265V49.7216V49.7167V49.7117V49.7068V49.7019V49.6969V49.692V49.6871V49.6821V49.6772V49.6723V49.6673V49.6624V49.6575V49.6525V49.6476V49.6427V49.6377V49.6328V49.6279V49.6229V49.618V49.6131V49.6081V49.6032V49.5983V49.5933V49.5884V49.5835V49.5785V49.5736V49.5686V49.5637V49.5588V49.5538V49.5489V49.544V49.539V49.5341V49.5292V49.5242V49.5193V49.5144V49.5094V49.5045V49.4996V49.4946V49.4897V49.4848V49.4798V49.4749V49.47V49.465V49.4601V49.4552V49.4502V49.4453V49.4403V49.4354V49.4305V49.4255V49.4206V49.4157V49.4107V49.4058V49.4009V49.3959V49.391V49.3861V49.3811V49.3762V49.3713V49.3663V49.3614V49.3564V49.3515V49.3466V49.3416V49.3367V49.3318V49.3268V49.3219V49.317V49.312V49.3071V49.3022V49.2972V49.2923V49.2874V49.2824V49.2775V49.2725V49.2676V49.2627V49.2577V49.2528V49.2479V49.2429V49.238V49.2331V49.2281V49.2232V49.2183V49.2133V49.2084V49.2035V49.1985V49.1936V49.1886V49.1837V49.1788V49.1738V49.1689V49.164V49.159V49.1541V49.1492V49.1442V49.1393V49.1344V49.1294V49.1245V49.1196V49.1146V49.1097V49.1047V49.0998V49.0949V49.0899V49.085V49.0801V49.0751V49.0702V49.0653V49.0603V49.0554V49.0505V49.0455V49.0406V49.0357V49.0307V49.0258V49.0209V49.0159V49.011V49.0061V49.0011V48.9962V48.9913V48.9863V48.9814V48.9765V48.9715V48.9666V48.9617V48.9567V48.9518V48.9468V48.9419V48.937V48.932V48.9271V48.9222V48.9172V48.9123V48.9074V48.9024V48.8975V48.8926V48.8876V48.8827V48.8778V48.8729V48.8679V48.863V48.8581V48.8531V48.8482V48.8433V48.8383V48.8334V48.8285V48.8235V48.8186V48.8137V48.8087V48.8038V48.7989V48.7939V48.789V48.7841V48.7791V48.7742V48.7693V48.7643V48.7594V48.7545V48.7495V48.7446V48.7397V48.7348V48.7298V48.7249V48.72V48.715V48.7101V48.7052V48.7002V48.6953V48.6904V48.6854V48.6805V48.6756V48.6707V48.6657V48.6608V48.6559V48.6509V48.646V48.6411V48.6362V48.6312V48.6263V48.6214V48.6164V48.6115V48.6066V48.6016V48.5967V48.5918V48.5869V48.5819V48.577V48.5721V48.5672V48.5622V48.5573V48.5524V48.5474V48.5425V48.5376V48.5327V48.5277V48.5228V48.5179V48.5129V48.508V48.5031V48.4982V48.4932V48.4883V48.4834V48.4785V48.4735V48.4686V48.4637V48.4588V48.4538V48.4489V48.444V48.4391V48.4341V48.4292V48.4243V48.4194V48.4144V48.4095V48.4046V48.3997V48.3947V48.3898V48.3849V48.38V48.375V48.3701V48.3652V48.3603V48.3554V48.3504V48.3455V48.3406V48.3357V48.3307V48.3258V48.3209V48.316V48.311V48.3061V48.3012V48.2963V48.2914V48.2864V48.2815V48.2766V48.2717V48.2668V48.2618V48.2569V48.252V48.2471V48.2422V48.2372V48.2323V48.2274V48.2225V48.2176V48.2126V48.2077V48.2028V48.1979V48.193V48.188V48.1831V48.1782V48.1733V48.1684V48.1635V48.1585V48.1536V48.1487V48.1438V48.1389V48.134V48.129V48.1241V48.1192V48.1143V48.1094V48.1045V48.0995V48.0946V48.0897V48.0848V48.0799V48.075V48.0701V48.0692C21.6784 44.64 22.5543 41.5036 23.6829 38.5967L23.6834 38.5954C24.6584 36.0774 25.9767 33.677 27.4971 31.7274M63.5076 63.571L27.4971 31.7274M27.4971 31.7274C27.5349 32.2432 27.5862 32.7182 27.655 33.1312C28.2888 36.9341 30.3819 41.0608 33.0045 43.6797C35.0203 45.6991 37.6628 47.0949 40.1584 48.4131C40.2976 48.4866 40.4363 48.5599 40.5744 48.633C43.2041 50.0292 45.7697 51.3441 48.3194 52.651L48.4773 52.732C51.0821 54.067 53.6718 55.3955 56.3174 56.8044L27.4971 31.7274Z" stroke="#323947" stroke-width="3"/>
    <path d="M41.7029 24.4795L41.7017 24.4809C41.2108 25.0372 40.7208 25.8782 40.3351 26.8083C39.949 27.7393 39.7191 28.6343 39.6681 29.2559C39.4197 32.3453 40.3794 34.3355 41.8787 35.8759C43.4587 37.4992 45.6584 38.6541 48.0731 39.922L48.1229 39.9482C51.2175 41.5691 54.3724 43.205 57.5351 44.8449C59.4063 45.8152 61.2803 46.7869 63.1462 47.7578L63.1475 47.7585C65.7459 49.1138 68.2984 50.6013 70.2873 52.7601L41.7029 24.4795ZM41.7029 24.4795C43.114 22.8762 45.6634 22.03 48.757 21.5M41.7029 24.4795L48.757 21.5M48.757 21.5H48.7585H48.7616H48.7646H48.7677H48.7707H48.7737H48.7768H48.7798H48.7829H48.7859H48.7889H48.792H48.795H48.7981H48.8011H48.8042H48.8072H48.8102H48.8133H48.8163H48.8194H48.8224H48.8255H48.8285H48.8315H48.8346H48.8376H48.8407H48.8437H48.8468H48.8498H48.8528H48.8559H48.8589H48.862H48.865H48.8681H48.8711H48.8741H48.8772H48.8802H48.8833H48.8863H48.8894H48.8924H48.8954H48.8985H48.9015H48.9046H48.9076H48.9107H48.9137H48.9167H48.9198H48.9228H48.9259H48.9289H48.932H48.935H48.9381H48.9411H48.9441H48.9472H48.9502H48.9533H48.9563H48.9594H48.9624H48.9654H48.9685H48.9715H48.9746H48.9776H48.9807H48.9837H48.9867H48.9898H48.9928H48.9959H48.9989H49.002H49.005H49.008H49.0111H49.0141H49.0172H49.0202H49.0233H49.0263H49.0294H49.0324H49.0354H49.0385H49.0415H49.0446H49.0476H49.0507H49.0537H49.0568H49.0598H49.0628H49.0659H49.0689H49.072H49.075H49.0781H49.0811H49.0841H49.0872H49.0902H49.0933H49.0963H49.0994H49.1024H49.1055H49.1085H49.1115H49.1146H49.1176H49.1207H49.1237H49.1268H49.1298H49.1329H49.1359H49.139H49.142H49.145H49.1481H49.1511H49.1542H49.1572H49.1603H49.1633H49.1664H49.1694H49.1724H49.1755H49.1785H49.1816H49.1846H49.1877H49.1907H49.1938H49.1968H49.1999H49.2029H49.2059H49.209H49.212H49.2151H49.2181H49.2212H49.2242H49.2273H49.2303H49.2334H49.2364H49.2394H49.2425H49.2455H49.2486H49.2516H49.2547H49.2577H49.2608H49.2638H49.2669H49.2699H49.273H49.276H49.279H49.2821H49.2851H49.2882H49.2912H49.2943H49.2973H49.3004H49.3034H49.3065H49.3095H49.3126H49.3156H49.3186H49.3217H49.3247H49.3278H49.3308H49.3339H49.3369H49.34H49.343H49.3461H49.3491H49.3522H49.3552H49.3583H49.3613H49.3644H49.3674H49.3704H49.3735H49.3765H49.3796H49.3826H49.3857H49.3887H49.3918H49.3948H49.3979H49.4009H49.404H49.407H49.4101H49.4131H49.4162H49.4192H49.4223H49.4253H49.4284H49.4314H49.4345H49.4375H49.4406H49.4436H49.4466H49.4497H49.4527H49.4558H49.4588H49.4619H49.4649H49.468H49.471H49.4741H49.4771H49.4802H49.4832H49.4863H49.4893H49.4924H49.4954H49.4985H49.5015H49.5046H49.5076H49.5107H49.5137H49.5168H49.5198H49.5229H49.5259H49.529H49.532H49.5351H49.5381H49.5412H49.5442H49.5473H49.5503H49.5534H49.5564H49.5595H49.5625H49.5656H49.5686H49.5717H49.5747H49.5778H49.5808H49.5839H49.5869H49.59H49.593H49.5961H49.5991H49.6022H49.6052H49.6083H49.6113H49.6144H49.6174H49.6205H49.6235H49.6266H49.6296H49.6327H49.6358H49.6388H49.6419H49.6449H49.648H49.651H49.6541H49.6571H49.6602H49.6632H49.6663H49.6693H49.6724H49.6754H49.6785H49.6815H49.6846H49.6876H49.6907H49.6937H49.6968H49.6999H49.7029H49.706H49.709H49.7121H49.7151H49.7182H49.7212H49.7243H49.7273H49.7304H49.7334H49.7365H49.7395H49.7426H49.7457H49.7487H49.7518H49.7548H49.7579H49.7609H49.764H49.767H49.7701H49.7731H49.7762H49.7792H49.7823H49.7854H49.7884H49.7915H49.7945H49.7976H49.8006H49.8037H49.8067H49.8098H49.8129H49.8159H49.819H49.822H49.8251H49.8281H49.8312H49.8342H49.8373H49.8404H49.8434H49.8465H49.8495H49.8526H49.8556H49.8587H49.8617H49.8648H49.8679H49.8709H49.874H49.877H49.8801H49.8831H49.8862H49.8893H49.8923H49.8954H49.8984H49.9015H49.9045H49.9076H49.9107H49.9137H49.9168H49.9198H49.9229H49.9259H49.929H49.9321H49.9351H49.9382H49.9412H49.9443H49.9474H49.9504H49.9535H49.9565H49.9596H49.9626H49.9657H49.9688H49.9718H49.9749H49.9779H49.981H49.9841H49.9871H49.9902H49.9932H49.9963H49.9994H50.0024H50.0055H50.0085H50.0116H50.0147H50.0177H50.0208H50.0238H50.0269H50.03H50.033H50.0361H50.0391H50.0422H50.0453H50.0483H50.0514H50.0544H50.0575H50.0606H50.0636H50.0667H50.0698H50.0728H50.0759H50.0789H50.082H50.0851H50.0881H50.0912H50.0942H50.0973H50.1004H50.1034H50.1065H50.1096H50.1126H50.1157H50.1187H50.1218H50.1249H50.1279H50.131H50.1314C57.9122 22.1381 64.4799 24.8887 69.3492 29.4284C74.2082 33.9586 77.4676 40.3553 78.5 48.4597V48.4688V48.4781V48.4875V48.4969V48.5063V48.5157V48.5251V48.5345V48.5439V48.5533V48.5627V48.5721V48.5815V48.5909V48.6003V48.6097V48.6191V48.6285V48.6379V48.6473V48.6567V48.6661V48.6755V48.6849V48.6942V48.7036V48.713V48.7224V48.7318V48.7412V48.7506V48.76V48.7694V48.7788V48.7882V48.7976V48.807V48.8164V48.8258V48.8352V48.8446V48.8539V48.8633V48.8727V48.8821V48.8915V48.9009V48.9103V48.9197V48.9291V48.9385V48.9479V48.9573V48.9667V48.9761V48.9854V48.9948V49.0042V49.0136V49.023V49.0324V49.0418V49.0512V49.0606V49.07V49.0794V49.0888V49.0982V49.1075V49.1169V49.1263V49.1357V49.1451V49.1545V49.1639V49.1733V49.1827V49.1921V49.2015V49.2108V49.2202V49.2296V49.239V49.2484V49.2578V49.2672V49.2766V49.286V49.2954V49.3048V49.3141V49.3235V49.3329V49.3423V49.3517V49.3611V49.3705V49.3799V49.3893V49.3987V49.408V49.4174V49.4268V49.4362V49.4456V49.455V49.4644V49.4738V49.4832V49.4926V49.5019V49.5113V49.5207V49.5301V49.5395V49.5489V49.5583V49.5677V49.5771V49.5864V49.5958V49.6052V49.6146V49.624V49.6334V49.6428V49.6522V49.6616V49.6709V49.6803V49.6897V49.6991V49.7085V49.7179V49.7273V49.7367V49.7461V49.7554V49.7648V49.7742V49.7836V49.793V49.8024V49.8118V49.8212V49.8305V49.8399V49.8493V49.8587V49.8681V49.8775V49.8869V49.8963V49.9056V49.915V49.9244V49.9338V49.9432V49.9526V49.962V49.9714V49.9807V49.9901V49.9995V50.0089V50.0183V50.0277V50.0371V50.0465V50.0558V50.0652V50.0746V50.084V50.0934V50.1028V50.1122V50.1216V50.1309V50.1403V50.1497V50.1591V50.1685V50.1779V50.1873V50.1967V50.206V50.2154V50.2248V50.2342V50.2436V50.253V50.2624V50.2717V50.2811V50.2905V50.2999V50.3093V50.3187V50.3281V50.3375V50.3468V50.3562V50.3656V50.375V50.3844V50.3938V50.4032V50.4125V50.4219V50.4313V50.4407V50.4501V50.4595V50.4689V50.4783V50.4876V50.497V50.5064V50.5158V50.5252V50.5346V50.544V50.5533V50.5627V50.5721V50.5815V50.5909V50.6003V50.6097V50.619V50.6284V50.6378V50.6472V50.6566V50.666V50.6754V50.6848V50.6941V50.7035V50.7129V50.7223V50.7317V50.7411V50.7505V50.7598V50.7692V50.7786V50.788V50.7974V50.8068V50.8162V50.8255V50.8349V50.8443V50.8537V50.8631V50.8725V50.8819V50.8913V50.9006V50.91V50.9194V50.9288V50.9382V50.9476V50.957V50.9663V50.9757V50.9851V50.9945V51.0039V51.0133V51.0227V51.032V51.0414V51.0508V51.0602V51.0696V51.079V51.0884V51.0978V51.1071V51.1165V51.1259V51.1353V51.1447V51.1541V51.1635V51.1728V51.1822V51.1916V51.201V51.2104V51.2198V51.2292V51.2386V51.2479V51.2573V51.2667V51.2761V51.2855V51.2949V51.3043V51.3136V51.323V51.3324V51.3418V51.3512V51.3606V51.37V51.3794V51.3887V51.3981V51.4075V51.4169V51.4263V51.4357V51.4451V51.4545V51.4638V51.4732V51.4826V51.492V51.5014V51.5108V51.5202V51.5295V51.5389V51.5483V51.5577V51.5671V51.5765V51.5859V51.5953V51.6046V51.614V51.6234V51.6328V51.6422V51.6516V51.661V51.6704V51.6798V51.6891V51.6985V51.7079V51.7173V51.7267V51.7361V51.7455V51.7549V51.7642V51.7736V51.783V51.7924V51.8018V51.8112V51.8206V51.83V51.8393V51.8487V51.8581V51.8675V51.8769V51.8863V51.8957V51.9051V51.9145V51.9238V51.9332V51.9426V51.952V51.9614V51.9708V51.9802V51.9896V51.999V52.0084V52.0177V52.0271V52.0365V52.0459V52.0553V52.0647V52.0741V52.0835V52.0929V52.1022V52.1116V52.121V52.1304V52.1398V52.1492V52.1586V52.168V52.1774V52.1868V52.1961V52.2055V52.2149V52.2243V52.2337V52.2431V52.2525V52.2619V52.2713V52.2807V52.2901V52.2994V52.3088V52.3182V52.3276V52.337V52.3464V52.3558V52.3652V52.3746V52.384V52.3934V52.4027V52.4121V52.4215V52.4309V52.4403V52.4497V52.4591V52.4685V52.4779V52.4873V52.4967V52.5061V52.5154V52.5248V52.5342V52.5436V52.553V52.5624V52.5718V52.5812V52.5906V52.6V52.6094V52.6188V52.6282V52.6376V52.6469V52.6563V52.6657V52.6751V52.6845V52.6939V52.7029C78.394 52.9652 78.3718 53.2129 78.3769 53.4044C78.0476 57.4792 76.916 61.0514 75.4747 63.9629C74.8932 59.2842 72.9832 55.6839 70.2878 52.7606L48.757 21.5Z" stroke="#323947" stroke-width="3"/>
</svg>
