<svg width="100" height="100" viewBox="0 0 100 100" fill="none" xmlns="http://www.w3.org/2000/svg">
    <circle cx="50" cy="50" r="49" stroke="#323947" stroke-width="2"/>
    <path d="M79.794 21.0163C79.4715 20.39 78.8302 20 78.1252 20H59.3752C58.7677 20 58.2015 20.2925 57.849 20.7837L50.0002 31.7712L42.1515 20.7837C41.799 20.2925 41.2327 20 40.6252 20H21.8752C21.174 20 20.529 20.39 20.2065 21.0163C19.8877 21.6387 19.9402 22.3925 20.349 22.9662L37.689 47.2213C33.774 50.66 31.2502 55.6437 31.2502 61.25C31.2502 71.5887 39.6615 80 50.0002 80C60.339 80 68.7502 71.5887 68.7502 61.25C68.7502 55.6437 66.2265 50.66 62.3115 47.2213L79.6515 22.9662C80.0602 22.3963 80.1165 21.6387 79.794 21.0163ZM25.5202 23.75H39.6615L47.694 34.9962L40.629 44.885L25.5202 23.75ZM65.0002 61.25C65.0002 69.5225 58.2727 76.25 50.0002 76.25C41.7277 76.25 35.0002 69.5225 35.0002 61.25C35.0002 52.9775 41.7277 46.25 50.0002 46.25C58.2727 46.25 65.0002 52.9775 65.0002 61.25ZM59.2552 45.0425C56.514 43.4713 53.3827 42.5 50.0002 42.5C48.864 42.5 47.7652 42.6425 46.6852 42.8338L51.5602 36.0238C51.5752 36.0013 51.594 35.9788 51.609 35.9563L60.339 23.75H74.4802L59.2552 45.0425Z" fill="#323947"/>
</svg>
