<svg width="100" height="100" viewBox="0 0 100 100" fill="none" xmlns="http://www.w3.org/2000/svg">
    <circle cx="50" cy="50" r="49" stroke="#323947" stroke-width="2"/>
    <path d="M64.705 40.9121V42.4121H66.205H69.693C70.1771 42.4126 70.6413 42.6051 70.9837 42.9475C71.3261 43.2898 71.5188 43.7539 71.5194 44.2381V76.6745C71.5186 77.1586 71.326 77.6226 70.9836 77.9648C70.6412 78.3071 70.177 78.4995 69.693 78.5H29.3256C28.8416 78.4995 28.3776 78.3071 28.0354 77.9649C27.6933 77.623 27.5008 77.1593 27.5 76.6757V44.2371C27.5006 43.7533 27.6931 43.2895 28.0352 42.9474L26.9746 41.8867L28.0352 42.9474C28.3775 42.6051 28.8416 42.4126 29.3256 42.4121H32.4919H33.9919V40.9121V36.4556C34.0977 32.4566 35.7594 28.6563 38.6239 25.8631C41.4929 23.0657 45.3414 21.5 49.3484 21.5C53.3555 21.5 57.204 23.0657 60.073 25.8631C62.9375 28.6563 64.5992 32.4566 64.705 36.4556V40.9121ZM59.556 42.4121H61.056V40.9121V36.4362V36.4045L61.0546 36.3729C60.9272 33.3536 59.638 30.5004 57.4566 28.4091C55.2751 26.3178 52.37 25.1502 49.348 25.1502C46.3261 25.1502 43.4209 26.3178 41.2395 28.4091C39.058 30.5004 37.7689 33.3536 37.6414 36.3729L37.6401 36.4045V36.4362V40.9121V42.4121H39.1401H59.556ZM53.9881 67.2387C54.2244 66.6486 54.3417 66.0178 54.3334 65.3823V55.5307C54.3417 54.8952 54.2244 54.2643 53.9881 53.6743C53.7502 53.0802 53.3965 52.5394 52.9476 52.0834L51.8786 53.1357L52.9476 52.0834C52.4987 51.6274 51.9636 51.2652 51.3734 51.018C50.7831 50.7707 50.1496 50.6434 49.5097 50.6434C48.8698 50.6434 48.2363 50.7707 47.646 51.018C47.0558 51.2652 46.5206 51.6274 46.0717 52.0834C45.6228 52.5394 45.2692 53.0802 45.0313 53.6743C44.795 54.2643 44.6777 54.8952 44.686 55.5307V65.3823C44.6777 66.0178 44.795 66.6486 45.0313 67.2387C45.2692 67.8327 45.6228 68.3735 46.0717 68.8296C46.5207 69.2856 47.0558 69.6478 47.646 69.895C48.2362 70.1422 48.8698 70.2695 49.5097 70.2695C50.1496 70.2695 50.7831 70.1422 51.3734 69.895C51.9636 69.6478 52.4987 69.2856 52.9476 68.8296C53.3965 68.3735 53.7502 67.8327 53.9881 67.2387Z" stroke="#323947" stroke-width="3"/>
</svg>
